<svg width="80" height="117" fill="none" xmlns="http://www.w3.org/2000/svg"><path d="M41.023 87.056l1.158.05.503.646.758.83.235.153v.308l.092 5.685.435 4.499.776 5.275 1.055 4.314 1.21 2.73s1.49 2.7 2.825 3.289c1.334.589 2.265 1.365 3.35 1.148 1.086-.218 2.7-.248 4.22-1.335 1.52-1.088 3.227-2.979 4.095-4.716.869-1.737 1.335-2.917 1.894-5.088.559-2.172.869-5.4.9-7.666.03-2.265 0-7.665 0-7.665l-.433-7.354-.777-10.27-.263-2.002.975 1.276s1.66 1.431 3.225 1.395c1.564-.036 2.04.1 4.328-1.598 2.288-1.699 2.65-5.934 2.65-5.934s-.204-2.22-1.066-3.126c-.86-.907-1.811-1.45-2.356-1.496-.545-.046-1.88 0-1.88 0s1.655-1.858 3.67-3.285c2.015-1.427 3.079-2.356 4.325-3.874 1.247-1.517 2.039-3.421 2.017-5.436-.023-2.016-.318-3.578-1.428-5.279-1.11-1.7-4.304-5.46-4.304-5.46l-2.197-2.219-4.009-3.534-4.145-3.014-3.035-1.925-1.518-.917s1.286-1.89 1.84-4.346c.552-2.457-.019-6.916-.019-6.916s-.723-3.944-1.962-5.942c-1.238-2-2.8-3.886-4.4-5.143-1.6-1.256-3.792-2.056-5.945-2.589-2.153-.533-4.515-.267-4.515-.267l-1.524.267-.647-.323s-1.2-.133-2.839-.039c-1.638.095-2.38.286-4.933.991-2.553.706-4.819 2.248-4.819 2.248s-1.523 1.067-3.276 2.744c-1.753 1.677-2.61 3.562-2.61 3.562l-1.332 2.933-.724 2.419-.4 3.03s-.077 1.808.132 4c.21 2.19.839 3.41.839 3.41l1.162 2.476-.933.553s-2.648 1.753-4.362 3.2c-1.715 1.447-5.963 5.18-5.963 5.18L6.983 40.91l-3.58 3.58s-1.162 1.277-2.286 3.163c-1.124 1.885-.933 3.791-.933 3.791s-.114 1.486.857 3.295c.97 1.81 2.267 3.124 3.03 3.83.761.705 4.438 3.333 4.438 3.333l2.191 1.467s-1.353.33-2.161.859c-.808.528-1.427.747-2.145 1.676-.718.929-1.148 2.225-1.397 2.895-.25.67-.11 1.886-.02 2.694s.842 2.384 1.477 3.02c.636.634 2.805 1.873 3.026 1.873h.538l1.08.126s1.397.095 2.857-.782c1.46-.878 2.169-1.745 2.444-2.116.276-.37 1.725-2.75 1.725-2.75l-.078 2.502-.151 9.525-.107 5.623-.12 7.21-.09 6.91.24 4.141.59 2.495 1.073 2.525 1.874 2.314 2.04 1.482 1.966.695s1.104.257 1.86.167 1.481-.241 2.418-.71c.937-.468 2.736-2.01 2.736-2.01s1.391-1.783 1.739-2.404c.348-.619 1.375-3.492 1.602-4.172.227-.679 1.104-5.608 1.104-5.608s.468-3.13.498-4.111c.03-.983.09-3.916.017-5.02-.075-1.104-.318-3.054-.318-3.054s.619-.197 1.3-.71c.68-.514 1.693-1.481 1.693-1.481l1.013-.117z" fill="#fff"/><path d="M41.901.23c-7.629-1.058-15.58 2.64-19.385 9.402a19.786 19.786 0 00-2.465 11.139c.292 3.811 1.693 7.892 4.79 10.319 3.083 2.414 7.19 3.047 11.001 3.104 4.64.068 9.298-.758 13.63-2.42 3.594-1.38 7.462-3.306 9.41-6.806 1.894-3.401 2.03-7.794 1.273-11.537-.839-4.139-3.042-8.041-6.524-10.51C50.005.352 45.34-.509 41.025.51c-.19.044-.109.336.08.291a15.432 15.432 0 0111.316 1.701c3.269 1.922 5.597 5.082 6.807 8.645 1.208 3.556 1.425 7.606.39 11.233-1.142 3.996-4.282 6.427-7.906 8.122a36.274 36.274 0 01-12.58 3.293c-3.905.295-8.139.142-11.751-1.52-7.336-3.376-8.385-13.2-5.774-19.999C24.703 4.214 33.315-.659 41.825.521c.187.026.27-.265.076-.291zM21.808 28.11C15.474 32.22 10.1 37.553 4.805 42.888 2.743 44.967.403 47.281.071 50.35c-.354 3.263 1.594 6.246 3.926 8.33 3.116 2.785 6.912 4.906 10.38 7.214.162.108.313-.153.152-.262-2.875-1.911-5.836-3.737-8.612-5.79C3.113 57.769.369 54.876.334 51.16c-.032-3.407 2.584-5.944 4.813-8.19 2.436-2.454 4.881-4.903 7.436-7.235 2.941-2.683 6.035-5.198 9.378-7.367.163-.103.012-.364-.153-.258z" fill="#000"/><path d="M58.38 25.698c6.228 3.478 11.832 8.017 16.482 13.43 2.48 2.888 4.57 6.203 3.785 10.171-.741 3.751-3.692 5.854-6.553 8.019-2.553 1.932-5.21 4.453-5.136 7.909.004.192.305.194.301 0-.086-4.043 3.54-6.546 6.417-8.72 2.605-1.967 4.843-4.239 5.345-7.602.48-3.217-.846-6.083-2.778-8.574-2.257-2.909-4.915-5.552-7.71-7.943a61.525 61.525 0 00-10-6.951c-.17-.095-.322.167-.153.261zM18.505 41.553l-.88 48.953c-.07 3.908-.213 7.824-.191 11.734.018 3.261.3 6.737 1.99 9.609 1.345 2.284 3.61 4.25 6.292 4.668 2.81.438 5.452-1.033 7.183-3.176 2.352-2.909 3.176-6.889 3.834-10.478.774-4.227 1.009-8.541.482-12.815-.024-.191-.325-.193-.301 0 .452 3.67.347 7.373-.19 11.03-.492 3.355-1.167 6.956-2.727 9.999-1.466 2.859-4.254 5.45-7.68 5.207-3.111-.221-5.755-2.643-7.048-5.361-1.52-3.191-1.572-6.831-1.523-10.295.052-3.71.132-7.416.199-11.125l.404-22.471.458-25.48c.004-.194-.298-.194-.302.001zm42.548-.639c.085 15.39 2.52 30.633 3.177 45.992.291 6.81.794 14.331-1.691 20.824-1.224 3.201-3.412 6.491-6.773 7.706-3.114 1.125-6.027-.356-7.761-2.988-1.916-2.906-2.582-6.503-3.16-9.874a70.992 70.992 0 01-.998-13.135c.004-.195-.297-.195-.301 0a71.493 71.493 0 00.818 12.063c.492 3.187 1.063 6.5 2.453 9.439 1.081 2.283 2.822 4.469 5.401 5.05 2.915.657 5.733-.975 7.627-3.088 4.553-5.08 4.857-12.657 4.845-19.108-.014-8.345-.744-16.666-1.516-24.966-.862-9.286-1.77-18.581-1.821-27.915 0-.195-.302-.195-.3 0z" fill="#000"/><path d="M10.378 63.327c-2.376.615-4.447 2.305-5.263 4.662-.796 2.295-.296 5.037 1.413 6.798 1.639 1.69 4.222 2.367 6.451 1.575 2.443-.867 4.047-3.147 5.17-5.364.09-.173-.172-.326-.26-.153-.974 1.918-2.266 3.854-4.22 4.883-2.196 1.156-4.905.73-6.717-.947-1.763-1.632-2.322-4.31-1.596-6.565.75-2.328 2.774-3.997 5.1-4.6.19-.046.11-.337-.078-.29zm58.409-2.614c1.82-.755 3.84.32 4.714 1.993 1.062 2.028.348 4.533-.71 6.404-.995 1.76-2.416 3.159-4.519 3.303-1.747.121-3.851-.625-4.704-2.247.09.173.35.02.262-.153-.213-.404-.601-.086-.555.281.108.865 1.68 1.707 2.378 1.995 2.183.894 4.7.392 6.266-1.39 1.771-2.016 3.104-5.319 2.026-7.954-.814-1.99-3.15-3.392-5.238-2.523-.177.074-.099.366.08.291z" fill="#000"/><path d="M18.326 66.19c4.355.669 8.715 1.338 13.108 1.68 10.063.782 21.514-.227 31.252-2.885l.603 7.237s-4.222 0-11.86 5.227c-7.64 5.227-9.09 9.937-9.09 9.937a6.653 6.653 0 00-2.559.124s-3.588-6.089-9.84-10.286c-6.252-4.198-11.88-4.399-11.88-4.399l.267-6.636zM61.8 51.842a13.217 13.217 0 014.394-5.07c.159-.109.008-.37-.153-.261a13.52 13.52 0 00-4.503 5.176c-.084.175.175.328.261.155zm-43.447 1.083c-.704-1.039-1.402-2.082-2.111-3.117-.386-.563-.804-1.223-1.572-1.138-.191.022-.193.323 0 .301.935-.104 1.574 1.377 2.014 2.027.468.693.939 1.385 1.407 2.078.11.161.372.01.262-.15zm46.99-4.133c-.134.63-.064 1.24.203 1.824.08.176.34.024.262-.153a2.51 2.51 0 01-.173-1.592c.04-.187-.25-.27-.292-.079zm-1.045 2.203c.195 0 .195-.301 0-.301s-.195.301 0 .301zm-1.532.815l.462 1.694c.05.187.342.109.292-.08l-.462-1.695c-.053-.187-.344-.106-.292.08zm-.322 1.853c.204.617.407 1.235.608 1.852.06.183.351.104.291-.08-.203-.618-.406-1.235-.607-1.852-.06-.183-.352-.105-.291.08zm0 2.77c.11.616.216 1.23.324 1.846.034.19.324.11.292-.08l-.324-1.846c-.034-.189-.326-.108-.291.08zm-47.611-6.095c-.053.205-.103.41-.155.617-.048.19.243.27.291.08.053-.204.103-.41.155-.616.046-.187-.245-.268-.291-.08zm.633 1.317c.104.605.008 1.2-.273 1.745-.089.173.17.325.26.153a3.08 3.08 0 00.304-1.978c-.032-.192-.323-.111-.291.08zm1.069 1.655a6.51 6.51 0 01-.303 1.809c-.058.185.233.265.291.08a6.776 6.776 0 00.314-1.89c.006-.193-.296-.193-.302 0zm.461 4.311c.195 0 .195-.301 0-.301s-.195.301 0 .301zm-1.07 12.877l.62 1.232c.086.173.347.02.26-.153l-.618-1.232c-.089-.173-.348-.022-.262.153zm-1.55 1.608c.195 0 .195-.302 0-.302s-.195.302 0 .302zm-2.156 2.002c.194 0 .194-.302 0-.302-.196 0-.196.302 0 .302zm.484-.844c.311.498.752.888 1.29 1.127.175.079.33-.18.153-.26a2.638 2.638 0 01-1.182-1.02c-.104-.163-.364-.012-.261.153zm-2.451.81c.49.49.9 1.04 1.232 1.646.093.171.354.018.262-.153a7.43 7.43 0 00-1.279-1.708c-.14-.135-.354.078-.215.215zm-1.568.038c-.042.466.066.917.31 1.315.1.164.362.014.261-.153a1.85 1.85 0 01-.27-1.164c.019-.191-.283-.189-.3.002zm-1.246-.617v-.155c0-.078-.069-.155-.151-.15a.152.152 0 00-.15.15v.155c0 .078.068.155.15.15a.153.153 0 00.15-.15zm-1.375-2.117c.052.308.102.617.155.925.032.19.321.11.291-.08l-.155-.925c-.032-.191-.323-.111-.291.08zm66.573-6.473l.165.923c.034.19.325.11.291-.08l-.165-.924c-.034-.19-.325-.11-.291.08zm-.919 2.657c.052.103.102.205.155.308.036.072.138.092.207.054.074-.044.09-.133.054-.207-.052-.102-.102-.205-.155-.308-.036-.072-.138-.092-.207-.054-.074.044-.09.133-.054.207zm-.957 1.355a3.2 3.2 0 01.103 1.629c-.038.189.253.271.291.08a3.51 3.51 0 00-.102-1.79c-.06-.182-.352-.104-.292.081zm-1.531 1.345h-.156c-.078 0-.154.069-.15.151.004.082.066.15.15.15h.155c.079 0 .155-.068.151-.15-.004-.08-.066-.15-.15-.15zm-2.312.193c.064.33.024.662-.121.965-.083.175.177.328.261.153.183-.382.233-.782.153-1.198-.04-.191-.33-.11-.293.08zm-1.494-.611l-.155.155c-.056.056-.06.159 0 .213.06.054.153.06.213 0l.155-.155c.056-.056.06-.159 0-.213a.156.156 0 00-.213 0zm-1.432-.664v.308c0 .195.302.195.302 0v-.307c0-.195-.301-.195-.301 0zm-40.778 44.322l.922 1.079c.127.149.338-.066.213-.213l-.922-1.079c-.127-.149-.338.066-.213.213zm3.103 1.109l.618.308c.173.086.325-.173.152-.261l-.617-.308c-.173-.086-.325.173-.152.261zm2.435-1.566c.308.258.617.513.925.77.149.123.362-.088.213-.213-.308-.257-.617-.512-.925-.77-.147-.122-.362.089-.213.213zm2.223-1.347c.155.053.308.103.463.155.185.063.263-.229.08-.291l-.462-.155c-.183-.06-.264.229-.08.291zm.813-2.613c.195 0 .195-.301 0-.301s-.195.301 0 .301zm1.077-2.137l1.078.018c.195.004.195-.297 0-.301l-1.078-.018c-.195-.002-.195.299 0 .301zm.615-3.548c.463.05.925.103 1.387.153.193.022.191-.282 0-.302l-1.387-.152c-.193-.021-.19.281 0 .301zm.696-3.273l.77.463c.166.1.317-.161.152-.262a284.96 284.96 0 01-.77-.462c-.166-.099-.32.161-.152.261zm1.077-1.849c.103-.053.205-.103.308-.155.072-.036.092-.139.054-.207-.044-.074-.133-.09-.207-.054l-.308.154c-.072.037-.092.14-.054.207.044.075.133.091.207.055zm-.231-3.062c.195 0 .195-.302 0-.302-.193 0-.193.302 0 .302zm.155-2.002h.307c.195 0 .195-.302 0-.302h-.307c-.195 0-.195.302 0 .302zm20.473 21.229a48.013 48.013 0 00-.165-.614c-.05-.187-.342-.108-.292.081.055.205.109.41.165.613.05.187.342.109.292-.08zm-2.296-.425v-.307c0-.195-.302-.195-.302 0v.307c0 .193.302.195.302 0zm-2.778-.577l.154-.462c.063-.185-.229-.263-.291-.08l-.155.462c-.06.185.231.263.292.08zm-1.84-2.816c.195 0 .195-.302 0-.302s-.195.302 0 .302zm-1.256-2.539l1.387-1.849c.117-.155-.145-.306-.261-.153l-1.388 1.849c-.116.155.145.306.262.153zm-.438-4.857c.195 0 .195-.301 0-.301s-.195.301 0 .301zm-.806-3.629l1.541-2.002c.119-.153-.142-.303-.261-.153l-1.542 2.003c-.118.155.143.305.262.153zm-.133-4.298c.46-.72.922-1.439 1.383-2.159.104-.165-.157-.315-.261-.152-.46.72-.923 1.439-1.383 2.159-.105.164.156.315.26.152zm1.401-3.475c.195 0 .195-.302 0-.302s-.195.302 0 .302zm3.389.16h-.154c-.079 0-.155.069-.151.151.004.083.066.151.15.151h.155c.079 0 .155-.068.151-.15-.004-.081-.066-.151-.15-.151zm3.235-.006c.195 0 .195-.301 0-.301-.193 0-.193.301 0 .301zm1.695 0c.195 0 .195-.301 0-.301-.193 0-.193.301 0 .301zm2.004-1.231c.195 0 .195-.302 0-.302s-.195.301 0 .301zm.153-2.775c.195 0 .195-.302 0-.302-.193 0-.193.302 0 .302zm-7.241 1.85c.195 0 .195-.302 0-.302-.193 0-.195.302 0 .302zm-17.104 2.926c.195 0 .195-.301 0-.301-.193 0-.193.301 0 .301zm-2.62-.461c.195 0 .195-.303 0-.303-.192 0-.192.302 0 .302zm-4.004.154c.195 0 .195-.302 0-.302s-.195.302 0 .302zm-2.774-1.387c.195 0 .195-.302 0-.302-.193 0-.195.302 0 .302zm-1.564-2.692c-.205-.308-.41-.617-.617-.925-.107-.16-.368-.01-.262.153.205.308.41.617.617.925.107.159.368.008.262-.153zm2.643 1.152c.195 0 .195-.302 0-.302s-.195.302 0 .302zM21 86.435c.195 0 .195-.302 0-.302-.193 0-.193.302 0 .302zm5.856 4.315c.195 0 .195-.302 0-.302s-.195.301 0 .301zm2.002.924c.195 0 .195-.302 0-.302-.192 0-.192.302 0 .302zm1.08 1.385c.195 0 .195-.302 0-.302s-.195.302 0 .302zm1.077 1.85c.195 0 .195-.302 0-.302-.192 0-.192.302 0 .302zm1.388.769c.195 0 .195-.301 0-.301-.193 0-.193.302 0 .302zm1.541 1.08c.195 0 .195-.302 0-.302s-.195.302 0 .302zm.153 2.157c.195 0 .195-.302 0-.302-.193 0-.193.302 0 .302zm4.2-34.836l1.693-.322c.19-.036.11-.328-.08-.292l-1.693.322c-.191.036-.111.328.08.292zm.653-2.934c.308-.154.617-.307.925-.462.173-.086.02-.348-.153-.261-.307.155-.617.307-.925.462-.172.087-.02.348.153.261zm0-3.391l.463-.307c.16-.107.01-.368-.153-.262l-.463.308c-.158.108-.008.37.153.261zm.233-4.294c.195 0 .195-.301 0-.301s-.195.301 0 .301zm.23-3.254c.102-.053.205-.103.307-.155.072-.036.093-.139.054-.207-.044-.075-.132-.09-.207-.055-.102.053-.205.103-.307.155-.073.036-.093.139-.054.207.044.075.134.09.207.055zm-.23-3.832c.195 0 .195-.302 0-.302s-.195.302 0 .302zm-.154-3.544c.195 0 .195-.302 0-.302s-.195.302 0 .302zm-.232-3.102l.617-.463c.153-.114.005-.377-.152-.26l-.617.462c-.153.114-.004.377.152.26zm.539-1.212c.195 0 .195-.302 0-.302-.193 0-.193.302 0 .302z" fill="#000"/><path d="M37.489 66.25h.307c.195 0 .195-.302 0-.302h-.307c-.195 0-.195.302 0 .302zm15.714 24.344c.195 0 .195-.301 0-.301-.193 0-.193.301 0 .301zm2.157-.307c.195 0 .195-.302 0-.302-.193 0-.193.302 0 .302zm-4.16 3.234c.196 0 .196-.301 0-.301-.194 0-.194.301 0 .301zm-2.156.925c.195 0 .195-.302 0-.302s-.195.302 0 .302zm-1.694 2.157c.194 0 .194-.301 0-.301-.196 0-.196.301 0 .301zm-.77.31c.194 0 .194-.302 0-.302-.196 0-.196.302 0 .302zm1.384 3.697c.195 0 .195-.302 0-.302-.193 0-.193.302 0 .302zm.772 4.469c.195 0 .195-.302 0-.302s-.195.302 0 .302zm.308 1.387c.195 0 .195-.302 0-.302s-.195.302 0 .302zm1.077 2.157c.195 0 .195-.302 0-.302-.193 0-.193.302 0 .302zm-.307 1.385c.195 0 .195-.302 0-.302-.193 0-.193.302 0 .302zm1.232 2.004c.195 0 .195-.301 0-.301-.193 0-.193.301 0 .301zm2.467.925c.195 0 .195-.302 0-.302s-.195.302 0 .302zm1.077.153c.195 0 .195-.302 0-.302-.193 0-.193.302 0 .302zm-.462-2.003c.195 0 .195-.301 0-.301-.193 0-.193.301 0 .301zm-7.241-5.238c.195 0 .195-.302 0-.302s-.195.302 0 .302zm1.081-3.695v.154c0 .079.069.155.151.151.083-.004.151-.066.151-.151v-.154c0-.079-.068-.155-.15-.151-.083.004-.152.066-.152.151zm1.076-2.622c.195 0 .195-.301 0-.301s-.195.301 0 .301zm1.849-2.929c.195 0 .195-.301 0-.301s-.195.301 0 .301zm1.695-.153c.195 0 .195-.301 0-.301s-.195.301 0 .301zm2.772 4.622c.195 0 .195-.302 0-.302-.193 0-.193.302 0 .302zm1.699 11.559v.155c0 .079.068.155.15.151.083-.004.151-.066.151-.151v-.155c0-.078-.068-.154-.15-.15-.08.004-.151.066-.151.15zm2.925-2.468c.195 0 .195-.302 0-.302s-.195.302 0 .302zm-26.349-8.013c.195 0 .195-.302 0-.302-.193 0-.193.302 0 .302zm.309 2.929c.195 0 .195-.302 0-.302s-.195.302 0 .302zm-.309 4.159c.195 0 .195-.302 0-.302-.193 0-.193.302 0 .302zm-1.695 3.237c.195 0 .195-.302 0-.302-.193 0-.193.302 0 .302zm-3.43 1.859l-.77.155c-.19.038-.11.329.081.291l.77-.154c.191-.039.11-.328-.08-.292zm-1.961.913c.195 0 .195-.302 0-.302s-.195.302 0 .302zm-3.237-1.233c.195 0 .195-.301 0-.301-.193 0-.195.301 0 .301zm-1.387-.462c.195 0 .195-.302 0-.302-.193 0-.193.302 0 .302zm3.699-5.239c.195 0 .195-.301 0-.301s-.195.301 0 .301zm7.084-8.316v-.155c0-.079-.068-.155-.15-.151a.153.153 0 00-.151.15v.156c0 .078.068.154.15.15.083-.004.151-.066.151-.15zm-.305 4.619c.195 0 .195-.301 0-.301-.193 0-.193.301 0 .301zm-.615 2.465c.195 0 .195-.302 0-.302s-.195.302 0 .302zM30.4 109.7c.195 0 .195-.301 0-.301s-.195.301 0 .301zm-2.263 1.745c-.258.205-.513.41-.77.617-.15.121.062.334.213.214l.77-.618c.15-.12-.065-.331-.213-.213zm3.033-3.594c.195 0 .195-.302 0-.302-.193 0-.195.302 0 .302zm-5.084 5.393c.195 0 .195-.301 0-.301s-.195.301 0 .301zm10.478-17.566c.195 0 .195-.301 0-.301s-.195.302 0 .302zm-.617 4.007c.195 0 .195-.302 0-.302-.193 0-.195.302 0 .302zm-.77 2.774c.195 0 .195-.301 0-.301s-.195.301 0 .301zm-.462 3.39c.194 0 .194-.302 0-.302-.196 0-.196.302 0 .302zm-.771 2.464c.195 0 .195-.301 0-.301s-.195.301 0 .301zm-1.541 2.929c.195 0 .195-.301 0-.301-.193 0-.193.301 0 .301zm-2.773-1.387c.195 0 .195-.302 0-.302s-.195.302 0 .302zm.153 2.157c.195 0 .195-.301 0-.301-.193 0-.193.301 0 .301zm1.387 1.54c.195 0 .195-.302 0-.302-.193 0-.195.302 0 .302zm22.805 1.232c.195 0 .195-.301 0-.301s-.195.301 0 .301zm4.777-2.464c.195 0 .195-.302 0-.302s-.195.302 0 .302zM45.654 97.528c.195 0 .195-.302 0-.302s-.195.302 0 .302zm-.769-3.697c.195 0 .195-.302 0-.302s-.195.302 0 .302zm-.155-2.311c.195 0 .195-.302 0-.302s-.195.301 0 .301zm1.54.77c.195 0 .195-.303 0-.303-.193 0-.193.302 0 .302zm3.081-.309c.195 0 .195-.301 0-.301-.193 0-.193.301 0 .301zm1.388 10.786c.195 0 .195-.302 0-.302-.193 0-.195.302 0 .302zm.617 5.084c.195 0 .195-.302 0-.302s-.195.302 0 .302zM30.553 97.835c.195 0 .195-.301 0-.301-.193 0-.193.301 0 .301zm.462 2.62c.195 0 .195-.302 0-.302-.192 0-.192.302 0 .302zm-.462 3.391c.195 0 .195-.301 0-.301-.193 0-.193.301 0 .301zm-.615 3.697c.195 0 .195-.301 0-.301s-.195.301 0 .301zM28.706 96.45c.195 0 .195-.301 0-.301s-.195.301 0 .301zm0 7.241c.195 0 .195-.301 0-.301s-.195.301 0 .301zm-.463 4.16c.195 0 .195-.302 0-.302s-.195.302 0 .302zm0 1.387c.195 0 .195-.302 0-.302s-.195.302 0 .302zM42.39 33.096l.613-.62c.137-.138-.076-.351-.213-.212l-.613.619c-.139.138.074.351.213.213zm2.688-.905a2.87 2.87 0 001.48-1.298c.092-.171-.168-.322-.262-.153-.29.529-.738.937-1.3 1.16-.178.07-.1.364.081.291zm5.636-2.378c.258-.462.513-.925.77-1.387.095-.169-.166-.322-.261-.153l-.77 1.387c-.092.169.167.322.261.153zm3.386-1.546a9.519 9.519 0 001.437-3.57c.034-.19-.255-.272-.291-.08a9.302 9.302 0 01-1.408 3.5c-.106.16.155.31.262.15zm3.727-5.93c.195 0 .195-.302 0-.302s-.195.302 0 .302zm.909-5.235a6.037 6.037 0 00-1.227-3.17c-.116-.153-.378-.002-.261.152a5.75 5.75 0 011.186 3.018c.018.193.32.193.302 0zm-1.241-6.085c-.257-.36-.512-.72-.77-1.08-.112-.157-.374-.006-.261.153l.77 1.08c.112.154.374.004.261-.153zM54.852 5.9l-1.387-1.386c-.137-.137-.35.076-.214.213l1.388 1.387c.136.138.35-.075.213-.213zm-3.149-2.965l-1.54-.307c-.188-.038-.27.253-.08.291l1.54.308c.19.036.272-.253.08-.292z" fill="#000"/><path d="M57.68 20.224c.255.844.356 1.699.304 2.58-.012.192.29.192.301 0a7.538 7.538 0 00-.313-2.66c-.057-.185-.348-.107-.292.08zm-.482 3.194a5.135 5.135 0 01-.523 1.956c-.086.173.175.326.261.153a5.55 5.55 0 00.565-2.109c.01-.195-.291-.193-.303 0zm-16.766 8.858a.497.497 0 01-.479.245c-.193-.016-.193.285 0 .301a.79.79 0 00.74-.394c.097-.168-.165-.321-.261-.152zm-3.442.114l-1.845.322c-.191.034-.11.323.08.291.615-.106 1.23-.215 1.846-.321.19-.035.11-.324-.08-.292zm-5.357-.802a8.595 8.595 0 01-2.117-.149c-.19-.038-.271.254-.08.292a8.956 8.956 0 002.197.159c.193-.01.195-.312 0-.302zm-4.7-2.29l-.77-.462c-.167-.1-.318.16-.153.261l.77.463c.167.098.32-.163.153-.262zm-3.032-3.335l-.77-1.232c-.102-.165-.364-.012-.261.153.257.41.512.822.77 1.232.104.165.366.012.261-.153zm-.945-5.886l-.617-.617c-.137-.137-.35.076-.213.213l.617.617c.139.137.352-.076.213-.213zm-.114-4.71c-.053-.257-.103-.513-.155-.77-.038-.191-.33-.11-.292.08.053.258.103.513.155.77.038.19.33.109.292-.08zm1.383-5.006c.155-.41.307-.822.462-1.232.069-.18-.223-.261-.291-.08l-.463 1.232c-.068.181.223.26.292.08zm2.476-3.124c.195 0 .195-.301 0-.301-.193 0-.193.301 0 .301zm4.162-2.619c.195 0 .195-.302 0-.302s-.195.302 0 .302zm2.927-1.232c.195 0 .195-.302 0-.302-.193 0-.195.302 0 .302zM22.387 17.715c.195 0 .195-.302 0-.302-.193 0-.193.302 0 .302zm1.08 4.159c.195 0 .195-.301 0-.301s-.195.301 0 .301zm.925 3.237c.195 0 .195-.302 0-.302s-.195.302 0 .302zm3.697 4.776c.195 0 .195-.301 0-.301-.193 0-.195.301 0 .301zm1.694.616c.195 0 .195-.302 0-.302-.193 0-.193.302 0 .302zm5.549.924c.195 0 .195-.301 0-.301s-.195.301 0 .301zm6.008-.152c.195 0 .195-.302 0-.302s-.195.302 0 .302zm6.78-.463c.194 0 .194-.302 0-.302s-.196.302 0 .302zm4.776-2.312c.195 0 .195-.301 0-.301-.193 0-.195.301 0 .301zm3.081-2.004c.195 0 .195-.301 0-.301s-.195.301 0 .301zm3.699-5.546c.195 0 .195-.302 0-.302s-.195.302 0 .302zm-.616-4.467c.194 0 .194-.302 0-.302-.196 0-.196.302 0 .302zm-.463-2.929c.195 0 .195-.302 0-.302s-.195.302 0 .302zm-.77-3.39c.195 0 .195-.301 0-.301s-.195.301 0 .301zm-5.239 16.642c.195 0 .195-.302 0-.302s-.195.302 0 .302zm2.157-2.775c.195 0 .195-.301 0-.301s-.195.301 0 .301zm.925-2.157c.195 0 .195-.301 0-.301s-.195.301 0 .301zm.462-4.006c.195 0 .195-.302 0-.302s-.195.302 0 .302zm.153-3.235c.195 0 .195-.301 0-.301-.193 0-.193.301 0 .301zm.309-1.542c.195 0 .195-.301 0-.301-.194 0-.194.301 0 .301zm-.771-4.004c.195 0 .195-.302 0-.302-.193 0-.193.302 0 .302zm.309-1.387c.195 0 .195-.302 0-.302s-.195.302 0 .302zM51.97 4.77c.196 0 .196-.3 0-.3-.192 0-.192.3 0 .3zm-3.696-2.156c.195 0 .195-.302 0-.302s-.195.302 0 .302zm-3.852-.308c.195 0 .195-.301 0-.301s-.195.301 0 .301zm-3.392-.155c.196 0 .196-.301 0-.301-.192 0-.192.301 0 .301zM54.283 16.02c.195 0 .195-.301 0-.301s-.195.301 0 .301zm-.77 5.547c.195 0 .195-.302 0-.302s-.195.302 0 .302zm-1.387 4.469c.195 0 .195-.302 0-.302s-.195.302 0 .302zm-4.162 2.772c.195 0 .195-.302 0-.302-.193 0-.193.302 0 .302zm-3.079 1.232c.195 0 .195-.301 0-.301s-.195.301 0 .301zm-2.16-.615c.195 0 .195-.302 0-.302-.193 0-.193.302 0 .302zm-3.079 1.387c.195 0 .195-.302 0-.302s-.195.302 0 .302zm-2.157.923c.195 0 .195-.302 0-.302s-.195.302 0 .302zm-.925-2.31c.195 0 .195-.302 0-.302s-.195.302 0 .302zm-2.467 1.695c.195 0 .195-.302 0-.302-.193 0-.193.302 0 .302zm-.774 1.699v-.155c0-.079-.068-.155-.15-.151a.153.153 0 00-.151.15v.156c0 .078.068.154.15.15.083-.004.151-.066.151-.15zm-5.85-1.699c.195 0 .195-.302 0-.302s-.195.302 0 .302zm-2.619-2.157c.195 0 .195-.302 0-.302s-.195.302 0 .302zm.308-2.005c.195 0 .195-.301 0-.301s-.195.301 0 .301zm-1.542.925c.195 0 .195-.301 0-.301-.193 0-.193.301 0 .301zm-1.54-4.621c.195 0 .195-.302 0-.302s-.195.302 0 .302zm2.002.154c.195 0 .195-.301 0-.301-.193 0-.193.301 0 .301zM22.85 12.167c.195 0 .195-.302 0-.302-.193 0-.193.302 0 .302zm2.466-1.54c.195 0 .195-.302 0-.302s-.195.302 0 .302zm-.462 5.856c.195 0 .195-.302 0-.302s-.195.302 0 .302zm.77 5.237c.195 0 .195-.302 0-.302s-.195.302 0 .302zm2.465 3.853c.195 0 .195-.301 0-.301-.193 0-.195.301 0 .301zm1.694 1.54c.195 0 .195-.301 0-.301-.193 0-.193.301 0 .301zm4.007.925c.195 0 .195-.302 0-.302-.193 0-.195.302 0 .302zm-1.85 2.002c.195 0 .195-.301 0-.301-.193 0-.193.301 0 .301zm-3.851-1.694c.195 0 .195-.302 0-.302-.193 0-.195.302 0 .302zm-1.233-1.696c.195 0 .195-.3 0-.3s-.195.3 0 .3zm12.018 2.62c.195 0 .195-.301 0-.301-.193 0-.193.301 0 .301zm6.626-.154c.195 0 .195-.302 0-.302-.193 0-.195.302 0 .302zm4.314-1.696c.195 0 .195-.3 0-.3-.193 0-.193.3 0 .3zm.925-2.926c.195 0 .195-.302 0-.302-.193 0-.195.302 0 .302zm3.699-4.777c.194 0 .194-.301 0-.301-.196 0-.196.301 0 .301zm4.008-.766v.155c0 .079.068.155.15.151.083-.004.152-.066.152-.15v-.155c0-.079-.069-.155-.151-.151a.15.15 0 00-.151.15zm-4.163-8.787c.195 0 .195-.301 0-.301s-.195.301 0 .301zm-1.387-2.619c.195 0 .195-.302 0-.302-.193 0-.195.302 0 .302zm-28.659 6.318c.195 0 .195-.301 0-.301-.193 0-.195.301 0 .301zm-2.774 4.16c.195 0 .195-.302 0-.302-.193 0-.193.302 0 .302zM6.826 71.796c.195 0 .195-.302 0-.302-.193 0-.195.302 0 .302zm2.157 1.387c.195 0 .195-.301 0-.301-.193 0-.195.301 0 .301zm3.237-1.233c.194 0 .194-.3 0-.3-.196 0-.196.3 0 .3zm1.67-.843c.052-.103.102-.206.155-.308.036-.072.02-.163-.055-.207-.066-.038-.169-.018-.207.054-.052.103-.102.205-.155.308-.036.072-.02.163.055.207.068.038.17.018.207-.054zm1.101-1.313c.195 0 .195-.302 0-.302-.192 0-.192.302 0 .302zm1.388-.924c.195 0 .195-.302 0-.302-.193 0-.195.301 0 .301zm.617 1.386c.195 0 .195-.301 0-.301s-.195.301 0 .301zm.152-2.926c.195 0 .195-.302 0-.302-.192 0-.192.301 0 .301zm-.152-3.083c.195 0 .195-.301 0-.301s-.195.301 0 .301zm0-2.157c.195 0 .195-.301 0-.301s-.195.301 0 .301zm-1.542 10.168c.195 0 .195-.301 0-.301-.193 0-.193.302 0 .302zm-.463 1.232c.195 0 .195-.3 0-.3-.192 0-.192.3 0 .3zm-1.847 1.543c.195 0 .195-.302 0-.302s-.195.302 0 .302zm-3.082.77c.195 0 .195-.302 0-.302s-.195.302 0 .302zm-2.336-1.46l-.307-.462c-.107-.161-.368-.01-.262.153l.308.462c.108.16.37.01.261-.153zm-2.287-3.624c.194 0 .194-.302 0-.302-.193 0-.193.302 0 .302zm11.864-2.158c.195 0 .195-.301 0-.301s-.195.301 0 .301zm-.307-3.081c.195 0 .195-.302 0-.302s-.195.302 0 .302zm56.085-1.542c.195 0 .195-.302 0-.302s-.195.302 0 .302zm-.155 3.082c.195 0 .195-.302 0-.302-.193 0-.195.302 0 .302zm-.616 1.85c.194 0 .194-.302 0-.302s-.194.301 0 .301zm-2.158 2.311c.195 0 .195-.302 0-.302-.193 0-.193.302 0 .302zm-2.31.925c.195 0 .195-.302 0-.302s-.195.302 0 .302zm-1.873-.69c-.053-.102-.103-.205-.155-.307-.036-.073-.139-.093-.207-.055-.075.044-.09.133-.055.207.053.103.103.205.155.308.036.072.139.092.207.054.075-.044.09-.135.055-.207zm-2.133-2.392c.195 0 .195-.302 0-.302s-.195.302 0 .302zm-.463-3.544c.195 0 .195-.302 0-.302s-.195.302 0 .302zm-.155-1.695c.195 0 .195-.301 0-.301-.193 0-.193.301 0 .301zm3.237-.617c.195 0 .195-.302 0-.302s-.195.302 0 .302zm4.776 2.927c.196 0 .196-.302 0-.302-.194 0-.194.302 0 .302zM70 68.407c.194 0 .194-.302 0-.302-.196 0-.196.302 0 .302zm-.618 1.542c.195 0 .195-.302 0-.302-.193 0-.193.302 0 .302z" fill="#000"/><path d="M69.382 69.949c.195 0 .195-.302 0-.302-.193 0-.193.302 0 .302zm-.925-.309c.195 0 .195-.302 0-.302-.193 0-.193.301 0 .301zm-1.387-.309c.195 0 .195-.301 0-.301-.193 0-.193.301 0 .301zm-2.002-1.386c.195 0 .195-.302 0-.302-.193 0-.195.302 0 .302zm-.462-1.233c.195 0 .195-.302 0-.302-.193 0-.195.302 0 .302zm-2.003-10.94c.195 0 .195-.302 0-.302s-.195.302 0 .302zm.77-4.006c.195 0 .195-.302 0-.302s-.195.302 0 .302zm.925-2.31c.195 0 .195-.302 0-.302s-.195.302 0 .302zm1.387-1.08c.195 0 .195-.301 0-.301s-.195.301 0 .301zm.615-.153c.195 0 .195-.301 0-.301-.193 0-.193.301 0 .301zm-2.002 6.009c.195 0 .195-.301 0-.301s-.195.301 0 .301zm.462-2.004c.195 0 .195-.302 0-.302s-.195.302 0 .302zm.308-.615c.195 0 .195-.302 0-.302-.193 0-.195.302 0 .302zm1.232.924c.195 0 .195-.301 0-.301-.193 0-.193.301 0 .301zm-2.927 8.629c.195 0 .195-.302 0-.302s-.195.302 0 .302zm0-1.695c.195 0 .195-.302 0-.302s-.195.302 0 .302zm.307-1.85c.196 0 .196-.301 0-.301-.192 0-.192.301 0 .301zm.926-2.311c.195 0 .195-.302 0-.302-.193 0-.195.302 0 .302zm.77-1.078c.194 0 .194-.301 0-.301s-.194.301 0 .301zm1.694-4.162c.195 0 .195-.3 0-.3-.193 0-.193.3 0 .3zm.617-3.234c.195 0 .195-.301 0-.301-.193 0-.195.301 0 .301zm-.307 1.54c.195 0 .195-.301 0-.301s-.195.301 0 .301zM17.458 59.624c.195 0 .195-.302 0-.302s-.195.302 0 .302zm.152-3.082c.196 0 .196-.302 0-.302-.192 0-.192.302 0 .302zm-.462-2.619c.195 0 .195-.302 0-.302-.192 0-.192.302 0 .302zm-1.539-2.31c.195 0 .195-.302 0-.302s-.195.302 0 .302zm-.308-.925c.195 0 .195-.302 0-.302s-.195.302 0 .302zm.769 6.164c.196 0 .196-.302 0-.302-.194 0-.194.302 0 .302zm-.154-2.62c.195 0 .195-.301 0-.301-.193 0-.195.301 0 .301zm-.307-.772c.195 0 .195-.301 0-.301s-.195.301 0 .301zm-.925-2.927c.195 0 .195-.301 0-.301s-.195.301 0 .301z" fill="#000"/><path d="M14.684 50.38c.195 0 .195-.301 0-.301s-.195.301 0 .301zm.462 2.927c.195 0 .195-.301 0-.301s-.195.301 0 .301zm-3.852 18.951c.195 0 .195-.301 0-.301-.194 0-.194.302 0 .302zm.308 1.85c.195 0 .195-.302 0-.302-.193 0-.195.302 0 .302zm-1.695-.925c.195 0 .195-.301 0-.301s-.195.301 0 .301zm-1.694-1.694c.195 0 .195-.302 0-.302s-.195.302 0 .302zm2.619-4.315c.195 0 .195-.301 0-.301s-.195.301 0 .301zm4.931-11.094c.195 0 .195-.302 0-.302s-.195.302 0 .302z" fill="#000"/><path d="M14.991 53.307c.195 0 .195-.301 0-.301-.192 0-.192.301 0 .301zm-.769-2.157c.194 0 .194-.301 0-.301-.193 0-.195.301 0 .301zm-.155-.77c.195 0 .195-.301 0-.301-.193 0-.193.301 0 .301zM1.742 49.3c.195 0 .195-.3 0-.3s-.195.3 0 .3zm1.849-2.156c.195 0 .195-.302 0-.302s-.195.302 0 .302zm2.002-2.927c.195 0 .195-.302 0-.302s-.195.302 0 .302zM7.75 41.75c.195 0 .195-.301 0-.301s-.195.301 0 .301zm2.312-2.31c.195 0 .195-.301 0-.301s-.195.301 0 .301zm2.62-2.157c.195 0 .195-.301 0-.301s-.195.301 0 .301zm3.542-2.619c.195 0 .195-.302 0-.302-.193 0-.193.302 0 .302z" fill="#000"/><path d="M16.224 34.51c.195 0 .195-.302 0-.302-.193 0-.193.301 0 .301zm2.619-1.54c.195 0 .195-.302 0-.302-.193 0-.193.301 0 .301zm2.005-1.543c.194 0 .194-.301 0-.301-.195 0-.195.301 0 .301zm38.828-3.697c.195 0 .195-.301 0-.301s-.195.302 0 .302zm6.779 4.93c.195 0 .195-.302 0-.302s-.195.302 0 .302zm3.082 2.62c.195 0 .195-.303 0-.303s-.195.302 0 .302zm1.694 2.156c.196 0 .196-.301 0-.301-.194 0-.194.301 0 .301zm1.695 2.312c.195 0 .195-.302 0-.302-.193 0-.195.302 0 .302zm2.002 2.619c.195 0 .195-.301 0-.301-.192 0-.192.301 0 .301zm1.235 2.003c.195 0 .195-.302 0-.302s-.195.302 0 .302zm1.847 5.086c.195 0 .195-.302 0-.302-.193 0-.193.302 0 .302zM61.833 29.887c.195 0 .195-.301 0-.301s-.195.301 0 .301zm3.235 28.35c.195 0 .195-.302 0-.302-.193 0-.195.302 0 .302zm-.462 3.236c.195 0 .195-.301 0-.301-.193 0-.195.301 0 .301zm1.387 5.084c.195 0 .195-.301 0-.301s-.195.301 0 .301zm2.774.155c.195 0 .195-.302 0-.302s-.195.302 0 .302zM70 64.863c.194 0 .194-.302 0-.302-.196 0-.196.302 0 .302zm-59.737 5.289l-.307.307c-.137.137.076.35.213.213l.307-.307c.137-.137-.076-.35-.213-.213zm3.034-1.9c.195 0 .195-.302 0-.302-.193 0-.193.302 0 .302zm1.694-2.002c.195 0 .195-.302 0-.302-.192 0-.192.302 0 .302zm.618-1.695c.195 0 .195-.302 0-.302s-.195.302 0 .302zm.154-4.315c.195 0 .195-.3 0-.3s-.195.3 0 .3zm-8.32 9.091c.195 0 .195-.301 0-.301s-.195.301 0 .301zm4.314 0c.195 0 .195-.301 0-.301s-.195.301 0 .301zm3.389-1.849c.195 0 .195-.302 0-.302s-.195.302 0 .302zm-.77-4.622c.195 0 .195-.301 0-.301s-.195.301 0 .301zm.308-4.93c.195 0 .195-.303 0-.303s-.195.302 0 .302zM3.591 55.31c.195 0 .195-.302 0-.302s-.195.302 0 .302zm4.467 3.236c.195 0 .195-.301 0-.301-.193 0-.193.301 0 .301zm3.236 1.078c.195 0 .195-.302 0-.302-.194 0-.194.302 0 .302zm50.385-27.889c.195 0 .195-.302 0-.302s-.195.302 0 .302zm4.159 3.236c.195 0 .195-.301 0-.301-.193 0-.193.301 0 .301zm2.929 3.082c.195 0 .195-.301 0-.301s-.195.301 0 .301zm2.927 4.007c.195 0 .195-.302 0-.302s-.195.302 0 .302zm2.157 2.465c.195 0 .195-.302 0-.302s-.195.302 0 .302zm1.695 1.849c.195 0 .195-.302 0-.302s-.195.302 0 .302zm.924 4.621c.195 0 .195-.301 0-.301s-.195.301 0 .301zm1.233-3.544c.195 0 .195-.301 0-.301-.193 0-.195.301 0 .301zm-3.237 6.781c.195 0 .195-.301 0-.301-.193 0-.193.301 0 .301zm-2.465 1.54c.195 0 .195-.302 0-.302-.193 0-.195.302 0 .302zM5.13 58.546c.196 0 .196-.301 0-.301-.194 0-.194.301 0 .301zm4.623 2.62c.195 0 .195-.302 0-.302-.193 0-.193.302 0 .302zm3.544 3.081c.195 0 .195-.301 0-.301-.193 0-.193.301 0 .301zM1.894 52.845c.195 0 .195-.301 0-.301-.193 0-.193.301 0 .301zm3.392 3.545c.195 0 .195-.302 0-.302s-.195.301 0 .301zm4.621 2.156c.195 0 .195-.301 0-.301s-.195.301 0 .301zM63.679 98.61v-.155c0-.079-.069-.155-.15-.151-.083.004-.152.066-.152.15v.155c0 .079.069.155.151.151.08-.004.15-.066.15-.15zm-.306-5.704c.195 0 .195-.301 0-.301s-.195.301 0 .301zm-.617-4.931c.195 0 .195-.302 0-.302-.193 0-.193.302 0 .302zm-.307-4.006c.195 0 .195-.302 0-.302-.193 0-.195.302 0 .302zm0-5.239c.195 0 .195-.302 0-.302-.193 0-.195.302 0 .302zm-43.144-4.777c.195 0 .195-.301 0-.301-.192 0-.192.301 0 .301zm-.307 5.239c.195 0 .195-.302 0-.302-.193 0-.195.302 0 .302zm0 5.086c.195 0 .195-.301 0-.301-.193 0-.195.301 0 .301zm-.308 7.396c.195 0 .195-.302 0-.302s-.195.302 0 .302zm.463 7.086c.195 0 .195-.301 0-.301s-.195.301 0 .301zm0 5.549c.195 0 .195-.302 0-.302s-.195.302 0 .302zm.462 4.004c.195 0 .195-.301 0-.301s-.195.301 0 .301zm2.002 2.62c.195 0 .195-.302 0-.302-.193 0-.195.302 0 .302zm19.106-44.376c.195 0 .195-.301 0-.301-.193 0-.195.301 0 .301zm-.307-4.777c.195 0 .195-.3 0-.3s-.195.3 0 .3zm-.463-3.543c.195 0 .195-.302 0-.302s-.195.302 0 .302zm0-3.542c.195 0 .195-.302 0-.302s-.195.302 0 .302zm.155-3.545c.195 0 .195-.301 0-.301s-.195.301 0 .301zm-.31-2.927c.195 0 .195-.301 0-.301-.193 0-.193.301 0 .301zm-.308-2.929c.196 0 .196-.301 0-.301-.194 0-.194.301 0 .301zm-.154-2.772c.195 0 .195-.301 0-.301-.193 0-.193.301 0 .301zm1.542 7.241c.195 0 .195-.301 0-.301s-.195.301 0 .301zm-1.695 16.024c.195 0 .195-.301 0-.301s-.195.301 0 .301zm3.39-1.232c.195 0 .195-.302 0-.302s-.195.302 0 .302zm1.694 1.54c.195 0 .195-.302 0-.302s-.195.302 0 .302zm3.853.617c.194 0 .194-.302 0-.302s-.196.302 0 .302zm-12.943.308c.195 0 .195-.302 0-.302s-.195.302 0 .302zm-3.237-.308c.195 0 .195-.302 0-.302-.193 0-.193.302 0 .302zm28.969-2.465c.195 0 .195-.301 0-.301s-.195.301 0 .301zm-6.471 1.233c.194 0 .194-.302 0-.302-.196 0-.196.302 0 .302zm6.008-5.856c.195 0 .195-.302 0-.302s-.195.302 0 .302zm-.309-7.858c.195 0 .195-.302 0-.302-.193 0-.193.302 0 .302zm0 10.94c.195 0 .195-.302 0-.302-.193 0-.193.301 0 .301zm-2.31 2.619c.195 0 .195-.302 0-.302s-.195.302 0 .302zm-30.508.77c.195 0 .195-.302 0-.302s-.195.302 0 .302zm-3.082-.462c.195 0 .195-.302 0-.302-.193 0-.195.302 0 .302zm-3.852-.616c.195 0 .195-.301 0-.301s-.195.301 0 .301zm1.387-1.232c.195 0 .195-.301 0-.301s-.195.301 0 .301zm-1.542-2.619c.195 0 .195-.302 0-.302-.193 0-.193.302 0 .302zm-.152-5.086c.195 0 .195-.302 0-.302s-.195.302 0 .302zm-.618-4.467c.195 0 .195-.302 0-.302s-.195.302 0 .302zm-.307-6.471c.195 0 .195-.302 0-.302s-.195.301 0 .301zM60.6 55.465c.194 0 .194-.302 0-.302s-.194.302 0 .302zm-.154-9.245c.195 0 .195-.302 0-.302s-.195.301 0 .301zM34.097 65.787c.195 0 .195-.301 0-.301-.193 0-.193.301 0 .301zm1.695-1.54c.195 0 .195-.301 0-.301-.193 0-.193.301 0 .301zm1.542-1.232c.195 0 .195-.301 0-.301s-.195.301 0 .301zm4.008-.613v.155c0 .078.069.154.151.15.083-.004.15-.066.15-.15v-.155c0-.078-.067-.155-.15-.15a.153.153 0 00-.15.15zm.923 4.31c.195 0 .195-.302 0-.302s-.195.302 0 .302zm3.697-.155c.195 0 .195-.301 0-.301-.193 0-.195.301 0 .301zm4.622-1.077c.195 0 .195-.302 0-.302-.193 0-.193.302 0 .302zm-21.571 1.077c.195 0 .195-.301 0-.301-.193 0-.195.301 0 .301zm-7.241-.77c.195 0 .195-.301 0-.301s-.195.301 0 .301zm40.214 39.754c.195 0 .195-.302 0-.302-.193 0-.193.302 0 .302zM42.245 87.402c1.027 1.886 3.448 2.338 5.42 2.296 2.64-.058 5.112-1.102 7.434-2.272.173-.086.02-.348-.153-.261-2.056 1.035-4.224 1.978-6.543 2.187-2.043.185-4.807-.097-5.899-2.103-.092-.17-.351-.018-.259.153zm-2.559-.122c-.758.514-1.343 1.29-2.139 1.738-1.05.591-2.495.493-3.669.447-1.268-.053-2.37-.43-3.492-1.005-1.288-.66-2.05-1.351-2.494-2.78-.057-.186-.348-.107-.292.08.342 1.101.784 1.9 1.791 2.506 1.048.632 2.22 1.213 3.436 1.404 1.212.19 2.694.24 3.9-.026 1.317-.292 2.044-1.382 3.11-2.103.162-.11.012-.372-.151-.261z" fill="#000"/></svg>