<svg width="131" height="365" fill="none" xmlns="http://www.w3.org/2000/svg"><path d="M48.248 362.937l21.488 1.955 10.349-2.058 14.255-6.071 20.746-7.023 14.728-5.808.346-2.054-2.043-2.916-3.648-15.606-2.277-12.953-1.81-8.808-4.501-17.103-4.653-14.201-2.901-8.75-3-10.348-4.35-19.703-4.75-25.004-2-9.539 2.522-.771-3.716-15.206-5.384-22.565-6.087-21.741-.843-2.961 1.785.039.136-.507-1.02-3.94-3.213.824-4.116 1.175-4-13.996.137-1.922 1.293-2.351s-4.219-2.404-6.057-3.896c-1.844-1.493-7.652-6.638-10.003-9.686-2.35-3.048-6.281-8.734-6.281-8.734l-.712-.97-3.741-15.86-1.136-6.843-1.341-1.263-.752-.697.361-.98-1.136-5.863-1.448-.204-2.712 1.01-5.76-8.214-6.374-10.748-4.31-8.447-4.912-12.134 1.22 7.852.36 7.355-.136 8.144-.615 8.778-.956 6.15-2.15 9.495-1.298 4.204-1.058-6.457-.512-1.487-1.165-.327.034 1.473 1.97 9.042-.376 2.087 4.321 20.054.805 2.819s.024 7.559-2.356 12.806c-2.384 5.248-5.247 11.105-5.247 11.105l-2.838 4.848 1.463 1.921.37 3.253 1.615 7.101 1.33 4.764-4.544 1.834-4.721 1.946 1.726 3.955 1.098.044 1.19 5.662 7.724 34.563 4.438 18.795 1.917 6.682 5.072 21.453 3.375 14.431 3.53 16.64 3.259 16.606 3.452 18 3.804 19.786L45 344.887l3.248 18.05z" fill="#fff"/><path d="M11.954.418C10.75-.732 9.434.725 9.34 1.984c-.102 1.424.961 3.111 2.58 2.614 1.434-.44 1.556-2.644.751-3.678-.736-.94-2.433-.853-2.76.41-.117.458.59.649.707.195.22-.853 1.317-.527 1.629.073.327.634.293 1.966-.478 2.268-.96.38-1.639-.634-1.697-1.468-.044-.614.478-2.312 1.366-1.468.34.327.858-.19.516-.512z" fill="#000"/><path d="M11.067 4.568a227.543 227.543 0 014.38 16.328c.107.458.809.263.707-.195a227.597 227.597 0 00-4.38-16.328c-.141-.449-.849-.258-.707.195z" fill="#000"/><path d="M8.672 10.391a27.226 27.226 0 018.018-2.955c.463-.093.268-.8-.195-.707a27.968 27.968 0 00-8.193 3.028c-.41.234-.04.868.37.634zm1.771 4.126l5.735-3.511c.4-.244.034-.878-.37-.634l-5.736 3.511c-.4.249-.034.883.37.634zm.38 5.179a81.5 81.5 0 017.871-5.857c.39-.258.025-.892-.37-.634a83.19 83.19 0 00-8.018 5.975c-.36.302.16.814.517.516zm4.321.117a111.71 111.71 0 01-4.965 55.592c-.156.444.546.634.707.195a112.457 112.457 0 004.965-55.982c-.078-.463-.785-.263-.707.195z" fill="#000"/><path d="M14.383 17.614A146.968 146.968 0 0042.576 66.64c.308.356.825-.16.517-.517A146.126 146.126 0 0115.085 17.42c-.15-.444-.858-.249-.702.195zM10.35 75.59c1.468 7.091 2.94 14.182 4.409 21.278.097.459.8.264.707-.195-1.468-7.09-2.94-14.182-4.409-21.278-.097-.458-.805-.263-.707.195zm32.856-8.69a224.026 224.026 0 005.345 23.433c.127.454.834.259.707-.195a222.54 222.54 0 01-5.345-23.433c-.083-.464-.79-.264-.707.195zM13.95 69.119c7.154-1.556 14.854-2.522 21.555-5.584.43-.195.058-.825-.37-.634-6.633 3.028-14.305 3.97-21.381 5.51-.463.103-.268.805.195.708zm-2.83 3.272c-.521-2.531-1.048-5.062-1.57-7.588-.073-.352-.59-2.097.517-.668.244.312.18 1.097.244 1.472l.585 3.726c.073.464.776.269.707-.195-.21-1.346-.18-7.822-2.955-6.364-.151.078-.2.258-.166.414l1.946 9.398c.083.459.785.264.692-.195z" fill="#000"/><path d="M8.848 63.271c0 .25.005.498.005.746h.731c-.37-3.56-.863-7.1-1.477-10.621-.083-.464-.786-.269-.708.195a153.231 153.231 0 011.454 10.431c.049.459.736.483.731 0 0-.248-.005-.497-.005-.746 0-.473-.731-.473-.731-.005z" fill="#000"/><path d="M6.62 58.531l3.223-1.2c.439-.16.248-.868-.195-.707l-3.224 1.2c-.439.166-.249.873.195.707zm31.88.399c.555-.37 1.472-.853 1.99-.14.292.41.321 1.482.428 1.984.283 1.322.57 2.644.854 3.965.097.459.804.264.707-.195l-1.39-6.442a.352.352 0 00-.254-.254c-.98-.248-1.858-.107-2.701.454-.395.258-.03.892.365.629z" fill="#000"/><path d="M38.246 57.014l.044.746h.731a51.4 51.4 0 00-2.375-11.5c-.146-.443-.853-.253-.707.196 1.214 3.687 2 7.437 2.35 11.31.045.463.761.473.732 0l-.044-.747c-.024-.473-.756-.478-.731-.005z" fill="#000"/><path d="M35.559 52.176c0-.024-.005-.053-.005-.078-.02-.214-.156-.34-.366-.365-.673-.073-.834.868-.146 1.024.531.122 1.219-.415 1.677-.58a8.713 8.713 0 012.439-.498c.468-.03.473-.766 0-.732a10.09 10.09 0 00-2.088.347c-.195.058-1.843.531-1.78.829-.029.117-.063.239-.092.356l-.01-.01-.366-.366c0 .025.005.054.005.078.039.459.77.464.732-.005zM19.055 97.424a515.422 515.422 0 0128.862-6.281c.463-.088.268-.79-.195-.707a519.665 519.665 0 00-28.862 6.281c-.458.112-.263.82.195.707zm-3.731-.141c.712 10.812-4.213 20.707-10.153 29.412-.269.391.365.756.634.371 6.003-8.803 10.973-18.849 10.25-29.783-.028-.468-.76-.473-.73 0zm33.7-6.672a65.546 65.546 0 0022.336 22.795c.405.249.77-.385.37-.634a64.716 64.716 0 01-22.072-22.536c-.24-.4-.873-.03-.634.375z" fill="#000"/><path d="M63.162 88.719c1.668 7.16 3.34 14.318 5.008 21.478.108.458.815.263.707-.195-1.667-7.16-3.34-14.319-5.008-21.478-.107-.459-.815-.268-.707.195z" fill="#000"/><path d="M62.938 95.474a6.791 6.791 0 012.896-.542c.474.015.469-.717 0-.731a7.318 7.318 0 00-3.092.565c-.429.186-.238.893.196.707zm4.891 4.399a104.802 104.802 0 012.76 12.231c.073.463.78.268.707-.195a102.848 102.848 0 00-2.76-12.232c-.132-.448-.839-.258-.707.196zm-65.897.429a130.507 130.507 0 004.873 23.731c.136.448.843.258.707-.195a129.535 129.535 0 01-4.848-23.536c-.054-.459-.785-.469-.732 0z" fill="#000"/><path d="M.543 109.802c1.492-.902 2.984-1.8 4.477-2.702.404-.244.034-.878-.371-.634-1.492.902-2.985 1.8-4.477 2.702-.4.244-.03.878.37.634zm2.453 4.618c.02-.058.034-.117.053-.175.059-.205-.073-.376-.253-.449a22.735 22.735 0 00-.225-.088c-.146-.058-.341.039-.414.166-.634 1.122.366 3.292.639 4.419.643 2.682 1.429 5.325 2.302 7.944.146.444.853.254.707-.195a98.565 98.565 0 01-1.737-5.716 85.521 85.521 0 01-.673-2.672c-.107-.449-.21-.898-.307-1.346a4.287 4.287 0 00-.795-2.078c-.136.449.57.639.703.19z" fill="#000"/><path d="M5.624 126.964c.147-.727-.98-.825-.995-.088-.01.483.522.956.79 1.317l1.278 1.702c.278.37.917.009.634-.371l-1.01-1.346c-.155-.21-.311-.419-.472-.629l-.269-.356c-.097-.239-.282-.283-.55-.142-.03-.117-.064-.239-.093-.356a1.58 1.58 0 01-.015.069c-.093.463.61.658.702.2zm64.848-10.53a10.24 10.24 0 011.693-3.687c.277-.38-.357-.746-.634-.37a10.783 10.783 0 00-1.766 3.862c-.107.459.6.654.707.195zm-27.398-15.762a36.278 36.278 0 001.463-5.906h-.707c.712 2.273 2.34 3.995 4.56 4.853.439.17.629-.537.195-.707-1.97-.761-3.419-2.327-4.048-4.34-.097-.318-.644-.381-.707 0a36.035 36.035 0 01-1.463 5.905c-.151.449.556.639.707.195zm-12.056 1.976a28.625 28.625 0 012.263-4.121l-.575.073c1.107 1.063 2.214 2.121 3.326 3.184.341.327.858-.19.517-.517-1.107-1.063-2.214-2.121-3.326-3.184-.176-.171-.444-.122-.576.073a28.884 28.884 0 00-2.263 4.121c-.19.424.44.8.634.371zm-10.88 2.725a33.196 33.196 0 001.824-5.003l-.537.219a15.597 15.597 0 012.77 2.419c.317.351.834-.17.517-.517a16.4 16.4 0 00-2.916-2.53c-.195-.137-.478.004-.536.219a31.385 31.385 0 01-1.751 4.828c-.195.419.434.79.629.365z" fill="#000"/><path d="M33.783 102.672l.566-.293c-.117-.088-.234-.18-.351-.268.205.59.415 1.18.62 1.77.048.147.921 2.278.048 2.034-.136-.039-.39-1.449-.439-1.634-.175-.653-.35-1.307-.526-1.955-.122-.454-.83-.264-.708.195.322 1.194.595 2.409.966 3.589.18.575.58 1.019 1.229.785.63-.224.8-.887.702-1.487-.195-1.171-.79-2.37-1.185-3.492-.053-.151-.185-.273-.351-.268-.532.014-.892.224-1.195.653-.278.39.356.756.624.371zm10.378-2.639c-.024-.004-.048-.004-.073-.009.088.117.18.234.269.351l-.044.083-.444.058c.307.19.468 1.58.56 1.927.166.624.337 1.248.503 1.867.054.205.254.288.449.254.946-.156 1.556-1 1.638-1.926.108-1.205-.687-2.224-1.39-3.112-.292-.37-.804.151-.517.517.722.912 2.23 3.468.074 3.819.15.083.302.17.448.253l-.731-2.721c-.142-.527-.17-1.205-.668-1.512-.147-.088-.322-.049-.444.059-.146.127-.19.239-.17.434.014.146.102.327.267.351.025.005.05.005.074.01.463.068.663-.634.2-.703zm-22.472 5.341a5.307 5.307 0 001.16 4.384c.137.166.376.112.517 0 1.688-1.307.464-3.424-.541-4.706-.288-.371-.805.151-.517.517.776.99 1.878 2.633.541 3.672h.517a4.506 4.506 0 01-.975-3.672c.083-.464-.62-.659-.702-.195zm4.823 6.739a16.153 16.153 0 012.063-4.247l-.576.073c1.17.907 2.336 1.814 3.507 2.721.366.288.888-.229.517-.517-1.17-.907-2.336-1.814-3.507-2.721-.195-.151-.429-.137-.575.073a17.012 17.012 0 00-2.141 4.423c-.137.454.57.644.712.195zm12.48-2.077c.888-1.707 1.77-3.414 2.658-5.121l-.576.073c1.322 1.395 2.975 2.136 4.892 2.219.473.02.468-.712 0-.731-1.717-.073-3.194-.761-4.375-2.005-.156-.166-.468-.131-.575.073-.888 1.707-1.77 3.414-2.658 5.121-.215.42.415.79.634.371zm12.207-2.034l2.121-5.111-.536.22a16.387 16.387 0 004.823 2.301c.453.132.644-.575.195-.707a15.845 15.845 0 01-4.648-2.228c-.214-.152-.453.019-.536.219-.707 1.702-1.414 3.409-2.122 5.111-.18.439.527.624.703.195z" fill="#000"/><path d="M53.462 106.388c.224.868.448 1.741.673 2.609.234-.063.468-.132.707-.195l-.878-2.516c-.054.136-.112.273-.166.414.303-.224.605-.327.98-.327-.117-.087-.234-.18-.35-.268.126.727.253 1.458.385 2.185.082.463.785.268.707-.195-.127-.727-.254-1.458-.386-2.185-.029-.156-.204-.268-.35-.268a2.165 2.165 0 00-1.352.424c-.126.093-.224.249-.165.415l.877 2.516c.157.439.825.268.708-.195-.225-.868-.45-1.741-.673-2.609-.127-.454-.834-.264-.717.195zm-11.037 3.526c.473 0 .473-.732 0-.732s-.473.732 0 .732z" fill="#000"/><path d="M41.791 110.187c.093.634.18 1.268.273 1.907.069.463.77.268.708-.195-.093-.634-.181-1.268-.274-1.907-.063-.463-.77-.263-.707.195z" fill="#000"/><path d="M42.089 109.763c-.083-.59.253-1.088.775-1.327h-.37c.887.547 1.048 1.858.321 2.605-.326.336.19.853.517.517.868-.893.898-2.395.059-3.331-.459-.512-.863-.586-1.39-.113-.532.478-.717 1.151-.62 1.839.069.468.771.273.708-.19zm-13.636 2.507a3.544 3.544 0 00.512 2.228l.502-.502c-.814-.371-.838-1.795.059-2.097-.151-.083-.302-.171-.449-.254.249.966.498 1.932.751 2.902.117.454.825.263.707-.195-.248-.966-.497-1.931-.75-2.902-.05-.185-.264-.317-.45-.253-1.443.487-1.662 2.775-.229 3.433.313.141.708-.161.503-.502a2.893 2.893 0 01-.415-1.858c.04-.469-.692-.464-.741 0zm-13.363 2.804a12.2 12.2 0 001.883-4.78l-.668.088c1 1.307 2 2.614 3.004 3.921.283.371.917.005.634-.37-1-1.307-2-2.614-3.004-3.921-.166-.215-.61-.259-.669.087a11.735 11.735 0 01-1.809 4.604c-.263.395.37.766.63.371z" fill="#000"/><path d="M16.232 115.186l1.038 2.029c.176.341.664.156.683-.186.044-.834-.531-1.346-.717-2.107-.058-.239-.068-1.053.39-.926.205.058.244.38.278.556.171.848.073 1.946 1.054 2.297.444.161.634-.546.195-.707-.532-.191-.449-1.273-.532-1.727-.097-.517-.322-1.043-.892-1.151-.683-.122-1.137.439-1.239 1.059-.166 1.029.78 1.721.727 2.706l.682-.185-1.038-2.029c-.215-.419-.849-.049-.63.371zm-9.788 14.87a83.905 83.905 0 003.652 15.289c.152.443.859.253.707-.195a83.686 83.686 0 01-3.652-15.29c-.069-.463-.776-.268-.707.196zm63.472-13.354a126.574 126.574 0 004.4 15.855c.155.444.862.254.706-.195a126.59 126.59 0 01-4.399-15.855c-.097-.458-.804-.263-.707.195z" fill="#000"/><path d="M9.716 144.496c-3 .902-5.93 1.98-8.798 3.238-.43.191-.059.82.37.634a75.083 75.083 0 018.623-3.165c.449-.136.258-.843-.195-.707zm65.487-13.011c2.438-.586 4.882-1.171 7.32-1.761.459-.112.263-.814-.195-.707-2.438.585-4.882 1.17-7.32 1.76-.454.113-.264.82.195.708z" fill="#000"/><path d="M81.577 130.226a14.55 14.55 0 00.941 3.648l.449-.449c-1.648-.56-3.107.132-4.677.712-2.365.868-4.726 1.741-7.091 2.61-.439.16-.249.868.195.707 1.81-.664 3.614-1.332 5.423-1.995 1.736-.639 4.068-1.965 5.955-1.326.249.082.551-.196.448-.449a13.777 13.777 0 01-.916-3.453c-.054-.463-.79-.468-.727-.005zM.547 148.081c.615 1.492 1.224 2.979 1.839 4.472.073.18.239.317.449.253a78.729 78.729 0 018.934-2.033c.463-.078.268-.781-.195-.707a74.17 74.17 0 00-8.135 1.799c-.6-.054-.921-.385-.965-1.005-.551-.843-.844-2.048-1.224-2.979-.171-.425-.883-.234-.703.2zm4.867-20.547A1678.738 1678.738 0 0167.77 112.05c.459-.102.264-.81-.195-.707A1691.122 1691.122 0 005.22 126.827c-.453.127-.263.829.195.707zm2.556 3.663a985.804 985.804 0 0160.098-14.948c.458-.098.263-.805-.195-.707a986.546 986.546 0 00-60.098 14.947c-.454.127-.259.834.195.708zm-4.994-2.502c-.273-.449-.546-.898-.82-1.341-.214-.351-.775-.127-.667.283 1.438 5.349 2.877 10.699 4.31 16.045.123.453.83.263.708-.196-1.439-5.349-2.877-10.699-4.311-16.045-.225.093-.444.191-.668.283.273.449.546.898.819 1.341.244.4.878.03.629-.37z" fill="#000"/><path d="M1.425 133.079c.907-.185 1.814-.366 2.721-.551.464-.093.269-.8-.195-.707-.907.185-1.814.366-2.72.551-.46.093-.264.8.194.707zm1.039 10.037c.132-.683.059-1.278-.21-1.917-.141-.331-.717-.166-.682.186.136 1.331.385 2.633.755 3.916.132.453.84.258.708-.195a20.96 20.96 0 01-.727-3.721l-.683.185c.19.449.23.878.137 1.351-.093.463.61.658.702.195zm70.964-28.525a142.546 142.546 0 004.828 16.289c.16.439.868.248.707-.195a141.25 141.25 0 01-4.828-16.289c-.108-.454-.815-.264-.707.195z" fill="#000"/><path d="M72.886 118.356c-.16.351-.317.702-.478 1.053-.121.274.083.639.415.537 1.234-.376 2.468-.756 3.702-1.132.448-.136.258-.843-.196-.707-1.233.376-2.467.756-3.701 1.132.136.18.273.356.414.536.161-.351.317-.702.478-1.053.19-.425-.438-.795-.634-.366zm-26.159 26.33c-8.686 3.858-17.416 9.593-20.215 19.264-2.17 7.501.336 16.85 7.569 20.663 4.291 2.263 9.334 2.263 14.026 1.615 4.916-.678 9.685-1.698 13.353-5.248 6.067-5.877 7.905-15.533 4.72-23.307-3.706-9.056-13.86-14.186-23.365-12.601-.463.078-.268.78.196.707 8.12-1.351 16.776 2.404 21.121 9.466 4.419 7.183 3.619 17.108-1.707 23.614-3.18 3.887-7.295 5.403-12.094 6.281-4.404.805-9.14 1.249-13.47-.151-8.315-2.682-11.851-12.144-9.813-20.195 2.488-9.827 11.368-15.611 20.054-19.469.425-.195.054-.829-.375-.639z" fill="#000"/><path d="M47.448 168.446c-.565-.185-1.146-.614-1.2-1.253-.048-.556.523-1.346 1.147-.995.365.21.536.839.21 1.151-.386.366-1.02.122-1.22-.302-.2-.425-.834-.054-.634.37.39.825 1.546 1.098 2.268.532.746-.585.575-1.78-.151-2.307-.893-.648-2.039.054-2.307 1.015-.322 1.175.654 2.16 1.688 2.497.453.146.648-.561.2-.708z" fill="#000"/><path d="M46.6 167.554c2.546-3.653 5.116-7.291 7.705-10.91.273-.385-.36-.751-.634-.37-2.59 3.618-5.16 7.257-7.705 10.909-.263.39.37.756.634.371z" fill="#000"/><path d="M53.525 158.366c-.81-.975-2.433-1.097-3.311-.137-.83.903-.707 2.483.273 3.219.946.712 2.726.263 2.424-1.17-.24-1.151-2.039-.981-2.01.195.015.468.746.473.732 0-.01-.366.551-.337.57.039.025.473-.502.648-.877.551-.644-.166-.98-.854-.932-1.478.117-1.365 1.8-1.677 2.61-.697.306.356.819-.161.521-.522zm-6.511 10.056a101.778 101.778 0 012.834 10.656c.097.458.8.263.707-.195a101.729 101.729 0 00-2.834-10.656c-.146-.444-.848-.254-.707.195z" fill="#000"/><path d="M50.56 177.566a8.239 8.239 0 01-2.673 1.522c.137.18.273.356.415.536a3.948 3.948 0 013.99-2.297c-.064-.229-.123-.453-.186-.682a10.45 10.45 0 01-3.536 1.614c.117.205.24.409.356.609a4.047 4.047 0 011.585-1.204c.43-.186.059-.82-.37-.634a4.513 4.513 0 00-1.737 1.317c-.224.273-.02.702.356.609a10.933 10.933 0 003.712-1.687c.302-.215.185-.649-.186-.683a4.645 4.645 0 00-4.618 2.663c-.122.263.083.653.414.536a9.32 9.32 0 002.995-1.707c.36-.302-.156-.819-.517-.512z" fill="#000"/><path d="M51.15 177.971c-.2-.327-.395-.653-.595-.985-.215-.351-.78-.122-.668.283l.644 2.326c.127.454.834.258.707-.195l-.644-2.326c-.224.092-.444.19-.668.283.2.326.395.653.595.985.244.4.873.034.63-.371zm3.507-27.881c.146-.181.268-.346.37-.556-.224-.093-.444-.19-.668-.283-.36 1.039-.668 2.092-1.02 3.136-.13.39.479.649.669.283.297-.566.57-1.015.424-1.663-.068-.303-.526-.361-.668-.088-.351.678-.234 1.59-.712 2.19-.288.365.224.887.517.517.56-.708.43-1.571.824-2.341l-.668-.088c.088.39-.18.775-.351 1.097.224.093.444.19.668.283.356-1.039.663-2.097 1.02-3.136.136-.39-.483-.653-.669-.283a1.592 1.592 0 01-.253.41c-.293.366.22.888.517.522zm-11.412-1.078a46.993 46.993 0 001.819 4.126c.156.317.712.175.682-.185-.078-.869-.463-1.542-1.175-2.049-.385-.273-.75.361-.37.634.482.346.755.829.814 1.419l.683-.185a44.553 44.553 0 01-1.746-3.955c-.17-.434-.878-.244-.707.195zm-5.506 6.33c-.386-.322-.766-.644-1.151-.965l-.444.575a5.655 5.655 0 012.053 2.087l.575-.443-1.77-1.493c-.253-.214-.595-.063-.624.259-.034.38.097.707.36.975.328.337.85-.18.518-.517-.137-.141-.166-.273-.147-.458-.21.087-.414.17-.624.258l1.77 1.493c.308.258.79-.064.576-.444a6.436 6.436 0 00-2.312-2.351c-.346-.205-.77.302-.443.576.385.321.765.643 1.15.965.352.303.873-.214.513-.517zm-5.75 6.969a4.28 4.28 0 00-2.02-.604v.731c.84.005 1.683.005 2.522.01v-.732h-.688c-.473 0-.473.732 0 .732h.688c.473 0 .473-.732 0-.732-.839-.005-1.682-.005-2.521-.009-.473 0-.468.707 0 .731a3.47 3.47 0 011.648.507c.41.239.776-.39.37-.634zm-2.205 6.979l-.79.234c-.375.112-.326.771.098.717a17.279 17.279 0 003.414-.746c-.117-.205-.24-.41-.356-.61a3.74 3.74 0 01-3.17 1c-.035.239-.064.478-.098.717l1.834.015c.473.005.473-.727 0-.732l-1.834-.014c-.4-.005-.512.653-.097.716 1.438.225 2.818-.185 3.882-1.185.258-.243-.01-.726-.356-.609a16.21 16.21 0 01-3.22.722c.035.239.064.477.098.716l.79-.234c.454-.136.259-.843-.195-.707zm3.512 9.7c.073-.068.146-.131.22-.2l.111.127c.064-.01.147-.063.21-.083.151-.049.307-.068.454-.131a.967.967 0 00.565-.566c.151-.371-.366-.566-.61-.356a17.693 17.693 0 01-1.33 1.029 5.096 5.096 0 01-.269.18c-.21.088-.273.269-.195.542-.073-.054-.146-.113-.22-.166l.025.053c.2.425.829.054.634-.37-.341-.737-1.453.297-.63.697.43.205.825-.161 1.152-.395.463-.327.912-.678 1.34-1.048-.204-.117-.409-.239-.609-.356-.053.131-.4.156-.507.185a1.504 1.504 0 00-.468.215c-.249.185-.41.517-.273.819.229.497 1.18.478 1.126-.171-.034-.473-.765-.478-.726-.005zm9.354 2.497l-.059-.029c.059.107.122.21.18.317-.024.044-.043.088-.068.132-.092.014-.19.024-.283.039-.21-.035-.282.702-.331.916-.093.371-.18.742-.273 1.112-.113.459.595.654.707.195l.366-1.482c.078-.327.263-.756.136-1.097-.21-.566-.97-.395-.98.185 0 .127.068.254.18.317l.059.029c.41.22.78-.409.366-.634zm9.841 1.015c-.17-.157-.336-.308-.507-.464-.2-.18-.536-.112-.61.161-.112.434.02.917.366 1.205.317.263.766-.059.576-.444-.078-.161-.161-.322-.24-.488-.087-.175-.336-.224-.502-.131-.18.107-.22.321-.131.502.078.161.16.322.239.488l.575-.444c-.16-.132-.23-.303-.18-.493l-.61.161.507.463c.347.317.864-.199.517-.516zm4.945-4.819c-.248-.351-.546-.58-.965-.692-.42-.117-.61.439-.283.668.658.468 1.258 1 1.8 1.595l.516-.517c-.243-.23-.482-.459-.726-.693l-.517.517c.405.317.804.634 1.21.951.365.288.887-.229.516-.517-.404-.317-.804-.634-1.21-.951-.36-.283-.867.185-.516.517.244.229.483.459.726.693.342.326.834-.171.517-.517a11.574 11.574 0 00-1.95-1.707c-.093.224-.19.444-.283.668.224.063.39.166.526.361.274.38.908.014.64-.376zm3.951-7.749c-.347.088-.688.18-1.034.268-.351.093-.346.61 0 .707 1.224.337 2.448.678 3.667 1.015.034-.239.064-.478.098-.717a3.677 3.677 0 01-1.541-.415c-.064.229-.122.454-.186.683.327-.024.659-.044.986-.068.468-.034.472-.766 0-.732-.327.025-.659.044-.986.068-.336.025-.531.503-.185.683.61.312 1.229.478 1.912.512.42.02.487-.609.097-.717-1.224-.336-2.448-.677-3.667-1.014v.707c.346-.088.688-.18 1.034-.268.458-.122.263-.829-.195-.712zm.361-6.038a3.164 3.164 0 00-2.049.503l.444.575a2.464 2.464 0 012.804-.317v-.634c-.483.234-.956.224-1.443.025l.22.536c.146-.215.34-.293.575-.239.468.039.468-.693 0-.732-.522-.043-.917.181-1.21.605-.146.215.02.459.22.537.678.273 1.355.219 2.009-.098.244-.122.23-.507 0-.634-1.22-.653-2.653-.478-3.692.429-.312.273.093.795.444.576a2.546 2.546 0 011.678-.405c.468.044.468-.688 0-.727zm-1.073-8.334a8.509 8.509 0 01-2.141 1.75l.502.503c.268-.463.663-.79 1.175-.956-.156-.117-.307-.234-.463-.351a.531.531 0 01-.17.405c-.328.341.19.858.516.517.254-.264.376-.561.38-.922.006-.229-.238-.424-.463-.351a2.816 2.816 0 00-1.614 1.292c-.185.317.185.683.502.502a8.99 8.99 0 002.288-1.867c.317-.356-.2-.878-.512-.522zm20.229-20.035a876.692 876.692 0 0114.792 58.767c.097.458.804.263.707-.195a878.022 878.022 0 00-14.792-58.767c-.132-.448-.839-.258-.707.195zM3.62 153.543a2134.06 2134.06 0 0013.387 58.659c.112.458.814.263.707-.195a2115.824 2115.824 0 01-13.387-58.659c-.098-.464-.805-.269-.707.195z" fill="#000"/><path d="M14.232 198.449c25.925-6.179 51.851-12.353 77.777-18.532.458-.107.263-.815-.195-.707-25.926 6.179-51.852 12.353-77.777 18.532-.459.112-.264.819.195.707zm-7.54-43.916c-.146.2-.287.404-.434.604-.195.278.127.605.415.537 2.677-.624 5.36-1.244 8.037-1.868.458-.107.263-.814-.195-.707-2.678.624-5.36 1.243-8.037 1.868.136.18.273.356.414.536.147-.2.288-.405.434-.605.273-.38-.36-.746-.634-.365zm65.307-12.836a20.8 20.8 0 017.559-2.546c.463-.064.268-.771-.195-.707a21.411 21.411 0 00-7.73 2.619c-.415.234-.044.868.366.634zm-56.475-1.81c3.834 16.943 7.667 33.885 11.505 50.822.102.459.81.264.707-.195-3.838-16.937-7.671-33.879-11.505-50.817-.102-.463-.81-.268-.707.19zm48.696-11.763a973.105 973.105 0 0112.407 51.534c.097.459.805.264.707-.195a972.909 972.909 0 00-12.407-51.534c-.127-.453-.829-.258-.707.195z" fill="#000"/><path d="M19.348 152.241a604.562 604.562 0 0146.31-11.856c.46-.098.264-.805-.194-.707a605.13 605.13 0 00-46.311 11.855c-.449.137-.259.839.195.708zm13.592 33.075c-.776-1.205-2.444-.669-3.185.287-.878 1.127-.683 2.926.76 3.487 1.22.478 2.771-.702 2.303-2.048-.39-1.131-1.97-1.268-2.634-.346-.273.38.361.746.634.37.444-.614 1.405-.112 1.322.571-.132 1.034-1.414 1.005-1.927.322-.97-1.307 1.244-3.599 2.098-2.273.248.39.882.025.629-.37zm39.342-8.355c-1.025-.482-2.444-.395-3.058.693-.522.917-.23 2.287.902 2.541.892.2 2.053-.483 1.829-1.507-.205-.927-1.517-1.439-2.19-.688-.312.351.2.868.517.517.332-.366 1.083.034.951.522-.127.473-.849.58-1.205.332-.497-.351-.385-1.166-.014-1.561.478-.512 1.307-.493 1.902-.215.424.196.795-.434.366-.634zm-9.52-32.499c-.873-.946-2.243-.215-2.419.921-.19 1.21.863 2.38 2.082 2.361 1.151-.02 2.102-1.239 1.785-2.361-.307-1.082-1.663-1.55-2.599-.99-.405.244-.034.873.37.634.513-.307 1.24-.102 1.483.459.259.6-.205 1.336-.81 1.492-.643.166-1.35-.312-1.54-.921-.21-.664.439-1.834 1.136-1.073.317.341.834-.176.512-.522zm-37.796 7.569c-1.005.453-1.56 1.668-1.141 2.711.39.971 1.546 1.542 2.55 1.244 1.024-.307 1.341-1.453.659-2.268-.78-.926-2.102-.541-2.843.215-.332.336.185.853.517.517.414-.424 1.18-.82 1.702-.332.712.668-.166 1.351-.903 1.18-1.385-.326-1.375-2.092-.166-2.638.425-.19.054-.819-.375-.629zm4.136 40.034a1706.904 1706.904 0 0145.608-11.07c.459-.103.264-.81-.195-.708a1701.715 1701.715 0 00-45.608 11.071c-.454.122-.259.824.195.707zm-15.587-34.167a367.802 367.802 0 018.574 33.646c.092.458.8.268.707-.196a368.281 368.281 0 00-8.574-33.645c-.141-.449-.843-.259-.707.195zm64.345-13.787c.693 9.87 5.648 18.785 6.629 28.603.043.463.78.468.731 0-.98-9.822-5.935-18.737-6.628-28.603-.029-.469-.765-.469-.731 0zm-3.52 1.492a858.104 858.104 0 017.022 31.31c.093.463.8.268.708-.195a858.315 858.315 0 00-7.023-31.31c-.117-.454-.82-.263-.707.195zM9.628 160.087a363.682 363.682 0 017.12 32.305c.078.463.786.268.708-.195a363.65 363.65 0 00-7.12-32.305c-.123-.453-.83-.263-.708.195zm10.5-18.059a680.435 680.435 0 0140.873-10.232c.459-.102.264-.804-.195-.707a677.604 677.604 0 00-40.873 10.232c-.453.132-.263.839.195.707zm-3.297-5.891c-.214-1.2-.214-2.638.673-3.599.966-1.044 2.556-1.019 3.356.2 1.068 1.634 1.604 3.896 2.18 5.745.141.448.848.258.707-.195-.546-1.751-1.122-3.541-1.892-5.214-.483-1.043-1.195-1.97-2.42-2.058-2.926-.214-3.701 3.068-3.301 5.311.078.468.78.273.697-.19z" fill="#000"/><path d="M22.2 133.869c.635-1.985 2.61-3.965 4.824-2.731 1.824 1.02 2.292 3.287 2.682 5.155.098.459.8.263.707-.195-.512-2.443-1.472-5.76-4.457-6.062-2.229-.224-3.843 1.707-4.457 3.638-.147.454.56.644.702.195z" fill="#000"/><path d="M29 132.816c.633-2.795 2.482-5.482 5.68-3.955 2.37 1.131 3.254 3.706 3.844 6.091.112.458.82.263.707-.195-.751-3.019-2.18-6.452-5.638-7.013-3.248-.522-4.677 2.136-5.296 4.877-.107.458.6.653.702.195z" fill="#000"/><path d="M37.558 130.046c.273-1.063.741-2.058 1.522-2.848.58-.59.956-1.156 1.668-.429.297.302.517.751.726 1.112 1.102 1.892 1.62 3.984 1.644 6.164.005.468.736.473.731 0-.039-3.19-1.14-6.111-3.199-8.544-.102-.122-.312-.132-.444-.059-1.721.995-2.858 2.482-3.355 4.414-.117.453.59.648.707.19zm5.818-2.263c.025-2.541 2.873-3.146 4.663-1.907 1.521 1.053 2.053 2.897 2.243 4.638.049.463.78.468.732 0-.264-2.482-1.317-5.179-3.975-5.911-2.17-.595-4.375.898-4.394 3.18 0 .473.731.473.731 0z" fill="#000"/><path d="M50.277 127.349c-1.024-2.58 1.727-4.682 4.048-3.239 1.985 1.234 2.331 3.824 2.633 5.936.064.463.771.268.708-.195-.395-2.775-1.293-6.706-4.75-7.009-2.502-.219-4.229 2.454-3.341 4.702.17.429.878.244.702-.195z" fill="#000"/><path d="M56.958 125.91c-.936-1.56.298-3.37 2.053-3.355 1.717.015 2.83 1.522 3.034 3.102.058.458.79.468.731 0-.273-2.132-1.863-4.073-4.194-3.804-2.136.244-3.374 2.56-2.258 4.428.244.4.878.034.634-.371zM18.3 214.162l4.637-1.331c.454-.132.259-.834-.195-.707l-4.638 1.331c-.453.132-.258.839.195.707zm74.67-16.103a17.17 17.17 0 014.535-1.887c.454-.117.263-.825-.195-.708a17.825 17.825 0 00-4.711 1.961c-.405.244-.04.878.37.634zm-63.522 1.595a75.715 75.715 0 003.116 13.689c.147.444.854.254.707-.195a74.833 74.833 0 01-3.087-13.494c-.063-.459-.795-.464-.736 0zm6.022-.444c.835 4.17 1.664 8.339 2.498 12.514.092.463.795.268.707-.195-.834-4.17-1.663-8.34-2.497-12.514-.093-.459-.8-.264-.707.195zm7.936.809c.804 3 1.609 5.994 2.414 8.993.121.454.829.264.707-.195-.805-2.999-1.61-5.993-2.414-8.993-.122-.453-.83-.258-.707.195zm6.252-3.809l2.736 9.793c.127.454.834.259.707-.195l-2.736-9.793c-.132-.448-.834-.258-.707.195zm8.09-1.345a238.477 238.477 0 002.654 11.66c.117.454.819.264.707-.195a231.548 231.548 0 01-2.653-11.66c-.098-.464-.8-.269-.708.195zm6.242-1.62c.947 3.439 1.888 6.877 2.834 10.315.127.454.83.263.707-.195-.946-3.438-1.887-6.876-2.833-10.315-.127-.453-.834-.263-.707.195zm7.955-2.199l2.487 10.607c.108.459.815.264.707-.195l-2.487-10.607c-.112-.458-.814-.263-.707.195zm6.535-1.629l2.736 9.252c.132.448.839.258.707-.196l-2.736-9.251c-.136-.449-.843-.258-.707.195zm4.98-.663a55.37 55.37 0 001.95 10.153c.132.449.84.259.707-.195a54.445 54.445 0 01-1.926-9.958c-.044-.464-.775-.468-.731 0z" fill="#000"/><path d="M29.472 200.293c.42-1.224 1.42-3.083 2.98-2.629 1.097.322 2.356 2.117 2.94 2.99.191.287.693.2.684-.186-.03-.975.239-2.394 1.058-3.043 1.678-1.326 4.448-.78 4.428 1.824-.005.4.649.512.717.098.268-1.654.917-3.468 2.433-4.39 1.785-1.082 4.346-.229 4.76 1.893.078.404.742.312.717-.098-.248-4.965 5.336-3.175 7.223-1.005.283.327.751-.087.575-.443-1.624-3.214 3.36-5.701 4.702-2.054.097.264.522.4.668.088 1.663-3.54 6.091-4.886 9.432-2.828.16.097.414.043.502-.132.498-1.019 3.658-3.931 3.804-.366.015.4.62.512.717.098.57-2.424 3.74-3.546 5.506-1.234.283.371.917.005.634-.371-2.112-2.76-6.028-2.053-6.847 1.41.239.034.478.063.717.097-.049-1.112-.503-2.331-1.756-2.511-.966-.142-1.97.668-2.629 1.253-.946.839-.492.746-1.677.419-3.58-.975-7.398.293-9.042 3.795l.668.087c-1.707-4.638-8.276-1.819-6.042 2.619l.575-.444c-1.331-1.531-3.228-2.833-5.36-2.419-1.93.381-3.209 1.995-3.111 3.941.239-.034.478-.063.717-.098-.37-1.901-2.141-3.072-4.058-2.916-2.75.229-4.15 2.995-4.545 5.413.239.035.478.064.717.098.015-2.048-1.814-3.711-3.902-3.316-2.097.4-3.106 2.584-3.053 4.53l.683-.185c-.765-1.146-2.506-3.58-4.072-3.667-1.487-.083-2.809 2.38-3.184 3.482-.137.453.57.643.721.2zm58.225-14.685a76.258 76.258 0 002.946 9.456c.166.435.873.244.707-.195a75.489 75.489 0 01-2.945-9.456c-.113-.453-.815-.258-.708.195zm-64.389 14.675c.556 3.082 1.107 6.164 1.663 9.251.083.464.79.268.707-.195-.556-3.082-1.107-6.164-1.663-9.251-.083-.464-.79-.269-.707.195zm-5.014 16.42c4.507 18.576 8.9 37.187 12.749 55.909 3.877 18.854 7.271 37.811 10.753 56.743 1.985 10.802 3.975 21.604 5.96 32.407.083.463.79.268.707-.195-6.964-37.874-13.446-75.88-21.99-113.442-2.404-10.558-4.92-21.092-7.476-31.617-.108-.458-.815-.263-.703.195zm76.304-16.41c1.922 9.758 3.843 19.517 5.76 29.276 1.921 9.768 3.828 19.497 6.652 29.051 2.707 9.154 5.891 18.162 8.696 27.282 2.813 9.153 4.94 18.41 6.686 27.827.98 5.301 1.921 10.612 3.092 15.879.882 3.975 1.37 9.379 4.213 12.514.317.351.834-.17.517-.517-1.585-1.746-2.043-4.14-2.624-6.354a160.094 160.094 0 01-1.599-6.74c-1.015-4.667-1.858-9.369-2.726-14.065-1.707-9.261-3.716-18.391-6.448-27.413-2.677-8.842-5.749-17.557-8.441-26.399-2.8-9.202-4.809-18.527-6.667-27.954-2.136-10.861-4.272-21.722-6.413-32.583-.083-.463-.786-.268-.698.196zM24.59 216.786c.195-.151.122.541.117.605-.004.175-.004.351.04.522.078.307.253.599.482.819.42.405 1.054.6 1.605.366.956-.405 1.102-1.941.146-2.429-.42-.215-.79.419-.37.634.355.18.37.678.131.975-.385.478-1.082.015-1.258-.429-.19-.487.122-1.019-.224-1.473-.244-.321-.708-.473-1.049-.209-.356.268.005.907.38.619zm7.038-.536c0-.239-.005-.473-.005-.712h-.732c.04 1.741.235 3.472.64 5.169.15.624.311 1.961 1.248 1.868.819-.083 1.37-1.395 1.55-2.048.293-1.054.137-2.107-.34-3.078-.21-.424-.84-.053-.635.371.386.79.507 1.658.268 2.512-.097.346-.278.926-.585 1.146-.468.331-.463.102-.678-.468-.624-1.678-.697-3.707-.736-5.472-.01-.468-.736-.473-.732 0 0 .239.005.473.005.712.005.468.737.468.732 0zm5.555-3.809a46.634 46.634 0 001.892 10.344c.092.312.492.346.668.087 1.521-2.282 2.34-5.384-.117-7.339-.366-.293-.888.224-.517.517 2.234 1.78 1.336 4.452 0 6.457l.668.087a45.67 45.67 0 01-1.863-10.148c-.034-.473-.766-.473-.731-.005zm7.867-.873a45.722 45.722 0 001.506 8.993c.083.307.507.356.668.088.77-1.268 1.58-2.634 1.595-4.16.01-1.468-.727-2.727-1.478-3.941-.248-.4-.878-.034-.634.371.727 1.175 1.444 2.365 1.341 3.804-.092 1.321-.785 2.453-1.458 3.56l.668.088a44.843 44.843 0 01-1.482-8.798c-.03-.473-.761-.473-.727-.005zm6.73-.654c.477 1.961.867 3.97 1.443 5.901.287.956.721 1.849 1.785 2.015.2.029.39-.049.448-.254.654-2.243.478-4.462-.487-6.589-.196-.429-.825-.058-.634.371.887 1.941 1.014 3.98.414 6.023.151-.083.302-.171.449-.254-1.385-.214-1.566-2.672-1.814-3.696-.303-1.239-.605-2.473-.903-3.712-.107-.453-.814-.263-.702.195zm7.149-1.365l.702 3.76c.18.956.2 2.404.688 3.272.78 1.38 2.774-.058 3.799-.463.141-.054.282-.18.268-.351a16.167 16.167 0 00-1.132-4.809c-.175-.429-.882-.244-.707.195.434 1.078.97 2.405.99 3.59.015.936-.21.907-1.068 1.248-.497.195-1.087.663-1.565.112-.18-.209-.23-1.141-.273-1.375-.103-.536-.2-1.073-.303-1.609l-.702-3.76c-.078-.469-.785-.274-.697.19zm7.813-1.741c0-.244-.005-.488-.005-.732-.005-.468-.727-.473-.732 0-.01 1.268.707 8.667 3.136 7.028 2.175-1.468 1.956-4.931.322-6.657-.327-.341-.844.175-.517.517a3.73 3.73 0 011.058 2.687c-.005.746-.317 2.282-1.083 2.682-1.653.859-2.19-5.345-2.184-6.252h-.732c0 .244.005.488.005.732.005.468.736.468.731-.005zm6.261-1.629c0-.249.005-.493.005-.741-.239.034-.478.063-.717.097a33.856 33.856 0 002.395 6.711c.073.151.263.2.414.166 1.307-.298 2.18-1.346 2.43-2.653.311-1.644-.493-3.214-1.323-4.57-.243-.4-.877-.034-.633.371 1.087 1.785 2.433 5.442-.669 6.149.137.054.273.113.415.166a33.082 33.082 0 01-2.321-6.535c-.098-.405-.717-.312-.717.098 0 .248-.005.492-.005.741-.01.468.722.468.726 0zm8.12-2.37c-.083-.2-.16-.405-.243-.605-.059-.405-.747-.312-.717.098.131 2.058.58 7.803 3.799 7.412 3.33-.399.239-6.286-.41-7.71-.195-.429-.824-.058-.634.371a32.5 32.5 0 011.297 3.267c.147.444.313.907.41 1.366.288.619.088 1.053-.605 1.312-.444.795-.94.824-1.482.097-1.302-1.37-1.532-4.35-1.644-6.115-.239.034-.478.063-.717.097.069.483.03.385.317.78.269.376.903.01.63-.37zm6.033-.624c-.024-.513-.044-1.029-.068-1.542-.24.035-.478.064-.717.098.41 1.673.82 3.463 1.526 5.043.273.614.737 1.268 1.483.853 2.048-1.136.61-4.526-.117-5.974-.21-.419-.844-.049-.634.371.36.726.712 1.472.892 2.267.103.439.278 3.097-.843 2.468-.23-.127-.44-1.19-.517-1.419a37.891 37.891 0 01-.4-1.253 50.292 50.292 0 01-.688-2.541c-.097-.395-.736-.317-.717.097.025.512.044 1.029.069 1.541.02.459.75.459.731-.009zm2.326 9.07a1629.801 1629.801 0 0119.074 79.03c1.775 8.257 2.863 16.948 6.696 24.561 2.238 4.447 3.731 8.71 4.418 13.65.639 4.584.961 9.198 2.151 13.689.122.454.824.264.707-.195-1.99-7.51-1.429-15.606-4.399-22.872-1.726-4.224-4.043-8.018-5.252-12.471-1.141-4.208-1.907-8.529-2.814-12.797a1612.337 1612.337 0 00-12.188-52.977 1609.357 1609.357 0 00-7.69-29.818c-.122-.448-.825-.258-.703.2zm-59.444 18.65c-.517 8.344 2.268 16.903 4.014 24.989a5340.961 5340.961 0 005.745 26.267c1.887 8.52 3.774 17.045 5.74 25.55 1.882 8.159 4.443 16.094 5.75 24.384 1.58 10.042 2.916 20.127 4.364 30.193.069.463.771.268.708-.195-1.268-8.803-2.522-17.61-3.8-26.413-1.204-8.301-3.389-16.162-5.393-24.282-4.131-16.747-7.633-33.68-11.29-50.539-1.02-4.692-2.03-9.388-3.034-14.08-1.121-5.238-2.409-10.48-2.072-15.874.029-.473-.703-.468-.732 0zm33.397-7.052a300.868 300.868 0 0011.095 51.983c.136.448.844.258.707-.195a299.93 299.93 0 01-11.07-51.788c-.059-.463-.79-.468-.732 0zm12.197 55.957l15.947 73.461c.098.458.805.263.708-.195l-15.948-73.461c-.102-.458-.81-.263-.707.195zm5.76-44.609c3.019 8.057 4.067 16.577 5.584 24.999 1.54 8.549 4.233 16.665 7.071 24.848 5.92 17.069 8.666 34.777 11.924 52.49.083.463.79.268.707-.195-3.257-17.718-6.003-35.421-11.924-52.49-2.838-8.188-5.53-16.304-7.071-24.848-1.517-8.417-2.565-16.942-5.584-24.999-.161-.434-.873-.244-.707.195zm2.838-21.404a26.457 26.457 0 001.141 8.256c.137.449.844.259.707-.195a25.93 25.93 0 01-1.112-8.061c.005-.469-.726-.469-.736 0zm2.404 11.714a55.09 55.09 0 001.737 8.793c.126.454.834.258.707-.195a54.326 54.326 0 01-1.712-8.598c-.054-.463-.79-.468-.732 0zM90 241.927a484.64 484.64 0 0115.82 70.539c.068.463.775.268.707-.195a484.145 484.145 0 00-15.82-70.54c-.137-.448-.844-.258-.708.196zm16.776 73.792c.931 3.17 1.858 6.34 2.789 9.505.132.449.839.258.708-.195-.932-3.17-1.858-6.34-2.79-9.505-.132-.449-.839-.259-.707.195z" fill="#000"/><path d="M109.424 323.844a95.181 95.181 0 006.023 20.483c.18.429.888.239.707-.195a94.899 94.899 0 01-6.023-20.483c-.083-.464-.79-.269-.707.195zm-66.935-95.08c.707 8.559 3.687 16.601 5.935 24.828 2.35 8.598 2.994 17.503 4.374 26.287 2.868 18.259 7.204 36.264 12.89 53.85 1.634 5.053 2.868 9.973 3.394 15.275.478 4.833.776 9.656 2.044 14.367.122.453.829.263.707-.195-2.282-8.462-1.668-17.338-4.209-25.77-2.628-8.734-5.442-17.381-7.68-26.232a351.512 351.512 0 01-5.61-26.428c-1.516-8.808-2.111-17.835-4.018-26.565-2.15-9.871-6.257-19.264-7.096-29.412-.039-.473-.77-.478-.731-.005zm14.284-1.805l5.384 23.292c1.741 7.54 3.74 15.07 4.945 22.717.073.463.78.268.707-.195-1.204-7.647-3.199-15.177-4.945-22.717l-5.384-23.292c-.107-.453-.814-.263-.707.195zm11.217 50.242c4.535 26.755 9.134 53.612 17.825 79.391.151.444.858.254.707-.195-8.69-25.779-13.29-52.636-17.825-79.391-.078-.458-.785-.263-.707.195zm-18.947-45.482c6.998 32.607 14.197 65.18 20.727 97.884a1625.404 1625.404 0 015.316 27.828c.083.463.79.268.707-.195-5.935-32.671-13.04-65.117-20.01-97.577-2.014-9.378-4.023-18.752-6.038-28.13-.092-.463-.8-.268-.702.19zm-12.202 4.136c.268 7.471 2.61 14.733 4.209 21.995 1.717 7.812 3.209 15.679 4.614 23.555 2.833 15.899 5.49 31.827 8.446 47.701 1.693 9.11 3.443 18.205 5.248 27.296.093.463.795.268.707-.195-3.98-20.064-7.676-40.176-11.144-60.332-1.736-10.095-3.462-20.195-5.481-30.237a415.465 415.465 0 00-3.292-15.001c-1.17-4.882-2.39-9.739-2.57-14.782-.02-.473-.751-.473-.737 0zm36.294-17.611c1.273 4.716 2.54 9.437 3.814 14.153.122.454.829.263.707-.195-1.273-4.716-2.54-9.437-3.814-14.153-.127-.453-.834-.263-.707.195zm-6.247 3.809c.536 2.541 1.068 5.087 1.604 7.628.098.458.8.263.707-.195-.536-2.541-1.068-5.087-1.604-7.628-.098-.463-.805-.268-.707.195zm34.689 29.788c-.473-.117-.853.039-1.136.429-.156.215.053.576.317.551a12.733 12.733 0 002.731-.575c.444-.146.253-.853-.195-.707-.829.273-1.668.458-2.536.551.107.185.209.366.317.551.102-.029.205-.063.307-.093.454.117.649-.59.195-.707zm1.731 11.539l2.995-1.361c.429-.195.058-.824-.371-.634-1 .454-1.994.908-2.994 1.361-.429.2-.054.829.37.634zm-8.018-8.5l3.58-1.244c.444-.151.254-.858-.195-.707l-3.58 1.244c-.438.156-.248.863.196.707zm-7.32 2.262c1.547-.541 3.088-1.077 4.634-1.619.444-.156.253-.863-.195-.707l-4.634 1.619c-.438.156-.248.864.196.707zm-6.261 1.346c1.087-.273 2.18-.541 3.267-.814.459-.112.264-.819-.195-.707-1.087.273-2.18.541-3.267.814-.454.117-.264.82.195.707zm-9.705 2.99a11.533 11.533 0 013.896-1.039c.464-.039.468-.77 0-.731a12.685 12.685 0 00-4.267 1.136c-.424.2-.054.829.37.634zm1.906-22.19a642.523 642.523 0 0111.388 47.023c.093.463.8.268.707-.195a640.633 640.633 0 00-11.387-47.023c-.132-.449-.834-.258-.707.195zm13.373 54.899a736.92 736.92 0 0014.275 52.934c.136.449.843.259.707-.195a737.73 737.73 0 01-14.275-52.934c-.107-.458-.814-.263-.707.195zm10.032-30.778c-.142.327-.278.654-.42.981-.097.224.01.575.317.551 1.39-.122 2.75-.361 4.102-.722.453-.122.263-.829-.195-.707-1.283.341-2.58.575-3.907.697.108.185.21.366.317.551.142-.327.278-.653.42-.98.18-.429-.449-.805-.634-.371zm-7.433 3.278l4.082-1.361c.444-.146.254-.853-.195-.707l-4.082 1.361c-.444.146-.253.853.195.707zm-6.598 2.004l.014.068c.03-.117.064-.239.093-.356.2.234.41.259.624.078l.21-.087c.244-.108.493-.21.741-.313.459-.19.917-.385 1.376-.575.429-.18.239-.888-.195-.707l-2.117.887c-.385.161-.995.322-1.053.82-.093.765 1.18.756 1.01-.015-.098-.453-.805-.263-.703.2zm-8.374.444c1-.273 1.995-.547 2.995-.815.453-.122.263-.829-.195-.707-1 .273-1.995.546-2.995.814-.453.127-.258.834.195.708zm-6.125.005c-.23.336-.463.673-.693 1.014-.22.322.2.653.503.502l2.584-1.312c.42-.214.05-.843-.37-.634l-2.585 1.312.502.503c.23-.337.464-.673.693-1.015.263-.39-.37-.756-.634-.37zm-9.661 3.54l4.901-1.082c.458-.103.263-.805-.195-.708l-4.901 1.083c-.459.102-.264.81.195.707z" fill="#000"/><path d="M53.769 274.543a6.476 6.476 0 012.536-.507c.473 0 .473-.731 0-.731a7.354 7.354 0 00-2.907.604c-.429.186-.058.82.37.634zm-6.809-.005a4.848 4.848 0 012.815-.76c.473.014.468-.717 0-.732a5.554 5.554 0 00-3.18.863c-.4.249-.034.883.366.629zm-7.617 1.912c.975-.468 2-.722 3.077-.775.469-.025.474-.756 0-.732a8.92 8.92 0 00-3.448.873c-.424.205-.053.839.371.634zm-5.764 1.014a3.365 3.365 0 012.745-.385c.454.127.649-.575.195-.707a4.084 4.084 0 00-3.306.459c-.405.248-.04.882.366.633zm-2.673-10.812a5.203 5.203 0 013.35-.77c.469.044.464-.688 0-.732a5.891 5.891 0 00-3.72.873c-.396.249-.03.878.37.629zm6.144-.595l4.649-1.287c.453-.127.258-.834-.195-.707l-4.648 1.287c-.449.127-.259.834.195.707zm7.116-.994a4.52 4.52 0 013.6-1.059c.458.064.658-.639.195-.707-1.59-.224-3.087.2-4.312 1.244-.36.312.157.829.517.522zm8.242-1.41a12.678 12.678 0 012.907-1.326c.449-.137.258-.844-.195-.708a13.23 13.23 0 00-3.082 1.4c-.4.249-.035.883.37.634zm6.077-1.497a4.875 4.875 0 00-.468.005v.731c1.61-.083 3.116-.663 4.647-1.107.45-.131.259-.839-.195-.707-1.463.424-2.916 1.005-4.452 1.083-.468.024-.473.751 0 .731a5.62 5.62 0 01.468-.005c.468.005.468-.726 0-.731zm10.168.185c.727-.18 1.453-.356 2.18-.536.459-.112.264-.819-.195-.707-.727.18-1.453.356-2.18.536-.453.112-.263.819.195.707zm-28.037 58.781c1.088-.18 2.18-.361 3.267-.546.464-.078.269-.78-.195-.707-1.087.18-2.18.361-3.267.546-.463.083-.268.785.195.707zm7.564-2.809c-.366.059-.58.293-.566.678.025.546.532.649.976.751 1.98.459 4.472-.346 6.242-1.16.43-.196.054-.829-.37-.634-.913.419-1.854.746-2.844.921-1.082.191-2.19-.019-3.243.147.463-.069.268-.776-.195-.703z" fill="#000"/><path d="M56.14 318.752c-.347-.083-.698-.171-1.045-.253v.707a839.62 839.62 0 013.487-.537c.464-.073.269-.775-.195-.707-1.16.181-2.326.361-3.487.537-.365.058-.331.624 0 .707.347.083.698.17 1.044.253.459.112.653-.595.195-.707zm5.178-1.053a16.857 16.857 0 004.419-1.258c.429-.186.058-.82-.37-.634-1.362.59-2.78.975-4.244 1.18-.463.073-.268.775.195.712zm7.511-.883l3.262-.292c.464-.044.469-.776 0-.732l-3.262.293c-.463.039-.468.77 0 .731zm7.988-.595c1.722-.273 3.448-.546 5.17-.814.463-.073.268-.781-.195-.707-1.722.273-3.448.546-5.17.814-.463.078-.268.78.195.707zm8.71-1.629c1.541-.546 3.087-1.087 4.629-1.634.438-.156.248-.863-.196-.707-1.54.547-3.087 1.088-4.628 1.634-.439.156-.248.863.195.707zm7.711-1.668a10.202 10.202 0 014.716-1.312c.468-.014.473-.746 0-.731a10.976 10.976 0 00-5.082 1.414c-.415.225-.049.859.366.629zm8.622-2.687c.814-.18 1.634-.361 2.448-.546.459-.102.264-.81-.195-.707-.814.18-1.634.361-2.448.546-.459.103-.263.81.195.707zm4.906-.8l3.804-1.375c.439-.161.249-.868-.195-.707l-3.804 1.375c-.439.161-.249.868.195.707zm6.974-2.643h-.463c-.4-.005-.512.653-.098.717 1.502.239 2.775-.678 4.014-1.395.41-.234.039-.868-.371-.634-1.019.59-2.199 1.522-3.448 1.322-.034.239-.063.478-.097.717.156.005.312.005.463 0 .468.005.468-.727 0-.727zm3.355 10.773c1.449-.463 2.897-.922 4.346-1.385.448-.141.253-.848-.195-.707-1.449.463-2.897.922-4.346 1.385-.444.141-.253.849.195.707zm-7.256 2.161a11.76 11.76 0 013.896-1.039c.463-.044.468-.776 0-.732a12.959 12.959 0 00-4.267 1.137c-.424.199-.054.829.371.634zm-5.531 1.394c.815-.18 1.634-.361 2.448-.546.459-.102.264-.809-.195-.707-.814.18-1.633.361-2.448.546-.458.108-.263.81.195.707zm-8.71 1.093c1.453-.361 2.902-.727 4.355-1.088.459-.112.263-.819-.195-.707-1.453.361-2.902.727-4.355 1.088-.454.112-.263.819.195.707zm-8.168 1.624c1.999-.629 3.993-1.263 5.993-1.892.449-.142.258-.849-.195-.707-2 .629-3.994 1.263-5.994 1.892-.444.141-.253.848.195.707zm-8.789 2.116a20.477 20.477 0 006.14-1.638c.43-.191.059-.82-.37-.634a19.311 19.311 0 01-5.77 1.536c-.463.054-.468.785 0 .736zm-7.491 1.868a17.62 17.62 0 015.399-1.785c.463-.078.268-.78-.195-.707a18.4 18.4 0 00-5.57 1.863c-.419.215-.053.844.366.629zm-5.764 1.741c1.268-.361 2.54-.726 3.809-1.087.453-.127.258-.834-.196-.707l-3.808 1.087c-.454.132-.259.834.195.707zm-8.35 1.327c1.41-.659 2.888-1 4.443-1.044.468-.014.473-.746 0-.731a11.978 11.978 0 00-4.808 1.141c-.43.2-.059.829.365.634zm-4.726.556c.547-.181 1.088-.366 1.634-.546.444-.147.254-.854-.195-.707-.546.18-1.087.365-1.633.546-.444.146-.254.853.195.707zm-8.031 1.531c-.02-.024-.035-.049-.054-.068a.346.346 0 00-.356-.093c-.234.093-.342.161-.4.42a.377.377 0 00.166.414c.614.381 1.58-.039 2.219-.161 1.243-.239 2.482-.478 3.726-.712.463-.088.268-.795-.195-.707-.878.166-1.756.337-2.63.502-.492.093-2.306.722-2.75.449.054.137.112.273.166.415-.136.024-.273.043-.414.068.297.361.81-.161.522-.527zM15.422 76.815c1.42 6.413 2.653 12.894 4.345 19.244.122.453.83.263.707-.195-1.692-6.345-2.926-12.831-4.345-19.245-.107-.458-.81-.268-.707.196zm4.877-1.99a274.22 274.22 0 014.404 19.58c.087.464.79.269.707-.195a274.205 274.205 0 00-4.404-19.58c-.122-.454-.83-.259-.707.195zm4.365-.542a421.716 421.716 0 015.393 19.015c.118.454.825.264.708-.195a421.717 421.717 0 00-5.394-19.015c-.142-.448-.849-.258-.707.195zm4.281-2.15c2.19 6.7 3.907 13.528 5.14 20.473.084.463.786.268.708-.195a150.022 150.022 0 00-5.14-20.474c-.151-.448-.854-.258-.707.196zm5.57-.23c1.639 6.594 3.282 13.183 4.92 19.776.113.459.82.264.708-.195-1.639-6.593-3.282-13.182-4.92-19.776-.113-.453-.82-.263-.708.195zm3.648-.595c1.839 6.799 3.677 13.602 5.52 20.4.123.454.83.264.708-.195-1.839-6.798-3.677-13.601-5.521-20.4-.127-.453-.834-.263-.707.195z" fill="#000"/><path d="M40.094 76.566c1.16-.337 1.922-.034 2.278.907.278.458.536.931.77 1.414.576 1.185 1.01 2.424 1.375 3.687.605 2.092.976 4.243 1.346 6.384.083.463.786.268.708-.195-.693-3.98-1.405-8.169-3.565-11.66-.708-1.142-3.239-3.434-3.614-.732-.068.458.639.658.702.195z" fill="#000"/><path d="M38.572 76.341c.2.269.39.42.717.513.327.092.547-.259.415-.537-.356-.75-1.453-1.595-2.331-1.15-.478.243-.502.877-.57 1.34a11.03 11.03 0 00-.093 2.195c.024.468.755.473.731 0-.039-.785-.015-1.57.127-2.35.083-.479.322-.654.805-.42.326.16.55.429.702.756.136-.18.273-.356.414-.537l-.278-.175c-.282-.38-.921-.015-.639.365zm-2.355 2.039c-.907-1.258-2.195-2.853-3.965-2.458-1.297.288-2.01 1.912-.96 2.892.34.322.862-.195.516-.517-.434-.405-.341-1.078.112-1.434.483-.38 1.22-.297 1.741-.049.834.4 1.405 1.205 1.927 1.932.273.385.907.02.629-.366z" fill="#000"/><path d="M30.92 77.795c-.15-1.18-1.35-2.117-2.54-1.658-1.546.594-1.566 2.453-1.439 3.828.044.463.776.468.732 0-.083-.893-.21-1.956.395-2.702.643-.79 1.98-.566 2.121.532.059.458.795.468.732 0z" fill="#000"/><path d="M27.36 80.184c-.785-1.2-2.077-2.272-3.608-1.902-1.766.425-1.927 2.039-1.512 3.546.127.453.829.258.707-.195-.175-.64-.38-1.337-.015-1.941.288-.483.844-.737 1.405-.751 1.044-.02 1.863.804 2.395 1.614.253.39.887.024.629-.37z" fill="#000"/><path d="M22.571 81.565c-.463-1.522-2.111-2.566-3.682-2.078-1.56.478-2.34 2.322-1.809 3.809.156.439.863.249.707-.195-.395-1.117.107-2.517 1.302-2.907 1.18-.385 2.444.44 2.785 1.57.132.444.834.254.697-.2zm-11.558-5.501c10.422-2.658 20.84-5.316 31.261-7.97.454-.116.263-.824-.195-.706-10.422 2.657-20.839 5.315-31.26 7.968-.455.117-.264.82.194.708zm6.827 59.278c.542.863 1.084 1.727 1.625 2.585.19.302.678.185.683-.185a5.957 5.957 0 00-1.761-4.312c-.283-.282-.658.02-.61.356a4.694 4.694 0 001.634 2.995c.176.151.449.141.576-.073.619-1.044.78-2.166.492-3.346-.083-.336-.634-.361-.707 0a18.871 18.871 0 00-.263 5.418c.239-.034.478-.063.717-.097-.259-1.019-1.103-1.653-2.16-1.6-.469.025-.474.756 0 .732.726-.039 1.267.336 1.453 1.058.097.39.76.322.716-.097a18.056 18.056 0 01.24-5.224h-.708c.244.995.103 1.897-.42 2.78l.576-.073c-.829-.717-1.297-1.59-1.443-2.672-.205.117-.41.238-.61.356a5.204 5.204 0 011.546 3.794c.23-.064.454-.122.683-.186-.541-.863-1.083-1.726-1.624-2.584-.254-.39-.888-.025-.634.375zm5.448-.112c.244.727.488 1.453.727 2.18.117.351.585.341.707 0a7.678 7.678 0 00.322-3.843c-.068-.405-.746-.312-.717.097.04.586.19 1.371.893 1.463.58.078 1.048-.409.907-.97-.225.093-.444.19-.668.283l1.092 1.985c.23.414.858.044.634-.371-.366-.663-.727-1.322-1.092-1.985-.205-.37-.766-.117-.669.283-.219-.049-.326-.166-.326-.351a1.318 1.318 0 01-.04-.337c-.238.035-.477.064-.716.098a6.933 6.933 0 01-.322 3.453h.707c-.244-.727-.488-1.454-.727-2.18-.156-.444-.863-.254-.712.195zm8.706-3.365a6.174 6.174 0 001.15 3.804c.2.278.688.205.683-.185l-.029-2.912c-.005-.483-.683-.458-.732 0a1.6 1.6 0 001.312 1.77c.234.044.459-.102.464-.351.02-.658.034-1.321.053-1.98h-.731c.073.79.439 1.395 1.126 1.795a.377.377 0 00.503-.132c.565-.902.214-2.228-.82-2.628-1.194-.464-2.4.692-2.297 1.877.04.464.776.468.732 0-.064-.731.692-1.58 1.448-1.121.522.312.6 1.029.303 1.507l.502-.132c-.454-.268-.712-.634-.76-1.166-.045-.463-.718-.478-.732 0-.02.659-.034 1.322-.054 1.98.156-.117.307-.234.463-.351-.55-.107-.834-.507-.775-1.063h-.732l.03 2.911c.229-.063.453-.121.682-.185a5.523 5.523 0 01-1.053-3.438c.01-.468-.722-.468-.736 0zm7.573-1.629c.05 1.151.098 2.302.152 3.453.014.327.526.541.682.185.6-1.365.551-2.828-.165-4.145-.21-.386-.732-.108-.669.283.176 1.034 1.02 1.736 2.054 1.799.468.029.468-.702 0-.731-.737-.049-1.224-.556-1.346-1.263-.225.092-.444.19-.669.282.586 1.064.659 2.288.166 3.404.23.064.454.122.683.186-.049-1.151-.097-2.302-.151-3.453-.025-.468-.756-.473-.737 0zm3.673.99c1.043-.107 1.838-.78 1.985-1.848-.24-.034-.478-.064-.717-.098-.112 1.132.092 2.161.59 3.18.151.307.57.18.668-.088a9.074 9.074 0 00.541-4.028c-.044-.459-.746-.478-.731 0 .039 1.156.375 2.19 1.048 3.131.142.2.508.273.634 0a20.353 20.353 0 001.263-3.765c-.239-.034-.477-.064-.717-.098.025 1.034-.165 2-.6 2.941-.194.424.435.795.635.371a7.267 7.267 0 00.697-3.312c-.01-.4-.624-.512-.717-.097a19.392 19.392 0 01-1.19 3.589h.634c-.6-.839-.917-1.731-.95-2.76h-.732a8.578 8.578 0 01-.512 3.838l.668-.088c-.444-.907-.59-1.809-.493-2.809.04-.405-.663-.507-.717-.098-.097.708-.522 1.229-1.278 1.312-.473.039-.477.776-.01.727zm8.48-2.292c-.73.658-.867 1.648-.38 2.492.151.258.605.229.668-.088a17.33 17.33 0 00.332-4.76c-.239.034-.478.064-.717.098.142.829.37 1.824 1.239 2.18.648.263 1.322.097 1.702-.493a152.72 152.72 0 01-.668-.088l1.024 2.575c.17.434.878.244.707-.195l-1.024-2.575c-.117-.287-.488-.37-.668-.087-.493.765-1.185-.113-1.356-.513-.137-.321-.185-.663-.244-1.004-.068-.405-.746-.312-.717.097a16.67 16.67 0 01-.302 4.565l.668-.088c-.327-.565-.21-1.175.268-1.604.337-.307-.185-.824-.531-.512zm7.116-.663c.56-.786.732-1.698.537-2.639-.083-.4-.747-.317-.717.098.058.907.117 1.814.17 2.716.24-.034.478-.063.717-.097-.19-.629.863-1.346 1.302-.766.44.58-.531 1.395-1.087 1.049-.4-.249-.766.38-.37.634 1.223.765 2.955-.932 2.038-2.127-.917-1.195-3.005.029-2.59 1.414.117.381.746.327.717-.097a434.91 434.91 0 01-.17-2.716c-.24.034-.479.063-.718.097.156.751-.02 1.453-.463 2.073-.273.375.36.741.634.361zm23.599 69.291c.473 0 .473-.732 0-.732-.468 0-.473.732 0 .732zm.181 8.885v1.468c0 .473.731.473.731 0v-3.931h-.731v3.009c0 .473.731.473.731 0v-3.009c0-.473-.731-.473-.731 0v3.931h.731v-1.468c0-.468-.731-.468-.731 0zm-5.814 1.536c-.463-1.194-.926-2.384-1.394-3.579-.137-.347-.776-.347-.717.097l.878 6.843c.058.458.79.468.731 0l-.878-6.843c-.239.034-.478.064-.716.098a979.19 979.19 0 001.394 3.579c.166.434.873.244.703-.195zm-7.656 1.278a3.323 3.323 0 00-.4-2.487c-.166-.278-.576-.21-.668.088a4.29 4.29 0 00.439 3.574c.243.4.877.035.634-.37a3.559 3.559 0 01-.366-3.009l-.668.088c.36.599.473 1.233.326 1.921-.097.458.605.654.703.195zm-7.564 2.634c.034-.766-.161-1.454-.615-2.073-.22-.302-.644-.185-.683.185a8.848 8.848 0 00.571 4.16c.17.434.878.244.707-.195a8.458 8.458 0 01-.541-3.965c-.23.064-.454.122-.683.186.38.526.546 1.053.512 1.706-.02.469.712.469.732-.004zm-8.193 1.414c.96.707 2.375.551 3.184-.332.878-.965.566-2.423-.38-3.213-.951-.795-2.268-.639-3.048.307-.356.434-.576.99-.576 1.551 0 .395.142.76.166 1.151.034.604-.034 1.233-.054 1.843-.014.473.717.468.732 0 .024-.849.107-1.707-.04-2.526-.17-.946.313-2.112 1.435-2.097 1.073.009 1.931 1.277 1.38 2.248-.493.863-1.658 1-2.424.439-.39-.278-.756.356-.376.629zm-7.711 3.209c.844-.839.868-2.087.137-2.999-.176-.22-.546-.083-.61.161-.43 1.565-.132 3.199.858 4.491.283.371.917.005.634-.37-.877-1.147-1.17-2.527-.785-3.931-.205.053-.41.107-.61.161.488.609.4 1.429-.136 1.965-.336.337.18.854.512.522zm-6.476 4.175c.234-1.317.127-2.619-.361-3.868-.147-.38-.693-.332-.717.098-.064 1.043-.132 2.087-.195 3.131-.03.468.702.468.731 0 .064-1.044.132-2.088.195-3.131-.238.034-.477.063-.716.097.438 1.122.575 2.287.36 3.477-.087.459.62.659.703.196zm-6.038-1.449a3.775 3.775 0 01-1.01-2.287c-.039-.464-.736-.478-.731 0 .005.487.015.98.02 1.468.004.468.736.473.731 0-.005-.488-.015-.981-.02-1.468h-.731a4.596 4.596 0 001.224 2.804c.322.351.839-.171.517-.517zm43.37-73.109l4.404 24.491c.083.464.79.269.707-.195l-4.403-24.486c-.084-.464-.79-.269-.708.19zm-65.482 9.173c2.59 11.036 5.18 22.068 7.764 33.104.108.464.78.264.707-.195-.141-.848-.282-1.697-.429-2.545-.078-.464-.785-.269-.707.195.142.848.283 1.697.43 2.545.233-.063.467-.131.706-.195a79168.44 79168.44 0 01-7.764-33.104c-.112-.458-.814-.263-.707.195zM47.18 306.18c.186 1.087.366 2.175.551 3.267.078.464.786.268.707-.195-.185-1.087-.365-2.175-.55-3.267-.079-.464-.786-.264-.708.195zm5.677 27.993c-.215-.488-.43-.97-.644-1.458-.146-.327-.717-.171-.683.185a51.715 51.715 0 002.79 12.309c.224-.092.444-.19.668-.282-.434-.717-.58-1.468-.434-2.244-.239.034-.478.064-.717.098.644 3.233 1.288 6.462 1.936 9.695.093.463.795.268.707-.195a5537.27 5537.27 0 00-1.936-9.695c-.087-.43-.682-.288-.717.097-.087 1.01.069 1.722.532 2.614.19.361.81.112.668-.283a51.1 51.1 0 01-2.765-12.119c-.23.064-.454.122-.683.186.215.487.43.97.644 1.458.195.434.824.063.634-.366zm-6.13-100.957a164.84 164.84 0 004.701 20.742c.132.448.839.258.707-.195a164.184 164.184 0 01-4.701-20.742c-.078-.463-.78-.263-.707.195zm54.119 31.998a440.21 440.21 0 004.74 32.026c.234-.063.468-.132.707-.195-.146-.668-.297-1.336-.444-2.009-.102-.459-.809-.264-.707.195.146.668.298 1.336.444 2.009.102.463.79.264.707-.195a437.836 437.836 0 01-4.716-31.831c-.054-.464-.785-.469-.731 0zm-78.294-54.587c.473 0 .473-.732 0-.732-.468 0-.473.732 0 .732z" fill="#000"/><path d="M22.552 210.627c.473 0 .473-.732 0-.732-.468 0-.473.732 0 .732zm-4.355-7.077c.473 0 .473-.731 0-.731-.468 0-.473.731 0 .731zm-.897.82c.18.907.36 1.814.546 2.721.092.463.8.268.707-.195-.18-.907-.361-1.814-.546-2.722-.093-.463-.8-.268-.708.196z" fill="#000"/><path d="M18.743 206.813c.473 0 .473-.732 0-.732s-.473.732 0 .732zm4.355 11.978c.473 0 .473-.732 0-.732s-.473.732 0 .732zm.542 5.442c.473 0 .473-.731 0-.731-.469 0-.469.731 0 .731zm8.71 38.108c.473 0 .473-.731 0-.731-.469 0-.469.731 0 .731zm-1.63-10.344c.474 0 .474-.731 0-.731-.472 0-.472.731 0 .731zm-2.18-8.71c.474 0 .474-.731 0-.731-.467 0-.472.731 0 .731zm-2.72-10.885c.473 0 .473-.732 0-.732-.474 0-.474.732 0 .732zm-.547-4.901c.473 0 .473-.732 0-.732-.468 0-.468.732 0 .732zm2.18 13.065c.473 0 .473-.732 0-.732s-.473.732 0 .732zm1.634 8.169c.473 0 .473-.732 0-.732s-.473.732 0 .732zm7.813 39.468c.546 2.18 1.087 4.355 1.633 6.535.113.459.82.264.708-.195-.547-2.18-1.088-4.355-1.634-6.535-.117-.453-.824-.258-.707.195zm4.16 16.601c.473 0 .473-.731 0-.731-.468 0-.468.731 0 .731zm3.267 15.792c.473 0 .473-.732 0-.732-.468 0-.468.732 0 .732zm1.815 11.065c.36 3.629.726 7.257 1.087 10.89.049.464.78.469.732 0-.361-3.628-.727-7.256-1.088-10.89-.049-.463-.78-.468-.731 0zm2.54 7.984c.473 0 .473-.732 0-.732-.468 0-.468.732 0 .732zm-.541-1.088c.473 0 .473-.731 0-.731s-.473.731 0 .731zm1.634 20.688c.473 0 .473-.732 0-.732s-.473.732 0 .732zm-7.081-33.207c.473 0 .473-.731 0-.731-.469 0-.469.731 0 .731zm.546-15.786c.473 0 .473-.732 0-.732s-.473.732 0 .732zm-2.18-8.71c.473 0 .473-.732 0-.732-.468 0-.468.732 0 .732zm-4.58-24.682c.547-.727 1.088-1.454 1.634-2.18.283-.376-.351-.742-.634-.371-.546.727-1.087 1.453-1.634 2.18-.282.381.352.746.634.371zm5.126-9.618c.473 0 .473-.731 0-.731-.468 0-.473.731 0 .731zm-3.268 2.722c.473 0 .473-.732 0-.732-.468 0-.468.732 0 .732zm7.077 0c.473 0 .473-.732 0-.732-.468 0-.468.732 0 .732zm4.999 2.711l5.989-2.18c.438-.161.248-.868-.196-.707l-5.988 2.18c-.44.161-.25.868.195.707zm6.437-5.433c.473 0 .473-.731 0-.731s-.473.731 0 .731zm.541-1.633c.473 0 .473-.732 0-.732-.468 0-.468.732 0 .732zm10.344-.542c.473 0 .473-.731 0-.731-.468 0-.468.731 0 .731zm7.174-1.648l8.71-2.721c.449-.142.259-.849-.195-.707l-8.71 2.721c-.444.141-.254.848.195.707zm5.892.015c.473 0 .473-.732 0-.732-.469 0-.469.732 0 .732zm9.802-6.535c.473 0 .473-.732 0-.732s-.473.732 0 .732z" fill="#000"/><path d="M90.604 256.899c.473 0 .473-.732 0-.732s-.473.732 0 .732zm-7.622 4.901c.473 0 .473-.732 0-.732-.474 0-.474.732 0 .732zm13.606-5.448c.473 0 .473-.731 0-.731-.468 0-.468.731 0 .731zm-9.251 3.268c.473 0 .473-.732 0-.732-.474 0-.474.732 0 .732zm-9.257 2.18c.473 0 .473-.732 0-.732-.468 0-.473.732 0 .732zm-12.519 5.442c.473 0 .473-.731 0-.731s-.473.731 0 .731zm-1.268 90.004v-2.18c0-.473-.731-.473-.731 0v2.18c0 .473.731.473.731 0zm-1.633-7.077v-1.087c0-.473-.732-.473-.732 0v1.087c0 .473.732.473.732 0zm-2.546-5.077c.473 0 .473-.731 0-.731-.468 0-.468.731 0 .731zm-1.088-7.076c.473 0 .473-.732 0-.732-.468 0-.468.732 0 .732zm.546-7.623c.473 0 .473-.731 0-.731s-.473.731 0 .731zm-3.54-3.55c.37-2.356.746-4.716 1.117-7.072.073-.458-.634-.658-.708-.195-.37 2.356-.746 4.716-1.116 7.072-.074.463.634.663.707.195zm-.815-12.782c.473 0 .473-.732 0-.732s-.473.732 0 .732zm-2.355-6.901v-2.721c0-.474-.732-.474-.732 0v2.721c0 .473.732.473.732 0zm-2-11.066c.473 0 .473-.731 0-.731s-.473.731 0 .731zm-1.634-8.71c.474 0 .474-.731 0-.731-.473 0-.473.731 0 .731zm-2.179-8.164c.473 0 .473-.731 0-.731-.469 0-.469.731 0 .731zm.546-9.797c.473 0 .473-.732 0-.732s-.473.732 0 .732zm-2.18-10.891c.473 0 .473-.731 0-.731-.468 0-.468.731 0 .731zm-2.175-10.343c.473 0 .473-.732 0-.732s-.473.732 0 .732zm-3.268-3.268c.473 0 .473-.732 0-.732-.468 0-.468.732 0 .732zm-1.824-5.906c-.18-.727-.36-1.453-.546-2.18-.112-.458-.82-.263-.707.195.18.727.36 1.453.546 2.18.117.458.82.263.707-.195zm-2.721-9.256c-.18-.727-.36-1.454-.546-2.18-.112-.459-.82-.264-.707.195.18.726.36 1.453.546 2.18.117.458.82.263.707-.195zm-3.077-4.98c.473 0 .473-.731 0-.731-.469 0-.469.731 0 .731z" fill="#000"/><path d="M34.53 229.134c.473 0 .473-.731 0-.731-.474 0-.474.731 0 .731zm-29.3-80.039l3.267-1.088c.444-.146.253-.853-.195-.707-1.088.361-2.18.727-3.268 1.088-.444.151-.253.858.195.707zm2.623-2.707c.473 0 .473-.731 0-.731-.468 0-.468.731 0 .731zm3.814-2.18c.473 0 .473-.731 0-.731s-.473.731 0 .731zm0-5.989c.473 0 .473-.731 0-.731s-.473.731 0 .731z" fill="#000"/><path d="M11.12 138.766c.474 0 .474-.732 0-.732-.472 0-.472.732 0 .732zm-1.268-.912v-.546c0-.191-.165-.376-.365-.366a.371.371 0 00-.366.366v.546c0 .19.166.375.366.365a.37.37 0 00.365-.365zm1.268-5.623c.474 0 .474-.732 0-.732-.472 0-.472.732 0 .732zm-3.58-3.224c2.171-1.102 4.341-2.209 6.512-3.311.419-.215.048-.844-.371-.634-2.17 1.102-4.34 2.209-6.51 3.311-.42.215-.05.844.37.634z" fill="#000"/><path d="M13.94 125.686l4.354-1.634c.44-.166.25-.873-.195-.707-1.453.546-2.901 1.087-4.355 1.634-.434.165-.248.873.195.707zm10.792-4.341c.473 0 .473-.731 0-.731s-.473.731 0 .731zm-8.076 4.331c2.911-.883 5.818-1.77 8.73-2.653.448-.136.258-.844-.196-.707-2.911.883-5.818 1.77-8.73 2.653-.448.137-.253.844.196.707z" fill="#000"/><path d="M24.732 123.52c.473 0 .473-.731 0-.731s-.473.731 0 .731zm9.798-3.262c.473 0 .473-.732 0-.732-.474 0-.474.732 0 .732zm-23.639 4.716c.546-.907 1.088-1.814 1.634-2.722.244-.404-.39-.77-.634-.37-.546.907-1.088 1.814-1.634 2.721-.239.405.39.776.634.371zm1.863-4.175c.473 0 .473-.731 0-.731s-.473.731 0 .731zm.542-3.809c.473 0 .473-.731 0-.731-.469 0-.469.731 0 .731zm4.354-8.168c.474 0 .474-.732 0-.732-.467 0-.467.732 0 .732zm1.635-6.531c.473 0 .473-.731 0-.731-.469 0-.469.731 0 .731zm.726 7.257c-.18 1.634-.36 3.268-.546 4.901-.054.469.678.464.731 0 .18-1.633.361-3.267.547-4.901.048-.468-.683-.463-.732 0zm-2.361.907c.474 0 .474-.731 0-.731-.467 0-.467.731 0 .731zm.337-16.147a18.79 18.79 0 00-1.634-6.184c-.195-.43-.824-.058-.634.37a17.726 17.726 0 011.537 5.814c.039.463.77.468.731 0zm-3.599-8.349c.473 0 .473-.732 0-.732s-.473.732 0 .732zm-1.092-5.989c.473 0 .473-.732 0-.732-.469 0-.469.732 0 .732zm-.903-6.038c.361-.18.727-.36 1.088-.546.42-.21.049-.844-.37-.634-.362.18-.727.36-1.088.546-.42.215-.049.844.37.634zm7.437-3.76c.474 0 .474-.731 0-.731-.472 0-.472.731 0 .731zm5.99-1.634c.473 0 .473-.731 0-.731-.474 0-.474.731 0 .731zm4.9-.546c.474 0 .474-.731 0-.731-.472 0-.472.731 0 .731z" fill="#000"/><path d="M30.72 67.992c.474 0 .474-.731 0-.731-.472 0-.472.731 0 .731zm-9.256.546c.473 0 .473-.731 0-.731s-.473.731 0 .731zm-.546-6.535c.473 0 .473-.731 0-.731-.468 0-.468.731 0 .731zm-2.541-30.851v1.634c0 .473.732.473.732 0v-1.634c0-.468-.732-.468-.732 0zm1.088 9.256v4.902c0 .473.731.473.731 0v-4.902c0-.473-.731-.473-.731 0zm-.532 10.247c-.18.727-.36 1.453-.546 2.18-.112.458.59.653.707.195.18-.727.361-1.453.546-2.18.113-.459-.595-.654-.707-.195zm-2.37 9.173c.473 0 .473-.731 0-.731-.468 0-.468.731 0 .731zm1.985 6.262c.18-.546.36-1.087.546-1.633.151-.45-.556-.64-.707-.195-.18.546-.36 1.087-.546 1.633-.146.449.56.644.707.195zm2.195-10.983v-2.72c0-.474-.732-.474-.732 0v2.72c0 .469.732.474.732 0zm-.366-6.169c.473 0 .473-.731 0-.731s-.473.731 0 .731zm2.721 5.989c.473 0 .473-.732 0-.732s-.473.732 0 .732zm7.077 34.84c.473 0 .473-.731 0-.731-.474 0-.474.731 0 .731zm-8.077 58.211c1.454-.366 2.902-.726 4.355-1.092.459-.117.264-.82-.195-.707-1.453.365-2.901.726-4.355 1.092-.458.112-.263.819.195.707zm9.71-4.311c.473 0 .473-.732 0-.732s-.473.732 0 .732zm15.241-2.18c.473 0 .473-.732 0-.732-.469 0-.469.732 0 .732zm7.622-1.634c.473 0 .473-.731 0-.731-.468 0-.473.731 0 .731z" fill="#000"/><path d="M54.13 138.58h-3.81c-.472 0-.472.732 0 .732h3.81c.468 0 .468-.732 0-.732zm-8.808 1.644c-1.814.361-3.628.726-5.443 1.087-.463.093-.268.8.196.707 1.814-.36 3.628-.726 5.442-1.087.459-.093.264-.8-.195-.707zm-9.705.717c.473 0 .473-.732 0-.732-.468 0-.468.732 0 .732z" fill="#000"/><path d="M39.972 141.487c.473 0 .473-.732 0-.732-.468 0-.468.732 0 .732zm4.355-5.443c.473 0 .473-.731 0-.731-.468 0-.468.731 0 .731zm-1.633 5.443c.473 0 .473-.732 0-.732-.469 0-.469.732 0 .732zm23.955-12.519c.473 0 .473-.731 0-.731s-.473.731 0 .731zm5.989 14.699c.473 0 .473-.732 0-.732-.474 0-.474.732 0 .732zm.546 2.175c.473 0 .473-.732 0-.732s-.473.732 0 .732zm-1.634-1.634c.473 0 .473-.731 0-.731s-.473.731 0 .731zm1.278 8.442c.18.546.36 1.088.546 1.634.146.444.853.254.707-.195-.18-.546-.36-1.088-.546-1.634-.151-.444-.853-.253-.707.195zm1.985 9.525c.473 0 .473-.732 0-.732-.469 0-.469.732 0 .732zm.195 5.174c.36 1.453.726 2.902 1.087 4.355.112.459.82.264.707-.195-.36-1.453-.726-2.902-1.087-4.355-.117-.454-.824-.263-.707.195zm2.531 5.711c.473 0 .473-.732 0-.732s-.473.732 0 .732zm-9.803 27.223c.473 0 .473-.732 0-.732-.468 0-.468.732 0 .732zM54.13 228.588c.473 0 .473-.731 0-.731s-.473.731 0 .731zm2.721 13.07c.473 0 .473-.731 0-.731s-.473.731 0 .731zm1.088 8.164c.473 0 .473-.731 0-.731s-.473.731 0 .731zm.181 6.711v4.355c0 .473.73.473.73 0v-4.355c0-.468-.73-.473-.73 0zm3.086 16.698c.473 0 .473-.731 0-.731s-.473.731 0 .731zm3.809 14.153c.473 0 .473-.731 0-.731-.468 0-.473.731 0 .731zm3.267 17.42c.474 0 .474-.731 0-.731-.472 0-.472.731 0 .731zm3.99 21.956c.36 2.722.727 5.443 1.087 8.164.064.459.795.468.732 0-.36-2.721-.727-5.442-1.088-8.164-.063-.458-.794-.463-.731 0zm3.087-5.077c.473 0 .473-.731 0-.731s-.473.731 0 .731zM92.78 214.436c.472 0 .472-.732 0-.732-.469 0-.474.732 0 .732zm1.823 6.266c.18.547.361 1.088.546 1.634.147.444.854.254.707-.195-.18-.546-.36-1.087-.546-1.634-.146-.443-.853-.253-.707.195zm3.619 8.979c.473 0 .473-.732 0-.732-.468 0-.468.732 0 .732zm2.18 9.251c.473 0 .473-.731 0-.731s-.473.731 0 .731zm2.721 13.611c.473 0 .473-.731 0-.731-.468 0-.473.731 0 .731zm1.634 8.165c.473 0 .473-.732 0-.732s-.473.732 0 .732zm3.458 16.064c.18.727.36 1.453.546 2.18.112.458.819.263.707-.195-.181-.727-.361-1.453-.546-2.18-.117-.454-.82-.263-.707.195zm2.531 12.246c.473 0 .473-.732 0-.732s-.473.732 0 .732zm3.267 12.524c.473 0 .473-.732 0-.732s-.473.732 0 .732zm1.088 4.896c.473 0 .473-.731 0-.731s-.473.731 0 .731zm2.721 9.803c.473 0 .473-.732 0-.732s-.473.732 0 .732zm-1.087 1.629c.473 0 .473-.732 0-.732-.474 0-.474.732 0 .732zm-6.536-11.973c.473 0 .473-.732 0-.732-.468 0-.468.732 0 .732zM82.06 222.453c.185.361.37.722.55 1.083.216.419.845.049.635-.371-.185-.361-.37-.722-.551-1.083-.215-.419-.849-.048-.634.371zm4.73 13.758c.473 0 .473-.732 0-.732-.468 0-.468.732 0 .732zm1.088 6.535c.473 0 .473-.732 0-.732-.468 0-.468.732 0 .732zm0 10.885c.473 0 .473-.732 0-.732-.468 0-.468.732 0 .732zm2.726 12.524c.473 0 .473-.732 0-.732s-.473.732 0 .732zm3.263 13.065c.473 0 .473-.731 0-.731-.468 0-.468.731 0 .731zm3.267 14.153c.473 0 .473-.732 0-.732-.468 0-.473.732 0 .732zm2.18 9.256c.473 0 .473-.731 0-.731s-.473.731 0 .731zm-14.158-21.775c.474 0 .474-.732 0-.732-.468 0-.468.732 0 .732zM39.43 228.588c.474 0 .474-.731 0-.731-.472 0-.472.731 0 .731zm10.345-3.262c.473 0 .473-.732 0-.732s-.473.732 0 .732zm5.984-2.722c.473 0 .473-.731 0-.731-.468 0-.468.731 0 .731zm11.534-3.828c.907-.181 1.814-.361 2.72-.546.464-.093.27-.8-.194-.707-.907.18-1.814.36-2.722.546-.463.097-.268.8.196.707zm5.891-1.619c.473 0 .473-.732 0-.732s-.473.732 0 .732zm10.339-2.175c.473 0 .473-.732 0-.732-.468 0-.468.732 0 .732z" fill="#000"/><path d="M70.458 218.249c.473 0 .473-.731 0-.731-.468 0-.468.731 0 .731zm-14.153 4.355c.473 0 .473-.731 0-.731-.468 0-.473.731 0 .731zm-11.978-40.288c.473 0 .473-.731 0-.731-.468 0-.468.731 0 .731zm-6.53-3.267c.473 0 .473-.732 0-.732s-.473.732 0 .732zm-5.091-4.819c-.18-.546-.361-1.087-.547-1.633-.146-.444-.853-.254-.707.195.18.546.361 1.087.546 1.633.147.444.854.254.708-.195zm.19-8.788c.473 0 .473-.731 0-.731-.468 0-.473.731 0 .731zm3.267-5.989c.474 0 .474-.731 0-.731-.473 0-.473.731 0 .731zm-1.443 10.076c.18.907.36 1.814.546 2.721.093.464.8.269.707-.195-.18-.907-.36-1.814-.546-2.721-.093-.463-.8-.268-.707.195zm7.432 8.978c.473 0 .473-.731 0-.731s-.473.731 0 .731zm6.53 2.722c.473 0 .473-.732 0-.732-.468 0-.468.732 0 .732zm-3.267 78.937c.473 0 .473-.732 0-.732-.468 0-.468.732 0 .732zm-2.175-9.256c.473 0 .473-.732 0-.732s-.473.732 0 .732zm-.737-8.627c-.18-.547-.36-1.088-.546-1.634-.146-.444-.853-.254-.707.195.18.546.36 1.087.546 1.634.151.443.858.253.707-.195zm-2.531-8.247c.473 0 .473-.732 0-.732-.468 0-.468.732 0 .732zm-2.623-5.077c-.547-.18-1.088-.361-1.634-.546-.449-.151-.64.556-.195.707.546.18 1.087.361 1.633.546.45.151.64-.556.196-.707zm-3.366-4.18c.473 0 .473-.731 0-.731-.468 0-.468.731 0 .731zm-1.087 2.722c.473 0 .473-.732 0-.732-.468 0-.473.732 0 .732zm-3.809-9.798c.473 0 .473-.732 0-.732s-.473.732 0 .732zm-1.634 1.634c.473 0 .473-.732 0-.732s-.473.732 0 .732zm1.634-9.803c.473 0 .473-.731 0-.731s-.473.731 0 .731zm-1.634-2.175c.473 0 .473-.731 0-.731s-.473.731 0 .731zm10.344 35.928c.473 0 .473-.731 0-.731s-.473.731 0 .731zm-2.721 15.792c.473 0 .473-.732 0-.732s-.473.732 0 .732zm-1.444 4.086c1.995 11.798 3.994 23.59 5.99 35.387.077.463.784.268.706-.195-1.994-11.797-3.994-23.589-5.989-35.387-.078-.463-.785-.268-.707.195zM23.64 203.55c.473 0 .473-.731 0-.731-.469 0-.469.731 0 .731zm23.218 134.003c-.546-2.902-1.087-5.809-1.633-8.711-.088-.463-.79-.268-.708.196.547 2.901 1.088 5.808 1.634 8.71.088.458.795.263.707-.195zm.737-.63c.473 0 .473-.731 0-.731s-.473.731 0 .731zm-2.722-15.24c.474 0 .474-.731 0-.731-.473 0-.473.731 0 .731zm3.809-5.989c.473 0 .473-.731 0-.731-.468 0-.468.731 0 .731zm5.989 14.699c.473 0 .473-.731 0-.731-.468 0-.473.731 0 .731zm-1.087 5.989c.473 0 .473-.731 0-.731s-.473.731 0 .731zm-1.088-11.431c.473 0 .473-.732 0-.732s-.473.732 0 .732zm-4.452-10.359c.907.181 1.814.361 2.72.547.46.092.66-.615.196-.708-.907-.18-1.814-.36-2.721-.546-.464-.092-.659.615-.195.707zm12.07 10.9c.473 0 .473-.731 0-.731-.468 0-.468.731 0 .731zm-4.545-14.616c-1.454-6.35-2.902-12.704-4.356-19.054-.107-.459-.81-.263-.707.195 1.454 6.35 2.902 12.704 4.355 19.054.108.458.815.263.708-.195zm4.003-14.236c.473 0 .473-.731 0-.731s-.473.731 0 .731zm5.443 52.807c.473 0 .473-.731 0-.731-.468 0-.473.731 0 .731zm-2.175-9.256c.473 0 .473-.731 0-.731s-.473.731 0 .731zm-2.18-6.53c.473 0 .473-.732 0-.732-.468 0-.473.732 0 .732zm-1.634-3.814c.473 0 .473-.731 0-.731-.468 0-.468.731 0 .731zm-1.634-10.344c.473 0 .473-.731 0-.731-.468 0-.468.731 0 .731z" fill="#000"/><path d="M54.13 306.984c.473 0 .473-.731 0-.731s-.473.731 0 .731zm-2.18-5.442c.473 0 .473-.732 0-.732-.468 0-.473.732 0 .732zm-1.824-15.163c-.18-1.087-.361-2.18-.546-3.267-.078-.464-.78-.268-.707.195.18 1.087.36 2.18.546 3.267.078.464.785.264.707-.195zm-1.444-10.426c.473 0 .473-.732 0-.732-.468 0-.468.732 0 .732zm-1.277-9.72c-.547-2.541-1.088-5.082-1.634-7.623-.098-.458-.805-.263-.707.196.546 2.54 1.087 5.081 1.633 7.622.098.463.805.268.708-.195zm.736 3.19c.473 0 .473-.732 0-.732s-.473.732 0 .732zm0 17.42c.473 0 .473-.732 0-.732s-.473.732 0 .732zm-4.355-38.654c.473 0 .473-.732 0-.732s-.473.732 0 .732zm5.252 81.741c-.36-.907-.726-1.814-1.087-2.721-.17-.434-.883-.244-.707.195.36.907.726 1.814 1.087 2.721.17.429.878.244.707-.195zm-2.531-5.525c.473 0 .473-.732 0-.732s-.473.732 0 .732zm-1.634-9.257c.474 0 .474-.731 0-.731-.473 0-.473.731 0 .731zm-2.179-14.699c.473 0 .473-.731 0-.731-.469 0-.469.731 0 .731zm.546 2.18c.473 0 .473-.731 0-.731s-.473.731 0 .731zm-2.18-8.71c.473 0 .473-.731 0-.731-.468 0-.468.731 0 .731zm.195 11.163c.546 3.809 1.087 7.623 1.634 11.432.068.463.77.268.707-.195-.546-3.809-1.088-7.623-1.634-11.432-.068-.463-.775-.268-.707.195z" fill="#000"/><path d="M42.694 312.973c.473 0 .473-.731 0-.731-.469 0-.469.731 0 .731zm2.721 22.863c.473 0 .473-.732 0-.732-.468 0-.468.732 0 .732zm2.18 3.268c.473 0 .473-.732 0-.732s-.473.732 0 .732zm0 9.256c.473 0 .473-.732 0-.732s-.473.732 0 .732zm.546 11.431c.473 0 .473-.731 0-.731s-.473.731 0 .731z" fill="#000"/><path d="M48.141 359.791c.473 0 .473-.731 0-.731s-.473.731 0 .731zm2.175-11.977c.473 0 .473-.732 0-.732-.468 0-.473.732 0 .732zm5.184-2.288l2.18 2.722c.293.365.81-.152.517-.517l-2.18-2.722c-.292-.365-.805.156-.517.517zm-1.37-5.335c.473 0 .473-.731 0-.731s-.473.731 0 .731zm-5.989-20.142c.473 0 .473-.731 0-.731s-.473.731 0 .731zm.541-16.332c.473 0 .473-.732 0-.732-.468 0-.468.732 0 .732z" fill="#000"/><path d="M49.594 304.985l-2.18-26.677c-.039-.468-.77-.468-.731 0l2.18 26.677c.039.463.77.468.731 0zm12.154 46.096c.473 0 .473-.731 0-.731-.469 0-.469.731 0 .731zm-8.164-47.364c.473 0 .473-.732 0-.732s-.473.732 0 .732zm4.901 27.764c.473 0 .473-.731 0-.731s-.473.731 0 .731zm-20.337-83.756l-2.721-8.164c-.146-.444-.853-.253-.707.195l2.721 8.164c.151.444.858.254.707-.195zm-.351-2.258c.473 0 .473-.731 0-.731s-.473.731 0 .731z" fill="#000"/><path d="M38.626 242.122l-2.721 2.721c-.332.331.185.848.517.517l2.721-2.722c.332-.336-.185-.853-.517-.516zm-.288-1.556c.473 0 .473-.732 0-.732-.468 0-.468.732 0 .732zm-2.721-9.798c.473 0 .473-.731 0-.731-.468 0-.468.731 0 .731zm.356-1.551l-2.721-9.797c-.127-.454-.834-.259-.707.195l2.721 9.797c.127.454.83.259.707-.195zm-3.623 2.097c.473 0 .473-.731 0-.731-.469 0-.469.731 0 .731zm-.542-15.245c.473 0 .473-.731 0-.731s-.473.731 0 .731zm-10.89-11.431c.473 0 .473-.732 0-.732-.468 0-.468.732 0 .732zm1.634 3.267c.473 0 .473-.731 0-.731-.468 0-.473.731 0 .731zm7.623 12.519c.473 0 .473-.731 0-.731-.474 0-.474.731 0 .731zm0 5.443c.473 0 .473-.732 0-.732-.474 0-.474.732 0 .732zm-9.798-27.764c.473 0 .473-.732 0-.732s-.473.732 0 .732zm4.355-1.634c.473 0 .473-.732 0-.732s-.473.732 0 .732zm3.808-2.175c.474 0 .474-.732 0-.732-.467 0-.472.732 0 .732zm-1.633 1.634c.473 0 .473-.732 0-.732-.468 0-.473.732 0 .732zm-3.267 0c.473 0 .473-.732 0-.732-.469 0-.469.732 0 .732zm-.259-5.55l.546.546c.137.137.386.146.517 0 .132-.146.146-.371 0-.517l-.546-.546c-.137-.137-.385-.147-.517 0a.378.378 0 000 .517zm.805-8.608c.473 0 .473-.731 0-.731s-.473.731 0 .731zm-2.722-8.164c.473 0 .473-.731 0-.731s-.473.731 0 .731zm-1.634-4.355c.474 0 .474-.732 0-.732-.472 0-.472.732 0 .732zm-2.18-8.71c.474 0 .474-.732 0-.732-.467 0-.467.732 0 .732zm-1.628-7.076c.473 0 .473-.732 0-.732s-.473.732 0 .732zm-2.18-5.443c.473 0 .473-.732 0-.732-.468 0-.473.732 0 .732zm-1.088 1.629c.473 0 .473-.732 0-.732s-.473.732 0 .732zm2.57 41.444c-.185-.542-.37-1.088-.556-1.629-.15-.444-.858-.254-.707.195.186.541.37 1.088.556 1.629.156.444.859.253.707-.195zm-3.116-14.767c.473 0 .473-.732 0-.732-.468 0-.468.732 0 .732zm-2.721-6.531c.473 0 .473-.731 0-.731-.468 0-.473.731 0 .731zM8.4 167.076c.472 0 .472-.732 0-.732-.474 0-.474.732 0 .732zm-.723-6.901v-1.087c0-.473-.731-.473-.731 0v1.087c0 .473.731.473.731 0zm-.912-2.901c.474 0 .474-.732 0-.732-.473 0-.473.732 0 .732zm11.432-10.345c.473 0 .473-.731 0-.731-.468 0-.473.731 0 .731zm-8.71 0h1.633c.474 0 .474-.731 0-.731H9.488c-.468 0-.473.731 0 .731zm13.065-3.808c.473 0 .473-.732 0-.732-.468 0-.473.732 0 .732zm5.988 0c.474 0 .474-.732 0-.732-.467 0-.472.732 0 .732zm6.633-.556c.546-.181 1.088-.361 1.634-.547.444-.146.254-.853-.195-.707-.546.181-1.088.361-1.634.547-.449.146-.253.853.195.707zm5.887-1.078c.473 0 .473-.732 0-.732-.468 0-.468.732 0 .732z" fill="#000"/><path d="M37.25 142.033c.474 0 .474-.731 0-.731-.467 0-.472.731 0 .731zm-1.633-.546c.473 0 .473-.732 0-.732-.468 0-.468.732 0 .732zm4.999-2.19c1.814-.361 3.628-.726 5.443-1.087.463-.093.268-.8-.195-.707-1.815.361-3.629.726-5.443 1.087-.463.093-.268.8.195.707zm-.098-8.7c.474 0 .474-.732 0-.732-.473 0-.473.732 0 .732zm-.546-1.088c.473 0 .473-.731 0-.731-.468 0-.468.731 0 .731zm-25.399-10.392c.361-.181.727-.361 1.088-.546.42-.21.049-.844-.37-.634-.362.18-.727.36-1.088.546-.42.214-.054.843.37.634zm12.334-1.585c.473 0 .473-.732 0-.732-.468 0-.473.732 0 .732zm6.535-1.629c.473 0 .473-.732 0-.732s-.473.732 0 .732zm7.715-2.736c.907-.181 1.815-.361 2.722-.546.463-.093.268-.8-.195-.708-.907.181-1.815.361-2.722.547-.458.092-.263.8.195.707zm6.438-2.166c.473 0 .473-.731 0-.731s-.473.731 0 .731zm-4.901 0c.473 0 .473-.731 0-.731-.469 0-.469.731 0 .731zm-8.164 2.722c.473 0 .473-.732 0-.732-.474 0-.474.732 0 .732zm-12.524 2.18c.473 0 .473-.732 0-.732-.468 0-.468.732 0 .732zm-6.53 6.53c.473 0 .473-.732 0-.732-.474 0-.474.732 0 .732z" fill="#000"/><path d="M14.93 122.433c.472 0 .472-.732 0-.732-.469 0-.469.732 0 .732zm5.081-73.861v.547c0 .19.166.375.366.365.2-.01.366-.16.366-.365v-.547c0-.19-.166-.375-.366-.365-.2.01-.366.16-.366.365zm4.721 12.344c.473 0 .473-.732 0-.732s-.473.732 0 .732zm.829 5.881l.546.547c.137.136.385.146.517 0 .132-.147.146-.371 0-.517l-.546-.547c-.137-.136-.385-.146-.517 0a.368.368 0 000 .517zm1.346 2.288c.473 0 .473-.732 0-.732-.468 0-.473.732 0 .732zm-5.443-5.448c.473 0 .473-.731 0-.731s-.473.731 0 .731zm.542 10.344c.473 0 .473-.731 0-.731-.468 0-.468.731 0 .731zm-4.896-4.896c.472 0 .472-.732 0-.732-.474 0-.474.732 0 .732zm3.267 25.038c.473 0 .473-.732 0-.732s-.473.732 0 .732zm.858 7.617c-.18-.361-.36-.726-.546-1.087-.21-.42-.844-.049-.634.37.18.361.36.727.546 1.088.215.419.844.049.634-.371zm-1.95 4.907c.473 0 .473-.732 0-.732-.469 0-.469.732 0 .732zm5.447-4.356c.473 0 .473-.731 0-.731s-.473.731 0 .731z" fill="#000"/></svg>