<svg width="62" height="320" fill="none" xmlns="http://www.w3.org/2000/svg"><path d="M17.787 184.999l9.528-.515 17.625-.228.016-.001h.016l9.645-.439.228-.011.2-.108 2.43-1.307 1.484-.8-1.414-.919-2.416-1.572-1.445-2.852-.114-.224-.206-.144-1.983-1.384-.263-.183-.32.003-7.537.083.12-.782 9.694-35.318.726-.818.543-.612-.492-.653-2.738-3.636-.203-.27-.324-.091-9.451-2.672-.048-.014-.049-.009-8.465-1.508-.1-.017-.103.002-6.24.172-.109.003-.106.027-7.275 1.823-.165.041-.142.094-7.284 4.8-.363.239-.073.429-.6 3.531-.057.334.159.301 3.74 7.076 4.649 10.062 2.643 7.879v.002l.905 2.677 1.325 7.499-11.085.895-1.217.098.336 1.174.898 3.133.907 3.352.167.614.627.11 3.55.62.112.02.114-.006z" fill="#fff" stroke="#fff" stroke-width="2"/><path d="M34.056 183.948v-.006c0-.512.209-.965.57-1.276a1.748 1.748 0 011.142-.416c.384 0 .804.123 1.143.416.36.311.569.762.57 1.273m-3.425.009l2.425-.006m-2.425.006c.128 22.09.253 44.189.379 66.287.126 22.224.252 44.447.38 66.657v.005c.006.513.222.96.58 1.266.338.288.755.41 1.137.412.382.001.804-.119 1.146-.415.363-.313.567-.769.563-1.281m-4.185-132.931l3.185 132.939m.24-132.948v.003h-1m1-.003v-.003l-1 .006m1-.003c.128 22.21.255 44.432.38 66.655.127 22.097.252 44.196.38 66.285m-1.76-132.937c.128 22.217.255 44.437.381 66.658.125 22.094.251 44.19.379 66.287m1-.008v-.003l-1 .011m1-.008v.002l-1 .006" fill="#000" stroke="#fff" stroke-width="2"/><path d="M52.602 180.739a6.06 6.06 0 01-.486-.664c-.394-.62-.689-1.307-.954-1.981-.093-.238-.182-.47-.27-.702l-.175-.457a270.032 270.032 0 00-35.726 1.2c.091.199.175.41.252.636l-.946.363c.008.096.038.348.074.66l.034.292a1.003 1.003 0 00.889-.95v-.07h0v-.018l.003.043a23.068 23.068 0 00.067.584c.023.199.05.425.074.648.038.335.075.679.098.938.033.017.072.034.118.053.23.093.553.176.97.239.833.127 1.898.156 3.042.131a70.368 70.368 0 003.693-.2c.876-.062 1.664-.118 2.182-.12h.003a544 544 0 0013.637-.199l13.42-.426zm0 0c-.379.047-.782.083-1.2.109-.937.058-1.907.067-2.778.065l-.654-.003a37.525 37.525 0 00-1.513.008h0c-2.43.095-4.849.18-7.276.247l13.42-.426zm-38.045.974c.012-.091-.027-.505-.079-.979l.034-.002a.999.999 0 01.496.112l-.451.869zm37.208-8.17A271.94 271.94 0 0012.135 175l-.42-.33-.165.395-.015.001c-.64.071-1.167.507-1.425.998-.14.265-.237.612-.18.996.048.331.202.625.432.858l-.315.752 1.12-.126c.433.389.701.814.844 1.27.2.64.188 1.46-.149 2.511h0l-.002.006c-.286.91.265 1.59.667 1.9h0l.005.004c.665.505 1.577.72 2.44.821.895.106 1.903.105 2.885.064a68.151 68.151 0 002.852-.198c.889-.074 1.613-.132 2.118-.132 4.864.01 9.737-.047 14.6-.161 4.861-.115 9.736-.277 14.594-.534h.002c.184-.01.375-.018.57-.026.815-.035 1.7-.072 2.488-.272.745-.189 1.44-.524 2.047-1.107l1.16.144-.52-.9a5.23 5.23 0 00.106-.162 1.61 1.61 0 00-.009-1.796 1.897 1.897 0 00-1.319-.809h0l-.008-.001a1.33 1.33 0 01-.454-.148l-.243-.42-.112.175c-.31-.265-.624-.664-.94-1.21-.43-.74-.756-1.55-1.057-2.297-.106-.262-.209-.517-.312-.758l-.001-.004c-.203-.471-.588-.821-1.089-.936a1.572 1.572 0 00-.565-.025z" fill="#000" stroke="#fff" stroke-width="2"/><path d="M43.332 170.46l9.549-34.002c.247-.884-1.131-1.264-1.378-.38l-9.549 34.001c-.247.885 1.131 1.265 1.378.381zm7.058-38.052c-13.796-4.783-28.428-7.854-39.83 3.603-.341.342-.237 1.113.314 1.189 11.8 1.683 23.62 1.892 35.468.561.903-.105.912-1.531 0-1.427-11.715 1.313-23.42 1.16-35.088-.513l.314 1.189c11.012-11.078 25.207-7.826 38.442-3.243.864.323 1.244-1.055.38-1.359zm-39.496 7.217a121.56 121.56 0 0111.62 27.811c.247.884 1.625.504 1.378-.38a122.336 122.336 0 00-11.762-28.154c-.457-.799-1.692-.076-1.236.723z" fill="#000"/><path d="M15.612 124.949c-4.589-3.005-10.147-4.906-13.102-9.527-4.513-7.055-2.47-16.716 2.404-23.524 4.874-6.808 12.038-11.524 18.698-16.592 6.66-5.067 13.216-11 15.924-18.921 4.637-13.568-3.22-27.812-6.584-41.75l6.404 25.434c3.933 10.26 10.061 19.501 14.974 29.333 4.912 9.822 8.684 20.728 7.363 31.634-1.463 11.99-8.865 22.392-16.922 31.386 0-.009-8.256 6.2-29.159-7.473z" fill="#D3DA17"/><path d="M21.113 45.85C31.81 31.426 3.05 13.056 17.92 1.218c.722-.57-.294-1.578-1.007-1.008-15.743 12.542 13.35 30.93 2.965 44.927-.551.722.693 1.435 1.235.713z" fill="#D9E021"/><path d="M13.805.001c-6.793.39-9.643 7.398-7.81 13.35 3.174 10.316 16.903 14.928 15.83 26.87-.086.913 1.339.913 1.425 0 .56-6.228-2.87-10.991-6.946-15.318-2.774-2.938-5.862-5.667-7.781-9.28-2.765-5.23-2.186-13.768 5.292-14.186.902-.057.912-1.483-.01-1.436z" fill="#D9E021"/><path d="M29.359 124.017c-4.637-4.801-7.592-11.001-2.28-16.62 3.04-3.223 6.631-5.914 9.681-9.156 4.152-4.403 10.433-10.412 8.086-17.04-.304-.855-1.682-.484-1.378.381 2.176 6.171-4.409 12.209-8.285 16.25-3.211 3.347-7.23 6.085-10.128 9.689-4.855 6.037-1.435 12.608 3.287 17.504.646.666 1.653-.351 1.017-1.008zm6.243-2.415c8.048-7.15 12.143-17.485 11.155-28.22-.086-.904-1.51-.913-1.425 0 .96 10.383-2.936 20.281-10.737 27.203-.684.618.324 1.626 1.008 1.017z" fill="#000"/></svg>