<svg width="63" height="341" fill="none" xmlns="http://www.w3.org/2000/svg"><path d="M20.477 208.229l.359.488.599-.093 7.304-1.128 7.013-.241 7.436 1.303 3.189.684.022.005.023.004 1.629.271.73.122.33-.664.594-1.197.106-.215-.002-.239-.102-9.806-.004-.395-.273-.285-.933-.976-.336-.352-.483.047-12.91 1.25-.236-4.282 1.334-.139.054-.006.053-.011 5.471-1.18.139-.03.125-.067 5.064-2.725.204-.11.135-.189 1.926-2.691.104-.146.048-.174 5.912-21.758.006-.021.005-.023 1.57-7.02.02-.094.003-.096.043-1.485.005-.196-.069-.184-1.297-3.464-.077-.204-.154-.153-3.258-3.243-.152-.151-.2-.076-5.302-2.003-.123-.047-.132-.013-7.745-.764-.056-.006-.056.001-9.068.127-.055.001-.055.007-8.135 1.01-.111.014-.106.038-7.338 2.657-.099.036-.09.056-4.597 2.87-.314.195-.11.352-.807 2.556-.113.36.153.345 1.798 4.066.016.037.02.035 4.802 8.854 3.008 7.978 1.469 4.286 1.547 5.652.323 3.236.034.344.24.249 1.264 1.316.204.213.288.068 5.522 1.299h0l.012.002 2.368.529.447 3.187-.148 1.318-8.073.608-.118.009-.113.036-2.74.883-.332.107-.194.291-.95 1.426-.236.354.092.416.95 4.304.046.206.125.171 1.519 2.063z" fill="#fff" stroke="#fff" stroke-width="2"/><path d="M45.348 207.56c-5.362-1.69-11.18-1.995-16.763-1.698-1.476.076-6.828 1.426-7.82.518-.28-.255-.892-2.692-1.01-3.167-.662-2.598-.67-2.623 1.145-3.175 3.843-1.163 8.856-.985 12.877-1.392 4.089-.416 8.347-.416 12.393-1.061a3.568 3.568 0 001.841-.416v1.103c.738 1.528-.186 4.873-.042 6.596-.23.96-.085 1.851.424 2.666h-1.154c-.585.161-1.45 0-2.07 0-.822 0-.822 1.273 0 1.273h3.41a.64.64 0 00.637-.636c.025-3.795.05-7.598.068-11.393 0-.331-.297-.662-.637-.636-9.992.67-19.943 1.68-29.868 3.013-.288.043-.441.365-.466.611-.28 2.895 1.11 5.035 1.221 7.861.017.425.39.705.806.612 7.88-1.766 16.906-1.902 24.668.534.78.264 1.111-.967.34-1.213z" fill="#000"/><path d="M39.587 337.913v.004c.01.488-.181.93-.532 1.236a1.66 1.66 0 01-1.095.399 1.693 1.693 0 01-1.082-.391 1.595 1.595 0 01-.563-1.201m3.272-.047l-2.272.024m2.272-.024v-.005c-1.07-43.811-2.138-87.622-3.198-131.434h0v-.007c-.034-1.078-.938-1.58-1.652-1.583a1.653 1.653 0 00-1.097.402c-.35.309-.537.753-.523 1.24m6.47 131.387l-5.47-131.414m2.198 131.461v-.002l1-.021m-1 .023v.001l1-.024m-1 .023c-1.06-43.808-2.13-87.617-3.198-131.425v-.009m4.198 131.411c-1.06-43.809-2.13-87.619-3.198-131.429v-.009m-1 .027v.004l1-.031m-1 .027v-.003l1-.024" fill="#000" stroke="#fff" stroke-width="2"/><path d="M29.544 189.588a18.177 18.177 0 011.425 7.649c-.025.823 1.247.815 1.273 0a18.983 18.983 0 00-1.468-7.988c-.314-.748-1.544-.416-1.23.339zm2.868 1.409c.678 2.038.89 4.101.653 6.232-.093.815 1.179.806 1.272 0a15.147 15.147 0 00-.695-6.571c-.263-.773-1.485-.442-1.23.339z" fill="#000"/><path d="M21.944 188.009l-.178-.28c-.195-.306-.552-.391-.874-.229-.127.067-.263.127-.39.195-.238.119-.382.467-.289.721 1.239 3.447 9.306 3.948 12.318 3.922 5.742-.051 11.087-2.071 15.532-5.67.636-.518-.272-1.41-.9-.9-3.85 3.115-8.457 4.957-13.42 5.255-2.163.127-4.343-.017-6.464-.493a22.07 22.07 0 01-2.332-.653c1.018.339-4.445-1.758-4.106-1.223.45.688 1.544.051 1.103-.645z" fill="#000"/><path d="M47.765 187.432a340.772 340.772 0 008.627-31.954c.179-.798-1.052-1.137-1.23-.339a335.76 335.76 0 01-8.627 31.953c-.246.781.984 1.121 1.23.34zm-27.679.543c.17.034.339.06.509.094.288.051.56-.034.72-.289.985-1.63.196-3.175-.305-4.907a128.136 128.136 0 00-3.63-10.713c-2.486-6.384-5.489-12.539-8.916-18.464-.407-.713-1.51-.068-1.103.645 2.995 5.178 5.684 10.518 7.949 16.062.95 2.326 1.84 4.677 2.646 7.063.297.874 2.537 9.304 2.46 9.295-.797-.161-1.136 1.07-.33 1.214z" fill="#000"/><path d="M9.312 153.475c-.5-.951-.186-1.562.942-1.817a39.763 39.763 0 012.324-1.375 36.526 36.526 0 016.04-2.623c4.072-1.359 8.305-1.902 12.589-1.953 7.388-.076 21.563-1.002 23.59 8.404.17.798 1.4.459 1.23-.339-2.035-9.44-14.208-9.058-21.716-9.296-10.383-.331-19.858 2.122-28.12 8.557-.204.153-.255.569-.102.773 1.06 1.434 2.324 1.765 3.86.772.687-.45.05-1.553-.637-1.103z" fill="#000"/><path d="M52.957 153.721c-2.155 7.191-12.479 6.834-18.408 6.554-6.608-.314-17.11-1.027-20.97-7.386-.424-.696-1.527-.059-1.103.645 4.437 7.31 16.067 7.912 23.676 8.074 6.345.136 15.812-.153 18.026-7.547.238-.79-.984-1.129-1.221-.34z" fill="#000"/><path d="M7.907 139.011c-7.558-9.27-10.171-22.157-5.76-33.278 4.411-11.12 13.666-19.67 23.735-26.113 0 0 9.696-9.72 14.03-12.59 8.594-5.687-10.484 19.322-3.545 26.946 5.777 6.35 15.464 7.912 21.267 14.236 4.954 5.408 6.124 13.464 4.801 20.688-1.323 7.216-4.818 13.821-8.27 20.298-.01 0-28.376 11.741-46.258-10.187z" fill="#D3DA17"/><path d="M27.07 96.71c-.644 6.807 1.79 13.582 6.753 18.319 2.774 2.648 6.065 3.625 9.306 5.475 5.887 3.362 3.944 10.001 2.002 15.12-.289.764.941 1.095 1.23.339 2.358-6.214 3.715-13.328-3.207-16.851-4.589-2.334-8.398-4.041-11.392-8.515-2.766-4.142-3.894-8.964-3.419-13.888.085-.815-1.196-.806-1.272 0z" fill="#000"/><path d="M24.636 96.633c3.732 6.477 3.868 14.397-.195 20.79-2.749 4.321-6.498 7.682-8.339 12.564-.288.764.942 1.103 1.23.339 2.41-6.401 8.432-10.543 10.502-17.148 1.824-5.815.908-11.97-2.104-17.19-.407-.705-1.501-.069-1.094.645z" fill="#000"/><path d="M46.615 46.98c4.055-5.688 4.691-13.43 1.001-19.492-2.044-3.362-5.25-5.705-7.787-8.65-4.369-5.06-5.48-11.588-2.69-17.709.34-.738-.763-1.392-1.102-.645-3.02 6.639-1.934 13.795 2.893 19.253 3.291 3.719 7.405 6.614 9.043 11.529 1.722 5.17.67 10.688-2.452 15.068-.483.67.62 1.308 1.094.645z" fill="#D9E021"/><path d="M35.29.204c-4.046 4.618-5.955 10.696-4.895 16.8 1.324 7.581 7.296 12.768 12.928 17.428.628.518 1.536-.373.9-.9C39.386 29.535 34.144 25.214 32.184 19c-1.976-6.256-.271-13.03 4.004-17.895.543-.611-.356-1.511-.899-.9zM6.949 84.272c9.272-8.998-.67-22.75 4.114-33.158.34-.739-.755-1.384-1.103-.645-4.725 10.288 4.946 24.296-3.91 32.895-.586.578.313 1.477.899.908z" fill="#D9E021"/><path d="M10.962 50.333c-1.782 5.5-5.675 10.026-7.279 15.577-1.518 5.272-.475 10.748.569 16.003.16.806 1.382.466 1.23-.34-1.307-6.58-2.113-12.708.882-18.99 1.917-4.024 4.445-7.64 5.828-11.91.246-.782-.976-1.113-1.23-.34z" fill="#D9E021"/></svg>