<svg width="64" height="117" fill="none" xmlns="http://www.w3.org/2000/svg"><path d="M35.56 87.972l3.87.11.212.496.085 2.008.163 3.751L40.4 99l.9 5.452 1.177 4.26 1.27 2.678 1.673 1.937s2.26 1.782 4.632 1.75c2.371-.031 5.034-.481 7.14-1.905 2.105-1.424 3.251-2.882 4.059-4.32.805-1.441 1.41-4.028 1.395-5.916-.015-1.891-.45-4.662-.774-6.243-.327-1.579-2.292-7.202-2.292-7.202l-3.47-8.085-2.633-5.948-1.286-4.12-.343-5.253.11-5.979.185-1.595s2.989-.868 5.065-2.696c2.075-1.828 4.183-4.739 4.183-4.739s1.367-2.093 1.964-4.923c.596-2.83.447-6.38-.423-8.862-.87-2.483-2.21-5.065-3.576-6.554-1.366-1.49-4.097-3.4-5.34-4.172-1.241-.77-5.263-2.259-5.263-2.259s1.49-2.756 1.34-5.933c-.148-3.177-.646-5.213-1.662-7.374-1.018-2.16-4.368-5.462-4.368-5.462s-4.148-3.053-7.895-4.097C32.42.396 29.986.174 29.986.174l-2.582.075s-3.501.149-7.945 2.83c-4.444 2.68-7.771 6.33-7.771 6.33s-1.391 1.142-2.855 4.567c-1.464 3.426-.646 7.623-.646 7.623s.646 3.103 1.763 4.942c1.117 1.838 1.997 2.582 1.997 2.582S8.626 31.11 5.95 33.801c-2.674 2.692-3.896 5.139-4.845 7.573C.158 43.808.14 46.226.14 46.226s.037 2.787.54 4.35c.501 1.562 1.133 3.308 2.787 4.943 1.654 1.636 2.844 1.933 3.867 2.213 1.022.278 3.122.558 3.958.502a224.07 224.07 0 002.583-.205l.448 2.73.22 3.995-.061 2.782.04 1.093.06 7.173-.339 1.43s-1.094 4.83-1.968 6.657c-.874 1.828-1.173 3.558-2.206 5.523-1.033 1.968-2.087 4.432-2.087 4.432l-1.889 4.092-.834 2.644-.577 2.304-.278 2.583s.04 2.167.556 3.955c.517 1.788 1.311 3.199 2.464 4.51 1.152 1.312 3.12 2.305 5.165 2.525 2.045.219 5.086-.975 5.086-.975s2.026-1.253 2.604-1.729c.577-.477 2.007-2.345 3.258-4.193 1.252-1.849 2.225-4.432 2.225-4.432l.974-3.139 1.192-4.352 1.293-6.815.596-2.821 5.742-.03z" fill="#fff"/><path d="M29.788.195c-4.511-.454-8.74 1.491-12.347 4.038-3.396 2.397-6.924 5.36-8.576 9.281-2.905 6.893.194 15.19 6.857 18.51 3.563 1.778 7.658 2.169 11.588 1.957 4.038-.22 8.18-.955 12.008-2.27 3.567-1.226 7.03-3.213 9.076-6.488 1.999-3.201 2.323-7.198 1.428-10.812C47.524 5.132 38.06.613 29.215.001c-.201-.015-.201.299 0 .313 7.641.53 15.952 3.923 19.3 11.3 1.573 3.464 2.001 7.56.703 11.181-1.293 3.608-4.277 6.144-7.69 7.7-3.524 1.606-7.455 2.418-11.278 2.9-3.708.47-7.57.532-11.203-.453-3.712-1.008-7.041-3.206-8.992-6.575-1.774-3.064-2.389-6.813-1.663-10.28.98-4.679 4.521-8.062 8.194-10.844C20.379 2.37 24.892.017 29.788.51c.2.018.2-.295 0-.314z" fill="#000"/><path d="M30.488 14.719c.659 2.585 2.947 4.582 5.528 5.255 1.907.498 4.038.314 5.702-.74 1.665-1.054 2.773-3.04 2.541-5-.205-1.742-1.367-3.213-2.572-4.488-.401-.427-.826-.851-1.355-1.106-.594-.287-1.272-.333-1.93-.36a44.558 44.558 0 00-23.412 5.594l-.887.713c.26 2.35 1.324 4.664 3.162 6.153 1.838 1.489 4.486 2.032 6.663 1.106 2.177-.924 3.66-3.421 3.156-5.732l-.157-.506 3.448-.916M8.338 19.32l5.84-2.88c.182-.09.023-.36-.158-.272l-5.841 2.88c-.182.09-.023.361.159.271zm.29 2.049c1.89-1.3 3.871-2.44 5.946-3.424.182-.085.023-.357-.16-.271a42.582 42.582 0 00-5.945 3.423c-.165.115-.008.387.16.272zM42.2 9.802a17.2 17.2 0 014.61-.805c.201-.006.203-.32 0-.314a17.471 17.471 0 00-4.694.816c-.19.063-.109.366.083.303zm1.327 1.528a11.704 11.704 0 014.576-.367c.2.023.199-.29 0-.314a11.888 11.888 0 00-4.66.38c-.194.055-.11.358.084.302zM28.31 26.768c1.852-1.756 4.443-1.662 6.823-1.511.2.012.2-.302 0-.314-2.48-.157-5.124-.218-7.046 1.604-.146.138.076.36.222.221z" fill="#000"/><path d="M14.668 15.662a47.679 47.679 0 0126.235-6.268c.2.01.2-.303 0-.313a47.998 47.998 0 00-26.394 6.309c-.176.102-.017.374.159.272zm-2.6 13.215c-4.167 2.597-8.053 5.957-10.276 10.416-2.093 4.2-2.55 9.465-.308 13.702 5.151 9.737 18.59 3.907 26.166.95 5.346-2.085 10.877-4.13 16.712-3.715.2.015.2-.299 0-.313-9.306-.665-17.481 4.703-26.183 7.035-4.615 1.238-10.79 2.194-14.532-1.531-3.679-3.664-4.038-9.476-2.363-14.154 1.892-5.286 6.29-9.224 10.94-12.123.173-.104.016-.376-.156-.267z" fill="#000"/><path d="M24.409 55.356c2.827.492 5.402 1.74 8.1 2.654 2.693.912 5.485 1.246 8.308 1.435 2.92.194 5.912.466 8.815-.034 2.135-.368 4.182-1.181 6.014-2.336 3.635-2.29 6.452-5.916 7.598-10.074 1.181-4.289.533-8.973-1.51-12.898-2.61-5.015-7.288-7.93-12.506-9.723-.19-.064-.274.237-.084.303 4.664 1.602 8.964 4.089 11.628 8.366 2.378 3.814 3.333 8.561 2.386 12.976-.92 4.293-3.653 8.114-7.294 10.538-1.738 1.156-3.681 2.005-5.726 2.436-2.807.592-5.714.358-8.553.184-3.054-.186-6.084-.483-8.997-1.472-2.698-.914-5.274-2.163-8.1-2.654-.194-.038-.278.266-.08.3z" fill="#000"/><path d="M17.338 44.975c4.804.674 9.455-1.21 14.25-.966 4.672.24 9.124 2.305 12.391 5.636.142.144.364-.077.222-.222-3.01-3.068-6.993-5.07-11.264-5.608-5.222-.657-10.306 1.585-15.515.857-.199-.027-.284.276-.084.303zm31.003-2.681a27.028 27.028 0 01-3.82 7.63c-.117.164.154.321.272.158a27.294 27.294 0 003.852-7.704c.06-.195-.243-.276-.304-.084z" fill="#000"/><path d="M29.767 43.39c-2.367-2.282-5.586-3.87-8.934-3.151-1.487.32-3.043 1.116-3.938 2.386-.535.759-.527 2.02.64 2.039.203.004.203-.31 0-.314-.067-.592-.134-1.184-.203-1.776.103-.12.213-.236.328-.345a5.81 5.81 0 01.822-.67c.47-.317.981-.57 1.514-.758a7.642 7.642 0 013.26-.393c2.42.23 4.57 1.552 6.287 3.206.146.138.37-.084.224-.224zm23.706 31.735c-.535-1.79-.71-3.24-.974-5.09-.17-1.194-.32-1.872-.49-3.066l-.213-.113c-12.058 3.315-25.107 5.017-36.931.946 0 0-.498-.203-.498.215 0 5.962-.08 1.987 0 7.947v.385c.822-.208 1.679.09 2.47.395 2.877 1.112 5.723 2.428 8.093 4.404 2.37 1.974 4.245 4.682 4.703 7.733l.345-.238a28.247 28.247 0 019.691-.207l.211-.552c2.533-5.684 6.972-10.39 12.749-12.698l.426-.059" fill="#000"/><path d="M53.128 75.066c2.127 5.07 4.517 10.022 6.48 15.16 1.844 4.83 3.536 10.337 2.492 15.546-1.025 5.116-5.469 8.548-10.557 9.089-2.507.266-4.927-.393-6.652-2.288-1.474-1.62-2.284-3.751-2.844-5.836-1.556-5.779-2.09-11.952-2.213-17.916-.004-.201-.318-.203-.314 0 .12 5.818.682 11.767 2.077 17.428.996 4.041 3.093 8.38 7.702 8.928 4.415.525 9.463-1.861 11.747-5.69 2.723-4.568 1.69-10.55.24-15.359-1.99-6.608-5.192-12.794-7.854-19.141-.078-.188-.381-.107-.304.08zM29.43 88.8c-.941 5.563-1.89 11.184-3.957 16.462-1.896 4.846-5.09 10.028-10.65 10.981-5.112.877-8.84-3.009-9.9-7.685-1.18-5.203 1.056-10.256 3.293-14.842 2.731-5.604 5.038-11.234 6.358-17.353.042-.197-.26-.28-.304-.084a64.738 64.738 0 01-2.768 9.398c-1.115 2.93-2.518 5.716-3.876 8.537-2.158 4.478-4.149 9.388-3.005 14.428.906 3.99 3.748 7.704 8.083 8.024 5.287.389 9.356-3.731 11.615-8.07 3.166-6.082 4.283-13.029 5.414-19.715.032-.196-.27-.28-.303-.081zm10.952-40.788a.32.32 0 00-.274-.13c-.125-.002-.22.18-.11.268.445.355.984.573 1.413.95.15.13.374-.089.222-.223-.431-.378-.969-.593-1.414-.949l-.11.268.051.037c.13.155.352-.066.222-.221zm-2.773.801c.35.198.698.397 1.048.593.175.1.334-.171.159-.271-.35-.199-.699-.398-1.048-.594-.176-.099-.335.173-.159.272zm-4.243.023c.537.253 1.043.56 1.51.93.157.124.38-.096.221-.221a8.003 8.003 0 00-1.574-.981c-.18-.084-.34.186-.157.272zm-1.922 1.056c.508.242.99.529 1.443.866.163.119.32-.153.159-.272a8.764 8.764 0 00-1.443-.866c-.182-.086-.34.186-.159.272zm-3.269 1.154a798.8 798.8 0 011.837.943c.18.092.338-.177.158-.272a760.35 760.35 0 01-1.836-.943c-.18-.092-.338.18-.159.272zm-3.27.481c.382.26.765.519 1.146.78.167.113.324-.159.159-.272-.383-.26-.766-.518-1.146-.78-.168-.113-.325.16-.16.272zm-3.083.492c.609.418 1.215.836 1.824 1.252.167.115.324-.157.159-.272-.609-.418-1.215-.836-1.824-1.252-.167-.115-.324.157-.159.272zm-2.807 1.689a5.52 5.52 0 001.653 1.11c.184.08.343-.19.159-.271a5.217 5.217 0 01-1.588-1.06c-.146-.14-.37.08-.224.221zm-3.125.477c.35-.209-.292-.627-.342-.186-.027.245.264.418.42.556.272.239.542.48.814.718.15.133.374-.088.222-.222l-.575-.508c-.09-.08-.18-.16-.272-.239-.038-.033-.47-.403-.48-.267.026-.046.053-.09.078-.136-.008.004-.017.008-.023.014-.175.103-.016.373.157.27zm-3.125.968c.433.492.922.92 1.464 1.289.167.113.324-.157.159-.272a7.517 7.517 0 01-1.402-1.238c-.133-.153-.355.07-.221.221zm-3.417-.108c.366.516.792.978 1.286 1.376.155.125.378-.094.221-.222a6.588 6.588 0 01-1.238-1.313c-.115-.163-.386-.007-.27.159zm-2.23-.592l-.32-.262c-.112-.092-.31-.01-.261.153.2.678.533 1.286.991 1.822.132.152.354-.07.222-.222a4.553 4.553 0 01-.912-1.684c-.088.05-.175.103-.261.153l.32.262c.154.127.378-.094.221-.222zm-3.446-1.577c.088.506.29.975.606 1.38.122.157.396.002.272-.159a2.928 2.928 0 01-.575-1.305c-.035-.196-.336-.113-.303.084zm-2.014-2.543c.031.257.065.513.096.77.025.198.34.2.314 0-.031-.258-.065-.513-.096-.77-.023-.197-.339-.199-.314 0zm-.383-2.883v.672c0 .203.314.203.314 0v-.673c0-.2-.314-.203-.314 0zm25.93-4.654l.58.282c.18.088.34-.181.158-.271-.192-.095-.387-.189-.58-.283-.181-.087-.34.184-.158.272zm-1.33.164c.192.127.387.252.58.38.169.11.325-.161.158-.272-.192-.128-.387-.253-.58-.38-.169-.112-.325.16-.158.271zm-2.539.08l.481.482c.142.142.364-.08.222-.222l-.481-.48c-.142-.143-.364.079-.222.22zm-1.522.72c.203 0 .203-.313 0-.313s-.203.313 0 .313zm-2.046-.228c.26.253.517.509.776.762.145.142.366-.08.222-.222-.26-.253-.517-.508-.776-.761-.144-.14-.366.081-.222.221zm-1.549.247c.11.234.301.424.533.542.18.09.339-.18.159-.272a.9.9 0 01-.42-.429c-.088-.182-.36-.023-.272.159zm8.942 10.958c.065.096.128.193.192.289.046.071.138.1.216.056.069-.041.102-.144.056-.215l-.192-.289a.161.161 0 00-.215-.056c-.07.042-.103.144-.057.215zm1.728.097c.223.32.45.64.673.96.115.163.387.008.272-.16l-.674-.96c-.115-.163-.387-.006-.271.16zm2.225.618c.353.448.704.898 1.058 1.345.125.159.345-.065.221-.222-.353-.447-.704-.897-1.058-1.344-.125-.16-.345.064-.221.221zm2.101.055a10.63 10.63 0 001.753 1.861c.154.128.376-.092.221-.222a10.35 10.35 0 01-1.702-1.798c-.12-.159-.39-.004-.272.159zm3.825.805c-.077-.111-.154-.222-.234-.333l-.247.19a14.22 14.22 0 001.68 1.772c.15.134.372-.088.221-.222a14.627 14.627 0 01-1.68-1.771c-.11-.138-.348.044-.246.19l.234.333c.117.165.39.008.272-.16zm2.928.287c.546.48 1.09.961 1.635 1.442.151.134.375-.087.222-.221l-1.635-1.443c-.15-.134-.373.088-.222.221zm3.99.004a.579.579 0 00-.38-.266c-.128-.03-.254.109-.178.23a5.017 5.017 0 001.788 1.696c.175.098.334-.171.159-.272a4.677 4.677 0 01-1.675-1.583c-.059.078-.117.153-.178.23.065.04.127.082.192.122.115.165.387.008.272-.157zm3.221.092c.545.45 1.09.897 1.635 1.346.155.128.379-.094.222-.221L47.4 56.473c-.154-.128-.376.092-.221.222zm3.078-.58c.333.4.732.732 1.181.992.176.1.335-.17.16-.272a4.132 4.132 0 01-1.12-.941c-.129-.155-.349.067-.221.221zm2.786-.863c.432.416.94.72 1.512.905.192.063.274-.24.083-.303a3.553 3.553 0 01-1.374-.824c-.144-.14-.366.082-.221.222zm2.712-1.69l1.248.962c.16.123.316-.149.16-.272l-1.25-.962c-.16-.121-.317.15-.158.272zm2.417-2.229c.387.188.728.437 1.023.748.14.147.362-.075.222-.221a3.782 3.782 0 00-1.088-.797c-.18-.09-.339.18-.157.27zm2.466-2.811l.481.385c.067.052.157.065.222 0 .054-.055.067-.17 0-.222l-.481-.385c-.067-.052-.157-.065-.222 0-.054.055-.065.168 0 .222zm1.556-3.67l.372.397c.138.149.36-.075.222-.221l-.372-.398c-.138-.146-.36.075-.222.222zm.339-3.57l.19.289c.046.07.138.1.215.056.072-.042.103-.144.057-.215l-.19-.289a.161.161 0 00-.216-.056c-.069.041-.102.144-.056.215zm-.402-3.639v.289c0 .203.314.203.314 0v-.289c0-.203-.314-.203-.314 0zM1.528 44.626c.203 0 .203-.314 0-.314-.202 0-.202.314 0 .314zm.96-3.365c.203 0 .203-.314 0-.314-.2 0-.2.314 0 .314z" fill="#000"/><path d="M41.46 86.93c.005.006.014.01.02.017l-.025-.19c.027-.013.052-.028.08-.04.05.037.1.077.15.115-.046-.144.31-.56.387-.678a7.33 7.33 0 01.548-.72c.339-.39.717-.74 1.123-1.06.159-.125-.065-.344-.222-.221a8.03 8.03 0 00-1.42 1.424c-.22.285-.845.945-.72 1.338.02.063.082.12.151.115.094-.006.145-.03.193-.115.031-.056.029-.144-.025-.19-.007-.006-.015-.01-.021-.016-.153-.128-.377.094-.22.221zm.355 2.25l2.116-2.21c.14-.147-.082-.368-.222-.222l-2.116 2.21c-.14.145.081.367.222.222zm.608 3.533a8.597 8.597 0 012.192-2.562c.159-.126-.065-.345-.222-.222a8.797 8.797 0 00-2.24 2.625c-.1.177.172.334.27.159zm.548 3.347a8.627 8.627 0 011.644-1.967c.15-.134-.071-.356-.222-.222a8.817 8.817 0 00-1.692 2.03c-.106.174.166.331.27.16zm.412 3.861a20.783 20.783 0 012.001-2.656c.134-.15-.087-.372-.221-.221a21.087 21.087 0 00-2.052 2.718c-.109.172.163.331.272.16zm.774 3.369a6.347 6.347 0 011.416-1.892c.148-.136-.074-.358-.222-.222a6.56 6.56 0 00-1.466 1.955c-.088.182.184.341.272.159zm.654 3.016l1.537-1.828c.13-.153-.092-.376-.221-.222l-1.537 1.828c-.13.155.09.377.221.222zm1.05 2.493a8.45 8.45 0 001.257-1.243c.128-.154-.094-.378-.222-.221a8.297 8.297 0 01-1.257 1.242c-.158.125.065.347.222.222zm.655 2.356a10.47 10.47 0 001.834-1.309c.15-.134-.071-.355-.222-.221-.546.485-1.136.903-1.771 1.261-.176.098-.017.368.159.269zm1.911 2.094c.56-.343 1.084-.738 1.57-1.178.151-.136-.072-.357-.22-.221-.467.422-.971.799-1.507 1.129-.173.105-.016.376.157.27zm3.79.125c-.08.038-.157.076-.237.111l.16.272a5.87 5.87 0 001.317-.918c.148-.138-.074-.358-.222-.222a5.52 5.52 0 01-1.255.87c-.182.092-.023.356.16.272.079-.038.156-.075.235-.111.182-.09.023-.359-.158-.274zm4.222-.631c.16-.128.32-.258.48-.385.068-.052.055-.167 0-.222-.064-.065-.154-.052-.22 0-.162.128-.32.257-.482.385-.067.052-.054.167 0 .222.065.067.155.054.222 0zM17.238 78.438a4.589 4.589 0 01-1.317-.289c-.015.102-.028.205-.042.308a3.697 3.697 0 012.553.926c.15.132.375-.088.222-.222a4.02 4.02 0 00-2.775-1.018c-.184.004-.203.246-.042.307.458.172.914.266 1.401.301.203.015.2-.299 0-.313zm-1.909 2.242a7.63 7.63 0 012.085 1.028c.165.115.322-.157.159-.272a7.886 7.886 0 00-2.159-1.06c-.196-.06-.278.243-.085.303zm-.803 2.762a15.94 15.94 0 002.108 1.169c.182.084.34-.186.159-.272a15.932 15.932 0 01-2.108-1.169c-.17-.11-.327.161-.16.272zm-.839 2.474h-.058c-.168-.065-.272.2-.122.287.448.255.874.543 1.274.87.155.125.378-.095.221-.222a9.714 9.714 0 00-1.336-.918l-.121.286c.167.065.316-.004.414-.144.115-.165-.157-.322-.272-.159zm-1.372 3.582c.632.456 1.303.845 2.014 1.165.182.082.343-.188.159-.272a11.57 11.57 0 01-2.014-1.165c-.165-.117-.322.155-.159.272zm-1.717 3.286a4.385 4.385 0 001.72 1.32c.183.079.342-.191.158-.273a4.192 4.192 0 01-1.656-1.271c-.126-.157-.345.067-.222.224zM9.23 96.046l1.437 1.066c.163.122.318-.152.16-.271l-1.438-1.067c-.163-.12-.32.153-.159.272zm-.685 3.066l-.391.015c-.136.006-.207.167-.111.267.355.375.755.697 1.194.969.171.106.33-.166.159-.272a5.781 5.781 0 01-1.132-.92l-.11.267.39-.014c.203-.007.203-.32 0-.312zm-1.519 3.367a6.566 6.566 0 002.343.888c.196.034.282-.267.083-.303a6.309 6.309 0 01-2.267-.857c-.173-.107-.33.165-.159.272zm-.349 2.614l2.114.769c.19.069.272-.234.084-.303l-2.114-.769c-.19-.069-.272.234-.084.303zm0 2.595l1.25.481c.189.073.27-.23.084-.303l-1.25-.481c-.188-.071-.27.232-.084.303zm1.056 2.894c.866.13 1.73.262 2.595.391.197.03.283-.271.084-.303-.866-.129-1.73-.261-2.595-.391-.197-.029-.283.272-.084.303zm1.397 2.198c.609.375 1.268.63 1.97.757.197.036.282-.265.084-.303a5.45 5.45 0 01-1.897-.725c-.17-.105-.328.167-.157.271zm2.397 2.221c.705-.065 1.41-.127 2.114-.192.199-.019.2-.333 0-.314l-2.114.193c-.201.016-.203.33 0 .313zm5.015-47.994a8.82 8.82 0 003.54.876c.203.008.2-.305 0-.314a8.423 8.423 0 01-3.381-.834c-.182-.086-.341.184-.16.272zm.368-1.615l2.114.193c.2.019.2-.295 0-.314-.705-.065-1.41-.127-2.114-.192-.201-.02-.199.295 0 .313zm.192-2.125c.77.034 1.537.07 2.307.103.203.008.2-.305 0-.314-.77-.033-1.537-.069-2.307-.102-.2-.008-.2.305 0 .313zm.674-2.49h.769c.203 0 .203-.314 0-.314h-.77c-.202 0-.202.314 0 .314zm-.386-2.018h2.211c.203 0 .203-.314 0-.314h-2.21c-.203 0-.203.314 0 .314zm5.19 9.266c.769.084 1.54.167 2.31.249.2.021.199-.293 0-.314-.77-.083-1.541-.167-2.31-.248-.202-.021-.202.292 0 .313zm7.5-35.608c.203 0 .203-.314 0-.314-.2 0-.2.314 0 .314zm-3.46.19h.096a.157.157 0 00.157-.157c-.005-.085-.07-.156-.157-.156h-.097a.157.157 0 00-.157.157c.005.085.07.156.157.156zm-2.884-.313h-.097a.157.157 0 00-.157.157c.005.085.07.156.157.156h.097a.157.157 0 00.157-.157c-.005-.083-.07-.156-.157-.156zm-2.788.123c.203 0 .203-.314 0-.314s-.203.314 0 .314zm-3.654-1.443c.203 0 .203-.314 0-.314-.202 0-.202.314 0 .314zM15.18 29.82c.203 0 .203-.314 0-.314s-.203.314 0 .314zm-.385-.193c.203 0 .203-.313 0-.313s-.203.313 0 .313zm-1.731-1.152c.203 0 .203-.314 0-.314-.2 0-.2.314 0 .314zm-1.537-1.539c.203 0 .203-.314 0-.314s-.203.314 0 .314zm-.77-1.537c.203 0 .203-.314 0-.314s-.203.314 0 .314zm-.673-1.828c.203 0 .203-.314 0-.314-.201 0-.203.314 0 .314zm1.731.866c.203 0 .203-.314 0-.314-.202 0-.202.314 0 .314zm1.153 2.018c.203 0 .203-.314 0-.314-.201 0-.201.314 0 .314zm1.25 1.347c.203 0 .203-.314 0-.314s-.203.314 0 .314zm1.155 1.154c.203 0 .203-.314 0-.314s-.203.314 0 .314zm1.537.575c.203 0 .203-.313 0-.313-.201 0-.203.313 0 .313zm-6.441-7.114c.202 0 .202-.314 0-.314-.203 0-.203.314 0 .314zm.656-1.27l.385-.288c.067-.05.103-.136.056-.216-.04-.067-.146-.106-.215-.056l-.385.288c-.067.05-.102.136-.056.216.04.065.146.107.215.056zm.881-.652c.203 0 .203-.314 0-.314-.201 0-.201.314 0 .314zm1.443-1.058c.203 0 .203-.314 0-.314-.201 0-.203.314 0 .314zm-3.846 2.787c.203 0 .203-.314 0-.314-.2 0-.2.314 0 .314zm.192-5.19c.203 0 .203-.314 0-.314-.2 0-.203.314 0 .314zm1.347 0c.203 0 .203-.314 0-.314s-.203.314 0 .314zm0-2.018c.203 0 .203-.314 0-.314s-.203.314 0 .314zm.77-2.309c.202 0 .202-.314 0-.314-.203 0-.203.314 0 .314zm2.114-2.884c.203 0 .203-.314 0-.314s-.203.314 0 .314zm1.058-1.729c.203 0 .203-.314 0-.314s-.203.314 0 .314zm-2.694 2.018c.203 0 .203-.314 0-.314-.2 0-.2.314 0 .314zm-1.248 2.21c.203 0 .203-.314 0-.314s-.203.314 0 .314zm-1.058 1.539c.203 0 .203-.313 0-.313-.201 0-.203.313 0 .313zm0 .962c.203 0 .203-.313 0-.313-.201 0-.203.313 0 .313zm-.577 1.057c.203 0 .203-.314 0-.314-.201 0-.201.313 0 .313zm-.577 1.827c.202 0 .202-.314 0-.314-.201 0-.201.314 0 .314zm2.982-1.347c.202 0 .202-.313 0-.313-.203 0-.203.313 0 .313zm.959 7.211c.203 0 .203-.314 0-.314-.2 0-.2.314 0 .314zm1.924 2.884c.203 0 .203-.314 0-.314s-.203.314 0 .314zm4.039 5.865c.203 0 .203-.313 0-.313s-.203.314 0 .314zm.671-2.116c.203 0 .203-.313 0-.313-.2 0-.2.314 0 .314zm14.133 2.021c.203 0 .203-.314 0-.314-.201 0-.201.314 0 .314zm6.826-2.694c.203 0 .203-.313 0-.313-.201 0-.201.313 0 .313zm4.616-2.018c.202 0 .202-.314 0-.314-.204 0-.204.314 0 .314zm3.172-5.193c.202 0 .202-.313 0-.313-.203 0-.203.314 0 .314zm.577-2.787c.203 0 .203-.314 0-.314s-.203.314 0 .314zm-.193-4.231c.203 0 .203-.313 0-.313s-.203.313 0 .313zm-2.21-4.132c.203 0 .203-.314 0-.314s-.203.314 0 .314zm-1.539-2.98c.203 0 .203-.314 0-.314s-.203.314 0 .314zm-4.038-2.886c.202 0 .202-.314 0-.314-.201 0-.203.314 0 .314zm-4.424-2.307c.203 0 .203-.313 0-.313-.2 0-.2.313 0 .313zm-3.653-.962c.203 0 .203-.313 0-.313-.2 0-.2.313 0 .313zm-3.076-.577c.202 0 .202-.314 0-.314-.201 0-.201.314 0 .314zm-3.654.673c.203 0 .203-.313 0-.313-.2 0-.2.313 0 .313zm-3.076.866c.203 0 .203-.313 0-.313-.2 0-.2.313 0 .313zm-3.172.963c.202 0 .202-.315 0-.315-.201 0-.201.314 0 .314zM16.14 5.977c.203 0 .203-.313 0-.313-.2 0-.2.313 0 .313zm1.924-.577c.203 0 .203-.314 0-.314s-.203.314 0 .314zM16.14 8.19c.203 0 .203-.314 0-.314-.2 0-.2.314 0 .314zm-2.595 3.076c.203 0 .203-.314 0-.314-.2 0-.203.314 0 .314zm-1.058 2.692c.203 0 .203-.314 0-.314-.201 0-.201.314 0 .314zm.481 1.248c.203 0 .203-.314 0-.314-.201 0-.201.314 0 .314zm.384 6.058c.203 0 .203-.313 0-.313-.2 0-.202.313 0 .313zm1.732 2.98c.203 0 .203-.313 0-.313s-.203.313 0 .313zm2.403 3.943c.203 0 .203-.314 0-.314s-.203.314 0 .314zm4.711 2.017c.203 0 .203-.313 0-.313-.202 0-.202.314 0 .314zm2.596 1.059c.203 0 .203-.314 0-.314s-.203.314 0 .314zm3.365.673c.202 0 .202-.314 0-.314-.203 0-.203.314 0 .314zm3.364-.192c.203 0 .203-.314 0-.314-.202 0-.202.314 0 .314zm3.654-.096c.203 0 .203-.314 0-.314s-.203.314 0 .314zm-16.249-4.135c.203 0 .203-.314 0-.314-.201 0-.201.314 0 .314zm-2.692-3.653c.203 0 .203-.314 0-.314-.2 0-.2.314 0 .314zm.674-4.616c.203 0 .203-.314 0-.314-.201 0-.203.314 0 .314zm-2.884-5.19c.203 0 .203-.314 0-.314s-.203.314 0 .314zm1.729-3.077c.203 0 .203-.313 0-.313-.2 0-.2.313 0 .313zm3.079-3.46c.203 0 .203-.314 0-.314s-.203.314 0 .314zm1.248-1.059c.203 0 .203-.313 0-.313-.2 0-.203.313 0 .313zm-3.365 6.056c.203 0 .203-.313 0-.313-.2 0-.203.313 0 .313zm1.443-2.787c.203 0 .203-.314 0-.314s-.203.314 0 .314zm2.21-2.21c.203 0 .203-.314 0-.314-.2 0-.202.314 0 .314zm2.788-2.213c.203 0 .203-.314 0-.314-.2 0-.2.314 0 .314zm3.365-1.344c.203 0 .203-.315 0-.315-.2 0-.2.314 0 .314zm3.173-.386c.202 0 .202-.313 0-.313-.201 0-.201.313 0 .313zM10.684 31.478c.203 0 .203-.314 0-.314-.2 0-.2.314 0 .314zM6.897 33.59l-.216.216c-.058.058-.062.165 0 .221.063.057.16.063.222 0l.215-.215c.059-.058.063-.165 0-.222-.062-.056-.159-.062-.221 0zm-2.052 3.08c.203 0 .203-.313 0-.313s-.203.314 0 .314zm-1.731 4.328c.202 0 .202-.314 0-.314-.201 0-.203.314 0 .314zm-.866 2.81c.203 0 .203-.313 0-.313-.201 0-.201.313 0 .313zm.065 4.428c.07.36.144.72.215 1.08.04.2.343.116.303-.083-.07-.36-.144-.721-.215-1.081-.04-.197-.341-.113-.303.084zm.585 3.144c.203 0 .203-.313 0-.313s-.203.314 0 .314zm3.028 2.811c.203 0 .203-.313 0-.313s-.203.313 0 .313zm2.811 1.515c.203 0 .203-.314 0-.314-.2 0-.2.313 0 .313zm5.408 0c.203 0 .203-.314 0-.314-.2 0-.2.313 0 .313zm2.597.865c.203 0 .203-.313 0-.313s-.203.313 0 .313zm1.514-1.514c.203 0 .203-.314 0-.314-.202 0-.202.314 0 .314zm3.462-.648c.202 0 .202-.314 0-.314-.203 0-.203.314 0 .314zm2.377-1.299c.203 0 .203-.313 0-.313-.2 0-.2.313 0 .313zm2.813-.433c.203 0 .203-.313 0-.313-.2 0-.2.313 0 .313zm3.028-1.514c.203 0 .203-.313 0-.313-.2 0-.2.313 0 .313zm2.597-.433c.203 0 .203-.313 0-.313-.202 0-.202.313 0 .313zm.864-.215c.203 0 .203-.314 0-.314-.2 0-.2.314 0 .314zm2.598-1.299c.203 0 .203-.313 0-.313s-.203.313 0 .313zm2.595-.866c.203 0 .203-.313 0-.313s-.203.313 0 .313zm2.162.65c.203 0 .203-.313 0-.313-.2 0-.2.314 0 .314zm-3.894 0c.203 0 .203-.313 0-.313-.2 0-.2.314 0 .314zm-5.19.434c.203 0 .203-.314 0-.314s-.203.314 0 .314zm-4.328 1.081c.204 0 .204-.314 0-.314-.2 0-.202.314 0 .314zm-4.541 1.947c.203 0 .203-.314 0-.314s-.203.314 0 .314zm-1.947 0c.203 0 .203-.314 0-.314s-.203.314 0 .314zm-3.028-.217c.202 0 .202-.314 0-.314-.203 0-.203.314 0 .314zm-1.299 1.946c.203 0 .203-.313 0-.313-.2 0-.2.313 0 .313zm-2.38-.215c.203 0 .203-.314 0-.314-.2 0-.2.314 0 .314zm-2.595 1.081c.203 0 .203-.314 0-.314-.201 0-.203.314 0 .314zm-2.38-1.299c.203 0 .203-.313 0-.313-.2 0-.2.313 0 .313zm-2.81-.863c.202 0 .202-.314 0-.314-.204 0-.204.314 0 .314zm-.867-2.598c.203 0 .203-.313 0-.313-.202 0-.202.313 0 .313zm-1.081-3.676c.203 0 .203-.314 0-.314s-.203.314 0 .314zm.216-3.678c.203 0 .203-.314 0-.314-.201 0-.203.314 0 .314zm.865-.216c.203 0 .203-.314 0-.314-.202 0-.202.314 0 .314zm-1.947 3.246c.203 0 .203-.314 0-.314-.202 0-.202.314 0 .314zm.649 3.677c.203 0 .203-.314 0-.314-.201 0-.201.313 0 .313zm4.542 2.812c.203 0 .203-.314 0-.314-.2 0-.2.314 0 .314zm4.975 2.595c.203 0 .203-.314 0-.314-.2 0-.2.314 0 .314zm2.165-3.028c.202 0 .202-.314 0-.314-.203 0-.203.314 0 .314zm4.326-.217c.203 0 .203-.314 0-.314s-.203.314 0 .314zm3.029-.864c.202 0 .202-.314 0-.314-.203 0-.203.314 0 .314zm-11.191 5.466v.216c0 .081.071.16.157.157.086-.005.157-.07.157-.157v-.216c0-.081-.071-.16-.157-.157-.084.005-.157.07-.157.157zm-2.438.157c.203 0 .203-.313 0-.313-.2 0-.2.313 0 .313zm-4.11-1.298c.203 0 .203-.314 0-.314-.202 0-.202.314 0 .314zm.867 1.083c.202 0 .202-.314 0-.314-.204 0-.204.314 0 .314zM2.898 53.11c.203 0 .203-.313 0-.313s-.203.313 0 .313zm21.63.648c.203 0 .203-.313 0-.313-.2 0-.2.313 0 .313zm1.732-2.595c.202 0 .202-.313 0-.313-.203 0-.203.313 0 .313zm4.327-1.513c.203 0 .203-.314 0-.314s-.203.313 0 .313zm2.595-.65c.203 0 .203-.313 0-.313s-.203.314 0 .314zm-14.277-4.974c.203 0 .203-.314 0-.314s-.203.314 0 .314zm.648-.433c.203 0 .203-.314 0-.314-.2 0-.2.314 0 .314zm1.357-.375v.216c0 .082.071.16.157.157a.16.16 0 00.157-.157v-.215c0-.082-.071-.162-.157-.157a.16.16 0 00-.157.157zm1.456-.706c.203 0 .203-.314 0-.314s-.203.314 0 .314zm2.38 0h.215c.082 0 .161-.071.157-.157a.16.16 0 00-.157-.157h-.215c-.082 0-.161.071-.157.157a.16.16 0 00.157.157zm.865.215c.203 0 .203-.314 0-.314-.202 0-.202.314 0 .314z" fill="#000"/><path d="M25.611 42.727c.203 0 .203-.314 0-.314-.202 0-.202.314 0 .314zm-2.164 1.081c.203 0 .203-.313 0-.313-.2 0-.2.313 0 .313zm-.866-.215c.203 0 .203-.314 0-.314-.2 0-.2.314 0 .314zm2.165 0c.203 0 .203-.314 0-.314s-.203.314 0 .314zm6.704 12.113c.203 0 .203-.314 0-.314-.2 0-.2.313 0 .313zm6.059 1.298c.203 0 .203-.313 0-.313s-.203.313 0 .313zm4.109.648c.203 0 .203-.313 0-.313s-.203.313 0 .313zm3.894-.432c.203 0 .203-.314 0-.314s-.203.314 0 .314zm1.947-.216c.203 0 .203-.313 0-.313s-.203.313 0 .313zm5.841-2.38c.203 0 .203-.313 0-.313s-.203.313 0 .313zm.863.218c.203 0 .203-.314 0-.314-.2 0-.2.314 0 .314zm2.38-2.38c.203 0 .203-.314 0-.314-.2 0-.203.314 0 .314zm3.029-6.707c.202 0 .202-.313 0-.313-.201 0-.201.313 0 .313zm0-3.243c.202 0 .202-.314 0-.314-.201 0-.201.314 0 .314zm1.081 2.81c.203 0 .203-.313 0-.313-.201 0-.201.313 0 .313zm-.431 4.76c.203 0 .203-.313 0-.313s-.203.313 0 .313zm-7.355-3.894c.203 0 .203-.314 0-.314s-.203.314 0 .314zm8.003-8.868c.203 0 .203-.315 0-.315s-.203.314 0 .314zm-11.031 5.623c.203 0 .203-.314 0-.314s-.203.314 0 .314z" fill="#000"/><path d="M49.621 42.727c.203 0 .203-.314 0-.314-.2 0-.203.314 0 .314zM34.263 54.624c.203 0 .203-.313 0-.313-.2 0-.203.313 0 .313zm5.408 1.732c.203 0 .203-.314 0-.314s-.203.314 0 .314zm6.056-.217c.203 0 .203-.314 0-.314-.2 0-.2.313 0 .313zm4.543-1.515c.202 0 .202-.313 0-.313-.201 0-.201.313 0 .313zm3.54-1.967c.215-.145.433-.29.648-.433.168-.111.01-.383-.159-.272l-.648.433c-.165.113-.008.384.159.272zm1.435-.845c.203 0 .203-.314 0-.314-.201 0-.201.314 0 .314zm3.03-3.462h.215c.082 0 .161-.07.157-.156a.16.16 0 00-.157-.157h-.215c-.082 0-.161.071-.157.157a.158.158 0 00.157.156zm2.811-6.704c.202 0 .202-.314 0-.314-.201 0-.201.314 0 .314zm-1.082-4.76c.203 0 .203-.314 0-.314-.2 0-.203.314 0 .314zm-1.298-2.81c.203 0 .203-.314 0-.314-.201 0-.201.314 0 .314zm.217-2.813c.203 0 .203-.314 0-.314s-.203.314 0 .314zM20.415 57.548c.203 0 .203-.314 0-.314s-.203.314 0 .314zm-.962 2.884c.203 0 .203-.314 0-.314s-.203.314 0 .314zm38.893 50.146c.203 0 .203-.313 0-.313-.2 0-.203.313 0 .313zm-3.316 2.018c.202 0 .202-.313 0-.313s-.204.313 0 .313zm-3.029-.577c.203 0 .203-.313 0-.313s-.203.313 0 .313zm-2.307-.286c.203 0 .203-.314 0-.314-.202 0-.202.314 0 .314zm-1.154-1.01c.203 0 .203-.314 0-.314s-.203.314 0 .314zm-2.162-4.327c.203 0 .203-.314 0-.314s-.203.314 0 .314zm-.433.433c.203 0 .203-.314 0-.314s-.203.314 0 .314zm-.433-2.596c.203 0 .203-.313 0-.313s-.203.313 0 .313zm-1.01-3.749c.203 0 .203-.314 0-.314-.2 0-.203.314 0 .314zm.144-2.596c.203 0 .203-.313 0-.313-.2 0-.203.313 0 .313zm-.721-3.461c.203 0 .203-.313 0-.313-.201 0-.201.313 0 .313zm0-3.03c.203 0 .203-.314 0-.314-.201 0-.201.314 0 .314zm2.165-6.057c.202 0 .202-.313 0-.313-.204 0-.204.314 0 .314zm-2.454 2.885c.203 0 .203-.314 0-.314-.2 0-.2.314 0 .314zm.433-2.451c.203 0 .203-.314 0-.314-.2 0-.2.314 0 .314zm3.894-4.038c.203 0 .203-.314 0-.314-.2 0-.203.314 0 .314zm-2.74.865c.203 0 .203-.313 0-.313s-.203.313 0 .313z" fill="#000"/><path d="M47.819 81.736c.202 0 .202-.314 0-.314-.201 0-.203.314 0 .314zm.433-1.73c.202 0 .202-.314 0-.314-.203 0-.203.314 0 .314zm1.731-1.443c.203 0 .203-.314 0-.314s-.203.314 0 .314zm.72-.866c.202 0 .202-.313 0-.313-.201 0-.201.313 0 .313zm-8.974 13.654l.144-.144c.059-.059.063-.165 0-.222-.063-.056-.159-.063-.222 0l-.144.144c-.058.06-.063.166 0 .222a.158.158 0 00.222 0zm.899 3.221c.203 0 .203-.314 0-.314s-.203.314 0 .314zm-.288 4.036c.202 0 .202-.314 0-.314-.203 0-.203.314 0 .314zm2.018-2.163c.202 0 .202-.313 0-.313-.201 0-.203.313 0 .313zm-1.441 5.768c.203 0 .203-.314 0-.314s-.203.314 0 .314zm.719 3.028c.203 0 .203-.313 0-.313-.2 0-.2.313 0 .313zm.866 2.598c.203 0 .203-.314 0-.314-.2 0-.203.314 0 .314zm.721 2.306c.203 0 .203-.313 0-.313s-.203.313 0 .313zm1.862 1.575v.144c0 .082.07.161.156.157a.16.16 0 00.157-.157v-.144c0-.082-.07-.161-.157-.157a.158.158 0 00-.156.157zm3.618 1.598c.202 0 .202-.314 0-.314-.201 0-.201.314 0 .314zm3.317-1.585c.202 0 .202-.314 0-.314s-.202.314 0 .314zm-3.317-1.588c.202 0 .202-.313 0-.313-.201 0-.201.313 0 .313zm-2.596-3.894c.203 0 .203-.313 0-.313-.2 0-.203.313 0 .313zm-1.729-4.471c.203 0 .203-.313 0-.313s-.203.313 0 .313zm-.578-5.912c.203 0 .203-.313 0-.313-.202 0-.202.313 0 .313zm-.577-4.615c.203 0 .203-.314 0-.314s-.203.314 0 .314zm.145-3.173c.203 0 .203-.313 0-.313s-.203.313 0 .313zm6.922-10.527c.203 0 .203-.314 0-.314s-.203.314 0 .314zm-36.487 37.208c.203 0 .203-.314 0-.314-.2 0-.2.314 0 .314zm-3.749-1.443c.203 0 .203-.314 0-.314-.201 0-.201.314 0 .314zm-2.596-3.894c.203 0 .203-.314 0-.314-.2 0-.2.314 0 .314zm-.432-2.307c.202 0 .202-.314 0-.314-.201 0-.201.314 0 .314zm.865-3.461c.203 0 .203-.314 0-.314-.2 0-.202.314 0 .314zm1.155-4.038c.203 0 .203-.314 0-.314s-.203.314 0 .314zm.288-1.443c.203 0 .203-.314 0-.314-.202 0-.202.314 0 .314zm1.008-1.874c.203 0 .203-.314 0-.314-.2 0-.2.314 0 .314zm1.299-4.038c.203 0 .203-.314 0-.314s-.203.314 0 .314zm1.443-4.471c.203 0 .203-.314 0-.314s-.203.314 0 .314zm1.008-3.748c.203 0 .203-.313 0-.313-.2 0-.2.313 0 .313zm1.01-2.164c.203 0 .203-.314 0-.314s-.203.314 0 .314zm1.298-1.874c.204 0 .204-.314 0-.314-.202 0-.202.314 0 .314zm-2.452 2.307c.203 0 .203-.314 0-.314-.201 0-.201.314 0 .314zm.288-1.874c.203 0 .203-.314 0-.314-.2 0-.2.314 0 .314zm-1.296 4.325c.203 0 .203-.314 0-.314s-.203.314 0 .314zm-1.876 3.749c.203 0 .203-.313 0-.313-.2 0-.2.313 0 .313zm-1.441 3.028c.203 0 .203-.313 0-.313s-.203.314 0 .314zm-1.732 3.317c.203 0 .203-.314 0-.314-.2 0-.202.314 0 .314zm-1.585 3.03c.203 0 .203-.313 0-.313s-.203.313 0 .313zm-1.154 2.451c.203 0 .203-.313 0-.313s-.203.313 0 .313zm-.433 3.173c.203 0 .203-.314 0-.314-.2 0-.203.314 0 .314zm-.433 2.739c.203 0 .203-.313 0-.313-.2 0-.203.313 0 .313zm.289 3.029c.202 0 .202-.314 0-.314-.201 0-.203.314 0 .314zm1.443 2.597c.202 0 .202-.314 0-.314-.203 0-.203.314 0 .314zm2.018 2.74c.203 0 .203-.314 0-.314-.201 0-.203.314 0 .314zm7.21-1.011c.203 0 .203-.313 0-.313-.202 0-.202.313 0 .313zm-4.471-.865c.203 0 .203-.314 0-.314-.2 0-.2.314 0 .314zm-2.306-3.317c.202 0 .202-.314 0-.314-.203 0-.203.314 0 .314zm-2.884-2.451c.203 0 .203-.314 0-.314s-.203.314 0 .314zm.577-2.307c.203 0 .203-.313 0-.313s-.203.313 0 .313zm.575-3.461c.203 0 .203-.313 0-.313-.2 0-.2.313 0 .313zm.866-2.597c.203 0 .203-.314 0-.314-.2 0-.2.314 0 .314zm1.298-3.173c.203 0 .203-.313 0-.313-.202 0-.202.313 0 .313zm1.586-3.172c.203 0 .203-.314 0-.314-.201 0-.201.314 0 .314zm3.461-4.183c.203 0 .203-.313 0-.313-.201 0-.201.313 0 .313zm1.587-3.316c.203 0 .203-.314 0-.314s-.203.314 0 .314zm1.01-2.451c.203 0 .203-.314 0-.314s-.203.314 0 .314zm1.585-1.73c.203 0 .203-.314 0-.314-.2 0-.203.314 0 .314zm.144-.577c.203 0 .203-.314 0-.314-.2 0-.202.314 0 .314zm1.732 1.008c.203 0 .203-.314 0-.314s-.203.314 0 .314zm-6.346-3.317c.202 0 .202-.313 0-.313s-.202.313 0 .313zm8.076 4.327c.203 0 .203-.314 0-.314-.201 0-.203.314 0 .314zm-3.173 1.01c.203 0 .203-.314 0-.314s-.203.314 0 .314zm-.433-.866c.203 0 .203-.313 0-.313-.2 0-.203.313 0 .313zM18.4 85.34c.204 0 .204-.313 0-.313-.202 0-.202.314 0 .314zm-2.164 4.328c.203 0 .203-.314 0-.314-.2 0-.2.314 0 .314zm-5.623 12.545c.203 0 .203-.314 0-.314s-.203.314 0 .314zm-.144 4.471c.202 0 .202-.313 0-.313-.203 0-.203.313 0 .313zm2.018 3.173c.203 0 .203-.314 0-.314-.201 0-.201.314 0 .314zm2.308 3.172c.203 0 .203-.313 0-.313s-.203.313 0 .313zm41.965-2.306c.204 0 .204-.314 0-.314-.202 0-.202.314 0 .314zm-4.182-1.011c.203 0 .203-.313 0-.313s-.203.313 0 .313zm-2.453-2.883c.203 0 .203-.314 0-.314-.2 0-.2.314 0 .314zm-1.152-4.76c.203 0 .203-.314 0-.314s-.203.314 0 .314zm-1.876-5.191c.203 0 .203-.313 0-.313-.2 0-.2.313 0 .313zm-.433-4.471c.203 0 .203-.313 0-.313-.2 0-.2.313 0 .313zm-5.334 3.028c.202 0 .202-.313 0-.313-.203 0-.203.313 0 .313zm1.731-5.335c.203 0 .203-.313 0-.313s-.203.313 0 .313zm-1.731-1.875c.202 0 .202-.314 0-.314-.203 0-.203.314 0 .314zm18.892 20.191c.203 0 .203-.314 0-.314s-.203.314 0 .314zm-4.904 2.451c.203 0 .203-.314 0-.314s-.203.314 0 .314zm-6.345-1.876c.203 0 .203-.314 0-.314s-.203.314 0 .314zm-.721-5.046c.202 0 .202-.314 0-.314-.203 0-.203.314 0 .314zm-1.588-4.471c.203 0 .203-.314 0-.314-.2 0-.2.314 0 .314zM21.285 68.469c.203 0 .203-.314 0-.314s-.203.314 0 .314zm-.866-2.019c.203 0 .203-.313 0-.313-.201 0-.203.313 0 .313zm-.289-2.308c.203 0 .203-.314 0-.314-.2 0-.203.314 0 .314zm0-3.028c.203 0 .203-.314 0-.314-.2 0-.203.314 0 .314zm.722-1.874c.203 0 .203-.314 0-.314s-.203.314 0 .314z" fill="#000"/><path d="M20.419 61.258c.203 0 .203-.314 0-.314-.201 0-.203.314 0 .314zm-1.585 5.481c.203 0 .203-.314 0-.314s-.203.314 0 .314zm-.434-2.164c.204 0 .204-.314 0-.314-.202 0-.202.314 0 .314zm-.144-1.875c.203 0 .203-.313 0-.313-.202 0-.202.314 0 .314zm-.144-2.595c.203 0 .203-.313 0-.313s-.203.313 0 .313zm.864-1.875c.203 0 .203-.314 0-.314-.2 0-.2.314 0 .314zm-1.586 8.076c.203 0 .203-.314 0-.314-.202 0-.202.314 0 .314zm-.432-2.309c.203 0 .203-.313 0-.313-.201 0-.203.313 0 .313zm-.288-1.874c.202 0 .202-.313 0-.313s-.204.313 0 .313zm.288-2.018c.203 0 .203-.313 0-.313-.201 0-.203.313 0 .313zm.288 2.163c.203 0 .203-.314 0-.314-.202 0-.202.314 0 .314zm-1.298 4.615c.203 0 .203-.313 0-.313-.201 0-.201.313 0 .313zm-.288-2.597c.202 0 .202-.314 0-.314s-.202.314 0 .314zm8.22 4.327c.203 0 .203-.314 0-.314-.2 0-.203.314 0 .314zm2.018.433c.203 0 .203-.314 0-.314-.2 0-.2.314 0 .314zm3.461 0c.203 0 .203-.314 0-.314-.2 0-.2.314 0 .314zm4.471-.289c.203 0 .203-.314 0-.314-.2 0-.2.314 0 .314zm2.884-.433c.203 0 .203-.314 0-.314-.2 0-.2.314 0 .314zm-12.978-1.296c.203 0 .203-.314 0-.314-.201 0-.203.314 0 .314zm-2.307-2.021c.203 0 .203-.313 0-.313s-.203.313 0 .313zm.144-2.595c.203 0 .203-.313 0-.313s-.203.313 0 .313zm.577-3.317c.203 0 .203-.313 0-.313-.202 0-.202.313 0 .313zm0-.721c.203 0 .203-.314 0-.314-.202 0-.202.314 0 .314zm1.441 5.912c.203 0 .203-.314 0-.314-.2 0-.203.314 0 .314zm-.391 1.566c-.019-.004-.04-.008-.056-.016l.037.016c-.006-.002-.01-.006-.016-.01l.031.025c-.002-.002-.004-.004-.006-.004l.025.031-.004-.006.016.038-.002-.005.006.042v-.006l-.006.042c0-.002 0-.004.002-.006l-.016.037.004-.006-.025.031c.004-.006.01-.01.016-.017l-.03.026c.003-.005.01-.007.014-.01a26.256 26.256 0 00-.216-.057c.017.027.032.056.048.083a.154.154 0 00.095.072c.037.01.087.006.12-.017a.16.16 0 00.057-.216c-.017-.027-.031-.056-.048-.083a.161.161 0 00-.215-.057.241.241 0 00-.088.084.178.178 0 00-.01.159c.03.075.106.11.183.127a.164.164 0 00.122-.016.153.153 0 00.07-.094.164.164 0 00-.016-.122.169.169 0 00-.092-.065zm3.13.887c.204 0 .204-.314 0-.314-.2 0-.2.314 0 .314zm1.3 2.018c.202 0 .202-.314 0-.314-.203 0-.203.314 0 .314zm3.605.577c.203 0 .203-.313 0-.313s-.203.313 0 .313zm19.9-3.317c.203 0 .203-.313 0-.313-.2 0-.2.314 0 .314zm-.288-2.883c.203 0 .203-.314 0-.314-.201 0-.201.314 0 .314zm-.433-2.598c.203 0 .203-.313 0-.313-.2 0-.2.313 0 .313zm-.289 4.471c.203 0 .203-.313 0-.313-.2 0-.2.313 0 .313zm-.575-2.595c.203 0 .203-.313 0-.313s-.203.313 0 .313zm-.577 3.028c.203 0 .203-.313 0-.313s-.203.313 0 .313zm-2.451 2.451c.203 0 .203-.314 0-.314s-.203.314 0 .314zm2.884-1.008c.203 0 .203-.313 0-.313s-.203.313 0 .313zm-6.345-8.509c.203 0 .203-.314 0-.314s-.203.314 0 .314zm3.748 0c.202 0 .202-.314 0-.314-.201 0-.201.314 0 .314zm3.174-.866c.203 0 .203-.314 0-.314s-.203.314 0 .314zm2.451-.577c.203 0 .203-.314 0-.314s-.203.314 0 .314zm2.884-1.585c.203 0 .203-.314 0-.314s-.203.314 0 .314zm2.595-2.306c.203 0 .203-.315 0-.315-.2 0-.2.314 0 .314zm.722-3.318c.203 0 .203-.313 0-.313s-.203.313 0 .313zm2.884-3.03c.202 0 .202-.314 0-.314-.201 0-.203.314 0 .314zm.432-3.892c.203 0 .203-.313 0-.313-.2 0-.203.313 0 .313zm-1.01-3.319c.203 0 .203-.313 0-.313-.2 0-.2.313 0 .313zm0-3.747c.203 0 .203-.314 0-.314-.2 0-.2.314 0 .314zm-3.894-5.048c.203 0 .203-.314 0-.314-.2 0-.2.314 0 .314zm-3.172-1.874c.203 0 .203-.314 0-.314-.2 0-.2.314 0 .314zm5.048 14.852c.203 0 .203-.314 0-.314s-.203.314 0 .314zm-1.01 3.461c.203 0 .203-.314 0-.314-.2 0-.2.314 0 .314zm-1.585 2.884c.203 0 .203-.314 0-.314s-.203.314 0 .314zm-4.327 4.182c.203 0 .203-.313 0-.313s-.203.313 0 .313zm-.433 1.588c.203 0 .203-.314 0-.314-.2 0-.203.314 0 .314z" fill="#000"/><path d="M51.568 55.779c.203 0 .203-.314 0-.314-.2 0-.203.314 0 .314zm-2.739 0c.203 0 .203-.314 0-.314s-.203.314 0 .314zm.144.721c.203 0 .203-.313 0-.313s-.203.313 0 .313zm-1.876-1.01c.203 0 .203-.314 0-.314-.2 0-.2.314 0 .314zm-4.902.722c.203 0 .203-.314 0-.314s-.203.314 0 .314zm-3.605-.145c.203 0 .203-.313 0-.313s-.203.313 0 .313zm.866 1.585c.202 0 .202-.313 0-.313-.203 0-.203.313 0 .313zm-3.031-.288c.203 0 .203-.314 0-.314-.2 0-.2.314 0 .314zm-1.008-1.73c.203 0 .203-.313 0-.313s-.203.313 0 .313zM32.1 54.336c.203 0 .203-.314 0-.314-.202 0-.202.314 0 .314zm-2.308.288c.203 0 .203-.313 0-.313-.2 0-.2.313 0 .313zm.866 1.588c.203 0 .203-.314 0-.314-.201 0-.203.314 0 .314zm2.451.863c.203 0 .203-.313 0-.313-.201 0-.201.313 0 .313zM4.845 51.74c.203 0 .203-.313 0-.313s-.203.313 0 .313zm1.874-.577c.203 0 .203-.313 0-.313-.2 0-.203.313 0 .313zm-1.587-6.056c.202 0 .202-.314 0-.314-.201 0-.201.314 0 .314zM4.7 39.481c.204 0 .204-.313 0-.313-.202 0-.202.313 0 .313zm1.875-2.595c.202 0 .202-.314 0-.314-.201 0-.203.314 0 .314zm2.162-3.606c.203 0 .203-.313 0-.313-.2 0-.2.314 0 .314zm-4.902 5.482c.203 0 .203-.314 0-.314s-.203.314 0 .314zm48.189 27.856c-.26-2.537.086-5.201.193-7.744.008-.203-.306-.201-.314 0-.107 2.543-.454 5.207-.192 7.744.02.198.334.2.313 0zM14.56 67.805c.183-3.18.032-6.355-.442-9.506-.03-.2-.333-.115-.303.083.47 3.125.612 6.27.43 9.423-.01.201.304.201.314 0z" fill="#000"/></svg>