<svg width="1290" height="101" fill="none" xmlns="http://www.w3.org/2000/svg"><path d="M110.276 62.123c2.134.891 4.843.075 6.142-1.846m-37.02-25.811c2.134.89 4.844.074 6.142-1.847m669.351 15.736h3.108m56.985-35.145h3.108m358.658 29.791h3.11M1029.29 1h3.11m-56.536 54.156h3.108m124.278-38.68h3.11M772.436 76.56v-1.55m448.904-60.25v-1.55m-90.65 43.504v-1.55M948.012 44.94c-6.476 2.339-13.778 2.32-20.244-.046m-479.18-29.263c-6.476 2.338-13.778 2.32-20.244-.046m73.026 21.246l3.108-3.108m136.71-7.765h3.109m10.847 20.282c-2.069-.52-4.147-1.04-6.216-1.55M367.229 62.16a1409.77 1409.77 0 00-6.216-1.549m-114.852.77c-2.069-.52-4.148-1.04-6.217-1.55m354.642-35.423c1.039.52 2.069 1.04 3.108 1.55M272.77 18.591l-1.549 1.55M1278.22 42.222c-.52.52-1.03 1.04-1.55 1.55M168.997 21.226l-1.55 1.55m-132.972-7.97l-1.55 1.549m119.389 74.511c-.519-1.039-1.039-2.069-1.549-3.108m414.289 4.639a98.803 98.803 0 00-3.192-25.32c1.392 2.524 3.73 4.77 6.597 5.039 2.867.269 5.984-2.18 5.557-5.038-.12-.807-.482-1.642-.176-2.394.622-1.53 3.071-.853 3.971.529.9 1.382 1.206 3.21 2.524 4.203-.13-3.201 2.7-5.734 5.557-7.2 2.849-1.466 6.087-2.486 8.165-4.927.287 2.218.584 4.426.872 6.643 1.689-.13 2.895-1.595 4.24-2.625 1.345-1.02 3.618-1.475 4.481-.028.316.529.344 1.197.65 1.735.621 1.086 2.087 1.262 3.191 1.856 1.104.593 1.67 2.551.464 2.885.724-1.53 1.522-3.154 2.978-4.017 1.457-.863 3.758-.483 4.268 1.132.641 2.004-1.521 4.89.307 5.928.686.39 1.595.158 2.3.501 1.142.557 1.142 2.171.956 3.433l-.779 5.511c-.149 1.02-.195 2.264.658 2.84.928.63 2.181-.047 3.034-.79 1.865-1.623 3.387-3.609 5.317-5.149 1.929-1.54 4.462-2.625 6.847-1.994a56.391 56.391 0 0019.985 8.08M448.402 64.183c-3.813-10.623-10.818-20.087-19.882-26.813 3.924 5.669 7.468 11.755 9.064 18.463.872 3.665 1.141 7.44 1.401 11.198.26 3.646.52 7.302.464 10.958m-.418 2.096a.906.906 0 01.325.928c-1.076-6.207-4.24-12.043-8.861-16.329 3.869 9.538 2.552 21.005-3.377 29.42m82.992-4.499a43.599 43.599 0 01-6.16-21.961 77.905 77.905 0 01-8.276 13.768 14.577 14.577 0 00-4.778-9.26c-.409 2.97-.817 5.939-1.234 8.908-.334-1.346-2.171-1.773-3.433-1.197-1.262.566-2.097 1.763-2.988 2.82-.89 1.058-2.032 2.097-3.414 2.116-.928.018-1.809-.436-2.737-.539-.928-.102-2.078.372-2.115 1.309m-105.222-3.628c1.791-.482 3.674-.492 5.53-.492 10.873-.028 21.775-.046 32.556 1.28M381.35 35.32a671.38 671.38 0 01-.621 39.347m-23.715 15.828c-2.561-7.32-5.121-14.64-7.682-21.951.167 4.267.343 8.526.51 12.794a57.44 57.44 0 00-14.306-10.55c-.9-.472-1.856-.927-2.867-.964-.984-.037-1.93.325-2.849.65a65.414 65.414 0 01-9.927 2.709c-1.522.287-3.09.528-4.602.213-2.839-.594-5.019-3.006-7.849-3.665-2.227-.52-4.546.13-6.727.835a135.515 135.515 0 00-16.227 6.402c-2.421-2.644-5.149-5.456-8.703-5.947-2.467-.344-4.926.5-7.264 1.345a1064.77 1064.77 0 00-41.482 15.875m95.545-63.091c-1.401 1.912-1.531 4.445-1.596 6.82a555.652 555.652 0 00-.028 29.411M168.227 92.24a326.36 326.36 0 013.655-31.935c3.637 8.675 7.274 17.34 10.911 26.015a614.155 614.155 0 005.938-21.098 78.149 78.149 0 003.182 13.314 53.105 53.105 0 019.39-10.224 28.759 28.759 0 004.286 15.049 15.566 15.566 0 011.503-3.971 22.14 22.14 0 014.825 6.643M1 87.21c6.847-1.595 13.694-3.19 20.541-4.787 1.43-.334 2.867-.668 4.333-.686 1.856-.019 3.665.464 5.456.928 11.541 2.996 23.278 5.38 35.163 6.327 15.587 1.253 31.248.047 46.845-1.169m970.202-32.454c-1.11-3.155-2.21-6.3-3.33-9.454.81.844 1.09 2.05 1.33 3.191a194.44 194.44 0 014.02 34.347m-384.648-14.26c.547-.167.222 1.02-.297.77-.52-.25-.51-.974-.418-1.54 1.513-9.528 3.034-19.057 4.547-28.595 1.864 7.358 3.739 14.724 5.603 22.082a168.548 168.548 0 015.076-23.343c1.02 5.038 2.031 10.085 3.052 15.123a93.553 93.553 0 006.263-27.844 572.456 572.456 0 001.883 38.486 84.004 84.004 0 015.743-22.481l2.394 25.153c-.548-1.995.306-4.296 2.022-5.456a61.7 61.7 0 01.965 16.06m-53.266 11.811c4.166-3.062 8.332-6.114 12.498-9.176.798-.584 1.624-1.178 2.598-1.345 1.076-.176 2.162.213 3.191.584a85.9 85.9 0 0014.65 3.814c1.754.296 3.6.528 5.261-.093 2.783-1.03 4.657-4.25 7.617-4.324 1.197-.028 2.329.492 3.405 1.002a554.724 554.724 0 0117.777 8.805m43.079 2.514a259.748 259.748 0 0010.549-27.602c.195 3.777 3.377 6.606 6.142 9.186 2.765 2.579 5.557 6.067 4.667 9.75 1.067-5.51 4.852-10.437 9.899-12.896-.176 2.394 2.617 4.13 5.001 3.841 2.384-.287 4.37-1.892 6.272-3.367 1.893-1.476 4.036-2.95 6.439-2.914-.919 3.637 2.598 7.627 6.318 7.19 1.735-.203 3.962-.992 4.899.492.325.51.343 1.15.334 1.754a31.697 31.697 0 01-2.617 12.303m-35.925-8.703c8.332-24.401 23.056-46.585 42.298-63.75m45.574 73.473c-.009.436.631.613.984.371.352-.25.482-.705.584-1.122.789-3.294 1.578-6.588 2.357-9.872.52-2.19 1.132-4.528 2.811-6.022 1.559-1.391 3.739-1.78 5.799-2.087a223.61 223.61 0 0114.937-1.735c2.895-.241 5.901-.408 8.61.65 3.758 1.475 6.309 5.14 7.441 9.018 1.142 3.868 1.077 7.979 1.002 12.015m20.031-7.079a137.3 137.3 0 0116.923.24" stroke="#fff" stroke-width="2" stroke-miterlimit="10"/><path d="M730.09 70.084c.121-3.192.241-6.393.353-9.584-.167 4.12-.334 8.239-.492 12.367a39.928 39.928 0 001.234-15.884l-4.453 16.45c-.845-2.709-1.698-5.418-2.543-8.137a20.423 20.423 0 00-2.467 12.451c-.13-7.274-.27-14.547-.399-21.821-.269 6.94-.548 13.88-.817 20.81a4.373 4.373 0 011.206-3.637c-.324 2.468-3.164 3.953-5.641 3.711-2.477-.24-4.639-1.725-6.671-3.154.919 1.892 1.847 3.785 2.765 5.678l-3.711-5.994c-.464-.742-.937-1.53-.983-2.403-.214-4.128 7.441-3.386 9.278-7.088-1.624-.213-2.951-1.8-2.877-3.442l-.695 15.067c-1.337-2.43-3.099-5.121-5.855-5.474-2.755-.352-5.205 3.906-2.755 5.215M544.986 78.86c.12-3.19.241-6.392.352-9.583-.167 4.119-.334 8.239-.491 12.367a39.946 39.946 0 001.234-15.884l-4.454 16.45c-.844-2.71-1.698-5.418-2.542-8.137a20.424 20.424 0 00-2.468 12.451c-.13-7.274-.269-14.547-.399-21.821-.269 6.94-.547 13.88-.816 20.81a4.37 4.37 0 011.206-3.637c-.325 2.468-3.164 3.953-5.641 3.711-2.477-.24-4.639-1.725-6.671-3.154.918 1.892 1.846 3.785 2.765 5.678l-3.711-5.994c-.464-.742-.937-1.53-.984-2.403-.213-4.128 7.441-3.386 9.278-7.088-1.624-.213-2.95-1.8-2.876-3.442l-.696 15.067c-1.336-2.43-3.099-5.121-5.854-5.474-2.756-.352-5.205 3.906-2.756 5.215m368.41-3.934c.12-3.192.241-6.393.352-9.585-.167 4.12-.334 8.24-.492 12.368a39.91 39.91 0 001.234-15.884l-4.453 16.45c-.844-2.71-1.698-5.418-2.542-8.137a20.416 20.416 0 00-2.468 12.451c-.13-7.274-.269-14.548-.399-21.822-.269 6.94-.548 13.88-.817 20.81a4.37 4.37 0 011.207-3.636c-.325 2.468-3.164 3.952-5.641 3.711-2.478-.241-4.639-1.726-6.671-3.154.918 1.892 1.846 3.785 2.764 5.678l-3.711-5.994c-.464-.742-.937-1.53-.983-2.403-.214-4.129 7.441-3.386 9.278-7.088-1.624-.214-2.951-1.8-2.876-3.442l-.696 15.067c-1.336-2.43-3.099-5.121-5.855-5.474-2.755-.353-5.205 3.906-2.755 5.214m53.293-5.659c-1.29 2.44-2.589 4.88-3.878 7.32.176-3.034 1.503-5.993 3.674-8.127-.362 1.076-2.19-.195-1.68-1.207.511-1.01 1.875-1.16 3.007-1.169-.065 4.046 5.835 6.588 8.739 3.767-1.048 4.5-6.624 7.302-10.864 5.456a11.544 11.544 0 016.699-3.118 10.846 10.846 0 01-2.134 5.066 50.446 50.446 0 0122.471 2.756 72.3 72.3 0 00-25.375-3.814m-114.37-8.062c.863-.325 1.726-.64 2.589-.965-1.531 4.38-3.053 8.75-4.583 13.128 1.15-2.755 2.301-5.51 3.442-8.266-1.077.937.788 2.718 2.059 2.078 1.271-.64 1.624-2.264 1.819-3.674-.214 1.726-.418 3.46-.631 5.186-1.28-.482-2.885.548-2.978 1.911 7.552-1.466 14.455-8.693 21.692-6.086 2.366.854 4.267 2.681 6.587 3.665 2.319.983 5.585.724 6.615-1.577.548 1.373.381 3.006-.445 4.23 2.7-.695 5.39-1.391 8.09-2.087-9.621 4.787-21.636 4.388-30.914-1.04 7.181.9 14.566.093 21.386-2.328m-484.209 3.767a15.05 15.05 0 00-7.005-4.63m-3.219.371a9.376 9.376 0 00.64 5.066 61.805 61.805 0 00-6.355-12.275c.733 2.719 1.466 5.428 2.189 8.146-1.085-.937-2.171-1.883-3.256-2.82.612.825-.872 1.772-1.819 1.364-.946-.409-1.558-1.383-2.523-1.745-1.55-.584-3.164.64-4.806.863-2.051.27-3.971-1.048-6.031-1.317-2.06-.27-4.639 1.8-3.433 3.479-1.911-2.551-5.78-1.865-8.962-1.828-3.183.037-7.246-2.644-5.688-5.418-.677.705.297 2.097 1.197 1.707 1.114 1.113 3.043-1.048 2.143-2.347-.9-1.3-2.969-1.123-4.23-.177-1.262.947-2.014 2.403-2.997 3.637-.993 1.225-2.496 2.301-4.036 1.967-.817-.176-1.512-.742-2.338-.928-2.765-.658-4.843 2.942-7.682 3.192-1.726.158-3.275-.965-4.955-1.382-2.681-.678-5.52.436-8.257.046-2.737-.38-5.279-3.943-3.192-5.752a285.35 285.35 0 00-32.918 11.662m842.774-22.165a9.348 9.348 0 00.64 5.066 61.775 61.775 0 00-6.36-12.275c.74 2.719 1.47 5.428 2.19 8.146l-3.25-2.82c.61.826-.87 1.772-1.82 1.364-.95-.409-1.56-1.383-2.52-1.745-1.55-.584-3.17.64-4.81.863-2.05.27-3.97-1.048-6.03-1.317-2.06-.27-4.64 1.8-3.43 3.479-1.92-2.552-5.78-1.865-8.97-1.828-3.18.037-7.24-2.644-5.68-5.418-.68.705.29 2.097 1.19 1.707 1.12 1.113 3.05-1.048 2.15-2.347-.9-1.3-2.97-1.123-4.23-.177-1.27.947-2.02 2.403-3 3.637s-2.5 2.301-4.04 1.967c-.81-.176-1.51-.742-2.34-.928-2.76-.658-4.84 2.942-7.68 3.192-1.72.158-3.27-.965-4.95-1.382-2.68-.678-5.52.436-8.26.046-2.74-.38-5.28-3.943-3.19-5.752a285.28 285.28 0 00-32.919 11.662M103.717 92.444a36.231 36.231 0 01-9.863 2.904 6.976 6.976 0 015.242-.613c-7.821 3.517-16.904 1.336-25.134-1.076-1.076-.315-2.264-.63-3.284-.158-1.02.474-1.466 2.116-.501 2.691-4.222-1.271-8.452-2.551-12.674-3.822.78 1.67 1.55 3.34 2.329 5.01-8.786-5.966-19.688-8.74-30.256-7.701-.204-3.173-4.527-3.925-7.7-3.628a120.043 120.043 0 00-18.918 3.35m377.65.166a21.305 21.305 0 0110.021-2.19c-3.378.112-6.755.233-10.132.344a33.172 33.172 0 0013.416-2.31c.102.9.204 1.79.315 2.69a3.387 3.387 0 002.923.335m-197.584-1.828l-3.312-9.018c-.102 1.382-.195 2.764-.297 4.156a5.311 5.311 0 00-.816-4.527c-1.522 1.336-3.043 2.662-4.565 3.998-.677.594-1.494 1.225-2.375 1.049-2.978-.585-.436-7.682-3.442-7.284-.047 3.109-.102 6.226-.149 9.334m492.03.371l-3.313-9.018c-.102 1.383-.194 2.765-.296 4.157a5.312 5.312 0 00-.817-4.528c-1.521 1.336-3.043 2.663-4.565 3.999-.677.594-1.493 1.225-2.375 1.048-2.978-.584-.436-7.682-3.442-7.283-.046 3.108-.102 6.225-.148 9.334m-486.918 8.155c-.288-6.18-.585-12.358-.872-18.537a96.606 96.606 0 00-.631 18.166c.167-.89.325-1.874-.139-2.644-.464-.78-1.828-.993-2.199-.167m404.649-2.932a48.224 48.224 0 01-1.215-9.983 19.384 19.384 0 00-1.791 10.734 21.906 21.906 0 00-1.058-8.044 16.965 16.965 0 00-1.493 8.202c2.709-2.069 5-4.685 6.68-7.654-1.624 1.688-.965 4.834 1.057 6.012 2.023 1.178 4.825.455 6.319-1.355-1.012 1.568.723 3.702 2.579 3.888 1.856.185 3.6-.807 5.298-1.578 1.698-.77 3.785-1.308 5.353-.296.696.445 1.253 1.178 2.06 1.326.872.167 1.688-.38 2.458-.825 5.029-2.904 12.071-1.624 15.754 2.867M444.57 67.477a5.426 5.426 0 01.807-3.647c-.009 6.133-.027 12.266-.037 18.39.019-2.255.047-4.5.065-6.755l-.946 15.875a21.76 21.76 0 00-1.383-11.681 23.92 23.92 0 01-1.642 12.135c-2.254-1.503-3.553-4.323-3.228-7.014l-1.392 4.212c-.399-1.243-2.774-.241-2.162.91M835.34 76.578c-.325-.111-.659-.222-.984-.334m100.491 3.739c.334.084.668.167 1.002.242m5.111.686c-.074.288-.139.575-.213.863m148.893-7.951c-2.52-1.336-1.03-5.697 1.73-6.42 2.77-.724 5.57.797 8.04 2.235 2.47 1.439 5.33 2.895 8.06 2.042 2.01-.631 3.56-2.45 5.64-2.812 3.59-.63 6.21 3.1 8.92 5.54 5.15 4.638 12.68 5.186 19.6 5.501m-130.44 6.941c-.02-1.875-.05-3.758-.08-5.633-.01-.538 0-1.122.34-1.54.41-.5 1.14-.566 1.78-.584 8.35-.279 17.36.695 24.41-3.795" stroke="#fff" stroke-width="2" stroke-miterlimit="10"/><path d="M1022.78 76.81a4.34 4.34 0 00-3.54-.63c8.28-4.862 17.94-7.321 27.55-7.015 4.73.149 9.49.956 14.17.288m112.51 5.215c-.96-.89-.28-2.505.58-3.516 5.44-6.504 15.87-8.119 23.02-3.554 1.91 1.216 3.89 2.876 6.12 2.505 2.02-.334 3.37-2.236 5.17-3.228 2.15-1.188 4.77-.993 7.21-.668a98.03 98.03 0 0118.71 4.379m-32.36 10.852c5.96 3.785 13.76 2.217 20.48.046 5.86-1.892 11.6-4.156 17.18-6.763 1.85-.863 3.78-1.791 5.82-1.717 1.57.056 3.05.705 4.5 1.308a84.127 84.127 0 0039.19 5.975" stroke="#fff" stroke-width="2" stroke-miterlimit="10"/><path d="M1201.59 79.457c-2.1-.909-4.72 2.366-6.48.9-1.34-1.104-.13-3.228 1.08-4.462-.99.352-1.99.705-2.98 1.048-.12-.918-.22-1.837-.33-2.755-1.31 1.753-4.67.974-5.06-1.188l-6.99 3.98a4.905 4.905 0 002.31-3.84l-6.35 5.056c.08-.974.15-1.958.23-2.932a57.214 57.214 0 01-11.95 1.642c.2-1.002.41-2.004.62-2.997a11.71 11.71 0 00-6.47 3.61c.28-.891.57-1.782.85-2.663a6.518 6.518 0 00-4.09 2.82c-.18-1.336-.37-2.672-.55-4.017-2.44-.037-4.22 2.412-4.77 4.778-.56 2.375-.37 4.899-1.15 7.209-.78 2.31-3.12 4.435-5.45 3.72-1.32-.408-2.22-1.586-3.3-2.44-1.09-.853-2.79-1.345-3.76-.37m-6.31-2.268c-4.24-3.451-8.48-6.912-12.71-10.363-.54-.445-1.13-.91-1.83-.984-.95-.102-1.8.53-2.55 1.123l-5.31 4.259c.17-1.067.33-2.134.5-3.21-1.94 2.013-3.88 4.017-5.82 6.03.17-1.373.06-3.192-1.27-3.563-.96-.269-1.88.483-2.85.743-1.77.473-3.62-.808-4.44-2.44-.82-1.633-.84-3.545-.84-5.382-1.41-.13-2.71 1.373-2.38 2.756m125.62 14.147c-.82-1.049-2.27-1.55-3.56-1.244 6.05-1.53 12.1-3.052 18.14-4.583a18.504 18.504 0 01-8.16 4.259c4.17-1.995 8.33-3.99 12.49-5.975-.67.213-.61 1.29-.05 1.707.57.417 1.34.37 2.05.306 2.89-.27 5.79-.547 8.68-.816-.83 1.688-2.62 2.866-4.49 2.987 6.82-3.646 14.95-4.76 22.49-3.08a5.788 5.788 0 01-2.77 4.026l15.81.056" stroke="#fff" stroke-width="2" stroke-miterlimit="10"/></svg>