<svg version="1.1" id="Layer_1" xmlns="http://www.w3.org/2000/svg" x="0" y="0" viewBox="0 0 1402.45 989.3" xml:space="preserve"><style>.st0{fill:#fff}.st1{fill:none;stroke:#000;stroke-width:2;stroke-miterlimit:10}</style><path class="st0" d="M846.42 491l4.6-5.4 2.64-4.78-.37-4.48-3.68-7.61-5.15-7.42-6.75-4.78-5.46-1.54-3.8.49-3.25.92-.61 3.99-2.27 4.11-3.38 5.58-1.47 4.3-.37 4.04 1.17 4.97 2.47 4.72 2.25 3.19 3.25 2.83 3.19 1.9 4.36.92 4.05-.31 3.92-1.96z"/><path class="st0" d="M832.25 454.99l5.46 1.53 6.75 4.78 5.15 7.42 3.68 7.61.37 4.48-2.64 4.78-4.6 5.4-4.66 3.68-3.93 1.96-4.05.31-4.35-.92-3.19-1.9-3.25-2.82-2.25-3.19-2.48-4.72-1.17-4.97.37-4.05 1.47-4.29 3.37-5.58 2.27-4.11.61-3.99 3.25-.92 3.82-.49m0-4c-.17 0-.34.01-.51.03l-3.8.49c-.2.03-.39.06-.58.12l-3.25.92a3.98 3.98 0 00-2.86 3.24l-.51 3.28-1.89 3.42-3.33 5.52c-.15.24-.27.5-.36.77l-1.47 4.29c-.1.3-.17.62-.2.94l-.37 4.05c-.04.43-.01.86.09 1.28l1.17 4.97c.08.33.2.64.35.94l2.48 4.72c.08.15.17.3.27.45l2.25 3.19c.19.26.4.5.65.72l3.25 2.82c.18.15.37.29.57.41l3.19 1.9c.38.23.79.39 1.22.48l4.35.92c.27.06.55.09.83.09.1 0 .2 0 .3-.01l4.05-.31c.52-.04 1.02-.18 1.49-.41l3.93-1.96c.24-.12.48-.27.69-.44l4.66-3.68c.21-.16.4-.35.57-.54l4.6-5.4c.17-.21.33-.43.46-.66l2.64-4.78c.38-.69.55-1.47.48-2.26l-.37-4.48c-.04-.49-.17-.97-.39-1.41l-3.68-7.61c-.09-.19-.2-.37-.31-.54l-5.15-7.42c-.26-.38-.59-.71-.97-.98l-6.75-4.78c-.37-.27-.79-.46-1.23-.59l-5.46-1.53c-.37-.12-.73-.17-1.1-.17zm-58.96 1.2l-2.62-9.64-4.25-7.49-5.17-5.26-6.59-3.97-6.38-1.84-5.6-.22-6.38 1.92-3.4 12.4-3.68 10.56-4.54 10.48-6.09 8.29-7.23 7.3-11.76 7.65-12.05 7.09-8.99 5.46-8.72 7.58-6.94 8.86-6.1 11.05-4.18 9.56-3.75 12.9-2.56 11.48-.42 12.05.92 8.92 3.26 9.85 4.68 8.43 6.16 7.59 8.08 6.87 11.69 6.52 13.39 3.61 11.06 1.14 11.55-.92 11.19-2.63 11.76-4.11 11.48-6.59 7.44-6.16 5.46-6.87 4.39-6.31 3.33-7.72 2.27-7.94 1.35-15.87-.85-12.97-1.14-9.28-1.2-12.61-.99-10.85-.22-11.9 1.56-12.68 1.35-12.19.35-9.71-.07-7.3-.85-4.53"/><path class="st0" d="M705.13 623.33c-.07 0-.14 0-.2-.01l-11.05-1.13c-.11-.01-.21-.03-.32-.06l-13.39-3.61c-.16-.04-.31-.1-.45-.18l-11.69-6.52c-.11-.06-.22-.14-.32-.22l-8.08-6.87a3.19 3.19 0 01-.26-.26l-6.17-7.58c-.07-.09-.14-.19-.2-.29l-4.68-8.43c-.06-.11-.11-.22-.15-.34l-3.26-9.85a1.58 1.58 0 01-.09-.42l-.92-8.93c-.01-.09-.01-.18-.01-.28l.43-12.05c0-.12.02-.24.05-.36l2.55-11.48c.01-.04.02-.08.03-.13l3.76-12.9c.02-.08.05-.16.09-.24l4.18-9.57c.02-.06.05-.11.08-.16l6.09-11.05c.05-.09.11-.18.18-.27l6.94-8.86c.08-.1.17-.19.26-.27l8.72-7.58c.09-.08.18-.14.28-.2l9-5.46 12.07-7.1 11.51-7.49 6.97-7.04 5.87-7.99 4.42-10.21 3.64-10.42 3.38-12.33c.18-.67.69-1.19 1.35-1.39l6.38-1.91c.21-.06.43-.09.65-.08l5.6.21c.16.01.32.03.48.08l6.38 1.84c.17.05.33.12.48.21l6.59 3.97c.14.09.28.19.39.31l5.17 5.26c.12.12.23.26.31.42l4.25 7.5c.08.15.15.3.19.46l2.62 9.64c.01.05.03.1.04.16l.85 4.53c.02.12.03.23.03.35l.07 7.3-.36 9.8c0 .05-.01.1-.01.15l-1.35 12.19-1.55 12.57.21 11.69.99 10.77 1.2 12.6 1.13 9.23c0 .04.01.07.01.11l.85 12.97c.01.1 0 .2 0 .3l-1.35 15.87c-.01.13-.03.26-.07.38l-2.27 7.94c-.02.08-.05.16-.09.24l-3.33 7.72c-.05.12-.12.24-.2.35l-4.39 6.31c-.02.04-.05.07-.08.1l-5.46 6.87c-.09.11-.18.21-.29.3l-7.44 6.17c-.09.07-.18.14-.28.19l-11.48 6.59c-.11.06-.22.11-.34.15l-11.76 4.11-.2.06-11.2 2.62c-.1.02-.2.04-.3.05l-11.55.92c-.03-.05-.08-.04-.13-.04zm-10.69-5.11l10.71 1.1 11.22-.89 10.95-2.56 11.49-4.01 11.17-6.41 7.15-5.92 5.29-6.66 4.24-6.09 3.2-7.42 2.18-7.63 1.32-15.53-.84-12.76-1.13-9.23-2.2-23.51c0-.05-.01-.1-.01-.15l-.21-11.9c0-.09 0-.19.01-.28l1.56-12.68 1.33-12.09.35-9.63-.07-7.03-.8-4.28-2.54-9.32-4-7.05-4.81-4.89-6.15-3.7-5.89-1.7-5.02-.19-5 1.5-3.11 11.33c-.01.04-.03.09-.04.13l-3.68 10.56c-.02.05-.03.09-.05.13l-4.54 10.49c-.06.14-.13.27-.22.39l-6.09 8.29a2 2 0 01-.19.22l-7.23 7.3c-.1.1-.21.19-.33.27l-11.76 7.65-12.12 7.13-8.83 5.35-8.44 7.34-6.73 8.58-5.97 10.83-4.09 9.36-3.7 12.71-2.5 11.24-.41 11.72.88 8.57 3.13 9.46 4.5 8.11 5.94 7.3 7.79 6.63 11.3 6.3 12.99 3.52zm-477.52-76.15l-4.9-4.2-5.88-1.72-5.13-.14-6.63 1.93-4.83 3.15-6.97 5.38-11.88 12.79-8.4 11.5-3.63 6.81-2.04 9.61-1.59 12.57-1.29 8.25-3.1 8.24-5 8.41-10.37 13.69-6.28 9.99-3.25 8.03-1.21 7.56.53 7.95 2.27 8.55 2.72 5.45 4.39 6.21 5.9 5.6 7.72 5.14 9.46 6.13 5.81 5.03 4.71 5.95 4.92 8.1 5.38 7.34 4.46 4.23 4.16 2.35 4.09.76 5.83-.68 5.9-2.05 22.4-15.74 27.25-19.75 21.34-15.14 8.1-6.43 6.05-6.06 4.39-6.81 2.2-4.69 1.66-7.34.68-9.99-.75-8.4-2.27-9.08-3.94-9.92-4.92-10.06-7.95-13.93-15.51-26.18-9.54-14.91-9.08-9.99-5.9-3.71-6.74-2.35-4.92-.3-6.05 1.36z"/><path class="st0" d="M201.01 536.01l5.13.14 5.88 1.73 4.9 4.2 2.37-1.51 6.05-1.36 4.92.3 6.74 2.35 5.9 3.71 9.08 9.99 9.54 14.91 15.51 26.19 7.95 13.93 4.92 10.07 3.94 9.91 2.27 9.08.76 8.4-.68 9.99-1.66 7.34-2.19 4.69-4.39 6.81-6.05 6.05-8.1 6.43-21.34 15.14-27.25 19.75-22.4 15.74-5.9 2.04-5.83.68-4.09-.76-4.16-2.35-4.47-4.24-5.37-7.34-4.92-8.1-4.72-5.95-5.8-5.02-9.46-6.13-7.72-5.15-5.9-5.6-4.39-6.21-2.72-5.45-2.27-8.55-.53-7.95 1.21-7.57 3.25-8.02 6.28-9.99 10.37-13.7 4.99-8.4 3.1-8.25 1.29-8.25 1.59-12.56 2.04-9.61 3.63-6.81 8.4-11.5 11.88-12.79 6.96-5.37 4.83-3.15 6.63-1.93m0-4c-.38 0-.75.05-1.12.16l-6.64 1.93c-.38.11-.74.28-1.07.49l-4.83 3.15c-.09.06-.17.12-.26.18l-6.96 5.37c-.17.13-.34.28-.49.44l-11.88 12.79c-.11.12-.21.24-.3.36l-8.4 11.5c-.11.15-.21.31-.3.48l-3.63 6.81c-.18.33-.31.68-.38 1.05l-2.04 9.61-.06.33-1.58 12.51-1.21 7.79-2.83 7.53-4.7 7.9-10.23 13.52c-.07.09-.14.19-.2.28l-6.28 9.99c-.12.2-.23.41-.32.63l-3.25 8.02c-.11.28-.2.57-.24.87l-1.21 7.57c-.05.3-.06.6-.04.9l.53 7.95c.02.26.06.51.13.76l2.27 8.55c.07.26.17.52.29.76l2.72 5.45c.09.18.19.36.31.52l4.39 6.21c.15.21.32.41.51.59l5.9 5.6c.17.16.34.3.53.43l7.72 5.15c.01.01.03.02.04.03l9.23 5.98 5.31 4.6 4.33 5.46 4.79 7.88c.06.1.12.19.19.29l5.37 7.34c.14.19.3.37.47.54l4.47 4.24c.24.23.5.42.79.58l4.16 2.35c.38.22.8.37 1.24.45l4.09.76c.24.04.48.07.73.07.15 0 .31-.01.46-.03l5.83-.68c.29-.03.57-.1.84-.19l5.9-2.04c.35-.12.69-.29.99-.51l22.4-15.74c.02-.01.03-.02.05-.03l27.25-19.75 21.31-15.11c.06-.04.12-.09.17-.13l8.1-6.43c.12-.09.23-.2.34-.3l6.05-6.05c.2-.2.38-.42.53-.66l4.39-6.81c.1-.15.18-.31.26-.47l2.19-4.69c.12-.26.21-.53.28-.81l1.66-7.34c.05-.2.08-.41.09-.61l.68-9.99c.01-.21.01-.42-.01-.63l-.76-8.4c-.02-.21-.05-.41-.1-.61l-2.27-9.08c-.04-.17-.1-.34-.16-.51l-3.94-9.91c-.04-.1-.08-.19-.12-.28l-4.92-10.07c-.04-.08-.08-.15-.12-.23l-7.95-13.93-.03-.06-15.51-26.19c-.02-.04-.05-.08-.07-.12l-9.54-14.91c-.12-.19-.26-.37-.41-.54l-9.08-9.99c-.24-.27-.52-.5-.83-.7l-5.9-3.71c-.26-.16-.53-.29-.81-.39l-6.74-2.35c-.35-.12-.71-.19-1.07-.22l-4.92-.3c-.08-.01-.16-.01-.25-.01-.3 0-.59.03-.88.1l-6.05 1.36c-.4.09-.78.24-1.14.45l-2.65-2.27c-.43-.37-.93-.64-1.48-.8l-5.88-1.73c-.33-.1-.67-.15-1.02-.16l-5.13-.14h-.09zm204.94-112.73s-2.39-15.92-4.6-23.35c-2.21-7.43-9.64-23.88-11.94-28.39-2.3-4.51-10.35-19.46-13.89-24.68-3.54-5.22-13.44-15.83-13.44-15.83l-9.46-6.63-8.49-4.42-8.23-1.15-7.16.44-8.84 2.65-4.25 2.12-1.86 7.25-14.77 22.2-15.83 23-11.06 15.83-5.93 11.5-2.65 8.84-.09 9.64 3.45 10.88 7.43 12.12 12.29 13.18 11.76 10.97 15.48 10.61 12.03 5.66 9.82 2.65 9.91 1.06 10.35-.88 11.41-2.56 10.35-4.95 9.46-6.72 6.9-8.23 4.95-8.58 4.33-10.88 2.48-13.8.09-9.55z"/><path class="st0" d="M335.91 314.83l8.23 1.15 8.49 4.42 9.46 6.63s9.91 10.61 13.44 15.83c3.54 5.22 11.59 20.16 13.89 24.68 2.3 4.51 9.73 20.96 11.94 28.39 2.21 7.43 4.6 23.35 4.6 23.35l-.09 9.55-2.48 13.8-4.33 10.88-4.95 8.58-6.9 8.23-9.46 6.72-10.35 4.95-11.41 2.56-10.35.88-9.91-1.06-9.82-2.65-12.03-5.66-15.48-10.61-11.76-10.97-12.29-13.18-7.43-12.12-3.45-10.88.09-9.64 2.65-8.84 5.93-11.5 11.06-15.83 15.83-23 14.77-22.2 1.86-7.25 4.25-2.12 8.84-2.65 7.16-.44m0-4c-.08 0-.16 0-.25.01l-7.16.44c-.31.02-.61.07-.9.16l-8.84 2.65c-.22.07-.43.15-.64.25l-4.25 2.12a4 4 0 00-2.09 2.59l-1.69 6.59-14.38 21.61-15.81 22.97-11.04 15.81c-.1.15-.19.3-.28.46l-5.93 11.5c-.11.22-.21.45-.28.68l-2.65 8.84c-.11.36-.17.74-.17 1.11l-.09 9.64c0 .42.06.84.19 1.25l3.45 10.88c.1.31.23.61.4.88l7.43 12.12c.14.23.3.44.49.64l12.29 13.18c.06.07.13.13.2.2l11.76 10.97c.15.14.3.26.47.37l15.48 10.61c.18.12.36.23.56.32l12.03 5.66c.21.1.43.18.66.24l9.82 2.65c.2.05.41.09.62.12l9.91 1.06c.14.02.28.02.43.02.11 0 .23 0 .34-.01l10.35-.88c.18-.02.36-.04.54-.08l11.41-2.56c.29-.07.58-.16.85-.29l10.35-4.95c.21-.1.4-.21.59-.35l9.46-6.72c.28-.2.53-.43.75-.69l6.9-8.23c.15-.18.28-.37.4-.57l4.95-8.58c.1-.17.18-.34.25-.52l4.33-10.88c.1-.25.17-.51.22-.77l2.48-13.8c.04-.22.06-.45.06-.67l.09-9.55c0-.21-.01-.42-.04-.63-.1-.66-2.46-16.29-4.72-23.9-2.36-7.93-10.08-24.89-12.21-29.07-2.11-4.13-10.36-19.53-14.14-25.1-3.67-5.41-13.42-15.87-13.83-16.32-.19-.2-.4-.39-.63-.55l-9.46-6.63c-.14-.1-.29-.19-.45-.27l-8.49-4.42c-.4-.21-.84-.35-1.29-.41l-8.23-1.15c-.2-.03-.39-.05-.57-.05z"/><path class="st1" d="M499.35 539.55a120.259 120.259 0 00-34.46 20.96"/><path class="st0" d="M463.18 572.01l1.63 3.66 3.09 2.36 4.8.73 3.01-1.22 1.3-3.01-1.55-5.37 1.06-4.71 3.35-3.62 9.34-5.49 13.5-5.94 5.4-1.55 4.38 2.8 4.54 2.08 5.3 1.04 3.91-1.08 1.42-2.21-.17-3.46-2.45-3.92-3.7-2.08-3.35-.59-2.38-.29 1.59-1.23 2.69-2.09 2.08-4.22-.05-2.76-1.31-1.74-3.79-1.21-6.12.74-5.07 2.33-3.52 3.47-1.86 3.79-1.16 2.19-6.65 2.81-9.45 5.1-6.67 4.11-10.35 7.79-3.84-2.62-5.64-1.36-4.64.72-4.17 3.78-1.07 4.86.93 3.64 2.31 3 3.97 2.24 5.43-.07z"/><path class="st0" d="M516.82 526.89l3.79 1.22 1.31 1.74.05 2.76-2.07 4.21-2.69 2.1-1.59 1.23 2.38.29 3.35.58 3.7 2.08 2.46 3.92.17 3.46-1.42 2.21-3.92 1.08-5.29-1.04-4.54-2.08-4.38-2.79-5.4 1.54-13.5 5.94-9.34 5.5-3.35 3.61-1.06 4.72 1.55 5.37-1.3 3.01-3.01 1.22-4.8-.73-3.09-2.36-1.63-3.66-3.93 1.4-5.43.07-3.98-2.24-2.31-3-.93-3.64 1.07-4.86 4.17-3.79 4.64-.71 5.64 1.36 3.83 2.62 10.36-7.79 6.67-4.12 9.45-5.1 6.64-2.81 1.17-2.19 1.86-3.79 3.52-3.48 5.07-2.33 6.11-.73m0-4c-.16 0-.32.01-.48.03l-6.12.74c-.41.05-.81.16-1.19.34l-5.07 2.33c-.42.19-.81.46-1.14.79l-3.52 3.48c-.32.32-.58.68-.78 1.09l-1.83 3.73-.47.88-5.34 2.26c-.12.05-.23.1-.34.16l-9.45 5.1c-.07.04-.14.08-.2.12l-6.67 4.12c-.1.06-.2.13-.3.21l-8.06 6.06-1.47-1c-.4-.27-.85-.47-1.32-.59l-5.64-1.36c-.31-.07-.62-.11-.94-.11-.2 0-.41.02-.61.05l-4.64.71c-.78.12-1.5.46-2.08.99l-4.17 3.79c-.61.56-1.04 1.29-1.22 2.1l-1.07 4.86c-.13.61-.12 1.24.03 1.85l.93 3.64c.13.53.37 1.02.71 1.45l2.31 3c.33.43.74.78 1.21 1.05l3.98 2.24c.6.34 1.28.51 1.96.51h.05l5.43-.07c.44-.01.88-.08 1.29-.23l.44-.16.12.27c.27.61.7 1.15 1.23 1.56l3.09 2.36c.53.41 1.16.67 1.82.77l4.8.73c.2.03.4.05.6.05.51 0 1.02-.1 1.5-.29l3.01-1.22c.97-.39 1.75-1.16 2.17-2.12l1.3-3.01c.37-.85.43-1.8.17-2.69l-1.26-4.39.6-2.67 2.22-2.39 8.63-5.08 13.04-5.73 3.4-.97 2.86 1.82c.16.1.32.19.48.26l4.54 2.08c.29.13.59.23.9.29l5.29 1.04c.26.05.51.08.77.08.36 0 .72-.05 1.07-.14l3.92-1.08c.95-.26 1.77-.87 2.3-1.7l1.42-2.21c.45-.7.67-1.52.63-2.35l-.17-3.46c-.03-.69-.24-1.35-.61-1.93l-2.46-3.92c-.35-.56-.84-1.03-1.42-1.36l-3.15-1.78 1.71-3.47c.28-.57.42-1.2.41-1.83l-.05-2.76c-.01-.84-.3-1.66-.8-2.34l-1.31-1.74c-.5-.66-1.19-1.15-1.97-1.4l-3.79-1.22c-.4-.16-.81-.22-1.23-.22zm2.85-186.46l7.13 8.69 6.17 10.35 5.82 11.56 1.49 2.77 14.3-5.8 12.93-4.33 15.19-4.13 18.78-4.13 17.94-2.26 4.57-.29 4.03-3.05s2.06-4.03 2.56-6.19c.49-2.16-.25-9.19-1.18-11.4-.93-2.21-2.51-7.03-4.03-8.85-1.52-1.82-3.1-3.69-3.1-3.69l-4.33-.25s-2.51.1-3.83.64c-1.33.54-4.38 2.11-4.38 2.11l-7.03-5.11-1.08 13.08-6.39 5.41-6.83-4.67-2.11-.54-1.82 10.96-5.51 1.97-3.83 1.38-3.2-2.56-3.74-3.1-1.23 2.06-3.29 4.82-5.41-.79-4.67-2.8-5.6-5.11-4.77-7.42-2.7-6.24-1.23-6.88.1-5.31 9.49 1.97 9.73.84 2.7 3.39 2.8 3 3.15-6.69 7.37-1.33 3.44 3.79 2.36 1.38 3-7.28 4.18-.74 6.24 4.33.54-.69.69-5.95 4.52-1.33 3.54-1.67 2.46 2.7 3.05 1.47.64-1.03 1.13-8.26 3.54-3.59 4.87-6.49 1.77-3.98-2.75-10.27s-2.95-9.59-4.03-11.06c-1.08-1.47-3.49-4.87-5.46-6.78-1.97-1.92-6-4.33-9.24-4.28-3.24.05-6.98 1.28-7.57 2.65-.59 1.38-2.51 4.08-2.51 4.08l-5.55 5.36s-6.59 5.8-18.68 9.49c-12.09 3.69-26.71 4.35-34.54 4.78-7.82.43-19.86-.09-19.86-.09s-1.81-1.12-22.01.34-35.42 3.7-47.88 11.09c-12.47 7.39-15.99 10.75-15.99 10.75s-4.21 6.36-3.95 13.5c.26 7.14.6 12.29 2.92 19.51 2.32 7.22 7.48 13.07 10.4 15.9 2.92 2.84 13.58 9.03 22.44 10.4 8.85 1.38 18.66.43 24.84-.43s17.11-3.44 23.99-5.5c6.88-2.06 10.23-6.45 11.26-7.39s2.16-4.4 2.16-4.4l1.08-2.39z"/><path class="st0" d="M599.22 248.77c3.23 0 7.2 2.38 9.14 4.28 1.97 1.92 4.38 5.31 5.46 6.78 1.08 1.47 4.03 11.06 4.03 11.06l2.75 10.27-1.77 3.98-4.87 6.49-3.54 3.59-1.13 8.26-.64 1.03-3.05-1.47-2.46-2.7-3.54 1.67-4.52 1.33-.69 5.95-.54.69-6.24-4.33-4.18.74-3 7.28-2.36-1.38-3.44-3.79-7.37 1.33-3.15 6.69-2.8-3-2.7-3.39-9.73-.84-9.49-1.97-.1 5.31 1.23 6.88 2.7 6.24 4.77 7.42 5.6 5.11 4.67 2.8 5.41.79 3.29-4.82 1.23-2.06 3.74 3.1 3.2 2.56 3.83-1.38 5.51-1.97 1.82-10.96 2.11.54 6.83 4.67 6.39-5.41 1.08-13.08 7.03 5.11s3.05-1.57 4.38-2.11c1.33-.54 3.83-.64 3.83-.64l4.33.25 3.1 3.69c1.52 1.82 3.1 6.64 4.03 8.85.93 2.21 1.67 9.24 1.18 11.4s-2.56 6.19-2.56 6.19l-4.03 3.05-4.57.29-17.94 2.26-18.78 4.13-15.19 4.13-12.92 4.34-14.3 5.8-1.49-2.77-5.82-11.56-6.17-10.35-7.13-8.69-1.07 2.4s-1.13 3.45-2.16 4.4c-1.03.95-4.38 5.33-11.26 7.39-6.88 2.06-17.8 4.64-23.99 5.5-3.93.55-9.31 1.13-14.98 1.13-3.27 0-6.63-.19-9.87-.7-8.85-1.38-19.51-7.57-22.44-10.4-2.92-2.84-8.08-8.68-10.4-15.9-2.32-7.22-2.67-12.38-2.92-19.51-.26-7.14 3.95-13.5 3.95-13.5s3.52-3.35 15.99-10.75c12.47-7.39 27.68-9.63 47.88-11.09 7.99-.58 13.1-.75 16.36-.75 4.99 0 5.65.41 5.65.41s6 .26 12.28.26c2.62 0 5.28-.04 7.58-.17 7.82-.43 22.44-1.09 34.54-4.78s18.68-9.49 18.68-9.49l5.55-5.36s1.92-2.7 2.51-4.08c.59-1.38 4.33-2.61 7.57-2.65.03-.02.06-.02.09-.02m0-4h-.16c-3.14.05-9.51 1.17-11.19 5.08-.23.54-1.12 1.94-1.88 3.04l-5.19 5.01c-.59.5-6.67 5.43-17.16 8.62-11.13 3.39-24.57 4.12-32.6 4.56l-.99.05c-1.99.11-4.47.17-7.36.17-5.09 0-10.05-.17-11.6-.23-1.08-.26-2.89-.43-6.32-.43-4.05 0-9.65.26-16.65.76-21.65 1.57-36.71 3.97-49.64 11.64-12.49 7.41-16.31 10.91-16.71 11.29-.22.21-.41.44-.58.69-.2.3-4.92 7.53-4.62 15.85.27 7.43.63 12.87 3.11 20.59 2.63 8.17 8.29 14.5 11.42 17.55 3.28 3.18 14.62 9.93 24.61 11.48 3.17.49 6.7.74 10.48.74 4.74 0 9.97-.39 15.53-1.16 6.68-.93 17.96-3.65 24.58-5.63 6.92-2.08 10.78-6.14 12.43-7.88.16-.17.29-.31.39-.4.59-.54 1.12-1.29 1.59-2.13l2.78 3.39 5.95 9.97 5.76 11.43c.02.03.03.06.05.09l1.49 2.77a4.014 4.014 0 005.03 1.82l14.19-5.75 12.7-4.25 14.98-4.07 18.51-4.07 17.64-2.22 4.45-.29c.78-.05 1.53-.33 2.15-.8l4.03-3.05c.48-.36.87-.83 1.15-1.37.38-.75 2.32-4.61 2.9-7.13.61-2.71-.03-10.6-1.4-13.85-.2-.48-.47-1.17-.74-1.89-1.32-3.45-2.44-6.22-3.91-7.97l-3.1-3.69a4.034 4.034 0 00-2.83-1.42l-4.33-.25c-.08 0-.15-.01-.23-.01h-.16c-.75.03-3.35.18-5.19.93-.65.27-1.61.72-2.49 1.15l-5.06-3.68a3.98 3.98 0 00-2.35-.77c-.57 0-1.13.12-1.67.36-1.31.6-2.2 1.87-2.32 3.31l-.94 11.42-2.8 2.37-4.32-2.95c-.39-.26-.81-.46-1.27-.57l-2.11-.54c-.33-.08-.66-.12-.99-.12-.77 0-1.53.22-2.19.65-.94.61-1.58 1.59-1.76 2.7l-1.43 8.64-3.29 1.18-1.74.62-1.42-1.14-3.71-3.07a3.993 3.993 0 00-3.23-.86c-1.15.2-2.16.89-2.76 1.9l-1.17 1.96-1.81 2.65-2.14-.31-3.64-2.18-4.92-4.49-4.31-6.71-2.39-5.52-1.08-6.04v-.1l4.77.99c.16.03.31.06.47.07l8.02.69 1.63 2.05c.07.08.13.16.21.24l2.8 3a3.974 3.974 0 003.54 1.22 4.024 4.024 0 003-2.25l2.27-4.82 3.16-.57 1.95 2.15c.27.3.59.56.94.76l2.36 1.38a4.038 4.038 0 003.3.33c1.1-.37 1.98-1.2 2.42-2.27l2.16-5.24.39-.07 4.89 3.39c.69.48 1.49.71 2.28.71 1.19 0 2.36-.53 3.15-1.53l.54-.69c.46-.58.74-1.28.83-2.01l.38-3.32 1.98-.58c.2-.06.39-.13.58-.22l.86-.41.47.51c.34.38.76.69 1.22.91l3.05 1.47c.56.27 1.15.4 1.74.4 1.35 0 2.65-.68 3.4-1.9l.64-1.03c.29-.48.49-1.01.56-1.56l.95-6.94 2.6-2.64c.13-.13.24-.26.35-.41l4.87-6.49c.18-.24.33-.5.46-.78l1.77-3.98c.37-.84.45-1.78.21-2.66l-2.75-10.27c-.01-.05-.03-.09-.04-.14-2.09-6.79-3.65-10.91-4.63-12.25l-.35-.48c-1.32-1.81-3.52-4.84-5.54-6.8-2.64-2.59-7.52-5.4-11.91-5.4zm425.51 61l-1.33 4.89-24.51 4.05-17.86 5.11-14.97 6.87-11.07 7.49-9.62 8.16-5.42 5.88-5.34 5.81-1.83 4.73 2.67 4.66 9.31 10.15 10.23 11.3 5.88 3.82 6.72 1.45 16.26-2.75 12.6-1.15 11.99.77 13.89 1.37h10.54l10.46-1.91 10.07-3.28 10.31-5.73 9.77-7.55 8.86-10.23 5.19-8.4 3.59-8.63 1.68-10.15-.08-7.1-2.29-6.65-2.67-2.97-4.35-3.97-7.94-3.21-10.61-2.83-11.23-2.97-9.77-2.75-7.41-.46-6.18 1.3-3.13 2.14z"/><path class="st0" d="M1036.09 294.56l-.66.14-6.18 1.3-.97.2-.82.56-3.13 2.14-.52.36-.42.47-2.41 2.74-.77.87-.3 1.12-.49 1.8-21.34 3.52-.28.05-.28.08-17.87 5.12-.36.1-.35.16-14.96 6.87-.37.17-.34.23-11.07 7.48-.23.15-.21.18-9.62 8.17-.23.2-.21.22-5.42 5.88-5.35 5.8-.64.7-.34.88-1.83 4.73-.86 2.22 1.19 2.07 2.67 4.66.28.48.38.41 9.31 10.15 10.21 11.28.44.48.55.35 5.88 3.82.77.5.9.19 6.72 1.45.94.2.95-.16 16.07-2.72 12.02-1.09 11.51.73 13.81 1.37.25.02h11.24l.45-.08 10.46-1.91.33-.06.32-.1 10.08-3.28.46-.15.42-.23 10.31-5.73.33-.18.3-.23 9.77-7.56.39-.31.33-.38 8.86-10.23.26-.3.21-.34 5.19-8.4.21-.34.15-.37 3.59-8.63.22-.53.09-.57 1.68-10.15.07-.43v-.44l-.08-7.1-.01-.81-.26-.77-2.29-6.64-.33-.96-.68-.75-2.67-2.98-.17-.19-.18-.17-4.35-3.97-.66-.61-.83-.34-7.94-3.21-.29-.12-.3-.08-10.61-2.82-11.19-2.97-9.74-2.74-.51-.14-.53-.03-7.41-.46-.71-.01zm193.82 349.35s6.3-9.21 7.74-15.11c1.44-5.91 2.79-15.56 1.99-22.5-.8-6.94-5.59-29.68-7.58-33.28-1.99-3.59-7.1-19.23-9.5-22.42-2.39-3.19-10.77-16.68-14.12-19.31-3.35-2.63-11.17-9.58-11.17-9.58l-10.93-5.98-12.21-3.83-8.06-1.52-8.86.08s-11.09 1.6-16.04 4.07c-4.95 2.47-13.09 7.9-16.6 12.13-3.51 4.23-5.67 9.89-5.75 11.97-.08 2.07-.96 5.11 1.12 10.13 2.07 5.03 13.25 24.58 15 30.08 1.76 5.51 9.5 22.58 10.53 26.01 1.04 3.43 1.84 5.67 1.84 5.67l-3.11 6.06s-6.46 13.49-7.5 16.68c-1.04 3.19-4.23 10.77-4.23 15s-.88 6.22 3.11 12.53 18.27 17.4 18.27 17.4l8.3 5.83s8.3 4.63 15.24 5.59c6.94.96 19.23.48 19.23.48l11.25-1.76 6.7-2.87s4.14-3.83 5.38-6.39 1.24-5.66 1.24-5.66l-.01-6.87-.45-6.2 1.46-3.93 2.07-5.19 5.65-7.31z"/><path class="st0" d="M1166.06 510.38l8.06 1.52 12.21 3.83 10.93 5.98s7.82 6.94 11.17 9.58c3.35 2.63 11.73 16.12 14.12 19.31s7.5 18.83 9.5 22.42c1.99 3.59 6.78 26.33 7.58 33.28.8 6.94-.56 16.6-1.99 22.5s-7.74 15.11-7.74 15.11l-5.63 7.3-2.07 5.19-1.46 3.93.45 6.2.01 6.87s0 3.11-1.24 5.66c-1.24 2.55-5.38 6.39-5.38 6.39l-6.7 2.87-11.25 1.76s-3.07.12-7.01.12-8.75-.12-12.22-.6c-6.94-.96-15.24-5.59-15.24-5.59l-8.3-5.83s-14.28-11.09-18.27-17.4-3.11-8.3-3.11-12.53c0-4.23 3.19-11.81 4.23-15 1.04-3.19 7.5-16.68 7.5-16.68l3.11-6.06s-.8-2.23-1.84-5.67c-1.04-3.43-8.78-20.51-10.53-26.01-1.76-5.51-12.93-25.06-15-30.08-2.07-5.03-1.2-8.06-1.12-10.13.08-2.07 2.23-7.74 5.75-11.97 3.51-4.23 11.65-9.66 16.6-12.13 4.95-2.47 16.04-4.07 16.04-4.07l8.84-.07m0-4h-.04l-8.86.08c-.18 0-.36.02-.53.04-1.2.17-11.89 1.77-17.26 4.45-4.95 2.47-13.77 8.19-17.89 13.15-3.83 4.62-6.54 11.16-6.66 14.37-.01.26-.04.6-.08.99-.22 2.16-.58 5.79 1.5 10.82.94 2.27 3.34 6.82 6.13 12.09 3.49 6.6 7.84 14.81 8.75 17.68 1.01 3.15 3.66 9.4 6.22 15.45 1.91 4.49 3.88 9.14 4.29 10.51.53 1.74.99 3.18 1.33 4.19l-2.34 4.55c-.02.03-.03.06-.05.1-.67 1.4-6.61 13.82-7.7 17.17-.21.64-.53 1.52-.9 2.54-1.49 4.09-3.53 9.7-3.53 13.7 0 .61-.02 1.18-.04 1.74-.14 3.98.04 7.03 3.77 12.92 4.24 6.7 17.68 17.24 19.2 18.42.05.04.1.08.16.11l8.3 5.83c.11.08.23.15.35.22.37.2 9.04 5.01 16.64 6.05 3.06.42 7.35.64 12.77.64 3.97 0 7.04-.12 7.17-.12.15-.01.31-.02.46-.04l11.25-1.76c.33-.05.65-.14.96-.28l6.7-2.87c.42-.18.81-.43 1.14-.74.78-.73 4.76-4.5 6.26-7.57 1.6-3.29 1.65-7 1.65-7.41l-.01-6.88c0-.09 0-.19-.01-.28l-.38-5.34 1.14-3.08 1.84-4.63 5.29-6.85c.05-.06.09-.12.13-.18.69-1 6.76-10 8.32-16.43 1.63-6.71 2.91-16.71 2.08-23.91-.76-6.57-5.54-30.23-8.06-34.76-.7-1.26-2.19-5.17-3.51-8.62-2.76-7.23-4.68-12.13-6.29-14.26-.62-.83-1.8-2.59-3.16-4.63-4.99-7.46-9.02-13.33-11.69-15.43-3.22-2.53-10.91-9.35-10.99-9.42a4.2 4.2 0 00-.73-.52l-10.93-5.98c-.23-.13-.47-.23-.72-.31l-12.21-3.83c-.15-.05-.3-.09-.46-.11l-8.06-1.52c-.21-.03-.46-.05-.71-.05zm-163.85 118.68l6.07-21.95 4.76-23.56 1.49-10.3 2.08-22.42-17.85-5.42-33.37-7.67-22.31-4.29-24.75-3.68-14.1-1.68-1.69 5.19-6.4 23.16-5.89 22.05-6.46 24.06.05 1.18 4.38 1.13 12.11 2.13 13.18 2.49 12.84 2.48 14.36 3.17 16.2 3.67 17.99 4.54 17.42 4.89 8.25 2.6z"/><path class="st0" d="M904.23 524.09l14.1 1.68 24.75 3.69 22.31 4.28 33.37 7.67 17.85 5.41-2.08 22.43-1.49 10.29-4.76 23.56-6.07 21.95-1.64 1.77-8.25-2.6-17.42-4.89-17.99-4.55-16.2-3.67-14.36-3.17-12.83-2.48-13.18-2.48-12.11-2.14-4.38-1.13-.05-1.18 6.46-24.06 5.89-22.06 6.41-23.16 1.67-5.16m0-4c-1.71 0-3.26 1.1-3.8 2.76l-1.69 5.19c-.02.06-.04.11-.05.17l-6.41 23.16-5.9 22.09-6.46 24.05c-.11.39-.15.8-.13 1.21l.05 1.18a4 4 0 003 3.7l4.38 1.13c.1.03.2.05.3.07l12.11 2.14 13.13 2.47 12.76 2.47 14.31 3.16 16.13 3.65 17.89 4.52 17.31 4.86 8.19 2.58c.39.12.8.18 1.2.18 1.1 0 2.16-.45 2.93-1.28l1.64-1.77c.44-.47.75-1.04.92-1.65l6.07-21.95c.03-.09.05-.18.07-.27l4.76-23.56c.01-.07.03-.15.04-.22l1.49-10.29c.01-.07.02-.13.02-.2l2.08-22.43c.18-1.89-1-3.65-2.82-4.2l-17.85-5.41c-.09-.03-.18-.05-.26-.07l-33.37-7.67-.14-.03-22.31-4.28-.16-.03-24.75-3.69c-.04-.01-.08-.01-.12-.02l-14.1-1.68c-.15-.03-.31-.04-.46-.04z"/><path fill="#fafafa" d="M1439.02 0l35.66 199.36-18.43-6.1-25.94-7.87-23.37-5.75-22.89-5.17-28.17-5.28-32.99-4.46-34.63-3.17-25.6-1.17-23.47-.24-30.88.47-27.47 2.23-29.94 2.7-24.77 2.82-35.22 3.76-33.22 3.17-24.77 1.52-25.12.94-24.3-.82-29.23-2-28.06-3.4-29.82-4.11-28.88-4.11-25.94-4.22-23.72-2.59-22.3-2.11-20.67-1.41-21.71.12-21.49.94-25.36 2.82-20.07 3.4-29.35 5.28-23.83 4.35-18.43 2.58-17.96 1.41-12.45.58-12.56-.23-16.9-1.29-18.55-2.35-23.01-3.76-18.9-3.52-17.85-3.17-21.95-3.17-19.84-1.76-16.44-.94-44.37 1.18-30.88 3.4-36.86 4.23-42.5 4.93L225 172.6l-35.22 4.11-52.47 5.63-48.61 5.64-24.53 3.28-29.12 4.93-31.34 6.69-23.96 6.53-25.4 8.97-18.89 8.12L-49.24 0z"/><path class="st0" d="M818.17 674.04l-.13.01-54.97 3.28h-.06l-.06.01-46.36 4.24-47.34 4.65h-.08l-68.1 8.07-.04.01-.04.01-71.65 10.12-.05.01-.05.01-57.98 9.71-.03.01-.03.01-49.09 9.03-.04.01-.04.01-53.33 10.94-.06.01-.06.01-40.2 9.57-.04.01-.04.01-30.08 7.79-.05.01-.04.01-38.97 11.08-.05.01-.05.02-31.86 9.98-.03.01-.03.01-27.49 9.16-.06.02-.05.02-30.63 11.21-.03.01-.03.01-32.13 12.44-.04.02-.04.02-26.53 10.94-.04.02-.04.02-35.18 15.3-.04.02-.04.02-25.98 12.03-.05.03-.05.02-23.45 11.59-30.09 14.84-.06.03-.06.03-26.23 14.03-19.94 10.79-2.53 1.37.49 2.83 5.82 33.65.13.75.39.65 30.8 50.67 2.46 4.04 3.58-3.1 3.76-3.26L9.2 971.18l20.95-14.14.06-.04.06-.04 17.4-12.7.03-.02.03-.02 20.24-15.27.08-.06.08-.06 11.71-9.77.65.02.09.08 5.08 6.06 3.48 5.98 2.15 7.29.9 9.2.02.21.04.21 2.15 10.51.48 2.35 2.3.68 1.5.45 4.73 1.41.39-4.92.24-3.04v-.12l.36-7.31.48-7.31.02-.3-.03-.3-.65-7.71-.02-.26-.06-.25-1.49-6.84-1.81-9.59-.23-4.17.36-1.14 10.84-5.98 24.12-12.99 24.09-12.68 14.92-7.44 4.41 6.29 5.54 7.74 5.68 10.35 4.72 25.69 2.91 5.25 3.5-2.48-4.1-26.55v-12.02l-.18-11.96 1.28-7.36 1.97-4.86 2.79-1.92 2.25-.89 2.14 11.27 1.06 8.79 1.93 15.96 4.29 23.28 4.3-.58-3.57-25.06 1.58-11.63.82-4.81 2.23-10.3 2.34-11.25.5-.57 6.24-2.97 20.25-9.26 18.98-8.44 9.52-3.68 4.37 9.48 6.65 14.82 1.93 8.04 1.82 13.87.01.1.02.1 2.4 13.02 4.93 24.97.01.04.01.04 4.92 22.41.59 2.71 1.61 10.61 4.3 2.09 2.7-11.48-.12-4.73-.22-8.72v-.12l-.01-.12-1.29-14.81-.01-.07-.01-.07-1.79-14.87-.01-.09-.02-.09-2.39-14.25-1.87-13.67-.93-12.59-.05-12.37.81-9.69 2.01-10.82 1.26-2.95 12.22-3.6.03-.01.03-.01 23.42-7.27 19.13-5.75.06-.02.06-.02 20.65-6.9.72 5.27 3.92 26.31.01.04.01.04 4.92 29.23.01.03.01.03 4.58 24.76 3.85 22.03.24 1.37 4.11 24.05 4.38 2.57 1.23-17.97-.52-9.59-1.23-22.52v-.08l-.01-.08-1.44-15.05-.61-12.14-.01-.11-.01-.11-1.02-9.84-.97-13.96v-15.51l1.47-12.4 2.19-9.74 2.02-1.59 7.66-2.15 1.52-.43 2.65-.75 16.43-4.62 8.81-1.96.98 22.6 3.85-2.07-.62-21.46 15.72-3.5 1.98 5.27 4.6 16.91 1.82 12.19.71 13.59-.22 12.98v.14l.01.14.94 16.89.01.21.03.21 1.38 8.41.46 2.8 2.95 10.62 5.37 5.18.4-14.26v-10.79l-.29-12.96.71-12.86 1.49-13.88 2.51-13.62.01-.03.01-.03 2.32-13.77.02-.12.01-.12 1.23-11.52.04-.41-.04-.41-.52-5.3 5.06.38.41.03.4-.05 3.7-.47.49 9.2v.09l.01.09 2.74 27.92.01.14.02.14 3.82 22.36.02.12.03.12 3.49 14.88.02.08.02.07 3.32 12.05.4 1.47 1.28.83 4.95 16.79 3.61-11.25-1-8.45-.91-7.69-1.24-12.61-.65-10.32.16-8.9.65-11.09 1.94-11.7 1.57-6.45 3.32-9.11 5.32-7.64 4.97-4.3 4.01-.79 22.12-4.04.51.94.57 4.57.02.13.02.12 2.83 14.88.02.11.03.11 5.65 22.69.03.12.04.12 4.24 13.46 5.17 15.83.01.04.01.04 7.17 20.6 3.11 12.54.19.76.46.63 2.21 15.21 5.84-4.21.75-10.93.33-4.82.02-.33-.03-.33-1.25-13.13v-.05l-.01-.05-2.08-17.53-.02-.15-.03-.15-2.41-12.22-.01-.07-.02-.07-2.83-12.13-2.07-8.46-2.92-13.69-.46-8.05.83-6.54 1.53-5.11 3.3-6.16 2.64-2.8 8.46-1.07h.03l.03-.01 20.78-2.99 18.05-2.62 10.37-1.12 12.68-.21h.26l.26-.04 6.98-1.04.34-.05.32-.11.44-.14 1.1 6.81.45 8.81-.51 11.47-.01.17.01.17.57 13.85.01.24.04.23 2.76 17.08.04.24.07.23 3.33 11.61.36 1.24 1.02.8 1.46 1.15 6.8 5.34-.33-8.64-.31-8.18-.21-14.06.56-8.97 1.42-13.12 2.01-8.96 4.32-10.23 3.48-6.55 2.97-2.09 3.91-1.33 6.98 6.78 3.89-9.69 2.11 20.47 2.98-1.89-.9-19.7 9.84-1.69.15 1.73.04.45.14.43 2.29 7.03.02.07.02.07 4.47 12.23 5.11 18.69.33 1.2 2.65 10.62 3.83 3.43 1.03-7.72.97-7.22 1.19-8.9 1.86-11.35 3.97-11.22 3.43-7.03.96-.49 2.98-.76 15.46-1.63 17.6-1.14.75.26 1.94 3.15 3.16 9.13 5.13 17.51 3.48 12.21.32 1.11.86.77 2.03 1.82 6.64 5.96.03-8.92.05-14.24.31-6.97.34-7.21 1.01-3.25 1.7-3.58 2.68-4.22.26-.41.16-.47.89-2.66.24-.71-.03-.74-.01-.29 8.72-.78 12.05.79.87.64 6.31 13 4.23 13.63 2.68 12.87 1.68 18.04.15 16.6.01.98.46.86.89 1.67 5.13 9.65 2.32-10.68.94-4.32.04-.19.02-.19 1.25-10.67.02-.17.01-.17.42-12.44.01-.16-.01-.16-.47-10.07-.31-11.94-.07-9.92 1.76-8.63 3.57-7.07 1.66-.04 8.45.05 21.27 1.49 6.75 18.64 6.63-17.26 29.43 4.53 2 .61.17.28 2.82 6.48 2.04 12.63 1.76 16.01 1.14 12.76v.06l1.04 9.94.09.89.88 18.62 2.93 4.39 3.86-10.4 1.09-12.11.93-10.38 1.4-13.24 1.02-9.62 1.29-6.76 2.09-4.61 4.25-4.63.54-.58.27-.74 1.21-3.31 1.06-.6 7.09.86 10.08 2.25 8.13 2.9 3.07 2.21 3.09 11.67 1.58 18.14 2.13 24.57.23 2.65 2.27 27.79 6.46 1.38.47-26.22-.15-5.64-.99-36.08-.28-8.71 1.87 9.66.73 3.77 3.75 22.1 3.92-1.06.91-22.34-.05-3.49-.12-8.82.9-5.32.42-.17 1.35.11 11.32 2 8.38 2.34 15.34 29.01 4.53-21.04 10.96 5.22 13.73 6.65.04.02.04.02 9.21 4.23.26.12.27.08 7.55 2.26 1.74 3.48 3.42 10.46 1.82 10.29 1.15 13.37 3.44 69.84.12 1.21.77.94.95 1.16 5.88 7.19 1.18-9.21.74-5.77.02-.16.01-.16-1.44-61.99 1.19-6.08 2.18-5.2 4.1-6.19 3.83-3.66 1.3.7.28.15.3.1 15.29 5.24.05.02.05.02 18.05 5.68 7.67 21.36 9.44-12.63 10.85 9.07.28.28.33.22 4.66 3.17.42.29.48.17 3.54 1.27.18.07.19.05 8.25 2.09 3.16 1.39.52 1.08.62 7.15.02.2.04.2 2.33 12.33.01.05.01.05 3.07 14.35.51 6.09.07.82 2.74 14.71-3.01 21.04 9.11-19.22.29-15.33.31-16.25.99-5.57.98-4.27 2.22-4.55 3.67-.09 5.32 1.4 5.6 2.7 8.9 6.09.63.94.32 5.47.01.21.03.21 1.72 10.42.01.09.02.09 1.46 6.95.98 24.34 6.83-24.22 1.93-7.98.07-.29.03-.3.17-1.95 4.55 16.52 2.76 14.42 5.48 28.68 2.43-29.1 1.24-14.88.01-.13v-.13l.19-10.06 2.94 2.75.18.17.2.14 9.38 6.85.16.12.17.1 8.37 4.9.2.12.22.09 9.37 4.1 5.3 14.23 13.68-3.16.3.19.33.14 4.59 1.92 6.43 2.95 5.98 6.22 2.24 2.33 2.75-1.7 21.81-13.53 1.16-.72.48-1.27 27.45-73.04 1.23-3.27-3.07-1.66-2.54-1.37-15.54-8.19-.08-.04-.08-.04-18.51-8.78-.14-.07-.15-.06-26.45-10.1-.06-.02-.06-.02-23.56-8.18-.11-.04-.11-.03-22.96-6.49-.05-.01-.05-.01-29.67-7.58-.02-.01-.02-.01-33.69-8.14-25.6-5.99-28.93-7.62-25.25-6.82-22.29-7.32-24.08-8.93-24.12-10.66-27.06-12.42-.05-.02-.05-.02-18.95-8.06-.15-.07-.16-.05-21.77-7.2-.26-.09-.27-.05-21.6-3.94-.27-.05-.28-.01-16.29-.69-.27-.01-.27.02-11.96 1.11-20.82 1.51-8.11-1.4-10.47-3.68-13.68-8.82-.07-.05-.08-.04-12.17-7.11-.3-.17-.32-.12-15.04-5.61-.29-.11-.3-.06-14.49-3.01-.16-.03-.16-.02-25.02-3.14-.11-.01-.11-.01-27.62-1.91-.13-.01h-.13l-45.95-.27-.12.01z"/><path class="st1" d="M-94.33 144.88c510.93-50.07 1026.5-11.27 1539.13-38.92M-63.09 225.73c58.78-27.05 124.36-34.64 188.66-41.88l203.46-22.92c37.16-4.19 74.58-8.38 111.86-5.45 47.12 3.7 93.09 18.72 140.35 18.99 49.4.27 97.45-15.57 146.64-20.05 87.38-7.94 173.99 20.14 261.68 22.95 72.13 2.31 143.67-12.51 215.73-16.3 91.46-4.81 183.82 8.37 270.28 38.56M314.8 325.87l-40.5 59.61c-4.37 6.43-8.83 13.07-10.42 20.68-3.55 16.98 7.93 33.29 20.01 45.75 17.2 17.74 39.03 33.66 63.73 33.79 19.94.1 39.57-11.1 49.62-28.32 9.36-16.03 10.36-35.92 6.22-54.01s-13-34.73-22.48-50.69c-7.27-12.24-15.38-24.65-27.51-32.13-12.12-7.47-29.34-8.55-39.71 1.23"/><path d="M709.21 390.35a99.908 99.908 0 01-23 2.33c-2.21-.03-4.54-.17-6.41-1.35-3.26-2.04-4.05-6.39-4.19-10.23-.26-7.1 1.06-15.01 6.62-19.42 2.25-1.79 5.01-2.83 7.77-3.63 10.05-2.93 22.07-2.63 29.59 4.65s6.26 22.72-3.75 25.77l-6.63 1.88z"/><path class="st0" d="M701.73 356.31c6.66 0 13.15 1.82 17.86 6.39 7.52 7.28 6.26 22.72-3.75 25.77l-6.63 1.88a99.647 99.647 0 01-21.5 2.34c-.5 0-1 0-1.5-.01-2.21-.03-4.54-.17-6.41-1.35-3.26-2.04-4.05-6.39-4.19-10.23-.26-7.1 1.06-15.01 6.62-19.42 2.25-1.79 5.01-2.83 7.77-3.63 3.75-1.09 7.77-1.74 11.73-1.74m0-4c-4.15 0-8.59.65-12.84 1.89-2.7.79-6.18 1.99-9.14 4.34-5.7 4.52-8.51 12.37-8.13 22.7.09 2.45.36 9.9 6.07 13.47 2.76 1.73 5.82 1.92 8.47 1.96.52.01 1.04.01 1.56.01 7.51 0 15.03-.82 22.36-2.44l.23-.06 6.63-1.88c.03-.01.05-.01.08-.02 5.4-1.65 9.34-6.09 10.82-12.2 1.78-7.38-.36-15.34-5.45-20.27-5.09-4.9-12.23-7.5-20.66-7.5z"/><path d="M103.28 753.51c-3.77.83-7.64 1.22-11.5 1.17-1.11-.02-2.27-.09-3.21-.67-1.63-1.02-2.03-3.19-2.1-5.11-.13-3.55.53-7.5 3.31-9.71 1.13-.89 2.5-1.41 3.89-1.82 5.02-1.46 11.03-1.31 14.79 2.33s3.13 11.36-1.88 12.88l-3.3.93z"/><path class="st0" d="M99.54 736.49c3.33 0 6.57.91 8.93 3.19 3.76 3.64 3.13 11.36-1.88 12.88l-3.31.94c-3.53.78-7.14 1.17-10.75 1.17-.25 0-.5 0-.75-.01-1.11-.02-2.27-.09-3.21-.67-1.63-1.02-2.03-3.19-2.1-5.11-.13-3.55.53-7.5 3.31-9.71 1.13-.89 2.5-1.41 3.89-1.82 1.88-.53 3.89-.86 5.87-.86m0-4c-2.26 0-4.68.36-6.98 1.03-1.53.44-3.5 1.13-5.26 2.52-3.37 2.67-5.03 7.16-4.82 12.99.15 3.99 1.48 6.8 3.97 8.36 1.73 1.08 3.55 1.26 5.27 1.28.27 0 .54.01.81.01 3.9 0 7.81-.43 11.61-1.26l.23-.06 3.31-.94c.03-.01.05-.01.08-.02 3.39-1.03 5.86-3.78 6.77-7.54 1.05-4.37-.23-9.09-3.28-12.04-2.91-2.83-6.96-4.33-11.71-4.33z"/><path d="M624.27 607.65c-3.77.83-7.64 1.22-11.5 1.17-1.11-.02-2.27-.09-3.21-.67-1.63-1.02-2.03-3.19-2.1-5.11-.13-3.55.53-7.5 3.31-9.71 1.13-.89 2.5-1.41 3.89-1.82 5.02-1.46 11.03-1.31 14.79 2.33s3.13 11.36-1.88 12.88l-3.3.93z"/><path class="st0" d="M620.52 590.64c3.33 0 6.57.91 8.93 3.19 3.76 3.64 3.13 11.36-1.88 12.88l-3.31.94c-3.53.78-7.14 1.17-10.75 1.17-.25 0-.5 0-.75-.01-1.11-.02-2.27-.09-3.21-.67-1.63-1.02-2.03-3.19-2.1-5.11-.13-3.55.53-7.5 3.31-9.71 1.13-.89 2.5-1.41 3.89-1.82 1.89-.54 3.9-.86 5.87-.86m.01-4c-2.26 0-4.68.36-6.98 1.03-1.53.44-3.5 1.13-5.26 2.52-3.37 2.67-5.03 7.16-4.82 12.99.15 3.99 1.48 6.8 3.97 8.36 1.73 1.08 3.55 1.26 5.27 1.28.27 0 .54.01.81.01 3.9 0 7.81-.43 11.61-1.26l.23-.06 3.31-.94c.03-.01.05-.01.08-.02 3.39-1.03 5.86-3.78 6.77-7.54 1.05-4.37-.23-9.09-3.28-12.04-2.92-2.84-6.97-4.33-11.71-4.33z"/><path d="M1007.21 294.28c-4.4.79-6.18-.24-10.33-1.9s-7.68-5.37-8.18-9.81c-.67-6.02 4.17-11.35 9.51-14.23 5.1-2.75 11.22-4.1 16.77-2.42s10.21 6.85 10.14 12.64c-.1 7.83-6.48 10.97-13.28 14.84l-4.63.88z"/><path class="st0" d="M1009.84 265.18c1.73 0 3.46.23 5.13.74 5.55 1.67 10.21 6.85 10.14 12.64-.1 7.83-6.48 10.97-13.28 14.84l-4.62.89c-1.04.19-1.93.27-2.74.27-2.63 0-4.42-.9-7.6-2.17-4.15-1.66-7.68-5.37-8.18-9.81-.67-6.02 4.17-11.35 9.51-14.23 3.57-1.94 7.62-3.17 11.64-3.17m0-4c-4.45 0-9.13 1.26-13.53 3.64-9.47 5.11-12.19 12.75-11.58 18.2.63 5.6 4.81 10.73 10.66 13.08.42.17.82.33 1.2.49 2.59 1.06 4.82 1.97 7.89 1.97 1.06 0 2.19-.11 3.44-.33l4.67-.89c.43-.08.84-.23 1.22-.45l1.14-.64c6.59-3.72 14.05-7.93 14.17-17.62.09-7.28-5.37-14.23-12.98-16.52-2.01-.63-4.12-.93-6.3-.93z"/><path d="M301.86 572.53c-.45-2.52.14-3.54 1.09-5.92.95-2.38 3.08-4.4 5.62-4.69 3.45-.39 6.51 2.39 8.16 5.45 1.58 2.92 2.35 6.43 1.39 9.61-.96 3.18-3.92 5.85-7.24 5.81-4.49-.06-6.28-3.71-8.5-7.61l-.52-2.65z"/><path class="st0" d="M309.22 561.89c3.18 0 5.96 2.62 7.51 5.48 1.58 2.92 2.35 6.43 1.39 9.61-.95 3.16-3.88 5.81-7.17 5.81h-.08c-4.49-.06-6.28-3.71-8.5-7.61l-.51-2.65c-.45-2.52.14-3.54 1.09-5.92.95-2.38 3.08-4.4 5.62-4.69.22-.02.44-.03.65-.03m0-4c-.36 0-.73.02-1.09.06-3.83.43-7.32 3.24-8.89 7.17-.1.24-.19.46-.27.67-.85 2.08-1.65 4.04-1.04 7.44l.52 2.69c.08.43.23.84.45 1.22l.37.65c2.24 3.97 5.03 8.91 11.57 8.99h.13c4.86 0 9.49-3.64 11-8.66 1.19-3.94.58-8.44-1.7-12.66-2-3.66-5.94-7.57-11.05-7.57z"/><path d="M271.51 328.72c-.45-2.52.14-3.54 1.09-5.92.95-2.38 3.08-4.4 5.62-4.69 3.45-.39 6.51 2.39 8.16 5.45 1.58 2.92 2.35 6.43 1.39 9.61-.96 3.18-3.92 5.85-7.24 5.81-4.49-.06-6.28-3.71-8.5-7.61l-.52-2.65z"/><path class="st0" d="M278.87 318.08c3.18 0 5.96 2.62 7.51 5.48 1.58 2.92 2.35 6.43 1.39 9.61-.95 3.16-3.88 5.81-7.17 5.81h-.08c-4.49-.06-6.28-3.71-8.5-7.61l-.51-2.65c-.45-2.52.14-3.54 1.09-5.92.95-2.38 3.08-4.4 5.62-4.69.22-.02.43-.03.65-.03m0-4c-.36 0-.73.02-1.09.06-3.83.43-7.32 3.24-8.89 7.17-.1.24-.19.46-.27.67-.85 2.08-1.65 4.04-1.04 7.44l.52 2.69c.08.43.23.84.45 1.22l.37.65c2.24 3.97 5.03 8.91 11.57 8.99h.13c4.86 0 9.49-3.64 11-8.66 1.19-3.94.58-8.44-1.7-12.66-2-3.65-5.94-7.57-11.05-7.57z"/><path d="M1136.96 380.93c-.45-2.52.14-3.54 1.09-5.92.95-2.38 3.08-4.4 5.62-4.69 3.45-.39 6.51 2.39 8.16 5.45 1.58 2.92 2.35 6.43 1.39 9.61-.96 3.18-3.92 5.85-7.24 5.81-4.49-.06-6.28-3.71-8.5-7.61l-.52-2.65z"/><path class="st0" d="M1144.32 370.29c3.18 0 5.96 2.62 7.51 5.48 1.58 2.92 2.35 6.43 1.39 9.61-.95 3.16-3.88 5.81-7.17 5.81h-.08c-4.49-.06-6.28-3.71-8.5-7.61l-.51-2.65c-.45-2.52.14-3.54 1.09-5.92.95-2.38 3.08-4.4 5.62-4.69.22-.02.43-.03.65-.03m0-4c-.36 0-.73.02-1.09.06-3.83.43-7.32 3.24-8.89 7.17-.1.24-.19.46-.27.67-.85 2.08-1.65 4.04-1.04 7.44l.52 2.69c.08.43.23.84.45 1.22l.37.65c2.24 3.97 5.03 8.91 11.57 8.99h.12c4.86 0 9.49-3.64 11-8.66 1.19-3.94.58-8.44-1.7-12.66-1.99-3.65-5.93-7.57-11.04-7.57z"/><path d="M1271.23 623.14c-.45-2.52.14-3.54 1.09-5.92.95-2.38 3.08-4.4 5.62-4.69 3.45-.39 6.51 2.39 8.16 5.45 1.58 2.92 2.35 6.43 1.39 9.61s-3.92 5.85-7.24 5.81c-4.49-.06-6.28-3.71-8.5-7.61l-.52-2.65z"/><path class="st0" d="M1278.59 612.5c3.18 0 5.96 2.62 7.51 5.48 1.58 2.92 2.35 6.43 1.39 9.61-.95 3.16-3.88 5.81-7.17 5.81h-.08c-4.49-.06-6.28-3.71-8.5-7.61l-.51-2.65c-.45-2.52.14-3.54 1.09-5.92.95-2.38 3.08-4.4 5.62-4.69.22-.02.43-.03.65-.03m0-4c-.36 0-.73.02-1.09.06-3.83.43-7.32 3.24-8.89 7.17-.1.24-.19.46-.27.67-.85 2.08-1.65 4.04-1.04 7.44l.52 2.69c.08.43.23.84.45 1.22l.37.65c2.24 3.97 5.03 8.91 11.57 8.99h.13c4.86 0 9.49-3.64 11-8.66 1.19-3.94.58-8.44-1.7-12.66-2-3.65-5.94-7.57-11.05-7.57z"/><path class="st1" d="M1024.9 310.42c-23.25 3.11-47.31 7.38-66.43 20.97-8.65 6.15-15.93 13.97-23.16 21.74-1.32 1.42-2.72 3.06-2.62 4.99.09 1.63 1.24 2.98 2.33 4.2l18.09 20.13c1.79 1.99 3.61 4.01 5.91 5.38 7.54 4.5 17.02.72 25.67-.79 14.75-2.56 29.81 1.99 44.78 1.51 27.37-.87 53.17-20.4 61.44-46.51 2.94-9.27 3.29-20.7-3.79-27.37-3.82-3.6-9.11-5.11-14.17-6.5-7.76-2.13-15.52-4.26-23.28-6.38-4.79-1.31-9.74-2.64-14.67-2-4.93.64-9.89 3.75-11.13 8.57M736.96 423c-3.94 16.68-8.33 34.21-20.17 46.61-12.38 12.96-31.01 18.22-44.13 30.44-9.98 9.3-16.09 22.01-20.63 34.87-4.73 13.39-8.02 27.82-5.27 41.75 3.88 19.62 20.03 35.72 39.12 41.71s40.44 2.57 57.97-7.06c9.24-5.08 17.7-11.97 23.2-20.96 16.01-26.17 3-59.73 4.04-90.39.38-11.11 2.68-22.07 3.12-33.18.44-11.1-1.19-22.81-7.8-31.75s-19.19-14.09-29.31-9.52m92.21 30.01c-.98.09-1.96.18-2.94.28 5.08-1.9 10.98-.23 15.28 3.08 4.3 3.31 7.26 8.04 9.8 12.84 1.32 2.5 2.59 5.23 2.27 8.04-.34 2.93-2.34 5.35-4.26 7.59-3.89 4.53-8.49 9.37-14.46 9.67-5.85.29-10.98-4.04-14.25-8.9-2.86-4.25-4.86-9.54-3.47-14.47 1.93-6.82 9.96-12.58 7.36-19.17M214 539.42c-5.25-4.53-13.33-4.38-19.63-1.48-6.3 2.9-11.23 8.05-16 13.09-9.09 9.6-18.53 19.82-21.63 32.67-2.06 8.53-1.13 17.6-3.55 26.04-4.55 15.9-19.92 26.54-26.02 41.91-5.88 14.84-1.54 33.14 10.38 43.75 7.93 7.06 18.57 10.77 25.77 18.58 9.5 10.3 14.39 28.15 28.38 28.9 6.6.35 12.54-3.69 17.9-7.56 21.22-15.31 42.45-30.62 63.67-45.93 5.61-4.05 11.3-8.18 15.5-13.67 8.41-11.03 9.58-26.27 6.35-39.76-3.23-13.49-10.34-25.68-17.36-37.65-6.08-10.37-12.17-20.75-18.25-31.12-4.75-8.1-9.7-16.42-17.23-22.02-7.53-5.6-18.4-7.82-26.33-2.8m930.16 70.75c-5.37 9.47-9.6 19.59-12.57 30.06-.99 3.48-1.84 7.12-1.18 10.68.97 5.15 4.92 9.14 8.68 12.79 9.46 9.19 19.54 18.73 32.32 21.96 6.85 1.73 14.02 1.52 21.08 1.29 9.77-.31 21.56-1.9 25.52-10.84 3.04-6.84-.17-14.97 1.73-22.21 1.65-6.29 6.83-10.9 10.5-16.27 10.26-14.99 8.3-35.07 3.94-52.71-6.41-25.94-18.21-52.17-40.32-67.18-22.11-15.01-56.37-14.15-72.06 7.48-3.41 4.7-5.86 10.49-4.98 16.23.57 3.7 2.45 7.05 4.25 10.34a332.985 332.985 0 0124.41 56.36"/><path d="M1098.37 605.6c-4.79 10.81-9.59 21.62-14.38 32.43-.97 2.19-1.96 4.44-2.11 6.84-.39 6.21 5.43 11.66 11.63 12.18s12.21-3.02 16.1-7.86c3.9-4.85 6-10.87 7.69-16.86 1.48-5.25 2.66-11.02.5-16.03-2.59-5.98-9.1-9.07-15.09-11.65l-4.34.95z"/><path class="st0" d="M1102.7 604.64c5.99 2.58 12.5 5.67 15.09 11.65 2.17 5.01.98 10.78-.5 16.03-1.69 5.99-3.79 12.01-7.69 16.86-3.64 4.53-9.13 7.91-14.9 7.91-.4 0-.8-.02-1.2-.05-6.2-.51-12.02-5.97-11.63-12.18.15-2.39 1.14-4.65 2.11-6.84 4.79-10.81 9.59-21.62 14.38-32.43l4.34-.95m0-4c-.29 0-.58.03-.86.09l-4.34.96a3.975 3.975 0 00-2.79 2.28l-7.19 16.21-7.19 16.21c-1 2.26-2.25 5.07-2.45 8.21-.51 8.03 6.64 15.7 15.29 16.41.51.04 1.02.06 1.53.06 6.55 0 13.28-3.52 18.02-9.41 4.43-5.52 6.74-12.34 8.42-18.28 1.72-6.11 2.95-12.61.32-18.7-3.11-7.19-10.19-10.73-17.18-13.74-.5-.19-1.04-.3-1.58-.3z"/><path class="st1" d="M1016.44 547.59a361.565 361.565 0 01-14.54 78.04m-98.25-99.9c-6.75 24.83-13.51 49.66-20.26 74.49m1.64-.07c39.04 6.26 77.67 15.1 115.56 26.43M903.5 524.05a584.855 584.855 0 01114.25 23.15m-120.98 3.7c39.47 6.05 78.66 13.94 117.4 23.61m-4.81-28.64a564.381 564.381 0 00-19.99 77.08m-74.66-95.58c-7.22 24.18-13.62 48.62-19.18 73.24m53.83-22.83c-1.33 3.01-2.52 6.09-3.56 9.22 3.27-.03 6.48-3.26 5.52-6.38"/><path class="st1" d="M947.13 583.57c-4.03 1.13-7.98 3.03-10.68 6.22-2.7 3.19-3.92 7.86-2.26 11.69 2.36 5.43 10.14 7.2 15.1 3.96 4.96-3.24 6.69-10.23 4.65-15.79-.59-1.62-1.45-3.13-2.31-4.63"/><path d="M934.59 592.16c5.61 2.46 14.32 4.53 20.42 5.01 0 0-1.73 6.21-4.9 8.04-3.18 1.83-7.48 2.96-11.07 1.3s-5.7-4.86-5.94-7.8c-.25-2.95 1.49-6.55 1.49-6.55z"/><path class="st1" d="M965.2 564.9a179.59 179.59 0 00-5.54 26.96c-.12.98-.27 2.03-.91 2.79-.64.76-1.97 1.01-2.59.24m-19.81-5.62c-1.02.38-2.13-.59-2.33-1.65s.22-2.14.62-3.16c3.12-7.89 5.36-16.13 6.65-24.51m-8.73-24.56a347.35 347.35 0 0149.16 10.99m-43.59-6.49l22.92 5.43m-42.48-1.45c21.44 6.3 43.06 11.94 64.84 16.91m-19.62 15.89c-.62-.07-1.2.6-1.05 1.21 11.19 1.09 22.24 3.56 32.83 7.33m-34.09 5.72c10.57 3.73 21.47 6.54 32.53 8.38m-86.58-34.83c9.97 2.58 20.01 4.88 30.1 6.91m-34.56 3.63c10.05 3.15 20.1 6.3 30.15 9.46m-34.6 7.25c11.92 3.76 23.15 6.78 35.44 9.03"/><path class="st0" d="M489.33 255.51c3.47 7.33 9.15 13.6 16.11 17.75l2.73 1.48-29.06 2.51-23.65 4.41-14 4.63-14.08 9.87-1.56 1.32-2.48 2.8-2.44 8.69-.48 9.26.76 2.27-4.67-2.43c-2.74-3.6-5.48-7.21-8.22-10.81 1.42-.98 2.84-1.97 4.25-2.95-2.28-2.61-4.67-6.37-2.7-9.23 2.39-3.46 9.52-2.52 9.99-6.7.32-2.83-3.19-5.95-1.24-8.02.59-.62 1.38-.78 2.25-.78.83 0 1.72.14 2.56.14.13 0 .27 0 .4-.01 5.6-.36 6.94-9.18 12.35-10.64a6.32 6.32 0 011.67-.21c2.32 0 4.69 1.02 7.03 1.02.4 0 .81-.03 1.21-.1 2.61-.46 4.71-2.59 7.33-2.94.28-.04.55-.06.82-.06 3.85 0 7.17 3.58 11.11 4.02.22.02.44.04.66.04 4.68 0 8.67-5.47 6.96-9.91 3.59 2.93 8.15 5.97 12.47 5.97 1.38 0 2.74-.31 4.04-1.04-.87-3.38-.91-6.96-.12-10.35m0-4c-.14 0-.28.01-.43.02a3.99 3.99 0 00-3.47 3.07c-.63 2.7-.81 5.5-.55 8.27-2.41-.22-5.57-1.91-9.42-5.04-.73-.6-1.63-.9-2.53-.9-.82 0-1.65.25-2.35.76a3.993 3.993 0 00-1.39 4.67c.36.94-.06 2.06-.56 2.8-.7 1.02-1.74 1.67-2.66 1.67-.07 0-.15 0-.22-.01-1.11-.12-2.46-.83-3.88-1.58-2.18-1.15-4.66-2.46-7.68-2.46-.45 0-.91.03-1.36.09-2.07.28-3.76 1.19-5.13 1.93-.89.48-1.73.93-2.37 1.04-.15.03-.32.04-.51.04-.74 0-1.69-.2-2.69-.42-1.29-.28-2.76-.6-4.35-.6-.96 0-1.84.11-2.71.35-3.98 1.07-6.26 4.33-8.09 6.94-1.21 1.72-2.46 3.51-3.47 3.57h-.15c-.26 0-.6-.03-.96-.06-.48-.04-1.02-.08-1.59-.08-2.15 0-3.89.68-5.16 2.03-2.95 3.12-1.27 6.9-.46 8.72.17.39.41.92.54 1.3-.53.26-1.45.56-2.1.77-2.34.77-5.26 1.73-7.1 4.39-1.27 1.84-2.62 5.41.36 10.54l-.25.17-.65.45c-.9.62-1.5 1.58-1.67 2.66-.17 1.08.11 2.18.77 3.05l5.48 7.21 2.74 3.6c.36.47.81.85 1.33 1.12l4.67 2.43c.58.3 1.22.45 1.85.45a3.995 3.995 0 003.79-5.27l-.52-1.55.42-8.06 2.07-7.37 1.68-1.9 1.2-1.02 13.45-9.43 13.18-4.36 23.19-4.32 28.86-2.49a4 4 0 001.56-7.5l-2.65-1.44c-6.23-3.74-11.37-9.41-14.48-15.99-.63-1.38-2.04-2.26-3.58-2.26z"/><path class="st1" d="M953.66 602.79c12.23 3.02 24.35 6.45 36.34 10.29M504.52 288.07c-3.22-1.46-7.04.03-9.88 2.14-3.7 2.74-6.67 6.71-7.46 11.25s.91 9.62 4.74 12.19c5.05 3.39 12.14 1.59 16.92-2.18 1.35-1.06 2.59-2.28 3.51-3.73 2.56-4.02 2.26-9.4.17-13.68-1.33-2.71-3.93-5.35-6.91-4.84m-79.43 8.69c10.18-12.31 27.25-15.9 42.99-18.61 9.09-1.57 18.21-3.09 27.41-3.77 16.84-1.24 33.83.37 50.61-1.56 16.77-1.93 34.07-8.1 44.37-21.48"/><path class="st1" d="M591.07 251.99c1.98-2.47 5.38-3.48 8.53-3.18 5.19.48 9.68 4.09 12.52 8.46s4.31 9.47 5.73 14.48c1.01 3.57 2.03 7.15 3.04 10.72m-.76-.17c-3.63 5.97-7.44 12.14-13.26 16.01-3.26 2.17-6.99 3.51-10.7 4.75-18.71 6.25-39.39 10.54-57.93 3.77l-.39 1.91"/><path class="st1" d="M538.1 307.77c-5.21 4.41-7.95 10.98-10.98 17.11-.68 1.37-1.4 2.76-2.57 3.74-1.04.88-2.36 1.37-3.64 1.84-4.04 1.47-8.4 2.96-12.55 1.84m9.51 2.12c-.38-.52-.77-1.04-1.15-1.56 8.77 9.49 15.9 20.49 20.98 32.37m2.32 4.47a289.882 289.882 0 0186.13-21.38"/><path class="st1" d="M622.8 349.46c5.35-2.01 7.82-8.35 7.83-14.06 0-7.66-3.45-15.25-9.23-20.28m-1.74.58c-2.8-.81-5.86.15-8.28 1.78-2.42 1.63-4.35 3.86-6.41 5.93-9.95 10.02-23.4 16.5-37.44 18.01-4.5.49-9.37.39-13.11-2.17m-.42-.73c-8.54-6.23-14.07-16.42-14.63-26.98m-113.94-15.12c-5.37 9.98-6.35 22.23-2.63 32.94 3.72 10.71 12.09 19.71 22.49 24.21 15.63 6.76 33.57 3.24 50.21-.37 9.24-2.01 20.01-5.35 22.84-14.38m74.83-71.89c-.12.28-.61.07-.61-.24s.27-.54.53-.71c3.48-2.44 7.9-3.52 12.11-2.95 1.42.19 2.97.68 3.63 1.95.42.81.38 1.79.22 2.69-.49 2.67-2.11 5.19-4.52 6.46s-5.59 1.09-7.65-.67-2.68-5.13-1.12-7.35"/><path d="M416.51 318.06c-2.74-3.6-5.48-7.21-8.22-10.81 1.42-.98 2.84-1.97 4.25-2.95-2.28-2.61-4.67-6.37-2.7-9.23 2.39-3.46 9.52-2.52 9.99-6.7.32-2.83-3.19-5.95-1.24-8.02 1.24-1.32 3.4-.53 5.2-.65 5.6-.36 6.94-9.18 12.35-10.64 3.23-.87 6.62 1.3 9.91.71 2.61-.46 4.71-2.59 7.33-2.94 4.21-.57 7.71 3.49 11.93 3.96 4.95.55 9.41-5.22 7.62-9.87 4.75 3.87 11.17 7.93 16.51 4.93-.86-3.37-.9-6.95-.11-10.35 3.47 7.33 9.15 13.6 16.11 17.75l2.73 1.48-29.06 2.51-23.65 4.41-14 4.63-14.08 9.87-1.56 1.32-2.48 2.8-2.44 8.69-.48 9.26.76 2.27-4.67-2.43z"/><path class="st1" d="M610.55 296.47c-.69 2.77-1.12 5.6-1.3 8.45-2.33-.7-4.43-2.12-5.94-4.02m-8.38 3.93c.05 1.84-.19 3.69-.7 5.45-2.02-1.24-4.04-2.49-6.06-3.73m-5.05.49c-1.4 2.09-2.23 4.56-2.37 7.06-2.2-1.75-4.39-3.51-6.59-5.26m-7.32 2.02a14.331 14.331 0 00-2.48 6.61 27.927 27.927 0 00-5.77-6.45m51.86 7.35a42.726 42.726 0 01-8.01-5.65c-.27 4.26-.53 8.51-.8 12.77m-7.33 5.05c-2.3-1.37-4.6-2.75-6.89-4.12-.22-.13-.49-.27-.73-.17-.25.11-.33.41-.39.67-.59 2.88-1.17 5.77-1.76 8.65m-9.18 4.42c-3.06-.94-5.72-3.1-7.28-5.89-.63 2.64-1.96 5.1-3.81 7.09m-88.24 224.79c-.14-2.25 1.95-3.94 3.85-5.15 9.05-5.78 18.9-10.32 29.17-13.45"/><path class="st1" d="M499.55 538.53c2.04-7.27 9.77-12.47 17.27-11.64 2.54.28 5.38 1.57 5.89 4.08.42 2.04-.9 4.03-2.37 5.5a19.83 19.83 0 01-8.8 5.08c2.95-1.66 6.68-1.87 9.79-.53s5.53 4.18 6.36 7.47c.27 1.06.36 2.26-.2 3.2-.84 1.42-2.74 1.72-4.39 1.7-5.54-.07-11.04-2.2-15.18-5.88m-42.91 9.56l.6 2.57c-2.29-3.13-6.25-5.02-10.1-4.6-3.85.42-7.4 3.24-8.46 6.97-1.06 3.73.58 8.12 3.93 10.05 1.92 1.11 4.21 1.41 6.42 1.26 2.68-.18 5.31-1.01 7.62-2.39.49-.29 1.02-.72.97-1.28-.05-.62-.85-.95-1.43-.73-.58.22-.93.81-1.13 1.4-.81 2.4.48 5.17 2.57 6.6 2.1 1.43 4.8 1.7 7.31 1.36 1.45-.2 3.04-.71 3.72-2.01.8-1.53-.01-3.36-.8-4.89-1.02-1.95-2.04-3.91-3.06-5.86M-47.25 897.73c21.41-11.52 42.83-23.03 64.52-34.02a1472.661 1472.661 0 01255.85-100.74c86.66-25.07 175.47-42.12 264.7-55.48a3290.71 3290.71 0 01208.62-24.46c52.88-4.5 106.23-7.71 158.9-1.18 16.01 1.98 32.25 4.99 46.3 12.91 9.63 5.42 18.13 13.1 28.64 16.49 13.84 4.45 28.78.8 43.3.04 44.73-2.35 85.52 22.76 126.71 40.37 98.8 42.24 213.21 44.16 305.84 98.6M-14.03 984.4c8.49-7.74 18.14-14.07 27.63-20.54a911.727 911.727 0 0065.41-49.02m17.54-6.53c25.98-14.92 52.5-28.92 79.47-41.98m21.76-8.38c3.6-2.3 7.58-4 11.72-5.02m9.92-1.96c19.95-9.25 40.07-18.13 60.35-26.64m25.89-6.96l83.93-26.13m20.78-2.96c20.64-6.39 41.64-11.6 62.87-15.6m21.73-4.19c5.25.94 10.69.87 15.91-.2m35.21-3.08c9.75-1.78 19.5-3.56 29.24-5.34"/><path class="st1" d="M601.4 757.19c16.28-2.52 32.59-4.89 48.91-7.11 6.62-.9 13.26-1.78 19.93-1.81 6.17-.03 12.8.56 18.05-2.68m25.13.8c11.39-4.02 23.23-6.79 35.23-8.24m25.91 3.13a201.5 201.5 0 0140.25-4.01m28.46-1.56a82.578 82.578 0 0125.11.04m30.14.77c16.54-.64 33.03 1.73 49.4 4.1 5.36.77 10.72 1.55 16.08 2.32l9.96 1.44m30.06 5.4c10.37.28 20.68 2.6 30.16 6.8m11.69 2.58l4.19.84m10.08 1.7c6.14.83 12.3 1.66 18.31 3.14 11.1 2.75 21.52 7.69 31.85 12.59l16.11 7.65c7.5 3.57 15.08 7.16 23.17 9.06m28.26 18.73c13.78 4.72 27.56 9.45 41.34 14.17 3.27 1.12 6.57 2.25 9.49 4.09 7.17 4.5 11.64 12.88 19.49 16.03 5.37 2.15 12.05 1.72 16.14 5.81m16.79 10.84c10.23-1.02 19.46 5.63 27.58 11.95m25.13 14.11a96.39 96.39 0 0030.18 21.23c4.9 2.19 10.02 3.98 14.5 6.93 3.81 2.51 7.13 5.83 11.35 7.56 2.83 1.16 5.95 1.56 8.67 2.96 3.57 1.84 6.06 5.2 8.42 8.45m-90.54-54.88c1.39 1.12 2.78 2.25 4.17 3.37m11.44 5.37a809.96 809.96 0 00-1.38 49.77c.52-17.86-2.45-35.83-8.69-52.57m-42.43-24.78c-6.17 7.69-6.73 18.38-6.31 28.23.42 9.85 1.49 20.11-2.24 29.24 1.56-8.65 1.84-17.52.82-26.25-1.65-14.11-6.65-27.77-7.05-41.96m-88.3-42.84c-5.07 4.87-10.28 9.91-13.07 16.37-1.85 4.27-2.54 8.95-2.95 13.59-2.02 22.43 1.96 45.05.15 67.5.14-15.02.02-30.05-1.12-45.02-.43-5.7-1.01-11.38-1.58-17.06-.48-4.71-.96-9.42-1.43-14.12-.53-5.22-1.06-10.44-1.9-15.62-1.12-6.91-2.81-13.81-5.98-20.05m-52.58-23.86l.75 20.48m122.81 34.96l.36 17.12m89.13 32.74c.83 12.75 5.74 25.55 2.81 37.99-.29-10.4 3.96-20.5 3.95-30.91"/><path class="st1" d="M1374.42 916.36c.17.08.13-.32-.05-.27-.18.05-.22.28-.23.46-.15 3.35-.3 6.7-.46 10.04m-315.63-163.75c-2.55 6.12-2.35 13.01-1.57 19.59s2.09 13.17 1.63 19.78c-.91.09-1.29-1.12-1.35-2.03-.86-13.29-2.53-26.53-5-39.61m-6.87-1.39c.87 28.35 1.75 56.71 2.62 85.06-1.64-19.65-3.27-39.3-4.91-58.95-.78-9.34-1.6-18.86-5.24-27.5m-35.27-7.15c-.37 5.21-5.7 8.52-8.1 13.16-1.37 2.64-1.75 5.65-2.11 8.6-2.13 17.43-4.06 34.91-4.59 52.46a374.95 374.95 0 00-5.59-66.64c-.88-5.05-2.06-10.43-5.8-13.93m-79.44-8.12c-4.85 5.28-7.06 12.53-7.69 19.67-.63 7.14.17 14.32.56 21.48.82 15.03-.15 30.16-2.89 44.96m-.38-1.29c.33-14.52.22-29.12-2.03-43.48s-6.69-28.52-14.49-40.78m-28.13-.96c.79 2.33.03 4.92-1.15 7.08-1.19 2.16-2.79 4.08-3.88 6.29-2.04 4.14-2.11 8.94-2.15 13.56-.05 7.49-.11 14.99-.12 22.48m-17.68-47.85c4.42 6.3 6.6 13.85 8.72 21.24 2.3 8.06 4.61 16.13 6.91 24.19m-58.25-40.96c-8.83 15.66-12.77 34.03-11.13 51.94"/><path class="st1" d="M748.55 737.21c-.34 5.33 1.75 10.48 3.63 15.49 4.41 11.76 7.87 23.88 10.32 36.2m-51.76-40.53c-7.46 10.97-11.17 24.15-12.62 37.34-1.45 13.19-.75 26.51-.04 39.76m-10.39-79.24c3.48 8.81 2.41 18.65 2.2 28.13a146.82 146.82 0 007.28 48.95m35.64-82.38c.46 7.44.91 14.87 1.37 22.31m-7.61-20.09c-.55 2.95-.53 6 .04 8.94m210.83-13.03l-1.08 17.14m-139.05-16.76v10.05m-196.4 9.98c-5.79 6.92-7.67 16.43-7.2 25.45.47 9.01 3.03 17.76 5.2 26.53 5.76 23.29 8.8 47.25 9.02 71.24"/><path class="st1" d="M576.23 762.26c3.73 23.01 9.41 45.71 16.98 67.76 5.7 16.6 12.51 33.04 14.61 50.46m-61.6-116a28.926 28.926 0 00-7.21 5.72c-3.6 3.94-6.04 8.8-7.96 13.78-10.51 27.19-6.42 57.56-2.09 86.39"/><path class="st1" d="M511.56 767.63c.93 14.95 1.86 29.92 3.92 44.75 2.59 18.64 6.98 37.03 13.07 54.84m-34.28-97.62c1.95 13.76-1.97 27.57-4.47 41.23-4.02 21.96-4.4 44.58-1.14 66.67m-15.5-104.3c5.64 13.75 9.01 28.43 9.94 43.27 1.08 17.19-1.06 34.82 3.62 51.4m-34.36-89.35c-.19-.17.17-.48.38-.34.22.14.24.44.24.7.03 7.44.05 14.89.08 22.33m-29.45-16.76c.1-.23-.29-.41-.49-.25-.19.16-.21.44-.2.69.05 3.23.44 6.46 1.15 9.62m-15.9-4.2a88.97 88.97 0 00-4.75 25.12c-.28 6.73.2 13.46.68 20.17 2.21 30.71 4.42 61.42 6.62 92.14"/><path class="st1" d="M388.61 790.16c1.43 10.37 3.18 20.69 4.94 31.01L410.71 922m-47.6-120.43c.41 2.83.52 5.71.33 8.56m-33.47 1.86a3.11 3.11 0 01-.38-1.63v6.47M305.28 821c-4.11 13.82-4.25 28.54-2.86 42.89s4.26 28.52 6.05 42.83c1.71 13.62 2.43 27.36 2.18 41.08"/><path class="st1" d="M280.63 825.31l8.34 17.82c1.78 3.81 3.57 7.64 4.75 11.67 1.52 5.19 2 10.61 2.71 15.97 1.21 9.18 3.1 18.26 4.98 27.33l8.7 41.84m-49.37-107.03c-1.46 4.91-2.57 10.04-2.01 15.13.37 3.42 1.48 6.71 2.34 10.04a68.74 68.74 0 011.81 23.86m-22.95-40.18c-.15 4.84-.29 9.67-.44 14.51m-20.04-5.25c-1.3 6.41-2.61 12.82-3.91 19.22-1.01 4.99-2.03 10-2.37 15.08-.66 10.03 1.36 20.04 3.79 29.8m-8.86-62.13c1.61 3.94 2.99 8 3.67 12.2.57 3.51.64 7.08.7 10.63.11 5.64.21 11.28.32 16.91m-14.21-35.45c-5.73 7.38-5.54 17.61-5.09 26.94.34 6.93.68 13.91 2.24 20.67 1.46 6.33 3.99 12.65 3.19 19.09m-22.99-57.3a.989.989 0 01-.38-1.01c4.56 6.11 9.13 12.22 13.36 18.56 2.45 3.67 4.89 7.81 4.38 12.19m-96.13 11.23c-2.25 8.84 2.22 17.86 3.27 26.92.99 8.46-1.03 17-.7 25.51M81.1 914.94c2.68 1.46 4.52 4.04 6.27 6.54 2.39 3.41 4.8 6.87 6.28 10.76 3.17 8.37 1.72 17.97 5.03 26.3m788.57-362.79c3.67-9.11 6.38-18.61 8.08-28.28m.02.83l-3.24 22.61c2.13-7.88 3.7-15.91 4.69-24.01-2.12 7.6-3.73 15.34-4.8 23.16m107.18 5.88c-1.32 7.51-2.65 15.01-3.97 22.52 2.01-8.85 4.02-17.7 6.03-26.54-1.22 6.68-2.43 13.35-3.65 20.03 1.59-7.86 3.82-15.59 6.65-23.1-1.24 8.29-3.04 16.49-5.41 24.53 1.59-7.37 3.19-14.73 4.78-22.1l-2.97 12.16m-156.4-122.01c-.64.7-1.22 1.44-1.75 2.23-1.91 2.84-3.17 6.3-5.97 8.28 1.87-3.62 3.75-7.25 5.62-10.87l-7.94 9.08c2.09-2.73 3.76-5.79 4.93-9.03-2.98.65-5.73 2.37-7.62 4.77 2.13-2.75 4.08-5.64 5.81-8.65-2.68-.91-5.86 1.74-5.45 4.54a17.34 17.34 0 004.69-5c-1.57.05-3.12.44-4.53 1.13 1.88-1.17 3.63-3.07 3.49-5.28-.14-2.21-3.23-3.92-4.7-2.25-.01-1.74-.32-3.49-.89-5.13-2.96 4.53-2.22 11.12 1.66 14.88 1.09-.67.77-2.69-.48-2.98L830 487.1m-85.48-55.26c-2.39 3.8-4.17 7.99-5.24 12.35.8-2.16 1.59-4.32 2.39-6.49a70.062 70.062 0 00-3.44 11.5l4.57-5.98c-1.15 2.37-2.3 4.75-3.46 7.12-.37.77-.76 1.63-.53 2.46.44 1.6 2.67 1.8 4.26 1.31 2.53-.79 4.76-2.5 6.19-4.73-.72.72-1.43 1.44-2.15 2.15-.56-3.05-2.68-5.59-3.53-8.57s.53-7.12 3.63-7.16c1.61-.02 3.95.68 4.28-.9a21.61 21.61 0 00-7.28 9.67c-1.93 5.16-2.01 11.29-5.8 15.28-4.32 4.54-12.68 5.41-14.32 11.45.64-.17 1.28-.33 1.92-.5-4.1 1.48-7.85 3.93-10.85 7.09M553.58 360.71a6.87 6.87 0 00-5.04.72"/><path class="st1" d="M542.65 363.27c-.78-.35-1.81.13-2.04.95 10.86-4.53 21.71-9.06 32.57-13.58-2.1 3.86-7.29 4.4-11.65 4.92-6.99.84-13.84 2.86-20.17 5.94a423.63 423.63 0 0146.29-13.7c-5.99 2.59-12.19 4.69-18.52 6.27 9.77-3.35 19.55-6.71 29.32-10.06 3.42-1.17 6.99-2.36 10.57-1.9-2.51 3.54-7.05 5.53-11.35 4.98 6.09.51 12.36-1.49 17.03-5.43-.4-.95-1.25-1.7-2.24-1.98 1.96-1.36 3.71-3 5.2-4.87-1.35.94-2.97-1.33-2.32-2.84s2.31-2.26 3.6-3.28 2.29-2.99 1.22-4.24c-3.13 4.66-3.75 10.92-1.59 16.1.86-.19 1.4-1.27 1.03-2.08.46.98.91 1.96 1.37 2.94-4.44-.79-9.15.06-13.04 2.35M438.06 321.3l.72-7.47c-1.07 1.84-2.14 3.69-3.22 5.53l.3-9.52c-2.2 3.97-3.16 8.61-2.71 13.13m30.74 244.38c-1.94 2.72-5.72 3.96-8.89 2.91 1.26-.14 2.53-.29 3.79-.43l-3.87-2.1m11.6 5.57h4.19m50.24-25.13c-1.88-.82-3.77-1.64-5.65-2.47l2.93-.06c-1.36.29-2.84 0-3.99-.79m-1.75-9.27c-.28.56-.56 1.12-.84 1.67M25.75 181.33c-10.36 7.55-22.96 12-35.76 12.61a243.441 243.441 0 0151.23-26.93m-41.94-.39c2.3.96 5.22.08 6.62-1.99m114.46-80.69c2.3.96 5.22.08 6.62-1.99m-39.9-27.81c2.3.96 5.22.08 6.62-1.99m56.36 94.17c3.91-.56 7.81-1.12 11.72-1.67m70.33-1.68h78.7m-150.68 10.16c-15.64 3.3-31.27 6.61-46.91 9.91m229.4-16.72l3.35-3.35m36.83-10.04c2.79.56 5.58 1.12 8.37 1.67m102.14 0h3.35m318.49-65.5h3.35m61.41-37.88h3.35m386.57 32.11h3.35M1110.9 18.07h3.35m-60.93 58.37h3.35m133.94-41.69h3.35M595.45 142.97h1.67m205.96-18.41c20.66-.65 41.36-.09 61.95 1.67m150.7 13.4c10.05.56 20.09 1.12 30.14 1.67m73.66 1.49l16.74-1.74m189.23-8.07c6.16-.74 12.48-.2 18.43 1.57m-489.11 5.32c-7.7-5.31-18.27-6.13-26.69-2.06m-97.05-3.21c-3.91 1.67-7.81 3.35-11.72 5.02m-82.05 15.08V148m11.72-21.77v-1.67M834.06 99.5v-1.67m187.25 61.05v-1.67M1317.89 32.9v-1.67m-97.7 46.88v-1.67m-624.7 73.34c-6.98 2.52-14.85 2.5-21.82-.05m449.63-84.3c-6.98 2.52-14.85 2.5-21.82-.05M485 33.84c-6.98 2.52-14.85 2.5-21.82-.05m45.18 122.67c-2.23-.56-4.47-1.12-6.7-1.67m-58.58-21.86c1.12.56 2.23 1.12 3.35 1.67m95.47-77.91l3.35-3.35m147.34-8.38h3.35m11.7 21.86c-2.23-.56-4.47-1.12-6.7-1.67M397.31 83.98c-2.23-.56-4.47-1.12-6.7-1.67m-123.79.83c-2.23-.56-4.47-1.12-6.7-1.67m382.24-38.18c1.12.56 2.23 1.12 3.35 1.67m-87.09 81.27l1.67 1.67m-182.51 6.7l-1.67-1.67M258.9 149.67l-1.67 1.67M295.5 37.02l-1.67 1.67M1379.2 62.5l-1.67 1.67M183.66 39.86l-1.67 1.67M38.66 32.95l-1.67 1.67m176.7 116.73c-.56-1.12-1.12-2.23-1.67-3.35m-46.35-33.08c-.56-1.12-1.12-2.23-1.67-3.35m-3.34 570.57c-1.86-1.12-3.72-2.23-5.58-3.35m58.05 46.88c1.12-.74 2.23-1.49 3.35-2.23M249.97 652l-1.12 1.12m108.28-221.03h1.12m-69.21 0l4.47 4.47m46.87-10.05h-6.7m.01-7.82c2.23-1.12 4.47-2.23 6.7-3.35M732.2 547.07v1.12m-20.1 3.34c2.23-.74 4.47-1.49 6.7-2.23m-6.7-1.12c-1.49-.37-2.98-.74-4.47-1.12m46.89-99.34v1.12M662.99 583.9c-.37-.74-.74-1.49-1.12-2.23m4.47-43.53c.37-1.86.74-3.72 1.12-5.58m21.2 13.39c1.12-2.6 2.23-5.21 3.35-7.81m372.84-200.93h1.12m2.23-2.24l-1.12 1.12m-45.77 34.6c-1.86 1.12-3.72 2.23-5.58 3.35m-1.11 4.47h3.35m-63.63-7.82l-3.35-3.35m214.32 304.75l-1.12-1.12m10.05-56.93c1.49-2.98 2.98-5.95 4.47-8.93m-10.05 8.93c-3.35 4.09-6.7 8.19-10.05 12.28m1.12-6.7c.37-1.49.74-2.98 1.12-4.47m10.04 18.99l5.58 16.74m32.38 29.02v1.12m4.46-18.98v-3.35m5.58-17.86l-1.12 1.12m11.17-23.44c-.37-1.12-.74-2.23-1.12-3.35M510.06 336.09l-1.12-1.12m-46.88-8.93c-1.12-.37-2.23-.74-3.35-1.12m4.46-13.39c2.6 1.86 5.21 3.72 7.81 5.58m-40.18-8.93v-1.12m125.03 43.54l1.12 1.12"/><circle cx="504.14" cy="363.23" r="4.22"/><path class="st0" d="M504.14 359.01a4.22 4.22 0 11-4.22 4.22c.01-2.33 1.9-4.22 4.22-4.22m0-4c-4.53 0-8.22 3.69-8.22 8.22 0 4.53 3.69 8.22 8.22 8.22s8.22-3.69 8.22-8.22c0-4.53-3.69-8.22-8.22-8.22z"/><circle cx="494.18" cy="378.89" r="5.45"/><path class="st0" d="M494.18 373.43a5.45 5.45 0 110 10.9 5.45 5.45 0 010-10.9m0-4c-5.21 0-9.45 4.24-9.45 9.45s4.24 9.45 9.45 9.45c5.21 0 9.45-4.24 9.45-9.45s-4.23-9.45-9.45-9.45z"/><circle cx="482.4" cy="394.74" r="5.45"/><path class="st0" d="M482.4 389.28a5.45 5.45 0 11-5.45 5.45c-.01-3 2.44-5.45 5.45-5.45m0-4c-5.21 0-9.45 4.24-9.45 9.45 0 5.21 4.24 9.45 9.45 9.45s9.45-4.24 9.45-9.45c0-5.2-4.24-9.45-9.45-9.45z"/><circle cx="465.84" cy="414.23" r="5.45"/><path class="st0" d="M465.84 408.77a5.45 5.45 0 110 10.9 5.45 5.45 0 010-10.9m0-4c-5.21 0-9.45 4.24-9.45 9.45s4.24 9.45 9.45 9.45c5.21 0 9.45-4.24 9.45-9.45s-4.24-9.45-9.45-9.45z"/><circle cx="448.68" cy="426.51" r="5.45"/><path class="st0" d="M448.68 421.05a5.45 5.45 0 11-5.45 5.45c-.01-3 2.44-5.45 5.45-5.45m0-4c-5.21 0-9.45 4.24-9.45 9.45 0 5.21 4.24 9.45 9.45 9.45s9.45-4.24 9.45-9.45c0-5.2-4.24-9.45-9.45-9.45z"/><circle cx="504.14" cy="297.91" r="4.22"/><path class="st1" d="M474.06 561.02c-.37-.56-.74-1.12-1.12-1.67m4.16-1.39c-.09-.19-.19-.37-.28-.56m4.77-1.4c-.19-.28-.37-.56-.56-.84m3.96-2.25l.27.84m2.75-3.33c.44.34.75.84.86 1.38m3.6-3.33c.53.37.86 1.02.85 1.66m3.06-3.34l.84.84m2.53-2.81c.46.47.93.93 1.39 1.4m2.5-2.22l.28.28m8.91 3.06c-.02.44.22.87.59 1.1m-44.94 27.65h-.28M92.11 914.39c.65.49 1.3.97 1.95 1.46m-.08 5.45c1.14.8 2.28 1.61 3.42 2.41m.04 6.26c.63.66 1.26 1.33 1.9 1.99m89.06-68.64a7.92 7.92 0 015.35-1.46m-4.38 7.3h2.92m-1.94 3.89h1.46m-1.46 4.88c.16.02.32.05.48.07m24.32-23.92h1.46m-1.95 8.76h.49m78.78-37.47c1.78-.65 3.57-1.3 5.35-1.95m-2.42 7.81c.49-.16.97-.32 1.46-.49m-1.44 8.7c.03-.46.09-.97.46-1.24s1.07.08.88.5m.09 9.06l.49-.49m1.95 10.22l.3-.3-.3.3m.48 11.67l.49-.49m98.71-67.16c.65-.16 1.3-.33 1.94-.49m-3.4 10.14c1.14-.15 2.27-.31 3.41-.46m-1.94 6.91l.97.97m-1.44 9.65l3.4.51m-1.47 8.32c.65.49 1.3.97 1.95 1.46m-1.95 6.32l2.43 1.95m0 6.82c.32.16.65.33.97.49m81.7-80.3l3.44-.84m-1.47 6.32c1.14-.16 2.27-.31 3.41-.47m-4.39 6.21c1.13.32 2.27.65 3.4.97m-2.93 13.17c.81.33 1.62.65 2.43.98m-5.3 4.78c.65.49 1.29.98 1.94 1.47m-1.09 4.88a3.95 3.95 0 001.08 3.4m-2.45 5.86v3.4m46.2-52.96l4.86-.54m-11.18 9.13c1.3.03 2.59.07 3.89.1m-7.78 7.31h4.86m3.4-13.13c.81.16 1.62.32 2.43.49m-9.28 17.1l2.91 1.47m-3.78 5.65c.81.49 1.62.97 2.43 1.46m-3.03 6.37c-.55.85.5 2.14 1.44 1.78m-2.32 5.51c.65.49 1.29.98 1.94 1.47m-1.46 5.36c.48.65.97 1.3 1.45 1.95m-.4 7.3c.16.81.32 1.62.49 2.43m67.94-72.17l3.95.45m-5.85 7.09c1.3-.28 2.69-.15 3.91.38m-3.93 4.97c.65.17 1.29.34 1.94.52m-.47 12.6c1.15-.24 2.37-.09 3.42.42m-2.44 6.34c.81.32 1.63.63 2.44.95m-1.47 6.37c.65.32 1.3.65 1.95.97m-.49 5.34c.98.46 1.97.92 2.95 1.38m-.53 5.45c.96.66 1.92 1.33 2.89 1.99m-.99 5.87c.81.48 1.62.97 2.43 1.45m-.92 4.78c1.13.65 2.27 1.3 3.4 1.95m-1.52 5.41l1.46 1.46m-1.39 5.29l2.43 1.95m-.5 5.35c.65.97 1.3 1.94 1.95 2.92m98.23-103.09c.83.63 2.09.6 2.89-.07m-6.28 5.88h3.89m-6.32 5.84h3.4m-2.91 6.32h2.43m-4.38 6.32h2.43m-2.95 6.88c.76.37 1.71.31 2.41-.16m-3.35 6.42h2.43m-1.85 6.4c.6-.65 1.73-.73 2.42-.17m-2.5 5.46c.59-.32 1.34-.33 1.94-.04m-1.5 6.45c.49.16.97.33 1.46.49m67.68-62.96c.81.32 1.62.65 2.43.97m-3.93 4.45c1.62.33 3.24.65 4.86.98m-4.86 6.36c.86-.55 2.05-.54 2.9.02m-2.9 5.33c.9-.06 1.82.3 2.43.96m-2.92 5.36l.49.49m69.08-27.36c1.45.35 2.91.69 4.36 1.04m-6.76 3.78l4.83 1.56m-3.85 4.4c.46.83 1.46 1.31 2.39 1.15m-2.47 5.23c.86.93 1.72 1.86 2.57 2.79m-2.03 5.9c.65.49 1.29.98 1.94 1.47m-2.02 4.94c.65.65 1.29 1.3 1.94 1.95m54.06-36.15l1.95.48m-4.9 4.03c1.78.65 3.57 1.29 5.35 1.94m-5.82 3.85c.81.48 1.63.96 2.44 1.45m-1.45 4.85c1.32.94 2.64 1.89 3.95 2.83m-2.58 6.51c.65.65 1.3 1.29 1.96 1.94m-1.38 7.22l1.95 2.43m-.04 6.84l-.49-.49m106.51-31.61c.61.66 1.53 1.02 2.43.96m-5.82 5.79c1.3.16 2.59.33 3.89.49m-7.31 5.88c1.2-.05 2.42.3 3.4 1m-1.94 5.33l.97.97m-1.94 6.82l1.46 1.46m-1.46 5.83c.32 1.13.65 2.27.97 3.4m176.98 18.58c1.64.78 3.27 1.56 4.91 2.34m-9.72 1.94c1.95.81 3.89 1.62 5.84 2.43m-5.84 3.9c.99-.12 2.01.06 2.91.51m-3.4 4.35h.97m110.94 38.84c.81.65 1.61 1.3 2.42 1.96m-2.43 4.89l.96 1.95m-1.95 4.4a2.1 2.1 0 00.45 1.95m54.97 14.1l.49.49m-1360.78 9.8l4.2 5.01m10.95-14.29c1.4 2.23 2.79 4.47 4.19 6.7m15.09-18.43c1.42 1.94 2.83 3.88 4.25 5.81m14.14-14.17c1.12 1.95 2.23 3.91 3.35 5.86m15.94-15.95c-.85-.78-1.15-2.1-.72-3.17 2.03 2 3.45 4.6 4.03 7.39m17.62-15.08c1.15 1.65 2.3 3.3 3.45 4.96m16.57-12.45l2.49 4.2m18.56-14.41c1.89.97 3.18 3.03 3.22 5.16m20.35-15.99c.77 1.98 1.53 3.96 2.3 5.94m17.65-15.95l2.51 3.35m25.06-9.16l-.84-.84m18.42-9.21c.56 1.4 1.12 2.79 1.67 4.19m26.79-14.23a13.05 13.05 0 013.36 6.69m19.34-12.61c1.09 1.97 2.19 3.93 3.28 5.9m17.58-11.72c1.12 2.23 2.24 4.46 3.37 6.69m24.18-16.71c.83 2.24 1.65 4.47 2.48 6.71m27.62-10.86c.28.56.57 1.11.85 1.67m32.88-10.17c.57 1.11 1.13 2.22 1.7 3.34m13.18-9.1l2.49 4.2m20.99-7.57c.28.56.56 1.12.84 1.67m15.13-5.9c.84 1.12 1.67 2.24 2.51 3.35m21.71-9.17c-.59-.46-1.18-.92-1.77-1.37.25 1.41.88 2.76 1.79 3.87m24.26-5.01v5.02m33.78-12.53c.08 1.95.17 3.9.25 5.85m27.02-10.87c.56 1.12 1.12 2.23 1.67 3.35m30.15-6.71c.56 1.67 1.13 3.35 1.69 5.02m20.73-8.11l.6 3.34m16.72-7.25l.6 6.14m22.28-8.38c.37 1.49.75 2.98 1.12 4.46m19.48-9.47c.53 1.61.72 3.33.56 5.02m19.52-5.01c.96 1.91 1.56 4 1.74 6.13m19.48-7.81a9.647 9.647 0 011.13 5.02m18.31-8.36l.66 5.01m21.21-7.81v7.26m20.1-8.38c.59 1.98.77 4.09.53 6.14m20.11-7.26v3.35m16.2-5.58c.57 1.41.76 2.97.54 4.47m18.98-5.59v1.67m19.61-3.33c-.19 1.49-.38 2.98-.56 4.46m25.58-4.47c-.19 1.67-.37 3.35-.56 5.02m15.71-3.89c-.18 1.3-.37 2.61-.55 3.91m20.59-1.69v3.91m20.09-3.91v3.91m18.96-2.23c.24 1.68.06 3.43-.53 5.03m16.23-1.14c.19 1.12.37 2.23.56 3.35m18.98 2.8c.19 2.42.37 4.84.56 7.26m16.24 4.44l.54 3.35m14.98 3.37c.19 1.3.38 2.6.56 3.91m17.67-4.37c.74 1.32 1.07 2.87.92 4.38m17.12-2.8c.19 1.12.37 2.23.56 3.35m15.77-5.04c.18 1.68.36 3.35.53 5.03m21.09-1.67c.19 1.12.37 2.23.56 3.35m22.4 2.77c.18.93.37 1.86.55 2.79m22.82 6.16v6.14m21.89 3.83a8.55 8.55 0 01.94 6.2m24.61 4.48c.19 1.49.37 2.98.56 4.47m21.71 3.35c.18 1.3.37 2.61.55 3.91m20.71 5.01c.56 2.42 1.12 4.84 1.67 7.26m19.54-1.67c.19 1.12.37 2.23.56 3.35m20.19 1.67c.01 1.67.03 3.35.04 5.02m23.31 2.79v3.35m25.02.01c.19 2.05.39 4.09.58 6.14m24.19 3.88c.18 1.49.37 2.98.55 4.47m22.21.57v5.58m21.84-.56c.19 2.79.37 5.58.56 8.37m19.47-.55v5.02m18.98 1.67c.57 1.41.76 2.97.54 4.47m15.65 1.67a8.596 8.596 0 011.09 5.59m15.09.56c.19 1.86.37 3.72.56 5.58m10.64-.57c.19.93.38 1.86.56 2.79m13.33 1.69c.57 2.75.58 5.62.05 8.37M546.9 727.35v1.67m503.99 13.39l-1.67 1.67M128.29 857.95v-1.67m482.24-739.7c.04-9.19-1.12-18.39-3.44-27.29 1.5 2.72 4.02 5.14 7.11 5.43 3.09.3 6.45-2.35 5.99-5.43-.13-.87-.52-1.77-.19-2.58.67-1.65 3.31-.92 4.28.57.97 1.49 1.3 3.46 2.72 4.53-.14-3.45 2.91-6.18 5.99-7.76 3.07-1.58 6.56-2.68 8.8-5.31.31 2.39.63 4.77.94 7.16 1.82-.14 3.12-1.72 4.57-2.83 1.45-1.1 3.9-1.59 4.83-.03.34.57.37 1.29.7 1.87.67 1.17 2.25 1.36 3.44 2 1.19.64 1.8 2.75.5 3.11.78-1.65 1.64-3.4 3.21-4.33s4.05-.52 4.6 1.22c.69 2.16-1.64 5.27.33 6.39.74.42 1.72.17 2.48.54 1.23.6 1.23 2.34 1.03 3.7l-.84 5.94c-.16 1.1-.21 2.44.71 3.06 1 .68 2.35-.05 3.27-.85 2.01-1.75 3.65-3.89 5.73-5.55 2.08-1.66 4.81-2.83 7.38-2.15a60.786 60.786 0 0021.54 8.71M484.8 86.16c-4.11-11.45-11.66-21.65-21.43-28.9 4.23 6.11 8.05 12.67 9.77 19.9.94 3.95 1.23 8.02 1.51 12.07.28 3.93.56 7.87.5 11.81m-.44 2.27c.3.22.44.63.35 1-1.16-6.69-4.57-12.98-9.55-17.6 4.17 10.28 2.75 22.64-3.64 31.71m89.44-4.85a46.995 46.995 0 01-6.64-23.67 83.943 83.943 0 01-8.92 14.84c-.41-3.81-2.28-7.44-5.15-9.98-.44 3.2-.88 6.4-1.33 9.6-.36-1.45-2.34-1.91-3.7-1.29-1.36.61-2.26 1.9-3.22 3.04s-2.19 2.26-3.68 2.28c-1 .02-1.95-.47-2.95-.58s-2.24.4-2.28 1.41m-113.4-3.91c1.93-.52 3.96-.53 5.96-.53 11.72-.03 23.47-.05 35.09 1.38m-28.55-51.1c.19 14.14-.03 28.28-.67 42.41m-25.57 17.05c-2.76-7.89-5.52-15.78-8.28-23.66.18 4.6.37 9.19.55 13.79a61.916 61.916 0 00-15.42-11.37c-.97-.51-2-1-3.09-1.04-1.06-.04-2.08.35-3.07.7a70.52 70.52 0 01-10.7 2.92c-1.64.31-3.33.57-4.96.23-3.06-.64-5.41-3.24-8.46-3.95-2.4-.56-4.9.14-7.25.9-5.97 1.92-11.82 4.23-17.49 6.9-2.61-2.85-5.55-5.88-9.38-6.41-2.66-.37-5.31.54-7.83 1.45-15.02 5.39-29.93 11.1-44.71 17.11M349.19 44.1c-1.51 2.06-1.65 4.79-1.72 7.35-.29 10.56-.3 21.13-.03 31.7m-164.62 33.26c.75-11.53 2.06-23.02 3.94-34.42 3.92 9.35 7.84 18.69 11.76 28.04a660.7 660.7 0 006.4-22.74c.72 4.87 1.87 9.68 3.43 14.35 2.87-4.1 6.29-7.81 10.12-11.02 0 5.69 1.62 11.38 4.62 16.22.34-1.49.89-2.94 1.62-4.28 2.16 2.04 3.94 4.48 5.2 7.16M2.59 110.98l22.14-5.16c1.54-.36 3.09-.72 4.67-.74 2-.02 3.95.5 5.88 1 12.44 3.23 25.09 5.8 37.9 6.82 16.8 1.35 33.68.05 50.49-1.26m1045.71-34.98c-1.2-3.4-2.39-6.79-3.59-10.19.87.91 1.17 2.21 1.43 3.44a209.45 209.45 0 014.33 37.02M756.96 91.56c.59-.18.24 1.1-.32.83-.56-.26-.55-1.05-.45-1.66 1.63-10.27 3.27-20.54 4.9-30.82 2.01 7.93 4.03 15.87 6.04 23.8 1.23-8.5 3.05-16.92 5.47-25.16 1.09 5.43 2.19 10.87 3.28 16.3 3.77-9.58 6.05-19.74 6.75-30.01.21 13.84.89 27.68 2.03 41.48a90.53 90.53 0 016.19-24.23l2.58 27.11c-.59-2.15.33-4.63 2.18-5.88 1.1 5.69 1.45 11.53 1.05 17.31m-57.4 12.73c4.49-3.3 8.98-6.59 13.47-9.89.86-.63 1.75-1.27 2.8-1.45 1.16-.19 2.33.23 3.44.63a92.571 92.571 0 0015.79 4.11c1.89.32 3.88.57 5.67-.1 3-1.11 5.02-4.58 8.21-4.66 1.29-.03 2.51.53 3.67 1.08 6.44 3.05 12.83 6.21 19.16 9.49m46.42 2.71a279.88 279.88 0 0011.37-29.75c.21 4.07 3.64 7.12 6.62 9.9 2.98 2.78 5.99 6.54 5.03 10.51 1.15-5.94 5.23-11.25 10.67-13.9-.19 2.58 2.82 4.45 5.39 4.14 2.57-.31 4.71-2.04 6.76-3.63 2.04-1.59 4.35-3.18 6.94-3.14-.99 3.92 2.8 8.22 6.81 7.75 1.87-.22 4.27-1.07 5.28.53.35.55.37 1.24.36 1.89-.04 4.55-1.01 9.09-2.82 13.26m-38.71-9.38c8.98-26.3 24.85-50.21 45.59-68.71m49.12 79.19c-.01.47.68.66 1.06.4.38-.27.52-.76.63-1.21.85-3.55 1.7-7.1 2.54-10.64.56-2.36 1.22-4.88 3.03-6.49 1.68-1.5 4.03-1.92 6.25-2.25 5.34-.8 10.71-1.43 16.1-1.87 3.12-.26 6.36-.44 9.28.7 4.05 1.59 6.8 5.54 8.02 9.72s1.16 8.6 1.08 12.95m21.58-7.63c6.08-.29 12.18-.2 18.24.26"/><path class="st1" d="M788.41 92.53c.13-3.44.26-6.89.38-10.33-.18 4.44-.36 8.88-.53 13.33 1.59-5.54 2.04-11.4 1.33-17.12l-4.8 17.73c-.91-2.92-1.83-5.84-2.74-8.77a22.011 22.011 0 00-2.66 13.42c-.14-7.84-.29-15.68-.43-23.52-.29 7.48-.59 14.96-.88 22.43-.2-1.41.29-2.9 1.3-3.92-.35 2.66-3.41 4.26-6.08 4s-5-1.86-7.19-3.4c.99 2.04 1.99 4.08 2.98 6.12-1.33-2.15-2.67-4.31-4-6.46-.5-.8-1.01-1.65-1.06-2.59-.23-4.45 8.02-3.65 10-7.64-1.75-.23-3.18-1.94-3.1-3.71l-.75 16.24c-1.44-2.62-3.34-5.52-6.31-5.9-2.97-.38-5.61 4.21-2.97 5.62m-171.99 3.92c.13-3.44.26-6.89.38-10.33-.18 4.44-.36 8.88-.53 13.33 1.59-5.54 2.04-11.4 1.33-17.12l-4.8 17.73c-.91-2.92-1.83-5.84-2.74-8.77a22.011 22.011 0 00-2.66 13.42c-.14-7.84-.29-15.68-.43-23.52-.29 7.48-.59 14.96-.88 22.43-.2-1.41.29-2.9 1.3-3.92-.35 2.66-3.41 4.26-6.08 4-2.67-.26-5-1.86-7.19-3.4.99 2.04 1.99 4.08 2.98 6.12-1.33-2.15-2.67-4.31-4-6.46-.5-.8-1.01-1.65-1.06-2.59-.23-4.45 8.02-3.65 10-7.64-1.75-.23-3.18-1.94-3.1-3.71l-.75 16.24c-1.44-2.62-3.34-5.52-6.31-5.9s-5.61 4.21-2.97 5.62m397.07-4.24c.13-3.44.26-6.89.38-10.33-.18 4.44-.36 8.88-.53 13.33 1.59-5.54 2.04-11.4 1.33-17.12l-4.8 17.73c-.91-2.92-1.83-5.84-2.74-8.77a22.011 22.011 0 00-2.66 13.42c-.14-7.84-.29-15.68-.43-23.52-.29 7.48-.59 14.96-.88 22.43-.2-1.41.29-2.9 1.3-3.92-.35 2.66-3.41 4.26-6.08 4-2.67-.26-5-1.86-7.19-3.4.99 2.04 1.99 4.08 2.98 6.12-1.33-2.15-2.67-4.31-4-6.46-.5-.8-1.01-1.65-1.06-2.59-.23-4.45 8.02-3.65 10-7.64-1.75-.23-3.18-1.94-3.1-3.71l-.75 16.24c-1.44-2.62-3.34-5.52-6.31-5.9-2.97-.38-5.61 4.21-2.97 5.62m57.45-6.09c-1.39 2.63-2.79 5.26-4.18 7.89.19-3.27 1.62-6.46 3.96-8.76-.39 1.16-2.36-.21-1.81-1.3.55-1.09 2.02-1.25 3.24-1.26-.07 4.36 6.29 7.1 9.42 4.06-1.13 4.85-7.14 7.87-11.71 5.88 1.95-1.87 4.53-3.07 7.22-3.36-.28 1.98-1.08 3.87-2.3 5.46 8.16-.86 16.51.16 24.22 2.97a77.927 77.927 0 00-27.35-4.11m-123.28-8.69c.93-.35 1.86-.69 2.79-1.04-1.65 4.72-3.29 9.43-4.94 14.15 1.24-2.97 2.48-5.94 3.71-8.91-1.16 1.01.85 2.93 2.22 2.24s1.75-2.44 1.96-3.96c-.23 1.86-.45 3.73-.68 5.59-1.38-.52-3.11.59-3.21 2.06 8.14-1.58 15.58-9.37 23.38-6.56 2.55.92 4.6 2.89 7.1 3.95s6.02.78 7.13-1.7c.59 1.48.41 3.24-.48 4.56l8.72-2.25c-10.37 5.16-23.32 4.73-33.32-1.12 7.74.97 15.7.1 23.05-2.51m-521.88 4.05a16.224 16.224 0 00-7.55-4.99m-3.47.41c-.28 1.84-.04 3.75.69 5.46a66.644 66.644 0 00-6.85-13.23c.79 2.93 1.58 5.85 2.36 8.78-1.17-1.01-2.34-2.03-3.51-3.04.66.89-.94 1.91-1.96 1.47-1.02-.44-1.68-1.49-2.72-1.88-1.67-.63-3.41.69-5.18.93-2.21.29-4.28-1.13-6.5-1.42s-5 1.94-3.7 3.75c-2.06-2.75-6.23-2.01-9.66-1.97-3.43.04-7.81-2.85-6.13-5.84-.73.76.32 2.26 1.29 1.84 1.2 1.2 3.28-1.13 2.31-2.53s-3.2-1.21-4.56-.19c-1.36 1.02-2.17 2.59-3.23 3.92-1.07 1.32-2.69 2.48-4.35 2.12-.88-.19-1.63-.8-2.52-1-2.98-.71-5.22 3.17-8.28 3.44-1.86.17-3.53-1.04-5.34-1.49-2.89-.73-5.95.47-8.9.05-2.95-.41-5.69-4.25-3.44-6.2A307.547 307.547 0 00254.71 111m908.36-23.89c-.28 1.84-.04 3.75.69 5.46a66.644 66.644 0 00-6.85-13.23c.79 2.93 1.58 5.85 2.36 8.78-1.17-1.01-2.34-2.03-3.51-3.04.66.89-.94 1.91-1.96 1.47-1.02-.44-1.68-1.49-2.72-1.88-1.67-.63-3.41.69-5.18.93-2.21.29-4.28-1.13-6.5-1.42s-5 1.94-3.7 3.75c-2.06-2.75-6.23-2.01-9.66-1.97-3.43.04-7.81-2.85-6.13-5.84-.73.76.32 2.26 1.29 1.84 1.2 1.2 3.28-1.13 2.31-2.53s-3.2-1.21-4.56-.19c-1.36 1.02-2.17 2.59-3.23 3.92-1.07 1.32-2.69 2.48-4.35 2.12-.88-.19-1.63-.8-2.52-1-2.98-.71-5.22 3.17-8.28 3.44-1.86.17-3.53-1.04-5.34-1.49-2.89-.73-5.95.47-8.9.05-2.95-.41-5.69-4.25-3.44-6.2a307.547 307.547 0 00-35.48 12.57M113.3 116.63c-3.37 1.54-6.96 2.6-10.63 3.13a7.52 7.52 0 015.65-.66c-8.43 3.79-18.22 1.44-27.09-1.16-1.16-.34-2.44-.68-3.54-.17s-1.58 2.28-.54 2.9c-4.55-1.37-9.11-2.75-13.66-4.12.84 1.8 1.67 3.6 2.51 5.4-9.47-6.43-21.22-9.42-32.61-8.3-.22-3.42-4.88-4.23-8.3-3.91-6.88.66-13.7 1.86-20.39 3.61m407.04.17c3.34-1.65 7.08-2.47 10.8-2.36-3.64.12-7.28.25-10.92.37 4.92.18 9.88-.67 14.46-2.49.11.97.22 1.93.34 2.9.92.59 2.12.73 3.15.36m-212.97-1.96l-3.57-9.72c-.11 1.49-.21 2.98-.32 4.48.47-1.65.13-3.51-.88-4.88-1.64 1.44-3.28 2.87-4.92 4.31-.73.64-1.61 1.32-2.56 1.13-3.21-.63-.47-8.28-3.71-7.85-.05 3.35-.11 6.71-.16 10.06m530.32.39l-3.57-9.72c-.11 1.49-.21 2.98-.32 4.48.47-1.65.13-3.51-.88-4.88-1.64 1.44-3.28 2.87-4.92 4.31-.73.64-1.61 1.32-2.56 1.13-3.21-.63-.47-8.28-3.71-7.85-.05 3.35-.11 6.71-.16 10.06m-524.8 8.8c-.31-6.66-.63-13.32-.94-19.98-.84 6.49-1.07 13.05-.68 19.58.18-.96.35-2.02-.15-2.85s-1.97-1.07-2.37-.18m436.14-3.17a51.99 51.99 0 01-1.31-10.76 20.888 20.888 0 00-1.93 11.57c.16-2.93-.22-5.88-1.14-8.67a18.287 18.287 0 00-1.61 8.84 27.39 27.39 0 007.2-8.25c-1.75 1.82-1.04 5.21 1.14 6.48 2.18 1.27 5.2.49 6.81-1.46-1.09 1.69.78 3.99 2.78 4.19 2 .2 3.88-.87 5.71-1.7s4.08-1.41 5.77-.32c.75.48 1.35 1.27 2.22 1.43.94.18 1.82-.41 2.65-.89 5.42-3.13 13.01-1.75 16.98 3.09M480.68 89.71c-.19-1.36.13-2.78.87-3.93-.01 6.61-.03 13.22-.04 19.82.02-2.43.05-4.85.07-7.28l-1.02 17.11c.67-4.23.15-8.64-1.49-12.59.56 4.41-.06 8.97-1.77 13.08-2.43-1.62-3.83-4.66-3.48-7.56-.5 1.51-1 3.03-1.5 4.54-.43-1.34-2.99-.26-2.33.98m431.87-14.36c-.35-.12-.7-.24-1.06-.36m108.3 4.03c.36.09.72.18 1.08.26m5.52.75c-.08.31-.15.62-.23.93m160.47-8.57c-2.72-1.44-1.11-6.14 1.87-6.92 2.98-.78 6 .86 8.66 2.41 2.66 1.55 5.75 3.12 8.69 2.2 2.17-.68 3.84-2.64 6.08-3.03 3.87-.68 6.69 3.34 9.61 5.97 5.55 5 13.67 5.59 21.13 5.93m-140.59 7.47l-.09-6.07c-.01-.58 0-1.21.37-1.66.44-.54 1.22-.61 1.91-.63 9-.3 18.72.75 26.31-4.09"/><path class="st1" d="M1103.89 99.77a4.691 4.691 0 00-3.82-.68c8.92-5.24 19.34-7.89 29.69-7.56 5.1.16 10.23 1.03 15.28.31M1239 96.3c-1.04-.96-.3-2.7.62-3.79 5.87-7.01 17.11-8.75 24.82-3.83 2.05 1.31 4.19 3.1 6.59 2.7 2.18-.36 3.63-2.41 5.57-3.48 2.32-1.28 5.15-1.07 7.78-.72 6.85.91 13.62 2.49 20.16 4.72m-7.58 4.36c6.42 4.08 14.83 2.39 22.07.05 6.32-2.04 12.5-4.48 18.52-7.29 1.99-.93 4.07-1.93 6.27-1.85 1.69.06 3.29.76 4.85 1.41 13.3 5.47 27.92 7.7 42.24 6.44"/><path class="st1" d="M1299.29 99.59c-2.27-.98-5.09 2.55-6.99.97-1.44-1.19-.14-3.48 1.17-4.81-1.07.38-2.15.76-3.22 1.13-.12-.99-.23-1.98-.35-2.97-1.41 1.89-5.03 1.05-5.46-1.28l-7.53 4.29c1.43-.87 2.39-2.47 2.49-4.14-2.28 1.82-4.56 3.63-6.84 5.45l.24-3.16a61.556 61.556 0 01-12.88 1.77c.22-1.08.45-2.16.67-3.23-2.66.5-5.15 1.88-6.97 3.89.3-.96.61-1.92.91-2.87a7.03 7.03 0 00-4.4 3.04l-.6-4.33c-2.63-.04-4.54 2.6-5.14 5.15-.6 2.56-.4 5.28-1.24 7.77-.84 2.49-3.36 4.78-5.87 4.01-1.42-.44-2.39-1.71-3.56-2.63s-3-1.45-4.05-.4m-9.48.6l-13.69-11.17c-.59-.48-1.22-.98-1.98-1.06-1.02-.11-1.94.57-2.74 1.21l-5.73 4.59c.18-1.15.36-2.3.54-3.46-2.09 2.17-4.18 4.33-6.27 6.5.18-1.48.06-3.44-1.37-3.84-1.04-.29-2.03.52-3.07.8-1.91.51-3.91-.87-4.79-2.63s-.9-3.82-.9-5.8c-1.52-.14-2.93 1.48-2.57 2.97m135.4 6.75c-.89-1.13-2.45-1.67-3.84-1.34 6.52-1.65 13.04-3.29 19.55-4.94a19.96 19.96 0 01-8.79 4.59c4.49-2.15 8.97-4.3 13.46-6.44-.72.23-.66 1.39-.05 1.84.61.45 1.44.4 2.2.33 3.12-.29 6.24-.59 9.36-.88-.9 1.82-2.82 3.09-4.84 3.22 7.35-3.93 16.11-5.13 24.24-3.32-.29 1.79-1.41 3.43-2.98 4.34l17.04.06"/></svg>