<svg width="1081" height="436" fill="none" xmlns="http://www.w3.org/2000/svg"><g clip-path="url(#clip0)"><path d="M234.617 379.869l-4.94-4.866-1.333.333-17.806 11.465 1.546 2.203 6.592 6.152 3.341 2.672 4.281-7.856 5.789-7.182 2.53-2.921zm586.367-44.37l-4.743 7.507-7.069-3.481-5.039-3.338-.386-2.777 1.909-4.586 2.054-1.461 3.311 1.673 9.963 6.463zM400.649 148.081l2.94.144 1.069-.401 5.038 2.353 6.698 5.177 3.167-5.661.546-4.442-1.508-2.059-5.88-4.079-5.41-4.662-1.325.621-5.335 13.009zM102.318 328.218l-8.357 8.62-3.933-6.614 1.432-3.89 5.335-4.079h1.909l2.288 4.306 1.326 1.657zm254.295-196.855l-1.091-2.331s-4.046 8.06-16.207 10.996c-12.153 2.937-18.571 3.005-18.571 3.005l-5.008-1.4-.197 4.003 2.137 8.272 2.803 6.803 5.213 8.075 3.584 4.208 3.106.696s9.411-.257 15.472-4.018c6.062-3.762 8.055-5.638 10.244-8.408 2.198-2.77 4.183-6.683 4.183-6.683l-5.668-23.218zM792.154.416l-7.797 7.386 2.016 5.6 2.106 2.37 2.781-.447 8.872-8.143-1.97-2.778-3.629-1.301-2.379-2.687zm137.453 177.459l.242 1.817 3.069.877 3.538-2.557 4.41-.598 6.652-.197V174.5l-2.204-8.362-3.001-1.961s-4.485-1.241-7.13-.923c-2.644.318-6.872 1.052-7.266 2.248-.386 1.196-.265 3.519-.265 3.519l1.318 5.123.637 3.731zm-129.3 30.438l4.091-2.792h4.031l6.827 1.627 7.925 2.527 9.1 1.627 7.933-1.044 4.289-18.889 7.599-23.173-.106-1.673-31.429 4.072-10.251 1.619-2.152 1.355.076 1.885-3.092 6.962-2.258 10.05-2.583 15.847z" fill="#fff"/><path d="M671.872 432.889s1.349.129 8.213-3.11c6.865-3.232 22.738-15.204 22.738-15.204s8.229-7.961 9.525-9.445c1.295-1.483 8.289-9.573 10.691-14.235 2.394-4.662 5.766-12.555 5.766-19.154s-1.94-14.879-4.6-17.86c-2.659-2.982-5.053-6.342-9.653-7.568-4.599-1.226-8.811-1.166-12.176 2.391-3.371 3.557-3.371 12.23-3.371 12.23l-.841 6.614-1.554 6.403-2.977 4.669-4.137 4.397-4.448 3.512-5.698 2.89-5.561 1.998-5.743.311-1.47-.492s8.91-5.676 12.562-9.604c3.652-3.928 8.001-10.935 10.244-16.611 2.243-5.676 3.576-11.564 4.213-16.128.629-4.555.954-13.947.954-13.947l.569-.431 2.977-1.37 9.403-4.147 20.655-9.46 26.633-11.738 14.585-6.486 10.449-5.252 9.683-5.721s8.44-5.835 11.63-9.316c3.19-3.481 6.198-6.841 7.911-9.967 1.712-3.126 2.955-8.907 2.894-12.918-.061-4.011-1.538-7.371-4.016-10.732-2.477-3.36-6.728-5.6-8.145-5.781-1.417-.175-2.667-.795-6.395-.061-3.728.734-7.94 4.806-7.94 4.806l-3.993 6.576-1.19 3.375-4.607.47-27.602 4.729-4.925 1.234s1.076-3.739 2.356-8.764c1.281-5.025 1.591-27.365 1.591-27.365l-1.273-16.263-2.841-14.008-4.569-10.86-5.054-8.31-8.584-9.505-10.047-7.576-11.244-5.713-11.115-4.057s2.326-2.035 2.962-5.116c.637-3.08.47-18.601.47-18.601l-1.091-9.907s-1.728-8.287-5.312-14.886c-3.583-6.599-11.274-15.06-15.464-18.51-4.19-3.452-16.813-16.022-29.171-17.816-12.358-1.793-19.488.069-19.488.069l-9.281.408-9.721.765-9.002 1.195-7.493 1.9-8.456 3.64-9.267 5.85-3.856 3.307-5.137 5.162-3.258 4.14-1.963 2.898-1.962 3.148-2.319 4.366-2.265 5.54-1.523 4.723-1.197 5.464-.94 8.612-2.621-2.361-11.54-13.131-7.418-9.588s-3.364-5.335-5.091-8.446c-1.736-3.11-4.357-9.687-4.554-13.539-.197-3.852.644-9.437 2.129-12.85 1.485-3.413 4.251-9.49 5.092-13.29.841-3.798 1.189-9.633-.788-13.092-1.978-3.458-4.403-5.827-7.32-5.486-2.917.348-4.849 1.385-6.281 3.95-1.432 2.573-2.371 8.15-2.371 8.15l-.152 10.626-1.288-1.188s-1.137-7.364-2.72-10.724c-1.584-3.36-3.857-7.167-3.857-7.167s-1.189-2.225-3.114-1.975c-1.932.25-3.659 1.43-4.501 3.209-.841 1.778-1.629 5.04-.939 10.027.689 4.988 3.311 10.671 3.311 10.671l4.054 6.327s-1.402-.62-2.167.265c-.766.885-1.584 3.322-1.584 4.45 0 1.127.061 2.838.061 2.838l-1.834.946s-2.227 1.55-3.144 3.935c-.917 2.376-1.008 4.911-.212 7.046.795 2.134 2.439 3.08 4.182 3.594 1.743.515 5.493.182 5.493.182l5.615 28.803 3.682 19.003s-10.524-1.302-18.366-1.302c-7.842 0-16.048 2.975-16.048 2.975l-10.6 5.441s-7.698 3.572-17.26 9.997c-9.57 6.425-13.442 11.783-19.299 19.692-5.856 7.908-7.258 17.549-7.425 18.617-.167 1.074-1.318 9.058-.659 14.666.659 5.6 1.349 10.693 1.349 10.693l-2.243-.93s-7.342-9.49-16.859-15.431c-9.516-5.941-24.193-10.141-24.193-10.141l-10.6-2.187s-10.441-.651-14.903-.651c-4.463 0-19.193 2.444-19.193 2.444l-22.063 7.106-16.965 12.117-12.494 17.519-7.357 20.789-.948 15.06.879 4.571.864 8.461 3.069 12.063 3.902 9.907 4.569 8.915 7.554 12.191 8.592 10.822 7.463 7.107 8.297 5.744 9.266 4.223 9.32 1.68s.485 8.869 1.584 14.212c1.098 5.335 3.03 9.959 3.03 9.959l4.425 9.604-1.796.265s-5.379-1.264-9.887-3.012c-4.509-1.748-13.116-6.788-16.23-9.339-3.114-2.55-8.835-8.211-10.471-10.61-1.637-2.399-5.228-8.461-5.653-9.15-.432-.688-3.296-3.836-4.932-4.381-1.637-.545-4.183-1.378-6.85-.916-2.667.462-4.175.59-8.933 4.003-4.751 3.413-5.895 7.901-5.895 7.901l-1.106 5.593.227 5.199s.91 4.624 2.963 8.204c2.053 3.579 7.759 9.717 10.592 12.229 2.834 2.513 11.654 7.159 14.647 8.65 2.992 1.499 18.942 7.909 18.942 7.909l15.593 6.251 10.198 5.464 6.653 4.836 5.236 5.153 2.795 2.604 288.952 5.32 22.405-3.088z" fill="#fff"/><path d="M466.614 142.344c-14.063 6.599-27.913 15.113-37.702 27.403-10.252 12.866-13.086 28.107-10.851 44.204 4.009 28.857 20.079 59.824 49.728 68.875 17.214 5.253 35.815 2.626 52.894-1.846 14.994-3.92 30.709-9.838 40.779-22.204 9.933-12.2 13.221-29.137 12.517-44.537-.705-15.31-5.6-30.446-14.131-43.19-19.48-29.106-57.736-42.07-90.953-30.854-.69.234-.394 1.332.303 1.097 28.572-9.649 61.827-1.302 82.27 20.918 20.51 22.287 28.398 58.454 15.07 86.357-7.13 14.924-21.177 23.354-36.392 28.44-15.441 5.161-32.323 8.688-48.651 7.272-31.906-2.769-52.341-28.901-59.888-58.189-4.667-18.117-5.046-37.196 6.191-52.99 9.675-13.607 24.503-22.779 39.384-29.765.667-.317.091-1.301-.568-.991zm229.489.137c1.341-18.799-.137-37.461-13.851-51.673-5.91-6.123-13.017-10.997-20.223-15.462-8.281-5.13-16.532-8.952-26.375-9.656-10.577-.757-21.76-.227-32.277 1.082-8.41 1.052-16.586 3.27-24.019 7.409-14.002 7.803-24.791 21.258-29.375 36.606-5.698 19.078-1.879 40.094 9.016 56.592.402.606 1.387.038.985-.575-18.98-28.735-13.82-68.746 15.26-88.733 15.351-10.55 33.929-11.185 51.947-11.428 10.297-.136 19.541 1.31 28.641 6.342 7.455 4.125 14.835 8.9 21.268 14.5 7.425 6.463 13.206 14.288 15.964 23.824 2.917 10.095 2.652 20.789 1.917 31.164-.068.734 1.069.735 1.122.008z" fill="#000"/><path d="M611.969 187.766c-2.008-.855 3.872-11.601 4.629-12.827 2.516-4.057 5.721-7.651 9.335-10.762 7.084-6.1 15.714-10.322 24.685-12.85 18.094-5.116 38.127-3.095 55.137 4.775 17.776 8.219 31.406 22.795 36.847 41.752 3.068 10.709 3.773 21.939 3.796 33.026.022 11.14-.22 22.628-4.486 33.087-8.077 19.813-27.898 34.01-49.272 35.153-.728.038-.735 1.173 0 1.135 20.222-1.082 39.021-13.509 48.287-31.467 5.44-10.55 6.441-22.197 6.584-33.889.16-12.729-.363-25.701-4-37.991-12.26-41.426-63.517-59.892-101.864-43.636-9.933 4.208-19.124 10.769-25.185 19.805-2.311 3.443-6.16 9.535-5.94 13.879.106 2.082 2.477 2.975 2.697.485.015-.174-.114-.416-.28-.492-.129-.053-.258-.114-.394-.167-.675-.28-1.25.704-.576.984z" fill="#000"/><path d="M568.091 375.472c-13.661-8.521-19.389-25.307-21.275-40.541-1.986-16.029.454-32.852 8.524-46.997 13.858-24.285 42.521-36.295 69.684-35.705 15.04.326 31.141 4.223 43.113 13.69 13.039 10.315 19.571 27.358 23.079 43.115 3.788 17.02 3.728 35.205-1.182 51.998-2.432 8.31-6.372 15.878-12.851 21.743-5.819 5.275-12.82 9.021-19.745 12.623-8.562 4.465-17.412 9.172-27.133 10.368-9.766 1.203-18.821-2.157-27.61-6.016-3.72-1.635-7.41-3.338-11.199-4.806-1.697-.658-5.811-2.921-7.705-1.324-2.114 1.778 1.083 3.488 2.023 1.808.136-.242.076-.484-.091-.688-.084-.099-.159-.197-.243-.295-.462-.568-1.265.242-.803.802-.977-1.188 2.781-.545 2.963-.492 1 .287 1.985.689 2.962 1.059 2.122.81 4.213 1.696 6.297 2.611 3.712 1.627 7.395 3.338 11.168 4.821 7.153 2.808 14.593 4.616 22.314 3.678 7.91-.961 15.305-4.276 22.352-7.818 7.167-3.602 14.479-7.242 20.95-12.017 13.168-9.718 18.359-24.452 20.427-40.193 2.175-16.521.356-33.511-4.895-49.313-4.773-14.363-12.221-28.001-25.473-36.098-12.222-7.477-27.201-10.52-41.415-10.399-26.065.22-53.107 11.867-67.025 34.669-9.138 14.984-11.843 33.208-9.479 50.432 2.091 15.257 8.001 31.747 21.67 40.276.644.379 1.22-.605.598-.991zm-85.323-.173c11.304-28.728 4.326-62.481-18.177-83.807-20.45-19.381-49.879-26.124-76.663-17.278-27.352 9.037-47.583 32.171-52.083 60.687-4.524 28.645 6.629 61.762 34.277 74.582 8.085 3.746 16.814 6.084 25.504 7.953 9.676 2.082 19.624 3.353 29.527 2.679 16.063-1.089 31.967-7.711 41.62-21 .432-.591-.553-1.158-.985-.576-19.67 27.078-58.637 22.681-86.467 13.35-15.298-5.131-27.125-14.296-34.725-28.652-6.554-12.381-9.335-26.646-8.463-40.594 1.757-28.16 18.684-52.771 44.445-64.357 25.148-11.314 54.312-8.287 76.413 8.264 27.141 20.327 37.051 57.001 24.686 88.446-.273.681.826.976 1.091.303zm40.642-95.902c.493.167.576 1.378.576 1.892 0 1.158 0 2.316-.007 3.474 0 2.339-.008 4.669-.008 7.008 0 3.3-.159 6.977-2.508 9.286-2.531 2.49-6.827 2.346-9.888.545-3.061-1.802-5.114-4.882-6.857-7.969-1.803-3.202-2.72-6.024-4.069-9.445 0 0 7.949-1.324 13.631-2.656 5.683-1.332 9.13-2.135 9.13-2.135z" fill="#000"/><path d="M514.462 302.314c-.379 16.906-.333 35.107-.712 52.014 5.455 3.716 10.911 7.424 16.366 11.14a23.376 23.376 0 017.418-10.55c.697-.56 1.477-1.15 1.705-2.013.189-.726-.061-1.491-.304-2.202-5.796-16.899-11.6-33.798-17.396-50.705 0 0-1.455 1.695-3.311 2.164-1.856.47-3.766.152-3.766.152zm-32.308 75.103c8.57-4.412 20.716-7.787 26.11 3.065 2.061 4.132 1.645 9.279-.901 13.115-2.781 4.193-7.395 6.07-12.252 6.569-3.516.364-7.069.121-10.585-.083-4.637-.272-10.744.341-13.343-4.351-5.016-9.067 4.933-16.286 11.843-19.874.651-.34.075-1.316-.576-.983-7.456 3.874-17.222 11.419-12.472 21.031 2.372 4.798 7.327 4.888 12.078 5.168 5.486.318 11.191.962 16.593-.355 9.062-2.21 15.056-11.965 10.585-20.812-1.985-3.928-5.781-6.924-10.107-7.817-6.176-1.264-12.214 1.589-17.564 4.344-.628.333-.06 1.316.591.983zm97.265 21.167c6.978-5.146 2.94-14.099-2.751-18.329-7.289-5.426-19.078-9.801-27.261-3.822-7.145 5.222-6.903 14.076-.015 19.328 8.296 6.327 19.972 7.008 29.413 3.111.667-.273.371-1.378-.303-1.098-6.774 2.8-14.388 3.239-21.344.78-8.183-2.891-16.715-11.246-8.971-19.533 6.13-6.554 15.767-4.465 22.859-.863 3.311 1.681 6.751 3.807 8.911 6.895 2.69 3.844 2.985 9.52-1.114 12.54-.583.439-.015 1.422.576.991z" fill="#000"/><path d="M546.353 379.218c-11.827-1.627-23.64-.628-35.012 3.02-.698.219-.394 1.317.303 1.097 11.16-3.579 22.798-4.616 34.406-3.019.72.098 1.031-.999.303-1.098zm-96.749 35.334c8.456 3.338 15.669 8.87 21.079 16.165.432.583 1.417.015.985-.575-5.607-7.56-12.995-13.228-21.761-16.687-.682-.265-.978.832-.303 1.097zm158.985-7.983a112.448 112.448 0 00-23.314 27.373c-.379.628.599 1.196.985.575a111.719 111.719 0 0123.14-27.138c.545-.477-.258-1.279-.811-.81zm57.782-14.175c10.244.152 20.306-4.23 26.685-12.358a28.452 28.452 0 005.963-14.568c.622-5.547-.128-12.586 4.251-16.824 5.046-4.873 12.956-1.96 17.374 2.263 4.682 4.473 6.864 11.322 7.205 17.641.75 13.622-6.629 25.753-15.562 35.425-10.138 10.974-22.345 19.934-35.634 26.722-.652.333-.076 1.31.575.984 12.631-6.455 24.239-14.856 34.111-25.05 8.714-8.998 16.389-19.979 17.556-32.776.97-10.64-2.879-23.468-13.646-27.751-3.773-1.506-8.221-1.688-11.638.772-4.046 2.913-4.879 8.029-5.258 12.661-.72 8.672-2.182 16.119-8.615 22.537-6.175 6.152-14.699 9.308-23.352 9.18-.743-.008-.743 1.127-.015 1.142zm-322.919-8.884c-15.32-3.043-29.231-11.882-38.225-24.694-3.334-4.753-5.41-11.133-11.752-12.457-5.569-1.158-11.607 1.165-15.623 5.025-10.502 10.096-5.054 25.988 4 34.896 9.502 9.346 22.352 14.424 34.589 19.124 14.858 5.706 30.413 11.223 41.264 23.445.485.545 1.288-.258.803-.802-16.578-18.663-42.976-21.637-63.745-33.624-12.077-6.978-26.094-20.313-20.343-35.789 2.856-7.689 13.229-14.538 21.366-10.3 3.236 1.688 4.743 5.23 6.57 8.181a61.44 61.44 0 005.493 7.523c9.054 10.602 21.632 17.86 35.3 20.577.72.128 1.023-.962.303-1.105zm54.387-112.376c-10.305-6.485-19.837-14.159-28.209-23.006-7.812-8.256-15.245-19.033-12.669-30.99 2.508-11.625 14.366-17.225 25.042-11.95 10.759 5.32 13.04 18.806 9.024 29.174-.265.681.834.976 1.099.303 3.197-8.257 2.69-18.224-3.061-25.284-5.009-6.145-13.972-9.014-21.572-6.463-7.592 2.55-11.683 10.065-12.123 17.731-.568 9.944 4.971 18.776 11.328 25.958 8.812 9.952 19.336 18.443 30.572 25.511.614.394 1.19-.59.569-.984z" fill="#000"/><path d="M394.763 226.65c7.948 2.906 16.214 3.89 24.624 2.914.72-.084.728-1.219 0-1.135-8.296.961-16.479 0-24.321-2.869-.69-.257-.985.84-.303 1.09zm-23.549-26.82a535.817 535.817 0 00-14.373-69.36c-.364.098-.728.204-1.099.303l.568 1.687c.235.689 1.334.394 1.099-.302l-.568-1.688c-.235-.689-1.296-.409-1.099.303a534.19 534.19 0 0114.373 69.359c.099.719 1.198.416 1.099-.302zm-15.836-71.274c-3.766 6.319-10.373 9.407-17.253 11.253-7.728 2.074-17.548 4.783-24.617-.038-.606-.416-1.175.568-.576.984 7.41 5.048 17.449 2.301 25.496.152 7.168-1.915 14.017-5.207 17.935-11.776.371-.628-.614-1.203-.985-.575z" fill="#000"/><path d="M314.887 142.45c.977 12.593 6.645 24.21 16.017 32.709.538.492 1.349-.311.803-.803-9.145-8.286-14.729-19.6-15.684-31.906-.053-.719-1.189-.726-1.136 0z" fill="#000"/><path d="M329.829 173.94c12.244.908 24.056-4.972 30.762-15.234.401-.613-.584-1.181-.985-.575-6.501 9.944-17.935 15.552-29.785 14.674-.72-.053-.72 1.082.008 1.135zm245.967 39.504c.803-10.731-.682-28.228 10.653-34.131 11.555-6.016 23.527 2.959 28.141 13.365 4.993 11.253 4.281 24.845-.985 35.864-5.273 11.034-15.275 19.919-23.382 28.887-.493.537.31 1.347.803.802 7.683-8.491 16.866-16.808 22.435-26.927 4.834-8.778 6.63-19.177 5.069-29.068-1.379-8.748-5.546-17.739-13.244-22.628-6.706-4.26-16.389-4.593-22.534.893-8.524 7.621-7.312 22.666-8.085 32.943-.06.727 1.076.719 1.129 0zm166.35 51.053c-.818-1.491 8.305-2.671 9.002-2.785l9.607-1.612c6.16-1.029 12.32-2.066 18.473-3.095.72-.121.417-1.218-.303-1.097-8.865 1.483-17.738 2.974-26.603 4.457-1.826.303-13.396.621-11.161 4.707.357.636 1.334.068.985-.575z" fill="#000"/><path d="M780.676 271.808c-.848-6.993-1.129-14.606 2.41-20.971 3.106-5.577 9.418-10.126 16.063-8.453 5.591 1.407 9.615 6.379 11.319 11.685 1.97 6.152.228 12.706-3 18.102-6.66 11.14-18.798 18.511-30.042 24.331-11.904 6.16-24.368 11.268-36.612 16.702-15.214 6.75-30.428 13.508-45.643 20.259-.667.295-.091 1.271.576.984 16.139-7.159 32.278-14.326 48.416-21.485 14.684-6.516 29.974-12.442 43.62-21.024 10.691-6.72 22.807-16.377 24.511-29.795 1.167-9.179-4.872-20.319-14.858-21.197-5.925-.522-11.327 3.163-14.487 7.923-4.47 6.728-4.334 15.219-3.402 22.916.076.742 1.22.749 1.129.023z" fill="#000"/><path d="M795.981 240.559c-.561-5.706 1.447-11.995 2.447-17.61 1-5.585 1.993-11.178 2.993-16.763 1.834-10.277 2.319-22.643 8.077-31.641.394-.621-.591-1.189-.985-.576-5.842 9.127-6.334 21.501-8.191 31.914l-3.25 18.216c-.94 5.282-2.766 11.057-2.228 16.453.069.726 1.205.734 1.137.007z" fill="#000"/><path d="M808.248 174.644c.735-2.936 8.031-2.777 10.312-3.103a2784.25 2784.25 0 0133.096-4.51c.712-.091.727-1.226 0-1.135a2758.766 2758.766 0 00-26.171 3.526c-4.334.606-8.675 1.189-12.994 1.847-2.243.341-4.705.568-5.334 3.065-.182.711.917 1.014 1.091.31zm-5.987 33.117c2.865-4.79 16.351 1.196 20.359 2.27 5.175 1.393 10.282 2.218 15.624 1.31.72-.121.417-1.219-.303-1.098-8.304 1.4-16.086-1.793-23.973-3.882-3.599-.954-10.214-3.322-12.691.817-.372.636.613 1.211.984.583zm49.547-40.17a203.769 203.769 0 00-12.191 43.197c-.121.712.977 1.022 1.098.303a204.11 204.11 0 0112.192-43.197c.272-.674-.826-.969-1.099-.303zM333.163 349.227c-19.655-3.095-33.861-18.73-43.976-34.766-11.313-17.929-18.852-37.862-15.397-59.28 3.13-19.426 14.086-37.37 29.959-49.017 15.692-11.51 35.483-17.027 54.864-16.104 22.39 1.075 44.295 10.966 58.729 28.274.47.56 1.265-.243.803-.803-26.451-31.717-75.557-37.196-110.039-15.688-16.752 10.451-29.012 27.154-33.982 46.255-5.471 21.039-.478 41.525 10.024 60.142 10.585 18.768 26.072 38.52 48.712 42.085.72.106 1.03-.984.303-1.098zm214.342-223.192c-9.646-10.444-20.375-21.667-26.807-34.456-3.637-7.235-4.728-14.712-2.243-22.507 1.909-5.971 5.107-11.526 6.046-17.792.705-4.708.266-9.952-2.932-13.728-2.697-3.194-6.683-4.246-10.251-1.764-4.357 3.035-4.827 8.741-5.221 13.585-.508 6.304-.432 12.502 2.273 18.337.311.658 1.288.083.985-.576-2.796-6.016-2.629-12.615-2.008-19.078.379-3.913.872-8.31 4.175-10.943 4.205-3.345 8.827-.47 10.797 3.708 5.092 10.837-4.243 21.977-6.084 32.368-1.712 9.679 2.697 18.79 8.077 26.555 6.652 9.604 14.464 18.519 22.382 27.093.5.538 1.303-.265.811-.802z" fill="#000"/><path d="M506.014 57.16c-.454-4.306-6.175-28.455-14.411-18.905-3.47 4.034-1.849 11.533-.621 16.15 1.659 6.259 4.91 11.874 9.319 16.589.501.537 1.304-.273.804-.802-6.054-6.471-9.843-14.871-10.214-23.771-.03-.81-.061-1.627-.015-2.437.189-3.3.591-4.17 3.69-5.23 1.492-1.377 2.652-1.37 3.485.03a5.458 5.458 0 011.409 1.734c.47.704.864 1.49 1.243 2.24 2.303 4.51 3.645 9.361 4.167 14.394.084.727 1.22.734 1.144.008z" fill="#000"/><path d="M500.468 70.971c2.644 1.71 5.705 3.618 6.925 6.683 1.69 4.26-1.348 9.603-6.508 6.705-2.569-1.446-4.486-4.087-5.486-6.804a14.64 14.64 0 01-.849-3.897c-.06-.863.311-7.515 2.433-6.145.613.393 1.189-.583.575-.984-3.599-2.316-4.273 5.297-4.144 7.129.333 4.836 3.197 10.186 7.834 12.162 3.637 1.543 6.971-.477 7.698-4.284 1.023-5.418-3.924-8.96-7.902-11.54-.621-.402-1.19.574-.576.975z" fill="#000"/><path d="M501.475 86.433c-1.947 3.957-7.88 4.518-10.865 1.37-3.622-3.822-1.334-10.119 2.644-12.631.614-.386.046-1.37-.576-.984-4.599 2.898-7.046 10.065-2.879 14.409 3.486 3.633 10.373 3.027 12.654-1.604.326-.644-.652-1.219-.978-.56z" fill="#000"/><path d="M498.103 90.799l8.593 44.907c.136.719 1.235.417 1.098-.302l-8.592-44.908c-.136-.719-1.235-.416-1.099.303zm170.306 13.79c.56 1.687 1.129 3.382 1.689 5.07.228.689 1.326.394 1.099-.303-.561-1.687-1.129-3.383-1.69-5.07-.235-.689-1.333-.386-1.098.303zM601.294 83.89h6.766c.735 0 .735-1.135 0-1.135h-6.766c-.728 0-.735 1.135 0 1.135zm-22.269 17.171c.159-1.294.326-2.588.485-3.882.075-.629-1.016-.78-1.114-.152-4.842 29.772 12.593 58.742 41.218 68.353.697.235.993-.863.303-1.097-27.981-9.392-45.158-37.824-40.422-66.953-.372-.053-.743-.099-1.114-.151-.159 1.294-.326 2.588-.485 3.882-.099.726 1.038.719 1.129 0zm-110.978 48.412c.25.953.507 1.907.758 2.853h1.136c-.386-7.568-2.94-14.568-7.569-20.585-.44-.567-1.425-.007-.985.575 4.5 5.85 7.031 12.631 7.41 20.01.038.734 1.099.734 1.136 0 .076-1.423-.143-2.24-.916-3.428-.387-.606-1.372-.038-.97.575zm2.037-25.632a80.165 80.165 0 003.046 27.184c.204.703 1.303.401 1.098-.303a79.21 79.21 0 01-3.008-26.881c.038-.727-1.098-.727-1.136 0zm13.662-2.535c-1.099 10.141-2.205 20.282-3.304 30.423-.076.726 1.061.719 1.137 0 1.098-10.141 2.204-20.282 3.303-30.423.083-.719-1.053-.719-1.136 0zm15.684 11.729l-1.955 13.478c-.106.712.993 1.022 1.099.303l1.954-13.478c.106-.712-.992-1.022-1.098-.303zm186.375 115.668c-2.311 6.629-2.402 13.327-.189 19.994.455 1.377 1.227 2.921 2.659 3.186 1.061.197 2.084-.401 2.971-1.014a34.78 34.78 0 008.796-8.786c2.44-3.519 4.175-8.348 1.857-11.935-2.986-4.616-9.911-3.655-15.2-2.134l-.894.689zm-162.827-73.87c-1.356-.848-2.894-1.105-4.455-.795-.727.144-.409 1.204.303 1.098a10.193 10.193 0 014.327.287v-1.097c-1.167.325-2.296.182-3.349-.416-.144.348-.296.688-.44 1.036 1.326.311 2.66.629 3.985.939.713.166 1.016-.923.304-1.097-1.326-.311-2.66-.629-3.986-.939-.614-.144-1.008.712-.439 1.037a5.388 5.388 0 004.22.537c.538-.151.538-.946 0-1.097-1.629-.462-3.258-.537-4.933-.288.099.364.205.727.304 1.098 1.272-.25 2.485 0 3.583.681.622.386 1.198-.598.576-.984zm-65.236 6.107l-3.978 5.699c.326.189.651.378.985.575 1.076-1.703 2.159-3.398 3.235-5.1-.326-.19-.652-.379-.985-.576-.75 1.294-1.493 2.589-2.243 3.875-.363.636.614 1.203.985.575.75-1.294 1.493-2.588 2.243-3.874.364-.636-.591-1.189-.985-.576-1.076 1.703-2.159 3.398-3.235 5.101-.394.628.568 1.166.985.575l3.978-5.698c.416-.598-.569-1.166-.985-.576zm17.54 64.97c23.079 1.597 46.06-6.198 63.426-21.447.553-.484-.258-1.287-.803-.802-17.154 15.06-39.847 22.696-62.623 21.114-.728-.053-.728 1.082 0 1.135z" fill="#000"/><path d="M537.474 225.666c3.235 7.288 3 15.749-.644 22.855-3.69 7.19-10.57 11.602-18.132 13.918-6.887 2.111-14.563 3.216-21.761 3.39-9.637.227-14.54-11.314-19.268-18.216-.409-.598-1.394-.03-.985.575 3.046 4.45 5.903 9.142 9.259 13.365 2.251 2.831 4.85 4.95 8.547 5.358 4.228.469 8.895-.461 13.093-1.021 4.599-.621 9.213-1.484 13.585-3.081 7.539-2.747 14.048-7.704 17.336-15.173 3.175-7.212 3.137-15.363-.053-22.545-.288-.666-1.273-.083-.977.575zm114.978 65.901a10.442 10.442 0 012.5 4.768c.167.711 1.258.409 1.099-.303a11.645 11.645 0 00-2.788-5.274c-.501-.53-1.304.272-.811.809zm-51.856-10.02c1.97-.56 3.947-1.128 5.917-1.688.705-.197.402-1.294-.303-1.097-1.97.56-3.947 1.127-5.917 1.687-.697.205-.402 1.302.303 1.098zm-14.328 61.883c9.335 16.808 29.792 23.4 47.28 15.416.666-.303.091-1.279-.576-.984-16.935 7.734-36.71 1.218-45.719-15.007-.356-.636-1.341-.061-.985.575zm-150.75-41.033c-1.621-.076-3.235-.152-4.856-.22.098.356.189.704.288 1.06 3.174-1.991 7.039-1.801 10.039.439.583.439 1.152-.545.576-.984-3.296-2.46-7.706-2.611-11.184-.439-.485.303-.272 1.029.288 1.059 1.622.076 3.236.152 4.857.22.72.03.72-1.105-.008-1.135zm-87.906 2.566a42.708 42.708 0 00-14.131-12.851c-1.644 12.669-8.243 24.634-18.093 32.792l1.507 1.642c5.615.553 11.222 1.113 16.836 1.665 0 0 2.016.242 4.357-2.391 2.341-2.634 2.485-7.046 2.485-7.046l5.887-11.102 1.152-2.709zm-35.717-52.197c2.424.454 4.819.25 7.107-.673.667-.273.379-1.37-.303-1.098-2.099.848-4.274 1.098-6.501.674-.712-.129-1.023.961-.303 1.097zm-29.816 13.312c1.129-1.967 2.258-3.942 3.387-5.91.363-.636-.622-1.211-.985-.575-1.129 1.967-2.258 3.943-3.387 5.91-.364.644.621 1.211.985.575zm104.88 33.791c.788-1.158 2.235-1.506 3.5-.991.099-.363.205-.727.303-1.098-1.705-.507-3.402-.378-5.031.318-.53.227-.242 1.075.288 1.06 1.409-.046 2.826-.091 4.235-.144.728-.023.735-1.158 0-1.135-1.409.045-2.826.091-4.235.144.098.355.189.703.288 1.059 1.341-.567 2.765-.613 4.16-.204.719.212.962-.825.303-1.098-1.758-.711-3.736-.03-4.789 1.514-.417.605.568 1.173.978.575zm9.729 73.907c7.978 3.451 16.373 7.046 25.268 6.229 8.373-.772 13.699-5.638 18.7-11.98.447-.568-.348-1.377-.803-.802-5.069 6.432-10.517 11.299-19.101 11.73-8.267.416-16.063-2.944-23.481-6.153-.674-.295-1.25.689-.583.976zm4.174-226.649c-.394.386-.788.772-1.182 1.15.318.182.637.371.947.552 1.175-3.155 2.47-6.258 3.94-9.285.349-.712 1.493-4.026 2.19-4.246 1.273-.409 2.076.961 2.947 1.733 1.993 1.763 3.94 3.595 6.001 5.275.538.439 1.485.976 1.978 1.491 1.561.636 2.121 1.96 1.674 3.988a30.389 30.389 0 01-.712 1.975c-.348.916-1.144 4.231-2.265 4.458-.803.166-2.402-1.733-3.114-2.293a35.708 35.708 0 00-5.274-3.444c-1.364-.726-4.432-2.558-5.145-.151-.204.704.887.999 1.099.303.621-2.112 11.6 6.803 12.191 7.386.25.25.72.212.894-.114 1.485-2.747 5.509-8.809 3.289-11.76-1.16-1.536-4.039-2.838-5.562-4.17-2.485-2.172-4.94-4.374-7.402-6.561-.266-.235-.705-.22-.894.113a107.967 107.967 0 00-6.911 15c-.204.552.569.923.948.552.394-.386.788-.772 1.182-1.15.515-.515-.296-1.317-.819-.802zM368.91 49.146c-5.334 3.852 1.978 11.435 4.296 14.9.258.38.72.349.985 0 1.629-2.179 5.213-5.327 4.599-8.37-.613-3.034-3.909-4.056-6.516-4.691-.712-.174-1.015.923-.303 1.097 3.016.742 7.464 2.58 4.887 6.508-1.106 1.688-2.439 3.277-3.652 4.89h.985c-1.818-2.71-8.819-10.376-4.705-13.35.583-.424.015-1.408-.576-.984zm255.515 15.491A191.606 191.606 0 01648.3 43.175c.576 3.64.288 7.416-.834 10.928a31.174 31.174 0 018.092-6.304c1.349-.734 2.933-1.377 4.38-.863 1.447.515 2.182 2.755.901 3.595a180.627 180.627 0 0116.079-13.948 5.705 5.705 0 00-1.599 4.783 37.625 37.625 0 0114.396-8.34 52.396 52.396 0 01-7.191 16.03c1.478-1.333 3.069-2.718 5.031-3.058 1.963-.34 4.334.87 4.448 2.86.053.856-.311 1.68-.674 2.46a106.374 106.374 0 01-5.895 10.89 25.457 25.457 0 019.63-3.761c1.402-.235 3.273-.076 3.675 1.286.235.818-.212 1.658-.644 2.392-2.44 4.11-4.88 8.219-7.327 12.335 2.084-.325 3.849-1.71 5.872-2.308 2.023-.598 4.804.091 5.152 2.165.16.938-.242 1.869-.636 2.732-2.137 4.737-4.266 9.475-6.402 14.212 1.462-.726 3-1.46 4.629-1.43 1.629.03 3.372 1.105 3.561 2.724.114.939-.295 1.847-.697 2.702-1.705 3.655-3.41 7.318-5.114 10.973a10.197 10.197 0 004.75-1.831 29.78 29.78 0 01-5.591 13.448l-1.387.462-2.432-10.588-6.736-12.547-12.32-11.897-16.298-10.557-15.563-5.744-15.32-1.211h-2.023l.212-1.128zM723.819 176.9c7.888-14.992 2.561-31.816-6.872-44.711-.424-.583-1.417-.015-.985.575 9.168 12.54 14.57 28.939 6.872 43.56-.333.644.644 1.219.985.576zm-15.086 5.273c10.676-13.781 10.555-32.602-.303-46.247-.454-.575-1.258.234-.803.802 10.441 13.108 10.57 31.392.303 44.643-.439.575.356 1.385.803.802zm-6.289-10.867c2.258-5.434 3.486-11.162 3.471-17.058-.008-2.285.386-10.269-2.592-11.064-.704-.189-1.007.908-.303 1.097 1.553.417 1.584 6.024 1.675 7.402a41.483 41.483 0 01-.076 6.432c-.417 4.481-1.546 8.756-3.266 12.904-.288.658.811.953 1.091.287zm-5.524-8.597c.819-6.115.705-12.441-.863-18.443-.925-3.549-2.493-6.924-6.183-8.15-.697-.235-.993.862-.303 1.097 4.614 1.536 5.584 7.348 6.213 11.526.704 4.647.621 9.324 0 13.97-.091.719 1.045.712 1.136 0zm-3.863-4.608c.023-.038-.288-1.438-.311-1.59-.076-.628-.113-1.256-.212-1.876a22.636 22.636 0 00-.856-3.603c-.773-2.361-1.955-4.533-3.417-6.531-.425-.583-1.41-.015-.985.575 1.409 1.93 2.538 3.989 3.303 6.267.379 1.127.637 2.277.819 3.45.159 1.03 0 2.316.303 3.3.348 1.12 1.606 1.945 2.326.59.356-.65-.629-1.226-.97-.582zm38.195 19.313c.978-1.839 1.947-3.671 2.925-5.51.341-.643-.637-1.218-.985-.575-.977 1.839-1.947 3.671-2.925 5.51-.341.643.637 1.218.985.575zm-50.333-30.885c-.258-.711-.523-1.423-.781-2.134-.25-.681-1.348-.386-1.098.303.257.711.522 1.422.78 2.134.258.681 1.356.386 1.099-.303zm-53.092 105.95c-.576-2.073.083-3.731 1.977-4.957-.287-.166-.568-.325-.856-.492.023 2.051.281 3.807.864 5.767.167.56.917.522 1.099 0 .583-1.657 1.159-3.315 1.742-4.972-.363-.098-.727-.204-1.098-.303a42.932 42.932 0 00-1.069 8.393c-.015.575.773.757 1.061.288 2.955-4.859 3.44-10.308 3.766-15.863.045-.734-1.068-.719-1.137 0-.735 8.113-.492 16.18.705 24.233.098.666 1.076.446 1.114-.152a145.384 145.384 0 012.22-17.36c-.371-.053-.743-.099-1.114-.152a89.986 89.986 0 00.189 8.582.57.57 0 001.114.152c.485-1.317.97-2.642 1.455-3.958l-1.038.136c.114.847.235 1.695.349 2.535-.076.628 1 .78 1.113.151.288-1.513.569-3.019.856-4.533.137-.711-.894-1.014-1.098-.302a17.124 17.124 0 00-.659 5.04c.007.628.954.779 1.113.151a99.604 99.604 0 003.062-19.805h-1.137c-.22 7.25-.432 14.5-.652 21.742-.022.644.947.765 1.114.152a99.877 99.877 0 012.599-7.916c-.371-.053-.742-.099-1.114-.152l-.045 5.828c-.008.605.75.719 1.061.287.765-1.067 1.538-2.134 2.303-3.201-.356-.098-.705-.189-1.061-.287.114 1.513.235 3.034.349 4.548.022.333.348.688.719.545 1.114-.417 1.857-.871 2.705-1.696-.318-.181-.636-.37-.947-.552a52.85 52.85 0 00-.697 6.735c-.022.515.622.719.97.402a27.542 27.542 0 004.122-4.685c.417-.598-.561-1.165-.985-.575a25.354 25.354 0 01-3.948 4.45c.326.136.644.265.97.401a49.71 49.71 0 01.659-6.433c.091-.537-.515-.976-.947-.552-2.379 2.3-1.727-1.219-1.833-2.604-.046-.582-.728-.749-1.061-.287-.765 1.067-1.538 2.134-2.303 3.201.356.098.704.189 1.06.288l.046-5.828c.007-.673-.902-.726-1.114-.151a99.877 99.877 0 00-2.599 7.916c.371.053.743.098 1.114.151.22-7.25.432-14.5.652-21.742.022-.734-1.099-.727-1.137 0a97.668 97.668 0 01-3.023 19.51c.371.053.742.098 1.114.151a16.628 16.628 0 01.621-4.737c-.364-.099-.727-.205-1.099-.303-.288 1.514-.568 3.02-.856 4.533.371.053.743.098 1.114.151.136-1.218-.015-1.997-.508-3.11-.219-.492-.886-.272-1.038.136l-1.455 3.958c.372.053.743.099 1.114.152a89.993 89.993 0 01-.189-8.582c.015-.628-.993-.787-1.114-.152a149.257 149.257 0 00-2.258 17.664c.371-.053.743-.099 1.114-.152a100.754 100.754 0 01-.659-23.929h-1.137c-.31 5.35-.765 10.61-3.614 15.287.356.098.705.189 1.061.287a42.064 42.064 0 011.03-8.09c.159-.719-.856-.991-1.098-.302-.584 1.657-1.16 3.314-1.743 4.972h1.099a19.62 19.62 0 01-.826-5.464c-.008-.416-.485-.734-.857-.492-2.227 1.453-3.114 3.632-2.5 6.243.19.719 1.281.417 1.114-.295zm-288.406-62.443c-2.834.492-5.622-1.036-7.88-2.815-2.265-1.771-4.357-3.89-7.039-4.904-2.69-1.021-6.266-.507-7.63 2.021-.326.598-.53 1.317-1.098 1.687-1.016.674-2.41-.234-2.94-1.331-.531-1.098-.622-2.392-1.273-3.421-1.44-2.271-5.046-2.142-7.13-.439-2.084 1.703-3.023 4.397-3.872 6.955L296.127 181c-.553-.847-1.175-1.748-2.137-2.051-2.447-.779-4.001 2.574-4.357 5.116a29.96 29.96 0 01-7.433-12.237 24.228 24.228 0 00-3.129 13.887 61.754 61.754 0 01-6.561-11.881 129.847 129.847 0 00-.334 17.837 148.867 148.867 0 01-8.266-19.654c-2.751 10.769-2.97 22.174-.652 33.049a42.707 42.707 0 01-6.046-16.278 143.52 143.52 0 005.288 38.929c-1.871-2.687-3.735-5.373-5.606-8.06a370.19 370.19 0 007.91 31.316 916.457 916.457 0 01-3.834-4.049c3.576 7.023 7.152 14.038 10.729 21.061l.909.318.735-15.907 4.584-12.911 5.948-12.994 9.873-12.82 12.948-10.746 11.502-5.813 18.798-6.001 2.796-.59-.371-.485zM585.95 13.23l2.152 2.988c.288.402.879.349 1.038-.136 1.356-4.041 3.674-7.545 6.842-10.398l-.895-.689c-1.651 2.309-3.311 4.61-4.962 6.917-.394.545.439 1.098.894.689 1.795-1.62 3.038-3.527 3.834-5.805.197-.575-.554-.9-.947-.552a37.708 37.708 0 00-6.32 7.212c-.371.545.44 1.12.895.689a34.825 34.825 0 005.47-6.758c.341-.545-.447-1.158-.894-.689l-4.448 4.738c-.507.544.243 1.256.803.802.97-.78 1.94-1.567 2.91-2.346.5-.409-.152-1.241-.69-.893a2208.91 2208.91 0 01-5.258 3.375l.781.78c.25-.22.5-.432.75-.651.712-.174.409-1.264-.303-1.098-.743.182-1.114.447-1.432 1.173-.213.477.25 1.113.78.78a2050.85 2050.85 0 015.258-3.375c-.227-.296-.462-.598-.689-.893-.97.779-1.94 1.566-2.91 2.346l.803.802L593.86 7.5l-.894-.688a33.775 33.775 0 01-5.296 6.53l.894.69a36.458 36.458 0 016.145-6.986c-.319-.181-.637-.37-.947-.552-.735 2.096-1.895 3.814-3.539 5.305l.894.689c1.652-2.309 3.311-4.61 4.963-6.918.394-.544-.439-1.097-.894-.688-3.319 2.982-5.721 6.675-7.137 10.905l1.038-.136-2.152-2.99c-.432-.59-1.417-.022-.985.568zM792.435 1.393c.06 0 .121-.008.181-.008.304-.015.569-.25.569-.567v-.25c0-.31-.258-.56-.569-.568-1.136-.022-2.053 1.31-2.795 1.976-2.122 1.899-4.243 3.791-6.357 5.69-.228.197-.212.598 0 .803 2.121 1.998 1.826 7.908 6.076 7.999 1.447.03 2.523-1.445 3.493-2.323 2.516-2.278 5.039-4.556 7.554-6.842.167-.151.228-.492.091-.688-1.614-2.203-3.644-3.49-6.364-3.875-.713-.099-1.023.991-.303 1.097 1.424.205 3.856.689 4.621 2.066.978 1.771-1.53 3.027-2.621 4.019-2.675 2.421-6.978 7.832-9.63 2.368-.591-1.21-1.538-3.519-1.197-4.631.295-.969 2.856-2.55 3.636-3.247.607-.545 1.213-1.082 1.819-1.627.894-.613 1.5-1.453 1.811-2.52-.743.023-.743 1.158-.015 1.128z" fill="#000"/><path d="M859.634 79.326a50.35 50.35 0 0114.873-7.454 57.942 57.942 0 005.274 15.726c-5.509-1.915-11.017-3.822-16.526-5.736-1.038-.364-2.189-.72-3.205-.295l-.416-2.24z" fill="#D3DA17"/><path d="M928.076 178.677c.319.523.637 1.052.963 1.575.287.476 1.06.28 1.06-.288 0-1.786-.083-3.557-.371-5.32-.318-1.96-1.44-3.989-1.599-5.911-.371-4.563 5.789-4.715 8.585-4.646 3.175.083 7.206.726 8.494 3.965.613 1.536 1.886 5.275 1.674 6.879-.349 2.543-3.902 1.862-6.069 1.953-3.091.136-5.887.779-8.077 3.072-.508.53.296 1.332.803.803 3.766-3.943 9.721-2.278 14.563-3.292.311-.069.462-.417.394-.697-.69-2.845-1.258-5.751-2.069-8.567-.303-1.059-.56-2.05-1.363-2.853-2.47-2.452-7.85-2.641-11.055-2.3-2.47.265-6.887.726-7.281 3.829-.182 1.43.621 2.959 1.015 4.276.864 2.883 1.22 5.797 1.22 8.801.356-.098.704-.189 1.06-.287-.318-.522-.636-1.052-.962-1.574-.386-.613-1.371-.046-.985.582zm72.644-65.712c-2.119 1.075-4.24 2.15-6.354 3.224-.417.212-.311.742 0 .984 2.235 1.695 6.194 3.625 8.624 1.181 1.66-1.673.8-4.715-1.76-4.609-.73.03-.73 1.165 0 1.135 1.95-.076 1.67 2.285.49 3.057-.92.591-2.065.477-3.066.212-1.371-.363-2.598-1.105-3.72-1.952v.984c2.114-1.075 4.236-2.15 6.346-3.224.66-.341.09-1.325-.56-.992z" fill="#000"/><path d="M865.135 266.177c-.47.507-.94 1.022-1.409 1.529 2.227-4.813 4.75-9.49 7.539-14.008.515-.833 1.159-1.748 2.129-1.9.5-.075 1.007.068 1.5.212 4.288 1.272 8.789 2.664 11.85 5.926-2.22 4.82-4.66 9.543-7.296 14.152a18.903 18.903 0 00-10.873-4.14l-3.44-1.771z" fill="#D3DA17"/><path d="M909.194 351.543c1.591 1.929 3.19 3.852 4.781 5.782 1.44 1.74 2.789 3.995 4.531 5.433 2.046 1.68 4.001.356 5.675-1.203.167-.159.235-.492.091-.689a150.081 150.081 0 00-11.842-14.341c-.266-.28-.697-.174-.894.114-.591.893-1.19 1.778-1.781 2.671-.409.613.576 1.181.985.575.591-.893 1.19-1.778 1.781-2.671l-.894.113a151.014 151.014 0 015.372 6.04c1.598 1.907 4.523 4.404 5.273 6.682.629.568.515 1.203-.333 1.922-1.834.333-3.152-.189-3.963-1.582-.902-.787-1.629-1.975-2.394-2.89-1.864-2.248-3.721-4.496-5.584-6.751-.463-.575-1.266.235-.804.795zm83.847-51.575a4.634 4.634 0 01-2.804-1.491l-.803.802c1.758 1.665 3.425 3.406 4.97 5.267a52.256 52.256 0 012.508 3.262c.228.318.925 1.022.97 1.4.455.507.258.56-.606.151-.705.091-1.053-.196-1.03-.862-.319.181-.637.37-.947.552.704.764 1.409.946 2.401.749.72-.143.417-1.241-.303-1.097l-1.295-.454c-.387-.424-1.107.015-.947.552.348 1.204.871 2.725 2.326 2.906 1.038.129 2.106-.567 2.061-1.672-.069-1.627-2.304-3.754-3.251-4.965-1.841-2.353-3.872-4.533-6.039-6.591-.538-.507-1.288.257-.803.802.947 1.059 1.894 1.582 3.304 1.786.697.098 1.007-.991.288-1.097zm68.309-24.512c1.09.477 2.2.575 3.34.295.47-.045.95-.091 1.43-.129 1.67-.143 3.34-.242 5.01-.31 3.11-.121 6.22-.098 9.33.023.74.03.73-1.105 0-1.135-4.3-.167-8.61-.137-12.9.174-1.71.121-5.39-.303-6.68 1.044-.16.167-.23.484-.09.689.06.075.12.151.17.234.18.258.48.356.78.205l.2-.106c.63-.348.06-1.325-.59-.984zm-37 118.179a7.722 7.722 0 01-3.06-1.779c-.26.265-.53.538-.8.803a62.429 62.429 0 0011.03 7.522c.65.348 1.22-.636.58-.984a60.88 60.88 0 01-10.8-7.341c-.55-.469-1.34.296-.8.803a8.852 8.852 0 003.55 2.066c.69.219.99-.871.3-1.09zm-205.843 11.829c-1.159.182-2.008.78-2.629 1.756-.318.499.295 1.029.78.779l7.153-3.791c.644-.341.076-1.325-.576-.984-2.387 1.264-4.766 2.528-7.153 3.791l.781.78c.477-.749 1.083-1.105 1.947-1.234.72-.113.409-1.21-.303-1.097zm4.061-69.746c-4.387-2.762-8.865-5.418-13.139-8.347-2.379-1.627-3.341-.818-4.614 1.74-.97 1.953-2.644 5.199-1.22 7.213 1.008 1.415 3.758 2.467 5.251 3.397a337.998 337.998 0 006.948 4.201c.258.151.637.068.781-.205a42.236 42.236 0 013.932-6.19c.439-.583-.546-1.151-.985-.575-.962 1.256-1.72 2.883-2.766 4.041-1.561 1.74-1.833 1.097-3.871-.136a287.608 287.608 0 01-4.607-2.838c-2.137-1.34-3.993-1.711-3.796-4.73.121-1.885 1.439-5.767 3.978-5.252 1.144.234 3.03 2.028 4.023 2.656 3.175 1.998 6.342 3.996 9.517 5.994.621.401 1.189-.583.568-.969zm-592.094 39.731c-.205-1.12-.622-1.529-1.705-1.847-.531-.158-.978.568-.553.946 1.204 1.083 5.675 3.86 5.538 5.525-.053.651-2.091 2.187-2.636 2.808a54.207 54.207 0 00-2.448 2.974 60.17 60.17 0 00-3.72 5.403 55.996 55.996 0 00-1.894 3.353c-.826 1.581-.637 2.512-2.16 1.846-.992-.439-2.053-2.149-2.841-2.936-.97-.961-1.947-1.9-2.955-2.815-.841-.772-2.546-1.718-3.061-2.702-.773-1.453-.061-1.43 1.409-2.354l15.472-9.686c.622-.386.046-1.37-.576-.984-6.19 3.875-12.38 7.749-18.563 11.624-.28.174-.409.651-.114.893a112.863 112.863 0 0111.805 11.261c.227.25.743.212.894-.114a61.51 61.51 0 0113.116-18.662c.204-.197.242-.613 0-.802a134.43 134.43 0 01-6.456-5.434c-.182.318-.371.636-.553.946.303.356.606.704.909 1.06.129.719 1.22.416 1.092-.303z" fill="#000"/><path d="M193.619 260.319a50.91 50.91 0 00-9.463-2.808c-.174-.038-.379-.06-.523.053-.106.084-.144.22-.182.356a65.298 65.298 0 00-2.136 18.329c.007.417.06.893.409 1.113.242.151.56.129.841.076 4.061-.659 7.705-3.701 11.797-3.247.212-4.806.689-9.604 1.424-14.356l-2.167.484z" fill="#D3DA17"/><path d="M104.273 329.059c-2.167-1.559-3.796-3.572-4.743-6.077-.235-.621-.303-1.597-.894-2.036-1.53-1.12-2.697 1.143-3.447 2.059-1.417 1.74-3.137 2.096-4.69 3.458-.493.431-.864.878-1.031 1.521-.705 2.687 2.47 7.19 3.773 9.294a.58.58 0 00.894.113c1.993-1.922 3.978-3.844 5.971-5.767.53-.507-.28-1.309-.803-.802-1.993 1.922-3.978 3.845-5.97 5.767l.893.113c-1.697-2.739-5.167-7.386-1.894-9.997 1.28-1.021 2.584-1.952 3.85-3.034.332-.863 1-1.287 1.992-1.264.166.59.371 1.165.621 1.733.265.613.568 1.195.917 1.763 1.038 1.673 2.425 2.997 4.008 4.147.576.417 1.144-.567.553-.991zm-35.286 95.664a29.989 29.989 0 01-4.69 3.958c-.598.409-.03 1.393.576.984a30.992 30.992 0 004.917-4.139c.508-.523-.295-1.325-.803-.803zM9.547 297.107a21.5 21.5 0 01-4.834.189c-.636-.045-.773.969-.152 1.113.213.446.417.9.63 1.347-.281.333-.569.666-.85.991-.424.318-.984.484-1.462.696-.598.265-1.182.507-1.697.931-.826.681-1.303 1.559-1.167 2.634.091.711 1.228.726 1.137 0-.341-2.649 4.038-2.49 4.985-4.579.561-1.226.106-2.8-1.28-3.118-.053.371-.099.742-.152 1.113 1.728.121 3.425.03 5.137-.235.728-.098.425-1.188-.295-1.082zm-1.5-117.355l-.386-.923c-.106-.553-.97-.53-1.099 0-.485 2.073-.523 3.95-.159 6.046.106.606.925.47 1.099 0l1.204-3.276H7.608c.25.999.492 1.99.742 2.989.046.174.213.371.394.393 5.22.772 10.388 1.764 15.518 2.99.712.166 1.015-.924.303-1.098a184.054 184.054 0 00-9.017-1.929c-1.273-.235-2.644-.356-3.894-.674-2.167-.537-2.425-.878-2.955-2.989-.144-.583-.917-.492-1.099 0l-1.204 3.277h1.098c-.356-2.044-.31-3.421.16-5.442h-1.1c.137.719.076.591.508 1.188.425.613 1.41.046.985-.552z" fill="#000"/><path d="M127.572 137.789l2.25-13.812c.076-.469.152-.953.046-1.415-.25-1.12-1.425-1.741-2.47-2.217-3.501-1.59-7.001-3.186-10.502-4.776-1.485 4.935-2.963 9.876-4.448 14.811-.06.204-.121.416-.053.62.084.242.326.386.546.507a61.974 61.974 0 0113.934 10.436l.697-4.154z" fill="#D3DA17"/><path d="M207.515 152.167c.03 0 .068-.008.099-.008-.167-.09-.326-.189-.493-.28.061-.158.129-.325.189-.484.182.045.372.098.554.144-.44-.341.416-2.104.598-2.445.394-.741.924-1.362 1.553-1.914-.318-.182-.636-.371-.947-.553-.212 1.105-.416 2.203-.629 3.307-.136.712.963 1.022 1.099.303.212-1.105.417-2.202.629-3.307.106-.56-.508-.931-.947-.552-1.372 1.188-2.637 3.163-2.576 5.055.053 1.551 2.061 1.128 1.462-.129-.076-.159-.311-.302-.492-.28-.031 0-.069.008-.099.008-.727.076-.735 1.211 0 1.135zm6.964-135.147c-.501-.099.083 7.045.257 8.128.44 2.724 1.159 5.365 2.069 7.969.197.567 1.182.522 1.113-.152a95.936 95.936 0 00-.969-7.356c-.205-1.203-.091-2.906-1.198-3.663-.265-.174-.621-.037-.78.205-.053.083-.106.159-.152.242-.174.265-.045.613.205.78.061.037.114.075.174.113.614.401 1.182-.583.576-.984-.409-.272-.212 1.938-.212 1.953.068.915.341 1.846.477 2.754a97.82 97.82 0 01.743 5.956c.371-.053.742-.098 1.114-.151-1.22-3.489-2.069-7.046-2.402-10.739-.144-1.544.447-4.14-.72-5.343a.573.573 0 00-.689-.09c-.41.242-.485.408-.493.885-.008.234.182.5.417.545.06.015.113.022.174.038.705.15 1.008-.947.296-1.09zm268.963 239.319c19.579-2.323 39.211-7.379 55.122-19.525.576-.439.008-1.423-.576-.984-15.745 12.018-35.164 17.066-54.546 19.366-.712.091-.72 1.226 0 1.143z" fill="#000"/><path d="M511.697 245.472c1 2.391 1.992 4.775 2.993 7.167.28.666 1.379.37 1.098-.303-1-2.392-1.992-4.775-2.993-7.167-.28-.666-1.379-.371-1.098.303zm10.031-3.474c1.136 1.967 2.265 3.935 3.402 5.903.363.635 1.348.06.985-.576-1.137-1.967-2.266-3.935-3.402-5.903-.364-.628-1.349-.06-.985.576zm9.304-4.647a20.122 20.122 0 012.683 5.57c.212.697 1.31.401 1.098-.302a21.168 21.168 0 00-2.796-5.843c-.416-.598-1.401-.03-.985.575zm-30.095 12.759c.311 1.87.856 3.648 1.606 5.389.288.666 1.273.09.985-.576a21.545 21.545 0 01-1.492-5.115c-.121-.719-1.22-.417-1.099.302zm-10.502 1.817a21.125 21.125 0 012.046 5.358c.167.712 1.265.409 1.099-.302a22.393 22.393 0 00-2.16-5.631c-.356-.636-1.333-.068-.985.575zM416.47 151.766c-3.008-2.709-6.016-5.411-9.024-8.12-.341-.31-1-.121-.969.401.106 1.862 1.242 3.269 3.083 3.678.713.159 1.016-.931.303-1.097-1.318-.295-2.167-1.219-2.25-2.588-.326.136-.644.264-.97.401 3.008 2.709 6.016 5.411 9.024 8.12.538.5 1.349-.303.803-.795zm397.725 181.182c-1.78 1.218-3.833 1.604-5.932 1.075-.712-.182-1.015.915-.303 1.097 2.364.598 4.788.189 6.804-1.188.606-.409.038-1.393-.569-.984zm-587.29 50.683a12.207 12.207 0 00-7.941 6.137c-.288.538.47 1.211.894.689 2.076-2.611 4.152-5.214 6.228-7.825l-.894-.689c-.651 1.218-1.568 2.066-2.871 2.558-.463.174-.614.999 0 1.097 1.341.205 1.97-1.233 1.409-2.353-.977-1.96-3.372-.295-4.38.703-.522.515.288 1.317.804.803.401-.401 1.113-1.196 1.72-1.234.295.114.591.227.886.348.114.273.076.492-.129.643v1.098c1.569-.59 2.758-1.597 3.554-3.08.288-.538-.47-1.219-.894-.689-2.076 2.611-4.152 5.214-6.228 7.825l.894.689c1.538-2.861 4.099-4.844 7.258-5.615.705-.182.402-1.279-.31-1.105zM376.502 56.707c-1.257.915-1.81 2.353-1.416 3.867.348-.144.689-.295 1.038-.44-1.107-1.944-2.213-3.889-3.327-5.834-.272-.484-1.076-.28-1.06.288.06 1.998.575 3.874 1.545 5.623.356.635 1.334.068.985-.576a10.823 10.823 0 01-1.386-5.047c-.356.098-.705.189-1.061.287a2163.42 2163.42 0 003.326 5.835c.318.56 1.197.182 1.038-.439-.257-.991.046-1.968.894-2.58.584-.432.015-1.416-.576-.984zM793.48 7.348c-.591 1.135-1.182 2.27-1.773 3.413-.227.432.144.961.644.833 2.182-.575 3.758-2.066 4.508-4.185.152-.432-.303-.787-.697-.696-3.568.794-6.705 2.633-9.122 5.373-.485.545.318 1.354.803.802 2.296-2.604 5.236-4.329 8.622-5.086l-.697-.696c-.613 1.748-1.924 2.921-3.712 3.39.212.28.424.553.644.833.591-1.135 1.182-2.27 1.773-3.413.326-.643-.652-1.219-.993-.568zm-241.292 382.23a51.757 51.757 0 019.948 6.092c.182-.317.371-.635.553-.946-3.205-1.301-5.819-3.201-8.084-5.804l-.69.893 6.774 4.087c.144-.349.295-.689.439-1.037l-9.796-3.565c-.531-.197-.963.583-.554.946 3.296 2.944 7.229 4.268 11.646 3.83a.568.568 0 000-1.136c-1.826-.189-3.091.091-4.69.954-.47.257-.288.87.136 1.037 2.561 1.021 10.638 3.753 13.048 1.074.219-.242.204-.552 0-.802-.091-.106-.175-.212-.266-.318-.151-.189-.492-.212-.689-.09-.091.06-.182.113-.273.174-.47.302-.288 1.052.288 1.059 1.068.008 2.137.015 3.205.03.417 0 .72-.492.493-.855.144-.068.288-.128.432-.197.174.712 1.272.409 1.098-.302-.644-2.558-3.94-1.173-2.508 1.067.167-.288.326-.568.493-.855a488.539 488.539 0 01-3.205-.031c.098.356.189.704.288 1.06a8.425 8.425 0 00-3.221-.265c-1.28 0-2.545-.106-3.811-.318-1.758-.303-3.417-.855-5.069-1.521l.137 1.037c1.318-.825 2.69-1.09 4.122-.795v-1.135c-4.115.409-7.752-.734-10.843-3.496-.182.317-.371.635-.553.946l9.797 3.564c.621.227.977-.711.439-1.037l-6.773-4.086c-.576-.349-1.099.423-.69.893 2.41 2.762 5.19 4.714 8.585 6.099.515.212.992-.605.553-.946a53.077 53.077 0 00-10.183-6.266c-.667-.333-1.243.643-.576.961zm-75.876.947c-.151-.023-.295-.053-.447-.076-.242-.038-.515.023-.644.257-.083.159-.166.318-.257.477-.091.167-.121.409 0 .575 1.939 2.747 8.137 2.899 11.183 3.088.735.045.72-1.075 0-1.135l-9.024-.795c-.561-.053-.773.81-.288 1.06 3.039 1.528 6.107 2.255 9.509 2.217.614-.008.803-1.007.152-1.113-3.425-.56-6.85-1.127-10.274-1.687-.364-.061-.705.151-.72.545-.212 7.189 16.972 1.241 19.889.204-.182-.318-.371-.636-.553-.946-.856 1.029-1.947 1.657-3.266 1.892-.591.159-.485.893 0 1.097 2.645 1.09 5.266.432 7.092-1.763l-.894-.689c-.758.992-.621 2.301.462 3.081 1.569 1.127 3.402-.106 4.69-1.037.584-.424.023-1.408-.575-.984-1.069 1.233-2.274 1.075-3.6-.484.387-.507-.477-1.181-.894-.689-1.583 1.907-3.697 2.414-5.985 1.476v1.097c1.53-.409 2.652-1.052 3.765-2.18.379-.386 0-1.142-.553-.946-4.243 1.506-8.743 2.71-13.259 3.005-.887.053-2.235.333-3.069-.03-.462-.432-.917-.863-1.379-1.295.493.084.978.159 1.47.243 2.288-.084 5.061.832 7.334 1.203.054-.371.099-.742.152-1.113-3.205.038-6.069-.62-8.933-2.058-.099.356-.189.704-.288 1.059l9.024.795v-1.135c-3.652-.235-6.63-1.506-10.145-2.096.742.09 1.045-.999.325-1.12zm-61.985-243.723a10.64 10.64 0 01-3.887-4.897c-.349.144-.69.295-1.038.439l2.425 3.739c.394.613 1.378.045.984-.576l-2.424-3.738c-.333-.507-1.288-.189-1.038.439a11.926 11.926 0 004.41 5.577c.598.417 1.166-.567.568-.983zm309.939 232.682c-.296-1.219-.591-2.437-.894-3.648-.137-.575-.925-.507-1.099 0-.879 2.618-1.758 5.237-2.644 7.855h1.098c.281 1.211-1.841 4.375-2.364 5.457a58.77 58.77 0 01-2.129 3.98c-1.833 3.126-3.97 6.025-6.334 8.764.318.083.637.167.947.25.137.484-3.879 3.753-4.19 4.056-1.447 1.378-2.894 2.747-4.341 4.125-.364.34-.084.968.401.968h3.213c-.137-.325-.265-.643-.402-.968a57.579 57.579 0 01-13.297 12.419c-.432.287-.318 1.097.288 1.059-.227.265-.462.53-.69.787-.674.265-.379 1.37.303 1.097 1.44-.575 2.971-3.186.387-3.019.098.356.189.704.288 1.059a58.408 58.408 0 0013.524-12.6c.288-.371.137-.969-.401-.969h-3.213c.137.326.265.643.402.969 2.091-1.983 4.182-3.973 6.273-5.956 1.22-1.158 2.137-1.688 2.251-3.3.022-.272-.197-.454-.417-.545-.629-.264-.72-.219-1.303.144a.572.572 0 00-.258.644c.03.113.061.227.099.34.113.386.659.583.947.25 2.856-3.3 5.387-6.834 7.471-10.678 1.144-2.104 4.03-6.35 3.242-8.84-.053-.181-.204-.363-.394-.393-.674-.129-.765-.091-1.31.333-.159.121-.19.371-.144.552.022.106.053.22.075.326.137.575.925.499 1.099 0 .879-2.619 1.758-5.237 2.644-7.856h-1.098c.295 1.219.591 2.437.894 3.648.151.696 1.242.401 1.076-.31zm-445.808-17.112c-.932 5.403.947 10.557 5.266 13.985.454.364 1.045.023.947-.552-.387-2.384-1.637-3.837-3.842-4.745-.424-.174-.795.318-.697.696.917 3.587 3.001 6.259 6.282 8.007.515.28 1.022-.272.78-.779-1.796-3.656-4.614-6.146-8.433-7.538-.424-.151-.796.31-.697.696 1.576 6.183 5.796 10.951 11.714 13.342.447.182.924-.446.644-.832-1.402-1.938-3.342-2.46-5.531-1.43-.402.189-.334.771 0 .983a146.762 146.762 0 0023.336 11.761c.387.151.675-.227.72-.545.015-.136.038-.265.053-.401.023-.182-.121-.416-.28-.492-.924-.447-2.16-.227-2.281.961-.235 2.369 4.387 1.582 4.804 3.239l.697-.696c-1.834-.553-3.667-1.105-5.501-1.65-.659-.197-.917.674-.439 1.037 6.38 4.813 14.214 5.903 21.776 7.78 9.153 2.27 17.207 6.72 23.806 13.478.515.522 1.319-.28.803-.802-5.796-5.941-12.873-10.398-20.836-12.828-8.479-2.58-17.669-3.103-24.973-8.612-.144.348-.296.689-.44 1.037 1.834.552 3.667 1.105 5.501 1.65.424.128.803-.288.697-.697-.311-1.226-.826-1.286-1.834-1.876a96.145 96.145 0 00-8.774-4.556c-5.614-2.558-11.024-5.51-16.267-8.764v.984c1.326.34 2.652.681 3.978 1.029.212-.28.424-.552.644-.832-5.546-2.248-9.441-6.774-10.918-12.555l-.698.696c3.577 1.301 6.092 3.617 7.759 7.015l.781-.779c-3.001-1.605-4.91-4.004-5.759-7.326l-.697.696c1.932.855 2.947 2.172 3.046 3.951.318-.182.636-.371.947-.553-3.97-3.156-5.849-7.848-4.978-12.88.114-.719-.977-1.022-1.106-.303zm437.655-42.191c-4.22.182-8.047 1.741-11.199 4.541-.545.484.258 1.287.804.802 2.924-2.603 6.478-4.041 10.395-4.208.727-.03.727-1.165 0-1.135z" fill="#000"/><path d="M713.423 320.794c-1.061.424-2.114.848-3.175 1.264-.674.265-.379 1.37.303 1.097 1.061-.424 2.114-.847 3.175-1.264.667-.272.379-1.369-.303-1.097zm-106.174-85.978c4.538-5.82 7.524-12.374 8.872-19.631a.571.571 0 00-1.038-.439c-1.22 1.718-2.03 3.171-1.417 5.26.175.582.887.491 1.099 0 .72-1.718 3.933-9.422.311-9.839-.197-.022-.394.129-.493.28-.091.144-.182.295-.28.439-.394.621.591 1.188.985.575-.015.031-.477 5.131-.311 4.39-.303 1.332-.78 2.596-1.311 3.852h1.099c-.174-1.718.258-3.186 1.303-4.39-.348-.143-.689-.295-1.038-.438-1.31 7.045-4.167 13.47-8.577 19.124-.454.582.349 1.392.796.817zm-103.948-130.97c.023-.084.038-.174.061-.258.037-.181.015-.431-.144-.552-.447-.348-.576-.394-1.144-.295-.197.038-.334.219-.394.393-.349 1.014.098 1.748.416 2.77.735 2.361 1.569 4.707 2.364 7.046a835.222 835.222 0 004.925 14.031c.243.681 1.341.386 1.099-.303a974.164 974.164 0 01-4.198-11.919 829.53 829.53 0 01-2.849-8.454c-.121-.371-1.242-2.626-1.212-2.77-.182.719.909 1.022 1.076.311zM676 428.705l3.804-5.071c.439-.583-.546-1.15-.985-.575-1.265 1.688-2.538 3.383-3.804 5.07-.432.583.553 1.151.985.576zm8.343-3.482a26.54 26.54 0 006.205-7.954c.334-.65-.651-1.226-.985-.575a25.673 25.673 0 01-6.023 7.727c-.553.485.25 1.287.803.802zm7.773-6.236a29.065 29.065 0 006.039-10.731c.22-.696-.879-.999-1.099-.303-1.189 3.822-3.091 7.228-5.743 10.232-.485.553.318 1.355.803.802zm9.897-12.464c.636-1.476 1.265-2.959 1.901-4.435.288-.666-.697-1.241-.985-.575-.636 1.475-1.265 2.959-1.901 4.434-.281.666.697 1.249.985.576zm9.516-13.304c.637-1.264 1.265-2.535 1.902-3.799.326-.651-.652-1.226-.985-.575-.637 1.264-1.265 2.535-1.902 3.799-.326.658.652 1.233.985.575zm5.849-9.218c.735 0 .735-1.135 0-1.135-.727 0-.735 1.135 0 1.135zm5.645-8.809v-3.171c0-.734-1.136-.734-1.136 0v3.171c0 .734 1.136.734 1.136 0zm.697-10.837c.735 0 .735-1.135 0-1.135-.727 0-.727 1.135 0 1.135zm-363.562 58.84c-.636-1.688-1.265-3.383-1.901-5.071-.258-.681-1.357-.386-1.099.303.636 1.688 1.265 3.383 1.902 5.071.257.681 1.356.386 1.098-.303zm-5.856-8.484a55.968 55.968 0 01-6.887-8.12c-.417-.598-1.402-.031-.985.575a58.137 58.137 0 007.069 8.355c.523.499 1.326-.303.803-.81zm-11.888-7.129c-2.205-2.232-4.41-4.465-6.623-6.698-.515-.522-1.318.281-.803.803 2.205 2.232 4.41 4.465 6.622 6.697.516.515 1.319-.287.804-.802zm-9.987-5.532a14.559 14.559 0 01-7.19-5.622c-.409-.606-1.394-.038-.985.575a15.93 15.93 0 007.872 6.145c.69.25.985-.848.303-1.098zm-12.934-3.065a20.898 20.898 0 00-4.5-6.471c-.523-.514-1.326.288-.804.802a20.04 20.04 0 014.327 6.244c.288.666 1.265.091.977-.575zM308.743 392l-4.372-8.272c-.341-.643-1.326-.076-.985.575l4.372 8.272c.341.643 1.326.076.985-.575zm-7.865-3.928c-3.243-1.377-5.243-4.753-4.705-8.279.113-.712-.985-1.022-1.099-.303-.614 3.988 1.47 7.961 5.22 9.558.675.288 1.258-.689.584-.976zm-8.668-4.918a22.79 22.79 0 01-2.425-9.225c-.038-.727-1.174-.734-1.137 0a24.166 24.166 0 002.584 9.8c.318.651 1.303.076.978-.575zm-4.349-9.226l-.637-6.97c-.068-.719-1.204-.726-1.136 0l.636 6.97c.069.719 1.205.727 1.137 0zm-2.554-7.757a10.045 10.045 0 01-.007-4.767c.166-.712-.925-1.014-1.099-.303a11.3 11.3 0 00.008 5.373c.174.711 1.273.409 1.098-.303z" fill="#000"/><path d="M283.489 362.455c.735 0 .735-1.135 0-1.135-.728 0-.735 1.135 0 1.135zm124.966 52.12c-2.932-.09-5.615-1.127-7.827-3.057-.546-.477-1.356.318-.803.802 2.44 2.127 5.387 3.292 8.63 3.391.735.022.727-1.113 0-1.136zm-17.905-3.557c-1.266-1.687-2.539-3.382-3.804-5.07-.432-.575-1.424-.015-.985.575l3.804 5.071c.439.575 1.424.015.985-.576zm-8.971-5.175l-1.902-1.9c-.515-.515-1.318.288-.803.802l1.902 1.9c.515.514 1.318-.288.803-.802zm-11.418-5.707l-1.902-1.899c-.515-.515-1.318.288-.803.802l1.902 1.9c.515.514 1.318-.288.803-.803zm-11.821-6.002c.735 0 .735-1.135 0-1.135-.727 0-.735 1.135 0 1.135zm-9.516-11.404c.735 0 .735-1.135 0-1.135-.728 0-.728 1.135 0 1.135zm-5.705-14.569c.735 0 .735-1.135 0-1.135s-.735 1.135 0 1.135zm-2.538-18.374c.734 0 .734-1.136 0-1.136-.735 0-.735 1.136 0 1.136zm1.264-15.211c.735 0 .735-1.136 0-1.136-.727 0-.727 1.136 0 1.136zm6.35-19.003c.735 0 .735-1.135 0-1.135s-.735 1.135 0 1.135zm8.736-11.685c.637-.847 1.266-1.688 1.902-2.535.439-.583-.545-1.15-.985-.575l-1.902 2.535c-.439.583.546 1.15.985.575zm9.804-8.613c1.061-.424 2.114-.847 3.175-1.264.674-.265.379-1.369-.303-1.097-1.061.424-2.114.848-3.175 1.264-.666.272-.371 1.37.303 1.097zm7.464-3.148c.735 0 .735-1.135 0-1.135-.728 0-.735 1.135 0 1.135zM426.85 415.68c.735 0 .735-1.135 0-1.135s-.735 1.135 0 1.135zm-12.054-3.807c.735 0 .735-1.135 0-1.135-.728 0-.728 1.135 0 1.135zm-15.222-5.698c.735 0 .735-1.135 0-1.135s-.735 1.135 0 1.135zm-12.539-6.183c-1.061-.424-2.114-.848-3.175-1.264-.682-.273-.977.825-.303 1.097 1.061.424 2.114.848 3.175 1.264.681.265.977-.833.303-1.097zm-12.836-5.221c.735 0 .735-1.135 0-1.135-.728 0-.735 1.135 0 1.135zm-5.076-1.901c.735 0 .735-1.135 0-1.135-.728 0-.728 1.135 0 1.135zm-8.244-5.07c.735 0 .735-1.135 0-1.135s-.735 1.135 0 1.135zm-7.615-20.91c.735 0 .735-1.135 0-1.135-.727 0-.727 1.135 0 1.135zm-1.901-8.869c.735 0 .735-1.135 0-1.135-.728 0-.735 1.135 0 1.135zm.635-7.606c.735 0 .735-1.136 0-1.136-.734 0-.734 1.136 0 1.136zm5.706 33.586c.735 0 .735-1.135 0-1.135-.728 0-.728 1.135 0 1.135zm-5.706-8.241c.735 0 .735-1.135 0-1.135-.734 0-.734 1.135 0 1.135zm-5.712-13.94c.735 0 .735-1.135 0-1.135-.728 0-.728 1.135 0 1.135zm1.273-19.003c.735 0 .735-1.135 0-1.135s-.735 1.135 0 1.135zm1.265-14.576c.735 0 .735-1.136 0-1.136-.728 0-.728 1.136 0 1.136zm3.811-10.769c.735 0 .735-1.135 0-1.135s-.735 1.135 0 1.135zm6.979-5.07c.735 0 .735-1.135 0-1.135s-.735 1.135 0 1.135zm1.265-88.068c.735 0 .735-1.135 0-1.135s-.735 1.135 0 1.135zm.492 6.054c.212-.424.425-.847.637-1.264.136-.272.076-.613-.205-.779-.25-.144-.636-.068-.78.204-.212.424-.425.848-.637 1.264-.136.273-.075.613.205.78.25.143.644.068.78-.205zm2.682-.983c.735 0 .735-1.135 0-1.135s-.735 1.135 0 1.135zm1.903 5.698c.734 0 .734-1.135 0-1.135-.735 0-.735 1.135 0 1.135zm3.803 1.9c.735 0 .735-1.135 0-1.135-.727 0-.735 1.135 0 1.135zm8.88 6.342c.735 0 .735-1.135 0-1.135-.727 0-.735 1.135 0 1.135zm3.803 4.435c.735 0 .735-1.135 0-1.135-.727 0-.727 1.135 0 1.135zm3.176 3.799c.735 0 .735-1.136 0-1.136-.728 0-.735 1.136 0 1.136zm10.153 8.234c.735 0 .735-1.135 0-1.135s-.735 1.135 0 1.135zm6.978 3.171c.734 0 .734-1.135 0-1.135-.735 0-.735 1.135 0 1.135zm15.858 1.263c.735 0 .735-1.135 0-1.135s-.735 1.135 0 1.135zm3.804 1.908c.735 0 .735-1.135 0-1.135s-.735 1.135 0 1.135zm13.957 3.163c.735 0 .735-1.135 0-1.135s-.735 1.135 0 1.135zm.628-1.9c.735 0 .735-1.135 0-1.135-.728 0-.728 1.135 0 1.135z" fill="#000"/><path d="M418.736 264.444c-1.682-.658-3.364-1.309-5.046-1.968-.682-.264-.977.833-.303 1.098 1.682.658 3.364 1.309 5.046 1.968.69.257.985-.841.303-1.098zm-26.141-8.431c.735 0 .735-1.135 0-1.135s-.735 1.135 0 1.135zm-9.864-11.193c-.849-.635-1.69-1.263-2.538-1.899-.584-.439-1.152.545-.576.984.848.635 1.69 1.263 2.538 1.899.591.432 1.159-.552.576-.984zm-5.993-3.382c.735 0 .735-1.135 0-1.135s-.735 1.135 0 1.135zm1.265 1.907c.735 0 .735-1.135 0-1.135-.728 0-.728 1.135 0 1.135zm6.978 3.799c.735 0 .735-1.135 0-1.135-.727 0-.727 1.135 0 1.135zm3.175 7.605c.735 0 .735-1.135 0-1.135s-.735 1.135 0 1.135zm13.957 6.962c.735 0 .735-1.135 0-1.135s-.735 1.135 0 1.135zm36.157 9.007h-.637c-.295 0-.583.257-.568.567.015.311.25.568.568.568h.637c.295 0 .583-.257.568-.568-.015-.31-.25-.567-.568-.567zm10.145 2.4c.735 0 .735-1.136 0-1.136-.728 0-.728 1.136 0 1.136zm33.625 115.318c.735 0 .735-1.135 0-1.135-.734 0-.734 1.135 0 1.135zm6.979 2.535c.735 0 .735-1.135 0-1.135s-.735 1.135 0 1.135zm5.069.628c.735 0 .735-1.135 0-1.135-.728 0-.728 1.135 0 1.135zm5.077-1.264c.735 0 .735-1.135 0-1.135-.728 0-.735 1.135 0 1.135zm6.978-1.899c.735 0 .735-1.135 0-1.135-.727 0-.735 1.135 0 1.135zm-.637 5.062c.735 0 .735-1.135 0-1.135-.727 0-.727 1.135 0 1.135zm-3.803-1.263c.735 0 .735-1.135 0-1.135s-.735 1.135 0 1.135zm-27.913-1.9c.735 0 .735-1.135 0-1.135-.728 0-.728 1.135 0 1.135zm105.939 2.535c.735 0 .735-1.135 0-1.135s-.735 1.135 0 1.135zm-4.44-.635c.735 0 .735-1.135 0-1.135s-.735 1.135 0 1.135zm-5.712 2.536c.735 0 .735-1.135 0-1.135-.728 0-.735 1.135 0 1.135zm-4.441-3.8c.735 0 .735-1.135 0-1.135-.727 0-.735 1.135 0 1.135z" fill="#000"/><path d="M564.5 390.971c.735 0 .735-1.135 0-1.135-.728 0-.728 1.135 0 1.135zm-1.266.628c.735 0 .735-1.135 0-1.135s-.735 1.135 0 1.135zm-7.614-3.799c.735 0 .735-1.135 0-1.135-.728 0-.728 1.135 0 1.135zm-.977-1.695c-.425-.212-.849-.424-1.266-.636-.272-.136-.613-.075-.78.205-.144.249-.068.635.205.779.424.212.848.424 1.265.636.273.136.614.075.78-.205.144-.249.068-.635-.204-.779zm-3.464-.204c.735 0 .735-1.135 0-1.135-.727 0-.727 1.135 0 1.135z" fill="#000"/><path d="M551.179 385.901c.735 0 .735-1.135 0-1.135-.727 0-.727 1.135 0 1.135zm3.812 5.07c.735 0 .735-1.135 0-1.135s-.735 1.135 0 1.135zm-1.273-4.442c.735 0 .735-1.135 0-1.135-.727 0-.735 1.135 0 1.135zm-2.539 7.605c.735 0 .735-1.135 0-1.135-.727 0-.727 1.135 0 1.135zm170.003-24.709c.735 0 .735-1.135 0-1.135-.727 0-.727 1.135 0 1.135zm-3.167 12.041c.735 0 .735-1.135 0-1.135s-.735 1.135 0 1.135zm-1.902 2.535c.735 0 .735-1.135 0-1.135s-.735 1.135 0 1.135zm-8.88 12.668c.735 0 .735-1.135 0-1.135s-.735 1.135 0 1.135zm-5.713 5.072c.735 0 .735-1.136 0-1.136-.727 0-.735 1.136 0 1.136zm-10.153 8.233c.735 0 .735-1.135 0-1.135-.728 0-.728 1.135 0 1.135zm-11.699 5.283c-1.69.847-3.387 1.687-5.077 2.535-.651.326-.076 1.309.576.984 1.69-.848 3.387-1.688 5.076-2.535.652-.333.076-1.31-.575-.984z" fill="#000"/><path d="M675.508 417.58c.735 0 .735-1.136 0-1.136-.727 0-.727 1.136 0 1.136zm6.979-8.87c.735 0 .735-1.135 0-1.135-.727 0-.727 1.135 0 1.135zm1.273-3.806c.735 0 .735-1.135 0-1.135s-.735 1.135 0 1.135zm32.353-28.509c.735 0 .735-1.135 0-1.135s-.735 1.135 0 1.135zm-12.691 16.475c.735 0 .735-1.135 0-1.135-.728 0-.728 1.135 0 1.135z" fill="#000"/><path d="M686.646 405.751c-1.689.848-3.387 1.688-5.076 2.535-.652.326-.076 1.309.575.984 1.69-.848 3.387-1.688 5.077-2.535.652-.333.076-1.309-.576-.984zm-11.767 11.193c.735 0 .735-1.135 0-1.135s-.735 1.135 0 1.135zm-6.977 6.969c.735 0 .735-1.135 0-1.135s-.735 1.135 0 1.135zm-12.692-5.07c.735 0 .735-1.135 0-1.135-.728 0-.728 1.135 0 1.135zm-15.222-.628c.735 0 .735-1.135 0-1.135-.728 0-.735 1.135 0 1.135zm-43.771-6.97c.735 0 .735-1.135 0-1.135-.728 0-.728 1.135 0 1.135zm-8.88 8.234c.734 0 .734-1.135 0-1.135-.728 0-.728 1.135 0 1.135zm-6.979 10.77c.735 0 .735-1.136 0-1.136-.727 0-.727 1.136 0 1.136zm.637 3.806c.735 0 .735-1.135 0-1.135-.728 0-.735 1.135 0 1.135zm4.439-8.241c.735 0 .735-1.135 0-1.135-.727 0-.735 1.135 0 1.135z" fill="#000"/><path d="M586.935 418.511l-5.076 4.435c-.553.484.258 1.279.803.802l5.077-4.435c.553-.484-.25-1.279-.804-.802z" fill="#000"/><path d="M587.973 418.843c.735 0 .735-1.135 0-1.135s-.735 1.135 0 1.135zm-12.684 11.406c.735 0 .735-1.136 0-1.136s-.735 1.136 0 1.136zm-42.506-10.134c.735 0 .735-1.136 0-1.136-.728 0-.728 1.136 0 1.136zm-74.852-7.606c.735 0 .735-1.135 0-1.135-.727 0-.727 1.135 0 1.135zm9.517 5.706c.735 0 .735-1.135 0-1.135-.728 0-.735 1.135 0 1.135zm5.713 6.334c.734 0 .734-1.135 0-1.135-.735 0-.735 1.135 0 1.135zm-1.273-1.899c.735 0 .735-1.135 0-1.135-.727 0-.735 1.135 0 1.135zm-1.902-1.906c.735 0 .735-1.136 0-1.136s-.735 1.136 0 1.136zm5.076-10.134c.735 0 .735-1.135 0-1.135s-.735 1.135 0 1.135zm-1.901-2.535c.734 0 .734-1.136 0-1.136-.735 0-.735 1.136 0 1.136zm20.927-75.399c.735 0 .735-1.135 0-1.135-.728 0-.728 1.135 0 1.135zm90.536-78.691l2.539-3.171c.454-.568-.349-1.37-.803-.802l-2.539 3.17c-.454.568.341 1.378.803.803zm6.524-10.64c.735 0 .735-1.135 0-1.135s-.735 1.135 0 1.135zm6.198-4.086c.424-.636.848-1.264 1.265-1.9.409-.613-.576-1.18-.985-.575-.424.636-.848 1.264-1.265 1.9-.402.613.583 1.18.985.575zm2.682-4.156c.735 0 .735-1.135 0-1.135s-.735 1.135 0 1.135zm4.439-10.133c.735 0 .735-1.135 0-1.135s-.735 1.135 0 1.135zm.63-1.271c.735 0 .735-1.136 0-1.136-.727 0-.727 1.136 0 1.136zm1.909-11.405c.735 0 .735-1.135 0-1.135s-.735 1.135 0 1.135zm1.265.635c.735 0 .735-1.135 0-1.135-.727 0-.735 1.135 0 1.135zm2.538-3.799c.735 0 .735-1.135 0-1.135s-.735 1.135 0 1.135zm-1.266-7.605c.735 0 .735-1.135 0-1.135s-.735 1.135 0 1.135zm-1.272.636c.735 0 .735-1.136 0-1.136-.727 0-.735 1.136 0 1.136zm1.272-2.536c.735 0 .735-1.135 0-1.135s-.735 1.135 0 1.135zm-2.537 9.505c.735 0 .735-1.135 0-1.135s-.735 1.135 0 1.135zm6.342 4.435c.735 0 .735-1.135 0-1.135s-.735 1.135 0 1.135zm-15.859 19.639c.735 0 .735-1.136 0-1.136s-.735 1.136 0 1.136zm3.023-3.451c1.061-1.476 2.114-2.959 3.175-4.435.424-.597-.561-1.165-.985-.575-1.061 1.476-2.114 2.959-3.175 4.435-.416.598.569 1.165.985.575zm-3.659 6.621c.735 0 .735-1.135 0-1.135-.727 0-.735 1.135 0 1.135zm-5.077 5.699c.735 0 .735-1.135 0-1.135-.727 0-.727 1.135 0 1.135z" fill="#000"/><path d="M595.588 236.374c.735 0 .735-1.135 0-1.135s-.735 1.135 0 1.135zm0-4.434c.735 0 .735-1.135 0-1.135s-.735 1.135 0 1.135zm-10.154 34.843c.735 0 .735-1.136 0-1.136-.727 0-.735 1.136 0 1.136zm-44.399-8.234c.735 0 .735-1.135 0-1.135s-.735 1.135 0 1.135zm38.058-2.536c.735 0 .735-1.135 0-1.135s-.735 1.135 0 1.135zm-106.568 24.709c.735 0 .735-1.135 0-1.135s-.735 1.135 0 1.135zm-85.006-79.197c.735 0 .735-1.135 0-1.135-.727 0-.727 1.135 0 1.135zm7.615 3.8c.735 0 .735-1.136 0-1.136s-.735 1.136 0 1.136zm5.076 3.17c.735 0 .735-1.136 0-1.136s-.735 1.136 0 1.136zm6.342 7.605c.735 0 .735-1.135 0-1.135s-.735 1.135 0 1.135zm2.538 2.528c.735 0 .735-1.135 0-1.135s-.735 1.135 0 1.135zm1.903 3.807c.735 0 .735-1.135 0-1.135s-.735 1.135 0 1.135zM406.552 218c.735 0 .735-1.135 0-1.135s-.735 1.135 0 1.135zm-.636 2.664h-2.539c-.735 0-.735 1.135 0 1.135h2.539c.735 0 .735-1.135 0-1.135zm-7.615-9.633c.735 0 .735-1.135 0-1.135-.727 0-.727 1.135 0 1.135z" fill="#000"/><path d="M398.301 211.031c.735 0 .735-1.135 0-1.135-.727 0-.727 1.135 0 1.135zm.637 10.768c.735 0 .735-1.135 0-1.135-.727 0-.727 1.135 0 1.135zm2.825-.075c.424-.212.849-.424 1.265-.636.273-.136.349-.522.205-.78-.167-.28-.5-.34-.78-.204-.425.212-.849.424-1.266.636-.272.136-.348.522-.204.779.166.28.507.341.78.205zm1.85-7.698l4.44 4.435c.515.515 1.318-.287.803-.802a18575.71 18575.71 0 00-4.44-4.435c-.515-.514-1.318.288-.803.802zm1.667 3.339c.735 0 .735-1.136 0-1.136-.727 0-.727 1.136 0 1.136zm-.001 4.434l5.077.635c.727.091.719-1.044 0-1.135l-5.077-.636c-.72-.09-.712 1.045 0 1.136z" fill="#000"/><path d="M409.719 223.071c.735 0 .735-1.135 0-1.135-.727 0-.727 1.135 0 1.135z" fill="#000"/><path d="M409.174 222.352l-.636 1.899c-.235.697.863.992 1.098.303.212-.636.425-1.264.637-1.899.227-.697-.864-.999-1.099-.303zm-.318-2.786l-3.175-2.535c-.568-.454-1.371.348-.803.802l3.175 2.536c.568.446 1.371-.348.803-.803zm-1.667 1.598c.735 0 .735-1.136 0-1.136s-.735 1.136 0 1.136z" fill="#000"/><path d="M408.454 220.536c.735 0 .735-1.136 0-1.136-.728 0-.735 1.136 0 1.136zm8.881 2.535c.734 0 .734-1.135 0-1.135-.728 0-.735 1.135 0 1.135zm57.09 11.404c.735 0 .735-1.135 0-1.135s-.735 1.135 0 1.135zm-55.818-7.605c.735 0 .735-1.136 0-1.136s-.735 1.136 0 1.136zm97.688 20.274c.735 0 .735-1.135 0-1.135s-.735 1.135 0 1.135zm24.103-13.305c.735 0 .735-1.135 0-1.135s-.735 1.135 0 1.135zm8.88 4.436c.735 0 .735-1.135 0-1.135-.727 0-.735 1.135 0 1.135zm5.713 1.263c.735 0 .735-1.135 0-1.135s-.735 1.135 0 1.135zm-159.22-24.074c.735 0 .735-1.135 0-1.135s-.735 1.135 0 1.135z" fill="#000"/><path d="M395.771 215.464c.735 0 .735-1.135 0-1.135s-.735 1.135 0 1.135zm392.655 65.258c.735 0 .735-1.135 0-1.135s-.735 1.135 0 1.135zm-13.471 5.222c-1.06.424-2.114.848-3.174 1.264-.675.265-.379 1.37.303 1.098 1.06-.424 2.114-.848 3.174-1.264.667-.273.372-1.37-.303-1.098zm-10.001 5.548c.734 0 .734-1.136 0-1.136-.728 0-.735 1.136 0 1.136zm-12.684 6.341c.735 0 .735-1.135 0-1.135s-.735 1.135 0 1.135zm-9.517 5.699c.735 0 .735-1.136 0-1.136s-.735 1.136 0 1.136zm13.957-6.334c.735 0 .735-1.136 0-1.136s-.735 1.136 0 1.136zm-61.13 32.783a13.114 13.114 0 003.311-5.32c.227-.696-.872-.991-1.099-.303a11.813 11.813 0 01-3.016 4.821c-.523.507.281 1.309.804.802zm1.379 4.329c2.75-4.435 5.493-8.869 8.244-13.312.386-.62-.599-1.196-.985-.575-2.751 4.435-5.494 8.87-8.244 13.312-.386.628.599 1.196.985.575zm7.463-6.902a105.04 105.04 0 009.092-12.706c.379-.628-.598-1.196-.985-.575a104.038 104.038 0 01-8.918 12.472c-.454.567.341 1.377.811.809zm12.176-10.215c1.061-1.476 2.114-2.959 3.175-4.435.425-.598-.56-1.166-.985-.575-1.061 1.475-2.114 2.959-3.175 4.434-.416.598.569 1.166.985.576zm17.04-7.493l9.517-8.87c.538-.499-.273-1.302-.803-.802l-9.517 8.869c-.538.5.273 1.302.803.803z" fill="#000"/><path d="M771.841 291.25c4.152-5.563 9.411-9.99 15.578-13.184.652-.333.076-1.317-.576-.984-6.349 3.293-11.706 7.864-15.987 13.592-.432.591.553 1.158.985.576zm11.252-3.127c4.015-3.171 8.024-6.342 12.039-9.52.576-.454-.235-1.249-.803-.802-4.016 3.171-8.024 6.342-12.04 9.52-.576.454.235 1.249.804.802zm11.039-6.129c.735 0 .735-1.136 0-1.136-.727 0-.727 1.136 0 1.136zm3.175-5.071c.735 0 .735-1.135 0-1.135s-.735 1.135 0 1.135zm-41.953 19.223l.636-2.535c.174-.712-.917-1.014-1.098-.303l-.637 2.535c-.174.712.917 1.014 1.099.303zm-12.108 6.47c.424-.847.848-1.687 1.265-2.535.326-.651-.651-1.226-.985-.575-.424.847-.848 1.687-1.265 2.535-.326.658.651 1.234.985.575zm-18.889 7.251c.735 0 .735-1.136 0-1.136s-.735 1.136 0 1.136zm-2.539-.629c.735 0 .735-1.135 0-1.135-.727 0-.735 1.135 0 1.135zm-10.146 3.164c.735 0 .735-1.135 0-1.135s-.735 1.135 0 1.135zm-3.81.636c.735 0 .735-1.136 0-1.136-.727 0-.727 1.136 0 1.136zm-6.342 1.263c.735 0 .735-1.135 0-1.135-.727 0-.735 1.135 0 1.135zm-.985-6.758c-.424-.212-.848-.423-1.265-.635-.273-.137-.614-.076-.78.204-.144.25-.069.636.204.779.424.212.849.424 1.265.636.273.136.614.076.781-.204.151-.257.076-.643-.205-.78zm-2.736 4.442l.637 3.171c.144.719 1.242.416 1.098-.303l-.636-3.171c-.144-.711-1.243-.409-1.099.303zm-.083-2.118c.735 0 .735-1.136 0-1.136s-.735 1.136 0 1.136z" fill="#000"/><path d="M698.345 314.301c.735 0 .735-1.135 0-1.135-.727 0-.727 1.135 0 1.135zm7.616 2.535c.735 0 .735-1.135 0-1.135-.728 0-.735 1.135 0 1.135zm5.075-14.568c.735 0 .735-1.135 0-1.135-.734 0-.734 1.135 0 1.135zm-14.593 8.234c.735 0 .735-1.135 0-1.135-.727 0-.727 1.135 0 1.135z" fill="#000"/><path d="M696.443 310.502c.735 0 .735-1.135 0-1.135-.727 0-.727 1.135 0 1.135zm41.234-46.882c.735 0 .735-1.136 0-1.136-.727 0-.735 1.136 0 1.136zm-5.705 10.768c.735 0 .735-1.135 0-1.135s-.735 1.135 0 1.135zm-8.252 8.869c.735 0 .735-1.135 0-1.135-.727 0-.727 1.135 0 1.135zm-7.607 8.87c.735 0 .735-1.135 0-1.135s-.735 1.135 0 1.135zm-13.328 2.536c.735 0 .735-1.136 0-1.136-.728 0-.728 1.136 0 1.136zm-6.342.635c.735 0 .735-1.135 0-1.135-.727 0-.727 1.135 0 1.135zm10.153-8.241c.735 0 .735-1.135 0-1.135s-.735 1.135 0 1.135zm15.222-9.498c.735 0 .735-1.135 0-1.135-.727 0-.735 1.135 0 1.135zm-19.033 11.397c.735 0 .735-1.135 0-1.135-.728 0-.728 1.135 0 1.135zm-8.879-3.798c.735 0 .735-1.136 0-1.136-.728 0-.728 1.136 0 1.136zm-8.244 67.165c.735 0 .735-1.135 0-1.135s-.735 1.135 0 1.135zm-5.706 13.303c.735 0 .735-1.135 0-1.135-.734 0-.734 1.135 0 1.135zm-5.077 6.971c.735 0 .735-1.135 0-1.135s-.735 1.135 0 1.135zm-7.614 10.769c.735 0 .735-1.136 0-1.136-.727 0-.735 1.136 0 1.136zm-8.244 6.334c.735 0 .735-1.136 0-1.136s-.735 1.136 0 1.136zm-17.76 5.706c.735 0 .735-1.135 0-1.135s-.735 1.135 0 1.135zm-13.805 2.687l-4.44-.636c-.712-.098-1.023.992-.303 1.098l4.44.635c.712.099 1.023-.998.303-1.097zm-10.304-2.687c.735 0 .735-1.135 0-1.135-.727 0-.735 1.135 0 1.135zm-1.902 3.164c.735 0 .735-1.135 0-1.135s-.735 1.135 0 1.135zm-18.397-19.639c.735 0 .735-1.135 0-1.135-.727 0-.735 1.135 0 1.135zm-4.44 4.435c.735 0 .735-1.136 0-1.136-.728 0-.735 1.136 0 1.136zm-5.076-.636c.734 0 .734-1.135 0-1.135-.728 0-.728 1.135 0 1.135zm3.174 10.768c.735 0 .735-1.135 0-1.135s-.735 1.135 0 1.135zm-8.244-8.869c.735 0 .735-1.135 0-1.135s-.735 1.135 0 1.135zm-8.887-6.334c.735 0 .735-1.135 0-1.135-.728 0-.728 1.135 0 1.135zm-8.244-8.234c.735 0 .735-1.135 0-1.135-.727 0-.735 1.135 0 1.135zm-8.47-11.465c-.205-1.272-.417-2.536-.622-3.807-.121-.719-1.212-.416-1.098.303.204 1.271.416 2.535.621 3.806.114.719 1.212.409 1.099-.302zm-3.584-11.98c.735 0 .735-1.136 0-1.136-.728 0-.728 1.136 0 1.136zm-1.266-15.203c.735 0 .735-1.136 0-1.136s-.735 1.136 0 1.136zm-.637-8.871c.735 0 .735-1.135 0-1.135-.727 0-.727 1.135 0 1.135zm.637-4.434c.735 0 .735-1.135 0-1.135s-.735 1.135 0 1.135zm52.651 72.863c.735 0 .735-1.135 0-1.135s-.735 1.135 0 1.135zm-20.935-16.975h-1.265c-.735 0-.735 1.135 0 1.135h1.265c.728 0 .735-1.135 0-1.135zm-12.683-10.269c.735 0 .735-1.135 0-1.135s-.735 1.135 0 1.135zm6.971-6.342c.735 0 .735-1.135 0-1.135-.727 0-.727 1.135 0 1.135zm40.604 31.679c.735 0 .735-1.135 0-1.135s-.735 1.135 0 1.135zm21.564 1.907c.735 0 .735-1.135 0-1.135-.728 0-.735 1.135 0 1.135zm17.761-9.505c.734 0 .734-1.135 0-1.135-.728 0-.728 1.135 0 1.135zm7.614-1.899c.735 0 .735-1.135 0-1.135s-.735 1.135 0 1.135zm-98.325-149.534c.735 0 .735-1.136 0-1.136-.728 0-.728 1.136 0 1.136zm-4.44 20.282c.735 0 .735-1.135 0-1.135-.727 0-.735 1.135 0 1.135zm-3.804 2.528c.735 0 .735-1.135 0-1.135s-.735 1.135 0 1.135zm-13.32 11.404c.735 0 .735-1.135 0-1.135s-.735 1.135 0 1.135zm-8.88 1.908c.735 0 .735-1.135 0-1.135s-.735 1.135 0 1.135zm-12.055 3.798c.735 0 .735-1.135 0-1.135-.734 0-.734 1.135 0 1.135zm-12.683 7.606c.735 0 .735-1.135 0-1.135s-.735 1.135 0 1.135zm-12.691.629c.735 0 .735-1.135 0-1.135-.728 0-.735 1.135 0 1.135zm-16.495-1.265c.734 0 .734-1.135 0-1.135-.728 0-.728 1.135 0 1.135zm-14.586-2.535c.735 0 .735-1.135 0-1.135s-.735 1.135 0 1.135zm-12.404-6.13l-2.538-1.9c-.583-.439-1.152.545-.576.984l2.538 1.9c.591.439 1.16-.545.576-.984zm-9.797-8.445c.735 0 .735-1.135 0-1.135s-.735 1.135 0 1.135zm-3.174-2.535c.735 0 .735-1.135 0-1.135s-.735 1.135 0 1.135zm25.375-1.265c.735 0 .735-1.135 0-1.135s-.735 1.135 0 1.135zm-8.879 8.87c.734 0 .734-1.135 0-1.135-.735 0-.735 1.135 0 1.135zm30.443 7.606c.735 0 .735-1.135 0-1.135-.727 0-.727 1.135 0 1.135zm20.298 1.899c.735 0 .735-1.135 0-1.135-.727 0-.727 1.135 0 1.135zm43.772-39.285c.735 0 .735-1.135 0-1.135-.727 0-.735 1.135 0 1.135zm6.341-9.505c.735 0 .735-1.135 0-1.135-.727 0-.727 1.135 0 1.135zm-266.417 93.138c.735 0 .735-1.135 0-1.135s-.735 1.135 0 1.135zm9.509 11.405c.735 0 .735-1.135 0-1.135-.727 0-.727 1.135 0 1.135zm13.956 9.505c.735 0 .735-1.135 0-1.135-.727 0-.727 1.135 0 1.135zm5.077 1.271c.735 0 .735-1.135 0-1.135s-.735 1.135 0 1.135zm8.88 2.528c.735 0 .735-1.135 0-1.135-.727 0-.735 1.135 0 1.135zM504.241 91.284c.735 0 .735-1.136 0-1.136s-.735 1.136 0 1.136zm1.349 6.712c-.212.424-.424.848-.636 1.264-.137.273-.076.613.204.78.25.144.637.068.781-.205.212-.423.424-.847.636-1.263.137-.273.076-.613-.204-.78-.25-.144-.637-.068-.781.204zm1.19 8.492c.735 0 .735-1.135 0-1.135s-.735 1.135 0 1.135zm3.166 10.133c.735 0 .735-1.136 0-1.136-.727 0-.727 1.136 0 1.136zm1.273 4.435c.735 0 .735-1.135 0-1.135s-.735 1.135 0 1.135zm4.44 6.97c.734 0 .734-1.135 0-1.135-.735 0-.735 1.135 0 1.135zm2.539 3.171c.735 0 .735-1.135 0-1.135s-.735 1.135 0 1.135zm10.145 10.14c.735 0 .735-1.135 0-1.135-.727 0-.727 1.135 0 1.135zm1.902 1.901c.735 0 .735-1.135 0-1.135-.728 0-.728 1.135 0 1.135zm-1.266-9.506c.735 0 .735-1.135 0-1.135s-.735 1.135 0 1.135zm12.056 15.204c.735 0 .735-1.135 0-1.135s-.735 1.135 0 1.135zm-30.521-48.087v-.635c0-.296-.257-.583-.568-.568-.31.015-.568.25-.568.568v.635c0 .296.258.583.568.568.311-.015.568-.25.568-.568zm3.244 11.337c.735 0 .735-1.135 0-1.135s-.735 1.135 0 1.135zm4.44 8.87c.735 0 .735-1.135 0-1.135s-.735 1.135 0 1.135zm5.304 7.439l1.265 1.264c.515.515 1.319-.288.803-.802l-1.265-1.264c-.515-.515-1.318.288-.803.802zm3.576 3.337c.735 0 .735-1.135 0-1.135s-.735 1.135 0 1.135zm11.419 10.134c.735 0 .735-1.135 0-1.135s-.735 1.135 0 1.135zm8.879 6.97c.735 0 .735-1.135 0-1.135s-.735 1.135 0 1.135zm3.168 6.334c.735 0 .735-1.135 0-1.135-.728 0-.728 1.135 0 1.135zm-14.587-11.404c.735 0 .735-1.136 0-1.136-.734 0-.734 1.136 0 1.136zm-18.396-14.569c.735 0 .735-1.135 0-1.135s-.735 1.135 0 1.135zm-1.902-3.171c.734 0 .734-1.135 0-1.135-.735 0-.735 1.135 0 1.135z" fill="#000"/><path d="M509.803 115.138c-.425-.636-.849-1.264-1.266-1.9-.401-.605-1.386-.038-.985.575.425.636.849 1.264 1.266 1.9.409.605 1.394.03.985-.575zm-3.023-6.115c.735 0 .735-1.135 0-1.135s-.735 1.135 0 1.135zm0-1.9c.735 0 .735-1.135 0-1.135s-.735 1.135 0 1.135zm0-1.907c.735 0 .735-1.135 0-1.135s-.735 1.135 0 1.135zm19.661 15.84c.735 0 .735-1.135 0-1.135-.727 0-.735 1.135 0 1.135zm27.277 0c.735 0 .735-1.135 0-1.135-.727 0-.735 1.135 0 1.135zm-.402 13.145l.637.636c.212.212.598.227.803 0 .205-.227.227-.575 0-.802l-.636-.636c-.213-.212-.599-.227-.804 0-.204.227-.227.575 0 .802zm2.304 9.665c.735 0 .735-1.136 0-1.136-.728 0-.728 1.136 0 1.136zm3.174 10.14c.735 0 .735-1.135 0-1.135s-.735 1.135 0 1.135zm1.903 6.334c.735 0 .735-1.135 0-1.135s-.735 1.135 0 1.135zm6.341 10.142c.735 0 .735-1.135 0-1.135-.728 0-.728 1.135 0 1.135zm4.675 9.338l1.265 1.263c.515.515 1.318-.287.803-.802l-1.265-1.264c-.515-.522-1.318.28-.803.803zm3.576 3.966c.735 0 .735-1.136 0-1.136s-.735 1.136 0 1.136zm-3.174.635c.735 0 .735-1.135 0-1.135s-.735 1.135 0 1.135zm-6.342-12.04c.735 0 .735-1.135 0-1.135s-.735 1.135 0 1.135z" fill="#000"/><path d="M560.612 157.722c-.848-2.748-1.689-5.495-2.538-8.234-.212-.696-1.311-.401-1.099.302.849 2.748 1.69 5.495 2.539 8.234.212.697 1.31.401 1.098-.302zm-3.72-19.556c.735 0 .735-1.135 0-1.135s-.735 1.135 0 1.135zm-1.334-12.608l.637-6.97c.068-.727-1.068-.727-1.137 0l-.636 6.97c-.068.726 1.068.726 1.136 0z" fill="#000"/><path d="M554.991 120.427c.735 0 .735-1.135 0-1.135s-.735 1.135 0 1.135zm2.531 5.07c.735 0 .735-1.135 0-1.135-.727 0-.727 1.135 0 1.135zm-1.266-15.838c.735 0 .735-1.136 0-1.136s-.735 1.136 0 1.136z" fill="#000"/><path d="M556.256 109.659c.735 0 .735-1.136 0-1.136s-.735 1.136 0 1.136zm8.88 41.811c.735 0 .735-1.135 0-1.135-.727 0-.735 1.135 0 1.135zm-1.265-2.534c.734 0 .734-1.135 0-1.135-.735 0-.735 1.135 0 1.135zm10.782 17.11c.735 0 .735-1.135 0-1.135s-.735 1.135 0 1.135zm11.418 1.9c.735 0 .735-1.135 0-1.135s-.735 1.135 0 1.135zm-6.342 3.164c.735 0 .735-1.135 0-1.135s-.735 1.135 0 1.135zm4.44 4.434c.735 0 .735-1.135 0-1.135s-.735 1.135 0 1.135zm-4.44.636c.735 0 .735-1.135 0-1.135s-.735 1.135 0 1.135zm5.069-1.899c.735 0 .735-1.135 0-1.135-.727 0-.727 1.135 0 1.135zm8.251-1.265c.735 0 .735-1.135 0-1.135s-.735 1.135 0 1.135zm5.076-.635c.735 0 .735-1.135 0-1.135s-.735 1.135 0 1.135zm6.342 1.264c.735 0 .735-1.135 0-1.135s-.735 1.135 0 1.135zm11.419 14.575c.735 0 .735-1.135 0-1.135s-.735 1.135 0 1.135zm-8.88-13.939c.735 0 .735-1.135 0-1.135s-.735 1.135 0 1.135zm13.321 75.398c.735 0 .735-1.135 0-1.135s-.735 1.135 0 1.135zm-6.979-1.271c.735 0 .735-1.136 0-1.136s-.735 1.136 0 1.136zm-1.902-2.535c.735 0 .735-1.136 0-1.136s-.735 1.136 0 1.136zm-1.903-8.234c.735 0 .735-1.135 0-1.135s-.735 1.135 0 1.135zm4.442-5.07c.735 0 .735-1.135 0-1.135s-.735 1.135 0 1.135zm7.606-1.901c.735 0 .735-1.135 0-1.135-.727 0-.727 1.135 0 1.135zm-.636 8.87c.735 0 .735-1.135 0-1.135-.728 0-.728 1.135 0 1.135zm10.153-3.799c.735 0 .735-1.135 0-1.135s-.735 1.135 0 1.135zm-8.243-11.405c.735 0 .735-1.135 0-1.135s-.735 1.135 0 1.135zm-1.274-10.769c.735 0 .735-1.135 0-1.135-.727 0-.727 1.135 0 1.135zm11.418 17.74c.735 0 .735-1.135 0-1.135-.727 0-.735 1.135 0 1.135zm7.616 8.868c.735 0 .735-1.135 0-1.135-.736 0-.736 1.135 0 1.135zm12.054 11.406c.735 0 .735-1.136 0-1.136s-.735 1.136 0 1.136zm-24.109-34.85c.735 0 .735-1.135 0-1.135-.728 0-.735 1.135 0 1.135zm-5.077-19.639c.735 0 .735-1.135 0-1.135-.728 0-.728 1.135 0 1.135zm2.539-12.669c.735 0 .735-1.135 0-1.135-.728 0-.728 1.135 0 1.135zm-176.344 67.793c.735 0 .735-1.135 0-1.135s-.735 1.135 0 1.135zm-13.32-9.505c.735 0 .735-1.135 0-1.135s-.735 1.135 0 1.135zm-6.342-10.14c.735 0 .735-1.135 0-1.135s-.735 1.135 0 1.135zm-5.077-15.84c.735 0 .735-1.135 0-1.135s-.735 1.135 0 1.135zm-.637-14.568c.735 0 .735-1.136 0-1.136-.727 0-.735 1.136 0 1.136zm.637-6.97c.735 0 .735-1.135 0-1.135s-.735 1.135 0 1.135zm9.516-20.91c.735 0 .735-1.135 0-1.135s-.735 1.135 0 1.135zm9.509-2.536c.735 0 .735-1.136 0-1.136-.727 0-.727 1.136 0 1.136zm46.946-10.133c.735 0 .735-1.135 0-1.135s-.735 1.135 0 1.135zm77.391 58.287c.735 0 .735-1.135 0-1.135s-.735 1.135 0 1.135zM564.5 204.06c.735 0 .735-1.135 0-1.135-.728 0-.728 1.135 0 1.135zm-3.168-9.505c.735 0 .735-1.135 0-1.135-.734 0-.734 1.135 0 1.135zm-4.44-9.505c.735 0 .735-1.135 0-1.135s-.735 1.135 0 1.135zm-5.076-2.536c.735 0 .735-1.135 0-1.135s-.735 1.135 0 1.135zm2.539 31.051c.735 0 .735-1.135 0-1.135s-.735 1.135 0 1.135zM477.601 368.79c.735 0 .735-1.135 0-1.135s-.735 1.135 0 1.135zm3.736-14.508v-.636c0-.295-.258-.582-.569-.567-.31.015-.568.249-.568.567v.636c0 .295.258.583.568.568a.573.573 0 00.569-.568zm-5.009-24.141c.735 0 .735-1.135 0-1.135-.728 0-.735 1.135 0 1.135zm-10.146-21.539c.735 0 .735-1.135 0-1.135s-.735 1.135 0 1.135zm-19.033-19.646c.735 0 .735-1.135 0-1.135s-.735 1.135 0 1.135zm-7.614-6.962c.735 0 .735-1.136 0-1.136-.728 0-.728 1.136 0 1.136zm-10.783-3.806c.735 0 .735-1.135 0-1.135-.727 0-.734 1.135 0 1.135zm-27.913 3.17c.735 0 .735-1.135 0-1.135-.727 0-.727 1.135 0 1.135zm-10.145 0c.735 0 .735-1.135 0-1.135s-.735 1.135 0 1.135zm-10.153.636c.735 0 .735-1.136 0-1.136-.728 0-.728 1.136 0 1.136zm78.027 116.576c.735 0 .735-1.135 0-1.135s-.735 1.135 0 1.135zm-10.153 5.069c.735 0 .735-1.135 0-1.135-.728 0-.728 1.135 0 1.135zm-17.125-.635c.735 0 .735-1.135 0-1.135-.734 0-.734 1.135 0 1.135zm-28.541-6.335c.734 0 .734-1.135 0-1.135-.735 0-.735 1.135 0 1.135zm-8.887-150.796c.735 0 .735-1.136 0-1.136-.727 0-.727 1.136 0 1.136zm9.516 9.504c.735 0 .735-1.135 0-1.135-.728 0-.728 1.135 0 1.135zm12.054 0c.735 0 .735-1.135 0-1.135s-.735 1.135 0 1.135zm8.88 1.901c.735 0 .735-1.135 0-1.135-.727 0-.735 1.135 0 1.135zm6.978 1.271c.735 0 .735-1.135 0-1.135-.734 0-.734 1.135 0 1.135zm-58.357-27.244c.735 0 .735-1.135 0-1.135s-.735 1.135 0 1.135zm312.729 109.612c.735 0 .735-1.135 0-1.135s-.735 1.135 0 1.135zm-12.056 20.903c.735 0 .735-1.135 0-1.135-.727 0-.727 1.135 0 1.135zm-11.418 5.07c.735 0 .735-1.135 0-1.135-.727 0-.727 1.135 0 1.135zm138.923-115.947c.735 0 .735-1.135 0-1.135-.728 0-.735 1.135 0 1.135zm3.174 12.677c.735 0 .735-1.136 0-1.136s-.735 1.136 0 1.136zm0 7.597c.735 0 .735-1.135 0-1.135s-.735 1.135 0 1.135zm-5.478 9.172l-1.902 1.9c-.515.515.288 1.317.803.802l1.902-1.899c.515-.515-.288-1.325-.803-.803zm-4.039 5.404c.735 0 .735-1.135 0-1.135s-.735 1.135 0 1.135zm6.343-13.304c.735 0 .735-1.135 0-1.135-.728 0-.735 1.135 0 1.135zm3.174-3.171c.735 0 .735-1.135 0-1.135s-.735 1.135 0 1.135zm1.265-8.87c.735 0 .735-1.136 0-1.136-.727 0-.727 1.136 0 1.136zm-.629-4.435c.735 0 .735-1.135 0-1.135s-.735 1.135 0 1.135z" fill="#000"/><path d="M804.921 256.013c.735 0 .735-1.135 0-1.135s-.735 1.135 0 1.135zm-5.477 9.173l-2.539 3.171c-.454.567.349 1.369.804.802.848-1.06 1.689-2.112 2.538-3.171.455-.568-.349-1.378-.803-.802zm-11.653 6.031c.735 0 .735-1.135 0-1.135-.728 0-.735 1.135 0 1.135zm-9.517 10.777c.735 0 .735-1.136 0-1.136-.727 0-.727 1.136 0 1.136z" fill="#000"/><path d="M777.645 282.622c.735 0 .735-1.136 0-1.136s-.735 1.136 0 1.136zm-4.448 1.272c.735 0 .735-1.135 0-1.135-.727 0-.727 1.135 0 1.135zm-2.53-6.971c.735 0 .735-1.135 0-1.135-.736 0-.736 1.135 0 1.135zm-24.262 17.255c-3.387.847-6.766 1.687-10.153 2.535-.712.174-.409 1.271.303 1.097 3.387-.847 6.766-1.687 10.153-2.535.712-.174.409-1.271-.303-1.097zm2.69 3.655c.735 0 .735-1.135 0-1.135-.727 0-.735 1.135 0 1.135zm-12.683 6.335c.734 0 .734-1.135 0-1.135-.735 0-.735 1.135 0 1.135zm-1.91-3.172c.735 0 .735-1.135 0-1.135-.727 0-.727 1.135 0 1.135zm-5.706-19.638c.735 0 .735-1.135 0-1.135s-.735 1.135 0 1.135zm-3.174 7.598c.735 0 .735-1.135 0-1.135-.728 0-.728 1.135 0 1.135zm-8.88 10.778c.735 0 .735-1.135 0-1.135-.728 0-.728 1.135 0 1.135zm-6.342-24.082c.735 0 .735-1.135 0-1.135-.727 0-.735 1.135 0 1.135zm-15.858 7.605c.735 0 .735-1.135 0-1.135-.728 0-.735 1.135 0 1.135zm-10.782-1.899c.735 0 .735-1.135 0-1.135s-.735 1.135 0 1.135zm-5.077 3.164c.735 0 .735-1.135 0-1.135-.727 0-.735 1.135 0 1.135zm7.903-12.457c-.636-.423-1.265-.847-1.902-1.263-.613-.409-1.182.575-.575.983.636.424 1.265.848 1.901 1.264.606.401 1.182-.583.576-.984zm-11.078-3.383c.735 0 .735-1.135 0-1.135-.727 0-.727 1.135 0 1.135zm-6.341-8.869c.735 0 .735-1.135 0-1.135-.728 0-.728 1.135 0 1.135zm-2.538-12.669c.735 0 .735-1.135 0-1.135-.728 0-.728 1.135 0 1.135zm-281.011 20.91c.735 0 .735-1.135 0-1.135-.728 0-.735 1.135 0 1.135zm-2.539 0c.735 0 .735-1.135 0-1.135-.728 0-.728 1.135 0 1.135zm-12.683 12.668c.735 0 .735-1.135 0-1.135s-.735 1.135 0 1.135zm0-6.334c.735 0 .735-1.135 0-1.135s-.735 1.135 0 1.135zm0-11.404c.735 0 .735-1.135 0-1.135s-.735 1.135 0 1.135zm8.88 1.263c.735 0 .735-1.135 0-1.135s-.735 1.135 0 1.135zm225.192-158.759a4.641 4.641 0 004.644-4.639 4.641 4.641 0 00-4.644-4.639 4.642 4.642 0 00-4.645 4.639 4.642 4.642 0 004.645 4.639zm41.544 24.081a4.641 4.641 0 004.644-4.639 4.641 4.641 0 00-4.644-4.639 4.642 4.642 0 00-4.645 4.639 4.642 4.642 0 004.645 4.639zm67.017 77.647a4.642 4.642 0 004.645-4.639 4.641 4.641 0 00-4.645-4.639 4.64 4.64 0 00-4.644 4.639 4.641 4.641 0 004.644 4.639zm-34.345.916a4.641 4.641 0 004.644-4.639 4.641 4.641 0 00-4.644-4.639 4.642 4.642 0 00-4.645 4.639 4.642 4.642 0 004.645 4.639zM638.966 322.18a4.642 4.642 0 004.645-4.64 4.642 4.642 0 00-4.645-4.639 4.642 4.642 0 00-4.645 4.639c0 2.563 2.08 4.64 4.645 4.64zm-38.984-8.416a4.642 4.642 0 004.644-4.64 4.641 4.641 0 00-4.644-4.639 4.642 4.642 0 00-4.645 4.639 4.642 4.642 0 004.645 4.64zm-161.099 27.191a4.642 4.642 0 004.645-4.639 4.642 4.642 0 00-4.645-4.639 4.642 4.642 0 00-4.645 4.639 4.642 4.642 0 004.645 4.639zM318.85 277.188a4.641 4.641 0 004.644-4.639 4.641 4.641 0 00-4.644-4.639 4.642 4.642 0 00-4.645 4.639 4.642 4.642 0 004.645 4.639zm76.064 69.701a4.642 4.642 0 004.645-4.64 4.642 4.642 0 00-4.645-4.639 4.641 4.641 0 00-4.644 4.639 4.642 4.642 0 004.644 4.64zm-99.408-52.469a4.642 4.642 0 004.645-4.639 4.642 4.642 0 00-4.645-4.639 4.642 4.642 0 00-4.645 4.639 4.642 4.642 0 004.645 4.639zm224.912-98.465a6.475 6.475 0 006.478-6.471 6.475 6.475 0 00-6.478-6.47 6.475 6.475 0 00-6.479 6.47 6.475 6.475 0 006.479 6.471zm-54.236 13.092a6.475 6.475 0 006.479-6.47 6.475 6.475 0 00-6.479-6.471 6.475 6.475 0 00-6.478 6.471 6.475 6.475 0 006.478 6.47z" fill="#000"/></g><defs><clipPath id="clip0"><path fill="#fff" d="M0 0h1081v436H0z"/></clipPath></defs></svg>