<svg width="235" height="370" viewBox="0 0 235 370" fill="none" xmlns="http://www.w3.org/2000/svg">
<g clip-path="url(#clip0_1008_13682)">
<path d="M184.489 369.883C184.489 369.883 181.825 365.302 179.712 363.597C177.6 361.893 174.956 360.861 174.463 359.822C173.97 358.783 172.418 354.222 172.418 354.222L168.945 353.567L164.128 357.257L162.18 359.275L163.95 347.171L168.378 319.837L173.917 285.696L175.942 270.332L179.625 244.413L182.532 221.536L187.625 183.737L192.221 150.785L196.896 115.081L200.893 85.5054L203.445 66.5977L203.676 64.204L198.611 63.9796L202.854 25.5085L202.578 22.8567L201.542 22.8617L200.614 24.8955L194.735 65.9923L192.495 66.3512L179.547 73.0348L163.88 81.9417L156.065 87.2754L153.647 88.8519C153.647 88.8519 151.331 85.6392 148.643 84.0901C145.955 82.5411 143.185 81.3624 136.113 81.6136C129.041 81.8649 127.028 84.9606 126.845 85.3255C126.663 85.6903 125.238 89.2958 126.096 91.0517C126.953 92.8076 131.118 96.8893 131.118 96.8893L133.347 98.3299L135.663 99.5297L134.403 104.021L130.12 107.812L119.082 119.155L107.881 132.376L99.476 143.543L88.9924 158.564L79.7655 173.461L73.7887 185.023L66.4153 199.808L60.6704 213.911L55.3369 228.916L51.8112 240.97L48.0886 254.907L44.5968 270.951L42.3155 285.486L40.5948 300.406L39.7102 314.836L39.3736 326.588L39.761 331.78L33.3045 329.837L28.328 330.335L24.532 328.555L21.0067 328.039L16.5687 327.469L12.6141 327.812L9.60007 330.098L7.17266 332.53L3.34552 335.655L2.12382 337.996L184.489 369.883Z" fill="white"/>
<path d="M124.439 355.466C124.601 354.357 139.391 243.732 150.971 185.97C162.55 128.208 177.858 97.6327 178.011 97.3418L178.821 97.755C178.671 98.0555 163.415 128.496 151.863 186.165C140.311 243.834 125.489 354.487 125.341 355.598L124.439 355.466Z" fill="black"/>
<path d="M103.796 333.117C103.87 332.612 109.897 281.934 120.891 220.963C131.885 159.993 159.18 97.3755 159.448 96.7699L160.283 97.1361C160.012 97.7598 132.774 160.243 121.785 221.145C110.797 282.047 104.759 332.738 104.699 333.24L103.796 333.117Z" fill="black"/>
<path d="M183.408 110.41L178.449 97.4058L160.588 97.3466L160.592 96.4352L179.079 96.4938L184.256 110.088L183.408 110.41Z" fill="black"/>
<path d="M143.591 358.63C143.612 358.49 145.462 344.289 149.026 312.6C152.901 278.188 164.585 202.768 176.712 140.941C189.319 76.7477 199.032 63.852 199.452 63.3377L200.166 63.9027L199.807 63.6199L200.166 63.9027C200.161 63.9342 197.64 67.1953 193.625 78.3168C189.926 88.5634 184.141 107.791 177.603 141.117C165.485 202.909 153.805 278.306 149.932 312.704C146.367 344.402 144.515 358.608 144.495 358.748L143.591 358.63Z" fill="black"/>
<path d="M155.557 88.1774L154.989 87.4633C155.124 87.3587 158.434 84.7428 169.868 77.9622C181.302 71.1816 193.604 65.4859 193.728 65.4257L194.108 66.2552C193.985 66.3109 181.723 71.9847 170.333 78.7487C158.943 85.5127 155.588 88.1543 155.557 88.1774Z" fill="black"/>
<path d="M39.2229 329.956C39.1987 329.492 36.9147 282.752 55.6538 226.659C69.2695 185.928 90.0941 154.405 105.173 135.131C121.509 114.245 134.808 102.836 134.944 102.722L135.533 103.416C135.402 103.526 122.156 114.892 105.871 135.712C90.8461 154.929 70.0871 186.352 56.5189 226.947C37.8267 282.876 40.1086 329.44 40.1328 329.905L39.2229 329.956Z" fill="black"/>
<path d="M56.1147 327.34C56.1292 327.241 56.0137 316.976 57.0464 298.919C58.2167 278.976 63.2253 228.052 84.4931 186.031C105.761 144.01 122.986 120.886 126.862 117.206C130.221 114.012 133.06 111.631 139.01 110.046C144.825 108.501 153.105 108.652 153.454 108.662L153.434 109.58C153.349 109.568 144.93 109.424 139.243 110.937C133.557 112.45 130.869 114.683 127.488 117.873C125.119 120.125 108.258 141.1 85.3067 186.449C64.1161 228.32 59.1202 279.094 57.9532 298.983C56.9014 316.981 57.0022 327.221 57.0057 327.323L56.1147 327.34Z" fill="black"/>
<path d="M46.8198 338.579C46.5818 326.757 48.7513 293.239 52.2282 271.154L52.3812 270.108C55.8015 248.38 58.0572 234.021 73.869 195.716C89.7614 157.207 132.376 109.385 132.802 108.927L133.477 109.537C133.052 110.014 90.5451 157.704 74.7119 196.061C58.939 234.288 56.6882 248.583 53.277 270.248L53.1234 271.299C49.6537 293.334 47.4915 326.771 47.725 338.559L46.8198 338.579Z" fill="black"/>
<path d="M147.482 359.199C147.502 359.059 149.348 344.857 152.917 313.168C156.787 278.756 168.475 203.337 180.598 141.509C191.788 84.4598 200.724 67.9271 202.865 64.592L200.227 64.4276L200.287 63.5151L204.594 63.7855L204.034 64.4682C204.029 64.4997 201.508 67.7607 197.493 78.8823C193.794 89.1289 188.009 108.356 181.475 141.684C169.357 203.475 157.672 278.872 153.804 313.271C150.234 344.968 148.383 359.174 148.367 359.314L147.482 359.199Z" fill="black"/>
<path d="M194.115 74.1051L193.213 73.9733L200.488 24.2093C200.525 23.9568 200.782 22.76 201.454 22.3516C201.572 22.2781 201.704 22.2311 201.842 22.2139C201.98 22.1966 202.12 22.2095 202.252 22.2517C203.538 22.6471 203.474 24.0655 203.26 26.3465C203.026 28.8594 199.091 64.0314 199.053 64.3897L198.146 64.2895C198.199 63.9332 202.119 28.7682 202.351 26.2643C202.584 23.7604 202.458 23.2675 201.987 23.1204C201.96 23.1164 201.951 23.1151 201.933 23.1124C201.637 23.459 201.448 23.8844 201.39 24.3366L194.115 74.1051Z" fill="black"/>
<path d="M154.118 97.603L153.449 96.9846C153.597 96.8265 157.102 93.0692 164.874 87.8675C172.647 82.6659 181.575 77.2462 181.666 77.1905L182.576 76.6372L178.154 96.6165L177.262 96.4216L181.218 78.5252C178.74 80.0467 171.649 84.4223 165.376 88.6226C157.711 93.7524 154.152 97.5618 154.118 97.603Z" fill="black"/>
<path d="M162.122 360.749L161.22 360.618C161.297 360.094 170.019 308.11 173.201 286.342C176.384 264.574 202.816 68.0073 203.105 66.0275L204.007 66.1593C203.718 68.1391 177.284 264.71 174.101 286.487C170.918 308.265 162.207 360.228 162.122 360.749Z" fill="black"/>
<path d="M120.154 128.335L119.856 127.476C119.924 127.449 127.082 125.004 133.616 124.683C140.151 124.363 147.167 126.07 147.224 126.088L147.002 126.976C146.934 126.966 140.044 125.282 133.644 125.595C127.245 125.907 120.223 128.303 120.154 128.335Z" fill="black"/>
<path d="M111.631 141.367L111.333 140.504C111.426 140.472 120.286 137.469 128.201 137.12C133.093 136.91 137.978 137.666 142.577 139.346L142.233 140.189C137.75 138.576 132.998 137.844 128.238 138.033C120.458 138.37 111.719 141.33 111.631 141.367Z" fill="black"/>
<path d="M101.607 157.156L101.186 156.348C101.276 156.302 110.549 151.485 119.193 151.123C127.838 150.761 137.8 153.479 137.902 153.508L137.657 154.393C137.558 154.379 127.698 151.689 119.229 152.045C110.76 152.4 101.697 157.109 101.607 157.156Z" fill="black"/>
<path d="M92.6339 173.472L92.1583 172.693C92.2493 172.637 101.568 167.003 112.485 166.973C119.397 167.031 126.256 168.189 132.804 170.403L132.486 171.255C126.041 169.076 119.29 167.934 112.487 167.871C101.836 167.912 92.725 173.416 92.6339 173.472Z" fill="black"/>
<path d="M82.7191 192.791L82.0005 192.225C82.2342 191.918 87.9201 184.74 104.988 183.983C122.057 183.226 127.979 187.344 128.209 187.534L127.677 188.276C127.677 188.276 126.186 187.234 122.67 186.305C119.425 185.449 113.725 184.505 105.03 184.892C88.4287 185.639 82.7761 192.716 82.7191 192.791Z" fill="black"/>
<path d="M76.0144 210.778L75.3288 210.176C75.5727 209.894 81.5233 203.33 99.7841 202.982C118.045 202.635 123.467 206.361 123.67 206.515L123.147 207.263C123.093 207.223 117.612 203.552 99.785 203.89C90.4723 204.067 84.4991 205.934 81.1262 207.463C77.5017 209.107 76.0287 210.743 76.0144 210.778Z" fill="black"/>
<path d="M69.9644 229.239L69.246 228.673C69.4046 228.471 73.2835 223.7 90.3251 222.243C107.282 220.798 119.045 225.719 119.162 225.768L118.805 226.605C118.688 226.555 107.119 221.723 90.4039 223.153C73.6884 224.583 69.9994 229.189 69.9644 229.239Z" fill="black"/>
<path d="M64.9715 249.153L64.2285 248.63C64.3742 248.421 67.9215 243.588 83.5371 243.54C98.9639 243.492 115.434 247.143 115.599 247.177L115.4 248.069C115.233 248.044 98.863 244.403 83.5373 244.452C75.6696 244.476 71.0347 245.756 68.5345 246.828C65.8381 247.981 64.9825 249.141 64.9715 249.153Z" fill="black"/>
<path d="M61.4615 268.686L61.1494 267.83C61.2416 267.797 70.3467 264.568 85.2974 264.911C94.3887 265.127 103.432 266.295 112.28 268.395L112.049 269.282C103.27 267.196 94.2952 266.039 85.2736 265.829C70.4911 265.501 61.5486 268.657 61.4615 268.686Z" fill="black"/>
<path d="M59.2014 289.281L59.0189 288.388C59.1137 288.37 68.721 286.398 85.4388 286.999C102.157 287.601 108.702 289.437 108.972 289.518L108.718 290.402C108.655 290.393 101.985 288.524 85.406 287.916C68.8274 287.307 59.2962 289.262 59.2014 289.281Z" fill="black"/>
<path d="M58.4575 308.701L58.4947 307.786C58.8381 307.799 92.5854 309.167 105.178 311.123L105.046 312.025C92.4955 310.066 58.7964 308.714 58.4575 308.701Z" fill="black"/>
<path d="M175.409 100.532L159.459 100.57L159.461 101.482L175.411 101.444L175.409 100.532Z" fill="black"/>
<path d="M172.918 105.706L157.783 105.771L157.787 106.682L172.922 106.617L172.918 105.706Z" fill="black"/>
<path d="M170.629 111.741L154.615 111.587L154.606 112.498L170.62 112.653L170.629 111.741Z" fill="black"/>
<path d="M168.384 117.459L152.434 117.497L152.436 118.409L168.386 118.371L168.384 117.459Z" fill="black"/>
<path d="M166.482 123.894L149.922 123.755L149.914 124.666L166.474 124.806L166.482 123.894Z" fill="black"/>
<path d="M164.596 130.681L147.809 130.234L147.784 131.145L164.571 131.592L164.596 130.681Z" fill="black"/>
<path d="M162.359 137.77L144.934 137.319L144.91 138.23L162.335 138.681L162.359 137.77Z" fill="black"/>
<path d="M160.203 144.81L142.473 144.586L142.461 145.498L160.191 145.722L160.203 144.81Z" fill="black"/>
<path d="M157.927 152.141L140.105 151.906L140.093 152.818L157.915 153.052L157.927 152.141Z" fill="black"/>
<path d="M156.015 160.189L137.416 159.655L137.39 160.566L155.989 161.1L156.015 160.189Z" fill="black"/>
<path d="M154.788 165.781L135.631 165.352L135.61 166.263L154.768 166.692L154.788 165.781Z" fill="black"/>
<path d="M152.217 177.438L132.586 176.487L132.542 177.397L152.173 178.349L152.217 177.438Z" fill="black"/>
<path d="M150.433 186.234L130.229 185.467L130.194 186.378L150.398 187.145L150.433 186.234Z" fill="black"/>
<path d="M148.536 195.177L127.887 194.346L127.85 195.257L148.499 196.088L148.536 195.177Z" fill="black"/>
<path d="M146.67 204.962L125.627 203.707L125.573 204.616L146.615 205.872L146.67 204.962Z" fill="black"/>
<path d="M144.735 214.442L123.578 213.35L123.531 214.26L144.688 215.352L144.735 214.442Z" fill="black"/>
<path d="M143.152 225.125L121.611 223.53L121.544 224.439L143.084 226.034L143.152 225.125Z" fill="black"/>
<path d="M141.28 234.907L119.639 233.38L119.574 234.289L141.216 235.816L141.28 234.907Z" fill="black"/>
<path d="M139.577 245.539L117.799 243.72L117.723 244.628L139.501 246.448L139.577 245.539Z" fill="black"/>
<path d="M137.633 256.379L116.211 254.616L116.136 255.524L137.558 257.287L137.633 256.379Z" fill="black"/>
<path d="M135.797 267.875L114.516 265.767L114.426 266.674L135.707 268.782L135.797 267.875Z" fill="black"/>
<path d="M150.553 291.446L134.231 279.821L112.626 277.657L112.718 276.75L134.563 278.939L151.08 290.704L150.553 291.446Z" fill="black"/>
<path d="M132.975 289.977L111.131 287.968L111.047 288.876L132.892 290.885L132.975 289.977Z" fill="black"/>
<path d="M131.192 301.604L109.453 298.878L109.34 299.783L131.079 302.508L131.192 301.604Z" fill="black"/>
<path d="M129.581 313.679L107.768 310.855L107.651 311.759L129.464 314.583L129.581 313.679Z" fill="black"/>
<path d="M127.648 328.096L106.564 325.229L106.442 326.133L127.525 329L127.648 328.096Z" fill="black"/>
<path d="M119.894 336.217L111.6 335.004L111.468 335.906L119.762 337.119L119.894 336.217Z" fill="black"/>
<path d="M177.755 101.568L176.906 101.898L181.873 114.655L182.722 114.324L177.755 101.568Z" fill="black"/>
<path d="M175.691 107.131L174.854 107.491L180.698 121.104L181.535 120.745L175.691 107.131Z" fill="black"/>
<path d="M173.29 113.285L172.459 113.66L178.786 127.709L179.616 127.334L173.29 113.285Z" fill="black"/>
<path d="M171.542 118.9L170.709 119.269L177.695 135.055L178.529 134.686L171.542 118.9Z" fill="black"/>
<path d="M169.393 125.256L168.566 125.638L176.249 142.254L177.076 141.871L169.393 125.256Z" fill="black"/>
<path d="M167.045 132.345L166.229 132.751L174.321 149.064L175.137 148.659L167.045 132.345Z" fill="black"/>
<path d="M165.04 138.849L164.229 139.265L173.298 156.994L174.109 156.578L165.04 138.849Z" fill="black"/>
<path d="M163.143 146.237L162.33 146.648L171.589 164.951L172.402 164.539L163.143 146.237Z" fill="black"/>
<path d="M160.956 153.75L160.166 154.205L170.483 172.116L171.273 171.661L160.956 153.75Z" fill="black"/>
<path d="M158.683 161.684L157.889 162.13L168.799 181.586L169.594 181.14L158.683 161.684Z" fill="black"/>
<path d="M156.51 169.653L155.727 170.119L166.768 188.683L167.551 188.217L156.51 169.653Z" fill="black"/>
<path d="M154.594 178.389L153.824 178.876L165.442 197.252L166.212 196.765L154.594 178.389Z" fill="black"/>
<path d="M152.485 187.009L151.727 187.514L163.902 205.789L164.66 205.284L152.485 187.009Z" fill="black"/>
<path d="M150.668 196.585L149.918 197.102L162.542 215.442L163.293 214.925L150.668 196.585Z" fill="black"/>
<path d="M148.611 206.038L147.877 206.579L161.176 224.655L161.91 224.115L148.611 206.038Z" fill="black"/>
<path d="M147.002 216.316L146.291 216.885L160.004 234.018L160.715 233.449L147.002 216.316Z" fill="black"/>
<path d="M145.472 226.606L144.783 227.203L158.499 243.058L159.189 242.462L145.472 226.606Z" fill="black"/>
<path d="M143.612 236.739L142.947 237.363L156.821 252.15L157.485 251.527L143.612 236.739Z" fill="black"/>
<path d="M142.005 247.165L141.355 247.805L155.712 262.387L156.361 261.747L142.005 247.165Z" fill="black"/>
<path d="M140.35 258.3L139.727 258.965L153.745 272.132L154.369 271.468L140.35 258.3Z" fill="black"/>
<path d="M146.842 277.843L146.252 278.539L160.836 290.895L161.426 290.198L146.842 277.843Z" fill="black"/>
<path d="M135.489 291.661L134.994 292.426L149.558 301.846L150.053 301.081L135.489 291.661Z" fill="black"/>
<path d="M134.078 302.693L133.594 303.465L148.199 312.618L148.683 311.845L134.078 302.693Z" fill="black"/>
<path d="M132.183 314.249L131.775 315.064L147.479 322.919L147.887 322.103L132.183 314.249Z" fill="black"/>
<path d="M130.268 326.073L129.916 326.913L145.969 333.636L146.321 332.795L130.268 326.073Z" fill="black"/>
<path d="M128.33 336.823L128.01 337.676L144.676 343.941L144.996 343.088L128.33 336.823Z" fill="black"/>
<path d="M127.429 350.052L127.418 350.095L142.87 354.086L142.882 354.042L127.429 350.052Z" fill="black"/>
<path d="M142.065 96.5775L141.363 97.1585L150.924 108.723L151.627 108.142L142.065 96.5775Z" fill="black"/>
<path d="M139.788 109.326L138.886 109.194C138.92 108.96 139.73 103.422 140.684 101.116L141.527 101.46C140.616 103.69 139.796 109.268 139.788 109.326Z" fill="black"/>
<path d="M145.231 93.7672L141.258 105.491L142.118 105.783L146.091 94.0587L145.231 93.7672Z" fill="black"/>
<path d="M135.659 98.7235L132.918 107.522L133.788 107.793L136.529 98.9946L135.659 98.7235Z" fill="black"/>
<path d="M139.071 101.318C138.634 101.161 128.41 97.3639 126.107 91.9515C125.162 89.7267 125.129 87.6216 126.018 85.8539C127.03 83.8462 129.235 82.3076 132.074 81.6264C136.37 80.587 145.051 80.7599 149.963 84.3844C153.99 87.3589 155.64 90.2807 155.164 93.5367C154.793 96.0711 151.789 98.2297 151.66 98.3215L151.129 97.576C151.159 97.5574 153.948 95.5515 154.262 93.4049C154.526 91.601 154.319 88.7335 149.424 85.1161C144.743 81.6683 136.431 81.5173 132.285 82.514C129.708 83.1322 127.722 84.5 126.833 86.2632C126.06 87.8037 126.097 89.5963 126.947 91.5951C129.091 96.6436 139.284 100.427 139.385 100.465L139.071 101.318Z" fill="black"/>
<path d="M146.444 98.7566L146.322 97.8545C149.86 97.4463 153.436 97.5152 156.956 98.0594L156.824 98.9613C153.388 98.4322 149.897 98.3633 146.444 98.7566Z" fill="black"/>
<path d="M191.527 79.8802L187.47 75.8233L193.572 73.9518L193.841 74.8247L189.185 76.2491L192.17 79.2325L191.527 79.8802Z" fill="black"/>
<path d="M188.22 89.9398L185.646 87.325L189.907 85.0093L190.343 85.81L187.142 87.5483L188.87 89.298L188.22 89.9398Z" fill="black"/>
<path d="M180.619 196.131L179.737 195.864C183.563 182.32 186.204 168.469 187.63 154.467C189.986 131.362 186.416 120.127 186.377 120.015L187.242 119.732C187.281 119.843 190.916 131.231 188.537 154.563C187.11 168.622 184.46 182.531 180.619 196.131Z" fill="black"/>
<path d="M180.709 228.805C181.295 221.35 181.276 213.859 180.654 206.407C179.631 193.973 176.04 172.334 176 172.103L176.897 171.949C176.935 172.166 180.534 193.847 181.543 206.316C182.171 213.828 182.188 221.378 181.594 228.893L180.709 228.805Z" fill="black"/>
<path d="M168.057 275.01L167.162 274.833C167.215 274.472 174.266 238.839 175.776 223.819C177.285 208.798 173.429 186.135 173.389 185.908L174.286 185.753C174.326 185.985 178.201 208.803 176.678 223.909C175.156 239.015 168.129 274.647 168.057 275.01Z" fill="black"/>
<path d="M162.663 260.527L161.807 260.839L170.354 284.329L171.21 284.017L162.663 260.527Z" fill="black"/>
<path d="M161.65 268.613L160.805 268.954L169.68 290.995L170.525 290.654L161.65 268.613Z" fill="black"/>
<path d="M160.751 351.014L159.849 350.883C159.882 350.657 163.521 327.998 164.11 313.073C164.699 298.148 160.141 277.892 160.097 277.688L160.983 277.486C161.031 277.691 165.612 298.102 165.021 313.109C164.429 328.117 160.788 350.79 160.751 351.014Z" fill="black"/>
<path d="M158.561 281.664C157.227 288.45 156.292 295.308 155.761 302.203C154.897 313.09 155.746 323.978 157.07 334.798C157.413 337.611 157.78 340.429 158.228 343.216C158.364 344.084 159.723 343.923 159.583 343.051C158.414 335.745 157.588 328.351 157.101 320.975C156.684 315.408 156.643 309.819 156.977 304.246C157.303 299.31 157.884 294.388 158.618 289.498C158.991 286.946 159.41 284.391 159.914 281.857C160.086 280.994 158.734 280.796 158.562 281.66L158.561 281.664Z" fill="black"/>
<path d="M147.493 95.3033C146.896 91.4528 142.619 89.5242 139.167 89.2637C138.213 89.1257 137.24 89.2087 136.323 89.5066C135.519 89.8708 134.867 90.5033 134.478 91.2957C133.92 92.1664 133.703 93.2122 133.869 94.2329C133.951 94.6591 134.146 95.0557 134.432 95.3817C134.719 95.7078 135.087 95.9516 135.499 96.0879C135.666 96.1554 135.852 96.1565 136.019 96.0909C136.186 96.0254 136.321 95.8982 136.398 95.7356C136.47 95.5697 136.474 95.3819 136.408 95.2133C136.342 95.0448 136.211 94.9094 136.046 94.8367C134.447 94.3726 135.366 92.2087 136.095 91.348C136.998 90.2455 138.801 90.5413 140.042 90.7457C142.551 91.1585 145.747 92.6622 146.174 95.4789C146.305 96.3411 147.667 96.1578 147.529 95.3085L147.493 95.3033Z" fill="black"/>
<path d="M145.253 96.5375L145.149 96.5224C145.068 96.5105 145.302 96.5815 145.19 96.5283C145.159 96.5167 145.128 96.503 145.099 96.4874C145.032 96.4775 145.032 96.4131 145.131 96.492C145.087 96.4487 145.031 96.4176 144.982 96.3781C144.932 96.3386 144.982 96.3781 144.982 96.3781C144.982 96.3781 144.926 96.3148 144.915 96.2992C144.876 96.2508 144.84 96.1994 144.809 96.1455C144.721 96.0176 144.867 96.2785 144.809 96.1455C144.794 96.1184 144.781 96.0903 144.77 96.0616C144.739 95.9925 144.708 95.919 144.682 95.846C144.665 95.7709 144.644 95.697 144.618 95.6248C144.613 95.6563 144.646 95.7486 144.612 95.6608L144.588 95.5467C144.57 95.4796 144.556 95.4132 144.543 95.3467C144.53 95.2803 144.517 95.1127 144.508 94.9915C144.526 95.1785 144.491 95.1042 144.5 95.0456C144.502 95.0152 144.506 94.9851 144.513 94.9554C144.519 94.9272 144.523 94.8986 144.525 94.8697C144.535 94.8066 144.46 95.0306 144.517 94.9283C144.522 94.9078 144.526 94.8866 144.526 94.8652C144.508 94.987 144.44 94.9816 144.495 94.9205C144.55 94.8595 144.45 94.9416 144.452 94.9603C144.454 94.979 144.525 94.9065 144.535 94.8987C144.607 94.8455 144.668 94.7784 144.714 94.7013C144.76 94.6242 144.79 94.5386 144.803 94.4497C144.828 94.2704 144.782 94.0884 144.675 93.9427C144.566 93.7973 144.405 93.7008 144.226 93.6744C144.047 93.6594 143.869 93.7047 143.719 93.803C143.545 93.9214 143.401 94.0794 143.3 94.2638C143.199 94.4483 143.142 94.6542 143.136 94.8646C143.124 95.2788 143.182 95.692 143.307 96.0872C143.381 96.5298 143.588 96.9394 143.9 97.2615C144.212 97.5836 144.615 97.803 145.055 97.8904C145.234 97.9142 145.415 97.8671 145.56 97.7592C145.705 97.6514 145.802 97.4912 145.83 97.3128C145.853 97.134 145.805 96.9534 145.698 96.8088C145.59 96.6643 145.431 96.567 145.253 96.5375Z" fill="black"/>
<path d="M101.392 154.306C101.648 152.806 102.377 151.428 103.473 150.373C103.577 150.232 103.624 150.056 103.603 149.882C103.582 149.707 103.496 149.548 103.361 149.435C103.218 149.326 103.039 149.276 102.86 149.296C102.681 149.316 102.517 149.405 102.401 149.544C101.151 150.786 100.323 152.391 100.037 154.131C100.01 154.31 100.057 154.493 100.165 154.638C100.273 154.784 100.435 154.88 100.614 154.906C100.793 154.928 100.972 154.88 101.117 154.772C101.261 154.665 101.358 154.506 101.389 154.329L101.392 154.306Z" fill="black"/>
<path d="M97.0939 161.604C97.4739 160.108 98.5566 158.811 99.5632 157.594C99.6666 157.453 99.7125 157.278 99.6918 157.104C99.6711 156.93 99.5853 156.77 99.4516 156.657C99.3108 156.553 99.1361 156.507 98.9624 156.526C98.7886 156.546 98.6288 156.631 98.5151 156.764C97.3468 158.173 96.2144 159.652 95.7613 161.428C95.7363 161.607 95.783 161.789 95.891 161.934C95.9991 162.079 96.1598 162.176 96.3386 162.203C96.5174 162.226 96.698 162.178 96.8425 162.071C96.987 161.963 97.0842 161.804 97.1137 161.626L97.0939 161.604Z" fill="black"/>
<path d="M89.9596 171.321C90.29 170.279 90.8004 169.303 91.4677 168.437C92.1727 167.493 92.7994 166.492 93.3417 165.445C93.7206 164.649 92.47 164.102 92.0918 164.894C91.0601 167.07 89.2265 168.745 88.6072 171.123C88.5822 171.303 88.6289 171.485 88.7369 171.63C88.845 171.775 89.0057 171.871 89.1845 171.899C89.3631 171.92 89.543 171.872 89.6872 171.765C89.8315 171.657 89.929 171.498 89.9596 171.321Z" fill="black"/>
<path d="M85.2019 179.303C86.1629 177.601 87.1506 175.916 88.1651 174.246C88.2713 174.102 88.319 173.923 88.2989 173.745C88.2788 173.567 88.1925 173.403 88.0568 173.286C87.9147 173.174 87.7343 173.123 87.5547 173.144C87.3751 173.164 87.2106 173.254 87.097 173.395C86.0185 175.165 84.97 176.953 83.9512 178.757C83.8801 178.923 83.8774 179.11 83.9432 179.278C84.0091 179.446 84.1382 179.582 84.3031 179.656C84.4663 179.725 84.6498 179.729 84.8161 179.668C84.9825 179.607 85.1193 179.484 85.1986 179.326L85.2019 179.303Z" fill="black"/>
<path d="M82.8976 181.081C82.3103 182.808 81.5756 184.482 80.7019 186.084C80.629 186.248 80.6225 186.433 80.6839 186.601C80.7453 186.769 80.8697 186.907 81.0307 186.984C81.1945 187.054 81.3784 187.059 81.5455 186.998C81.7125 186.936 81.8503 186.814 81.9307 186.655C82.8061 185.053 83.5408 183.377 84.1268 181.647C84.1931 181.481 84.1939 181.295 84.1285 181.128C84.0631 180.961 83.9366 180.826 83.7748 180.748C83.609 180.676 83.4211 180.673 83.2527 180.739C83.0842 180.805 82.9489 180.935 82.8762 181.101L82.8976 181.081Z" fill="black"/>
<path d="M78.6173 190.929C78.1891 191.603 77.8119 192.309 77.4891 193.04C77.3475 193.378 77.2195 193.719 77.0953 194.064C77.044 194.212 76.9844 194.358 76.9167 194.499L76.8582 194.615C76.8938 194.56 76.8886 194.564 76.8582 194.615C76.8043 194.684 76.7456 194.749 76.6823 194.81C76.5715 194.953 76.5207 195.134 76.5408 195.314C76.5608 195.494 76.6503 195.659 76.79 195.775C76.934 195.883 77.1141 195.933 77.2934 195.913C77.4727 195.893 77.6377 195.805 77.7543 195.667C78.2888 195.16 78.4252 194.383 78.6974 193.718C78.9804 193.043 79.3159 192.392 79.7006 191.769C79.81 191.626 79.8598 191.446 79.8396 191.267C79.8194 191.088 79.7308 190.924 79.5923 190.809C79.4508 190.697 79.271 190.645 79.0916 190.665C78.9122 190.684 78.7476 190.773 78.6333 190.913L78.6173 190.929Z" fill="black"/>
<path d="M76.1657 197.835C75.4165 199.347 74.814 200.928 74.3661 202.555C74.3424 202.734 74.3893 202.915 74.4971 203.06C74.605 203.205 74.7652 203.302 74.9435 203.33C75.1222 203.353 75.3026 203.306 75.4471 203.198C75.5916 203.09 75.689 202.931 75.7185 202.753C76.1445 201.25 76.7124 199.79 77.4145 198.395C77.4863 198.231 77.4921 198.046 77.4308 197.879C77.3696 197.711 77.2459 197.573 77.0857 197.495C76.9188 197.426 76.7319 197.424 76.5637 197.489C76.3955 197.555 76.2589 197.683 76.1824 197.846L76.1657 197.835Z" fill="black"/>
<path d="M72.8388 205.602C72.6884 206.469 72.4816 207.325 72.2201 208.165C71.9941 208.892 71.7858 209.75 71.2684 210.329C71.1561 210.471 71.1041 210.651 71.1234 210.832C71.1427 211.012 71.2318 211.177 71.3717 211.293C71.5175 211.396 71.6974 211.441 71.8747 211.416C72.0521 211.391 72.2134 211.3 72.3256 211.16C72.9341 210.494 73.1968 209.547 73.4625 208.706C73.761 207.749 74.0002 206.775 74.1789 205.789C74.2027 205.61 74.1558 205.429 74.0479 205.284C73.9401 205.139 73.7799 205.042 73.6016 205.014C73.4226 204.99 73.2416 205.037 73.0968 205.145C72.952 205.253 72.855 205.413 72.8265 205.591L72.8388 205.602Z" fill="black"/>
<path d="M70.1669 214.626L68.6065 219.852C68.5395 220.015 68.536 220.198 68.597 220.363C68.658 220.529 68.779 220.666 68.9359 220.747C69.0993 220.82 69.2844 220.827 69.4524 220.765C69.6204 220.704 69.7578 220.579 69.8357 220.418L71.3954 215.197C71.462 215.03 71.4628 214.844 71.3976 214.676C71.3324 214.509 71.2061 214.372 71.0441 214.294C70.8775 214.223 70.6897 214.219 70.5209 214.285C70.352 214.351 70.2155 214.48 70.1409 214.645L70.1669 214.626Z" fill="black"/>
<path d="M66.9936 223.135C66.7474 224.21 66.5016 225.283 66.2562 226.353C66.1338 227.206 65.769 228.006 65.2053 228.659C65.1009 228.8 65.0543 228.975 65.0751 229.15C65.0958 229.324 65.1823 229.484 65.3169 229.596C65.4599 229.705 65.6397 229.755 65.8186 229.735C65.9975 229.715 66.1617 229.626 66.2767 229.488C67.0247 228.75 67.3276 227.716 67.5655 226.719C67.8366 225.589 68.0866 224.446 68.3493 223.31C68.3731 223.131 68.326 222.95 68.2181 222.805C68.1103 222.66 67.9503 222.563 67.772 222.535C67.5931 222.511 67.4118 222.558 67.267 222.666C67.1222 222.774 67.0254 222.934 66.9969 223.112L66.9936 223.135Z" fill="black"/>
<path d="M64.2092 232.037C63.9941 234.165 63.6363 236.276 63.1381 238.356C63.1119 238.535 63.1578 238.718 63.2661 238.863C63.3743 239.009 63.5361 239.105 63.7154 239.131C63.894 239.153 64.0739 239.105 64.2181 238.997C64.3624 238.89 64.4599 238.731 64.4905 238.554C64.9887 236.474 65.3465 234.362 65.5615 232.234C65.6475 231.363 64.2958 231.16 64.2092 232.037Z" fill="black"/>
<path d="M61.6496 241.768L60.7298 247.525C60.6026 248.395 61.955 248.593 62.0822 247.722L63.002 241.966C63.0282 241.786 62.9823 241.604 62.874 241.458C62.7658 241.313 62.604 241.217 62.4247 241.19C62.2453 241.164 62.063 241.21 61.9176 241.319C61.7723 241.427 61.6758 241.589 61.6496 241.768Z" fill="black"/>
<path d="M59.7209 250.357C59.5343 252.317 59.2163 254.262 58.7688 256.178C58.7438 256.358 58.7902 256.539 58.8982 256.685C59.0063 256.83 59.1673 256.926 59.3461 256.954C59.5248 256.976 59.7054 256.929 59.8499 256.821C59.9945 256.713 60.0916 256.554 60.1212 256.376C60.5686 254.459 60.8866 252.515 61.0733 250.555C61.0959 250.376 61.0484 250.196 60.9408 250.051C60.8331 249.907 60.6737 249.809 60.4959 249.78C60.317 249.756 60.1359 249.803 59.9912 249.911C59.8464 250.019 59.7493 250.179 59.7209 250.357Z" fill="black"/>
<path d="M58.0359 259.562L57.0371 266.395C57.0109 266.574 57.0571 266.756 57.1653 266.902C57.2736 267.047 57.4351 267.144 57.6145 267.17C57.7938 267.196 57.9762 267.15 58.1215 267.042C58.2669 266.933 58.3633 266.772 58.3895 266.592L59.3883 259.76C59.4145 259.581 59.3684 259.398 59.2601 259.253C59.1518 259.107 58.9903 259.011 58.811 258.985C58.6316 258.959 58.4493 259.005 58.3039 259.113C58.1586 259.221 58.0621 259.383 58.0359 259.562Z" fill="black"/>
<path d="M56.3021 269.779C56.1185 271.86 55.7508 273.921 55.2037 275.937C55.1774 276.117 55.2236 276.299 55.3319 276.445C55.4401 276.59 55.6016 276.687 55.781 276.713C55.9595 276.734 56.1397 276.686 56.2839 276.579C56.4282 276.471 56.5255 276.312 56.5561 276.135C57.1032 274.119 57.4708 272.058 57.6545 269.976C57.6759 269.798 57.6279 269.618 57.5205 269.473C57.413 269.329 57.2544 269.231 57.0771 269.201C56.8978 269.175 56.7154 269.221 56.5701 269.329C56.4247 269.438 56.3283 269.599 56.3021 269.779Z" fill="black"/>
<path d="M54.996 279.693L53.9647 285.645C53.815 286.512 55.1673 286.71 55.3171 285.843L56.3484 279.891C56.4988 279.019 55.1458 278.826 54.996 279.693Z" fill="black"/>
<path d="M53.68 289.095C53.1826 291.399 52.9165 293.748 52.8856 296.105C52.8653 296.283 52.9136 296.463 53.0208 296.607C53.1281 296.751 53.2862 296.848 53.4629 296.88C53.792 296.928 54.2342 296.675 54.238 296.302C54.2689 293.945 54.535 291.597 55.0324 289.293C55.0562 289.114 55.0093 288.933 54.9014 288.788C54.7936 288.643 54.6334 288.546 54.4551 288.518C54.2761 288.494 54.0949 288.541 53.9501 288.649C53.8053 288.757 53.7085 288.917 53.68 289.095Z" fill="black"/>
<path d="M52.5009 299.535C52.1262 301.783 51.8101 304.04 51.5526 306.305C51.4575 307.176 52.8093 307.378 52.905 306.503C53.1624 304.238 53.4786 301.981 53.8533 299.733C53.9805 298.862 52.6282 298.665 52.5009 299.535Z" fill="black"/>
<path d="M51.5988 309.292C51.1072 311.742 50.7906 314.223 50.6515 316.717C50.6301 316.896 50.6781 317.076 50.7855 317.22C50.893 317.364 51.0516 317.462 51.2288 317.492C51.4078 317.516 51.5891 317.469 51.7338 317.361C51.8786 317.253 51.9755 317.093 52.0039 316.915C52.143 314.42 52.4596 311.939 52.9512 309.49C53.1235 308.626 51.7705 308.433 51.5988 309.292Z" fill="black"/>
<path d="M50.6274 320.343C50.2456 322.156 50.0253 324 49.9693 325.852C49.9479 326.031 49.9959 326.211 50.1033 326.355C50.2108 326.5 50.3694 326.597 50.5466 326.628C50.7258 326.653 50.9077 326.606 51.0528 326.498C51.1979 326.39 51.2944 326.229 51.3217 326.05C51.3777 324.198 51.598 322.354 51.9798 320.541C52.0036 320.362 51.9565 320.18 51.8486 320.036C51.7408 319.891 51.5808 319.794 51.4025 319.765C51.2238 319.743 51.0432 319.79 50.8987 319.898C50.7541 320.006 50.657 320.165 50.6274 320.343Z" fill="black"/>
<path d="M1.99598 338.751C2.89153 337.227 4.05142 335.874 5.42099 334.756C6.80095 333.631 8.4475 332.951 9.49813 331.465C10.4484 330.13 11.4132 329.041 12.9617 328.401C14.3775 327.811 15.9484 327.706 17.4302 328.101C18.3539 328.365 19.1753 328.762 20.1606 328.731C21.1458 328.7 21.995 328.372 22.9612 328.629C24.7334 329.104 26.0562 330.827 27.9644 330.908C28.7664 330.9 29.5624 330.768 30.3238 330.516C31.1941 330.251 32.1169 330.208 33.0078 330.392C35.0507 330.843 37.0598 331.588 39.061 332.198C40.0438 332.499 41.1346 332.723 42.0232 333.258C42.6941 333.673 43.2015 334.307 43.4598 335.052C44.0225 336.558 43.8731 338.272 43.6824 339.829C43.5777 340.703 44.9295 340.905 45.0348 340.027C45.3805 337 45.3498 333.242 42.1344 331.772C41.1652 331.388 40.1728 331.065 39.1634 330.804L35.9007 329.816C34.8811 329.459 33.8389 329.169 32.7812 328.95C31.8416 328.829 30.8871 328.913 29.9828 329.195C29.1199 329.428 28.2158 329.724 27.338 329.398C26.4603 329.071 25.6219 328.35 24.7459 327.886C23.8648 327.389 22.8686 327.132 21.8572 327.141C21.3624 327.156 20.8754 327.274 20.383 327.335C19.8609 327.388 19.3339 327.32 18.842 327.138C17.1602 326.579 15.5484 326.297 13.7939 326.708C12.1692 327.075 10.6903 327.917 9.54511 329.127C8.80864 329.913 8.35747 330.953 7.51566 331.64C6.67385 332.328 5.73092 332.761 4.89307 333.422C3.21836 334.735 1.80832 336.354 0.737707 338.194C0.290623 338.953 1.54713 339.492 1.99224 338.746L1.99598 338.751Z" fill="black"/>
<path d="M72.289 348.133C71.2995 347.312 69.6719 345.908 70.1387 344.447C70.4193 343.567 71.3834 342.957 72.1014 342.487C72.8554 342 73.6688 341.613 74.5214 341.334C75.3096 341.076 76.1914 340.966 76.7779 340.324C77.3645 339.682 77.5434 338.552 77.6648 337.69C77.9317 335.769 77.7826 333.814 77.2276 331.956L76.9993 332.761C78.6493 331.427 80.4804 329.893 82.6985 329.775C83.5822 329.717 84.4618 329.939 85.2118 330.41C86.0746 330.997 86.3795 331.87 86.5863 332.849C86.7931 333.829 86.9496 334.837 87.5551 335.672C88.0958 336.408 88.8556 336.955 89.7257 337.233C91.5388 337.806 93.2994 337.133 94.5263 335.733C95.111 335.018 95.6138 334.24 96.0256 333.414C96.2395 333.022 96.4451 332.623 96.659 332.231C96.7847 332 97.0818 331.229 97.316 331.138C97.5501 331.048 98.3907 331.881 98.534 332.003C98.9643 332.379 99.3471 332.806 99.674 333.275C100.244 334.072 100.731 334.986 101.606 335.492C101.966 335.702 102.38 335.803 102.797 335.782C103.214 335.761 103.615 335.62 103.953 335.374C104.569 334.939 104.934 334.27 105.452 333.751C106.166 333.022 106.775 333.548 107.312 334.226C107.941 335.058 108.648 335.828 109.425 336.524C111.254 338.091 113.461 339.15 115.652 340.106C116.691 340.557 117.909 341.265 118.979 340.523C119.814 339.95 120.14 338.883 120.331 337.957L118.978 337.76C118.697 339.685 118.414 341.615 118.164 343.546C118.04 344.377 118.118 345.226 118.392 346.02C118.736 346.848 119.154 347.643 119.643 348.395C120.57 349.986 121.568 351.542 122.623 353.05C123.154 353.806 123.697 354.551 124.253 355.283C124.616 355.764 124.489 355.842 124.109 356.27L123.148 357.392C122.589 358.066 123.644 358.915 124.215 358.248L125.177 357.122C125.509 356.815 125.754 356.424 125.885 355.991C126.03 355.16 125.342 354.479 124.888 353.869C123.723 352.308 122.627 350.697 121.602 349.036C121.1 348.221 120.598 347.402 120.123 346.559C119.647 345.806 119.413 344.927 119.451 344.038C119.633 342.005 120.013 339.974 120.299 337.953C120.325 337.773 120.279 337.591 120.171 337.445C120.063 337.3 119.901 337.204 119.722 337.177C119.542 337.151 119.36 337.197 119.214 337.306C119.069 337.414 118.973 337.576 118.947 337.755C118.814 338.376 118.544 339.626 117.686 339.478C117.159 339.331 116.65 339.126 116.169 338.864C115.663 338.643 115.157 338.417 114.657 338.183C112.729 337.357 110.967 336.188 109.457 334.733C108.297 333.531 107.026 331.079 105.014 332.337C104.389 332.707 103.987 333.38 103.506 333.927C102.957 334.538 102.397 334.617 101.807 333.992C101.129 333.271 100.697 332.356 100.016 331.63C99.6334 331.22 99.2108 330.85 98.7547 330.524C98.3491 330.169 97.8619 329.921 97.3365 329.801C96.3466 329.707 95.8807 330.813 95.4815 331.529C95.0388 332.321 94.6516 333.144 94.1664 333.911C93.2791 335.32 91.8806 336.603 90.0921 335.987C89.6702 335.848 89.2853 335.615 88.9668 335.305C88.6484 334.995 88.4047 334.617 88.254 334.199C87.9035 333.226 87.8921 332.17 87.4939 331.209C86.6757 329.247 84.5246 328.37 82.4972 328.475C80.0466 328.577 77.9799 330.242 76.1523 331.72C76.0353 331.814 75.9509 331.942 75.9107 332.087C75.8706 332.232 75.8768 332.385 75.9287 332.526C76.5032 334.482 76.5653 336.553 76.1086 338.54C75.9994 339.035 75.8779 339.487 75.385 339.71C74.9867 339.859 74.5797 339.982 74.1661 340.08C73.2618 340.368 72.3954 340.764 71.5856 341.26C70.1162 342.146 68.5011 343.462 68.6829 345.368C68.8644 346.992 70.2131 348.286 71.4044 349.271C72.0823 349.83 72.9337 348.762 72.2558 348.202L72.289 348.133Z" fill="black"/>
<path d="M127.134 357.251C128.35 357.282 129.795 357.286 130.817 358.043C131.364 358.455 131.672 359.089 132.203 359.522C132.764 359.921 133.415 360.174 134.098 360.259C136.576 360.727 139.426 361.01 141.124 363.129C141.678 363.813 142.772 363.001 142.219 362.312C140.415 360.073 137.528 359.443 134.825 359.007C134.157 358.909 133.422 358.802 132.918 358.313C132.414 357.825 132.039 357.181 131.389 356.773C130.183 356.016 128.723 355.922 127.334 355.885C126.467 355.864 126.26 357.216 127.136 357.238L127.134 357.251Z" fill="black"/>
<path d="M50.1864 331.365C54.377 331.777 58.5441 332.4 62.672 333.232C64.59 333.655 66.4649 334.247 68.3769 334.71C70.156 335.206 72.0335 335.228 73.8237 334.774C74.6647 334.533 74.1502 333.265 73.3093 333.506C71.5931 334.002 69.7863 333.668 68.0907 333.236C66.1993 332.757 64.3391 332.19 62.432 331.787C58.4575 330.944 54.4141 330.477 50.3822 330.026C49.5082 329.926 49.306 331.278 50.1845 331.379L50.1864 331.365Z" fill="black"/>
<path d="M57.3158 329.183L67.068 330.567C69.8223 330.97 72.9097 331.739 75.5866 330.624C75.7483 330.552 75.8757 330.42 75.9421 330.256C76.0085 330.092 76.0088 329.908 75.9427 329.744C75.8767 329.58 75.7494 329.448 75.5879 329.376C75.4264 329.303 75.2432 329.296 75.0768 329.357C73.84 329.809 72.5095 329.944 71.2071 329.749C69.7412 329.604 68.2805 329.358 66.8238 329.15L57.5135 327.83C57.3342 327.804 57.1518 327.85 57.0065 327.958C56.8611 328.067 56.7647 328.228 56.7385 328.408C56.7122 328.587 56.7584 328.77 56.8666 328.915C56.9749 329.06 57.1364 329.157 57.3158 329.183Z" fill="black"/>
<path d="M184.286 368.13L180.925 363.719C180.449 363.031 179.93 362.373 179.371 361.751C178.801 361.251 178.122 360.891 177.388 360.701C176.719 360.475 176.108 360.106 175.597 359.619C175.086 359.133 174.687 358.54 174.43 357.883C173.935 356.603 173.955 355.146 173.028 354.053C171.289 351.998 168.013 352.514 166.1 354.012C164.97 354.982 163.981 356.106 163.163 357.35C162.265 358.676 161.19 359.874 159.967 360.909C159.613 361.193 159.246 361.462 158.865 361.71C158.587 361.944 158.257 362.106 157.903 362.182C157.471 362.207 157.025 361.888 156.637 361.739C156.251 361.592 155.853 361.481 155.446 361.409C153.802 361.139 152.116 361.517 150.743 362.462C150.018 362.955 150.834 364.051 151.559 363.558C152.143 363.16 152.804 362.89 153.499 362.765C154.194 362.641 154.907 362.664 155.592 362.835C156.254 363.001 156.835 363.408 157.51 363.516C158.236 363.573 158.956 363.348 159.521 362.889C160.775 362.089 161.902 361.104 162.863 359.969C163.796 358.875 164.56 357.647 165.478 356.537C166.395 355.428 167.359 354.537 168.713 354.186C169.752 353.915 171.049 353.952 171.853 354.756C172.776 355.683 172.714 357.213 173.165 358.375C173.642 359.594 174.496 360.629 175.602 361.329C176.287 361.689 177 361.995 177.733 362.244C178.556 362.599 179.041 363.471 179.567 364.161L183.198 368.925C183.731 369.624 184.827 368.808 184.294 368.108L184.286 368.13Z" fill="black"/>
<path d="M167.753 358.381L168.023 358.42C168.114 358.435 168.206 358.428 168.293 358.4C168.38 358.385 168.462 358.348 168.53 358.292C168.604 358.241 168.664 358.172 168.702 358.091C168.758 358.02 168.792 357.933 168.798 357.843L168.802 357.659C168.789 357.541 168.743 357.429 168.67 357.336L168.55 357.208C168.454 357.134 168.341 357.085 168.221 357.067L167.95 357.028C167.86 357.009 167.767 357.016 167.68 357.048C167.593 357.06 167.51 357.098 167.444 357.156C167.369 357.204 167.309 357.272 167.272 357.352C167.216 357.426 167.183 357.514 167.175 357.605L167.171 357.789C167.187 357.907 167.232 358.018 167.304 358.112L167.424 358.236C167.518 358.314 167.632 358.364 167.753 358.381Z" fill="black"/>
<path d="M172.105 198.723L172.195 198.773L172.042 198.681C172.21 198.785 172.366 198.908 172.504 199.048L172.38 198.924C172.513 199.061 172.628 199.214 172.723 199.38L172.635 199.228L172.7 199.349C172.769 199.513 172.898 199.646 173.06 199.719C173.143 199.756 173.233 199.775 173.324 199.777C173.414 199.778 173.504 199.761 173.588 199.727C173.67 199.695 173.745 199.647 173.809 199.586C173.872 199.525 173.923 199.452 173.958 199.371C173.996 199.288 174.016 199.197 174.018 199.106C174.019 199.014 174.002 198.923 173.967 198.838C173.844 198.569 173.678 198.323 173.475 198.108C173.362 197.98 173.237 197.861 173.103 197.754C172.961 197.647 172.81 197.553 172.652 197.472C172.569 197.434 172.477 197.42 172.386 197.433C172.296 197.424 172.204 197.439 172.122 197.477C171.958 197.544 171.826 197.671 171.752 197.833C171.715 197.917 171.695 198.007 171.694 198.098C171.692 198.19 171.709 198.281 171.743 198.366L171.832 198.517C171.9 198.614 171.994 198.69 172.103 198.736L172.105 198.723Z" fill="black"/>
<path d="M171.085 206.459C171.692 207.167 172.26 207.908 172.786 208.679C173.043 209.062 173.291 209.448 173.537 209.844C173.783 210.239 173.949 210.553 174.179 210.992C174.251 211.151 174.38 211.278 174.54 211.347C174.7 211.417 174.88 211.424 175.045 211.368C175.212 211.297 175.345 211.165 175.416 210.998C175.486 210.831 175.49 210.643 175.424 210.474C174.524 208.747 173.433 207.126 172.171 205.641C172.06 205.499 171.898 205.405 171.719 205.378C171.54 205.352 171.358 205.396 171.211 205.501C171.069 205.612 170.975 205.773 170.949 205.951C170.923 206.129 170.967 206.311 171.071 206.457L171.085 206.459Z" fill="black"/>
<path d="M169.661 215.919C170.825 217.72 172.086 219.456 173.44 221.119C173.551 221.261 173.712 221.355 173.89 221.381C174.068 221.407 174.25 221.363 174.396 221.259C174.54 221.15 174.636 220.988 174.662 220.809C174.688 220.63 174.643 220.448 174.536 220.303C173.182 218.64 171.92 216.904 170.756 215.103C170.647 214.958 170.486 214.863 170.307 214.837C170.128 214.811 169.946 214.856 169.8 214.963C169.658 215.073 169.564 215.235 169.538 215.413C169.512 215.591 169.556 215.772 169.661 215.919Z" fill="black"/>
<path d="M168.289 223.346C168.615 224.631 169.21 225.833 170.034 226.871C170.888 227.963 171.823 228.998 172.718 230.055C172.831 230.196 172.992 230.289 173.171 230.315C173.349 230.341 173.53 230.298 173.678 230.195C173.822 230.085 173.917 229.923 173.943 229.744C173.969 229.564 173.925 229.382 173.819 229.235C172.961 228.234 172.088 227.245 171.257 226.221C170.508 225.333 169.959 224.294 169.645 223.176C169.611 223.003 169.514 222.848 169.373 222.742C169.232 222.637 169.056 222.587 168.881 222.603C168.701 222.627 168.537 222.72 168.426 222.863C168.314 223.007 168.264 223.188 168.286 223.369L168.289 223.346Z" fill="black"/>
<path d="M168.369 235.554C168.987 236.006 169.57 236.502 170.114 237.039L170.298 237.227C170.235 237.158 170.298 237.227 170.339 237.266L170.426 237.361L170.798 237.775C171.061 238.077 171.306 238.385 171.534 238.698C171.643 238.842 171.804 238.937 171.983 238.964C172.162 238.99 172.344 238.944 172.489 238.837C172.632 238.727 172.726 238.566 172.752 238.388C172.778 238.209 172.734 238.028 172.629 237.881C171.671 236.584 170.522 235.439 169.221 234.486C169.078 234.375 168.898 234.325 168.719 234.345C168.54 234.365 168.375 234.455 168.261 234.594C168.152 234.737 168.102 234.917 168.122 235.096C168.142 235.275 168.231 235.439 168.369 235.554Z" fill="black"/>
<path d="M165.138 241.277C166.481 243.205 168.088 244.935 169.912 246.415C170.054 246.529 170.234 246.581 170.415 246.562C170.595 246.542 170.76 246.451 170.874 246.309C170.987 246.168 171.04 245.987 171.02 245.807C171 245.626 170.91 245.461 170.768 245.347C169.04 243.941 167.519 242.297 166.251 240.464C165.75 239.736 164.659 240.558 165.156 241.28L165.138 241.277Z" fill="black"/>
<path d="M164.46 249.128C166.145 250.253 167.722 251.534 169.168 252.953C169.309 253.057 169.484 253.104 169.659 253.083C169.833 253.063 169.993 252.976 170.105 252.841C170.208 252.7 170.253 252.524 170.232 252.351C170.212 252.177 170.126 252.018 169.994 251.904C168.547 250.49 166.971 249.214 165.288 248.093C165.145 247.984 164.965 247.934 164.786 247.954C164.607 247.974 164.443 248.063 164.328 248.201C164.216 248.343 164.164 248.523 164.184 248.702C164.203 248.882 164.292 249.047 164.432 249.161L164.46 249.128Z" fill="black"/>
<path d="M162.731 256.443C163.918 257.778 165.019 259.187 166.029 260.661C166.138 260.805 166.299 260.9 166.478 260.927C166.657 260.953 166.839 260.907 166.984 260.8C167.126 260.69 167.22 260.529 167.246 260.351C167.273 260.172 167.229 259.991 167.124 259.844C166.116 258.37 165.015 256.961 163.827 255.627C163.716 255.486 163.555 255.392 163.377 255.366C163.199 255.34 163.018 255.384 162.871 255.487C162.727 255.596 162.632 255.758 162.605 255.937C162.579 256.115 162.624 256.297 162.731 256.443Z" fill="black"/>
<path d="M184.428 128.878C182.694 142.916 181.942 157.058 182.178 171.2C182.231 175.151 182.187 179.138 181.209 182.993C180.992 183.846 182.346 184.034 182.561 183.191C183.43 179.766 183.578 176.232 183.55 172.709C183.522 169.186 183.46 165.607 183.501 162.053C183.58 155.002 183.921 147.957 184.523 140.918C184.86 136.975 185.284 133.028 185.794 129.077C185.921 128.207 184.569 128.005 184.441 128.88L184.428 128.878Z" fill="black"/>
<path d="M178.245 160.621L179.387 163.552C179.457 163.718 179.588 163.851 179.754 163.922C179.92 163.992 180.107 163.995 180.275 163.93C180.442 163.859 180.574 163.726 180.644 163.56C180.715 163.393 180.719 163.206 180.655 163.037L179.513 160.106C179.443 159.94 179.312 159.807 179.146 159.737C178.98 159.666 178.793 159.663 178.625 159.728C178.458 159.799 178.326 159.932 178.256 160.098C178.185 160.265 178.181 160.452 178.245 160.621Z" fill="black"/>
<path d="M177.445 167.731C177.879 168.291 178.283 168.875 178.654 169.479L178.912 169.917C178.974 170.027 178.89 169.881 178.908 169.944L178.966 170.049L179.097 170.289C179.262 170.608 179.422 170.931 179.569 171.28C179.639 171.446 179.771 171.579 179.937 171.65C180.103 171.72 180.29 171.723 180.458 171.658C180.618 171.587 180.745 171.459 180.814 171.298C180.884 171.138 180.89 170.957 180.833 170.792C180.211 169.429 179.434 168.142 178.516 166.957C178.407 166.813 178.246 166.718 178.067 166.691C177.888 166.665 177.706 166.711 177.56 166.818C177.418 166.928 177.324 167.089 177.298 167.268C177.272 167.446 177.316 167.627 177.42 167.774L177.445 167.731Z" fill="black"/>
<path d="M184.643 143.658L185.459 143.777C185.639 143.8 185.822 143.754 185.97 143.649C186.042 143.598 186.101 143.531 186.142 143.453C186.194 143.378 186.225 143.29 186.234 143.199C186.248 143.111 186.244 143.021 186.223 142.934C186.201 142.847 186.163 142.765 186.11 142.693C185.998 142.549 185.836 142.453 185.657 142.424L184.841 142.305C184.661 142.28 184.48 142.326 184.334 142.433C184.259 142.481 184.199 142.549 184.163 142.629C184.109 142.704 184.075 142.791 184.066 142.882C184.042 143.062 184.088 143.243 184.194 143.389C184.304 143.533 184.464 143.629 184.643 143.658Z" fill="black"/>
<path d="M184.344 151.407L185.696 151.605C185.875 151.63 186.057 151.584 186.203 151.476C186.347 151.367 186.443 151.206 186.471 151.027C186.494 150.848 186.448 150.667 186.343 150.52C186.232 150.378 186.072 150.282 185.894 150.252L184.541 150.054C184.362 150.032 184.181 150.078 184.035 150.183C183.891 150.293 183.795 150.454 183.766 150.632C183.742 150.811 183.788 150.993 183.895 151.139C184.005 151.281 184.166 151.377 184.344 151.407Z" fill="black"/>
<path d="M183.642 158.131L185.279 158.37C185.458 158.393 185.639 158.347 185.786 158.241C185.929 158.131 186.025 157.971 186.054 157.792C186.078 157.613 186.031 157.432 185.923 157.287C185.815 157.142 185.655 157.045 185.477 157.017L183.84 156.778C183.662 156.752 183.48 156.797 183.334 156.902C183.188 157.012 183.092 157.175 183.065 157.355C183.043 157.534 183.09 157.715 183.198 157.859C183.305 158.004 183.465 158.101 183.642 158.131Z" fill="black"/>
<path d="M192.495 77.3547C192.532 76.9716 192.597 76.5917 192.688 76.2177L191.769 76.2077C191.769 76.2077 191.764 76.2393 191.762 76.2528L191.78 76.131C191.778 76.1629 191.773 76.1946 191.766 76.2258L191.784 76.104C191.775 76.134 191.763 76.1631 191.749 76.1909L191.81 76.0893C191.791 76.1151 191.77 76.1398 191.748 76.1632L191.833 76.0835L191.771 76.1297L191.872 76.0708L191.803 76.1021C191.692 76.1468 191.604 76.2331 191.556 76.3424C191.532 76.398 191.518 76.458 191.517 76.5187C191.516 76.5795 191.528 76.6399 191.55 76.6962C191.595 76.8068 191.681 76.8955 191.791 76.9432C191.904 76.9861 192.029 76.9881 192.144 76.9489C192.297 76.8951 192.428 76.793 192.518 76.6581C192.634 76.4945 192.687 76.2941 192.665 76.0946C192.651 75.9853 192.598 75.8849 192.515 75.8119C192.433 75.7389 192.327 75.6982 192.217 75.6974C192.116 75.6951 192.018 75.726 191.937 75.7854L191.856 75.8657C191.805 75.9281 191.772 76.0027 191.76 76.082C191.668 76.4559 191.604 76.8359 191.566 77.219C191.553 77.3394 191.584 77.4604 191.654 77.559C191.726 77.6546 191.833 77.7181 191.951 77.7359C192.01 77.7449 192.071 77.7421 192.129 77.7277C192.187 77.7133 192.242 77.6875 192.29 77.6519C192.338 77.6159 192.378 77.5707 192.409 77.5191C192.439 77.4674 192.459 77.4102 192.468 77.3508L192.495 77.3547Z" fill="black"/>
<path d="M189.001 87.9307C189.12 87.9482 189.242 87.9175 189.339 87.8453C189.436 87.7731 189.5 87.6653 189.517 87.5457C189.535 87.426 189.504 87.3044 189.432 87.2075C189.36 87.1106 189.252 87.0463 189.132 87.0288C189.013 87.0113 188.891 87.0421 188.794 87.1143C188.697 87.1865 188.633 87.2943 188.616 87.4139C188.598 87.5335 188.629 87.6551 188.701 87.752C188.773 87.849 188.881 87.9132 189.001 87.9307Z" fill="black"/>
<path d="M151.097 96.4705L151.211 96.3858C151.26 96.3531 151.3 96.3081 151.326 96.2553C151.362 96.2047 151.384 96.1465 151.393 96.0854C151.401 96.0259 151.396 95.9652 151.377 95.9081C151.367 95.8499 151.341 95.7954 151.304 95.75L151.224 95.6646C151.162 95.6141 151.087 95.581 151.008 95.5685L150.886 95.5507C150.807 95.5597 150.733 95.5902 150.671 95.639L150.557 95.7237C150.508 95.7564 150.468 95.8014 150.441 95.8542C150.405 95.9043 150.384 95.9634 150.379 96.0248C150.367 96.0836 150.371 96.1446 150.39 96.2014C150.401 96.2596 150.426 96.3141 150.464 96.3596L150.543 96.4449C150.608 96.4945 150.684 96.5277 150.764 96.5417L150.881 96.5588C150.96 96.5498 151.035 96.5193 151.097 96.4705Z" fill="black"/>
<path d="M150.922 94.8928L151.694 94.4943C151.749 94.4739 151.799 94.44 151.838 94.3955C151.883 94.3575 151.919 94.3089 151.941 94.2541C151.966 94.1973 151.975 94.1351 151.967 94.0737C151.976 94.0137 151.965 93.9528 151.938 93.8989C151.894 93.7894 151.81 93.7011 151.702 93.6526C151.647 93.6281 151.587 93.615 151.526 93.614C151.465 93.613 151.405 93.6242 151.348 93.6469L150.577 94.0454C150.521 94.0657 150.472 94.0997 150.433 94.1442C150.388 94.1822 150.352 94.2308 150.33 94.2856C150.305 94.3424 150.296 94.4046 150.303 94.466C150.295 94.5259 150.306 94.5869 150.333 94.6408C150.377 94.7503 150.461 94.8386 150.569 94.8871C150.624 94.9116 150.684 94.9247 150.745 94.9257C150.806 94.9266 150.866 94.9155 150.922 94.8928Z" fill="black"/>
<path d="M152.387 92.0531L152.401 91.9539C152.412 91.8945 152.407 91.8332 152.386 91.7766C152.376 91.7192 152.352 91.665 152.316 91.6191C152.283 91.5686 152.237 91.5283 152.182 91.5027C152.133 91.4673 152.076 91.4448 152.016 91.4371L151.894 91.4193C151.816 91.4295 151.742 91.4599 151.679 91.5075L151.598 91.5878C151.548 91.6502 151.515 91.7248 151.502 91.8041L151.485 91.9213C151.471 91.982 151.476 92.0456 151.5 92.1032C151.509 92.1609 151.532 92.2152 151.569 92.2606C151.602 92.3099 151.647 92.3498 151.699 92.3765C151.75 92.4122 151.808 92.4336 151.87 92.4382L151.987 92.4554C152.067 92.4461 152.143 92.4158 152.207 92.3677L152.288 92.2875C152.339 92.2239 152.373 92.1476 152.385 92.0667L152.387 92.0531Z" fill="black"/>
<path d="M150.329 89.7945C150.448 89.812 150.57 89.7812 150.667 89.709C150.764 89.6368 150.828 89.529 150.845 89.4094C150.863 89.2898 150.832 89.1682 150.76 89.0712C150.688 88.9743 150.58 88.91 150.461 88.8926C150.341 88.8751 150.219 88.9058 150.123 88.9781C150.026 89.0503 149.961 89.158 149.944 89.2776C149.926 89.3972 149.957 89.5189 150.029 89.6158C150.101 89.7127 150.209 89.777 150.329 89.7945Z" fill="black"/>
<path d="M147.577 86.951C147.696 86.9685 147.818 86.9378 147.915 86.8655C148.012 86.7933 148.076 86.6856 148.093 86.566C148.111 86.4464 148.08 86.3247 148.008 86.2278C147.936 86.1309 147.828 86.0666 147.709 86.0491C147.589 86.0316 147.467 86.0624 147.371 86.1346C147.274 86.2068 147.209 86.3146 147.192 86.4342C147.174 86.5538 147.205 86.6754 147.277 86.7724C147.35 86.8693 147.457 86.9336 147.577 86.951Z" fill="black"/>
<path d="M144.956 84.1267C145.075 84.1441 145.197 84.1134 145.294 84.0412C145.391 83.969 145.455 83.8612 145.472 83.7416C145.49 83.622 145.459 83.5003 145.387 83.4034C145.315 83.3065 145.207 83.2422 145.088 83.2247C144.968 83.2072 144.846 83.238 144.749 83.3102C144.653 83.3824 144.588 83.4902 144.571 83.6098C144.553 83.7294 144.584 83.8511 144.656 83.948C144.728 84.0449 144.836 84.1092 144.956 84.1267Z" fill="black"/>
<path d="M140.946 83.7432C141.065 83.7606 141.187 83.7299 141.284 83.6577C141.381 83.5855 141.445 83.4777 141.463 83.3581C141.48 83.2385 141.449 83.1168 141.377 83.0199C141.305 82.923 141.197 82.8587 141.078 82.8412C140.958 82.8238 140.837 82.8545 140.74 82.9267C140.643 82.9989 140.579 83.1067 140.561 83.2263C140.544 83.3459 140.574 83.4676 140.646 83.5645C140.719 83.6614 140.826 83.7257 140.946 83.7432Z" fill="black"/>
<path d="M141.408 123.321L142.007 123.409C142.127 123.425 142.247 123.393 142.343 123.32C142.392 123.287 142.432 123.242 142.459 123.189C142.493 123.14 142.515 123.083 142.524 123.024C142.533 122.964 142.529 122.903 142.514 122.845C142.499 122.787 142.472 122.732 142.436 122.684C142.364 122.588 142.257 122.525 142.139 122.507L141.54 122.419C141.48 122.41 141.42 122.413 141.362 122.427C141.304 122.442 141.249 122.468 141.2 122.503C141.154 122.538 141.116 122.583 141.089 122.634C141.05 122.683 141.027 122.742 141.023 122.804C141.006 122.923 141.037 123.043 141.108 123.139C141.181 123.235 141.288 123.3 141.408 123.321Z" fill="black"/>
<path d="M144.206 119.456L146.198 119.747C146.318 119.765 146.439 119.734 146.536 119.662C146.633 119.589 146.697 119.482 146.715 119.362C146.732 119.242 146.702 119.121 146.629 119.024C146.557 118.927 146.45 118.863 146.33 118.845L144.338 118.554C144.218 118.536 144.096 118.567 143.999 118.639C143.903 118.712 143.838 118.819 143.821 118.939C143.803 119.059 143.834 119.18 143.906 119.277C143.978 119.374 144.086 119.438 144.206 119.456Z" fill="black"/>
<path d="M145.614 116.811L145.813 116.84C145.874 116.849 145.936 116.844 145.994 116.825C146.051 116.814 146.105 116.79 146.152 116.756C146.201 116.721 146.241 116.675 146.268 116.621C146.304 116.572 146.325 116.515 146.329 116.455L146.347 116.333C146.335 116.255 146.305 116.181 146.259 116.117L146.179 116.032C146.115 115.982 146.039 115.95 145.958 115.94L145.76 115.911C145.701 115.897 145.64 115.901 145.583 115.922C145.523 115.931 145.467 115.956 145.42 115.995C145.374 116.029 145.336 116.074 145.309 116.126C145.272 116.175 145.249 116.234 145.243 116.296L145.226 116.413C145.234 116.492 145.262 116.568 145.309 116.632L145.394 116.714C145.456 116.764 145.53 116.798 145.61 116.81L145.614 116.811Z" fill="black"/>
<path d="M135.36 135.463L138.547 135.929C138.667 135.946 138.788 135.916 138.885 135.843C138.982 135.771 139.046 135.663 139.064 135.544C139.081 135.424 139.05 135.302 138.978 135.206C138.906 135.109 138.798 135.044 138.679 135.027L135.492 134.561C135.372 134.544 135.251 134.574 135.154 134.646C135.057 134.719 134.993 134.826 134.975 134.946C134.958 135.066 134.988 135.187 135.061 135.284C135.133 135.381 135.24 135.445 135.36 135.463Z" fill="black"/>
<path d="M137.446 133.732L139.637 134.052C139.756 134.07 139.878 134.039 139.975 133.967C140.072 133.895 140.136 133.787 140.153 133.667C140.171 133.548 140.14 133.426 140.068 133.329C139.996 133.232 139.888 133.168 139.769 133.15L137.578 132.83C137.458 132.813 137.337 132.843 137.24 132.915C137.143 132.988 137.079 133.095 137.061 133.215C137.044 133.335 137.074 133.456 137.146 133.553C137.219 133.65 137.326 133.714 137.446 133.732Z" fill="black"/>
<path d="M138.649 129.656L138.847 129.685C138.908 129.695 138.971 129.69 139.029 129.671C139.086 129.66 139.14 129.636 139.186 129.601C139.236 129.567 139.276 129.521 139.303 129.467C139.338 129.418 139.359 129.36 139.364 129.3L139.382 129.179C139.372 129.1 139.341 129.026 139.294 128.963L139.214 128.878C139.15 128.828 139.073 128.796 138.993 128.786L138.794 128.757C138.736 128.744 138.674 128.748 138.618 128.768C138.559 128.777 138.504 128.802 138.46 128.841C138.41 128.874 138.371 128.919 138.344 128.972C138.309 129.022 138.286 129.081 138.278 129.142L138.261 129.259C138.27 129.339 138.3 129.415 138.348 129.479L138.428 129.56C138.491 129.61 138.565 129.643 138.645 129.656L138.649 129.656Z" fill="black"/>
<path d="M132.751 149.125L135.343 149.504C135.462 149.522 135.584 149.491 135.681 149.419C135.778 149.346 135.842 149.239 135.859 149.119C135.877 148.999 135.846 148.878 135.774 148.781C135.702 148.684 135.594 148.62 135.475 148.602L132.882 148.223C132.763 148.206 132.641 148.237 132.544 148.309C132.447 148.381 132.383 148.489 132.366 148.608C132.348 148.728 132.379 148.85 132.451 148.947C132.523 149.043 132.631 149.108 132.751 149.125Z" fill="black"/>
<path d="M132.569 144.824L132.966 144.882C133.027 144.894 133.089 144.889 133.148 144.867C133.205 144.857 133.259 144.833 133.305 144.798C133.353 144.763 133.391 144.716 133.417 144.663C133.456 144.616 133.479 144.558 133.483 144.497L133.501 144.375C133.492 144.298 133.463 144.224 133.417 144.161L133.332 144.079C133.27 144.029 133.195 143.995 133.116 143.983L132.719 143.925C132.658 143.911 132.595 143.916 132.537 143.94C132.48 143.948 132.425 143.972 132.38 144.009C132.331 144.042 132.291 144.087 132.264 144.139C132.228 144.19 132.207 144.249 132.202 144.31L132.185 144.432C132.198 144.509 132.228 144.583 132.273 144.647L132.353 144.728C132.417 144.78 132.493 144.813 132.574 144.825L132.569 144.824Z" fill="black"/>
<path d="M133.35 140.858L136.537 141.324C136.657 141.341 136.778 141.31 136.875 141.238C136.972 141.166 137.036 141.058 137.054 140.939C137.071 140.819 137.041 140.697 136.969 140.6C136.896 140.503 136.789 140.439 136.669 140.422L133.482 139.956C133.362 139.938 133.241 139.969 133.144 140.041C133.047 140.113 132.983 140.221 132.965 140.341C132.948 140.46 132.978 140.582 133.051 140.679C133.123 140.776 133.231 140.84 133.35 140.858Z" fill="black"/>
<path d="M123.422 164.246L126.411 164.683C126.531 164.701 126.652 164.67 126.749 164.598C126.846 164.526 126.91 164.418 126.928 164.298C126.945 164.179 126.915 164.057 126.842 163.96C126.77 163.863 126.663 163.799 126.543 163.781L123.554 163.344C123.435 163.327 123.313 163.358 123.216 163.43C123.119 163.502 123.055 163.61 123.038 163.73C123.02 163.849 123.051 163.971 123.123 164.068C123.195 164.165 123.303 164.229 123.422 164.246Z" fill="black"/>
<path d="M126.819 160.469L128.216 160.673C128.336 160.69 128.458 160.66 128.554 160.587C128.651 160.515 128.716 160.408 128.733 160.288C128.751 160.168 128.72 160.047 128.648 159.95C128.576 159.853 128.468 159.789 128.348 159.771L126.951 159.567C126.831 159.549 126.71 159.58 126.613 159.652C126.516 159.724 126.452 159.832 126.434 159.952C126.417 160.071 126.447 160.193 126.52 160.29C126.592 160.387 126.699 160.451 126.819 160.469Z" fill="black"/>
<path d="M127.46 157.499L128.253 157.615C128.313 157.624 128.373 157.62 128.432 157.605C128.49 157.59 128.545 157.563 128.593 157.527C128.688 157.455 128.752 157.349 128.77 157.23C128.779 157.171 128.776 157.111 128.762 157.052C128.747 156.994 128.721 156.939 128.686 156.891C128.612 156.796 128.504 156.733 128.385 156.714L127.591 156.598C127.532 156.589 127.472 156.591 127.414 156.606C127.355 156.62 127.3 156.646 127.252 156.682C127.204 156.718 127.164 156.763 127.133 156.814C127.103 156.866 127.083 156.923 127.075 156.983C127.058 157.101 127.088 157.221 127.159 157.317C127.195 157.366 127.24 157.407 127.291 157.439C127.343 157.47 127.4 157.491 127.46 157.499Z" fill="black"/>
<path d="M120.409 179.278L122.6 179.598C122.719 179.615 122.841 179.585 122.938 179.512C123.035 179.44 123.099 179.332 123.116 179.213C123.134 179.093 123.103 178.972 123.031 178.875C122.959 178.778 122.851 178.714 122.731 178.696L120.541 178.376C120.421 178.358 120.3 178.389 120.203 178.461C120.106 178.533 120.041 178.641 120.024 178.761C120.006 178.88 120.037 179.002 120.109 179.099C120.182 179.196 120.289 179.26 120.409 179.278Z" fill="black"/>
<path d="M122.671 174.928L124.068 175.133C124.188 175.15 124.309 175.119 124.406 175.047C124.503 174.975 124.567 174.867 124.585 174.748C124.602 174.628 124.571 174.506 124.499 174.41C124.427 174.313 124.319 174.248 124.2 174.231L122.802 174.027C122.683 174.009 122.561 174.04 122.464 174.112C122.367 174.184 122.303 174.292 122.286 174.412C122.268 174.531 122.299 174.653 122.371 174.75C122.443 174.847 122.551 174.911 122.671 174.928Z" fill="black"/>
<path d="M111.116 199.696L115.299 200.308C115.419 200.325 115.54 200.295 115.637 200.223C115.734 200.15 115.799 200.043 115.816 199.923C115.834 199.803 115.803 199.682 115.731 199.585C115.658 199.488 115.551 199.424 115.431 199.406L111.248 198.795C111.128 198.777 111.007 198.808 110.91 198.88C110.813 198.952 110.748 199.06 110.731 199.18C110.713 199.299 110.744 199.421 110.816 199.518C110.889 199.615 110.996 199.679 111.116 199.696Z" fill="black"/>
<path d="M113.444 197.596L116.829 198.091C116.949 198.108 117.071 198.077 117.168 198.005C117.264 197.933 117.329 197.825 117.346 197.705C117.364 197.586 117.333 197.464 117.261 197.367C117.189 197.27 117.081 197.206 116.961 197.189L113.576 196.694C113.456 196.676 113.335 196.707 113.238 196.779C113.141 196.851 113.077 196.959 113.059 197.079C113.042 197.198 113.072 197.32 113.145 197.417C113.217 197.514 113.324 197.578 113.444 197.596Z" fill="black"/>
<path d="M117.006 191.401L119.599 191.78C119.718 191.797 119.84 191.766 119.937 191.694C120.033 191.622 120.098 191.514 120.115 191.395C120.133 191.275 120.102 191.153 120.03 191.056C119.958 190.96 119.85 190.895 119.73 190.878L117.138 190.499C117.019 190.481 116.897 190.512 116.8 190.584C116.703 190.657 116.639 190.764 116.622 190.884C116.604 191.004 116.635 191.125 116.707 191.222C116.779 191.319 116.887 191.383 117.006 191.401Z" fill="black"/>
<path d="M107.69 218.942L112.076 219.583C112.196 219.6 112.318 219.57 112.415 219.497C112.511 219.425 112.576 219.317 112.593 219.198C112.61 219.078 112.58 218.957 112.508 218.86C112.436 218.763 112.328 218.698 112.208 218.681L107.822 218.04C107.702 218.022 107.581 218.053 107.484 218.125C107.387 218.197 107.323 218.305 107.305 218.425C107.288 218.544 107.318 218.666 107.391 218.763C107.463 218.86 107.57 218.924 107.69 218.942Z" fill="black"/>
<path d="M106.823 215.148L109.415 215.527C109.534 215.545 109.656 215.514 109.753 215.442C109.85 215.37 109.914 215.262 109.932 215.142C109.949 215.023 109.918 214.901 109.846 214.804C109.774 214.707 109.666 214.643 109.547 214.625L106.955 214.247C106.835 214.229 106.714 214.26 106.617 214.332C106.52 214.404 106.455 214.512 106.438 214.632C106.421 214.751 106.451 214.873 106.523 214.97C106.596 215.067 106.703 215.131 106.823 215.148Z" fill="black"/>
<path d="M112.426 208.847L115.212 209.254C115.332 209.271 115.454 209.241 115.55 209.168C115.647 209.096 115.712 208.988 115.729 208.869C115.747 208.749 115.716 208.628 115.644 208.531C115.571 208.434 115.464 208.369 115.344 208.352L112.558 207.945C112.439 207.927 112.317 207.958 112.22 208.03C112.123 208.102 112.059 208.21 112.041 208.33C112.024 208.449 112.055 208.571 112.127 208.668C112.199 208.765 112.307 208.829 112.426 208.847Z" fill="black"/>
<path d="M103.577 241.545L107.959 242.186C108.078 242.203 108.2 242.173 108.297 242.1C108.394 242.028 108.458 241.92 108.475 241.801C108.493 241.681 108.462 241.56 108.39 241.463C108.318 241.366 108.21 241.301 108.09 241.284L103.709 240.643C103.589 240.626 103.467 240.657 103.371 240.729C103.274 240.801 103.209 240.909 103.192 241.028C103.174 241.148 103.205 241.27 103.277 241.367C103.35 241.464 103.457 241.528 103.577 241.545Z" fill="black"/>
<path d="M103.024 236.983L105.81 237.39C105.929 237.407 106.051 237.377 106.148 237.305C106.245 237.232 106.309 237.125 106.327 237.005C106.344 236.885 106.313 236.764 106.241 236.667C106.169 236.57 106.061 236.506 105.942 236.488L103.156 236.081C103.036 236.063 102.915 236.094 102.818 236.166C102.721 236.239 102.657 236.346 102.639 236.466C102.622 236.586 102.652 236.707 102.725 236.804C102.797 236.901 102.904 236.965 103.024 236.983Z" fill="black"/>
<path d="M104.788 230.419L109.818 230.85C110.4 230.899 110.536 229.997 109.949 229.949L104.92 229.517C104.338 229.465 104.202 230.366 104.788 230.419Z" fill="black"/>
<path d="M99.3522 262.093L105.524 262.995C105.643 263.012 105.765 262.981 105.862 262.909C105.958 262.837 106.023 262.729 106.04 262.61C106.058 262.49 106.027 262.368 105.955 262.271C105.883 262.174 105.775 262.11 105.655 262.093L99.484 261.191C99.3644 261.173 99.2429 261.204 99.146 261.276C99.0491 261.348 98.9848 261.456 98.9673 261.576C98.9498 261.695 98.9806 261.817 99.0527 261.914C99.1249 262.011 99.2326 262.075 99.3522 262.093Z" fill="black"/>
<path d="M100.651 255.977L103.04 256.326C103.16 256.344 103.281 256.313 103.378 256.241C103.475 256.168 103.539 256.061 103.557 255.941C103.574 255.821 103.544 255.7 103.472 255.603C103.399 255.506 103.292 255.442 103.172 255.424L100.783 255.075C100.663 255.057 100.542 255.088 100.445 255.16C100.348 255.233 100.284 255.34 100.266 255.46C100.249 255.58 100.279 255.701 100.352 255.798C100.424 255.895 100.531 255.959 100.651 255.977Z" fill="black"/>
<path d="M102.454 250.741L104.446 251.032C104.566 251.049 104.687 251.019 104.784 250.946C104.881 250.874 104.945 250.766 104.963 250.647C104.98 250.527 104.95 250.405 104.877 250.309C104.805 250.212 104.698 250.147 104.578 250.13L102.586 249.839C102.466 249.821 102.344 249.852 102.248 249.924C102.151 249.996 102.086 250.104 102.069 250.224C102.051 250.343 102.082 250.465 102.154 250.562C102.226 250.659 102.334 250.723 102.454 250.741Z" fill="black"/>
<path d="M96.032 284.812L96.8253 284.928C96.8846 284.937 96.945 284.934 97.0032 284.92C97.0614 284.905 97.1162 284.88 97.1645 284.844C97.2124 284.808 97.2528 284.763 97.2832 284.711C97.3137 284.66 97.3337 284.602 97.342 284.543C97.3588 284.425 97.3284 284.304 97.2574 284.208C97.1837 284.112 97.0765 284.047 96.9571 284.026L96.1638 283.91C96.1042 283.902 96.0433 283.905 95.985 283.92C95.9266 283.936 95.872 283.962 95.824 283.999C95.7754 284.033 95.7344 284.077 95.7039 284.128C95.6735 284.179 95.6541 284.236 95.6471 284.295C95.6381 284.354 95.6409 284.415 95.6553 284.473C95.6697 284.531 95.6954 284.586 95.7311 284.634C95.7671 284.682 95.8122 284.723 95.8639 284.753C95.9155 284.784 95.9726 284.804 96.032 284.812Z" fill="black"/>
<path d="M99.155 278.756L102.202 278.796C102.321 278.813 102.443 278.783 102.54 278.71C102.637 278.638 102.701 278.53 102.718 278.411C102.75 278.194 102.587 277.894 102.334 277.894L99.2868 277.854C99.1673 277.836 99.0457 277.867 98.9488 277.939C98.8519 278.012 98.7876 278.119 98.7701 278.239C98.7385 278.455 98.8973 278.755 99.155 278.756Z" fill="black"/>
<path d="M100.938 272.098L101.934 272.244C101.994 272.252 102.055 272.249 102.113 272.234C102.171 272.219 102.226 272.192 102.274 272.155C102.37 272.084 102.433 271.977 102.451 271.859C102.46 271.8 102.457 271.739 102.443 271.681C102.428 271.623 102.403 271.568 102.367 271.52C102.331 271.472 102.286 271.431 102.234 271.401C102.183 271.37 102.126 271.35 102.066 271.342L101.07 271.196C100.952 271.179 100.831 271.21 100.735 271.281C100.686 271.316 100.645 271.361 100.614 271.413C100.583 271.464 100.562 271.522 100.553 271.581C100.538 271.701 100.569 271.821 100.642 271.917C100.713 272.014 100.819 272.079 100.938 272.098Z" fill="black"/>
<path d="M92.61 305.481L94.4132 305.745C94.5327 305.762 94.6543 305.731 94.7512 305.659C94.8481 305.587 94.9124 305.479 94.9299 305.36C94.9474 305.24 94.9166 305.118 94.8444 305.021C94.7723 304.924 94.6646 304.86 94.545 304.843L92.7418 304.579C92.6223 304.562 92.5007 304.592 92.4038 304.665C92.3069 304.737 92.2426 304.845 92.2251 304.964C92.2076 305.084 92.2384 305.205 92.3105 305.302C92.3827 305.399 92.4904 305.464 92.61 305.481Z" fill="black"/>
<path d="M90.567 299.89L91.9645 300.095C92.0841 300.112 92.2056 300.081 92.3025 300.009C92.3994 299.937 92.4637 299.829 92.4812 299.71C92.4987 299.59 92.468 299.468 92.3958 299.371C92.3236 299.274 92.2159 299.21 92.0964 299.193L90.6988 298.988C90.5793 298.971 90.4577 299.002 90.3608 299.074C90.2639 299.146 90.1996 299.254 90.1821 299.373C90.1646 299.493 90.1954 299.615 90.2676 299.712C90.3398 299.809 90.4474 299.873 90.567 299.89Z" fill="black"/>
<path d="M93.9205 296.516L94.5201 296.604C94.6393 296.619 94.7597 296.587 94.8553 296.514C94.9046 296.482 94.9446 296.437 94.9713 296.384C95.0057 296.335 95.0281 296.278 95.0368 296.218C95.0453 296.159 95.0418 296.098 95.0266 296.04C95.0114 295.981 94.9848 295.927 94.9483 295.879C94.8765 295.783 94.7702 295.719 94.652 295.702L94.0524 295.614C93.9328 295.599 93.812 295.629 93.7132 295.698C93.6666 295.733 93.6284 295.777 93.6019 295.829C93.5667 295.88 93.5441 295.938 93.5357 295.999C93.5189 296.117 93.5493 296.238 93.6203 296.334C93.694 296.43 93.8011 296.495 93.9205 296.516Z" fill="black"/>
<path d="M91.3697 315.277L93.3622 315.568C93.4818 315.585 93.6034 315.555 93.7003 315.482C93.7972 315.41 93.8615 315.302 93.8789 315.183C93.8964 315.063 93.8657 314.942 93.7935 314.845C93.7213 314.748 93.6136 314.683 93.4941 314.666L91.5016 314.375C91.382 314.357 91.2604 314.388 91.1635 314.46C91.0666 314.532 91.0023 314.64 90.9849 314.76C90.9674 314.879 90.9981 315.001 91.0703 315.098C91.1425 315.195 91.2502 315.259 91.3697 315.277Z" fill="black"/>
<path d="M92.3326 318.466L93.7255 318.67C93.8451 318.687 93.9666 318.657 94.0636 318.584C94.1605 318.512 94.2248 318.405 94.2422 318.285C94.2597 318.165 94.229 318.044 94.1568 317.947C94.0846 317.85 93.9769 317.786 93.8574 317.768L92.4645 317.564C92.3449 317.547 92.2233 317.578 92.1264 317.65C92.0295 317.722 91.9652 317.83 91.9477 317.949C91.9303 318.069 91.961 318.191 92.0332 318.288C92.1054 318.385 92.2131 318.449 92.3326 318.466Z" fill="black"/>
<path d="M93.0611 321.829L95.0536 322.121C95.1732 322.138 95.2948 322.107 95.3917 322.035C95.4886 321.963 95.5529 321.855 95.5703 321.736C95.5878 321.616 95.5571 321.494 95.4849 321.397C95.4127 321.3 95.305 321.236 95.1855 321.219L93.193 320.927C93.0734 320.91 92.9519 320.941 92.8549 321.013C92.758 321.085 92.6938 321.193 92.6763 321.312C92.6588 321.432 92.6895 321.554 92.7617 321.651C92.8339 321.748 92.9416 321.812 93.0611 321.829Z" fill="black"/>
<path d="M172.506 101.171C166.001 126.774 156.344 151.413 149.094 176.792C141.753 202.471 137.751 228.872 134.608 255.349C132.852 270.168 131.263 285.006 129.615 299.836C129.531 300.413 130.432 300.55 130.517 299.968C133.469 273.473 135.976 246.876 140.343 220.56C142.466 207.405 145.26 194.368 148.714 181.499C152.213 168.653 156.415 156.062 160.594 143.449C165.21 129.509 169.797 115.546 173.408 101.303C173.551 100.734 172.649 100.607 172.506 101.171Z" fill="black"/>
<path d="M177.752 123.397C175.234 137.658 172.189 151.814 168.902 165.916C165.616 180.018 162.112 193.973 158.649 207.99C155.187 222.007 151.738 236.122 148.645 250.285C145.583 264.3 142.851 278.391 140.758 292.585C138.604 306.82 137.238 321.164 136.664 335.55C136.602 337.34 136.551 339.136 136.512 340.935C136.501 341.514 137.402 341.655 137.414 341.067C137.754 326.666 138.919 312.296 140.902 298.027C142.836 283.819 145.442 269.71 148.413 255.686C151.404 241.522 154.793 227.444 158.255 213.367C161.717 199.291 165.234 185.37 168.548 171.304C171.861 157.238 175.033 143.068 177.676 128.826C178.002 127.059 178.322 125.289 178.636 123.517C178.721 122.94 177.819 122.808 177.735 123.385L177.752 123.397Z" fill="black"/>
<path d="M198.548 78.9952C196.683 92.949 194.647 106.881 192.438 120.791C191.822 124.692 191.192 128.578 190.55 132.449C190.532 132.568 190.563 132.69 190.635 132.787C190.707 132.884 190.815 132.948 190.935 132.966C191.054 132.983 191.176 132.952 191.273 132.88C191.37 132.808 191.434 132.7 191.451 132.58C193.755 118.691 195.885 104.773 197.841 90.8259C198.394 86.9149 198.929 83.0151 199.445 79.1263C199.463 79.0067 199.432 78.885 199.36 78.7881C199.288 78.6912 199.18 78.6269 199.06 78.6094C198.941 78.592 198.819 78.6227 198.722 78.6949C198.625 78.7671 198.561 78.8749 198.544 78.9945L198.548 78.9952Z" fill="black"/>
<path d="M122.787 333.982L132.385 268.326C132.402 268.206 132.371 268.085 132.299 267.988C132.227 267.891 132.119 267.827 132 267.809C131.88 267.792 131.758 267.822 131.662 267.895C131.565 267.967 131.5 268.075 131.483 268.194L121.885 333.85C121.868 333.97 121.898 334.091 121.971 334.188C122.043 334.285 122.15 334.35 122.27 334.367C122.39 334.384 122.511 334.354 122.608 334.282C122.705 334.209 122.769 334.102 122.787 333.982Z" fill="black"/>
<path d="M116.9 327.166C117.83 318.704 118.933 310.267 120.208 301.856C121.484 293.444 122.944 285.101 124.59 276.827C125.518 272.117 126.512 267.418 127.571 262.731C127.701 262.16 126.799 262.028 126.67 262.599C124.82 270.905 123.151 279.247 121.663 287.624C120.174 296.001 118.872 304.37 117.757 312.732C117.123 317.493 116.544 322.261 116.021 327.033C115.937 327.61 116.838 327.746 116.923 327.165L116.9 327.166Z" fill="black"/>
<path d="M145.452 315.661L155.67 245.761C155.687 245.642 155.656 245.52 155.584 245.423C155.512 245.326 155.404 245.262 155.285 245.244C155.165 245.227 155.044 245.258 154.947 245.33C154.85 245.402 154.786 245.51 154.768 245.629L144.55 315.529C144.532 315.649 144.563 315.77 144.635 315.867C144.708 315.964 144.815 316.028 144.935 316.046C145.054 316.063 145.176 316.033 145.273 315.96C145.37 315.888 145.434 315.78 145.452 315.661Z" fill="black"/>
<path d="M183.692 102.981C183.812 102.998 183.933 102.968 184.03 102.896C184.127 102.823 184.191 102.716 184.209 102.596C184.226 102.476 184.196 102.355 184.123 102.258C184.051 102.161 183.943 102.097 183.824 102.079C183.704 102.062 183.583 102.092 183.486 102.165C183.389 102.237 183.325 102.345 183.307 102.464C183.29 102.584 183.32 102.705 183.393 102.802C183.465 102.899 183.572 102.964 183.692 102.981Z" fill="black"/>
<path d="M183.934 99.6631C184.054 99.6806 184.175 99.6498 184.272 99.5776C184.369 99.5054 184.433 99.3976 184.451 99.278C184.468 99.1584 184.438 99.0368 184.365 98.9398C184.293 98.8429 184.186 98.7786 184.066 98.7612C183.946 98.7437 183.825 98.7744 183.728 98.8466C183.631 98.9189 183.567 99.0266 183.549 99.1462C183.532 99.2658 183.563 99.3875 183.635 99.4844C183.707 99.5813 183.815 99.6456 183.934 99.6631Z" fill="black"/>
<path d="M184.524 95.618C184.644 95.6354 184.765 95.6047 184.862 95.5325C184.959 95.4603 185.023 95.3525 185.041 95.2329C185.058 95.1133 185.027 94.9916 184.955 94.8947C184.883 94.7978 184.775 94.7335 184.656 94.716C184.536 94.6986 184.415 94.7293 184.318 94.8015C184.221 94.8737 184.157 94.9815 184.139 95.1011C184.122 95.2207 184.152 95.3424 184.225 95.4393C184.297 95.5362 184.404 95.6005 184.524 95.618Z" fill="black"/>
<path d="M184.932 92.8355C185.052 92.853 185.173 92.8222 185.27 92.75C185.367 92.6778 185.431 92.57 185.449 92.4504C185.466 92.3308 185.436 92.2092 185.363 92.1123C185.291 92.0153 185.184 91.9511 185.064 91.9336C184.945 91.9161 184.823 91.9469 184.726 92.0191C184.629 92.0913 184.565 92.199 184.547 92.3186C184.53 92.4382 184.561 92.5599 184.633 92.6568C184.705 92.7538 184.813 92.818 184.932 92.8355Z" fill="black"/>
<path d="M181.174 100.807C181.294 100.825 181.416 100.794 181.512 100.722C181.609 100.65 181.674 100.542 181.691 100.422C181.709 100.303 181.678 100.181 181.606 100.084C181.534 99.9872 181.426 99.9229 181.306 99.9054C181.187 99.888 181.065 99.9187 180.968 99.9909C180.871 100.063 180.807 100.171 180.79 100.291C180.772 100.41 180.803 100.532 180.875 100.629C180.947 100.726 181.055 100.79 181.174 100.807Z" fill="black"/>
<path d="M181.512 96.7253C181.632 96.7428 181.753 96.712 181.85 96.6398C181.947 96.5676 182.012 96.4598 182.029 96.3402C182.047 96.2206 182.016 96.099 181.944 96.002C181.871 95.9051 181.764 95.8408 181.644 95.8233C181.525 95.8059 181.403 95.8366 181.306 95.9088C181.209 95.9811 181.145 96.0888 181.127 96.2084C181.11 96.328 181.141 96.4497 181.213 96.5466C181.285 96.6435 181.393 96.7078 181.512 96.7253Z" fill="black"/>
<path d="M181.809 94.7004C181.929 94.7179 182.05 94.6871 182.147 94.6149C182.244 94.5427 182.308 94.435 182.326 94.3154C182.343 94.1958 182.313 94.0741 182.24 93.9772C182.168 93.8802 182.061 93.816 181.941 93.7985C181.821 93.781 181.7 93.8118 181.603 93.884C181.506 93.9562 181.442 94.064 181.424 94.1836C181.407 94.3032 181.438 94.4248 181.51 94.5217C181.582 94.6187 181.69 94.683 181.809 94.7004Z" fill="black"/>
<path d="M188.235 84.2815C188.355 84.299 188.476 84.2682 188.573 84.196C188.67 84.1238 188.734 84.016 188.752 83.8964C188.769 83.7768 188.738 83.6552 188.666 83.5582C188.594 83.4613 188.486 83.397 188.367 83.3796C188.247 83.3621 188.126 83.3928 188.029 83.4651C187.932 83.5373 187.868 83.645 187.85 83.7646C187.833 83.8842 187.863 84.0059 187.936 84.1028C188.008 84.1997 188.115 84.264 188.235 84.2815Z" fill="black"/>
<path d="M188.026 82.1829C188.146 82.2003 188.267 82.1696 188.364 82.0974C188.461 82.0251 188.525 81.9174 188.543 81.7978C188.56 81.6782 188.529 81.5565 188.457 81.4596C188.385 81.3627 188.277 81.2984 188.158 81.2809C188.038 81.2634 187.917 81.2942 187.82 81.3664C187.723 81.4386 187.659 81.5464 187.641 81.666C187.624 81.7856 187.654 81.9072 187.727 82.0042C187.799 82.1011 187.906 82.1654 188.026 82.1829Z" fill="black"/>
<path d="M191.592 73.667C191.712 73.6845 191.834 73.6538 191.93 73.5816C192.027 73.5093 192.092 73.4016 192.109 73.282C192.127 73.1624 192.096 73.0407 192.024 72.9438C191.951 72.8469 191.844 72.7826 191.724 72.7651C191.605 72.7476 191.483 72.7784 191.386 72.8506C191.289 72.9228 191.225 73.0306 191.208 73.1502C191.19 73.2698 191.221 73.3914 191.293 73.4884C191.365 73.5853 191.473 73.6496 191.592 73.667Z" fill="black"/>
<path d="M192.036 70.6366C192.155 70.6541 192.277 70.6233 192.374 70.5511C192.471 70.4789 192.535 70.3711 192.552 70.2515C192.57 70.1319 192.539 70.0103 192.467 69.9133C192.395 69.8164 192.287 69.7521 192.168 69.7347C192.048 69.7172 191.926 69.7479 191.83 69.8201C191.733 69.8924 191.668 70.0001 191.651 70.1197C191.633 70.2393 191.664 70.361 191.736 70.4579C191.809 70.5548 191.916 70.6191 192.036 70.6366Z" fill="black"/>
<path d="M196.811 67.977C196.931 67.9945 197.052 67.9638 197.149 67.8915C197.246 67.8193 197.31 67.7116 197.328 67.592C197.345 67.4724 197.315 67.3507 197.242 67.2538C197.17 67.1569 197.063 67.0926 196.943 67.0751C196.823 67.0576 196.702 67.0884 196.605 67.1606C196.508 67.2328 196.444 67.3406 196.426 67.4602C196.409 67.5798 196.44 67.7014 196.512 67.7984C196.584 67.8953 196.692 67.9596 196.811 67.977Z" fill="black"/>
<path d="M197.661 62.1641C197.78 62.1816 197.902 62.1508 197.999 62.0786C198.096 62.0064 198.16 61.8987 198.177 61.7791C198.195 61.6594 198.164 61.5378 198.092 61.4409C198.02 61.3439 197.912 61.2797 197.793 61.2622C197.673 61.2447 197.551 61.2755 197.455 61.3477C197.358 61.4199 197.293 61.5277 197.276 61.6473C197.258 61.7669 197.289 61.8885 197.361 61.9854C197.434 62.0824 197.541 62.1466 197.661 62.1641Z" fill="black"/>
<path d="M198.549 56.0941C198.669 56.1116 198.791 56.0808 198.887 56.0086C198.984 55.9364 199.049 55.8286 199.066 55.709C199.084 55.5894 199.053 55.4678 198.981 55.3709C198.909 55.2739 198.801 55.2097 198.681 55.1922C198.562 55.1747 198.44 55.2055 198.343 55.2777C198.246 55.3499 198.182 55.4576 198.165 55.5772C198.147 55.6969 198.178 55.8185 198.25 55.9154C198.322 56.0124 198.43 56.0766 198.549 56.0941Z" fill="black"/>
<path d="M199.325 50.7863C199.444 50.8038 199.566 50.773 199.663 50.7008C199.76 50.6286 199.824 50.5208 199.842 50.4012C199.859 50.2816 199.828 50.16 199.756 50.063C199.684 49.9661 199.576 49.9019 199.457 49.8844C199.337 49.8669 199.216 49.8977 199.119 49.9699C199.022 50.0421 198.957 50.1498 198.94 50.2694C198.922 50.389 198.953 50.5107 199.025 50.6076C199.098 50.7046 199.205 50.7688 199.325 50.7863Z" fill="black"/>
<path d="M200.137 45.2259C200.257 45.2434 200.378 45.2126 200.475 45.1404C200.572 45.0682 200.637 44.9604 200.654 44.8408C200.672 44.7212 200.641 44.5996 200.569 44.5026C200.496 44.4057 200.389 44.3414 200.269 44.324C200.15 44.3065 200.028 44.3372 199.931 44.4095C199.834 44.4817 199.77 44.5894 199.752 44.709C199.735 44.8286 199.766 44.9503 199.838 45.0472C199.91 45.1441 200.018 45.2084 200.137 45.2259Z" fill="black"/>
<path d="M198.321 59.4186C198.44 59.436 198.562 59.4053 198.659 59.3331C198.756 59.2609 198.82 59.1531 198.838 59.0335C198.855 58.9139 198.824 58.7922 198.752 58.6953C198.68 58.5984 198.572 58.5341 198.453 58.5166C198.333 58.4992 198.211 58.5299 198.114 58.6021C198.018 58.6743 197.954 58.7821 197.936 58.9017C197.919 59.0213 197.949 59.1429 198.021 59.2399C198.093 59.3368 198.201 59.4011 198.321 59.4186Z" fill="black"/>
<path d="M200.891 68.3156C201.011 68.3331 201.132 68.3023 201.229 68.2301C201.326 68.1579 201.39 68.0501 201.408 67.9305C201.425 67.8109 201.395 67.6893 201.322 67.5923C201.25 67.4954 201.143 67.4312 201.023 67.4137C200.904 67.3962 200.782 67.4269 200.685 67.4992C200.588 67.5714 200.524 67.6791 200.506 67.7987C200.489 67.9183 200.52 68.04 200.592 68.1369C200.664 68.2338 200.772 68.2981 200.891 68.3156Z" fill="black"/>
<path d="M196.522 78.7773C196.642 78.7948 196.763 78.764 196.86 78.6918C196.957 78.6196 197.021 78.5118 197.039 78.3922C197.056 78.2726 197.026 78.1509 196.953 78.054C196.881 77.9571 196.773 77.8928 196.654 77.8753C196.534 77.8579 196.413 77.8886 196.316 77.9608C196.219 78.033 196.155 78.1408 196.137 78.2604C196.12 78.38 196.15 78.5017 196.223 78.5986C196.295 78.6955 196.403 78.7598 196.522 78.7773Z" fill="black"/>
<path d="M193.356 86.3198C193.476 86.3373 193.597 86.3065 193.694 86.2343C193.791 86.1621 193.855 86.0544 193.873 85.9347C193.89 85.8151 193.859 85.6935 193.787 85.5966C193.715 85.4996 193.607 85.4354 193.488 85.4179C193.368 85.4004 193.247 85.4312 193.15 85.5034C193.053 85.5756 192.989 85.6833 192.971 85.803C192.954 85.9226 192.984 86.0442 193.057 86.1411C193.129 86.2381 193.236 86.3023 193.356 86.3198Z" fill="black"/>
<path d="M191.811 95.1308C191.931 95.1483 192.052 95.1176 192.149 95.0453C192.246 94.9731 192.31 94.8654 192.328 94.7458C192.345 94.6262 192.315 94.5045 192.242 94.4076C192.17 94.3107 192.063 94.2464 191.943 94.2289C191.823 94.2114 191.702 94.2422 191.605 94.3144C191.508 94.3866 191.444 94.4944 191.426 94.614C191.409 94.7336 191.44 94.8552 191.512 94.9522C191.584 95.0491 191.692 95.1134 191.811 95.1308Z" fill="black"/>
<path d="M187.286 108.412C187.405 108.429 187.527 108.399 187.624 108.326C187.721 108.254 187.785 108.146 187.802 108.027C187.82 107.907 187.789 107.786 187.717 107.689C187.645 107.592 187.537 107.527 187.418 107.51C187.298 107.492 187.176 107.523 187.08 107.595C186.983 107.668 186.918 107.775 186.901 107.895C186.883 108.015 186.914 108.136 186.986 108.233C187.059 108.33 187.166 108.394 187.286 108.412Z" fill="black"/>
</g>
<defs>
<clipPath id="clip0_1008_13682">
<rect width="186.463" height="346.567" fill="white" transform="translate(50.1289) rotate(8.31674)"/>
</clipPath>
</defs>
</svg>
