<svg width="127" height="156" fill="none" xmlns="http://www.w3.org/2000/svg"><path d="M61.354 120.218l.168 9.081-.073 5.702s.049 5.077 1.196 8.432c1.148 3.354 1.964 4.599 3.09 6.204 1.127 1.604 3.522 3.784 6.037 4.694 2.514.91 4.84.432 5.845-.456 1.007-.886 2.468-3.258 3.114-6.588.645-3.33.383-7.617.286-9.583-.094-1.963-1.27-10.085-1.27-10.085l-1.628-9.415-.3-1.459 9.502-4.3 5.17-3.033.289.456s.788.773 1.66 1.454c.873.68 4.45 3.319 8.511 4.553 4.065 1.235 6.234 1.575 9.173 1.702 2.935.127 5.639.256 9.172-.872 3.533-1.129 4.34-3.085 4.34-3.085l.873-2.15s.191-1.469-.022-2.255c-.213-.789-.786-2.596-1.98-3.895-1.191-1.299-3.576-2.936-5.491-3.724-1.915-.789-5.107-1.405-6.255-1.575-1.148-.17-3.873-.192-3.873-.192l-1.361-.043-3.979-6.342s-3.065-2.35-4.727-3.9c-1.66-1.55-4.035-4.094-5.798-6.352-1.767-2.258-4.824-7.166-4.824-7.166l-1.067-1.91 1.904-.867s4.489-1.31 4.748-1.36c.26-.052 3.204-.322 3.204-.322s2.547-.062 4.191.297c1.645.36 3.549 1.51 3.549 1.51l1.718 2.004s.187 3.003 2.42 5.377c2.234 2.374 4.735 2.094 5.869 1.81 1.135-.284 3.441-1.348 3.636-4.273.194-2.925-.389-5.124-1.453-6.987-1.064-1.861-3.403-4.894-5.834-6.383-2.428-1.488-6.312-3.724-8.619-4.84-2.304-1.118-6.33-2.517-8.972-3.44-2.642-.922-6.828-1.702-6.828-1.702l-2.183-.551s3.779-2.685 6.245-7.887 2.414-8.1 2.709-10.622c.294-2.523-.403-7.163-1.153-9.28-.751-2.118-1.154-2.95-1.154-2.95l1.413-4.092s1.523-4.586 6.517-6.472c4.994-1.885 5.205-1.512 6.426-1.142 1.221.37 2.522 2.099 2.522 2.099s1.567 2.071 1.435 4.859c-.133 2.787-.373 5.31-2.391 8.205-2.017 2.895-2.441 2.868-3.16 3.77-.716.903-1.672 2.045-1.488 4.462.186 2.418 1.461 4.673 3.903 6.348 2.441 1.671 6.134 3.824 6.134 3.824l3.1 1.113-.013-.513s-1.737-3.474-1.632-5.394c.106-1.92.157-3.63 1.224-5.683s3.516-5.329 3.516-5.329 1.599-2.795 2.104-4.34c.506-1.545 1.278-4.154 1.173-6.417-.106-2.264-.478-6.18-2.05-8.47-1.572-2.291-3.09-4.795-7.112-6.766-4.021-1.972-6.817-1.572-9.747-1.013-2.931.559-5.273 2.45-5.273 2.45l-4.262 3.889-2.503 2.771-.865 1.437-.45 2.58-5.346 2.47-1.41-.77s-6.795-3.008-12.543-3.653c-5.747-.646-11.363.05-16.281 1.914-4.918 1.864-8.997 5.77-8.997 5.77l-.88.7-4.4-.854-.154-.983s.154-2.458-.465-3.882c-.618-1.423-1.501-3.184-3.157-4.191-1.656-1.01-3.935-.905-5.513-.776-1.58.13-3.416.96-4.683 3.39s-1.242 6.134-1.242 6.134-.079 2.382.904 4.089c.984 1.707 2.796 2.717 3.468 4.27.673 1.553 1.424 3.754 1.192 4.918-.233 1.164.143 1.278.143 1.278l2.125-2.14 1.702-2.298.543-1.912-.192-1.893-1.229-2.245-1.701-2.123-.984-2.104.017-1.947 1.158-1.631 1.578-.403 1.194.66 1.104 1.49.543 2.544.632 3.509.402 1.367 1.964 3.332s-1.105 2.807-1.542 4.965c-.438 2.158-.332 4.402-.316 5.699.016 1.296.491 3.543.718 4.278.227.737 1.035 2.736 1.035 2.736l-.86.016s-2.33-.078-5.29-.837c-2.958-.762-4.503-1.937-4.503-1.937l-1.002-.675s-.389-2.806-1.642-4.608c-1.253-1.801-2.207-2.22-2.974-2.385-.767-.164-2.414.165-2.414.165l-.856-1.518-1.805-5.21-2.309-7.322-2.088-5.188-.659-1.364-.483-1.318 3.913.11-2.336-2.282.724-1.804.043-2.142-.545.162-2.542 1.464-1.464-1.302L8.94 8.022l-.237 1.524-.519-.46-.119 3.147-2.541 1.329-.946.664-.089.31 3.592.636-.118 2.911.324 1.405.443.724.459.148.575-1.358 1.745-2.75 1.507 3.12 1.775 4.448 1.226 3.533.991 3.103.77 2.839.562 2.363.561 2.393s-1.89 1.596-2.158 3.341c-.264 1.745-.443 2.81-.264 5.04.178 2.231 1.804 4.551 2.63 5.47.827.918 3.385 3.724 3.385 3.724l3.592 3.12s3.576 2.468 4.627 3.043c1.047.576 4.737 2.342 6.23 2.928 1.497.586 5.983 1.8 5.983 1.8l2.48.415.98 6.812 1.32 7.479 1.438 6.598 2.317 9.267 2.728 8.624 3.695 10.207 3.47 4.299z" fill="#fff"/><path d="M83.53 19.206c.94 1.817 1.975 3.738 3.755 4.748 1.78 1.01 4.521.597 5.237-1.324.46-1.237-.04-2.6-.54-3.824-.608-1.488-1.423-3.168-2.99-3.541-1.237-.294-2.512.375-3.454 1.229-.943.853-1.151 1.043-1.961 1.853 0 0-.111.102-.154.408-.044.308.108.45.108.45z" fill="#000"/><path d="M83.914 17.79c-10.252-4.92-22.547-6.241-32.883-.813-9.113 4.786-15.16 14.38-13.8 24.838C40.122 64.038 73.83 66.84 86.88 52.46c6.871-7.573 8.891-19.209 4.519-28.51-.111-.236-.46-.03-.352.205 3.812 8.108 2.656 18.004-2.35 25.348-5.98 8.775-16.964 11.89-27.152 11.211-9.683-.645-19.895-5.337-23.074-15.184-3.249-10.075 1.43-20.74 9.956-26.52 10.563-7.16 24.162-6.2 35.28-.865.237.108.442-.243.207-.354zm6.05-1.955c-.278-2.801 2.04-4.91 3.83-6.744 1.964-2.01 4.025-3.998 6.564-5.264 4.332-2.161 9.582-1.562 13.68.85 4.426 2.607 7.098 7.242 7.576 12.317.51 5.407-1.413 10.044-4.403 14.42-1.477 2.163-2.982 4.413-3.352 7.068-.397 2.858.522 5.672 1.694 8.24.108.238.456.033.351-.205-1.515-3.322-2.398-6.925-.956-10.436 1.107-2.696 3.084-4.894 4.527-7.4 2.439-4.236 3.254-9.413 2.141-14.183-1.102-4.71-4.167-8.68-8.537-10.796-3.879-1.877-8.538-2.242-12.508-.424-2.941 1.345-5.256 3.67-7.479 5.956-1.747 1.796-3.797 3.892-3.53 6.6.022.257.427.26.402 0z" fill="#000"/><path d="M92.622 20.06c.497-2.23 2.128-3.858 3.927-5.157 1.686-1.218 3.652-2.355 5.686-2.841 5.728-1.37 7.549 4.791 6.86 9.264a14.48 14.48 0 01-2.407 6.034c-1.077 1.547-2.565 2.76-3.608 4.335-1.672 2.525-.897 5.966.962 8.21 1.355 1.637 3.524 2.917 5.31 4.025a29.848 29.848 0 006.317 2.976c.248.084.354-.308.108-.391a29.881 29.881 0 01-6.612-3.182c-1.977-1.261-4.359-2.652-5.529-4.754-1.123-2.02-1.59-4.478-.308-6.522 1.116-1.775 2.809-3.101 3.955-4.86 2.074-3.184 3.049-7.486 1.952-11.192-1.064-3.6-4.148-5.283-7.749-4.154-3.68 1.156-8.354 4.073-9.256 8.097-.056.257.335.365.392.111zm-53.608 9.903c-.991-.58-2.377-2.806-2.223-3.943.157-1.137.76-2.16 1.375-3.13.662-1.04 1.437-2.123 2.601-2.526 1.164-.402 3.627.265 3.65 1.497 0 0-1.351 1.35-2.702 3.51a120.43 120.43 0 00-2.7 4.592z" fill="#000"/><path d="M39.749 21.375c.597-2.89-.543-6.483-2.704-8.508-1.207-1.132-2.755-1.456-4.367-1.51-1.831-.062-3.83-.027-5.28 1.245-2.785 2.444-3.676 7.768-2.701 11.214.543 1.912 2.063 3.098 3.262 4.586a8.744 8.744 0 011.778 3.741 8.653 8.653 0 01.037 3.3.743.743 0 01-.356.697c.092-.245-.3-.35-.392-.108-.245.668.543.792.905.327.365-.467.362-1.566.384-2.136a9.176 9.176 0 00-.284-2.601c-.451-1.759-1.44-3.158-2.652-4.473-.848-.924-1.732-1.834-2.17-3.033-.415-1.145-.466-2.43-.418-3.638.095-2.388.778-5.337 2.444-7.15 1.675-1.82 4.843-1.88 7.14-1.382 3.748.81 5.693 5.858 4.977 9.326-.046.251.343.36.397.103z" fill="#000"/><path d="M37.048 25.588c-.38-1.599-.627-3.225-.91-4.843-.214-1.229-.548-2.417-1.523-3.268-1.683-1.47-3.795-.335-4.273 1.656-.7 2.914 2.166 5.037 3.422 7.298 2.306 4.15-1.848 7.138-4.346 9.874-.176.192.11.48.286.286 1.683-1.842 3.776-3.403 4.778-5.771 1.016-2.399-.13-4.451-1.59-6.353-.908-1.18-1.948-2.404-2.186-3.922-.278-1.772 1.175-4.246 3.23-3.07 1.489.85 1.691 2.662 1.95 4.178.23 1.353.454 2.709.773 4.046.06.25.448.143.389-.111zm7.049 29.799c1.146 17.116 4.465 34.064 9.916 50.329a201.67 201.67 0 005.215 13.834c.1.238.491.132.392-.108a200.531 200.531 0 01-13.57-49.154 201.21 201.21 0 01-1.545-14.9c-.019-.26-.424-.26-.408 0zm37.311 1.591c2.471 16.948 13.118 32.279 28.13 40.525.229.127.432-.225.205-.352-14.928-8.2-25.486-23.43-27.944-40.284-.037-.254-.429-.143-.391.111zm-21.68 63.709c9.048-.067 17.669-2.917 25.68-6.965 8.71-4.403 16.945-9.869 24.757-15.703.205-.154.005-.506-.206-.352-7.565 5.651-15.525 10.934-23.92 15.277-8.188 4.238-17.01 7.268-26.311 7.338-.26.003-.26.408 0 .405zM27.916 47.53c-.148-3.392-1.026-9.04-4.71-10.49-3.77-1.486-6.493 2.558-6.912 5.764-.262 1.99-.16 4.186.648 6.047.805 1.853 2.234 3.47 3.574 4.956a41.811 41.811 0 0010.104 8.168 42.006 42.006 0 0013.79 5.01c.255.046.365-.346.109-.392-9.16-1.601-17.667-6.282-23.86-13.231-1.667-1.87-3.395-3.893-3.879-6.418-.508-2.655-.294-6.166 1.65-8.23 2.226-2.357 5.37-1.747 6.996.895 1.426 2.314 1.964 5.247 2.082 7.921.014.26.419.262.408 0z" fill="#000"/><path d="M28.092 44.802a19.905 19.905 0 0010.423 2.917c.262 0 .262-.405 0-.405-3.639 0-7.11-.972-10.218-2.863-.224-.132-.43.216-.205.351zm-7.909-8.165c-3.23-6.6-3.956-14.152-7.646-20.556-.132-.23-.454-.03-.351.205a114.471 114.471 0 017.117 21.145l.392-.108c-1.073-3.684-2.142-7.368-3.22-11.052-.994-3.4-2.469-6.306-4.365-9.29-.14-.225-.459-.03-.35.204a91.604 91.604 0 016.779 20.19c.054.254.445.145.391-.108a92.082 92.082 0 00-6.82-20.287l-.35.205c.899 1.416 1.8 2.836 2.549 4.34.853 1.716 1.386 3.528 1.92 5.357l3.071 10.55c.073.25.449.145.392-.109a114.75 114.75 0 00-7.158-21.242l-.35.205c3.686 6.404 4.415 13.956 7.646 20.557.119.232.467.027.353-.206z" fill="#000"/><path d="M8.256 17.888l-.656.542c.116.05.23.095.346.144.318-3.7.707-7.393 1.166-11.077h-.405c.16 1.567 1.502 2.528 2.569 3.55l4.845 4.64.143-.346A42.62 42.62 0 015.27 13.404l.049.37a67.868 67.868 0 014.64-2.128c.68-.281 1.37-.549 2.058-.808.575-.213 1.461-.726 2.085-.734.513-.009.47-.076.354.553-.052.278-.13.551-.219.819a8.538 8.538 0 01-.789 1.655c-.586.98-1.304 1.875-1.993 2.782-.65.862-1.296 1.74-1.785 2.71-.168.329-.284.89-.5 1.182.003.376-.103.438-.316.19a.505.505 0 01-.332-.428c-.203-.378-.238-.842-.262-1.264-.192-3.16 0-6.395.075-9.558-.126.035-.25.067-.378.103.816 1.315 1.988 2.244 3.23 3.135 1.697 1.218 3.404 2.42 5.105 3.633l.103-.378a50.516 50.516 0 01-12.297-.98l.048.37c3.544-1.548 7.309-2.904 10.361-5.34l-.338-.09c1.2 4.238-4.613 6.386-5.153 10.3.132.018.265.034.397.053.143-2.474.64-4.853 1.496-7.176-.13-.035-.259-.073-.391-.108-.319 1.396-.635 2.793-.954 4.19.133.018.265.034.397.053a45.574 45.574 0 01-.24-5.596c.005-.227-.34-.276-.397-.054a9.497 9.497 0 00.092 5.17c.054.183.346.202.391 0l.957-4.295c-.133-.019-.265-.035-.397-.054-.006.705.04 1.458.758 1.793.29.135.684.076.986.162.74.214 1.47.646 2.175.956.05-.124.105-.245.156-.37-.548-.2-2.633-.67-2.809-1.158-.175-.486 1.14-2.285 1.389-2.736l-.379-.103c.244 3.425-3.076 5.79-6.222 4.354v.351l3.016-1.47a14.8 14.8 0 01-.297-.229l-.632 4.143c-.027.187.184.357.338.198a16.955 16.955 0 002.836-3.93c.122-.23-.23-.435-.351-.206a16.495 16.495 0 01-2.771 3.847c.113.064.227.132.337.197l.632-4.144c.027-.178-.13-.31-.297-.23l-3.017 1.47c-.13.062-.135.29 0 .351 3.406 1.559 7.101-.94 6.834-4.702-.014-.189-.273-.289-.379-.103-.559 1.005-1.118 2.013-1.68 3.017-.067.122-.002.254.122.297 1.072.392 2.145.784 3.22 1.175.213.079.367-.278.156-.37-1.05-.461-3.73-1.118-3.719-2.563.003-.224-.348-.28-.397-.054l-.956 4.295h.391a9.081 9.081 0 01-.091-4.954c-.133-.019-.265-.035-.397-.054a45.044 45.044 0 00.24 5.596c.022.211.343.295.397.054.319-1.396.635-2.792.954-4.189.059-.256-.303-.35-.392-.108a25.105 25.105 0 00-1.51 7.285c-.014.224.367.28.397.054.548-3.973 6.415-6.064 5.153-10.515-.046-.16-.221-.181-.337-.09-3.017 2.41-6.774 3.747-10.277 5.276-.16.07-.114.337.048.37a51.004 51.004 0 0012.406.996c.21-.008.264-.262.102-.378-1.44-1.023-2.876-2.047-4.316-3.07-1.45-1.032-2.92-2.016-3.876-3.555-.105-.17-.372-.1-.378.103a311.003 311.003 0 00-.089 7.937c.003 1.367-.227 3.315 1.235 4.036.113.056.264.013.297-.122 1.004-4.067 5.437-6.544 5.577-10.912.005-.126-.132-.235-.257-.194a68.321 68.321 0 00-9.582 3.94c-.162.082-.108.322.048.37a43.214 43.214 0 0011.104 1.95c.175.009.267-.226.143-.345-1.243-1.188-2.485-2.38-3.727-3.568C11.51 10.714 9.285 9.215 9.11 7.5c-.027-.262-.373-.26-.405 0-.46 3.684-.849 7.376-1.167 11.076-.017.192.224.243.345.143.22-.18.438-.361.657-.542.202-.17-.084-.454-.284-.29zm2.725-14.267c-.056.003.008-3.146.011-3.425.006-.261-.4-.261-.405 0-.013.732-.024 1.464-.038 2.196-.005.36-.148 1 .114 1.31.31.368.724-.002.559-.391-.027-.062-.11-.103-.176-.1l-.07.002c-.254.011-.254.416.005.408zm-3.913.068L5.504 1.315c-.143-.216-.494-.014-.351.205l1.564 2.374c.143.216.494.014.35-.205zM4.28 7.9a4.629 4.629 0 00-2.193-.975c-.254-.04-.364.35-.108.391a4.24 4.24 0 012.015.87c.203.162.489-.124.286-.286zm-2.363 5.07L.094 14.151c-.219.14-.016.492.205.351l1.823-1.183c.216-.143.014-.494-.205-.35zm-.307 5.201c-.503.403-1.008.802-1.51 1.205-.203.162.083.448.286.286.502-.402 1.007-.802 1.51-1.205.205-.162-.084-.445-.287-.286zm2.951 2.782l-.904 2.412c-.092.243.3.351.391.108l.905-2.412c.092-.246-.3-.351-.392-.108zm3.917 2.05a3.208 3.208 0 00.035 2.912c.119.232.47.027.35-.206a2.766 2.766 0 01-.034-2.5c.11-.236-.238-.44-.351-.206zm6.058-18.741l1.207-1.208c.184-.183-.103-.47-.286-.286l-1.208 1.207c-.183.184.103.47.287.287zm2.401 2.098a2.733 2.733 0 012.28-.821c.259.024.256-.381 0-.405a3.133 3.133 0 00-2.566.94c-.184.186.102.472.286.286zm1.796 3.382a2.093 2.093 0 011.648-.349c.253.051.364-.338.108-.392a2.51 2.51 0 00-1.961.39c-.214.148-.011.5.205.35zm-.823 5.102c.2.1.402.2.602.302.232.116.437-.232.205-.35-.2-.1-.403-.2-.602-.303-.235-.114-.44.235-.206.35zm39.638 99.445a101.998 101.998 0 0044.589-19.366c.206-.157.003-.508-.205-.351a101.788 101.788 0 01-44.495 19.325c-.251.043-.143.435.111.392zm26.75-59.572c8.559 1.432 16.816 4.433 24.254 8.91 3.798 2.288 7.274 5.06 8.843 9.354.759 2.08 1.277 4.678.402 6.793-.778 1.88-2.644 2.774-4.616 2.706-5.088-.175-6.846-5.645-6.711-9.928.008-.262-.397-.26-.405 0-.117 3.689.958 8.186 4.694 9.793 3.038 1.307 6.874.203 7.697-3.257 1.005-4.216-1.428-9.04-4.375-11.911-3.517-3.425-8.295-5.791-12.735-7.768a69.901 69.901 0 00-16.94-5.086c-.257-.04-.367.351-.108.394z" fill="#000"/><path d="M87.696 74.102c2.841-1.391 5.917-2.196 9.083-2.299 2.836-.091 6.282.12 8.367 2.29.181.19.467-.097.287-.286-2.064-2.15-5.364-2.45-8.187-2.42-3.395.038-6.712.873-9.756 2.364-.232.113-.027.464.206.35zm5.261 36.287c6.347 5.599 14.99 7.762 23.317 7.311 3.649-.197 8.038-.996 9.864-4.602 1.739-3.433-.332-7.271-3.147-9.367-4.057-3.022-9.577-4.176-14.547-4.143-.259.003-.262.408 0 .405 5.116-.032 11.214 1.196 15.131 4.732 1.936 1.747 3.297 4.451 2.611 7.101-.688 2.657-3.225 4.246-5.728 4.902-4.546 1.191-9.896.767-14.434-.262-4.716-1.067-9.148-3.158-12.783-6.364-.192-.17-.481.114-.284.287zm-31.795 10.414c.686 10.188-2.17 22.961 6.15 30.91 2.83 2.703 8.089 5.021 11.244 1.509 1.472-1.639 1.98-3.921 2.285-6.039.424-2.93.507-5.901.367-8.856-.338-7.163-1.861-14.239-3.128-21.278-.046-.257-.437-.149-.391.108 1.018 5.65 2.169 11.303 2.784 17.016.551 5.113.921 10.901-.661 15.873-.846 2.655-2.758 4.692-5.724 4.535-2.45-.13-4.75-1.494-6.49-3.155-3.217-3.073-4.886-7.508-5.548-11.83-.95-6.215-.062-12.543-.483-18.793-.019-.259-.424-.259-.405 0zM54.01 44.505c.24.367.961.848 1.342 1.145.39.303.8.573 1.234.802 1.048.554 2.199.9 3.369 1.08 2.827.433 5.68-.134 8.45-.685.257-.052.15-.44-.107-.392-3.779.748-7.92 1.52-11.506-.354a7.918 7.918 0 01-1.913-1.412c-.189-.19-.532-.716-.893-.675-.379.043-.514.405-.325.696.14.216.492.014.349-.205zm34.272 27.35a12.01 12.01 0 01-1.33-2.669c-.086-.246-.477-.14-.39.108.34.978.796 1.902 1.368 2.766.146.213.497.01.352-.205zm1.18-1.318l-.43-1.816c-.059-.253-.45-.145-.391.108l.43 1.816c.061.253.45.145.391-.108zm2.515.062c-.003.132 0 .262.005.394.01.26.4.262.405 0 .01-.597-.219-1.159-.232-1.753-.006-.26-.41-.262-.405 0 .013.594.243 1.159.232 1.753h.405a6.327 6.327 0 01-.005-.394c.005-.262-.4-.262-.406 0zm2.893-.227v-1.81c0-.262-.406-.262-.406 0v1.81c0 .26.405.26.405 0zm3.36-.178l.223-1.132c.052-.254-.34-.365-.391-.108-.076.378-.149.754-.224 1.132-.05.256.34.364.391.108zm2.508.405c-.01-.381.138-.713.424-.965.198-.172-.091-.459-.286-.286a1.61 1.61 0 00-.543 1.25c.006.26.411.26.405 0zm2.22.54l.23-.451c.119-.232-.232-.438-.351-.205l-.23.45c-.118.233.233.438.351.206zm2.026.672c-.094-.075-.14-.25-.021-.332.213-.148.01-.5-.206-.35-.313.215-.378.72-.059.969.086.067.202.083.286 0 .073-.07.087-.22 0-.287zm-61.019-7.195c-.151-.302-.303-.602-.451-.905-.116-.232-.467-.027-.351.206.151.302.302.602.45.904.117.233.468.027.352-.205zm-1.823-.394c-.219-.832-.435-1.664-.654-2.493-.065-.251-.456-.146-.391.108.218.832.434 1.664.653 2.493.068.251.457.143.392-.108zm-2.679-.689l-.678-2.034c-.081-.245-.473-.14-.392.108l.678 2.034c.081.246.473.14.392-.108zM35.392 61.5c-.227-.679-.45-1.357-.678-2.035-.08-.245-.472-.14-.391.108.227.678.45 1.356.678 2.034.083.246.472.14.391-.108zm-4.04-2.232c.262 0 .262-.405 0-.405-.26 0-.26.405 0 .405zm-2.985-.928l-.891-2.267c-.095-.24-.486-.135-.392.108l.892 2.266c.097.238.488.135.391-.108zm-4.275-3.628c-.227-.603-.451-1.205-.678-1.81-.092-.243-.484-.138-.392.108.227.603.451 1.205.678 1.81.092.243.483.138.392-.108zm-3.196-3.662a2.078 2.078 0 01-.197-1.203c.035-.253-.354-.364-.391-.108-.076.533 0 1.032.237 1.513.116.238.465.032.351-.203zm-1.831-1.972a4.076 4.076 0 01-.162-1.94c.04-.253-.348-.364-.391-.107-.12.734-.07 1.45.162 2.155.08.246.472.14.391-.108zm-.851-2.901v-.451c0-.262-.405-.262-.405 0v.451c0 .26.405.26.405 0zm25.1 14.923v-1.132c0-.262-.405-.262-.405 0V61.1c0 .262.405.262.405 0zm-2.947-.506l-.226-.904c-.063-.254-.454-.146-.392.108l.227.905c.062.25.453.145.391-.109zm-3.219-1.22l-.227-.227c-.076-.076-.213-.081-.286 0a.206.206 0 000 .286l.227.227c.075.076.213.081.286 0a.204.204 0 000-.286zm-6.045-2.344v-.679c0-.262-.405-.262-.405 0v.678c0 .262.405.262.405 0zm-4.975-3.617v-.905c0-.262-.405-.262-.405 0v.905c0 .26.405.26.405 0zm-3.392-3.62v-.45c0-.263-.405-.263-.405 0v.45c0 .262.405.262.405 0zm-2.463-3.64c.262 0 .262-.405 0-.405s-.262.405 0 .405zm14.244 10.223h-.227c-.105 0-.208.091-.202.202.005.11.089.203.202.203h.227c.105 0 .208-.092.203-.203a.207.207 0 00-.203-.202zm4.07 1.534c.262 0 .262-.405 0-.405-.259 0-.259.405 0 .405zm2.037.454c.262 0 .262-.406 0-.406s-.262.406 0 .406zm1.583-1.81c.262 0 .262-.405 0-.405s-.262.405 0 .405zm-2.261-2.261c.262 0 .262-.405 0-.405s-.262.405 0 .405zm44.77 7.914c.262 0 .262-.405 0-.405-.259 0-.259.405 0 .405zm.678 3.393c.262 0 .262-.406 0-.406-.259 0-.259.405 0 .405zm1.132 1.809c.262 0 .262-.405 0-.405-.26 0-.262.405 0 .405zm.024-4.049v.678c0 .262.406.262.406 0v-.678c0-.259-.406-.259-.406 0zm1.332 5.405c.262 0 .262-.405 0-.405-.26 0-.26.405 0 .405z" fill="#000"/><path d="M87.882 68.992c.262 0 .262-.406 0-.406-.26 0-.26.406 0 .406zm.454-2.942c.262 0 .262-.405 0-.405s-.262.405 0 .405zm2.034 3.166c.261 0 .261-.405 0-.405-.26 0-.26.405 0 .405zm2.263-1.356c.262 0 .262-.405 0-.405s-.262.405 0 .405zm-1.834-2.914v-.227c0-.105-.092-.208-.203-.203a.207.207 0 00-.202.203v.227c0 .105.092.208.202.202.111-.005.203-.089.203-.202zm2.963 4.27c.262 0 .262-.405 0-.405-.26 0-.262.405 0 .405zm4.07.454c.262 0 .262-.405 0-.405-.26 0-.262.405 0 .405zm4.07-.905c.262 0 .262-.405 0-.405-.259 0-.262.405 0 .405zm7.009 3.165c.262 0 .262-.405 0-.405-.259 0-.259.405 0 .405zm-.451 4.976c.262 0 .262-.406 0-.406s-.262.406 0 .406zm3.619 3.843c.262 0 .262-.405 0-.405s-.262.405 0 .405zm2.939.453c.262 0 .262-.405 0-.405s-.262.405 0 .405zm.227-1.809c.262 0 .262-.405 0-.405s-.262.405 0 .405zm-3.166.227c.262 0 .262-.405 0-.405s-.262.405 0 .405zm-2.487.224c.262 0 .262-.405 0-.405s-.262.405 0 .405z" fill="#000"/><path d="M109.592 79.844c.262 0 .262-.405 0-.405s-.262.405 0 .405zm.451-3.617c.262 0 .262-.405 0-.405-.259 0-.262.405 0 .405z" fill="#000"/><path d="M109.816 76.227c.262 0 .262-.405 0-.405-.259 0-.259.405 0 .405zM92.133 15.306c1.542-2.067 3.703-3.433 5.985-4.56 2.472-1.22 5.265-2.754 8.082-2.74 6.02.023 9.004 6.387 7.854 11.64-.057.254.335.362.391.108 1.138-5.202-1.477-11.284-7.233-12.081-2.998-.413-5.888 1.11-8.516 2.35-2.636 1.242-5.145 2.711-6.914 5.083-.157.202.197.405.351.2zm20.262 9.993c-2.938 4.11-3.281 9.618-.902 14.072.125.23.473.024.351-.206-2.317-4.335-1.952-9.666.903-13.66.151-.211-.2-.414-.352-.206zm1.996 5.745a60.404 60.404 0 014.506-11.855c.116-.232-.233-.437-.351-.205A60.958 60.958 0 00114 30.936c-.065.251.324.36.391.108zm-77.497-9.74c-.032-2.271-.154-4.983-2.185-6.447-1.391-1.005-3.336-.805-4.332.627-.149.213.202.416.35.205 1.324-1.902 3.806-.959 4.825.7.9 1.463.915 3.254.937 4.918.005.26.41.26.405-.003zm-8.837-3.649c-1.035 3.185.283 6.701 3.146 8.43.224.135.427-.216.206-.351-2.71-1.64-3.938-4.965-2.96-7.973.08-.249-.311-.354-.392-.106zm67.115 92.031c.753-.226 1.507-.451 2.26-.678.249-.075.144-.464-.108-.391-.753.227-1.507.451-2.26.678-.249.075-.14.467.108.391zm2.209.911h1.356c.262 0 .262-.406 0-.406h-1.356c-.262 0-.262.406 0 .406zm1.583 1.183c.526-.003 1.056-.003 1.583-.006.262 0 .262-.405 0-.405-.527.003-1.056.003-1.583.006-.262 0-.262.405 0 .405zm2.712 1.531l2.714-.227c.259-.021.259-.427 0-.405l-2.714.227c-.257.021-.26.427 0 .405zm4.399 1.783c.754-.379 1.507-.754 2.261-1.132.232-.116.027-.467-.205-.351-.754.378-1.507.753-2.261 1.132-.232.116-.027.467.205.351zm4.141.243c.643.27 1.323.245 1.961-.027.24-.103.032-.451-.206-.351-.54.229-1.112.21-1.647-.014-.24-.1-.346.292-.108.392zm5.307.453l1.356-.451c.246-.081.14-.472-.108-.391l-1.356.451c-.246.083-.14.475.108.391zm4.297-.451a4.01 4.01 0 001.899-1.183c.173-.194-.111-.48-.286-.286a3.605 3.605 0 01-1.721 1.078c-.251.073-.143.464.108.391zm4.176-1.688c.378-.526.753-1.056 1.132-1.582.151-.214-.2-.416-.352-.206-.378.527-.753 1.056-1.131 1.583-.151.214.2.416.351.205zm-23.225-4.183c.262 0 .262-.406 0-.406-.26 0-.26.406 0 .406zm4.07 3.165c.262 0 .262-.405 0-.405-.259 0-.259.405 0 .405zm3.168.678c.262 0 .262-.405 0-.405s-.262.405 0 .405zm3.844 1.132c.262 0 .262-.405 0-.405s-.262.405 0 .405zm3.392.451c.262 0 .262-.405 0-.405s-.262.405 0 .405zm4.521-1.356c.262 0 .262-.405 0-.405-.259 0-.262.405 0 .405zm.451-.905c.262 0 .262-.405 0-.405-.259 0-.259.405 0 .405zm2.942-1.356c.262 0 .262-.405 0-.405s-.262.405 0 .405z" fill="#000"/><path d="M123.159 111.277c.262 0 .262-.405 0-.405s-.262.405 0 .405zm-6.331 2.261c.262 0 .262-.405 0-.405s-.262.405 0 .405zm-2.037-.905c.262 0 .262-.405 0-.405-.259 0-.262.405 0 .405zm-7.236-1.131c.262 0 .262-.406 0-.406-.259 0-.262.406 0 .406zm-4.297-1.81c.262 0 .262-.405 0-.405-.259 0-.259.405 0 .405zm2.264 1.81c.262 0 .262-.406 0-.406s-.262.406 0 .406zm3.165 3.845c.262 0 .262-.405 0-.405s-.262.405 0 .405zm7.463-2.263c.262 0 .262-.405 0-.405s-.262.405 0 .405zm-1.81 2.942c.262 0 .262-.406 0-.406s-.262.406 0 .406zm-10.628-.905c.262 0 .262-.406 0-.406s-.262.406 0 .406zm-3.417-1.561v-.227c0-.106-.091-.208-.202-.203-.11.006-.203.089-.203.203v.227c0 .105.092.208.203.202a.201.201 0 00.202-.202zm-2.236-1.605c.262 0 .262-.405 0-.405s-.262.405 0 .405zm-2.037-1.358c.262 0 .262-.406 0-.406-.259 0-.259.406 0 .406zm16.057 2.487c.262 0 .262-.405 0-.405s-.262.405 0 .405zm10.402-.451c.262 0 .262-.405 0-.405s-.262.405 0 .405zm.451 2.261c.262 0 .262-.405 0-.405-.26 0-.262.405 0 .405zm-2.939.678c.262 0 .262-.406 0-.406s-.262.406 0 .406zm-2.036.678c.262 0 .262-.405 0-.405-.26 0-.26.405 0 .405zm7.011-4.973c.262 0 .262-.405 0-.405s-.262.405 0 .405zm-.227-2.036c.262 0 .262-.405 0-.405s-.262.405 0 .405zm-7.235 1.582c.262 0 .262-.405 0-.405s-.262.405 0 .405zm-5.202-.677c.262 0 .262-.406 0-.406-.26 0-.26.406 0 .406zm-4.522.226c.262 0 .262-.405 0-.405s-.262.405 0 .405zm-4.07-1.582c.262 0 .262-.405 0-.405s-.262.405 0 .405zm4.748 0c.262 0 .262-.405 0-.405s-.262.405 0 .405zm9.497 1.356c.262 0 .262-.406 0-.406-.26 0-.26.406 0 .406zm2.941-1.81c.262 0 .262-.405 0-.405s-.262.405 0 .405zm-18.091-1.129c.262 0 .262-.405 0-.405s-.262.405 0 .405zm3.393-3.392c.262 0 .262-.405 0-.405s-.262.405 0 .405zm2.487-1.583c.262 0 .262-.405 0-.405s-.262.405 0 .405zm.451-.905c.262 0 .262-.405 0-.405-.259 0-.262.405 0 .405zm-2.487 4.975c.262 0 .262-.405 0-.405-.26 0-.26.405 0 .405zm-4.522-.454c.262 0 .262-.405 0-.405s-.262.405 0 .405zm-2.589 1.432a38.07 38.07 0 00-.452.227c-.097.048-.124.186-.073.278.06.1.178.121.278.073.152-.076.303-.151.451-.227.098-.049.125-.186.073-.278-.06-.1-.18-.122-.278-.073z" fill="#000"/><path d="M102.807 107.207c.262 0 .262-.405 0-.405s-.262.405 0 .405zM63.236 122.13h3.62c.261 0 .261-.406 0-.406h-3.62c-.262 0-.262.406 0 .406zm.678 1.582h2.714c.262 0 .262-.405 0-.405h-2.714c-.262 0-.262.405 0 .405zm-.057 2.056l1.583.232c.254.038.365-.354.108-.392l-1.583-.232c-.256-.035-.367.354-.108.392zm-.343 2.682l2.26-.454c.257-.051.15-.443-.107-.392l-2.26.454c-.255.054-.147.443.107.392zm.626 3.403h1.132c.262 0 .262-.405 0-.405h-1.131c-.262 0-.262.405 0 .405zm.05 2.685c.526-.079 1.053-.16 1.58-.238.256-.038.148-.43-.108-.392-.527.079-1.054.16-1.58.238-.257.038-.146.429.108.392zm.629 2.968h1.132c.262 0 .262-.405 0-.405h-1.132c-.262 0-.262.405 0 .405zm.905 3.165c.262 0 .262-.405 0-.405s-.262.405 0 .405zm.732 3.611l.904-.227c.254-.062.146-.453-.108-.391l-.904.227c-.254.065-.146.456.108.391zm.669 2.242l2.026-.702c.246-.084.14-.475-.108-.392l-2.026.703c-.243.083-.137.475.108.391zm2.085 3.606c.527-.303 1.056-.602 1.583-.905.227-.13.022-.481-.205-.351-.527.302-1.056.602-1.583.905-.227.129-.021.48.206.351zm2.34 1.38c.45.095.902.022 1.29-.227.22-.14.017-.491-.205-.351a1.29 1.29 0 01-.978.186c-.253-.054-.361.338-.108.392zm2.417 2.25c.151-.076.302-.151.45-.227.098-.048.125-.186.074-.278-.06-.1-.178-.122-.278-.073-.152.076-.303.151-.451.227-.098.049-.125.186-.073.278.06.1.178.122.278.073zm-8.873-13.564c.376-.076.754-.151 1.13-.23.256-.051.148-.442-.109-.391-.375.075-.753.151-1.129.229-.254.054-.146.443.108.392zm3.341 9.975c.262 0 .262-.406 0-.406-.259 0-.259.406 0 .406zm-1.355-1.81c.261 0 .261-.405 0-.405-.26 0-.263.405 0 .405zm-1.583-2.488c.262 0 .262-.405 0-.405-.26 0-.262.405 0 .405zm-1.132-3.619c.262 0 .262-.405 0-.405-.26 0-.26.405 0 .405zm-.902-1.807c.262 0 .262-.405 0-.405s-.262.405 0 .405zm0-6.107c.262 0 .262-.405 0-.405s-.262.405 0 .405zm-.453.227c.261 0 .261-.405 0-.405-.26 0-.263.405 0 .405z" fill="#000"/><path d="M63.687 128.236c.262 0 .262-.405 0-.405-.26 0-.26.405 0 .405zm-.224.678c.262 0 .262-.405 0-.405s-.262.405 0 .405zm3.617 6.782c.261 0 .261-.405 0-.405-.26 0-.263.405 0 .405zm-4.07-10.625c.261 0 .261-.405 0-.405-.26 0-.263.405 0 .405zm4.296 8.591c.262 0 .262-.405 0-.405s-.262.405 0 .405zm4.749 14.699c.262 0 .262-.405 0-.405s-.262.405 0 .405zm-2.037-4.071c.262 0 .262-.405 0-.405-.26 0-.26.405 0 .405zm-1.386-4.78l-.226-1.132c-.052-.256-.443-.148-.392.108l.227 1.132c.051.257.443.149.391-.108zm-.648-2.231c.262 0 .262-.405 0-.405s-.262.405 0 .405zm-.024-5.402v-1.582c0-.262-.405-.262-.405 0v1.582c0 .26.405.262.405 0z" fill="#000"/><path d="M67.306 130.724c.262 0 .262-.405 0-.405s-.262.405 0 .405zm.881-4.727v-1.356c0-.262-.405-.262-.405 0v1.356c0 .262.405.262.405 0z" fill="#000"/><path d="M67.984 126.2c.262 0 .262-.405 0-.405s-.262.405 0 .405zm3.393 5.653c.262 0 .262-.405 0-.405s-.262.405 0 .405zm-3.166-9.046c.262 0 .262-.405 0-.405s-.262.405 0 .405zm8.365 29.17c.262 0 .262-.405 0-.405-.26 0-.26.405 0 .405zm1.81-2.033c.261 0 .261-.405 0-.405-.26 0-.262.405 0 .405zm-3.166.227c.262 0 .262-.406 0-.406-.26 0-.262.406 0 .406zm-1.132-2.488c.262 0 .262-.405 0-.405-.259 0-.259.405 0 .405zm-1.355-3.168c.261 0 .261-.405 0-.405-.26 0-.263.405 0 .405zm-3.843-2.485c.261 0 .261-.405 0-.405-.263 0-.263.405 0 .405zm.677-3.619c.262 0 .262-.405 0-.405-.26 0-.262.405 0 .405zm-.227-4.522c.262 0 .262-.405 0-.405-.26 0-.26.405 0 .405zm-7.236-2.714c.262 0 .262-.405 0-.405-.259 0-.259.405 0 .405zm3.393-.905c.262 0 .262-.405 0-.405-.26 0-.262.405 0 .405zm.905-2.714c.262 0 .262-.406 0-.406s-.262.406 0 .406zm2.714 2.036c.262 0 .262-.405 0-.405s-.262.405 0 .405zm.451-4.07c.262 0 .262-.405 0-.405-.26 0-.262.405 0 .405zm1.356-2.488h.227c.105 0 .208-.092.202-.202-.005-.111-.089-.203-.202-.203h-.227c-.105 0-.208.092-.203.203.006.11.09.202.203.202zm2.263-1.131c.262 0 .262-.405 0-.405s-.262.405 0 .405zm2.261-1.583c.262 0 .262-.405 0-.405s-.262.405 0 .405zm-3.392.905c.262 0 .262-.405 0-.405s-.262.405 0 .405z" fill="#000"/><path d="M71.377 131.853c.262 0 .262-.405 0-.405s-.262.405 0 .405zm-.227 7.236c.262 0 .262-.406 0-.406-.26 0-.262.406 0 .406zm-1.132 0c.262 0 .262-.406 0-.406-.26 0-.26.406 0 .406zm-5.426-3.166c.262 0 .262-.405 0-.405-.26 0-.262.405 0 .405zm-1.129 1.132c.262 0 .262-.405 0-.405s-.262.405 0 .405zm.451 1.807c.262 0 .262-.405 0-.405s-.262.405 0 .405z" fill="#000"/><path d="M63.914 138.862c.262 0 .262-.405 0-.405s-.262.405 0 .405zm6.785 12.664c.262 0 .262-.405 0-.405s-.262.405 0 .405z" fill="#000"/><path d="M70.699 151.526c.262 0 .262-.405 0-.405s-.262.405 0 .405zm1.356 1.356c.262 0 .262-.405 0-.405s-.262.405 0 .405zm-1.132-6.331c.262 0 .262-.405 0-.405-.26 0-.26.405 0 .405zm1.132-5.426c.262 0 .262-.405 0-.405s-.262.405 0 .405zM92.1 98.332a15.55 15.55 0 014.023-2.466c.24-.1.032-.451-.206-.351a15.954 15.954 0 00-4.105 2.53c-.197.168.089.454.289.287zm-2.527-3.584c1.966-1.197 3.932-2.39 5.899-3.587.221-.135.019-.486-.206-.351-1.966 1.196-3.932 2.39-5.898 3.587-.222.137-.02.486.205.35zm-1.834-5.915c.756-.524 1.512-1.046 2.271-1.57.214-.148.011-.5-.205-.35l-2.272 1.569c-.21.148-.008.502.206.35zm-3.104-4.751l2.261-2.034c.195-.176-.092-.462-.286-.286l-2.26 2.033c-.195.176.091.462.285.287zm-2.981-7.657l2.938-1.81c.222-.138.02-.486-.205-.351-.98.602-1.96 1.207-2.939 1.81-.221.137-.016.488.206.35zm-.864-6.364l1.131-.905c.203-.162-.084-.448-.286-.286l-1.132.905c-.203.165.086.448.286.286zm-1.362-3.449a4.942 4.942 0 012.463-2.371c.238-.106.033-.454-.205-.351a5.269 5.269 0 00-2.609 2.517c-.114.235.235.44.351.205zm-.446-5.142l.905-1.132c.162-.203-.124-.489-.286-.286l-.905 1.131c-.162.203.122.49.286.287zm8.53 38.517c-.392.295-.783.589-1.172.884-.17.126-.081.442.156.37l1.216-.373c.248-.076.143-.467-.108-.392l-1.216.373c.052.124.106.246.157.37.392-.294.783-.589 1.172-.883.206-.154.003-.505-.205-.349zm11.225-5.896c.262 0 .262-.405 0-.405s-.262.405 0 .405zm-4.748-4.975c.262 0 .262-.405 0-.405s-.262.405 0 .405zm-4.975-5.426c.262 0 .262-.405 0-.405s-.262.405 0 .405zm-1.584-3.62c.263 0 .263-.404 0-.404-.261 0-.261.405 0 .405zm-1.809-3.392c.262 0 .262-.405 0-.405-.259 0-.259.405 0 .405zm-1.356-4.748c.262 0 .262-.405 0-.405s-.262.405 0 .405zm-1.582-4.521c.262 0 .262-.405 0-.405s-.262.405 0 .405zm-2.037-5.88c.262 0 .262-.405 0-.405-.26 0-.26.405 0 .405zm16.435 33.173a70.015 70.015 0 00-.227-.451c-.048-.098-.186-.125-.278-.073-.1.06-.121.178-.073.278l.227.451c.049.097.186.124.278.073.1-.06.122-.181.073-.278z" fill="#000"/><path d="M93.762 92.055c.262 0 .262-.405 0-.405-.26 0-.262.405 0 .405zm-3.166-2.712c.262 0 .262-.405 0-.405-.259 0-.262.405 0 .405zm-2.938-3.619c.262 0 .262-.405 0-.405s-.262.405 0 .405zm-2.715-3.617c.262 0 .262-.405 0-.405-.259 0-.262.405 0 .405zm-1.131-4.751c.262 0 .262-.405 0-.405-.26 0-.26.406 0 .406zm-1.129-4.07c.262 0 .262-.405 0-.405s-.262.405 0 .405zm-2.037-4.07c.262 0 .262-.405 0-.405-.26 0-.26.405 0 .405zm-.905-4.295c.262 0 .262-.405 0-.405-.259 0-.259.405 0 .405zm4.524 11.306c.262 0 .262-.405 0-.405s-.262.405 0 .405zm8.141 18.993c.262 0 .262-.405 0-.405s-.262.405 0 .405zm-3.843-3.165c.261 0 .261-.405 0-.405-.262 0-.262.405 0 .405zm-2.942-4.071c.262 0 .262-.405 0-.405-.259 0-.259.406 0 .406zm-2.033-4.294c.262 0 .262-.405 0-.405s-.262.405 0 .405zm-2.037-4.524c.262 0 .262-.405 0-.405-.26 0-.26.405 0 .405zm-.678-3.843c.262 0 .262-.405 0-.405-.26 0-.262.405 0 .405zm-1.132-5.88c.262 0 .262-.406 0-.406-.259 0-.259.406 0 .406zm0 .905c.262 0 .262-.406 0-.406-.259 0-.259.406 0 .406zm-1.582-5.427c.262 0 .262-.405 0-.405-.26 0-.26.405 0 .405zm11.759 33.691c.262 0 .262-.405 0-.405s-.262.406 0 .406zm-1.809-3.616c.262 0 .262-.405 0-.405-.26 0-.262.405 0 .405zm-2.261-4.748c.262 0 .262-.405 0-.405s-.262.405 0 .405zm5.199.678c.262 0 .262-.405 0-.405-.259 0-.259.405 0 .405zm7.012.904c.262 0 .262-.404 0-.404s-.262.405 0 .405zm-2.487-2.487c.261 0 .261-.405 0-.405-.263 0-.263.405 0 .405zm-3.166-2.714c.262 0 .262-.405 0-.405s-.262.405 0 .405zm-1.583-1.356c.262 0 .262-.405 0-.405s-.262.405 0 .405zm-2.26-4.748c.261 0 .261-.406 0-.406-.262 0-.262.406 0 .406zm-.227-1.359c.262 0 .262-.405 0-.405s-.262.405 0 .405zm-.454 3.392c.262 0 .262-.405 0-.405-.26 0-.26.405 0 .405zm-2.712-9.272c.262 0 .262-.405 0-.405s-.262.405 0 .405zm4.07 27.136c.263 0 .263-.405 0-.405-.261 0-.261.405 0 .405zm-1.582-2.714c.262 0 .262-.405 0-.405s-.262.405 0 .405zm-1.132-2.488c.262 0 .262-.405 0-.405-.26 0-.262.405 0 .405zm-.451.227c.262 0 .262-.405 0-.405s-.262.405 0 .405zm-1.359 7.236c.262 0 .262-.405 0-.405-.259 0-.259.405 0 .405zm3.166-.905c.262 0 .262-.405 0-.405-.26 0-.26.405 0 .405zm-5.426 1.583c.262 0 .262-.405 0-.405-.26 0-.262.405 0 .405zm.678 1.583c.262 0 .262-.406 0-.406-.26 0-.26.406 0 .406zm-4.748 1.358c.261 0 .261-.405 0-.405-.26 0-.262.405 0 .405zm-3.844 1.402h-.678c-.262 0-.262.405 0 .405h.678c.26 0 .262-.405 0-.405zm-1.809.632c.261 0 .261-.405 0-.405-.26 0-.263.405 0 .405zm-5.2 1.81c.262 0 .262-.406 0-.406s-.262.406 0 .406zm-5.202.904c.262 0 .262-.405 0-.405s-.262.405 0 .405zm-2.938 1.129c.262 0 .262-.405 0-.405s-.262.405 0 .405zm16.054-6.782c.262 0 .262-.405 0-.405s-.262.405 0 .405zm3.393-2.714c.261 0 .261-.405 0-.405-.263 0-.263.405 0 .405zm2.938-3.616c.262 0 .262-.406 0-.406s-.262.406 0 .406zm.905 0c.262 0 .262-.406 0-.406s-.262.406 0 .406zm0-3.847c.262 0 .262-.405 0-.405s-.262.405 0 .405zm-.454-6.558c.262 0 .262-.405 0-.405-.26 0-.26.405 0 .405z" fill="#000"/><path d="M82.229 88.662c.262 0 .262-.405 0-.405-.26 0-.26.405 0 .405zm-.451-3.616c.262 0 .262-.405 0-.405s-.262.405 0 .405zm-8.141 8.14c.262 0 .262-.405 0-.405s-.262.405 0 .405zm-11.079 15.377c.262 0 .262-.405 0-.405s-.262.405 0 .405zm-3.846-.678c.262 0 .262-.405 0-.405-.26 0-.26.405 0 .405zm-.224.451c.262 0 .262-.405 0-.405s-.262.405 0 .405zm9.723-16.054c.262 0 .262-.405 0-.405s-.262.405 0 .405zm11.282 3.64v-.227c0-.105-.092-.207-.203-.202a.206.206 0 00-.202.203v.226c0 .106.092.208.202.203a.206.206 0 00.203-.203zm.475-3.64c.262 0 .262-.405 0-.405-.26 0-.26.405 0 .405zm-.678-4.975c.262 0 .262-.406 0-.406-.259 0-.262.406 0 .406zm-.904-6.782c.261 0 .261-.406 0-.406-.26 0-.262.406 0 .406zm-1.129-7.69c.261 0 .261-.405 0-.405-.262 0-.262.405 0 .405z" fill="#000"/><path d="M77.03 72.608c.262 0 .262-.405 0-.405s-.262.405 0 .405zm-.905-4.521c.262 0 .262-.405 0-.405s-.262.405 0 .405zm5.426-7.009c.262 0 .262-.405 0-.405-.26 0-.26.405 0 .405zm8.594-37.991c.262 0 .262-.405 0-.405s-.262.405 0 .405zm1.105.024v-.227c0-.105-.092-.208-.203-.202a.205.205 0 00-.202.202v.227c0 .106.092.208.203.203a.206.206 0 00.202-.203zm-.654-3.641c.262 0 .262-.405 0-.405-.259 0-.262.405 0 .405zm-.226-2.26c.261 0 .261-.405 0-.405-.26 0-.26.405 0 .405zm-3.269-.605c-.302.15-.602.302-.904.45-.233.117-.027.468.205.352.302-.151.602-.303.905-.451.232-.116.03-.468-.206-.351z" fill="#000"/><path d="M86.753 16.756c.262 0 .262-.405 0-.405s-.262.405 0 .405zm1.356-.451c.262 0 .262-.405 0-.405-.26 0-.262.405 0 .405zm-18.315.905c.262 0 .262-.405 0-.405s-.262.405 0 .405zm15.149 2.938c.262 0 .262-.405 0-.405-.259 0-.262.405 0 .405zm7.914-2.938c.262 0 .262-.405 0-.405-.26 0-.26.405 0 .405zm1.583-2.488c.262 0 .262-.405 0-.405-.26 0-.26.405 0 .405zm2.714-1.81c.262 0 .262-.405 0-.405s-.262.405 0 .405zm5.202-2.033c.262 0 .262-.406 0-.406s-.262.406 0 .406zm4.295.451c.262 0 .262-.405 0-.405-.26 0-.26.405 0 .405zm2.941 2.938c.262 0 .262-.405 0-.405s-.262.405 0 .405zm.224 4.749c.262 0 .262-.405 0-.405-.259 0-.259.405 0 .405zm1.583-3.166c.262 0 .262-.405 0-.405-.259 0-.259.405 0 .405zm-1.807-4.294c.262 0 .262-.405 0-.405s-.262.405 0 .405zm-18.091 2.487c.262 0 .262-.405 0-.405s-.262.405 0 .405zm5.426-3.392c.262 0 .262-.405 0-.405-.259 0-.259.405 0 .405zm3.62-1.359c.262 0 .262-.405 0-.405s-.262.405 0 .405zm3.843-1.129c.262 0 .262-.405 0-.405-.259 0-.262.405 0 .405zm4.07-.227c.262 0 .262-.405 0-.405s-.262.405 0 .405zm2.715 13.794c.262 0 .262-.405 0-.405s-.262.405 0 .405zm-2.264 5.426c.262 0 .262-.405 0-.405-.259 0-.259.405 0 .405zm-2.26 2.941c.262 0 .262-.405 0-.405-.26 0-.26.405 0 .405zm-2.261 2.262c.262 0 .262-.406 0-.406-.259 0-.262.405 0 .405zm0 2.487c.262 0 .262-.406 0-.406-.259 0-.262.406 0 .406zm2.939 4.07c.262 0 .262-.405 0-.405-.26 0-.26.405 0 .405zm2.036 1.356c.262 0 .262-.405 0-.405s-.262.405 0 .405zm-18.593-13.14c.262 0 .262-.405 0-.405-.26 0-.262.405 0 .405zm1.005 4.321c.262 0 .262-.405 0-.405-.26 0-.26.405 0 .405zm-.703 6.331c.262 0 .262-.405 0-.405s-.262.405 0 .405zm-.099 3.819c.262 0 .262-.405 0-.405s-.262.405 0 .405zm-2.412 5.026c.261 0 .261-.405 0-.405-.262 0-.262.406 0 .406zm-2.213 4.02c.263 0 .263-.405 0-.405-.261 0-.261.405 0 .405zm-5.023 3.819c.262 0 .262-.405 0-.405s-.262.405 0 .405zm-7.239 2.814c.262 0 .262-.405 0-.405-.259 0-.259.405 0 .405zm-4.923 1.105c.261 0 .261-.405 0-.405-.26 0-.26.405 0 .405zm-10.051.302c.262 0 .262-.405 0-.405-.259 0-.259.405 0 .405zm5.226 1.105c.263 0 .263-.405 0-.405-.258 0-.261.405 0 .405zm8.041-.905c.262 0 .262-.405 0-.405s-.262.405 0 .405zm4.924-1.607c.262 0 .262-.405 0-.405-.26 0-.262.405 0 .405zm7.036-4.121c.262 0 .262-.405 0-.405s-.262.405 0 .405zm3.317-3.82c.262 0 .262-.405 0-.405s-.262.405 0 .405zm2.412-4.421c.262 0 .262-.405 0-.405s-.262.405 0 .405zm1.807-4.924c.262 0 .262-.405 0-.405-.26 0-.26.405 0 .405zm.203-5.027c.261 0 .261-.404 0-.404-.263 0-.263.405 0 .405zm-.203-5.223c.262 0 .262-.405 0-.405-.26 0-.26.405 0 .405zm-1.305-3.719c.262 0 .262-.405 0-.405s-.262.405 0 .405zm-1.809.502c.261 0 .261-.405 0-.405-.263 0-.263.405 0 .405zm-3.115-2.211c.262 0 .262-.406 0-.406s-.262.406 0 .406zm-2.112-1.91c.262 0 .262-.405 0-.405-.26 0-.262.405 0 .405zm-.702-1.507c.262 0 .262-.405 0-.405s-.262.405 0 .405zm6.231 7.838c.262 0 .262-.405 0-.405s-.262.405 0 .405zm1.105 3.719c.262 0 .262-.405 0-.405s-.262.405 0 .405zm1.81.303c.261 0 .261-.406 0-.406-.263 0-.263.406 0 .406zm-1.71 2.511c.262 0 .262-.405 0-.405-.26 0-.262.405 0 .405zm-1.005 4.122c.262 0 .262-.405 0-.405-.26 0-.262.405 0 .405zm-.845 3.071l-.1.1a.207.207 0 00-.06.143.202.202 0 00.203.202.214.214 0 00.143-.059l.1-.1a.207.207 0 00.06-.143.202.202 0 00-.346-.143zm-.965 3.56c.262 0 .262-.405 0-.405-.26 0-.26.405 0 .405zm-2.512 3.419c.262 0 .262-.405 0-.405-.259 0-.262.405 0 .405zm-3.216 2.915c.262 0 .262-.406 0-.406-.26 0-.26.405 0 .405zm-2.512 1.606c.262 0 .262-.405 0-.405-.26 0-.262.405 0 .405zm-1.91 1.608c.262 0 .262-.406 0-.406-.26 0-.262.406 0 .406zm-6.231.805c.262 0 .262-.406 0-.406-.26 0-.262.406 0 .406zm-3.719 1.506c.262 0 .262-.405 0-.405-.26 0-.26.405 0 .405zm-4.421.303c.262 0 .262-.405 0-.405-.26 0-.26.405 0 .405zm22.814-13.869c.262 0 .262-.405 0-.405s-.262.405 0 .405zm1.205-4.222c.262 0 .262-.405 0-.405-.26 0-.26.405 0 .405zm1.407-6.633c.262 0 .262-.405 0-.405-.26 0-.262.405 0 .405zm-.602-2.712c.262 0 .262-.405 0-.405s-.262.405 0 .405zm2.612-.905c.261 0 .261-.405 0-.405-.26 0-.26.405 0 .405zm-3.115-.602c.262 0 .262-.405 0-.405s-.262.405 0 .405zm-2.814-3.519c.262 0 .262-.405 0-.405s-.262.405 0 .405zm-2.412-2.915c.262 0 .262-.405 0-.405s-.262.405 0 .405zm6.131 4.222c.262 0 .262-.405 0-.405s-.262.405 0 .405zm-1.81-.203c.263 0 .263-.405 0-.405-.261 0-.261.405 0 .405zm.2 5.226c.262 0 .262-.405 0-.405-.259 0-.259.405 0 .405zm.905 2.814c.262 0 .262-.404 0-.404-.26 0-.26.405 0 .405zm.203 2.513c.262 0 .262-.405 0-.405s-.262.405 0 .405zm1.807-.603c.262 0 .262-.405 0-.405-.26 0-.26.406 0 .406zm-3.717 10.756c.262 0 .262-.406 0-.406s-.262.406 0 .406zm1.607.2c.262 0 .262-.406 0-.406-.259 0-.262.406 0 .406zm-4.221 2.714c.262 0 .262-.405 0-.405-.26 0-.26.405 0 .405zm1.107-3.017c.262 0 .262-.405 0-.405s-.262.405 0 .405zm.702 3.519c.262 0 .262-.405 0-.405-.259 0-.262.405 0 .405zM56.2 58.488c.262 0 .262-.405 0-.405-.26 0-.26.405 0 .405zm-3.417-.702c.262 0 .262-.406 0-.406-.259 0-.261.406 0 .406zm-4.421-2.01c.262 0 .262-.405 0-.405s-.262.405 0 .405zM30.976 34.469c.262 0 .262-.406 0-.406s-.262.406 0 .406zm1.304-1.707c.263 0 .263-.406 0-.406-.258 0-.258.406 0 .406zm.806-1.81c.262 0 .262-.405 0-.405-.26 0-.262.405 0 .405zm.1-1.205c.262 0 .262-.405 0-.405-.26 0-.26.405 0 .405zm-.803-2.012c.262 0 .262-.405 0-.405s-.262.405 0 .405zm-.705-1.407c.262 0 .262-.405 0-.405-.259 0-.262.405 0 .405zm-1.004-1.608c.262 0 .262-.404 0-.404-.26 0-.262.405 0 .405zm-.703-2.008c.262 0 .262-.406 0-.406-.261 0-.261.405 0 .405zm.803-3.62c.262 0 .262-.405 0-.405-.26 0-.26.405 0 .405zm2.312-.2c.262 0 .262-.405 0-.405-.26 0-.262.405 0 .405zm-2.212-2.109c.262 0 .262-.405 0-.405-.26 0-.26.405 0 .405zm7.136 3.214c.262 0 .262-.405 0-.405-.26 0-.26.405 0 .405zm-.1-2.514v.1a.202.202 0 00.346.143.22.22 0 00.059-.143v-.1a.202.202 0 10-.405 0zm-.303-1.707c.262 0 .262-.406 0-.406-.26 0-.26.406 0 .406zm-.502-1.106c.262 0 .262-.405 0-.405-.26 0-.26.406 0 .406zm-1.91-1.104c.262 0 .262-.405 0-.405-.26 0-.26.405 0 .405zm-.602-.202c.262 0 .262-.406 0-.406-.26 0-.26.405 0 .405zm.1 1.306c.262 0 .262-.405 0-.405-.26 0-.26.406 0 .406zm-2.413-1.909c.263 0 .263-.405 0-.405-.258 0-.258.405 0 .405zm1.71 3.117c.262 0 .262-.405 0-.405-.261 0-.261.405 0 .405zm3.517 6.631c.262 0 .262-.405 0-.405-.26 0-.26.405 0 .405zm.503-1.105c.262 0 .262-.405 0-.405-.26 0-.26.405 0 .405zm-.603-2.312c.262 0 .262-.405 0-.405-.26 0-.262.405 0 .405zm-.1-1.707c.262 0 .262-.405 0-.405s-.262.405 0 .405zm-.402-2.212c.262 0 .262-.405 0-.405-.26 0-.262.405 0 .405zm-.303-.802c.262 0 .262-.405 0-.405-.259 0-.259.405 0 .405zm-1.104 5.526c.262 0 .262-.405 0-.405-.26 0-.262.405 0 .405zm-1.91 8.543c.262 0 .262-.405 0-.405-.26 0-.262.405 0 .405zm-.602-2.01c.262 0 .262-.405 0-.405s-.262.405 0 .405zm-1.207-1.407c.262 0 .262-.405 0-.405-.26 0-.26.405 0 .405z" fill="#000"/><path d="M30.271 22.911c.262 0 .262-.405 0-.405-.259 0-.259.405 0 .405zm-.801-2.309c.261 0 .261-.405 0-.405-.263 0-.263.405 0 .405zm-.103-1.107c.261 0 .261-.405 0-.405-.26 0-.26.405 0 .405zm1.709 4.321c.262 0 .262-.405 0-.405s-.262.405 0 .405zm1.307 5.429c.262 0 .262-.405 0-.405s-.262.405 0 .405zm-.402 1.907c.262 0 .262-.405 0-.405s-.262.405 0 .405zm-.705 1.709c.262 0 .262-.405 0-.405-.26 0-.26.405 0 .405zm1.207-1.607c.262 0 .262-.405 0-.405s-.262.405 0 .405zm-.1 23.617c.262 0 .262-.405 0-.405s-.262.405 0 .405zm4.019 2.109c.262 0 .262-.404 0-.404-.261 0-.261.405 0 .405zm1.508 0c.262 0 .262-.404 0-.404-.26 0-.262.405 0 .405zm2.311-1.706c.263 0 .263-.406 0-.406-.261 0-.261.406 0 .406zm1.205-.905c.262 0 .262-.405 0-.405-.26 0-.26.405 0 .405zm1.71 2.311c.262 0 .262-.404 0-.404s-.262.405 0 .405zm.402 1.608c.262 0 .262-.405 0-.405s-.262.405 0 .405zm-1.407 1.204c.262 0 .262-.405 0-.405s-.262.405 0 .405zm.502 2.113c.262 0 .262-.405 0-.405s-.262.405 0 .405zm.1 1.205c.262 0 .262-.406 0-.406-.259 0-.262.405 0 .405zm1.105-.603c.262 0 .262-.405 0-.405-.26 0-.26.405 0 .405zm.202-2.11c.263 0 .263-.405 0-.405-.261 0-.261.405 0 .405zm-1.766 5.081l-.1-.1a.207.207 0 00-.143-.06.202.202 0 00-.203.203.215.215 0 00.06.143l.1.1c.038.038.092.06.143.06a.202.202 0 00.203-.203.214.214 0 00-.06-.143zm-1.248-1.567v-.2c0-.105-.091-.207-.202-.202a.207.207 0 00-.203.203v.2c0 .105.092.207.203.202a.202.202 0 00.202-.203zm-3.016.003c.262 0 .262-.405 0-.405-.26 0-.26.405 0 .405zm-1.205-2.412c.262 0 .262-.405 0-.405s-.262.405 0 .405zm-.905 2.312c.262 0 .262-.405 0-.405s-.262.405 0 .405zm-2.614-2.312c.262 0 .262-.405 0-.405-.26 0-.26.405 0 .405zm-1.006-1.81c.263 0 .263-.405 0-.405-.258 0-.258.405 0 .405zm-1.004.805c.262 0 .262-.405 0-.405-.26 0-.26.405 0 .405zm-1.21-1.655c.033-.135.068-.267.1-.403.062-.253-.327-.361-.392-.108-.032.136-.067.268-.1.403-.062.254.327.36.392.108zm-.095-.856c.262 0 .262-.405 0-.405-.261 0-.261.405 0 .405zm-3.419-.403c.262 0 .262-.405 0-.405-.26 0-.26.405 0 .405zm-1.104-1.909c.261 0 .261-.406 0-.406-.26 0-.262.406 0 .406zm-.905-.805c.262 0 .262-.405 0-.405-.26 0-.26.405 0 .405zm-1.91 0c.262 0 .262-.405 0-.405-.26 0-.26.405 0 .405zm-1.005-1.305c.262 0 .262-.405 0-.405-.259 0-.259.405 0 .405zm0-1.007c.262 0 .262-.405 0-.405-.259 0-.259.405 0 .405zm.805-2.812c.262 0 .262-.405 0-.405s-.262.405 0 .405zm-2.914 1.507c.262 0 .262-.405 0-.405s-.262.405 0 .405zm-2.009-2.614c.261 0 .261-.405 0-.405-.263 0-.263.405 0 .405zm-.203-2.512c.262 0 .262-.405 0-.405-.26 0-.26.405 0 .405zm.603-1.507c.261 0 .261-.405 0-.405-.26 0-.26.405 0 .405zm52.26 64.017c.261 0 .261-.405 0-.405-.26 0-.26.405 0 .405zm2.111-3.317c.262 0 .262-.405 0-.405s-.262.405 0 .405zm2.712-3.317c.262 0 .262-.405 0-.405-.26 0-.26.405 0 .405zm5.127-.299c.261 0 .261-.406 0-.406-.262 0-.262.406 0 .406zM76.5 91.15c.262 0 .262-.405 0-.405-.259 0-.259.405 0 .405zm.605-7.535c.262 0 .262-.406 0-.406s-.262.406 0 .406zm-1.809-8.444c.262 0 .262-.405 0-.405s-.262.405 0 .405zm-.906-7.838c.263 0 .263-.405 0-.405-.258 0-.261.405 0 .405zm0-5.126c.263 0 .263-.405 0-.405-.258 0-.261.405 0 .405zm3.92-12.965c.262 0 .262-.405 0-.405-.26 0-.26.405 0 .405zm3.317-7.838c.262 0 .262-.405 0-.405-.26 0-.262.405 0 .405zm-.905-15.076c.262 0 .262-.405 0-.405-.26 0-.26.405 0 .405zm-7.536 25.326c.262 0 .262-.405 0-.405s-.262.405 0 .405zm-9.95 2.412c.262 0 .262-.405 0-.405s-.262.405 0 .405zm-6.331.603c.262 0 .262-.405 0-.405s-.262.405 0 .405zm-6.935-2.712c.261 0 .261-.405 0-.405-.26 0-.26.405 0 .405zm26.833-8.743c.262 0 .262-.405 0-.405-.26 0-.262.405 0 .405zm3.014-6.031c.262 0 .262-.405 0-.405-.26 0-.26.405 0 .405zm1.207-4.823c.262 0 .262-.406 0-.406s-.262.405 0 .405zm-3.919-4.222c.262 0 .262-.406 0-.406s-.262.406 0 .406zm-1.207-7.536c.262 0 .262-.405 0-.405-.26 0-.26.405 0 .405zm11.457-1.207c.262 0 .262-.405 0-.405-.259 0-.262.405 0 .405zm25.024 23.819c.262 0 .262-.405 0-.405-.259 0-.262.405 0 .405zm-4.221-3.922c.262 0 .262-.405 0-.405-.26 0-.26.405 0 .405zm-.3-3.314c.262 0 .262-.405 0-.405s-.262.405 0 .405zm-.303-5.126c.262 0 .262-.405 0-.405-.259 0-.262.405 0 .405zm2.113-4.524c.262 0 .262-.405 0-.405s-.262.405 0 .405zm2.411-5.726c.262 0 .262-.405 0-.405s-.262.405 0 .405zm-2.112-9.045c.262 0 .262-.405 0-.405-.259 0-.262.405 0 .405zm-30.45 3.014c.262 0 .262-.405 0-.405s-.262.405 0 .405zm19.898-5.426c.262 0 .262-.406 0-.406-.26 0-.262.406 0 .406zm-4.724 55.271v.303c0 .105.092.208.203.202a.205.205 0 00.202-.202v-.303c0-.105-.092-.208-.202-.202-.111.005-.203.089-.203.202zm3.217 2.917c.262 0 .262-.405 0-.405-.26 0-.262.405 0 .405zm4.221 1.81c.262 0 .262-.405 0-.405s-.262.405 0 .405zm-6.031-.303c.262 0 .262-.405 0-.405-.26 0-.26.405 0 .405zm-3.014-.302c.262 0 .262-.405 0-.405s-.262.405 0 .405zm0 1.207c.262 0 .262-.405 0-.405s-.262.405 0 .405zm5.426 0c.262 0 .262-.405 0-.405-.26 0-.26.405 0 .405zm5.429 2.712c.262 0 .262-.405 0-.405s-.262.405 0 .405zm4.219-38.891c.262 0 .262-.405 0-.405-.26 0-.26.405 0 .405zm-3.014 4.219c.261 0 .261-.405 0-.405-.26 0-.262.405 0 .405zm4.524 4.825c.262 0 .262-.406 0-.406s-.262.405 0 .405zm-2.113-1.808c.262 0 .262-.405 0-.405-.259 0-.262.405 0 .405zm1.508-3.619c.262 0 .262-.405 0-.405-.26 0-.26.405 0 .405zm2.714-2.412c.262 0 .262-.405 0-.405s-.262.405 0 .405zm.302-5.426c.262 0 .262-.405 0-.405s-.262.405 0 .405zm1.205-3.619c.262 0 .262-.405 0-.405-.259 0-.262.405 0 .405zm.905-4.522c.262 0 .262-.405 0-.405s-.262.405 0 .405zm.905-5.126c.262 0 .262-.405 0-.405s-.262.405 0 .405zM80.722 45.926c.262 0 .262-.405 0-.405-.26 0-.26.405 0 .405zm3.619-9.648c.262 0 .262-.405 0-.405s-.262.405 0 .405zm0-6.633c.262 0 .262-.405 0-.405s-.262.405 0 .405zm-.302 63.315c.261 0 .261-.405 0-.405-.26 0-.262.405 0 .405zM76.2 98.688c.263 0 .263-.405 0-.405-.261 0-.261.405 0 .405zm-8.14 6.936c.262 0 .262-.405 0-.405s-.262.405 0 .405zm2.11-3.017c.261 0 .261-.405 0-.405-.26 0-.26.405 0 .405zm-7.236 2.715c.262 0 .262-.405 0-.405-.26 0-.26.405 0 .405zm-5.729.302c.262 0 .262-.405 0-.405-.26 0-.26.405 0 .405zM43.94 51.654c.263 0 .263-.405 0-.405-.261 0-.261.405 0 .405zm-4.22-8.44c.261 0 .261-.405 0-.405-.263 0-.263.405 0 .405zm1.506-12.664c.262 0 .262-.406 0-.406-.259 0-.262.405 0 .405zm8.444-9.948c.261 0 .261-.405 0-.405-.263 0-.263.405 0 .405zm10.852-3.922c.262 0 .262-.405 0-.405-.26 0-.26.405 0 .405zm16.883 1.207c.262 0 .262-.405 0-.405-.26 0-.26.405 0 .405zm2.112 3.92c.262 0 .262-.405 0-.405s-.262.405 0 .405zM54.793 20.3c.262 0 .262-.405 0-.405-.26 0-.26.405 0 .405zm-9.648 6.028c.262 0 .262-.405 0-.405-.259 0-.259.405 0 .405zm-4.521 8.745c.262 0 .262-.405 0-.405s-.262.405 0 .405zm2.109 11.455c.262 0 .262-.405 0-.405-.259 0-.262.405 0 .405zm5.729 7.538c.262 0 .262-.405 0-.405-.26 0-.262.405 0 .405zm19.295 0c.262 0 .262-.405 0-.405-.259 0-.259.405 0 .405zm9.348-1.809c.262 0 .262-.405 0-.405s-.262.405 0 .405zm-5.126-4.824c.262 0 .262-.405 0-.405-.26 0-.262.405 0 .405zm5.426-6.029c.262 0 .262-.405 0-.405-.26 0-.26.405 0 .405zm6.936-8.442c.262 0 .262-.406 0-.406s-.262.406 0 .406zm.299 6.935c.263 0 .263-.405 0-.405-.258 0-.258.405 0 .405zm-.601 4.219c.261 0 .261-.405 0-.405-.26 0-.262.405 0 .405zm33.164-28.34c.262 0 .262-.406 0-.406-.259 0-.259.406 0 .406zm-3.014-7.236c.262 0 .262-.405 0-.405s-.262.405 0 .405zm-5.729-1.807c.262 0 .262-.405 0-.405s-.262.405 0 .405zm-7.838.602c.262 0 .262-.405 0-.405s-.262.405 0 .405zm18.391 18.391c.262 0 .262-.405 0-.405s-.262.405 0 .405zm-2.11 4.524c.262 0 .262-.405 0-.405s-.262.405 0 .405zM69.4 37.256a1.756 1.756 0 100-3.512 1.756 1.756 0 000 3.512zm-12.695-1.621a1.756 1.756 0 100-3.511 1.756 1.756 0 000 3.511z" fill="#000"/><path d="M59.728 120.622l-2.534-6.412 6.042-1.342 9.127-2.366 9.04-3.692 8.318-3.889 9.478-5.915 4.086-3.587 3.101 2.088 3.392 1.75.368.445-4.063 3.206-7.686 5.246-10.75 6.282-8.964 4.205-7.911 2.574-5.283.962-5.761.445z" fill="#000"/></svg>