<svg width="173" height="141" fill="none" xmlns="http://www.w3.org/2000/svg"><path d="M107.112 110.627s-6.828 5.502-9.1 7.111a1321.247 1321.247 0 01-6.788 4.746l-7.393 4.459-5.897 3.135-4.546 2.329-4.314 1.727-3.25.806-2.302.173s-2.492-.019-4.709-1.116c-2.216-1.098-3.435-2.459-4.207-4.574-.773-2.114-.326-4.512-.062-5.346.265-.834 1.368-2.97 1.368-2.97l-.503-.123s-.539.133-1.368-.283c-.83-.416-2.485-2.689-3.048-4.749-.562-2.06-.531-2.833-.468-4.073.064-1.241.483-2.672.886-3.331.402-.66 1.853-1.756 1.853-1.756l.595-.321-2.882-1.063-3.639-1.739-5.521-3.204-4.217-3.22-2.448-2.64-2.013-2.799-1.609-3.348-.805-2.93-.13-2.284.014-2.334.562-2.734 1.56-4.262 1.03-2.67.465-1.833.194-1.833-.466-2.155-1.174-2.074-1.576-1.53-1.434-.826-17.112 1.24s-1.84.258-4.86-.35c-3.02-.607-4.51-2.19-4.51-2.19L1.85 57.982l-.626-1.657-.13-1.306.397-.924 1.356-.557-.007-.154.05-.83-.083-.951 13.748-.591 7.095-.092-.463-1.248-6.24-3.114-5.805-2.707-5.982-2.533-.753-.612.229-1.528.425-1.07-.758-.515-.459-.657-.014-.759.272-.628.716-1.33 1.545-1.789s1.973-1.344 4.477-1.732c2.502-.385 5.278.015 6.594.23 1.316.215 12.902 3.054 12.902 3.054l.05-.574s-.038-1.382.231-1.958c.27-.577.967-1.529.967-1.529s.196-1.595.014-2.433c-.182-.84-.622-3.081-.366-4.116.255-1.035.84-1.826.84-1.826l.159-5.831s.158-1.472.34-1.668c.182-.194.34-.463.34-.463l-.208-1.472s-.096-3.63.147-4.92.645-2.177 1.035-2.239c.39-.061.84.012 1.278.499.437.486 1.205 2.702 1.205 2.702l.451 1.158h.718l.51 1.205.707 5.453s.669.316 1.12 1.29c.451.973.912 2.641 1.047 3.652.134 1.012.134 1.839.134 1.839s1.023 2.081 1.267 3.969c.243 1.887.134 4.09.134 4.09s1.68.62 2.356 1.32c.675.702 1.33 2.599 1.346 3.291.015.69-.196 3.152-.196 3.152s3.346 1.59 5.073 2.882c1.725 1.29 2.58 2.627 2.58 2.627s2.266-.465 4.248-.555c1.98-.09 2.511-.123 2.577.003.069.125.168.538-.167 1.668-.338 1.129-2.27 6.639-2.27 6.639l.928 3.29 1.138 9.751 5.212.253 1.16-.484s2.975-1.498 4.853-3.209c1.878-1.71 3.525-3.461 5.34-6.015 1.814-2.554 3.841-5.17 5.022-6.332 1.182-1.162 5.55-5.044 5.55-5.044l.655-.465s-1.226-1.262-2.12-2.772c-.893-1.51-1.965-3.822-2.513-6.029-.549-2.207-.69-4.848-.69-4.848s.016-3.518.524-5.81c.508-2.291 1.278-4.812 2.59-6.894 1.311-2.081 1.977-2.939 3.744-4.812 1.768-1.874 5.654-3.745 5.654-3.745s2.87-1.33 5.583-1.418c2.712-.087 6.509.227 8.609 1.12 2.101.893 4.952 1.907 7.719 4.06 2.767 2.151 5.337 4.375 7.56 7.595 2.223 3.22 2.713 4.357 3.764 7.017 1.051 2.66 1.207 6.58 1.207 7.577v1.864s1.448.555 2.053 1.642c.605 1.089.808 2.847.529 4.193-.281 1.347-.786 2.902-1.542 3.537a3.404 3.404 0 01-2.826.766c-1.099-.185-2.07-.96-2.07-.96s-.226 1.9-.85 2.64c-.624.739-2.323 2.024-3.787 2.542-1.468.52-1.973.661-1.973.661l1.311 1.874 1.503 2.41 1.405 3.064 1.869 4.702 2.878 7.264 1.703 4.478.437 2.176-.08 1.949-.697 2.466.936-.697 2.766-2.825 3.84-2.687 3.621-1.611 4.118-.895s3.065-.18 6.148.756c3.083.935 4.697 2.03 5.97 2.906 1.274.876 2.386 1.776 4.737 4.467s3.539 5.784 3.539 5.784 1.229 3.305 1.271 5.212c.043 1.907-.212 5.276-1.419 7.267-1.208 1.992-2.67 4.662-2.67 4.662l-3.75 4.576-3.284 4.068-1.715 2.987-.678 2.351-.149 2.076.636 2.627 1.42 2.226 1.8 1.715 1.519 1.002 1.233.567 1.822.551 2.183.148 1.59-.297 1.864-.806 2.351-1.885.827-.7-.785 1.801-2.435 3.558-2.67 2.944-5.826 5.063-6.377 1.757-2.691.171-3.369-.298-3.579-.742-3.008-1.229s-2.5-1.164-4.725-3.347c-2.226-2.183-2.987-3.391-3.835-4.726-.848-1.334-1.441-2.542-1.991-4.704-.551-2.161-.319-5.677-.319-5.677s.276-3.241.827-4.978c.55-1.736 1.885-4.555 1.885-4.555l2.077-2.648 2.584-2.205 2.543-1.462 4.299-1.779 2.862-1.335 1.701-.957 1.616-1.205s1.835-1.425 3.286-3.697c1.453-2.273 1.67-4.877 1.67-4.877s-.054-2.247-.739-3.452c-.685-1.204-1.659-2.842-3.74-4.266-2.082-1.425-4.631-1.808-4.631-1.808s-3.095-.357-4.739.029c-1.645.382-4.298 1.736-5.252 2.617-.955.882-2.193 2.155-2.379 2.566-.187.411-1.574 2.901-1.574 2.901s2.02 1.413 2.483 3.447c.463 2.035-.111 4.378-.883 5.838-.775 1.46-2.765 4.333-4.733 5.905-1.968 1.568-4.465 2.941-6.565 3.869-2.101.929-4.82 1.614-7.804 2.08-2.984.465-5.871.276-5.871.276l-.083.317z" fill="#fff"/><path d="M127.345 36.414c1.474-.595 3.1.022 4.064 1.243 1.316 1.67 1.132 4.111.562 6.032-.505 1.706-1.621 3.086-3.515 3.128-2.169.05-3.802-1.52-5.127-3.048-.149-.172.101-.423.25-.25 1 1.153 2.134 2.358 3.65 2.785 2.198.617 3.795-.663 4.4-2.71.465-1.57.652-3.378-.034-4.909-.706-1.578-2.471-2.608-4.155-1.93-.211.087-.303-.255-.095-.34z" fill="#000"/><path d="M129.223 36.573c.74-8.361-3.449-16.302-9.587-21.76-6.719-5.977-16.845-9.916-25.42-5.564-7.692 3.903-11.883 12.531-11.47 20.97.423 8.62 5.763 15.974 13.39 19.792 4.665 2.337 9.929 3.211 15.115 2.816a34.275 34.275 0 007.99-1.597c2.772-.9 6.268-2.041 6.11-5.575-.009-.23.345-.227.355 0 .094 2.119-1.09 3.664-2.937 4.583-2.209 1.099-4.69 1.805-7.097 2.31-4.919 1.033-10.105 1.007-14.953-.377-8.369-2.391-15.563-8.85-17.67-17.448-2.084-8.494.678-18.03 7.579-23.567 3.534-2.835 7.884-4.347 12.425-4.116 4.853.248 9.55 2.219 13.528 4.933 7.96 5.43 13.873 14.705 12.997 24.593-.019.231-.373.233-.355.007z" fill="#000"/><path d="M88.419 22.433c-1.9 3.91-1.51 8.564.548 12.337 1.973 3.615 5.399 6.244 9.146 7.825 1.975.834 4.127 1.484 6.272 1.647 2.318.177 4.513-.44 6.557-1.503 1.795-.935 3.461-2.129 5.079-3.338 1.848-1.38 3.624-2.923 4.432-5.148.078-.213.421-.12.343.094-1.165 3.206-4.267 5.221-6.972 7.055-3.104 2.107-6.443 3.62-10.27 3.102-6.476-.874-13.108-4.907-15.634-11.12-1.453-3.578-1.51-7.632.19-11.131.101-.206.408-.026.309.18zm29.008-20.65a32.39 32.39 0 00-7.667 10.998c-.089.21-.394.029-.307-.18a32.595 32.595 0 017.721-11.07c.17-.154.421.097.253.252zm-5.21-.913a26.76 26.76 0 00-4.344 9.05c-.06.22-.4.128-.343-.094A27.056 27.056 0 01111.91.69c.137-.182.444-.005.307.18zm8.503 3.725c.119.021.234.043.352.066.168-.092.378.147.215.279a51.475 51.475 0 00-7.747 7.808c-.141.178-.392-.073-.25-.25a51.49 51.49 0 017.747-7.808l.215.278c-.321.177-.525.159-.78-.12-.156-.17.095-.423.248-.253zm3.334 4.515a26.456 26.456 0 00-7.364 5.595c-.156.167-.407-.083-.251-.25a26.695 26.695 0 017.438-5.65c.201-.106.38.201.177.305zm4.82 32.426a2.76 2.76 0 00-2.59-.3c-.212.08-.304-.262-.094-.342a3.092 3.092 0 012.861.335c.189.128.012.435-.177.307zM39.99 30.2c2.597.117 5.387 1.244 6.089 3.989.382 1.495.39 3.407.04 4.91-.312 1.341-1.248 2.291-2.353 3.052-1.127.775-2.448 1.642-3.823 1.862-1.538.248-3.102-.338-4.397-1.132-2.681-1.644-3.924-4.23-2.96-7.326 1.056-3.398 4.302-5.503 7.813-5.302.227.012.23.368 0 .354-3.627-.208-6.932 2.155-7.66 5.772-.396 1.968.086 3.804 1.581 5.162 1.295 1.177 3.1 2.16 4.881 2.174 1.578.014 3.123-1 4.385-1.871 1.725-1.19 2.308-2.601 2.353-4.688.038-1.807-.047-3.68-1.45-4.999-1.196-1.122-2.909-1.53-4.499-1.602-.227-.01-.229-.363 0-.354zm16.402 23.346c1.77-2.812 3.085-5.878 3.839-9.115.08-.347.215-.53-.06-.782-.162-.151-1.063 0-1.337.007-.89.026-1.779.087-2.665.189a31.847 31.847 0 00-5.613 1.181c-.22.066-.312-.276-.095-.342a32.47 32.47 0 0110.155-1.38c.12.002.194.11.17.224a30.487 30.487 0 01-4.09 10.197c-.118.192-.425.014-.304-.18z" fill="#000"/><path d="M53.197 44.079a22.396 22.396 0 00-6.946-4.879c-.208-.095-.028-.4.18-.307a22.67 22.67 0 017.017 4.935c.158.163-.093.414-.25.25zm-20.819-9.434c-5.08-1.193-10.154-2.573-15.284-3.547-4.5-.855-10.263-.618-12.616 4.05-.102.203-.409.024-.307-.18 2.084-4.132 7.031-5.03 11.225-4.5 2.698.34 5.348 1.077 7.992 1.698L32.47 34.3c.224.057.13.397-.092.345zm-7.615 11.456c2.082-.46 4.225.518 5.004 2.561.728 1.912.022 4.487-2.37 4.371-2.192-.106-4.394-1.5-4.408-3.87-.007-1.228 1.356-4.567 2.998-3.062.168.154-.083.404-.25.25l-1.347.159c-.2.21-.369.444-.506.695a4.328 4.328 0 00-.448 1.117c-.194.81-.09 1.746.34 2.462.76 1.264 2.899 2.209 4.392 1.845 1.904-.465 1.743-3.126.976-4.453-.865-1.498-2.654-2.094-4.286-1.732-.222.047-.317-.293-.095-.343z" fill="#000"/><path d="M23.27 48.405c-4.394-1.505-7.929-4.513-11.818-6.94a29.969 29.969 0 00-2.95-1.639c-1.075-.513-2.257-.803-3.313-1.344-1.172-.6-2.13-2.06-1.044-3.209.156-.165.406.085.25.25-2.003 2.12 3.161 3.45 4.456 4.079 1.633.794 3.164 1.774 4.664 2.792 3.15 2.134 6.211 4.425 9.85 5.67.215.074.123.416-.095.34zm34.55 3.258c1.017 1.732 1.144 3.823 1.383 5.776.272 2.238.472 4.482.73 6.72.517 4.465 1.285 8.97 3.237 13.06 1.81 3.797 4.597 6.906 8.366 8.834 3.707 1.895 7.881 2.648 11.983 3.1.224.023.227.38 0 .354-6.056-.666-12.482-2.072-16.893-6.594-4.569-4.688-6.121-11.348-6.913-17.635-.271-2.161-.47-4.33-.71-6.494-.254-2.283-.3-4.912-1.49-6.942-.115-.198.192-.378.308-.18zm-25.593 9.36l-13.536.957c-4.058.288-8.606 1.104-12.53-.354-2.512-.936-4.856-3.088-5.158-5.871-.14-1.28.286-2.027 1.57-2.292 2.047-.42 4.192-.572 6.266-.796a174.064 174.064 0 0115.09-.957c.23-.005.23.35 0 .354-4.888.102-9.771.397-14.634.91a179.713 179.713 0 00-5.868.72c-.492.071-1.167.095-1.59.39-1.068.74-.345 2.7.122 3.594.43.822 1.047 1.536 1.756 2.13 3.716 3.127 9.117 2.236 13.573 1.92l14.934-1.057c.232-.019.232.336.005.352z" fill="#000"/><path d="M5.09 38.47c-.1.413-.312.914-.324 1.344-.27.59-.035 1.066.704 1.422l.629.248c.772.308 1.543.624 2.308.946a138.52 138.52 0 014.924 2.192c3.385 1.58 6.712 3.28 10.027 5.002.203.106.023.41-.18.307-3.842-1.999-7.704-3.962-11.65-5.75a131.52 131.52 0 00-6.155-2.604c-.356-.14-.852-.25-1.049-.624-.352-.673.263-1.92.421-2.578.057-.22.4-.127.345.095zM2.638 52.905c.255.137-.088-1.153-.114-1.259a.18.18 0 01.17-.224c6.934-.336 13.869-.633 20.81-.638.23 0 .23.354 0 .354a313.91 313.91 0 00-11.057.21c-1.744.062-3.485.137-5.228.215-.896.04-1.794.083-2.689.126-.321.016-1.269-.097-1.477.163-.205.257.095.95.168 1.278a.18.18 0 01-.17.224c-.35.017-.29.026-.598-.14-.196-.112-.016-.417.185-.309zm92.434 29.831c-1.25-3.046-4.806-3.717-7.367-1.862-2.381 1.722-3.463 4.763-3.355 7.626a10.1 10.1 0 003.455 7.202c2.355 2.06 5.32 2.584 8.36 2.667.228.007.23.362 0 .354-3.394-.092-6.643-.775-9.124-3.248-2.303-2.297-3.392-5.571-2.957-8.794.385-2.868 2.04-5.774 4.838-6.877 2.627-1.035 5.434.264 6.493 2.842.085.205-.258.298-.343.09z" fill="#000"/><path d="M119.402 51.845c2.956 3.466 4.397 7.938 6.063 12.106.985 2.466 1.972 4.93 2.957 7.397.856 2.136 1.862 4.324 1.926 6.662.109 3.967-2.412 7.528-5.377 9.928-1.718 1.39-3.634 2.507-5.564 3.57-2.011 1.108-3.993 2.408-6.079 3.357-2.415 1.101-5.276 1.39-7.856 1.933l-9.013 1.897c-.222.047-.317-.295-.095-.342 4.65-.979 9.307-1.924 13.949-2.935 2.384-.52 4.276-1.665 6.382-2.83 1.861-1.03 3.756-2.006 5.554-3.147 3.584-2.273 7.055-5.574 7.66-9.992.314-2.287-.409-4.434-1.238-6.535-.884-2.235-1.784-4.463-2.677-6.695-1.907-4.77-3.454-10.152-6.842-14.124-.147-.172.101-.423.25-.25z" fill="#000"/><path d="M91.157 84.597c4.357-.13 8.406-1.29 12.35-3.102 3.123-1.434 6.319-3.194 7.94-6.374.104-.203.409-.023.307.18-1.646 3.232-4.888 5.041-8.068 6.501-3.995 1.836-8.113 3.02-12.527 3.15-.229.007-.229-.347-.002-.355z" fill="#000"/><path d="M109.999 76.673c.09-1.557-1.871-3.414-2.878-4.415-1.153-1.149-2.464-2.103-3.884-2.892-.198-.111-.021-.418.18-.307 1.668.928 3.185 2.086 4.479 3.492.95 1.03 2.545 2.63 2.457 4.122-.011.227-.366.227-.354 0z" fill="#000"/><path d="M106.424 71.223a17.496 17.496 0 01-1.446-3.218c-.073-.218.27-.31.343-.095a16.922 16.922 0 001.41 3.133c.112.198-.193.376-.307.18zM30.497 50.162c3.176 4.052 6.266 8.187 9.566 12.137 3.018 3.61 6.488 6.934 11.086 8.347 2.56.787 5.247 1.174 7.874 1.673l7.795 1.479c5.098.966 10.364 1.67 15.3 3.317 2.535.846 5.013 1.992 7.253 3.459 1.479.968 3.024 2.381 2.64 4.311-.046.225-.388.13-.343-.094.54-2.698-3.093-4.38-5.026-5.384-2.197-1.14-4.517-1.997-6.908-2.635-4.865-1.3-9.902-2.046-14.844-2.984l-7.794-1.479c-2.375-.45-4.794-.831-7.07-1.672-3.81-1.413-6.849-4.192-9.471-7.216-3.62-4.174-6.904-8.663-10.31-13.01-.137-.175.11-.426.252-.249zm-.309 10.888a7.916 7.916 0 013.927 4.408c.796 2.228.335 4.505-.485 6.656-.985 2.594-2.157 5.077-2.658 7.83a16.01 16.01 0 00.81 8.635c2.028 5.294 6.304 9.235 10.982 12.233 4.723 3.029 9.958 5.614 15.499 6.684 3.173.612 6.405.664 9.556 1.417 1.55.371 3.079.82 4.622 1.208 1.519.382 3.083.588 4.593 1.009.22.061.125.404-.095.342-1.302-.361-2.646-.539-3.96-.853-1.408-.338-2.8-.739-4.2-1.101-3.003-.775-6.025-.999-9.082-1.427-5.361-.751-10.38-3-15.026-5.701-4.315-2.507-8.46-5.592-11.23-9.816-2.852-4.35-3.775-9.359-2.431-14.4.791-2.968 2.483-5.687 3.038-8.711a7.5 7.5 0 00-4.04-8.109c-.203-.101-.023-.406.18-.305z" fill="#000"/><path d="M76.922 110.839c2.302 1.12 4.81.99 7.282.68 2.403-.3 4.742-.642 7.173-.52 2.667.135 5.235.385 7.893-.059 2.403-.404 4.697-.758 7.143-.777 4.935-.035 9.837-.473 14.452-2.36 4.179-1.711 7.98-4.567 10.383-8.432 1.444-2.328 2.566-5.444 1.226-8.069-1.164-2.287-3.749-3.366-5.998-4.28-.208-.086-.118-.428.094-.343 3.783 1.538 7.523 3.806 6.741 8.496-.74 4.448-4.352 8.259-7.974 10.667-4.189 2.785-9.165 4.111-14.135 4.522-2.989.246-6.013-.024-8.985.418-2.748.409-5.29.912-8.088.754-1.68-.095-3.357-.274-5.041-.208-1.5.059-2.987.3-4.473.496-2.677.35-5.375.539-7.867-.676-.208-.104-.029-.409.174-.309zM129.5 81.774c4.191-4.98 10.209-8.99 16.949-8.746 6.483.233 12.432 4.2 16.156 9.35 1.968 2.722 3.409 5.914 3.792 9.272.404 3.539-.657 6.764-2.344 9.835-1.805 3.287-4.187 6.018-6.622 8.839-2.644 3.062-5.333 6.969-4.333 11.241.959 4.104 5.4 7.44 9.582 7.393 4.855-.055 8.083-4.322 9.058-8.685.05-.222.393-.128.343.094-.721 3.223-2.469 6.273-5.448 7.884-2.859 1.545-6.07 1.252-8.85-.328-2.561-1.458-4.711-3.958-5.156-6.939-.51-3.412 1.179-6.663 3.209-9.276 2.436-3.137 5.245-5.876 7.293-9.313 2.115-3.549 3.483-7.272 2.816-11.447-1.176-7.376-7.236-13.994-14.166-16.5-8.392-3.036-16.597 1.129-22.026 7.579-.149.172-.397-.08-.253-.253z" fill="#000"/><path d="M130.478 88.897c2.37-6.695 9.883-10.208 16.507-7.517 3.105 1.261 6.042 3.91 6.694 7.324.673 3.525-1.595 7.243-4.036 9.608-2.785 2.701-6.473 3.941-9.958 5.456-3.806 1.653-7.026 3.891-8.952 7.678-1.85 3.636-2.507 7.981-2.263 12.028.283 4.697 3.144 8.82 6.511 11.948 3.842 3.572 8.921 4.994 14.079 5.117 5.131.123 10.627-1.38 13.493-5.973.12-.193.427-.016.307.18-4.295 6.885-14.188 7.213-21.171 4.987-3.795-1.209-6.876-3.586-9.361-6.66-2.561-3.166-4.201-6.516-4.246-10.641-.04-3.631.558-7.378 2.112-10.681 1.581-3.36 4.166-5.779 7.462-7.431 3.423-1.715 7.236-2.726 10.334-5.05 3.475-2.611 6.78-7.61 4.857-12.026-1.928-4.426-7.142-6.835-11.799-6.394-4.664.442-8.678 3.773-10.225 8.149-.078.206-.421.113-.345-.102z" fill="#000"/><path d="M171.949 120.485c.241.955-.225 1.73-.636 2.571-.654 1.337-1.28 2.693-1.961 4.016-.687 1.335-1.618 2.54-2.551 3.709-2.101 2.63-4.444 5.47-7.237 7.393-.189.13-.366-.177-.18-.307 2.531-1.744 4.652-4.286 6.594-6.637.969-1.171 1.933-2.379 2.713-3.69.446-.751.798-1.557 1.181-2.339.579-1.186 2.077-3.279 1.734-4.624-.057-.219.286-.314.343-.092z" fill="#000"/><path d="M129.575 88.189c1.435-4.05 4.785-7.374 8.844-8.777 4.061-1.404 8.746-.86 12.377 1.436 2.242 1.418 4.125 3.565 4.728 6.15.397 1.699.224 3.485-.142 5.19-.364 1.709-.928 3.396-1.88 4.86-2.616 4.024-7.589 5.692-11.369 8.648-5.886 4.599-8.706 12.788-6.904 20.039 1.803 7.251 8.85 13.58 16.208 14.887 0 0 4.127.12 8.269-2.835 4.144-2.958 5.084-5.103 5.084-5.103-3.957 1.883-8.867 1.162-12.5-1.288-3.634-2.45-6.063-6.426-7.242-10.648-.489-1.746-.779-3.596-.409-5.371.315-1.495 1.08-2.854 1.895-4.148a50.71 50.71 0 013.421-4.794c1.519-1.888 3.18-3.671 4.499-5.703 1.429-2.202 2.428-4.657 3.213-7.164.756-2.414 1.323-4.959.978-7.466-.598-4.342-4.026-8.028-8.175-9.438-4.148-1.41-8.85-.709-12.703 1.382-3.854 2.09-7.263 5.637-9.481 9.417l1.289.726zM30.252 33.707c-.454-1.985.794-3.688 2.35-4.791 1.014-.716 2.146-1.243 3.166-1.95a10.447 10.447 0 002.935-3.111c.6-.969 1.876-2.486 2.78-.886.586 1.035.761 2.476.94 3.631a22.06 22.06 0 01.232 4.045c-.007.227-.361.23-.354 0 .066-2.204-.147-4.442-.794-6.558-.21-.693-.387-1.834-1.675-1.189-.343.17-.525.664-.728.978-.41.631-.812 1.245-1.32 1.803-1.054 1.155-2.337 1.928-3.674 2.712-1.874 1.099-4.08 2.731-3.513 5.221.05.225-.293.32-.345.095z" fill="#000"/><path d="M31.223 30.302c.954-2.362-.674-4.755-.125-7.158.477-2.1 2.535-3.161 4.051-4.44.782-.659 2.677-3.709 3.953-2.948.725.432 1.106 2.003 1.37 2.762.456 1.316.716 2.674.832 4.061.019.227-.336.227-.355 0a16.336 16.336 0 00-.69-3.577c-.337-1.06-1.018-3.763-2.565-2.44-.678.58-1.17 1.349-1.812 1.965-.558.537-1.191.988-1.805 1.453-.799.61-1.647 1.25-2.176 2.127-.643 1.067-.622 2.251-.437 3.442.252 1.633.746 3.244.099 4.848-.083.21-.425.118-.34-.095z" fill="#000"/><path d="M31.82 21.599c.11-2.233 0-4.608.362-6.81.127-.777.508-1.301 1.087-1.821.893-.8 1.715-1.538 2.372-2.563.392-.612 1.172-2.02 2.043-1.13.636.65.6 2.086.738 2.92.189 1.142.354 2.287.5 3.436.029.224-.326.224-.354 0a91.412 91.412 0 00-.413-2.89c-.111-.692-.097-1.86-.435-2.471.007-.428-.241-.527-.744-.295-.433-.18-.71-.088-.83.276-.215.191-.356.581-.526.818-.35.486-.742.94-1.177 1.353-.413.392-.9.718-1.285 1.141-.801.882-.69 2.096-.745 3.209-.077 1.609-.158 3.22-.236 4.829-.014.224-.368.227-.357-.002z" fill="#000"/><path d="M32.621 13.63c-.09-1.73-.18-3.469-.033-5.198.08-.964.05-2.875.92-3.504 1.904-1.38 3.194 3.419 3.397 4.447.045.222-.298.319-.343.094-.215-1.08-.548-2.148-1.1-3.104-.388-.671-1.062-1.992-2.11-.435-.256.38-.256 1.224-.317 1.67-.267 2.001-.163 4.024-.062 6.032.014.225-.34.225-.352-.002zm-6.528 34.73a1.534 1.534 0 011.718.354c.432.442.612 1.305.047 1.727-1.1.825-2.712-1.443-1.672-2.336.172-.15.422.101.25.25-.77.662.576 2.41 1.26 1.763.36-.34.091-.952-.211-1.22-.328-.29-.806-.408-1.217-.229-.203.088-.383-.217-.175-.31zm55.505 8.444c-4.198 4.335-5.54 10.8-7.333 16.37-.069.217-.412.123-.343-.094 1.812-5.633 3.175-12.14 7.423-16.527.163-.165.414.085.253.25zm-8.342 20.037a81.747 81.747 0 01-1.99 8.7c-.063.219-.404.124-.342-.095a81.747 81.747 0 001.99-8.7c.04-.222.38-.127.342.095zm14.291-32.803c-1.977 1.617-3.924 3.275-5.708 5.104-1.987 2.039-3.584 4.32-5.198 6.653-2.745 3.969-6.24 7.144-10.629 9.207-.206.097-.385-.208-.18-.307 4.827-2.268 8.277-5.81 11.244-10.166 2.842-4.175 6.32-7.556 10.22-10.743.175-.14.428.108.251.252zm19.889 66.567c-10.16 8.55-21.368 15.865-33.337 21.625-4.985 2.398-11.088 4.612-16.264 1.439-4.595-2.816-4.765-8.652-1.947-12.841 1.805-2.684 4.579-4.55 7.386-6.055 3.26-1.746 6.681-3.211 10.145-4.503.215-.081.307.262.094.342a89.394 89.394 0 00-8.687 3.759c-2.502 1.25-4.983 2.663-6.977 4.654-4.066 4.059-5.264 11.277.452 14.509 5.455 3.083 11.673.34 16.753-2.162a158.597 158.597 0 0015.657-8.852 159.6 159.6 0 0016.472-12.163c.175-.149.427.099.253.248z" fill="#000"/><path d="M55.673 121.168c-3.194.56-4.888-4.491-5.212-6.861-.385-2.816.161-6.679 3.152-7.874.213-.085.305.257.095.342-2.623 1.049-3.185 4.451-2.956 6.946.13 1.418.513 2.805 1.155 4.076.68 1.351 1.89 3.345 3.674 3.033.222-.042.317.3.092.338zm87.138 16.966c-.44-.177-.879-.354-1.319-.529-.208-.085-.118-.428.095-.343.439.177.879.355 1.318.529.208.085.118.428-.094.343zm-4.305-2.927l-.791-.792c-.161-.161.089-.411.25-.25l.792.791c.16.161-.09.411-.251.251zm-3.492-4.232c-.357-.522-.716-1.046-1.072-1.569-.13-.189.177-.366.307-.179.356.522.716 1.046 1.072 1.569.128.189-.179.366-.307.179zm-2.977-6.795c-.229 0-.229-.354 0-.354s.229.354 0 .354zm0-6.064c-.229 0-.229-.355 0-.355s.229.355 0 .355zm1.846-5.538c-.23 0-.23-.355 0-.355.229 0 .229.355 0 .355zm1.719-3.946l1.054-1.847c.114-.199.418-.019.307.179l-1.053 1.848c-.114.198-.421.021-.308-.18zm3.821-2.384c-.229 0-.229-.354 0-.354.227 0 .227.354 0 .354zm3.69-2.729h.527c.229 0 .229.355 0 .355h-.527c-.227 0-.227-.355 0-.355zm3.431-.699c-.229 0-.229-.354 0-.354.227 0 .227.354 0 .354zm3.116-3.513c.265-.088.527-.175.791-.265.218-.073.31.27.095.343-.265.087-.527.175-.792.264-.217.071-.309-.271-.094-.342zm3.213-1.763c-.229 0-.229-.354 0-.354.227 0 .227.354 0 .354zm13.809 32.163c-.264.174-.526.352-.791.526-.191.128-.369-.179-.18-.307.265-.175.527-.352.792-.527.191-.125.368.182.179.308zm-5.107 1.594c-.23 0-.23-.354 0-.354.229 0 .229.354 0 .354zm-4.572-1.077l-1.056-.527c-.203-.102-.024-.409.179-.307l1.056.527c.204.101.024.408-.179.307zm-4.13-3.142c-.229 0-.229-.355 0-.355.227 0 .227.355 0 .355zm-2.374-2.637c-.23 0-.23-.354 0-.354.229 0 .229.354 0 .354zm-2.11-5.011c-.229 0-.229-.354 0-.354s.229.354 0 .354zm.527-4.22c-.229 0-.229-.354 0-.354s.229.354 0 .354zm2.747-5.013c.175-.265.352-.527.527-.792.126-.189.433-.011.307.18-.174.265-.352.527-.526.792-.126.189-.433.011-.308-.18zm2.375-5.276l.527-1.056c.101-.203.408-.023.307.18l-.527 1.056c-.104.203-.409.026-.307-.18zm2.79-6.589c-.229 0-.229-.354 0-.354s.229.354 0 .354zm1.933-4.924v-1.318c0-.23.354-.23.354 0v1.318c0 .227-.354.227-.354 0zm.968-5.625c-.229 0-.229-.355 0-.355.23 0 .23.355 0 .355zm-1.472-5.098c-.264-.352-.526-.705-.791-1.057-.137-.181.17-.359.307-.18.265.353.527.705.792 1.057.137.182-.173.36-.308.18zm-6.61 33.619c.087-.264.175-.527.264-.791.071-.215.414-.123.343.094-.087.265-.175.527-.265.792-.073.215-.415.123-.342-.095zm2.544-6.896c-.229 0-.229-.355 0-.355.227 0 .227.355 0 .355zm2.902-3.693c-.229 0-.229-.354 0-.354.226 0 .226.354 0 .354zm2.109-3.163c-.229 0-.229-.355 0-.355.227 0 .227.355 0 .355zm2.373-3.956c-.23 0-.23-.354 0-.354.229 0 .229.355 0 .355zm1.056-3.957c-.23 0-.23-.354 0-.354.226 0 .229.354 0 .354zm-.265-4.484c-.229 0-.229-.355 0-.355s.229.355 0 .355zm-2.372-5.8c-.229 0-.229-.355 0-.355.227 0 .227.355 0 .355zm-2.901-5.541h-.265c-.092 0-.182-.08-.177-.177.005-.097.078-.177.177-.177h.265c.092 0 .182.08.177.177-.005.097-.078.177-.177.177zm-4.749-1.845c-.229 0-.229-.354 0-.354s.229.354 0 .354zm-3.691-2.464h.265c.092 0 .182.08.177.177a.18.18 0 01-.177.177h-.265c-.092 0-.181-.08-.177-.177a.179.179 0 01.177-.177zm-4.219.354c-.229 0-.229-.354 0-.354.227 0 .227.354 0 .354zm-3.305.475l-.527.527c-.161.16-.411-.09-.251-.25l.527-.527c.163-.16.414.09.251.25zm-4.872 2.599h.264c.093 0 .182.08.178.178a.18.18 0 01-.178.177h-.264c-.092 0-.182-.08-.177-.177a.181.181 0 01.177-.178zm-3.955 2.375h.264c.093 0 .182.08.178.177-.005.097-.078.177-.178.177h-.264c-.092 0-.182-.08-.177-.177a.18.18 0 01.177-.177zm-1.722 2.938l-.265.265c-.066.066-.187.071-.25 0-.064-.07-.071-.18 0-.25l.264-.265c.066-.066.187-.07.251 0a.18.18 0 010 .25zm-1.179 2.162c-.23 0-.23-.354 0-.354.226 0 .226.354 0 .354zm-.667 1.531l-.264.265c-.066.066-.187.07-.251 0-.063-.07-.071-.18 0-.25l.265-.265c.066-.066.187-.07.25 0 .064.07.071.18 0 .25zm7.105-4.916c.014-.085.028-.172.04-.258.014-.092.135-.15.217-.122.099.033.14.12.123.217a11.41 11.41 0 00-.04.257c-.014.093-.135.152-.217.123-.1-.033-.14-.12-.123-.217zm4.375-1.626c-.229 0-.229-.354 0-.354.227 0 .227.354 0 .354zm3.691-.526c-.23 0-.23-.355 0-.355.229 0 .229.355 0 .355zm3.428.265c-.229 0-.229-.355 0-.355s.229.354 0 .354zm1.847 1.317c-.229 0-.229-.354 0-.354.227 0 .229.354 0 .354zm2.375 2.637c-.229 0-.229-.354 0-.354.227 0 .227.354 0 .354zm1.053 1.583c-.229 0-.229-.354 0-.354.23 0 .23.354 0 .354zm1.234-.279l.264.527c.102.203-.203.383-.307.18l-.264-.527c-.102-.206.205-.385.307-.18zm.349 5.026c-.229 0-.229-.355 0-.355.227 0 .227.355 0 .355zm-.791 3.428c-.229 0-.229-.355 0-.355.227 0 .229.355 0 .355zm-21.098 20.044c-.229 0-.229-.354 0-.354.227 0 .227.354 0 .354zm-.792 3.955c-.229 0-.229-.354 0-.354.227 0 .23.354 0 .354zm-.791 5.276c-.229 0-.229-.355 0-.355.227 0 .229.355 0 .355zm-.177 3.515v-.264c0-.092.08-.182.177-.177a.179.179 0 01.177.177v.264c0 .092-.08.182-.177.178-.097-.005-.177-.078-.177-.178zm2.022 4.659c-.229 0-.229-.354 0-.354s.229.354 0 .354zm2.639 4.22c-.229 0-.229-.355 0-.355.227 0 .227.355 0 .355zm2.11-.527c-.229 0-.229-.354 0-.354.227 0 .227.354 0 .354zM35.069 7.052l-.662.392c-.196.116-.375-.189-.18-.307l.663-.392c.198-.116.375.191.179.307zm.184.785l-.524.529c-.16.163-.411-.088-.25-.25.174-.178.349-.355.524-.53.16-.163.41.087.25.25zm.3 1.02c-.184.258-.37.513-.555.77-.132.184-.44.007-.307-.18.184-.257.37-.512.555-.77.135-.181.442-.004.307.18zm.18 1.236a22.98 22.98 0 00-.395.264c-.08.052-.196.017-.243-.063-.052-.088-.017-.19.064-.244.132-.087.264-.175.394-.264.08-.052.196-.017.244.063a.182.182 0 01-.064.244zm.789 1.828c-.243-.082-.338-.378-.132-.56.172-.15.399.078.25.25a11.93 11.93 0 01-1.677 1.6c-.178.14-.43-.11-.25-.25a12.144 12.144 0 001.677-1.6l.25.25c-.01-.009-.017-.02-.026-.03.218.073.125.416-.092.34zm.198 1.339c-.489.436-.978.868-1.464 1.303-.17.15-.42-.1-.25-.25.488-.436.977-.868 1.464-1.303.17-.15.42.1.25.25zm.26.724a8.295 8.295 0 01-1.334 1.498c-.17.149-.424-.1-.251-.25a7.91 7.91 0 001.28-1.428c.128-.186.435-.01.305.18zm.532 1.056a4.626 4.626 0 01-1.25 1.25c-.189.128-.366-.18-.18-.307a4.16 4.16 0 001.123-1.123c.127-.186.434-.009.307.18zm-.855 1.779c-.527.265-1.056.527-1.583.791-.203.102-.383-.203-.18-.307l1.583-.791c.203-.102.383.203.18.307zm1.105 1.248a8.307 8.307 0 01-3.191 3.279c-.199.113-.376-.192-.18-.307a7.95 7.95 0 003.064-3.155c.111-.196.416-.018.307.183zm1.527.708a8.998 8.998 0 01-3.053 2.743c-.2.109-.378-.196-.18-.307a8.564 8.564 0 002.925-2.615c.13-.184.438-.007.308.18zm.04 1.838a13.427 13.427 0 01-2.935 2.273c-.198.114-.375-.191-.18-.307a13.104 13.104 0 002.862-2.218c.16-.161.411.09.253.252zm-.529 1.583a17.413 17.413 0 01-2.8 2.54c-.184.135-.362-.172-.18-.307 1-.73 1.907-1.56 2.727-2.485.153-.17.404.082.253.252zm-.894 2.339a7.779 7.779 0 01-1.776 1.777c-.184.132-.362-.175-.18-.307a7.254 7.254 0 001.652-1.652c.13-.182.437-.004.304.182zm1.231 1.179c.074-.333.239-.555.527-.732.147-.09.343.094.244.243a6.344 6.344 0 01-3.034 2.408c-.213.082-.305-.26-.095-.343a5.949 5.949 0 002.824-2.244l.243.243a.645.645 0 00-.364.52c-.052.222-.394.13-.345-.095zm.834 1.55l-1.457.912c-.194.12-.371-.184-.18-.307l1.458-.912c.194-.12.37.187.18.307zm-.326 1.564l-2.509.782c-.217.069-.312-.274-.094-.342.836-.26 1.672-.523 2.509-.782.217-.067.312.276.094.342zM9.706 32.514c.442-.555 1.35-.612 1.855-.106.503.503.459 1.403-.042 1.89-.52.505-1.468.5-1.985-.012-.465-.463-.534-1.304.043-1.699.189-.13.366.177.18.307-.43.296-.232.967.131 1.227.423.304 1.097.264 1.444-.14.333-.39.324-1.096-.118-1.406a.938.938 0 00-1.257.19c-.142.179-.392-.074-.25-.251zm47.81 13.098a12.364 12.364 0 01-2.384 4.39c-.146.175-.397-.078-.25-.25a11.853 11.853 0 002.291-4.235c.067-.217.41-.122.343.095z" fill="#000"/><path d="M54.617 50.245c-.267-.527-.531-1.054-.798-1.578-.102-.203.203-.383.307-.18.267.527.531 1.054.798 1.579.102.203-.203.382-.307.18zm.794-1.055l-.794-1.055c-.137-.181.17-.359.307-.18l.794 1.055c.135.181-.172.359-.307.18zm.649-1.182c-.132-.22-.264-.44-.394-.66-.118-.195.19-.373.307-.179.133.22.265.44.395.66.118.195-.19.372-.307.179zm.388-.917l-.397-.527c-.056-.075-.012-.198.064-.243.09-.052.184-.014.243.064.133.174.265.352.397.526.057.076.012.199-.064.244-.09.052-.184.012-.243-.064zm.659-.924l-.397-.527c-.056-.075-.011-.198.064-.243.09-.052.184-.014.244.064l.396.527c.057.075.012.198-.063.243-.09.052-.185.012-.244-.064zM31.2 35.7c-.046.265-.088.528-.133.792-.038.225-.378.13-.343-.094l.133-.792c.037-.224.38-.13.342.095zm-2.236-1.053l-.127.924c-.031.224-.374.13-.343-.095l.128-.923c.03-.225.373-.13.342.094zm-2.632-.392c-.045.175-.087.352-.132.527-.055.222-.397.128-.343-.095l.133-.526c.056-.223.399-.128.342.094zm-2.299-.321l-.132.132c-.066.066-.187.07-.25 0-.064-.07-.071-.18 0-.25l.132-.133c.066-.066.186-.07.25 0a.182.182 0 010 .25zm-2.717-1.182v.265c0 .092-.08.182-.177.177-.097-.005-.177-.078-.177-.177v-.265c0-.092.08-.181.177-.177.095.005.177.078.177.177zm-2.861 0v-.132c0-.092.08-.182.177-.177.097.005.178.078.178.177v.132c0 .092-.08.182-.178.177a.18.18 0 01-.177-.177zm-2.856-.614c-.23 0-.23-.354 0-.354.229 0 .229.354 0 .354zm-2.24-.262c-.23 0-.23-.354 0-.354.227 0 .227.354 0 .354zm-2.459-.402c-.133.045-.265.088-.395.133-.09.03-.194-.036-.217-.123-.026-.097.033-.187.123-.218.132-.045.264-.087.394-.132.09-.03.194.035.217.123.029.094-.03.186-.122.217zm-2.025.664c-.23 0-.23-.354 0-.354.227 0 .229.354 0 .354zm-1.319 1.318c-.229 0-.229-.354 0-.354.227 0 .227.355 0 .355zm-1.188 1.321c-.229 0-.229-.354 0-.354.23 0 .23.354 0 .354zm-.789 1.053c-.23 0-.23-.354 0-.354.227 0 .227.355 0 .355zm1.708 3.906a3.85 3.85 0 01-.59 1.704c-.123.191-.43.014-.308-.18.298-.465.485-.976.544-1.526.023-.222.378-.225.354.002zm3.463 1.765c-.09.447-.254.87-.493 1.257-.118.194-.425.017-.307-.18.224-.366.376-.753.458-1.171.045-.222.388-.128.343.094zm3.001 1.881l-.468 1.08c-.09.207-.394.028-.307-.18l.468-1.08c.092-.208.397-.028.307.18zm2.651 1.715l-.281.383c-.057.078-.154.116-.243.064-.076-.045-.12-.166-.064-.244l.28-.383c.058-.078.154-.115.244-.063.076.047.12.167.064.243zm3.293 1.98l-.132.265c-.042.082-.165.113-.243.063a.182.182 0 01-.064-.243c.045-.087.087-.175.132-.265.043-.082.166-.113.244-.063a.183.183 0 01.063.243zm-14.57 6.034c-.085-.397-.167-.794-.252-1.188-.048-.222.295-.317.342-.095l.253 1.189c.047.222-.295.319-.343.094zm3.433-.527c-.082-.31-.168-.619-.25-.926-.06-.22.28-.314.342-.095l.25.927c.06.22-.283.314-.342.094zm2.807-.139c-.057-.305-.111-.612-.168-.917-.04-.222.3-.319.343-.094.057.304.11.611.168.916.04.222-.303.32-.343.095zm2.344-.44v-.527c0-.229.354-.229.354 0v.527c0 .23-.354.23-.354 0zm3.038-.217c-.045-.132-.087-.265-.132-.394-.031-.09.035-.194.123-.218.096-.026.186.033.217.123.045.132.087.265.132.395.031.09-.035.193-.123.217-.094.028-.186-.03-.217-.123zm2.643.182l-.131-.265c-.043-.082-.024-.196.063-.243.08-.043.199-.026.244.064l.132.264c.042.083.023.196-.064.243-.083.043-.198.024-.243-.063zM2.368 56.754c-.229 0-.229-.354 0-.354.23 0 .23.354 0 .354zm1.144 1.935c-.23 0-.23-.354 0-.354.229 0 .229.354 0 .354zm1.143.967c-.229 0-.229-.355 0-.355.227 0 .23.355 0 .355zm1.583.614c-.229 0-.229-.355 0-.355.227 0 .227.355 0 .355zm2.902 1.143c-.23 0-.23-.354 0-.354.226 0 .226.354 0 .354zm3.78 0c-.23 0-.23-.354 0-.354.226 0 .226.354 0 .354zm2.46-.265c-.23 0-.23-.354 0-.354.228 0 .228.355 0 .355zm4.483-.262c-.229 0-.229-.354 0-.354.23 0 .23.354 0 .354zm3.957-.439c-.229 0-.229-.355 0-.355.227 0 .227.355 0 .355zm2.9-.177c-.23 0-.23-.355 0-.355.229 0 .229.355 0 .355zm2.287-.175c-.23 0-.23-.355 0-.355.226 0 .229.355 0 .355zm2.109.175c-.229 0-.229-.355 0-.355.227 0 .23.355 0 .355zM24.26 49.106c-.23 0-.23-.354 0-.354.227 0 .227.354 0 .354zm.35 1.142c-.23 0-.23-.355 0-.355.229 0 .229.355 0 .355zm.264.616c-.229 0-.229-.354 0-.354.23 0 .23.354 0 .354zm.966.966c-.229 0-.229-.354 0-.354.23 0 .23.355 0 .355zm1.144.352c-.229 0-.229-.354 0-.354.23 0 .23.354 0 .354zm.966.088c-.229 0-.229-.355 0-.355.23 0 .23.355 0 .355zm1.057-.262c-.23 0-.23-.355 0-.355.226 0 .229.355 0 .355zm.439-.53c-.23 0-.23-.354 0-.354.227 0 .23.354 0 .354zm-.616-.526v-.088a.177.177 0 01.302-.125c.03.035.052.078.052.125v.088a.177.177 0 11-.354 0zm-.79.791c-.229 0-.229-.354 0-.354.227 0 .227.354 0 .354zm-1.495-1.056c-.23 0-.23-.354 0-.354.229 0 .229.354 0 .354zm-.967-.702c-.229 0-.229-.354 0-.354.227 0 .227.354 0 .354z" fill="#000"/><path d="M25.401 50.337c-.229 0-.229-.354 0-.354.23 0 .23.354 0 .354zm2.639.967c-.229 0-.229-.355 0-.355.227 0 .227.355 0 .355zm1.054-.265c-.23 0-.23-.355 0-.355s.23.355 0 .355zm.175-.879c-.23 0-.23-.354 0-.354.229 0 .229.354 0 .354zm-.262-1.141c-.23 0-.23-.354 0-.354.226 0 .229.354 0 .354zm30.416-4.132c-.23 0-.23-.355 0-.355.229 0 .229.355 0 .355zm-.44.966c-.229 0-.229-.354 0-.354.23 0 .23.354 0 .354zm-1.143 3.341c-.23 0-.23-.355 0-.355.229 0 .229.355 0 .355zm-1.141 2.988c-.23 0-.23-.354 0-.354.226 0 .226.354 0 .354zM105.73 9.656c-.229 0-.229-.355 0-.355s.229.355 0 .355zm3.56 1.384c-.229 0-.229-.354 0-.354s.229.354 0 .354zm3.561 1.583h-.199c-.092 0-.182-.08-.177-.177.005-.097.078-.177.177-.177h.199c.092 0 .182.08.177.177-.005.097-.078.177-.177.177zm2.572 1.385c-.229 0-.229-.355 0-.355.227 0 .227.355 0 .355zm2.571 1.384c-.229 0-.229-.354 0-.354.227 0 .229.354 0 .354zm1.977 1.978c-.229 0-.229-.355 0-.355.23 0 .23.354 0 .354zm2.571 2.374c-.229 0-.229-.354 0-.354s.229.354 0 .354zm1.387 1.977c-.229 0-.229-.354 0-.354.227 0 .227.354 0 .354zm1.384 2.571c-.229 0-.229-.355 0-.355.227 0 .227.355 0 .355zm1.978 3.758c-.229 0-.229-.354 0-.354.227 0 .227.355 0 .355zm.987 3.167c-.229 0-.229-.355 0-.355.23 0 .23.355 0 .355zm.199 2.769c-.229 0-.229-.355 0-.355s.229.355 0 .355zm-.199 1.977c-.229 0-.229-.354 0-.354.23 0 .23.354 0 .354zm.792 2.375h-.199c-.092 0-.182-.08-.177-.178.005-.096.078-.177.177-.177h.199c.092 0 .182.08.177.177-.005.095-.078.178-.177.178zm1.977 1.779c-.229 0-.229-.355 0-.355.23 0 .23.355 0 .355zm.397 1.583c-.229 0-.229-.355 0-.355.227 0 .229.355 0 .355zm-.593 2.176c-.229 0-.229-.355 0-.355.227 0 .227.355 0 .355zm-.593.394c-.229 0-.229-.354 0-.354.227 0 .227.354 0 .354zm-1.781 1.188c-.229 0-.229-.354 0-.354s.229.354 0 .354zm-1.385-1.188c-.229 0-.229-.354 0-.354.23 0 .23.354 0 .354zm-1.977-1.384c-.229 0-.229-.355 0-.355.227 0 .229.355 0 .355zm-.792.593c-.229 0-.229-.355 0-.355.227 0 .23.355 0 .355zm4.154-.197c-.229 0-.229-.354 0-.354s.229.355 0 .355zm-32.044 6.131c-.23 0-.23-.354 0-.354s.23.355 0 .355zm3.957 1.385c-.229 0-.229-.354 0-.354.227 0 .227.354 0 .354zm3.561 1.186c-.229 0-.229-.354 0-.354.226 0 .226.354 0 .354zm3.163-.593h-.198c-.092 0-.182-.08-.177-.177a.179.179 0 01.177-.177h.198c.092 0 .182.08.177.177a.18.18 0 01-.177.177zm2.769 1.186c-.229 0-.229-.354 0-.354s.229.354 0 .354zm4.352-.987c-.229 0-.229-.355 0-.355s.229.354 0 .354zm3.362-.792c-.229 0-.229-.354 0-.354s.229.354 0 .354zm2.176-.593c-.229 0-.229-.354 0-.354s.229.354 0 .354zm2.374-.792c-.229 0-.229-.354 0-.354.23 0 .23.355 0 .355zm2.375-2.768c-.229 0-.229-.355 0-.355.227 0 .227.355 0 .355zM108.499 50.6c-.23 0-.23-.355 0-.355.229 0 .229.355 0 .355zm4.748-.988c-.229 0-.229-.355 0-.355.227 0 .227.355 0 .355zm4.35-1.582c-.229 0-.229-.355 0-.355s.229.354 0 .354zm2.771-1.187c-.229 0-.229-.354 0-.354.227 0 .227.354 0 .354zm-3.56-1.583c-.229 0-.229-.354 0-.354.227 0 .227.354 0 .354zm3.756-1.978c-.229 0-.229-.354 0-.354.23 0 .23.355 0 .355zm2.176-1.188c-.229 0-.229-.354 0-.354.23 0 .23.354 0 .354zm1.782-1.58c-.229 0-.229-.355 0-.355.227 0 .227.355 0 .355zm1.186-2.968c-.229 0-.229-.354 0-.354s.229.354 0 .354zm0-1.977c-.229 0-.229-.355 0-.355s.229.355 0 .355zm-.199-3.166c-.229 0-.229-.355 0-.355.23 0 .23.355 0 .355zm-1.384-4.747c-.229 0-.229-.354 0-.354s.229.354 0 .354zm-1.978-4.55c-.229 0-.229-.354 0-.354.23 0 .23.354 0 .354zm-1.977-2.571c-.229 0-.229-.354 0-.354.227 0 .229.354 0 .354zm-2.573-2.769c-.229 0-.229-.354 0-.354s.229.354 0 .354zm5.018 17.696l.199-.198c.066-.066.186-.071.25 0 .064.07.071.18 0 .25l-.198.199c-.066.066-.187.07-.251 0a.183.183 0 010-.25zm.125-3.652c-.229 0-.229-.355 0-.355.23 0 .23.355 0 .355zm-2.176-4.747c-.229 0-.229-.354 0-.354.23 0 .23.354 0 .354zm-3.163-6.331c-.229 0-.229-.355 0-.355.227 0 .227.355 0 .355zm8.701 10.286c-.229 0-.229-.354 0-.354.23 0 .23.354 0 .354zm-1.384-3.56c-.229 0-.229-.354 0-.354s.229.354 0 .354zm-1.385-1.978c-.229 0-.229-.354 0-.354.23 0 .23.354 0 .354zM92.08 46.248c-.228 0-.228-.355 0-.355.23 0 .23.355 0 .355zm-2.964-3.561c-.23 0-.23-.354 0-.354.227 0 .227.354 0 .354zm9.098 4.749c-.229 0-.229-.354 0-.354.227 0 .23.354 0 .354zm5.34.792c-.229 0-.229-.355 0-.355s.229.355 0 .355zm3.364-1.188c-.229 0-.229-.355 0-.355.227 0 .227.354 0 .354zm4.945-1.78c-.229 0-.229-.354 0-.354.227 0 .227.354 0 .354zM101.182 8.864c-.229 0-.229-.354 0-.354.227 0 .227.354 0 .354zm-5.541.199c-.229 0-.229-.355 0-.355.23 0 .23.355 0 .355zm-2.194 87.052v.198c0 .093-.08.182-.178.178-.097-.005-.177-.078-.177-.178v-.198c0-.092.08-.182.177-.177a.18.18 0 01.177.177zm5.162-.021h-.199c-.092 0-.182-.08-.177-.177.005-.097.078-.178.177-.178h.199c.092 0 .182.08.177.178-.005.096-.078.177-.177.177zm3.957-.594c-.229 0-.229-.354 0-.354.227 0 .227.355 0 .355zm4.747-1.78c-.23 0-.23-.355 0-.355.229 0 .229.354 0 .354zm3.955-.988c-.229 0-.229-.355 0-.355s.229.355 0 .355zm4.748-1.583c-.229 0-.229-.355 0-.355.227 0 .227.355 0 .355zm3.561-2.769c-.229 0-.229-.354 0-.354.227 0 .227.354 0 .354zm2.372-2.57c-.229 0-.229-.355 0-.355s.229.354 0 .354zm2.374-2.573c-.229 0-.229-.355 0-.355.227 0 .23.355 0 .355zm1.583-2.769c-.229 0-.229-.355 0-.355.227 0 .227.355 0 .355zm-.397-4.548c-.229 0-.229-.355 0-.355.23 0 .23.355 0 .355zm-1.186-5.54c-.229 0-.229-.355 0-.355.227 0 .23.354 0 .354zm-.99-3.757c-.229 0-.229-.355 0-.355.23 0 .23.355 0 .355zm-.987-3.561c-.229 0-.229-.354 0-.354.227 0 .227.354 0 .354zm-2.375-3.166c-.229 0-.229-.354 0-.354.23 0 .23.354 0 .354zm-.791-3.361c-.229 0-.229-.355 0-.355s.229.355 0 .355zM88.126 93.72h-.199c-.092 0-.181-.08-.177-.178a.18.18 0 01.177-.177h.199c.092 0 .182.08.177.177-.005.097-.078.177-.177.177zm-1.583-1.978c-.23 0-.23-.355 0-.355s.23.355 0 .355zm3.759 3.958c-.23 0-.23-.355 0-.355s.23.354 0 .354zm1.186-1.98c-.23 0-.23-.355 0-.355s.23.354 0 .354zm3.166 2.768c-.23 0-.23-.354 0-.354.227 0 .229.354 0 .354zm1.384-1.978c-.229 0-.229-.354 0-.354.227 0 .23.355 0 .355zm1.385.99c-.23 0-.23-.354 0-.354.227 0 .229.355 0 .355zm2.967-1.582c-.229 0-.229-.355 0-.355.227 0 .227.355 0 .355zm3.561.397c-.229 0-.229-.355 0-.355.226 0 .226.355 0 .355zm3.163-1.189c-.229 0-.229-.354 0-.354s.229.354 0 .354zm2.968-1.977c-.23 0-.23-.355 0-.355.229 0 .229.355 0 .355zm2.176-1.385c-.23 0-.23-.354 0-.354.229 0 .229.354 0 .354zm3.56-1.384c-.229 0-.229-.354 0-.354.227 0 .229.354 0 .354zm2.769-2.375c-.229 0-.229-.354 0-.354s.229.354 0 .354zm2.176-2.967c-.229 0-.229-.354 0-.354s.229.354 0 .354zm2.57-4.945c-.229 0-.229-.354 0-.354.23 0 .23.354 0 .354zm-.394-3.955c-.229 0-.229-.354 0-.354.227 0 .229.354 0 .354zm-.792-3.56c-.229 0-.229-.355 0-.355.23 0 .23.355 0 .355zm1.583 15.626c-.229 0-.229-.354 0-.354.227 0 .227.354 0 .354zm2.968-2.374c-.229 0-.229-.355 0-.355.227 0 .227.355 0 .355zm1.384-2.965c-.229 0-.229-.355 0-.355.227 0 .227.355 0 .355zm0-2.573c-.229 0-.229-.355 0-.355.227 0 .227.355 0 .355zm-.198-4.548c-.229 0-.229-.355 0-.355.227 0 .229.355 0 .355zm-1.583-3.561c-.229 0-.229-.354 0-.354s.229.354 0 .354zm-8.307 13.252c-.229 0-.229-.354 0-.354.227 0 .229.354 0 .354zm1.977-8.505c-.229 0-.229-.355 0-.355.23 0 .23.355 0 .355zm-2.175-17.406c-.23 0-.23-.354 0-.354.229 0 .229.354 0 .354zm-38.176-.595c-.229 0-.229-.354 0-.354.23 0 .23.354 0 .354zm-1.977 2.573c-.23 0-.23-.355 0-.355.227 0 .23.355 0 .355zm-.99 2.372c-.229 0-.229-.355 0-.355.23 0 .23.355 0 .355zm-2.176 4.352c-.229 0-.229-.355 0-.355.23 0 .23.355 0 .355zm-3.362 11.671c-.229 0-.229-.354 0-.354.23 0 .23.354 0 .354zm-1.185 5.34c-.23 0-.23-.355 0-.355.226 0 .226.355 0 .355zm.987-5.737c-.23 0-.23-.354 0-.354.229 0 .229.354 0 .354zm1.781-5.14c-.229 0-.229-.355 0-.355.227 0 .23.354 0 .354zm.593-2.772c-.229 0-.229-.354 0-.354.23 0 .23.354 0 .354zm.593-1.385c-.229 0-.229-.354 0-.354.23 0 .23.354 0 .354zm1.782-5.339c-.23 0-.23-.354 0-.354.226 0 .226.354 0 .354zm-2.968 4.945c-.229 0-.229-.355 0-.355.227 0 .23.355 0 .355zm-1.583 3.759c-.229 0-.229-.355 0-.355.23 0 .23.355 0 .355zm-1.185 3.756c-.23 0-.23-.354 0-.354.226 0 .226.354 0 .354zm-.99 4.352c-.23 0-.23-.354 0-.354.228 0 .228.354 0 .354z" fill="#000"/><path d="M68.94 79.676c-.23 0-.23-.354 0-.354.228 0 .228.354 0 .354zm.99-8.306c-.23 0-.23-.355 0-.355.226 0 .226.354 0 .354zm.592-2.177c-.229 0-.229-.354 0-.354.227 0 .23.354 0 .354z" fill="#000"/><path d="M70.522 69.193c-.229 0-.229-.354 0-.354.227 0 .23.354 0 .354zm-2.176 4.551c-.229 0-.229-.355 0-.355.23 0 .23.355 0 .355zm-.394-2.769c-.23 0-.23-.355 0-.355.227 0 .227.355 0 .355zm.196-3.166c-.23 0-.23-.355 0-.355.229 0 .229.355 0 .355zm1.188-1.186c-.229 0-.229-.355 0-.355.227 0 .227.355 0 .355zm35.208 5.339c-.229 0-.229-.354 0-.354.226 0 .229.354 0 .354zm1.779 1.186c-.229 0-.229-.354 0-.354s.229.354 0 .354zm1.384 1.189c-.229 0-.229-.355 0-.355s.229.355 0 .355zm.397 2.769c-.229 0-.229-.355 0-.355.227 0 .229.355 0 .355zm-1.384 2.769c-.23 0-.23-.355 0-.355.226 0 .229.355 0 .355zm-3.958 1.582c-.229 0-.229-.354 0-.354s.229.354 0 .354zm-2.176.196c-.229 0-.229-.354 0-.354s.229.354 0 .354zm-.987 0c-.23 0-.23-.354 0-.354.227 0 .229.354 0 .354zm3.362-2.57c-.229 0-.229-.354 0-.354s.229.354 0 .354zm2.57-1.977c-.229 0-.229-.355 0-.355s.229.355 0 .355zm-.394-2.573c-.229 0-.229-.355 0-.355s.229.355 0 .355zm.198 4.352c-.229 0-.229-.355 0-.355.227 0 .227.355 0 .355zm-3.56 1.583c-.229 0-.229-.355 0-.355.227 0 .227.355 0 .355zm-2.769 1.185c-.23 0-.23-.354 0-.354.227 0 .227.354 0 .354zm4.701-8.788l-.198.394c-.043.085-.163.109-.243.064-.088-.052-.107-.156-.064-.243l.198-.395c.043-.085.163-.109.244-.064.087.052.106.156.063.244zm-5.098 8.987c-.23 0-.23-.354 0-.354.229 0 .229.354 0 .354zm3.56-5.538c-.229 0-.229-.354 0-.354s.229.354 0 .354zm11.868-20.77c-.23 0-.23-.354 0-.354.229 0 .229.355 0 .355zm-9.099.397c-.229 0-.229-.354 0-.354s.229.354 0 .354zm-3.56-1.188c-.229 0-.229-.354 0-.354s.229.354 0 .354zm-3.757-1.186c-.229 0-.229-.354 0-.354.227 0 .227.354 0 .354zm-3.166-1.779c-.229 0-.229-.354 0-.354.23 0 .23.354 0 .354zm15.034 6.922c-.23 0-.23-.354 0-.354.226 0 .229.355 0 .355zm6.329 1.78c-.229 0-.229-.355 0-.355.227 0 .229.354 0 .354zm1.779 2.967c-.229 0-.229-.355 0-.355s.229.355 0 .355zm1.98 2.573c-.229 0-.229-.355 0-.355.227 0 .227.355 0 .355zm-1.98 3.955c-.229 0-.229-.355 0-.355s.229.355 0 .355zm-1.779-3.759c-.229 0-.229-.355 0-.355.227 0 .229.355 0 .355zm-7.714-4.946c-.229 0-.229-.354 0-.354.227 0 .229.355 0 .355zm-5.342-2.175c-.229 0-.229-.354 0-.354s.229.354 0 .354zm7.913-2.57c-.23 0-.23-.355 0-.355.229 0 .229.355 0 .355zm4.55 4.153c-.229 0-.229-.355 0-.355.227 0 .227.355 0 .355zm-2.769 5.736c-.229 0-.229-.354 0-.354.227 0 .227.354 0 .354zm4.747 10.089c-.23 0-.23-.355 0-.355.229 0 .229.355 0 .355zm-1.187 7.12c-.229 0-.229-.354 0-.354.227 0 .227.354 0 .354zm-4.351 3.757c-.23 0-.23-.354 0-.354.226 0 .229.354 0 .354zm-7.518 2.374c-.229 0-.229-.354 0-.354s.229.354 0 .354zm-2.372.593c-.229 0-.229-.354 0-.354.227 0 .227.354 0 .354zM72.897 62.864c-.23 0-.23-.354 0-.354.227 0 .227.354 0 .354zm-.792 3.166c-.229 0-.229-.355 0-.355.227 0 .227.355 0 .355zm-2.573-.99c-.229 0-.229-.355 0-.355.23 0 .23.355 0 .355zm-1.384 1.583c-.23 0-.23-.355 0-.355.229 0 .229.355 0 .355zm-.792 4.352c-.229 0-.229-.355 0-.355.23 0 .23.355 0 .355zm1.189 6.329c-.23 0-.23-.354 0-.354.227 0 .227.354 0 .354zm0 3.362c-.23 0-.23-.354 0-.354.227 0 .227.354 0 .354zm1.779 2.967c-.23 0-.23-.354 0-.354.229 0 .229.354 0 .354zm.396-1.188c-.228 0-.228-.354 0-.354.227 0 .227.354 0 .354zm0-1.186c-.228 0-.228-.354 0-.354.227 0 .227.354 0 .354zm-.79-2.57c-.23 0-.23-.355 0-.355.226 0 .226.355 0 .355zm.909-1.694c.132-.067.262-.135.394-.201.203-.104.383.203.18.307-.132.066-.262.135-.395.2-.203.102-.382-.203-.18-.306zm-.692.328v-.395c0-.229.354-.229.354 0v.395c0 .229-.354.229-.354 0zm1.167-4.371c-.23 0-.23-.354 0-.354.227 0 .227.354 0 .354z" fill="#000"/><path d="M71.314 72.952c-.23 0-.23-.354 0-.354.227 0 .227.354 0 .354zm0 .395c-.23 0-.23-.355 0-.355.227 0 .227.355 0 .355zm-2.176-1.385c-.23 0-.23-.354 0-.354.227 0 .229.354 0 .354zm-.198-3.955c-.23 0-.23-.354 0-.354.228 0 .228.354 0 .354z" fill="#000"/><path d="M69.138 68.203c-.23 0-.23-.354 0-.354.227 0 .229.354 0 .354zm2.57-3.56c-.229 0-.229-.355 0-.355.23 0 .23.355 0 .355zm1.437-.173l1.186.201c.224.038.13.38-.095.343l-1.186-.201c-.224-.038-.13-.38.095-.343zm1.928.57c-.23 0-.23-.355 0-.355.226 0 .226.355 0 .355zm-.596-3.957c-.229 0-.229-.355 0-.355.23 0 .23.355 0 .355zm6.925 26.902c-.23 0-.23-.354 0-.354.227 0 .227.354 0 .354zm-6.925-3.165c-.229 0-.229-.355 0-.355.23 0 .23.355 0 .355zm5.54.592c-.229 0-.229-.354 0-.354.227 0 .227.354 0 .354zm2.571-.791c-.23 0-.23-.354 0-.354.227 0 .23.354 0 .354zm3.164-2.769c-.23 0-.23-.354 0-.354.229 0 .229.354 0 .354zm2.572-2.769c-.229 0-.229-.354 0-.354.227 0 .227.354 0 .354zm7.516 1.187c-.23 0-.23-.355 0-.355.229 0 .229.354 0 .354zm1.781 0c-.229 0-.229-.355 0-.355.227 0 .227.354 0 .354zm2.571-1.581c-.23 0-.23-.355 0-.355.229 0 .229.355 0 .355zm1.977-2.769c-.229 0-.229-.355 0-.355s.229.355 0 .355zm-27.692 6.724c-.229 0-.229-.355 0-.355.23 0 .23.355 0 .355zm0-3.759c-.229 0-.229-.355 0-.355.23 0 .23.355 0 .355zm0 .595c-.229 0-.229-.355 0-.355.23 0 .23.355 0 .355zm-.593 4.747c-.229 0-.229-.355 0-.355.23 0 .23.355 0 .355zm2.769 2.176c-.229 0-.229-.355 0-.355.23 0 .23.355 0 .355zm1.583-3.958c-.23 0-.23-.354 0-.354s.23.354 0 .354zm-.99 2.573c-.229 0-.229-.355 0-.355.23 0 .23.355 0 .355zm.792 2.967c-.23 0-.23-.354 0-.354.229 0 .229.354 0 .354zm.792-1.582c-.23 0-.23-.355 0-.355.228 0 .228.355 0 .355zm3.361-4.551c-.23 0-.23-.354 0-.354s.23.354 0 .354zm1.583-1.582c-.23 0-.23-.355 0-.355s.23.354 0 .354zm9.694-2.572c-.23 0-.23-.354 0-.354.227 0 .227.355 0 .355zm4.746 0c-.229 0-.229-.354 0-.354.227 0 .23.355 0 .355zm3.362-3.361c-.229 0-.229-.355 0-.355s.229.355 0 .355zm-68.437 8.9c-.23 0-.23-.355 0-.355.226 0 .226.355 0 .355zm-.397 1.188c-.23 0-.23-.354 0-.354.229 0 .229.354 0 .354zm.765 1.649l-.198.791c-.054.223-.397.128-.343-.094l.199-.791c.054-.223.397-.128.342.094zm1.978 3.218a2.708 2.708 0 00-.246 2.242c.069.217-.272.312-.342.094a3.056 3.056 0 01.28-2.516c.116-.196.424-.016.308.18zm1.989 2.67a9.023 9.023 0 00.177 2.724c.05.222-.293.316-.342.094a9.41 9.41 0 01-.19-2.818c.02-.227.376-.227.355 0zm2.19 3.34c-.229 0-.229-.354 0-.354.23 0 .23.354 0 .354zm2.166.362l.792 1.977c.085.213-.257.305-.342.095l-.792-1.978c-.082-.21.26-.302.343-.094zm4.121 3.525c.265.395.527.791.792 1.186.127.191-.18.369-.308.18-.264-.395-.526-.792-.791-1.187-.128-.188.18-.368.307-.18zm6.374 3.036c-.229 0-.229-.355 0-.355.227 0 .227.355 0 .355zm3.731 1.162a7.04 7.04 0 00.773 1.935c.115.199-.192.376-.308.18a7.269 7.269 0 01-.808-2.02c-.052-.222.291-.319.343-.095zm4.504 1.108l1.778 2.176c.144.175-.106.428-.25.251l-1.78-2.176c-.143-.175.107-.428.251-.251zm6.132 1.583l2.176 1.978c.17.153-.082.404-.25.25l-2.176-1.977c-.17-.156.08-.404.25-.251zm6.599 1.883c-.229 0-.229-.354 0-.354.23 0 .23.354 0 .354zm7.714.593c-.23 0-.23-.354 0-.354s.23.354 0 .354z" fill="#000"/><path d="M80.736 107.659l1.977 1.977c.16.161-.09.411-.25.251l-1.978-1.978c-.163-.16.088-.411.25-.25zm5.691.184l2.963 1.786c.196.118.016.425-.18.307l-2.962-1.786c-.194-.118-.017-.425.18-.307zm6.219.366a6.106 6.106 0 003.227 1.661c.224.04.13.383-.095.343a6.43 6.43 0 01-3.383-1.751c-.163-.161.088-.411.25-.253zm6.799.402l1.978.397c.224.045.13.387-.095.342l-1.977-.397c-.222-.044-.128-.387.094-.342zm5.571-1.16a6.857 6.857 0 003.483 1.129c.226.01.229.364 0 .355a7.232 7.232 0 01-3.662-1.177c-.189-.125-.012-.432.179-.307zm5.514-.444a13.258 13.258 0 005.288 1.008c.229-.002.229.352 0 .355a13.442 13.442 0 01-5.382-1.023c-.208-.083-.118-.425.094-.34zm5.534-.976l.791.198c.222.055.128.397-.094.343l-.792-.199c-.222-.056-.127-.396.095-.342zm6.478-2.223c-.229 0-.229-.355 0-.355s.229.355 0 .355zm2.967-2.968c-.229 0-.229-.354 0-.354.23 0 .23.354 0 .354zm2.285-2.308a7.57 7.57 0 001.921-2.107c.118-.194.425-.017.307.18a7.96 7.96 0 01-2.046 2.234c-.187.135-.364-.172-.182-.307zm1.474-4.217c-.229 0-.229-.355 0-.355.23 0 .23.355 0 .355zm.199-2.573c-.229 0-.229-.355 0-.355.227 0 .227.355 0 .355zm-72.558 36.167c-.199.486-.27.997-.191 1.516.033.223-.308.319-.343.095a3.191 3.191 0 01.191-1.706c.088-.208.43-.118.343.095zm1.226 2.369a4.774 4.774 0 00.355 2.533c.09.208-.215.388-.308.18a5.117 5.117 0 01-.404-2.713c.031-.222.385-.224.357 0zm2.585 2.124c.134.201.27.402.401.603.128.191-.18.368-.307.179-.134-.2-.27-.401-.401-.602-.126-.191.182-.369.307-.18zm2.599.612l.784 1.219c.123.192-.182.371-.307.18-.262-.407-.522-.813-.785-1.219-.122-.192.185-.371.308-.18zm2.832-.411c.135.201.27.402.402.603.128.191-.18.368-.307.179-.135-.201-.27-.401-.402-.602-.125-.192.182-.369.307-.18zm2.261-2.348c-.229 0-.229-.355 0-.355.23 0 .23.355 0 .355zm.308 1.873c.39-.3.569-.765.524-1.247-.021-.227.333-.225.354 0 .057.616-.215 1.181-.701 1.554-.18.14-.355-.17-.177-.307zm3.917-1.472c-.23 0-.23-.354 0-.354.227 0 .229.354 0 .354zm3.293-1.911a6.42 6.42 0 001.583-2.176c.092-.208.4-.028.307.18a6.674 6.674 0 01-1.64 2.247c-.167.151-.42-.097-.25-.251zm3.192-.768c.402-.737.806-1.474 1.207-2.214.11-.201.416-.021.308.18-.402.737-.806 1.474-1.208 2.214-.11.198-.418.018-.307-.18zm4.288-2.819c.409-.46.711-.985.91-1.568.073-.215.416-.123.342.094a5.002 5.002 0 01-.999 1.727c-.154.17-.402-.082-.253-.253zm4.815-2.494c.482-.289.822-.733.971-1.274.062-.22.404-.125.343.095a2.492 2.492 0 01-1.134 1.486c-.196.115-.376-.192-.18-.307zm4.241-2.989c.577-.267.92-.829.886-1.465-.012-.227.343-.227.354 0a1.849 1.849 0 01-1.063 1.77c-.205.096-.385-.208-.177-.305zm3.355-1.755c.2-.471.402-.938.602-1.409.09-.207.395-.028.308.18l-.603 1.408c-.092.21-.397.028-.307-.179zm3.804-2.829l1.051-1.375c.137-.179.444-.002.307.18-.349.458-.699.917-1.051 1.375-.14.18-.447.002-.307-.18zm3.059-2.237l.402-.401c.161-.161.411.089.25.25l-.401.402c-.163.16-.414-.09-.251-.251zm-50.229-.843l-.55 1.826c-.066.217-.409.125-.343-.095.185-.609.367-1.216.55-1.826.067-.22.41-.125.343.095zm.402 2.818l-.378 2.016c-.042.224-.383.13-.343-.095l.378-2.015c.043-.222.386-.128.343.094zm.858 1.822a4.32 4.32 0 00.153 1.925c.066.22-.274.312-.342.095a4.779 4.779 0 01-.154-2.115c.033-.227.376-.13.343.095zm1.601 1.606a3.288 3.288 0 00.364 2.082c.109.201-.198.38-.307.179a3.67 3.67 0 01-.4-2.353c.036-.227.379-.13.343.092zm1.607-.047v1.207c0 .23-.354.23-.354 0v-1.207c0-.229.354-.229.354 0zm3.017-1.812v.402c0 .229-.354.229-.354 0v-.402c0-.227.354-.227.354 0zm2.452-1.744l-.401 1.007c-.083.21-.425.118-.343-.095.135-.335.267-.671.402-1.006.083-.21.428-.118.343.094zm2.578-1.072v.602c0 .229-.354.229-.354 0v-.602c0-.227.354-.227.354 0zm1.985-1.496c.252.43.25.95-.007 1.378-.119.196-.426.016-.308-.18a.974.974 0 00.007-1.021c-.113-.196.192-.373.308-.177zm2.263-.338c-.23 0-.23-.354 0-.354.227 0 .227.354 0 .354zM31.745 81.481a1.04 1.04 0 00-.16.874c.056.222-.287.317-.343.095a1.387 1.387 0 01.198-1.146c.128-.19.435-.012.305.177zm3.215 4.38c-.14.468-.279.936-.416 1.404-.063.217-.406.125-.342-.095.14-.468.279-.935.416-1.403.063-.218.406-.125.342.094zm3.86 5.394v1.609c0 .23-.354.23-.354 0v-1.609c0-.227.355-.23.355 0zm8.223 6.951l.602 1.408c.09.208-.217.387-.307.18-.2-.47-.402-.938-.602-1.409-.088-.208.217-.387.307-.18zm3.027 3.615c.25.413.502.824.753 1.238.118.196-.187.373-.307.179-.25-.413-.504-.824-.754-1.238-.116-.196.189-.373.307-.179zm3.382 2.584l.806.806c.16.161-.09.411-.25.25l-.806-.805c-.163-.161.087-.411.25-.251zm.26-3.343c.062.433.232.823.522 1.151.152.17-.099.421-.25.251a2.49 2.49 0 01-.614-1.307c-.031-.222.312-.319.342-.095zm4.366 4.149l1.007 1.007c.16.16-.09.411-.25.25l-1.007-1.006c-.163-.161.09-.414.25-.251zm.832-2.329c.135.335.267.671.402 1.006.085.213-.258.305-.343.095l-.402-1.007c-.082-.213.26-.302.343-.094zm4.661 1.141c.137.267.272.534.41.801.103.203-.204.382-.308.179l-.409-.801c-.101-.203.203-.383.307-.179zm1.749 2.797l1.006 1.007c.16.16-.09.411-.25.25l-1.007-1.006c-.163-.161.088-.412.25-.251zm4.068-.782l1.02 1.399c.135.184-.172.361-.306.179l-1.021-1.398c-.132-.187.175-.364.307-.18zm2.972 2.793l.603.602c.16.161-.09.411-.25.251l-.603-.603c-.163-.161.087-.411.25-.25zm3.464-2.335c.066.402.135.806.2 1.208.038.222-.304.319-.342.094-.066-.401-.135-.805-.2-1.207-.036-.224.304-.319.342-.095zm2.544 3.1c.27.201.537.402.804.603.18.134.004.444-.18.307l-.803-.603c-.18-.137-.005-.444.18-.307zm.302-2.474c-.228 0-.228-.354 0-.354.23 0 .23.354 0 .354zm4.58-.467c.269.401.536.805.805 1.207.128.191-.18.369-.307.18-.27-.402-.536-.806-.806-1.208-.125-.191.18-.368.308-.179zm2.35 2.953c.402.269.806.536 1.208.806.189.125.011.432-.18.307-.402-.27-.806-.537-1.207-.806-.19-.128-.012-.435.18-.307zm3.835-2.162l.808.801c.163.161-.088.411-.25.25l-.809-.8c-.163-.161.088-.412.25-.251zm5.436-.203l1.2 1.013c.175.147-.078.397-.25.251l-1.2-1.014c-.175-.148.075-.397.25-.25zm6.249.446l-.803-.604c-.18-.135-.005-.445.18-.307l.803.604c.177.137.002.445-.18.307zm7.225-.174l-1.814-.794c-.208-.092-.029-.397.179-.307l1.815.794c.208.092.028.397-.18.307zm4.598-1.25l-.402-.402c-.161-.16.09-.411.251-.25l.401.401c.161.163-.09.414-.25.251zm5.027-1.205a4.001 4.001 0 00-1.571-1.181c-.21-.088-.028-.395.18-.307a4.214 4.214 0 011.644 1.238c.14.174-.111.427-.253.25zm3.547.65a3.082 3.082 0 01-1.538-.648c-.18-.142.073-.39.25-.25.373.293.817.479 1.288.543.222.031.224.385 0 .355zm3.128-1.427l-.402-.201c-.085-.043-.109-.163-.064-.244.052-.087.156-.106.244-.063l.401.2c.085.043.109.163.064.244-.052.087-.158.106-.243.064zm.638-2.368c-.471-.127-.943-.255-1.413-.38-.22-.059-.128-.402.094-.343.47.128.943.256 1.413.381.22.059.125.401-.094.342zm.812-2.845c-.335-.134-.671-.269-1.006-.4-.21-.084-.118-.429.094-.344.336.135.671.27 1.007.402.208.085.116.428-.095.343zm1.732-2.258l-.201-.2c-.066-.067-.071-.188 0-.251.071-.064.18-.071.251 0l.201.2c.066.067.07.187 0 .251-.071.064-.182.07-.251 0zm-.324-2.367l-1.006-.201c-.224-.045-.13-.388.095-.343.335.067.67.135 1.006.201.222.045.128.385-.095.343zm.093-2.219a.957.957 0 01-1.005-.48c-.108-.2.199-.38.308-.179a.59.59 0 00.602.317c.225-.033.319.31.095.342zm-.159-2.626c-.134.065-.269.134-.401.2-.085.042-.192.023-.244-.064-.045-.078-.021-.198.064-.243.135-.066.269-.135.402-.201.085-.043.191-.024.243.064.047.078.024.2-.064.243zm-1.498.023c-.229 0-.229-.355 0-.355.23 0 .23.355 0 .355zm5.13 3.414c-.135.066-.267.134-.402.2-.085.043-.191.024-.243-.063-.045-.078-.022-.199.063-.244.135-.066.267-.134.402-.2.085-.043.191-.024.243.063.045.08.022.201-.063.244zm-.3 3.827c-.23 0-.23-.354 0-.354.226 0 .226.354 0 .354zm-1.609 3.419h-.603c-.229 0-.229-.355 0-.355h.603c.226 0 .226.355 0 .355zm-2.214 1.859h.201c.092 0 .182.081.177.177-.005.097-.078.178-.177.178h-.201c-.092 0-.182-.081-.177-.178a.18.18 0 01.177-.177zm-6.637 1.963c-.229 0-.229-.354 0-.354.227 0 .227.354 0 .354zm1.562-3.626c-.201-.066-.402-.135-.602-.201-.215-.071-.123-.413.094-.343l.603.201c.215.071.122.414-.095.343zm1.051-3.816c-.229 0-.229-.354 0-.354.23 0 .23.354 0 .354zm0-2.615c-.229 0-.229-.355 0-.355.23 0 .23.355 0 .355zm-1.205-.201c-.229 0-.229-.354 0-.354.227 0 .227.354 0 .354zm-11.139 12.167l.201.201c.066.066.07.187 0 .251-.071.063-.18.071-.251 0l-.201-.201c-.066-.066-.071-.187 0-.251a.185.185 0 01.251 0zm4.501-2.31c-.23 0-.23-.355 0-.355.226 0 .229.355 0 .355zm2.615-2.616c-.229 0-.229-.354 0-.354.227 0 .227.354 0 .354zm.602-1.207c-.229 0-.229-.354 0-.354.23 0 .23.354 0 .354zM32.005 79.565c-.23 0-.23-.354 0-.354.229 0 .229.354 0 .354zm1.408-3.218c-.23 0-.23-.354 0-.354.229 0 .229.354 0 .354zm1.609-4.224c-.23 0-.23-.355 0-.355.229 0 .229.355 0 .355zm1.006-3.218c-.229 0-.229-.354 0-.354.227 0 .23.354 0 .354zm-.605-2.816c-.229 0-.229-.355 0-.355.23 0 .23.355 0 .355zm-8.044-3.421c-.23 0-.23-.355 0-.355.226 0 .229.355 0 .355zm0-4.376h.2c.093 0 .183.08.178.177-.005.097-.078.178-.177.178h-.201c-.092 0-.182-.08-.177-.178a.18.18 0 01.177-.177zm-5.633.355h-.602c-.23 0-.23-.355 0-.355h.602c.23 0 .23.355 0 .355zm-4.023.401c-.23 0-.23-.354 0-.354.229 0 .229.354 0 .354zm-3.017 0c-.23 0-.23-.354 0-.354.229 0 .229.354 0 .354zm-3.218.201c-.23 0-.23-.354 0-.354.229 0 .229.354 0 .354zm-2.415-.201c-.229 0-.229-.354 0-.354.23 0 .23.354 0 .354zm-2.01-.602c-.23 0-.23-.355 0-.355.229 0 .229.355 0 .355zm-2.212-.606c-.229 0-.229-.354 0-.354.227 0 .227.355 0 .355zm6.034 2.817c-.229 0-.229-.354 0-.354.227 0 .227.354 0 .354zm6.035 0c-.23 0-.23-.354 0-.354.226 0 .226.354 0 .354zm8.448-2.817c-.229 0-.229-.354 0-.354.227 0 .227.355 0 .355zm5.429-.602c-.229 0-.229-.354 0-.354.23 0 .23.354 0 .354zm3.823 2.817c-.23 0-.23-.355 0-.355.227 0 .23.355 0 .355zm20.919-8.449c-.23 0-.23-.354 0-.354.229 0 .229.354 0 .354zm.604-1.207c-.229 0-.229-.355 0-.355.227 0 .227.355 0 .355zm1.005-1.81c-.23 0-.23-.355 0-.355.229 0 .229.355 0 .355zm1.207-1.409c-.23 0-.23-.354 0-.354.229 0 .229.355 0 .355zm-.402-2.815c-.229 0-.229-.355 0-.355.227 0 .23.355 0 .355zm-.805 11.867c-.23 0-.23-.354 0-.354.229 0 .229.354 0 .354zm.604 4.224c-.229 0-.229-.354 0-.354.227 0 .227.354 0 .354zm.603 6.436c-.23 0-.23-.354 0-.354.229 0 .229.354 0 .354zm.605 5.231c-.23 0-.23-.355 0-.355.226 0 .226.355 0 .355zm1.408 4.224c-.23 0-.23-.354 0-.354.227 0 .227.354 0 .354zm1.81 4.626c-.23 0-.23-.354 0-.354.226 0 .226.354 0 .354zm3.217 3.419c-.229 0-.229-.355 0-.355.227 0 .23.355 0 .355zm4.024 4.023c-.23 0-.23-.354 0-.354.227 0 .227.354 0 .354zm3.017 1.609c-.23 0-.23-.354 0-.354.227 0 .227.354 0 .354zm5.228.806c-.229 0-.229-.355 0-.355.23 0 .23.355 0 .355zm3.017.803c-.229 0-.229-.354 0-.354.23 0 .23.354 0 .354zm1.007 2.013c-.23 0-.23-.354 0-.354.229 0 .229.354 0 .354zm34.999 2.614c-.229 0-.229-.355 0-.355.23 0 .23.354 0 .354zm-2.615 4.224c-.229 0-.229-.355 0-.355s.229.355 0 .355zm-5.028 2.816c-.229 0-.229-.355 0-.355.227 0 .23.355 0 .355zm-3.621 1.408c-.23 0-.23-.355 0-.355.229 0 .229.355 0 .355zm-4.426-.201c-.229 0-.229-.354 0-.354.23 0 .23.354 0 .354zm11.691-7.217v-.126c0-.092.08-.182.177-.177.097.005.177.078.177.177v.125c0 .092-.08.182-.177.177a.181.181 0 01-.177-.177v-.125c0-.092.08-.182.177-.177.097.005.177.078.177.177v.125c0 .092-.08.182-.177.177a.181.181 0 01-.177-.177zm-4.449 2.792c-.229 0-.229-.355 0-.355s.229.355 0 .355zm-7.041 2.214c-.229 0-.229-.355 0-.355s.229.355 0 .355zm2.214-2.214c-.229 0-.229-.355 0-.355s.229.355 0 .355zm-5.432 1.207c-.229 0-.229-.354 0-.354.23 0 .23.354 0 .354zm-5.429-1.809c-.229 0-.229-.355 0-.355.227 0 .227.354 0 .354zm3.82 4.826c-.229 0-.229-.354 0-.354.23 0 .23.354 0 .354zm-3.82.603c-.229 0-.229-.355 0-.355.227 0 .227.355 0 .355zm-5.03-.201c-.229 0-.229-.355 0-.355.23 0 .23.355 0 .355zm2.816-1.408c-.229 0-.229-.355 0-.355.23 0 .23.355 0 .355zm-2.816-3.017c-.229 0-.229-.355 0-.355.23 0 .23.355 0 .355zm-2.615.404c-.23 0-.23-.355 0-.355.229 0 .229.355 0 .355zm19.085 8.47v.2c0 .093-.08.182-.177.178-.097-.005-.178-.078-.178-.178v-.2c0-.093.081-.182.178-.178.097.005.177.078.177.178zm-6.613.581c-.23 0-.23-.355 0-.355.227 0 .23.355 0 .355zm-36.006 20.113c-.23 0-.23-.355 0-.355.229 0 .229.355 0 .355zm3.622 1.207c-.23 0-.23-.354 0-.354.227 0 .227.354 0 .354zm4.826-2.211c-.229 0-.229-.355 0-.355.23 0 .23.355 0 .355zm4.426-2.013c-.23 0-.23-.355 0-.355.229 0 .229.355 0 .355zm4.626-1.609c-.23 0-.23-.355 0-.355.229 0 .229.355 0 .355zm4.826-2.817c-.229 0-.229-.354 0-.354.23 0 .23.354 0 .354zm2.817-2.613c-.23 0-.23-.354 0-.354.229 0 .229.354 0 .354zm4.425-2.414c-.23 0-.23-.354 0-.354.229 0 .229.354 0 .354zm4.628-2.415c-.229 0-.229-.354 0-.354.227 0 .227.354 0 .354zm-41.438-1.408c-.229 0-.229-.354 0-.354.23 0 .23.354 0 .354zm.806 2.616c-.229 0-.229-.355 0-.355.227 0 .227.355 0 .355zm1.408 1.006c-.229 0-.229-.354 0-.354.227 0 .227.354 0 .354zm2.212-1.609c-.23 0-.23-.354 0-.354.229 0 .229.354 0 .354zm3.374-1.758c.335-.134.67-.269 1.006-.401.212-.085.305.257.094.342-.335.135-.67.27-1.006.402-.213.085-.305-.258-.095-.343zm2.66-.657c-.23 0-.23-.354 0-.354.229 0 .229.354 0 .354zm-8.85 1.609c-.23 0-.23-.354 0-.354.229 0 .229.354 0 .354zm2.816-.803c-.23 0-.23-.354 0-.354.229 0 .229.354 0 .354zm1.609-1.006c-.23 0-.23-.355 0-.355.229 0 .229.355 0 .355zm4.628-.402c-.23 0-.23-.354 0-.354.227 0 .227.354 0 .354zm-2.013-1.408c-.23 0-.23-.354 0-.354s.23.354 0 .354zm-10.46-.201c-.228 0-.228-.354 0-.354.23 0 .23.354 0 .354zm4.426 1.406c-.23 0-.23-.354 0-.354s.23.354 0 .354zm10.66-1.406c-.23 0-.23-.354 0-.354s.23.354 0 .354zm-2.412 17.701c-.23 0-.23-.355 0-.355.227 0 .227.355 0 .355zm-6.639 0c-.23 0-.23-.355 0-.355.229 0 .229.355 0 .355zm16.493 1.81c-.23 0-.23-.355 0-.355s.23.355 0 .355zm5.632-8.048c-.229 0-.229-.354 0-.354.23 0 .23.354 0 .354zm6.238.605c-.23 0-.23-.354 0-.354.227 0 .227.354 0 .354zm-5.03 1.609c-.23 0-.23-.354 0-.354.229 0 .229.354 0 .354zm7.642-4.224c-.228 0-.228-.354 0-.354.23 0 .23.354 0 .354zm2.416-1.408c-.23 0-.23-.355 0-.355.229 0 .229.355 0 .355zm1.207-3.017c-.23 0-.23-.355 0-.355.227 0 .229.355 0 .355zm4.827-1.208c-.23 0-.23-.354 0-.354.229 0 .229.354 0 .354zm2.213-1.408c-.229 0-.229-.354 0-.354.227 0 .227.354 0 .354zm2.613-1.006c-.229 0-.229-.354 0-.354.23 0 .23.354 0 .354zM75.252 74.537c-.229 0-.229-.354 0-.354.227 0 .227.354 0 .354zm.803-2.414c-.229 0-.229-.355 0-.355.23 0 .23.355 0 .355zm1.609-4.626c-.229 0-.229-.355 0-.355.23 0 .23.355 0 .355zm.606-3.218c-.23 0-.23-.354 0-.354.226 0 .226.354 0 .354zm2.21-3.017c-.229 0-.229-.354 0-.354.23 0 .23.354 0 .354zm1.409-2.013c-.23 0-.23-.354 0-.354.229 0 .229.354 0 .354zM76.46 80.167c-.23 0-.23-.354 0-.354.226 0 .226.354 0 .354zm0-2.612c-.23 0-.23-.355 0-.355.226 0 .226.355 0 .355zm.2-1.813c-.229 0-.229-.354 0-.354.227 0 .227.354 0 .354zm1.004-4.021c-.229 0-.229-.354 0-.354.23 0 .23.354 0 .354zm1.208-3.823c-.23 0-.23-.354 0-.354.229 0 .229.355 0 .355zm2.013-4.625c-.23 0-.23-.355 0-.355.226 0 .226.355 0 .355zm-1.812 15.89c-.23 0-.23-.354 0-.354.229 0 .229.354 0 .354zm-.603-4.829c-.23 0-.23-.354 0-.354.227 0 .23.354 0 .354zm.803-3.017c-.229 0-.229-.354 0-.354.23 0 .23.354 0 .354zm2.013 8.248c-.229 0-.229-.354 0-.354.227 0 .23.354 0 .354zm0-4.225c-.229 0-.229-.354 0-.354.227 0 .23.355 0 .355zm-.401-4.023c-.23 0-.23-.354 0-.354.226 0 .226.354 0 .354zm4.425 5.432c-.23 0-.23-.355 0-.355.227 0 .227.355 0 .355zm4.02.201c-.228 0-.228-.355 0-.355.23 0 .23.355 0 .355zm3.824-1.208c-.23 0-.23-.354 0-.354.226 0 .229.354 0 .354zM79.073 55.226c-.23 0-.23-.355 0-.355.229 0 .229.355 0 .355zm3.017-2.816c-.23 0-.23-.355 0-.355.229 0 .229.354 0 .354zm1.608-2.011c-.229 0-.229-.355 0-.355.23 0 .23.355 0 .355zm3.02-2.616c-.23 0-.23-.354 0-.354.227 0 .227.354 0 .354zm3.619 1.813c-.229 0-.229-.355 0-.355.23 0 .23.355 0 .355zm-13.074 7.038c-.23 0-.23-.355 0-.355.229 0 .229.355 0 .355zm3.822-4.827c-.229 0-.229-.355 0-.355.227 0 .227.355 0 .355zm2.212-2.211c-.23 0-.23-.355 0-.355.229 0 .229.355 0 .355zm2.816-2.013c-.23 0-.23-.355 0-.355s.23.355 0 .355zm-2.01 4.827c-.23 0-.23-.355 0-.355.226 0 .226.354 0 .354zm3.418-2.011c-.229 0-.229-.355 0-.355.23 0 .23.355 0 .355zm1.809.201c-.228 0-.228-.355 0-.355.23 0 .23.355 0 .355zm-4.223-13.678c-.23 0-.23-.354 0-.354.229 0 .229.354 0 .354zm-.804-9.455c-.229 0-.229-.354 0-.354.227 0 .23.354 0 .354zm3.419-8.649c-.23 0-.23-.355 0-.355s.23.355 0 .355zm3.421-4.626c-.23 0-.23-.355 0-.355.227 0 .227.355 0 .355zm14.28 27.958c-.23 0-.23-.354 0-.354.229 0 .229.355 0 .355zm6.638-2.21c-.229 0-.229-.355 0-.355.227 0 .23.355 0 .355zm5.028-5.633c-.229 0-.229-.354 0-.354s.229.354 0 .354zm.201-3.823c-.229 0-.229-.354 0-.354s.229.354 0 .354zm-1.205-6.234c-.229 0-.229-.355 0-.355.227 0 .227.355 0 .355zM93.756 38.13c-.23 0-.23-.355 0-.355s.23.355 0 .355zm5.632 3.418c-.229 0-.229-.354 0-.354.23 0 .23.354 0 .354zm5.231-2.211c-.229 0-.229-.354 0-.354.227 0 .227.354 0 .354zm8.851-7.445c-.23 0-.23-.354 0-.354.226 0 .229.354 0 .354zm.602-6.636c-.229 0-.229-.355 0-.355s.229.355 0 .355zm-.402-4.024c-.229 0-.229-.354 0-.354.23 0 .23.354 0 .354zm-25.119 6.261v-.2c0-.093.08-.183.177-.178.097.005.178.078.178.177v.201c0 .092-.08.182-.178.177a.18.18 0 01-.177-.177zm.779 5.406c-.228 0-.228-.354 0-.354.23 0 .23.354 0 .354zm7.646 4.626c-.229 0-.229-.354 0-.354.227 0 .227.354 0 .354zm7.643-1.408c-.229 0-.229-.355 0-.355.227 0 .227.355 0 .355zm5.834-16.293c-.23 0-.23-.354 0-.354.226 0 .226.354 0 .354zm-1.609-5.833c-.23 0-.23-.354 0-.354.226 0 .226.354 0 .354zm-6.84-2.816c-.229 0-.229-.355 0-.355s.229.355 0 .355zM94.36 31.692c-.228 0-.228-.355 0-.355s.228.355 0 .355zm15.691 16.897c-.229 0-.229-.355 0-.355.227 0 .227.355 0 .355zm5.833-5.231c-.229 0-.229-.354 0-.354.227 0 .227.354 0 .354zm3.419-3.017c-.229 0-.229-.354 0-.354.227 0 .229.354 0 .354zm2.211-3.017c-.229 0-.229-.354 0-.354s.229.354 0 .354zm-20.717 8.65c-.23 0-.23-.355 0-.355.229 0 .229.355 0 .355zm-4.024-.804c-.23 0-.23-.354 0-.354s.23.354 0 .354zm-3.82-2.414c-.23 0-.23-.355 0-.355.227 0 .229.355 0 .355zm-3.017-3.622c-.23 0-.23-.355 0-.355.226 0 .226.355 0 .355zm-2.415-3.218c-.229 0-.229-.354 0-.354.23 0 .23.354 0 .354zm-2.816-4.826c-.23 0-.23-.355 0-.355s.23.354 0 .354zm-.402 1.006c-.229 0-.229-.355 0-.355.227 0 .23.355 0 .355zm10.861 15.888c-.229 0-.229-.354 0-.354.23 0 .23.354 0 .354zm4.829 1.207c-.229 0-.229-.354 0-.354.227 0 .227.354 0 .354zm3.821 1.208c-.23 0-.23-.355 0-.355.229 0 .229.355 0 .355zm5.833.401c-.229 0-.229-.354 0-.354s.229.354 0 .354zm-30.884 53.601c-.23 0-.23-.355 0-.355s.23.355 0 .355zm-8.702-1.581c-.229 0-.229-.354 0-.354.227 0 .227.354 0 .354zm-10.813-2.901c-.23 0-.23-.354 0-.354.227 0 .229.354 0 .354zm-8.439-3.693c-.23 0-.23-.354 0-.354.226 0 .226.354 0 .354zm-6.594-5.538c-.23 0-.23-.354 0-.354.229 0 .229.354 0 .354zm-4.747-3.958c-.229 0-.229-.354 0-.354.227 0 .227.355 0 .355zm-2.638-5.273c-.23 0-.23-.354 0-.354.228 0 .228.354 0 .354zm-1.055-4.219c-.229 0-.229-.354 0-.354.227 0 .23.354 0 .354zm3.166 11.867c-.229 0-.229-.354 0-.354.227 0 .227.354 0 .354zm5.274 5.538c-.23 0-.23-.354 0-.354.229 0 .229.354 0 .354zm3.955 2.637c-.23 0-.23-.355 0-.355.229 0 .229.355 0 .355zm6.067 3.166c-.23 0-.23-.355 0-.355.227 0 .229.355 0 .355zm3.428-2.637c-.23 0-.23-.354 0-.354s.23.354 0 .354zm14.768 1.845c-.229 0-.229-.354 0-.354.23 0 .23.354 0 .354zm6.859-.527c-.229 0-.229-.354 0-.354.227 0 .227.354 0 .354zM75.6 95.962c-.23 0-.23-.355 0-.355.226 0 .226.355 0 .355zm-4.485-1.146h.265c.092 0 .182.08.177.177-.005.097-.078.177-.177.177h-.265c-.092 0-.182-.08-.177-.177.005-.095.078-.177.177-.177zm-5.273 2.202c-.23 0-.23-.355 0-.355.227 0 .227.355 0 .355zm-6.594-4.749c-.23 0-.23-.355 0-.355.227 0 .229.355 0 .355zM33.401 38.205c-.23 0-.23-.354 0-.354s.23.354 0 .354zm2.374 3.428c-.229 0-.229-.354 0-.354.227 0 .23.354 0 .354zm2.637.792c-.23 0-.23-.354 0-.354s.23.354 0 .354zm2.639-.527c-.229 0-.229-.354 0-.354.227 0 .227.354 0 .354zm2.512-2.677l.526-.527c.161-.16.412.09.25.25l-.526.528c-.163.16-.413-.09-.25-.25zm.917-.753c-.23 0-.23-.355 0-.355.226 0 .226.355 0 .355zm-12.924 2.11c-.23 0-.23-.355 0-.355.227 0 .229.355 0 .355zm3.164 4.219c-.23 0-.23-.354 0-.354.229 0 .229.354 0 .354zm8.44 1.056c-.228 0-.228-.354 0-.354s.228.354 0 .354zm2.638-1.583c-.23 0-.23-.354 0-.354.226 0 .229.354 0 .354zm-1.583 3.693c-.23 0-.23-.355 0-.355.229 0 .229.355 0 .355zm-8.175-1.845c-.23 0-.23-.355 0-.355.227 0 .227.355 0 .355zm6.33 3.163c-.23 0-.23-.354 0-.354.226 0 .226.354 0 .354zm3.69-.262c-.23 0-.23-.354 0-.354.229 0 .229.354 0 .354zm3.43-2.639c-.229 0-.229-.355 0-.355.227 0 .227.355 0 .355zm-.264.527c-.23 0-.23-.354 0-.354.229 0 .229.354 0 .354zm-.792-5.538c-.229 0-.229-.355 0-.355.23 0 .23.355 0 .355zm1.319 6.067c-.23 0-.23-.354 0-.354.229 0 .229.354 0 .354zm-.527 5.538c-.23 0-.23-.354 0-.354.229 0 .229.354 0 .354zM39.357 63.52c.087.176.175.353.265.528.101.203-.203.382-.307.18-.088-.176-.175-.353-.265-.528-.102-.205.206-.385.307-.18zm1.694 8.969c-.229 0-.229-.354 0-.354.227 0 .227.354 0 .354zm-1.321 3.957c-.229 0-.229-.354 0-.354.23 0 .23.354 0 .354zM35.775 54.82c-.229 0-.229-.355 0-.355.227 0 .23.354 0 .354zm-3.165-5.539c-.23 0-.23-.354 0-.354.229 0 .229.354 0 .354zm-11.076-3.692c-.23 0-.23-.355 0-.355.229 0 .229.355 0 .355zm-5.274-4.22c-.229 0-.229-.355 0-.355.227 0 .227.355 0 .355zm-3.692-2.372c-.23 0-.23-.355 0-.355.226 0 .226.355 0 .355zm-1.583-2.901c-.23 0-.23-.355 0-.355.226 0 .229.355 0 .355zm5.802-2.64c-.229 0-.229-.354 0-.354.227 0 .227.355 0 .355zm5.011 1.848c-.229 0-.229-.354 0-.354.227 0 .227.354 0 .354zm5.802.526c-.228 0-.228-.354 0-.354s.228.355 0 .355zm-.79 4.22c-.23 0-.23-.354 0-.354.226 0 .226.355 0 .355zm27.954 20.572c-.23 0-.23-.355 0-.355.229 0 .229.355 0 .355zM89.51 92.139c-.229 0-.229-.355 0-.355.23 0 .23.355 0 .355zm-.593 3.163c-.229 0-.229-.354 0-.354.227 0 .23.354 0 .354zm7.121 1.978c-.229 0-.229-.355 0-.355.227 0 .23.355 0 .355zm9.89-2.57c-.229 0-.229-.355 0-.355.227 0 .229.354 0 .354zm7.516-1.78c-.23 0-.23-.354 0-.354.229 0 .229.354 0 .354zm3.759-2.374c-.23 0-.23-.354 0-.354.229 0 .229.354 0 .354zm2.967-1.781c-.229 0-.229-.355 0-.355.227 0 .229.355 0 .355zm1.977-1.187c-.229 0-.229-.354 0-.354.23 0 .23.354 0 .354zm1.782-2.768c-.229 0-.229-.355 0-.355.227 0 .227.355 0 .355zm2.195-4.924l.198-1.978c.024-.224.378-.227.355 0l-.199 1.978c-.021.224-.376.227-.354 0zm.375-5.165c-.229 0-.229-.354 0-.354.227 0 .23.354 0 .354zm-1.753-5.866c-.33-1.186-.659-2.375-.99-3.56-.061-.22.282-.315.343-.095.331 1.186.659 2.374.99 3.56.059.222-.281.315-.343.095zm-1.807-4.815c-.229 0-.229-.354 0-.354.227 0 .229.354 0 .354zm-3.362 1.781c-.229 0-.229-.354 0-.354.227 0 .227.354 0 .354zm2.769-5.935c-.229 0-.229-.354 0-.354.227 0 .227.354 0 .354zm-1.978-2.967c-.229 0-.229-.354 0-.354.227 0 .227.354 0 .354zm-.397 7.319c-.229 0-.229-.354 0-.354.23 0 .23.354 0 .354zm1.215 13.028c.198-.593.394-1.186.593-1.78.071-.214.413-.122.342.095-.198.593-.394 1.186-.593 1.78-.073.214-.415.122-.342-.095zm1.753.817c-.229 0-.229-.354 0-.354.227 0 .229.354 0 .354zm-.199-5.141c-.229 0-.229-.354 0-.354.23 0 .23.354 0 .354zm-.791-5.538c-.229 0-.229-.354 0-.354s.229.354 0 .354zm-1.385-3.166c-.229 0-.229-.354 0-.354.23 0 .23.354 0 .354zm-1.779-3.56c-.229 0-.229-.355 0-.355.227 0 .227.355 0 .355zm-1.582-3.164c-.23 0-.23-.354 0-.354.229 0 .229.354 0 .354zm-2.375-3.957c-.229 0-.229-.354 0-.354s.229.354 0 .354zm-2.176-.593c-.229 0-.229-.354 0-.354s.229.354 0 .354zm-7.121-1.978c-.229 0-.229-.354 0-.354s.229.354 0 .354zm6.332 0c-.229 0-.229-.354 0-.354.227 0 .227.354 0 .354zm3.362-3.56c-.229 0-.229-.354 0-.354.227 0 .227.354 0 .354zm1.583 1.583c-.229 0-.229-.354 0-.354.227 0 .227.354 0 .354zm4.153-.595c-.229 0-.229-.355 0-.355.227 0 .227.355 0 .355zm2.592-1.165v-.199c0-.092.081-.182.177-.177.097.005.178.078.178.177v.199c0 .092-.081.182-.178.177a.18.18 0 01-.177-.177zm-.813-2.989c-.229 0-.229-.354 0-.354.23 0 .23.354 0 .354zm.792-1.977c-.229 0-.229-.355 0-.355s.229.355 0 .355zm4.55-8.704c-.229 0-.229-.355 0-.355.227 0 .227.355 0 .355zm-1.188-4.746c-.229 0-.229-.355 0-.355s.229.355 0 .355zm-1.779-4.353c-.229 0-.229-.354 0-.354.227 0 .229.354 0 .354zm-2.968-4.548c-.229 0-.229-.354 0-.354.23 0 .23.354 0 .354zm-1.384-1.384c-.229 0-.229-.354 0-.354s.229.354 0 .354zm.593 5.932c-.229 0-.229-.354 0-.354s.229.354 0 .354zm3.759 10.483c-.229 0-.229-.354 0-.354.227 0 .229.354 0 .354zm-.567-4.482c-.132-.394-.265-.791-.395-1.186-.073-.217.27-.31.343-.094.132.394.264.791.394 1.186.071.217-.269.312-.342.094zm-.818-3.033c-.229 0-.229-.354 0-.354.227 0 .227.354 0 .354zm-1.188 1.582c-.229 0-.229-.354 0-.354s.229.355 0 .355zM38.544 39.077a3.423 3.423 0 110-6.847 3.423 3.423 0 010 6.847zm56.797-10.766c-1.708-.647-2.307-3.248-1.337-5.811.97-2.563 3.141-4.117 4.85-3.47 1.708.647 2.307 3.249 1.337 5.811-.97 2.563-3.141 4.117-4.85 3.47zm10.632 4.962c-1.708-.647-2.307-3.249-1.337-5.812.97-2.562 3.141-4.116 4.85-3.469 1.709.647 2.307 3.248 1.337 5.811-.97 2.563-3.141 4.117-4.85 3.47zM46.341 36.05s.898-1.492 3.15-1.45c2.25.045 2.572.114 3.588 1.845 1.016 1.732-.416 2.68 1.692 2.902 2.107.222 2.185.068 2.575 1.056.39.987.406 3.066.406 3.066l-4.3.584-2.142-2.08-4.716-2.886-.53-.19.277-2.846zm13.351 10.954s.267 2.995 2.178 3.62c1.91.623 5.95 1.755 3.525 5.733-2.424 3.979-3.118 3.23-3.002 5.34.115 2.11 2.187 1.637 3.002 2.943.818 1.31 1.108 1.668.527 3.079-.579 1.413-1.505 3.298-1.389 5.221.116 1.923-.624 2.008 1.694 4.777 2.318 2.77 2.048 2.351 1.493 3.076-.555.726.262 2.39 1.418 2.942 1.155.555 2.176 2.398 2.176 2.398l-3.353-2.086-3.352-3.745-2.942-6.088-1.427-5.97-.676-4.957-.675-6.31-.192-2.508-1.027-2.868 1.308-2.955.714-1.642z" fill="#000"/></svg>