<svg width="101" height="165" fill="none" xmlns="http://www.w3.org/2000/svg"><path d="M61.083 114.621l3.468.846-.03.445-.31 3.306-.103 4.892.268 2.963s.564 3.408 1.347 4.551c.786 1.142.46 1.92 3.541 4.697 3.082 2.779 5.632 2.571 6.834 2.482 1.199-.089 4.224-.816 6.166-3.171 1.942-2.355 2.46-3.735 2.993-6.372.534-2.638.637-5.988.564-7.586-.073-1.602-.727-7.884-.727-7.884l-.637-8.36-.505-6.979-.251-2.533 5.793-6.053 6.077-6.671s3.014-3.282 4.154-5.797c1.14-2.514 1.467-6.563.513-9.472-.953-2.909-2.7-6.609-4.91-8.867-2.212-2.258-7.214-5.888-8.519-6.774-1.304-.883-4.607-2.676-4.607-2.676l-1.118-.605s5.19-8.238 5.701-9.659c.513-1.42 2.536-6.82 2.536-6.82l.862-3.538s1.21.303 2.793-.327c1.582-.629 2.909-2.304 3.281-4.165.373-1.86.07-4.632-1.35-7.586-1.42-2.955-4.165-7.941-4.165-7.941l-1.029-.692-2.444 5.543-1.208-1.84s-3.624-4.073-7.092-6.514C75.5 3.022 72.03 1.315 66.96.394c-5.07-.92-10.166.368-13.896 2.023-3.73 1.656-6.28 3.784-9.22 6.698-2.942 2.915-4.336 5.886-6.175 9.564-1.84 3.68-2.101 6.62-2.285 10.01-.184 3.39.367 5.99 1.207 8.8.84 2.811 3.285 6.28 3.285 6.28l3.6 5.096 1.129 1.445-1.656 1.655s-3.362 3.312-6.909 7.198c-3.546 3.887-6.28 8.96-6.28 8.96s-2.363 4.072-2.652 6.384c-.289 2.312.395 5.964.395 5.964s1.104 4.203 1.34 4.913c.237.71 2.39 5.885 3.124 7.12.735 1.234 3.152 4.518 5.202 5.647 2.05 1.13 4.597 2.023 4.597 2.023l.178 9.046s-1.02 3.53-1.169 5.253c-.148 1.723-.17 4.764.043 6.552.214 1.788.554 4.851 1.17 7.063.615 2.212 1.553 4.511 2.657 5.637 1.105 1.126 4.211 3.128 6.086 3.233 1.874.105 4.38.213 5.998-1.383 1.618-1.596 2.318-3.468 2.64-5.105.318-1.636.955-4.34.955-4.34l.405-4.573.276-4.977.078-1.959zM12.34 126.214s1.091-.565 1.105-1.264c.016-.7-.198-1.734-.957-2.023-.756-.289-1.793.213-2.368 1.002-.576.788-.832 1.855-.235 2.741.597.886 1.558.843 1.953.503.397-.341.502-.959.502-.959zm20.39-1.751s-.6.284-.6.719.046 1.304.689 1.364c.645.059 1.617.029 2.233-.57.613-.6.93-1.74.435-2.518-.494-.78-1.078-.84-1.483-.675-.405.165-.945.511-.988.87-.043.359-.286.81-.286.81zm-10.7 9.612l1.232-.151.76-.084 1.39.362s1.786 1.397 2.364 2.728c.578 1.332 1.63 3.733 1.742 5.961.11 2.231.308 4.405-.027 6.55-.335 2.144-.168 2.955-.168 2.955s-.526 2.29-.972 3.049c-.446.759-2.326 4.203-5.043 6.082-2.717 1.88-4.648 2.439-6.641 2.604-1.994.165-5.259.214-8.686-1.434-3.428-1.648-4.154-4.632-4.154-4.632l-.395-1.715.23-.856s-.873-3.15.313-5.472c1.186-2.326 4.945-7.533 4.945-7.533s2.177-2.62 3.215-3.544c1.037-.924 3-2.39 4.796-3.446 1.796-1.056 5.1-1.424 5.1-1.424z" fill="#fff"/><path d="M86.74 12.54C81.971 6.534 75.387 1.812 67.74.413 59.686-1.059 52.08 1.475 46.022 6.85c-5.264 4.672-9.118 11.125-10.423 18.069-.618 3.292-.648 6.698.06 9.977.826 3.846 2.72 7.317 4.953 10.523 5.278 7.565 13.321 15.15 12.13 25.232-.03.259.375.256.405 0 .9-7.595-3.643-14.226-8.054-19.944-4.773-6.185-9.472-12.427-9.559-20.59C35.376 15.258 48.362-.056 63.73.393c9.124.267 17.167 5.434 22.723 12.432.16.205.446-.081.286-.284z" fill="#000"/><path d="M52.589 71.431c-1.55.945-1.075 3.56.934 3.295.827-.108 1.413-.813 1.34-1.65-.092-1.078-1.064-1.923-1.899-2.485-.216-.146-.418.206-.205.351.554.373 1.118.843 1.448 1.437.37.673.354 1.615-.494 1.896-1.64.543-2.223-1.696-.919-2.49.222-.14.017-.492-.205-.354zM89.484 8.27c-2.072 4.146-3.811 8.705-3.622 13.416.135 3.376 1.315 8.078 5.58 7.651 3.697-.37 5.38-4.102 5.118-7.451-.168-2.131-1.016-4.125-1.972-6.013-1.226-2.422-2.563-4.794-3.848-7.184-.125-.23-.473-.024-.352.205 1.845 3.428 4.184 6.915 5.308 10.66 1.034 3.45.421 8.447-3.803 9.303-4.932.999-5.802-5.289-5.61-8.819.221-4.073 1.75-7.954 3.552-11.562.113-.233-.235-.438-.351-.206z" fill="#000"/><path d="M89.826 29.661c-.875 3.863-2.182 7.609-3.954 11.152-1.755 3.512-4.008 6.712-6.26 9.913-4.233 6.017-8.549 12.656-8.057 20.338.016.26.421.262.405 0-.524-8.154 4.397-15.004 8.854-21.348 4.326-6.156 7.727-12.565 9.402-19.95.059-.25-.33-.358-.39-.105z" fill="#000"/><path d="M71.206 71.196c-.92.308-1.499 1.259-1.39 2.226.108.975.953 1.612 1.906 1.62.96.008 1.84-.616 1.964-1.599.124-.996-.508-1.993-1.475-2.269-.251-.072-.359.32-.108.392 1.704.486 1.486 3.106-.38 3.071-1.778-.032-2.03-2.506-.411-3.05.248-.083.143-.475-.106-.39zm-27.384-20.34c-5.448 4.961-10.345 10.666-14.183 16.97-1.812 2.979-3.008 6.125-2.768 9.66.246 3.601 1.493 7.204 2.795 10.542 2.212 5.672 6.234 11.585 12.768 12.46 4.967.664 10.825-3.155 10.128-8.662-.362-2.874-2.563-5.383-5.307-6.253-3.071-.972-6.415.095-8.697 2.258-.19.181.097.468.286.287 2.177-2.067 5.375-3.088 8.303-2.156 2.77.883 4.959 3.546 5.059 6.488.094 2.822-1.786 5.307-4.176 6.63-2.588 1.435-5.62 1.351-8.31.249-5.862-2.401-8.728-8.408-10.615-14.064-.997-2.984-1.961-6.106-1.864-9.288.102-3.398 1.696-6.364 3.503-9.15 3.749-5.789 8.267-11.048 13.361-15.688.195-.173-.091-.456-.283-.283z" fill="#000"/><path d="M70.315 93.373c-2.007-1.655-4.978-1.175-6.625.765-1.834 2.155-1.972 5.458-.848 7.97 1.09 2.436 3.387 4.224 6.147 3.895 3.4-.408 6.639-3.217 9.242-5.243 6.332-4.92 11.709-10.92 17.014-16.897 2.35-2.65 4.715-5.326 5.461-8.894.681-3.262.113-6.68-1.17-9.723-3.22-7.63-10.703-12.04-17.547-16.016-.227-.133-.43.218-.206.35 5.486 3.188 11.277 6.523 15.077 11.752 3.665 5.04 5.24 12.103 1.78 17.659-1.734 2.782-4.192 5.178-6.377 7.608-2.126 2.361-4.284 4.697-6.534 6.94-2.352 2.343-4.805 4.588-7.411 6.643-2.474 1.95-5.434 4.484-8.551 5.256-4.024 1-7.071-2.552-7.225-6.344-.073-1.78.44-3.657 1.699-4.962 1.51-1.56 4.08-1.882 5.79-.472.195.164.484-.12.284-.287z" fill="#000"/><path d="M41.567 100.118c-.154.032-.562 1.218-.619 1.366-.705 1.875-1.407 3.752-2.112 5.626-.181.481-.351 1.054-.062 1.478.205.3.583.424.932.526 3.405 1.008 6.833 1.945 10.26 2.882 1.559.427 3.115.854 4.673 1.278 2.217.608 4.432 1.213 6.65 1.82 1.418.389 2.863.778 4.33.724.345-.013.728-.067.955-.332.173-.2.22-.475.257-.737.394-2.712.81-6.248 1.205-8.959 0 0-1.621-.271-2.083-.503-.462-.232-1.969-1.388-2.733-2.857-.767-1.47-.854-5.283-.154-6.971.7-1.689 2.541-2.904 4.548-2.836 2.007.067 3.125 1.823 3.125 1.823 1.23-2.893 2.769-6.088 3.998-8.978.448-1.056.848-2.415.043-3.23-.427-.433-1.07-.554-1.667-.654l-24.402-4.092c-.706-.119-1.513-.21-2.059.254-.383.327-.526.845-.65 1.334-.492 1.926-.97 4.26-1.462 6.185 0 0 3.911.233 5.602 2.277 1.69 2.045 2.512 4.16 2.236 5.805-.275 1.642-2.042 5.196-4.13 5.85-2.087.653-2.997 1.447-4.57 1.185-1.571-.264-2.111-.264-2.111-.264z" fill="#000"/><path d="M83.506 95.718c.357 5.364.754 10.725 1.197 16.084.432 5.256 1.42 10.766.694 16.03-.597 4.337-2.976 9.015-7.433 10.42-4.564 1.439-9.126-1.607-11.403-5.434-2.923-4.908-2.39-11.055-1.867-16.498.025-.259-.38-.256-.405 0-.497 5.167-.961 10.815 1.356 15.647 1.75 3.651 5.348 6.828 9.532 7.049 4.175.219 7.608-2.83 9.29-6.428 2.289-4.883 1.524-10.515 1.073-15.698a1027.196 1027.196 0 01-1.628-21.172c-.02-.26-.425-.26-.406 0zM41.642 109.79c-1.466 4.04-1.437 8.51-.886 12.724a44.37 44.37 0 001.275 6.236c.497 1.772 1.035 3.455 2.282 4.851 1.267 1.418 3.058 2.641 4.884 3.192 1.698.514 4.186.727 5.88.114 1.288-.465 2.544-1.783 3.324-2.863.46-.638.61-1.399.819-2.15.34-1.226.637-2.463.883-3.714.859-4.37.902-8.778 1.113-13.207.013-.26-.392-.26-.405 0-.152 3.2-.168 6.409-.546 9.596a47.686 47.686 0 01-1.175 6.25c-.251.978-.419 2.131-1.005 2.966-.45.642-1.058 1.201-1.642 1.723-1.545 1.383-3.398 1.364-5.366 1.196-2.29-.194-4.427-1.345-6.059-2.949-2.622-2.582-3.265-7.149-3.773-10.653-.632-4.359-.734-9.01.789-13.204.089-.249-.303-.354-.392-.108zm23.682-53.995C71.612 49.772 77.969 43.066 80 34.316c1.769-7.622-.69-15.798-6.95-20.678-3.014-2.35-6.855-3.79-10.7-3.638-3.71.146-6.996 1.915-9.61 4.475-2.78 2.723-5.119 6.24-6.272 9.97-1.34 4.332-.346 8.518 1.288 12.62 3.417 8.587 9.083 16.176 16.29 21.948.091.073.256.09.318-.04l1.95-4.081c.11-.235-.238-.44-.351-.206-.432.908-.867 1.813-1.3 2.72-.25.524-.31 1.054-.847.905-.373-.103-.886-.737-1.18-.991a53.007 53.007 0 01-11.145-13.483c-2.02-3.487-3.827-7.29-4.796-11.217-1.105-4.473-.092-8.724 2.252-12.622 2.002-3.324 4.708-6.503 8.227-8.267 3.838-1.923 8.3-1.623 12.146.113 7.436 3.358 11.657 11.706 10.75 19.68-1.124 9.871-8.181 17.418-15.036 23.98-.186.187.1.474.289.292zm-42.307 78.027c-6.115.141-10.936 4.243-14.504 8.865-2.869 3.713-7.8 9.955-4.06 14.674 1.7 2.142 4.802 3.111 7.38 3.6 2.924.554 5.995.432 8.812-.57 5.137-1.828 8.527-6.242 9.13-11.619.372-3.325.164-6.831-1.01-9.988-.814-2.182-2.445-5.505-5.262-5.072-.257.04-.149.429.108.391 3.076-.472 4.724 4.243 5.302 6.52.632 2.493.748 5.132.502 7.684-.505 5.248-3.525 9.608-8.502 11.555-2.61 1.021-5.5 1.245-8.26.834-2.53-.375-5.448-1.201-7.352-3.003-4.489-4.246.484-10.739 3.25-14.393 3.53-4.665 8.305-8.929 14.463-9.073.262-.008.262-.413.003-.405z" fill="#000"/><path d="M3.31 155.789c.05 7.222 9.09 9.61 14.823 8.267 7.093-1.658 11.936-8.267 11.658-15.503-.011-.259-.416-.262-.406 0 .26 6.731-4.013 12.983-10.53 14.893-5.583 1.637-15.09-.329-15.142-7.66 0-.256-.405-.259-.402.003zm11.469-17.186a25.093 25.093 0 00-1.98-11.498c-.103-.24-.451-.032-.351.206a24.639 24.639 0 011.923 11.295c-.014.259.392.256.408-.003z" fill="#000"/><path d="M12.078 125.822a1.053 1.053 0 01-.991 1.41c-.67 0-1.186-.645-1.321-1.24-.238-1.042.564-2.495 1.566-2.881 1.251-.484 2.404 1.01 1.77 2.158-.46.832-1.489 1.129-2.37.945-.253-.054-.361.338-.107.392 1.37.286 3.152-.538 3.068-2.142-.081-1.551-1.812-2.388-3.025-1.429-1.22.964-2.001 3.09-.564 4.227 1.107.878 2.898-.114 2.366-1.545-.092-.243-.484-.138-.392.105zm12.959 12.757c2.185-4.462 5-8.546 8.394-12.171.179-.189-.108-.478-.286-.286a50.188 50.188 0 00-8.46 12.254c-.113.232.236.438.352.203z" fill="#000"/><path d="M33.512 124.437c-.907-.551-1.93.616-1.607 1.523.443 1.234 2.19 1.035 3.028.411 1.075-.803 1.488-2.437.378-3.406-.983-.862-2.568-.181-2.563 1.134 0 .262.405.262.405 0-.005-1.218 1.472-1.421 2.11-.578.607.802.237 1.856-.476 2.445-.53.437-1.361.699-2.015.359-.907-.473-.31-2.05.535-1.537.224.132.427-.216.205-.351zm-3.951 17.475c.702-.962 2.166-.832 2.99-.095.913.819 1.18 2.123 1.331 3.282.033.254.44.259.406 0-.195-1.469-.597-3.244-2.048-3.979-1.037-.524-2.325-.38-3.03.584-.151.213.2.416.351.208zm.759 5.979c2.593-.786 3.8 3.101 3.565 5.051-.032.259.376.257.405 0 .265-2.209-1.172-6.32-4.078-5.44-.249.073-.143.465.108.389zm-.91 5.889c2.336 1.056 2.155 3.792 1.896 5.931-.033.259.375.256.405 0 .275-2.285.373-5.167-2.096-6.28-.238-.108-.443.24-.205.349zM9.183 141.004c-1.005-.262-2.042-.119-2.777.675-.678.732-.816 1.802-.46 2.712.095.24.487.135.392-.108-.726-1.858.927-3.363 2.737-2.89.25.068.359-.324.108-.389zm-4.519 7.098a6.015 6.015 0 00-1.667-.211c-.388.009-.98.003-1.32.222-.297.192-.276.535-.276.851-.002.667.008 1.331.011 1.998.003.26.408.262.405 0-.003-.37-.003-.74-.005-1.11-.003-.391-.116-.977.132-1.283.47-.575 1.98-.245 2.615-.078.248.068.356-.321.105-.389zm-1.569 6.204c-.938.597-2.699 1.502-3.017 2.666-.357 1.313.605 3.241 1.026 4.451.087.246.478.141.392-.108-.34-.975-.78-2.045-.919-3.071-.253-1.893 1.378-2.733 2.72-3.589.219-.138.016-.489-.202-.349z" fill="#000"/><path d="M34.155 125.009c.157.119.135.154-.062.106l-.051-.198a2.344 2.344 0 01-.813 1.119l.297.121a.97.97 0 01.691-1.283c.254-.056.146-.445-.108-.391-.77.167-1.253 1.042-.975 1.782.04.108.184.206.297.122.47-.351.808-.805 1-1.361a.198.198 0 00-.052-.198c-.462-.405-.77.624-.224.586.257-.016.26-.421 0-.405zm-23.255.557a1.792 1.792 0 01.519-1.923h-.286c.283.367.016.999-.443 1.053l.194.149c-.057-.176.135-.389.324-.281.227.129.432-.222.206-.351-.481-.273-1.094.202-.921.737.024.076.105.159.194.148.83-.097 1.24-1.085.73-1.744-.071-.089-.214-.065-.287 0a2.201 2.201 0 00-.621 2.317c.08.249.472.143.391-.105zm15.684 31.079l-3.762 3.776c-.183.184.103.473.286.286 1.254-1.258 2.51-2.517 3.763-3.776.184-.183-.103-.47-.287-.286z" fill="#000"/><path d="M25.366 157.79a5676.153 5676.153 0 00-5.434 3.609c-.216.143-.013.494.206.351 1.812-1.202 3.621-2.404 5.434-3.609.216-.145.013-.497-.206-.351z" fill="#000"/><path d="M21.377 160.386c-1.542.783-3.087 1.564-4.63 2.347l.247.319c1.293-1.264 2.863-2.031 4.659-2.256l-.143-.345c-1.502 1.329-3.33 1.939-5.327 1.801.02.133.035.265.054.397 1.532-.629 3.036-1.204 4.727-.969v-.392a42.29 42.29 0 01-8.71.91c-.262 0-.26.397 0 .405l1.158.033v-.405c-1.148.016-2.117-.246-3.1-.846-.052.125-.106.246-.157.37a12.85 12.85 0 004.948.894c.221-.002.286-.354.054-.397-1.016-.197-1.896-.032-2.76.546-.111.073-.135.219-.04.319.35.372.647.561 1.128.731.019-.132.035-.264.054-.397-1.213.095-2.296-.334-3.309-.975-.696-.437-1.242-.923-1.98-1.293-.48-.241-.885-.586-1.255-.97l-.143.346.883.386.246-.319-2.199-1.596c-.051.124-.105.246-.157.37.406.157.813.311 1.219.467.216.084.353-.262.156-.37-.548-.302-1.1-.602-1.647-.905-.23-.126-.433.225-.206.352.549.302 1.1.602 1.648.904.051-.124.105-.245.157-.37-.406-.156-.813-.31-1.219-.467-.23-.089-.326.246-.156.37l2.198 1.596c.187.135.416-.167.246-.318-.391-.346-.659-.457-1.172-.505-.184-.017-.257.229-.143.345a4.981 4.981 0 002.555 1.445c.103.025.221-.032.248-.14.011-.041.02-.081.03-.124.019-.084-.013-.187-.092-.23-.246-.127-.275-.138-.521-.003a.206.206 0 00-.092.23c.17.77 1.167 1.161 1.799 1.496.926.492 1.856.765 2.909.684a.203.203 0 00.054-.397c-1.937-.695.988-.905 1.456-.816.019-.132.035-.265.054-.397a12.61 12.61 0 01-4.84-.881c-.22-.086-.346.254-.157.37a5.983 5.983 0 003.306.902c.262-.002.262-.397 0-.405l-1.159-.032v.405a42.856 42.856 0 008.819-.924c.186-.04.2-.362 0-.391-1.764-.246-3.325.305-4.943.969-.208.087-.186.381.054.397 2.101.144 4.038-.526 5.615-1.92.125-.108.033-.367-.143-.346-1.912.241-3.568 1.027-4.945 2.374-.17.165.046.419.245.319 1.543-.783 3.088-1.564 4.63-2.347.227-.119.021-.47-.21-.351zm-10.607-19.53c2.907.98 5.997 2.09 9.081 2.271 2.936.173 5.7-.91 8.303-2.153.235-.113.03-.461-.206-.351-2.69 1.286-5.544 2.374-8.58 2.058-2.885-.299-5.756-1.293-8.492-2.217-.246-.084-.351.308-.105.392z" fill="#000"/><path d="M18.185 143.157c-2.05 5.674-4.073 11.36-6.072 17.053-.086.246.305.354.392.108a2030.591 2030.591 0 016.071-17.053c.09-.246-.302-.354-.391-.108zm10.785.548c.261 0 .261-.405 0-.405-.262 0-.262.405 0 .405zm-.227 4.975c.262 0 .262-.405 0-.405s-.262.405 0 .405zm-2.261 4.748c.262 0 .262-.405 0-.405s-.262.405 0 .405zm-2.715 2.942c.262 0 .262-.405 0-.405-.259 0-.261.405 0 .405zm-2.714 1.582c.262 0 .262-.405 0-.405-.26 0-.26.405 0 .405zm-2.993.505c-.226.076-.45.152-.677.227-.246.081-.14.473.108.392l.678-.227c.245-.084.14-.475-.108-.392zm-3.789.624c.262 0 .262-.405 0-.405s-.262.405 0 .405z" fill="#000"/><path d="M13.14 159.308c.261 0 .261-.405 0-.405-.26 0-.26.405 0 .405zm-4.749-1.809c.262 0 .262-.406 0-.406-.26 0-.262.406 0 .406zm-.905.453c.262 0 .262-.405 0-.405-.259 0-.259.405 0 .405zm4.298-1.809c.261 0 .261-.405 0-.405-.263 0-.263.405 0 .405zm-3.62-1.81c.262 0 .262-.405 0-.405-.259 0-.259.405 0 .405zm-2.034.451c.262 0 .262-.405 0-.405s-.262.405 0 .405zm4.976 3.846c.262 0 .262-.405 0-.405s-.262.405 0 .405zm5.199-1.582c.262 0 .262-.406 0-.406-.26 0-.26.406 0 .406zm4.524-2.264c.262 0 .262-.405 0-.405s-.262.405 0 .405zm3.392-2.711c.262 0 .262-.406 0-.406s-.262.406 0 .406zm1.583-3.166c.262 0 .262-.405 0-.405s-.262.405 0 .405zm-.454 4.07c.262 0 .262-.405 0-.405-.26 0-.262.405 0 .405zm-7.462.451c.262 0 .262-.405 0-.405-.26 0-.26.405 0 .405zm2.941-2.487c.262 0 .262-.405 0-.405s-.262.405 0 .405zm2.938-3.393c.262 0 .262-.405 0-.405-.259 0-.261.405 0 .405zm-11.306 5.202c.262 0 .262-.405 0-.405-.259 0-.261.405 0 .405zm-5.653 0c.262 0 .262-.405 0-.405-.259 0-.262.405 0 .405zm.454-1.809c.262 0 .262-.405 0-.405s-.262.405 0 .405zm1.583-.856h-.227c-.105 0-.208.091-.203.202.006.111.09.203.203.203h.227c.105 0 .208-.092.202-.203a.205.205 0 00-.202-.202zm6.104 1.083c.262 0 .262-.405 0-.405s-.262.405 0 .405zm4.975-2.488c.262 0 .262-.405 0-.405s-.262.405 0 .405zm3.616-3.165c.263 0 .263-.406 0-.406-.259 0-.259.406 0 .406zm3.393-1.583c.262 0 .262-.405 0-.405-.26 0-.26.405 0 .405zm-3.843-2.939c.262 0 .262-.405 0-.405s-.262.405 0 .405zm-3.844 1.356c.262 0 .262-.405 0-.405s-.262.405 0 .405zm-.454.678c.262 0 .262-.405 0-.405-.259 0-.259.405 0 .405zm-5.199-1.81c.262 0 .262-.405 0-.405s-.262.405 0 .405zm11.757-.224c.262 0 .262-.405 0-.405-.26 0-.262.405 0 .405zm-7.009.903h.227c.105 0 .208-.092.203-.203-.006-.111-.09-.203-.203-.203h-.227c-.105 0-.208.092-.202.203.005.111.089.203.202.203zm-2.941-.679c.262 0 .262-.405 0-.405-.26 0-.26.405 0 .405zm.454-1.582c.262 0 .262-.405 0-.405s-.262.405 0 .405zm2.26.454c.262 0 .262-.406 0-.406-.259 0-.262.406 0 .406zm.454-.454c.262 0 .262-.405 0-.405s-.262.405 0 .405zm1.129.454c.262 0 .262-.406 0-.406-.26 0-.262.406 0 .406z" fill="#000"/><path d="M19.47 139.862c.262 0 .262-.405 0-.405-.259 0-.259.405 0 .405zm28.328-5.688l1.115.923c.2.165.486-.119.286-.286l-1.115-.924c-.197-.164-.486.122-.286.287zm3.962.683l.905.227c.254.065.361-.327.108-.392l-.905-.227c-.254-.062-.362.327-.108.392zm2.207-1.129c.15.075.302.151.45.227.098.048.22.027.279-.073.051-.089.024-.227-.073-.278l-.451-.227c-.097-.049-.219-.027-.278.073-.054.091-.027.229.073.278zm1.909-2.685c.262 0 .262-.405 0-.405-.26 0-.26.405 0 .405zm1.359-4.07c.262 0 .262-.405 0-.405s-.262.405 0 .405zm0-3.844c.262 0 .262-.405 0-.405s-.262.405 0 .405zm0-3.168c.262 0 .262-.405 0-.405s-.262.405 0 .405zm.226-2.938c.262 0 .262-.406 0-.406s-.262.406 0 .406zm4.295 2.714c.262 0 .262-.405 0-.405-.26 0-.26.405 0 .405zm12.249 17.567a1.74 1.74 0 011.428.289c.214.151.416-.2.206-.351a2.149 2.149 0 00-1.74-.33c-.256.06-.148.451.106.392zm3.581-1.966c.262 0 .262-.406 0-.406s-.262.406 0 .406zm2.939-2.034c.262 0 .262-.405 0-.405-.26 0-.262.405 0 .405zm1.355-3.166c.262 0 .262-.405 0-.405-.259 0-.259.405 0 .405zm.227-3.619c.262 0 .262-.405 0-.405-.259 0-.262.405 0 .405zm0-4.748c.262 0 .262-.405 0-.405-.259 0-.262.405 0 .405zm.454-4.748c.262 0 .262-.406 0-.406s-.262.406 0 .406zm0-3.844c.262 0 .262-.405 0-.405s-.262.405 0 .405zm-.681-3.843h.452c.262 0 .262-.405 0-.405h-.452c-.259 0-.259.405 0 .405zm-.45-4.297c.261 0 .261-.405 0-.405-.263 0-.263.405 0 .405zm.226-2.715h.227c.106 0 .208-.092.203-.202-.006-.111-.09-.203-.203-.203h-.227c-.105 0-.208.092-.202.203.002.11.089.202.202.202zm0-2.712c.262 0 .262-.405 0-.405s-.262.405 0 .405zm-10.855 35.275c.262 0 .262-.406 0-.406-.259 0-.262.406 0 .406zm4.47-1.364l1.356.451c.249.083.354-.308.108-.392-.45-.151-.905-.303-1.356-.451-.248-.081-.356.31-.108.392zm4.749-2.488l.677.227c.249.084.354-.308.108-.392l-.678-.227c-.248-.081-.356.311-.108.392zm.505-4.062c.262 0 .262-.405 0-.405-.26 0-.262.405 0 .405zm-.227-4.297c.262 0 .262-.405 0-.405-.26 0-.26.405 0 .405zm.678-4.975c.262 0 .262-.405 0-.405-.26 0-.26.405 0 .405zm0-4.295c.262 0 .262-.405 0-.405-.26 0-.26.405 0 .405zm-.903-4.524c.263 0 .263-.405 0-.405-.261 0-.261.405 0 .405zm-.68-3.392h.451c.262 0 .262-.405 0-.405h-.451c-.26 0-.26.405 0 .405zm.227-3.166c.262 0 .262-.405 0-.405-.26 0-.262.405 0 .405zm-7.125 30.969l.904.678c.209.157.411-.195.206-.351l-.905-.678c-.208-.154-.41.197-.205.351zm4.495-2.763l.226.227c.076.075.213.081.286 0 .073-.081.081-.206 0-.287l-.227-.226c-.075-.076-.213-.081-.286 0-.073.081-.078.208 0 .286zm1.22-4.243l.678.227c.248.083.354-.308.108-.392l-.678-.227c-.248-.081-.354.311-.108.392zm1.183-5.872c.262 0 .262-.405 0-.405-.26 0-.26.405 0 .405zm-1.045-5.261c.075.075.15.151.227.226.075.076.213.082.286 0a.207.207 0 000-.286 48.571 48.571 0 01-.227-.227c-.076-.075-.213-.081-.286 0a.205.205 0 000 .287zm-.538.513c.262 0 .262-.405 0-.405-.26 0-.26.405 0 .405zm-7.687 15.376c.262 0 .262-.405 0-.405s-.262.405 0 .405zm-2.868.632l1.142.889c.203.159.492-.127.287-.286a221.36 221.36 0 00-1.143-.889c-.202-.157-.491.127-.286.286zm-1.178-3.322v.451c0 .262.406.262.406 0v-.451c0-.262-.406-.262-.406 0zm-8.961 1.691c-.216.216-.046.659.275.624a.36.36 0 00.314-.273.364.364 0 00-.149-.4c-.087-.062-.23-.019-.278.073-.054.106-.02.211.073.278-.022-.019-.03-.021-.02-.013.012.011.006.005-.013-.016-.008-.017-.01-.041-.005-.011.003.024 0-.049-.003-.014-.003.041.016-.043 0-.005-.005.013-.021.046.003-.003-.016.033.024-.024.008-.005-.022.024-.003.005.01-.006-.013.009-.013.009.003 0a.066.066 0 01.044-.008c-.038 0 .035.011.01.003-.021-.005.041.022.011.003.022.019.03.021.017.013l-.014-.013.016.021-.013-.021c.008 0 .016.048.005.005-.005-.024 0 .046.003.011-.006.032-.008.04-.003.024 0-.005.003-.011.006-.016.005.011-.046.068-.02.038.076-.076.082-.213 0-.286a.2.2 0 00-.28-.003zm1.331-5.167l.451.451c.184.184.47-.103.287-.286l-.451-.451c-.184-.184-.47.102-.287.286zm.821-4.011c.262 0 .262-.405 0-.405-.259 0-.259.405 0 .405zm-.451-4.07c.262 0 .262-.405 0-.405s-.262.405 0 .405zm0 1.358c.262 0 .262-.405 0-.405s-.262.405 0 .405zm-2.463 14.269v.227c0 .105.092.208.203.203.11-.006.202-.089.202-.203v-.227c0-.105-.092-.208-.202-.202a.205.205 0 00-.203.202zm-2.512 4.046c.262 0 .262-.405 0-.405s-.262.405 0 .405zm2.488-2.487c.262 0 .262-.405 0-.405s-.262.405 0 .405zm-5.964.108l-.227-.227c-.075-.076-.213-.081-.286 0-.073.081-.081.205 0 .286l.227.227c.076.076.213.081.286 0a.203.203 0 000-.286zm-2.855-1.237c.262 0 .262-.405 0-.405s-.262.405 0 .405zm-1.131-.905c.262 0 .262-.405 0-.405-.26 0-.26.405 0 .405z" fill="#000"/><path d="M46.606 131.948c.262 0 .262-.405 0-.405s-.262.405 0 .405zm.227 2.034c.262 0 .262-.405 0-.405s-.262.405 0 .405zm-1.809-1.356c.262 0 .262-.405 0-.405s-.262.405 0 .405zm-.905-3.166c.262 0 .262-.405 0-.405s-.262.405 0 .405zm6.785 2.712c.262 0 .262-.405 0-.405s-.262.405 0 .405zm2.26-1.583c.262 0 .262-.405 0-.405s-.262.405 0 .405zm1.129-3.616c.262 0 .262-.405 0-.405-.259 0-.259.405 0 .405zm.227-2.261c.262 0 .262-.405 0-.405-.26 0-.262.405 0 .405zm.678-5.88c.262 0 .262-.405 0-.405-.26 0-.26.405 0 .405zm0-2.941c.262 0 .262-.405 0-.405-.26 0-.26.405 0 .405zm18.769 15.152c.262 0 .262-.405 0-.405-.26 0-.262.405 0 .405zm10.177-6.107c.262 0 .262-.405 0-.405s-.262.405 0 .405zm-.454-3.843c.262 0 .262-.405 0-.405-.26 0-.262.405 0 .405zm-.451-4.297c.262 0 .262-.405 0-.405s-.262.405 0 .405zm-.905-9.043c.262 0 .262-.405 0-.405s-.262.405 0 .405zm1.356 21.481c.262 0 .262-.405 0-.405-.26 0-.262.405 0 .405zm-.905 3.843c.262 0 .262-.405 0-.405-.259 0-.259.405 0 .405zm-3.392 3.165c.262 0 .262-.405 0-.405-.26 0-.26.405 0 .405zm-.903-4.521c.263 0 .263-.405 0-.405-.261 0-.261.405 0 .405zm.903-2.714c.262 0 .262-.406 0-.406-.26 0-.26.406 0 .406zm-2.488-1.988h-.227c-.105 0-.207.092-.202.202a.206.206 0 00.203.203h.226c.106 0 .208-.092.203-.203a.204.204 0 00-.203-.202zm-3.843 1.988c.262 0 .262-.406 0-.406-.26 0-.26.406 0 .406zm4.298-5.2c.261 0 .261-.405 0-.405-.263 0-.263.405 0 .405zm0-5.653c.261 0 .261-.405 0-.405-.263 0-.263.405 0 .405zm.226-8.594c.262 0 .262-.405 0-.405s-.262.405 0 .405zm-1.359-2.261c.262 0 .262-.405 0-.405-.259 0-.259.405 0 .405zM55.652 129.46c.262 0 .262-.405 0-.405s-.262.405 0 .405zm-7.236.905c.262 0 .262-.405 0-.405s-.262.405 0 .405zm2.939-1.131c.262 0 .262-.405 0-.405-.26 0-.262.405 0 .405zm-5.427-1.132c.263 0 .263-.405 0-.405-.261 0-.261.405 0 .405zm-2.941-2.488c.262 0 .262-.405 0-.405-.26 0-.26.405 0 .405zm8.819.905c.262 0 .262-.405 0-.405-.26 0-.26.405 0 .405zm2.036-3.843c.262 0 .262-.405 0-.405s-.262.405 0 .405zm26.231-10.629c.263 0 .263-.405 0-.405-.261 0-.261.405 0 .405zm-5.428 11.533c.262 0 .262-.405 0-.405-.26 0-.26.405 0 .405zm-2.939 3.166c.262 0 .262-.405 0-.405s-.262.405 0 .405zM94.25 24.884c.309-.676.617-1.35.922-2.026.108-.235-.243-.443-.351-.205-.308.675-.616 1.35-.921 2.025-.109.235.243.443.35.206zm-.923-1.764a5.558 5.558 0 001.197-2.117c.075-.252-.317-.357-.392-.109a5.114 5.114 0 01-1.091 1.94c-.176.191.11.478.286.286zm-.192-2.752c.303-.678.602-1.356.905-2.034.105-.235-.243-.443-.351-.205-.303.678-.602 1.355-.905 2.034-.103.237.246.442.351.205zm-.653-2.307c.227-.602.453-1.205.677-1.81.092-.243-.3-.35-.391-.108-.227.603-.454 1.205-.678 1.81-.09.243.302.348.392.108zm-23.05 86.446l.46-.902c.118-.233-.233-.438-.352-.206l-.46.902c-.115.233.233.438.352.206zm2.45-1.151c.45-.829.904-1.658 1.355-2.488.125-.229-.224-.434-.35-.205l-1.356 2.488c-.125.229.224.435.35.205zm4.07-2.261l1.356-2.26c.135-.224-.216-.427-.351-.206-.451.754-.905 1.508-1.356 2.261-.135.224.216.427.351.205zm5.426-4.975c.527-1.056 1.056-2.11 1.583-3.165.116-.233-.232-.438-.351-.206l-1.583 3.166c-.116.232.235.437.351.205zm4.073-3.84a7.633 7.633 0 001.37-2.993c.056-.254-.335-.362-.392-.108a7.395 7.395 0 01-1.33 2.895c-.153.208.198.41.352.206zm4.767-5.48c.227-.754.451-1.508.678-2.261.076-.252-.316-.357-.392-.108-.226.753-.45 1.507-.678 2.26-.075.251.317.36.392.108zm4.125-3.606c.226-.98.45-1.961.677-2.942.06-.253-.332-.361-.391-.108-.227.98-.451 1.961-.678 2.942-.06.254.332.362.392.108zm3.13-5.434a6.645 6.645 0 00.205-2.547c-.03-.257-.435-.26-.405 0a6.358 6.358 0 01-.192 2.438c-.07.254.322.362.392.109zm1.567-5.713a4.25 4.25 0 00-.473-2.59c-.122-.23-.473-.027-.351.205.394.748.529 1.548.418 2.385-.035.26.37.257.405 0zm-31.855 32.087c.262 0 .262-.405 0-.405s-.262.405 0 .405zm-1.835-2.012v-.227c0-.106-.091-.208-.202-.203-.11.006-.202.089-.202.203v.227c0 .105.091.208.202.202a.205.205 0 00.203-.202zm9.03-.343c.308-.6.619-1.199.926-1.799.12-.232-.23-.438-.35-.205-.309.599-.62 1.199-.927 1.799-.119.232.23.437.351.205zm4.3-2.769c.23-1.204.462-2.409.691-3.616.049-.254-.343-.365-.391-.108l-.692 3.616c-.046.254.343.365.392.108zm6.315-8.997c.075-.15.15-.302.227-.45.048-.098.027-.22-.073-.279-.09-.051-.227-.024-.279.073-.075.151-.15.303-.227.451-.048.097-.026.219.073.278.092.055.23.027.279-.073zm3.216-2.301l.921-3.387c.068-.25-.321-.359-.391-.108l-.921 3.387c-.068.252.321.36.391.108zm4.041-4.756c.303-1.659.602-3.317.905-4.975.046-.254-.343-.365-.392-.108-.302 1.658-.602 3.316-.905 4.975-.046.254.346.365.392.108zm3.625-6.612a9.354 9.354 0 00-.233-2.768c-.06-.254-.45-.146-.391.108.208.878.278 1.76.219 2.66-.017.26.388.26.405 0zm.904-5.88v-.45c0-.263-.405-.263-.405 0v.45c0 .262.405.262.405 0zm1.073-4.214l-.905-.904c-.184-.184-.47.102-.286.286l.904.905c.184.186.47-.1.287-.286zM47.56 96.968c-.227-.075-.451-.154-.678-.23-.249-.083-.354.309-.108.392.227.076.45.154.678.23.246.084.354-.308.108-.392zm-2.38 2.123L44 97.317c-.143-.216-.494-.014-.351.205.394.592.789 1.183 1.18 1.775.146.216.497.013.351-.206zm-3.848-.672l-.924-1.343c-.146-.213-.497-.01-.351.206l.923 1.342c.149.21.5.008.352-.205zm-4.028-2.456l-.226-1.355c-.044-.257-.433-.149-.392.108l.227 1.356c.043.256.435.145.392-.109zm-3.843-4.523a5.787 5.787 0 01-.219-1.983c.017-.26-.389-.26-.405 0-.043.71.035 1.405.232 2.088.073.254.465.146.392-.105zm-2.482-5.373a12.476 12.476 0 01.219-3.338c.051-.254-.34-.365-.392-.108-.23 1.14-.31 2.285-.232 3.446.019.26.424.262.405 0zm-2.042-5.825c.227-.83.451-1.659.678-2.488.068-.251-.321-.36-.392-.108-.226.83-.45 1.658-.678 2.487-.067.254.324.36.392.109zm-.502-6.693c.526-.678 1.056-1.356 1.582-2.034.16-.203-.127-.492-.286-.287l-1.583 2.034c-.159.203.125.492.287.287zm3.616-7.012l.905-1.132c.162-.202-.124-.488-.286-.286l-.905 1.132c-.162.203.124.492.286.286zm4.975-5.877l.905-.905c.184-.184-.102-.47-.286-.286l-.905.905c-.184.183.103.47.286.286zm4.03-5.623c.227-.151.451-.303.678-.451.216-.143.014-.495-.205-.352-.227.152-.451.303-.678.452-.216.145-.014.497.205.35zm-1.71 40.527v-1.81c0-.262-.405-.262-.405 0v1.81c0 .262.405.262.405 0zm-4.521-4.294l.227-1.81c.032-.26-.373-.257-.405 0l-.227 1.81c-.032.256.373.253.405 0zm-2.29-5.778c.15-.302.302-.602.45-.905.117-.232-.231-.437-.35-.205-.152.303-.303.602-.451.905-.114.232.235.438.35.205zm-1.615-6.29a8.132 8.132 0 001.41-2.577c.08-.249-.308-.354-.392-.108a7.537 7.537 0 01-1.305 2.398c-.162.2.125.49.287.287zm.988-6.952c.262 0 .262-.406 0-.406-.26 0-.262.406 0 .406zm3.843-7.01c.262 0 .262-.404 0-.404-.259 0-.259.405 0 .405zm5.429-5.201c.262 0 .262-.405 0-.405s-.262.405 0 .405zm2.712-3.389c.262 0 .262-.406 0-.406-.26 0-.26.405 0 .405zm5.315 38.039c-.15-.076-.302-.151-.45-.227-.098-.049-.22-.027-.279.073-.051.089-.024.227.073.278.151.076.303.151.451.227.097.048.219.027.278-.073.052-.09.025-.227-.073-.278zm-5.088 1.758c.262 0 .262-.405 0-.405s-.262.405 0 .405zM41.18 94.41c.262 0 .262-.405 0-.405s-.262.406 0 .406zm-4.297-4.297c.262 0 .262-.405 0-.405s-.262.405 0 .405zM35.495 86.8c.151-.379.302-.754.451-1.132.097-.243-.294-.349-.392-.108-.15.378-.302.753-.45 1.132-.095.243.296.348.39.108zm-.924-5.832c.151-.302.303-.602.451-.905.116-.232-.232-.437-.35-.205-.152.303-.303.602-.452.905-.116.235.235.44.351.205zm.729-8.943c.262 0 .262-.405 0-.405s-.262.405 0 .405zm1.356-4.524c.262 0 .262-.405 0-.405-.259 0-.259.405 0 .405zm5.654-6.104c.261 0 .261-.405 0-.405-.26 0-.26.405 0 .405zm3.165-1.582c.262 0 .262-.406 0-.406-.26 0-.26.406 0 .406zm.453 34.369c.263 0 .263-.405 0-.405-.261 0-.261.405 0 .405zm-3.189 3.643V97.6c0-.105-.092-.208-.203-.202a.205.205 0 00-.202.202v.227c0 .106.091.208.202.203a.206.206 0 00.203-.203zm-1.61-1.482c.076-.152.151-.303.227-.451.048-.098.027-.22-.073-.279-.09-.051-.227-.024-.278.073l-.227.451c-.049.098-.027.22.073.279.089.053.227.026.278-.073zm-.629-1.257c.262 0 .262-.405 0-.405-.26 0-.26.405 0 .405zm2.714 0c.262 0 .262-.405 0-.405-.26 0-.262.405 0 .405zm-9.045-1.355c.262 0 .262-.406 0-.406-.26 0-.26.406 0 .406zm2.511-1.785v.226c0 .106.092.208.203.203a.207.207 0 00.203-.203v-.227c0-.105-.092-.207-.203-.202a.206.206 0 00-.202.203zm3.82.652c.262 0 .262-.404 0-.404-.26 0-.26.405 0 .405zm-6.331-4.293c.262 0 .262-.406 0-.406-.26 0-.26.406 0 .406zm-2.712 0c.262 0 .262-.406 0-.406s-.262.406 0 .406zm1.129-5.654c.262 0 .262-.405 0-.405-.26 0-.26.405 0 .405zm-2.712-6.106c.262 0 .262-.405 0-.405s-.262.405 0 .405zm2.939-1.357c.262 0 .262-.404 0-.404s-.262.405 0 .405zm2.938 3.844c.262 0 .262-.405 0-.405-.259 0-.259.405 0 .405zm14.901 13.818v-.227c0-.105-.091-.208-.202-.202a.206.206 0 00-.203.202v.227c0 .106.092.208.203.203a.207.207 0 00.202-.203zm-1.558-2.512c.262 0 .262-.405 0-.405s-.262.405 0 .405zm-1.583 2.715c.262 0 .262-.405 0-.405s-.262.405 0 .405zm23.517 9.045c.262 0 .262-.405 0-.405s-.262.405 0 .405zm-2.941-.905c.262 0 .262-.405 0-.405-.26 0-.26.405 0 .405zm-2.487-.68c.261 0 .261-.405 0-.405-.26 0-.26.405 0 .405zm2.263 0c.262 0 .262-.405 0-.405s-.262.405 0 .405zm2.938 2.263c.262 0 .262-.405 0-.405-.259 0-.262.405 0 .405zm4.041-4.899l.227-.678c.084-.249-.308-.354-.392-.108l-.227.678c-.084.248.308.356.392.108zm7.265-7.989c.262 0 .262-.406 0-.406-.259 0-.262.405 0 .405zm4.071-3.62c.262 0 .262-.405 0-.405-.26 0-.262.405 0 .405zm4.07-6.558c.262 0 .262-.405 0-.405-.26 0-.262.405 0 .405zm1.81-3.392c.261 0 .261-.405 0-.405-.263 0-.263.405 0 .405zm1.582-3.39c.262 0 .262-.405 0-.405s-.262.405 0 .405zm.227-7.238c.262 0 .262-.405 0-.405s-.262.405 0 .405zm.224-1.582c.262 0 .262-.406 0-.406-.259 0-.259.405 0 .405zm-1.355-3.167c.261 0 .261-.405 0-.405-.263 0-.263.405 0 .405zm4.748 13.343c.262 0 .262-.405 0-.405-.26 0-.262.405 0 .405zm-.905 6.104c.262 0 .262-.405 0-.405-.26 0-.26.405 0 .405zm-4.295 4.524c.262 0 .262-.405 0-.405s-.262.405 0 .405zm-3.846 4.522c.262 0 .262-.406 0-.406-.259 0-.259.406 0 .406zm6.332-19.898c.261 0 .261-.405 0-.405-.26 0-.26.405 0 .405zm.904-6.785c.262 0 .262-.405 0-.405-.26 0-.26.405 0 .405zm-3.844-3.165c.263 0 .263-.405 0-.405-.259 0-.261.405 0 .405zM90.021 72.25c.262 0 .262-.406 0-.406-.26 0-.26.406 0 .406zm-2.261 8.594c.262 0 .262-.405 0-.405-.259 0-.262.405 0 .405zm-2.26 2.938c.262 0 .262-.405 0-.405s-.262.406 0 .406zm-5.653 7.69c.262 0 .262-.405 0-.405s-.262.405 0 .405zM75.9 95.615l-.904.678c-.205.154-.006.508.205.351l.905-.678c.205-.154.003-.507-.205-.35zm-2.384 1.961c.262 0 .262-.405 0-.405s-.262.405 0 .405zm-3.393 1.356c.262 0 .262-.405 0-.405s-.262.405 0 .405zm-3.392-.452c.262 0 .262-.404 0-.404-.26 0-.262.405 0 .405zm-1.81 0c.262 0 .262-.404 0-.404-.259 0-.259.405 0 .405z" fill="#000"/><path d="M64.697 98.48c.262 0 .262-.404 0-.404s-.262.405 0 .405zm13.567-9.496c.262 0 .262-.405 0-.405s-.262.405 0 .405zm2.487-1.131c.262 0 .262-.405 0-.405-.261 0-.261.405 0 .405zM48.867 55.29c.262 0 .262-.405 0-.405-.26 0-.262.406 0 .406zm.324-1.82c-.17-.964-.2-1.928-.102-2.9.024-.26-.381-.257-.406 0a11.01 11.01 0 00.12 3.008c.043.257.434.149.388-.108zm-3.092-3.633c-.076-.526-.152-1.056-.224-1.582-.038-.257-.427-.149-.392.108.076.526.151 1.056.224 1.583.038.256.427.148.392-.109zm-3.587-5.15v-1.132c0-.262-.405-.262-.405 0v1.132c0 .262.405.262.405 0zm-2.72-5.827l.227-1.13c.051-.255-.34-.365-.392-.109l-.227 1.132c-.05.257.34.364.392.108zm-1.375-6.787c.316-1.05.635-2.101.951-3.152.076-.25-.316-.356-.392-.108l-.95 3.152c-.076.249.316.357.391.108zm-.002-8.313l1.563-2.05c.16-.208-.194-.41-.35-.205l-1.565 2.05c-.156.208.198.41.352.205zm1.965-7.003l1.37-1.572c.17-.195-.113-.484-.286-.287l-1.37 1.572c-.172.198.114.484.287.287zm4.79-6.069a7.543 7.543 0 012.62-1.764c.24-.095.135-.49-.109-.392a7.968 7.968 0 00-2.798 1.867c-.183.189.103.478.287.289zm7.195-5.618a4.087 4.087 0 012.155-.67c.26-.006.262-.41 0-.405a4.502 4.502 0 00-2.36.726c-.22.14-.014.49.205.349zm7.13-2.917a7.2 7.2 0 012.434.445c.245.09.35-.302.108-.391a7.551 7.551 0 00-2.542-.46c-.262-.002-.262.403 0 .406zm8.492-.027c.151.075.302.15.451.226.097.05.219.027.278-.072.052-.09.025-.227-.073-.279a70.056 70.056 0 01-.45-.227c-.098-.048-.22-.027-.279.073-.054.09-.027.23.073.279zm5.753 2.741c.262 0 .262-.405 0-.405-.26 0-.26.405 0 .405zm4.524 1.807c.262 0 .262-.405 0-.405s-.262.405 0 .405zm4.297 4.975c.262 0 .262-.405 0-.405s-.262.405 0 .405zm1.583.678c.262 0 .262-.405 0-.405s-.262.405 0 .405zm3.39 19.446c.261 0 .261-.405 0-.405-.26 0-.26.405 0 .405zm-1.356 5.881c.262 0 .262-.406 0-.406-.26 0-.262.406 0 .406zm-3.166 5.201c.262 0 .262-.405 0-.405s-.262.405 0 .405zm-3.619 5.878c.262 0 .262-.406 0-.406-.26 0-.26.406 0 .406zm-2.033 3.392c.261 0 .261-.405 0-.405-.263 0-.263.405 0 .405zm-3.137 5.397c-.15.378-.302.753-.45 1.131-.098.243.294.349.39.108.152-.378.303-.753.452-1.131.097-.24-.294-.346-.392-.108zm-.707 2.744c.262 0 .262-.406 0-.406s-.262.406 0 .406zm-22.388-3.844c.262 0 .262-.405 0-.405-.26 0-.26.405 0 .405zm-2.938-4.748c.261 0 .261-.405 0-.405-.263 0-.263.405 0 .405zm-1.584-2.036c.262 0 .262-.406 0-.406s-.262.406 0 .406zm-2.714-4.071c.262 0 .262-.405 0-.405-.26 0-.26.405 0 .405zm-2.712-6.331c.262 0 .262-.405 0-.405s-.262.405 0 .405zm-.68-.678c.262 0 .262-.405 0-.405-.26 0-.26.405 0 .405zm.43-10.83c.15-1.28.302-2.564.45-3.844.03-.259-.375-.256-.405 0-.151 1.28-.303 2.563-.451 3.844-.03.259.375.256.405 0zm2.738-7.938c.262 0 .262-.406 0-.406s-.262.405 0 .405zm-2.715 2.26c.262 0 .262-.405 0-.405s-.262.405 0 .405zm9.046-10.174c.262 0 .262-.405 0-.405s-.262.405 0 .405zm2.034-2.488c.262 0 .262-.405 0-.405-.26 0-.26.405 0 .405zm0-1.582c.262 0 .262-.405 0-.405-.26 0-.26.405 0 .405zm2.59-1.837c.302-.151.602-.302.905-.451.232-.116.027-.467-.206-.351-.302.151-.602.302-.905.45-.232.12-.026.468.206.352zm3.517-.878c.261 0 .261-.405 0-.405-.263 0-.263.405 0 .405zm4.748-.905c.262 0 .262-.405 0-.405s-.262.405 0 .405zm4.975.454c.262 0 .262-.405 0-.405s-.262.405 0 .405zm2.034-.227c.261 0 .261-.405 0-.405-.26 0-.263.405 0 .405zm-4.976-2.26c.262 0 .262-.406 0-.406-.259 0-.259.406 0 .406zm-7.913 1.356c.262 0 .262-.406 0-.406-.26 0-.262.406 0 .406zm-6.785 2.487c.262 0 .262-.405 0-.405-.26 0-.26.405 0 .405zm-4.748 6.784c.262 0 .262-.404 0-.404-.26 0-.26.405 0 .405zm-3.165 4.07c.261 0 .261-.404 0-.404-.26 0-.26.405 0 .405zm0-3.391c.261 0 .261-.405 0-.405-.26 0-.26.405 0 .405zm-3.166 6.784c.262 0 .262-.405 0-.405-.26 0-.262.405 0 .405zm1.666-2.833l-.227.227c-.075.076-.08.213 0 .286.081.073.206.081.287 0l.227-.227c.075-.075.08-.213 0-.286a.204.204 0 00-.287 0zm-2.344 9.391c.262 0 .262-.405 0-.405s-.262.405 0 .405zm-.678.224c.262 0 .262-.405 0-.405s-.262.405 0 .405zm-1.132 3.165c.262 0 .262-.404 0-.404-.259 0-.259.405 0 .405zm1.108.476v-.45c0-.263-.406-.263-.406 0v.45c0 .262.406.262.406 0z" fill="#000"/><path d="M38.239 32.454c.262 0 .262-.405 0-.405-.26 0-.26.405 0 .405zm.905 2.261c.262 0 .262-.405 0-.405-.26 0-.262.405 0 .405z" fill="#000"/><path d="M38.917 34.488c.262 0 .262-.405 0-.405-.26 0-.26.405 0 .405zm.905-2.715c.262 0 .262-.405 0-.405-.26 0-.26.405 0 .405zm3.67 8.041l2.034 3.62c.127.226.478.024.351-.206l-2.034-3.619c-.13-.227-.48-.022-.35.205z" fill="#000"/><path d="M43.441 39.69c.262 0 .262-.405 0-.405s-.262.405 0 .405zm4.07 4.748c.262 0 .262-.405 0-.405s-.262.405 0 .405zm1.583 4.749c.262 0 .262-.406 0-.406s-.262.406 0 .406zm2.487 3.843c.262 0 .262-.405 0-.405s-.262.405 0 .405zm2.489 5.202c.261 0 .261-.405 0-.405-.263 0-.263.405 0 .405zM49.32 47.83c.263 0 .263-.405 0-.405-.261 0-.261.406 0 .406zm-3.167-2.263c.262 0 .262-.405 0-.405-.26 0-.26.405 0 .405zm-2.712-4.748c.262 0 .262-.405 0-.405s-.262.405 0 .405zm-.905-4.522c.262 0 .262-.405 0-.405s-.262.405 0 .405zm0-5.879c.262 0 .262-.405 0-.405s-.262.405 0 .405zm1.356-4.298c.262 0 .262-.405 0-.405-.26 0-.26.406 0 .406zm.454-4.294c.262 0 .262-.405 0-.405s-.262.405 0 .405zm14.471-2.941c.262 0 .262-.405 0-.405s-.262.405 0 .405zm10.974 16.41a1.756 1.756 0 100-3.51 1.756 1.756 0 000 3.51zm-11.614-.54a1.756 1.756 0 100-3.51 1.756 1.756 0 000 3.51z" fill="#000"/><circle cx="69.412" cy="85.078" r="1.621" fill="#fff"/></svg>