<svg width="161" height="130" fill="none" xmlns="http://www.w3.org/2000/svg"><path d="M152.338 80.577l7.592-8.758-1.51-4.57-2.573-5.575-3.705-6.242-4.262-5.342-.557-.413-5.288 1.781-1.888 1.08-2.483 1.925-3.903 2.625-1.325 1.401-.78 1.947.369.42s5.115 1.539 7.149 3.114a182.192 182.192 0 014.34 3.495l2.783 2.757 2.209 3.119 2.415 4.189 1.283 3.236.134-.189zm-29.555-56.993s-.482-3.705 3.941-6.774c4.422-3.071 9.717-1.307 9.717-1.307l1.784 1.101.333-.576-3.972-11.915-.446-.664-2.037-1.79s-2.265-.853-4.2-.794c-1.935.056-4.085.13-6.628 1.127-2.539.997-5.183 3.463-5.183 3.463s-1.314 1.24-2.006 2.757c-.692 1.517-.546 2.403-.546 2.403l.135 1.085 2.925 5.18 2.277 3.448 1.942 2.214 1.902 1.273.062-.232zM24.446 30.48l-.683-2.05L17 27.714l-6.207.156-7.775 1.415-1.71.404-.575 5.427.062 4.368.53 4.215.807 3.483 1.26 3.889.481.03 1.805-1.167 2.24-.9 10.277-2.63 5.087-.869 1.992-.213-.038-4.467.064-3.017-.265-4.026-.588-3.331zm54.818 93.499l1.592-.943 2.843-2.435.86.796 1.396.926 1.106 1.316s2.029 1.479 3.93 2.275c1.9.796 5.279 1.673 5.279 1.673l5.994.942 5.231-.016 4.614-.683 4.238-1.429 3.818-2.046 2.306-1.756 1.999-1.949 2.339-3.152 1.625-3.232 1.95-6.057.928-4.529.151-4.1-.647-3.86-1.207-3.062s2.027-1.838 2.738-3.116c.711-1.278 1.682-3.655 1.843-5.158.16-1.502.42-3.929.193-5.611-.226-1.682-.5-2.861-.921-3.849-.421-.987-1.212-2.232-2.377-3.298-1.165-1.065-3.137-2.28-3.978-2.7-.842-.42-2.361-1.262-3.008-1.342-.647-.08-1.115-.064-1.633.05-.517.113-.841.467-.841.467s-2.046-2.362-3.475-3.376c-1.429-1.011-3.908-2.282-6.348-2.816-2.441-.534-3.769-.614-6.29-.317-2.518.298-5.653 1.824-5.653 1.824s-2.382 1.43-3.254 2.063c-.871.635-1.19.97-1.19.97l.297-8.885.005-3.714.6-.886 2.221-2.006 2.674-2.674 2.124-2.628 2.221-2.913 1.912-2.842 1.337-2.554s2.173-3.867 2.651-6.28c.477-2.412-.215-5.11-.215-5.11s-.669-2.006-1.886-2.793c-1.216-.789-2.15-1.337-3.964-1.216-1.815.12-3.39 1.313-4.156 2.244-.763.931-1.36 2.245-1.36 3.081 0 .836.094 2.268.094 2.268l.931 2.436s-1.432 1.243-2.722 1.744c-1.29.5-3.272 1.075-3.272 1.075l-1.361.12s.238-4.727-1.29-7.187c-1.529-2.46-2.34-3.461-4.584-5.013-2.244-1.553-4.739-1.701-5.384-1.69-.645.012-2.176-.137-2.176-.137s-1.247-.196-2.528-.118c-1.28.078-3.26.803-3.26.803l-.905-2.057s-.66-.804-1.125-.905c-.465-.102-1.618-.052-1.618-.052l.182-.72s.619-1.6.746-2.505c.128-.905.159-2.233.06-3.282-.1-1.049-.317-2.207-.877-3.657-.56-1.45-.756-1.744-1.45-2.852-.695-1.11-1.72-2.211-2.852-3.21-1.132-1-3.339-1.924-4.395-2.075-1.056-.151-2.452-.132-4.28.567-1.83.7-3.604 3.168-3.604 3.168s-.943 1.548-1.264 3.244c-.321 1.699-.151 2.623.151 3.924.303 1.302 1.529 3.603 1.529 3.603l1.467 1.763 1.344 1.236 1.867 1.585s1.207 1.075 1.79 1.904c.587.83 1.567 2.434 1.83 3.338.264.905.635 3.176.635 3.176l.57-.414s1.048-.916 1.519-1.559c.47-.645 1.436-2.566 1.436-2.566s.09.83.52 1.073c.43.243 1 .4 1 .4l1.008.113s-1.132 1.193-1.833 2.551c-.702 1.359-1.565 4.345-1.565 4.345l-.309 3.17s0 1.647.31 3.5c.309 1.852 1.275 4.035 1.275 4.035l-1.008-.083s-2.203-.31-4.282-.824c-2.079-.515-4.363-2.08-4.363-2.08l-1.69-1.61s.553-1.702.178-3.975c-.376-2.272-1.231-3.676-1.99-4.536-.758-.86-2.003-1.474-2.913-1.85-.91-.375-2.866-.494-4.31.277-1.443.77-2.036 1.266-3.023 3.775-.988 2.512-.633 4.806-.633 4.806l.474 3.045.97 2.431 1.303 2.214 2.096 2.63 1.779 1.66 2.254 1.68 2.511 1.621 4.055 1.956 3.65 1.64.626-.118.67 4.38.424 3.56.342 3.4.3 1.69-1.748-.45s-2.353-.765-4.612-.382c-2.258.383-3.482 1.512-3.482 1.512l-1.838 1.205-1.11 1.091-.747 1.264-.383 1.55s-2.316-2.26-5.536-3.345c-3.22-1.085-6.958-.362-6.958-.362s-1.774.267-4.288 1.288c-2.514 1.02-3.281 2.01-3.281 2.01l-4.858-6.676-.51-.477L8.098 79.895s-1.16.91-1.451 1.38c-.29.47-.59 1.11-.156 1.904.435.794 1.205 1.278 1.205 1.278l7.53 5.938s-1.149.491-2.3 1.405a13.98 13.98 0 00-2.917 3.12c-.839 1.22-1.642 3.666-1.642 3.666s-.565 1.897-.603 3.995c-.035 2.098.201 4.961.549 6.568.347 1.604 1.897 6.403 1.897 6.403s1.294 3.373 2.006 4.524c.71 1.148 2.317 2.828 4.687 3.976 2.372 1.149 5.873 1.368 5.873 1.368s2.829.364 5.912-.054c3.083-.418 4.543-.931 6.166-1.496 1.623-.564 4.706-2.48 4.706-2.48l1.295 1.094 6.639 3.411 5.838 2.481s2.244.676 3.995 1.02c1.75.345 3.995.348 7.095 0 3.1-.347 6.367-1.349 8.137-1.989 1.77-.638 4.834-2.19 4.834-2.19l1.87-1.238z" fill="#fff"/><path d="M80.688 20.759C74.905 19.618 69.216 23.303 67 28.593c-2.4 5.732-1.278 13.257 2.824 17.965 4.472 5.137 11.567 4.184 16.687.537 4.987-3.554 8.101-9.508 7.08-15.686-1.115-6.752-7.532-11.895-14.44-10.355-.222.05-.127.392.095.343 5.975-1.33 11.85 2.594 13.59 8.32 1.745 5.756-.485 11.814-4.858 15.752-4.442 3.998-11.65 6.382-16.687 2.056-4.38-3.762-5.968-10.59-4.803-16.087 1.351-6.377 7.352-11.667 14.107-10.334.224.042.319-.3.094-.345z" fill="#000"/><path d="M68.797 24.52c-1.913-.035-1.727-2.235-1.06-3.386a5.852 5.852 0 011.934-2c.981-.608 2.179-.795 3.124.025.657.57.964 1.482 1.224 2.278.07.215.413.123.342-.095-.392-1.19-.935-2.554-2.24-2.981-1.145-.376-2.35.182-3.231.9-1.042.848-2.124 2.247-2.035 3.664.069 1.073.867 1.93 1.942 1.95.23.004.23-.35 0-.355z" fill="#000"/><path d="M70.775 18.467c1.656-3.537 1.373-7.605-.258-11.102C68.911 3.921 65.8.63 61.877.072c-3.492-.499-6.809 1.651-8.314 4.751-1.658 3.414-.846 7.52 1.314 10.518 1.453 2.016 3.575 3.315 5.28 5.085 2 2.072 3.107 4.8 3.23 7.666.01.227.364.23.354 0-.15-3.52-1.738-6.568-4.359-8.885-1.51-1.335-3.137-2.521-4.307-4.194-1.17-1.668-1.916-3.657-2.034-5.696-.217-3.773 2.098-7.56 5.796-8.68C62.896-.59 66.86 2.236 69.036 5.463c2.514 3.73 3.383 8.664 1.432 12.825-.097.205.21.385.307.18z" fill="#000"/><path d="M64.023 27.627a8.978 8.978 0 002.757-3.454c.094-.206-.213-.388-.307-.18a8.676 8.676 0 01-2.63 3.327c-.177.137-.002.446.18.307zm3.489-6.892c.147-2.192.792-5.25-1.349-6.766-1.228-.87-3.09-.454-3.575 1.027-.07.218.272.31.343.095.307-.938 1.323-1.384 2.256-1.181.926.2 1.543 1.032 1.86 1.868.6 1.583.217 3.322.108 4.957-.011.227.343.227.357 0zM96.194 53.42a59.12 59.12 0 008.626-9.458c2.516-3.454 4.995-7.312 6.355-11.39 1.094-3.282 1.016-7.504-2.003-9.777-2.424-1.826-5.911-1.1-7.877 1.066-2.582 2.844-1.796 7.255.628 9.913.154.168.404-.082.251-.25-2.353-2.582-3.112-6.986-.411-9.64 2.573-2.525 6.712-2.334 8.654.827 2.067 3.367.794 7.417-.81 10.682a56.897 56.897 0 01-5.449 8.874 58.77 58.77 0 01-8.214 8.902c-.17.151.08.402.25.25z" fill="#000"/><path d="M100.478 31.96a12.138 12.138 0 01-6.609 2.769c-.224.023-.227.378 0 .354a12.557 12.557 0 006.859-2.873c.175-.144-.078-.394-.25-.25zM62.77 55.083c-6.51-2.774-13.573-5.968-17.176-12.437-1.741-3.128-2.568-6.887-1.576-10.393.537-1.89 1.65-3.783 3.549-4.544 1.67-.668 3.61-.375 5.143.515 1.822 1.059 2.947 2.987 3.346 5.021.324 1.65.64 5.47-1.444 6.12-.217.068-.125.408.095.342 1.465-.456 1.743-2.16 1.86-3.497.16-1.845-.133-3.768-.993-5.42-1.51-2.901-5.165-4.737-8.316-3.343-3.547 1.569-4.376 6.38-3.892 9.81.577 4.092 2.89 7.803 5.921 10.546 3.827 3.462 8.607 5.586 13.304 7.584.208.088.39-.217.18-.304z" fill="#000"/><path d="M55.924 37.734c1.134 1.48 2.615 2.53 4.33 3.242.985.408 2.01.704 3.053.923.33.071 3.34.367 3.366.728.017.227.371.227.355 0-.038-.506-.392-.572-.858-.643-1.224-.19-2.436-.316-3.64-.628-2.444-.628-4.742-1.763-6.302-3.799-.137-.18-.444-.002-.304.177zM70.936 64.06c-3.143-.439-4.374 2.829-4.841 5.328a57.89 57.89 0 00-.964 11.478 58.628 58.628 0 001.3 11.444c.689 3.216 1.537 6.672 3.682 9.259 1.697 2.049 4.473 3.466 7.173 2.92 2.854-.578 4.492-3.307 5.252-5.906 1.042-3.553.865-7.461.747-11.118a98.32 98.32 0 00-1.122-11.981c-.537-3.433-1.347-7.308-4.04-9.753-2.181-1.98-5.508-2.852-8.137-1.252-.194.118-.017.425.18.307 2.594-1.578 5.896-.607 7.952 1.43 2.171 2.15 3 5.299 3.515 8.214 1.135 6.407 1.675 13.155 1.272 19.66-.187 3.021-.804 6.532-3.126 8.701-2.346 2.192-5.79 1.663-8.147-.22-2.393-1.911-3.489-4.961-4.25-7.825a56.964 56.964 0 01-1.696-9.904 58.496 58.496 0 01.083-10.59c.285-2.91.543-10.477 5.077-9.844.217.024.314-.317.09-.347z" fill="#000"/><path d="M82.545 98.602c3.093 2.169 8.657 4.432 11.943 1.458 3.265-2.954 3.497-8.65 3.365-12.706-.173-5.314-1.203-10.616-2.023-15.856-.579-3.69-1.2-9.564-5.892-10.272-2.237-.338-4.378 1.077-5.982 2.483-1.65 1.446-2.906 3.286-3.095 5.512-.02.226.335.226.354 0 .177-2.07 1.347-3.78 2.859-5.141 1.597-1.44 3.856-2.973 6.112-2.448 4.503 1.049 4.836 6.965 5.41 10.634.69 4.418 1.486 8.857 1.81 13.32.295 4.064.258 8.773-1.779 12.43-2.762 4.959-9.153 2.904-12.9.276-.189-.127-.366.18-.182.31zM63.39 55.709c-.055-.267-.107-.532-.161-.799-.114.031-.227.064-.343.095.62 2.967.985 5.951 1.278 8.966.258 2.65.603 5.287 1.638 7.763.087.208.43.116.342-.094-1.132-2.71-1.427-5.607-1.703-8.505-.265-2.767-.643-5.503-1.212-8.225-.047-.224-.388-.127-.343.095l.16.798c.046.225.388.13.343-.094z" fill="#000"/><path d="M95.641 53.63c-.146 4.99-.29 9.982-.437 14.972-.007.229.348.226.355 0 .146-4.99.29-9.982.437-14.972.007-.227-.348-.227-.355 0zM64.129 67.716c-2.894-.787-5.578-1.222-8.286.35-1.89 1.095-4.347 2.581-4.805 4.892-.045.222.297.32.342.095.437-2.205 2.83-3.627 4.643-4.68 2.61-1.52 5.228-1.071 8.011-.315.22.057.315-.283.095-.343z" fill="#000"/><path d="M95.859 66.39c4.337-3.995 10.52-5.689 16.264-4.217a17.845 17.845 0 017.35 3.894c2.121 1.875 5.103 5.275 3.359 8.252-.115.196.192.376.308.18 1.509-2.576-.343-5.472-2.098-7.393-2.096-2.29-4.811-4.01-7.759-4.966-6.136-1.994-12.952-.345-17.672 4-.173.153.08.404.248.25z" fill="#000"/><path d="M121.991 68.089c1.763-1.075 3.87.397 5.411 1.276 1.512.862 3 1.819 4.203 3.092 2.632 2.795 2.854 6.727 2.533 10.36-.331 3.726-1.515 7.067-4.435 9.534-1.255 1.058-2.686 1.899-4.18 2.575-1.384.626-3.955 1.92-5.174.399-.141-.177-.392.073-.25.25 1.595 1.99 5.2-.07 6.885-.975 2.613-1.404 4.968-3.445 6.213-6.186 1.323-2.908 1.619-6.544 1.345-9.698-.275-3.157-1.581-5.805-4.085-7.775-1.425-1.123-3.053-2.06-4.678-2.864-1.262-.624-2.677-1.08-3.965-.295-.196.12-.019.427.177.307z" fill="#000"/><path d="M129.589 93.13c2.38 4.839 1.831 10.393.499 15.451-1.29 4.903-3.268 9.696-7.026 13.226-7.762 7.298-19.419 7.827-29.19 4.969-2.561-.749-5.132-1.834-7.079-3.712-.375-.364-1.096-1.675-1.758-1.533-.38.08-.38.442-.257.73.026.059.097.082.153.087l.15.012c.226.019.226-.335 0-.354.536.042 1.1.959 1.464 1.311.343.331.709.638 1.09.926a15.393 15.393 0 002.834 1.666c2.127.975 4.42 1.578 6.708 2.043 5.16 1.047 10.584 1.191 15.697-.189 4.208-1.136 8.191-3.312 11.218-6.471 3.329-3.473 5.131-8.026 6.339-12.614 1.358-5.157 1.887-10.797-.534-15.725-.102-.206-.409-.029-.308.177zm-40.747 19.827c-2.538 6.093-7.813 10.459-13.713 13.148-6.873 3.133-15.047 4.593-22.286 1.921-4.206-1.553-8.17-3.866-12.16-5.895-.204-.104-.383.203-.18.307 3.655 1.859 7.274 3.898 11.069 5.467 3.907 1.618 7.973 2.176 12.181 1.718 6.838-.744 13.798-3.428 19.052-7.927 2.764-2.367 4.978-5.28 6.382-8.647.082-.208-.26-.3-.345-.092zM55.37 79.006c-1.176-.782-1.71-2.1-2.497-3.218a14.018 14.018 0 00-2.154-2.41 14.337 14.337 0 00-5.472-3.033c-4.806-1.399-10.112-.153-14.112 2.738-.184.133-.007.44.18.308 4.115-2.975 9.634-4.187 14.515-2.486a13.975 13.975 0 015.652 3.719c1.335 1.453 2.044 3.58 3.712 4.69.188.125.366-.18.177-.308zM14.417 90.628c-3.73 1.909-5.942 5.774-6.627 9.817-.881 5.197.704 10.457 2.396 15.321.758 2.186 1.6 4.435 3.272 6.1 1.569 1.562 3.655 2.488 5.765 3.062 4.137 1.127 8.578 1.063 12.72 0 4.843-1.24 9.278-3.853 12.647-7.551.154-.167-.097-.42-.25-.25-5.614 6.162-14.31 9.276-22.563 7.981-2.152-.338-4.329-.933-6.207-2.06-2.2-1.316-3.51-3.353-4.43-5.694-1.81-4.612-3.432-9.725-3.22-14.726.199-4.676 2.367-9.489 6.68-11.695.198-.104.018-.409-.183-.305z" fill="#000"/><path d="M25.784 66.796l4.378 5.975c.73.998 1.46 1.992 2.188 2.99.352.479.815.968 1.093 1.492.282.53.312.163.161.997-.116.633-.321.886-.697 1.366-3.152 4.026-6.306 8.05-9.457 12.075-.34.433-.678.867-1.019 1.3-.255.326-.796 1.349-1.165 1.486-.564.208-1.098-.466-1.519-.797l-1.663-1.313-5.911-4.673-2.771-2.19c-.494-.39-.988-.778-1.48-1.168-.212-.17-.439-.33-.64-.512-.536-.48-.675-.674-.65-1.437.031-.938.478-1.275 1.142-1.833.408-.345.822-.685 1.235-1.026a404.83 404.83 0 0116.576-12.982c.182-.135.005-.442-.18-.307a410.849 410.849 0 00-9.509 7.274 392.877 392.877 0 00-4.654 3.728c-1.493 1.215-3.26 2.377-4.54 3.819-.7.786-.85 1.668-.173 2.523.5.633 1.254 1.094 1.883 1.59.862.68 1.724 1.363 2.587 2.043l9.977 7.887c.068.054.187.083.25 0l11.931-15.234c.442-.563 1.317-1.255 1.083-2.058-.15-.513-.728-1.056-1.038-1.482-.456-.62-.912-1.244-1.368-1.866-1.916-2.613-3.83-5.228-5.745-7.841-.133-.187-.44-.01-.305.174zm97.431-43.016c-2.561-1.04-4.13-3.496-5.587-5.717a89.79 89.79 0 01-2.072-3.327 166.34 166.34 0 01-.997-1.689c-.147-.25-.293-.5-.44-.754-.109-.188-.22-.375-.328-.564-.04-.168-.147-.25-.317-.253.088.208.43.116.343-.094l-.038-.093c-.04-.094-.113-.144-.217-.122l-.123.023c-.083.017-.123.097-.13.17-.043.395.321.794.505 1.11.402.69.804 1.38 1.212 2.068a92.15 92.15 0 002.656 4.246c1.432 2.135 2.972 4.335 5.439 5.337.212.087.302-.255.094-.34z" fill="#000"/><path d="M123.069 24.095c-.834-3.546 3.09-7.277 6.168-8.234 2.84-.884 6.498-1.24 8.855.929.168.153.419-.097.251-.25-2.599-2.394-6.885-1.983-9.944-.76-2.987 1.196-6.483 4.95-5.671 8.407.05.224.393.13.341-.092zm-9.094-12.829c-1.146-2.044 1.602-5.162 3.001-6.433 1.819-1.657 4.089-2.73 6.478-3.273 2.318-.526 5.046-.737 7.373-.134 1.25.323 1.829.942 2.68 1.861.338.364.635.605 1.101.357.2-.106.023-.413-.18-.307-.352.187-1.202-1.03-1.498-1.283a4.44 4.44 0 00-1.183-.702c-.995-.41-2.087-.529-3.152-.578-2.658-.12-5.366.243-7.835 1.261-2.126.88-4.054 2.273-5.476 4.09-1.042 1.328-2.573 3.608-1.616 5.316.113.203.418.023.307-.175z" fill="#000"/><path d="M134.182 3.706c1.446 4.11 3.119 8.214 4.151 12.455.055.222.397.128.343-.094-1.035-4.239-2.707-8.343-4.151-12.456-.076-.213-.418-.12-.343.095zM25.43 45.167c-.23-1.64 0-3.27.056-4.914a36.985 36.985 0 00-.657-8.317c-.137-.704-.17-2.289-.81-2.743-.064-.045-.163-.023-.215.029-.03.03-.061.059-.09.09-.05.05-.073.153-.028.214l.059.079c.137.179.444.002.307-.18-.052-.069-.01.61-.005.633.06.364.177.733.258 1.094a36.46 36.46 0 01.822 6.405c.1 2.559-.397 5.167-.04 7.704.033.225.373.13.342-.094zm-1.503-16.841A49.64 49.64 0 001.955 29.38c-.204.057-.144.33.047.347.191.02.38.036.572.055.226.02.224-.334 0-.355l-.572-.054c.016.116.03.231.047.347a49.191 49.191 0 0121.786-1.053c.222.04.316-.3.092-.34z" fill="#000"/><path d="M1.203 29.517A39.668 39.668 0 003.36 51.359c.052.128.187.17.296.078 2.686-2.268 6.59-2.844 9.901-3.69 3.679-.938 7.386-1.76 11.161-2.19.225-.026.227-.38 0-.355-3.957.45-7.839 1.323-11.69 2.313-3.267.841-6.972 1.43-9.625 3.67l.295.077A39.346 39.346 0 011.544 29.61c.04-.222-.3-.316-.34-.092zm130.749 31.415c9.434 2.892 17.072 10.507 19.995 19.934.038.118.205.184.295.078 2.719-3.178 5.439-6.353 8.161-9.531.146-.173-.102-.425-.251-.25l-8.16 9.53.295.078c-2.958-9.547-10.686-17.252-20.243-20.181-.217-.066-.309.276-.092.342z" fill="#000"/><path d="M131.784 60.637c.506-3.428 4.21-4.597 6.59-6.504 1.469-1.179 2.691-2.115 4.505-2.72 1.652-.55 3.312-1.07 4.969-1.604.215-.07.123-.41-.095-.342-1.911.617-3.865 1.167-5.748 1.873-1.533.577-2.625 1.534-3.882 2.542-2.433 1.947-6.161 3.15-6.679 6.663-.035.222.307.319.34.092z" fill="#000"/><path d="M147.404 49.864a56.832 56.832 0 0112.403 22.194c.064.217.407.125.343-.095a57.247 57.247 0 00-12.496-22.35c-.154-.17-.404.083-.25.25zM116.569 9.697c1.746 2.384 3.492 4.765 5.236 7.15.132.181.442.004.307-.18-1.746-2.384-3.492-4.766-5.236-7.15-.134-.181-.441-.004-.307.18zm3.641-.494a24.55 24.55 0 003.232 5.02c.146.176.395-.075.25-.25a24.332 24.332 0 01-3.177-4.947c-.1-.208-.404-.028-.305.177zm4.238 1.309l1.319 2.375c.111.198.416.02.307-.18l-1.318-2.374c-.114-.199-.419-.022-.308.18zm4.279.068c.487.372.822.884.985 1.47.062.22.404.126.343-.094a3.153 3.153 0 00-1.148-1.682c-.182-.137-.359.17-.18.307zm1.796-6.45c.262.88.527 1.759.789 2.637.066.218.406.126.342-.094l-.789-2.637c-.066-.217-.406-.123-.342.095zm3.045 6.47c.229 0 .229-.355 0-.355s-.229.355 0 .355zm4.038 49.81a109.48 109.48 0 018.193-4.713c.204-.104.024-.411-.179-.307a109.136 109.136 0 00-8.194 4.713c-.191.123-.014.428.18.307zm3.189 1.357l6.33-4.22c.189-.125.012-.432-.18-.307-2.11 1.405-4.219 2.814-6.329 4.22-.189.124-.012.432.179.306zm2.916 2.313a66.905 66.905 0 017.539-5.11c.196-.117.019-.422-.18-.308a67.557 67.557 0 00-7.612 5.165c-.177.144.076.392.253.252zm3.381 2.374l3.683-1.864c.203-.104.024-.409-.18-.307l-3.683 1.864c-.203.106-.024.411.18.307zm2.688 3.962l1.846-1.845c.16-.16-.09-.411-.251-.25l-1.845 1.844c-.161.161.09.412.25.25zm2.094 2.424c.349-.265.699-.532 1.051-.796.179-.137.002-.444-.18-.307-.349.264-.699.531-1.051.796-.18.137-.002.444.18.307zM6.056 45.2a67.47 67.47 0 01-2.03-8.458c-.037-.225-.38-.13-.342.094a67.887 67.887 0 002.03 8.458c.068.218.41.123.342-.094zm2.054-1.309a81.384 81.384 0 01-1.976-12.11c-.019-.225-.373-.227-.354 0a82.031 82.031 0 001.987 12.205c.054.222.397.127.342-.095zm2.206-.813a24.98 24.98 0 01-.796-6.017c-.003-.227-.357-.23-.355 0 .02 2.077.288 4.101.808 6.112.057.22.4.125.343-.095zm2.74-.763a69.712 69.712 0 01-1.015-11.06c-.003-.226-.357-.228-.355 0 .045 3.743.39 7.464 1.028 11.155.04.224.38.127.342-.095zm3.064-.772v-3.428c0-.23-.354-.23-.354 0v3.428c0 .229.355.229.355 0zm2.692.522l-.25-2.64c-.022-.224-.376-.226-.355 0 .083.88.165 1.76.25 2.64.022.227.376.229.355 0zm2.077-10.53c.056.699.113 1.396.172 2.095.019.227.373.227.354 0-.056-.7-.113-1.396-.172-2.096-.019-.226-.373-.229-.354 0zM12.893 84.16a90.085 90.085 0 007.967 5.809c.192.125.371-.182.18-.307a88.885 88.885 0 01-7.896-5.753c-.175-.144-.428.106-.25.25zm4.504-.027c1.408 1.141 2.813 2.285 4.222 3.426.174.142.427-.106.25-.25-1.408-1.141-2.814-2.285-4.222-3.426-.175-.142-.428.106-.25.25zm-.907-7.243a137.51 137.51 0 007.921 8.67c.16.163.411-.09.25-.25a136.848 136.848 0 01-7.921-8.67c-.147-.178-.397.075-.25.25zm6.196 3.267c1.231.966 2.465 1.93 3.696 2.897.177.139.43-.112.25-.25-1.23-.967-2.464-1.931-3.695-2.898-.177-.139-.43.112-.25.251zm2.925-1.274l2.375 1.057c.205.092.387-.213.18-.308l-2.375-1.056c-.208-.09-.388.215-.18.308zm-.316-5.289c1.313 1.587 2.627 3.172 3.94 4.76.147.175.395-.075.251-.25l-3.94-4.76c-.145-.176-.395.075-.251.25zM68.84 18.64l.27-.79c.072-.217-.27-.31-.343-.094l-.27.789c-.073.215.27.31.343.095zm-.51-1.579c.399-1.037.578-2.1.545-3.21-.007-.227-.361-.23-.354 0a7.886 7.886 0 01-.534 3.116c-.083.213.26.305.343.094zm-1.052-4.001a6.234 6.234 0 00-.255-2.687c-.068-.217-.411-.123-.343.094a6.02 6.02 0 01.244 2.592c-.026.227.328.225.354 0zm-2.544-3.252c.229 0 .229-.354 0-.354-.227 0-.23.354 0 .354zm-2.637-1.583c.23 0 .23-.354 0-.354s-.23.354 0 .354zm-1.711-.843l-1.84-1.588c-.172-.149-.423.102-.25.25l1.84 1.588c.172.149.425-.1.25-.25zm-2.603.827c.494.364.836.874 1 1.464.06.22.403.126.342-.094a3.091 3.091 0 00-1.163-1.677c-.184-.135-.361.172-.18.307zm-.548 2.329c.503.466 1.006.931 1.512 1.396.168.154.418-.094.25-.25l-1.512-1.396c-.167-.156-.418.094-.25.25zm.815 3.206l2.1 1.335c.194.123.371-.184.18-.307-.7-.444-1.401-.888-2.1-1.335-.194-.123-.374.184-.18.307zm3.367 4.154c.175.264.352.526.526.791.126.19.433.012.308-.18l-.527-.79c-.128-.19-.435-.013-.307.179zm3.053.614c.228 0 .228-.354 0-.354s-.228.354 0 .354z" fill="#000"/><path d="M61.662 7.042l1.056 3.165c.071.215.414.123.343-.094l-1.056-3.166c-.073-.215-.416-.123-.343.095zm2.63 2.062v.792c0 .229.354.229.354 0v-.792c0-.23-.354-.23-.354 0zM61.74 52.309l-.527-2.374c-.05-.223-.392-.128-.342.094l.527 2.375c.05.222.392.127.342-.095zm-2.636-1.319a6.738 6.738 0 01-.523-2.327c-.009-.226-.363-.229-.354 0a7 7 0 00.534 2.422c.085.208.43.116.343-.094zm-3.677-1.322c-.262-1.056-.526-2.11-.789-3.166-.054-.222-.397-.128-.342.094.262 1.056.527 2.11.789 3.166.054.22.397.128.342-.094zm-3.175-2.85c-.087-.704-.175-1.405-.265-2.11-.028-.224-.382-.226-.354 0 .087.705.175 1.406.265 2.11.028.222.383.225.354 0zm-3.18-1.628a17.045 17.045 0 01-.241-4.174c.014-.227-.34-.227-.354 0a17.47 17.47 0 00.252 4.269c.04.224.383.128.343-.095zm-2.892-5.445c.088-.527.175-1.056.265-1.583.038-.222-.305-.32-.343-.095-.087.527-.175 1.056-.264 1.583-.038.222.304.32.342.095zm-.546-4.442l.527-1.056c.102-.203-.203-.383-.307-.18l-.527 1.056c-.101.204.206.383.307.18zm51.668 14.544a8.094 8.094 0 001.356-2.457c.073-.215-.267-.31-.342-.094a7.592 7.592 0 01-1.264 2.298c-.142.178.106.43.25.253zm3.187-2.414c.634-.893.99-1.9 1.085-2.989.019-.227-.336-.227-.355 0a5.62 5.62 0 01-1.034 2.81c-.135.188.172.365.304.179zm3.202-4.255l.531-2.372c.05-.223-.293-.317-.342-.095l-.532 2.372c-.05.222.293.317.343.095zm3.147-4.752l1.056-2.636c.085-.213-.258-.305-.343-.095l-1.056 2.637c-.083.21.26.302.343.094zm2.202-7.52c.229 0 .229-.354 0-.354-.227 0-.227.354 0 .354z" fill="#000"/><path d="M109.153 32.907a2.72 2.72 0 00.106-2.244c-.082-.21-.425-.118-.342.094.257.652.243 1.34-.071 1.97-.102.204.205.386.307.18zm.841-3.978c.156-.463.158-.948.012-1.41-.069-.218-.411-.126-.343.094.13.408.125.815-.012 1.223-.07.215.27.308.343.093zm-33.478 73.536v-1.319c0-.229-.354-.229-.354 0v1.319c0 .229.354.229.354 0zm-1.583-.527v-2.11c0-.23-.354-.23-.354 0v2.11c0 .227.354.229.354 0zm-2.37-1.319a8.088 8.088 0 01.246-2.856c.06-.22-.281-.314-.343-.094a8.336 8.336 0 00-.26 2.95c.024.225.379.227.357 0zm-1.85-3.692V95.87c0-.23-.354-.23-.354 0v1.056c0 .229.354.229.354 0zm-1.852-3.119c.298-1.269.728-2.48 1.302-3.65.1-.203-.206-.383-.307-.18a17.604 17.604 0 00-1.337 3.736c-.052.222.29.319.342.094zm-1.058-3.166c.437-1.495.871-2.99 1.309-4.486.063-.22-.28-.315-.343-.095l-1.309 4.487c-.064.22.279.314.343.094zm-.787-5.271a12.15 12.15 0 011.82-3.655c.134-.184-.173-.361-.308-.18a12.472 12.472 0 00-1.855 3.74c-.063.218.277.313.343.095zm.508-5.498L68.58 77.5c.092-.206-.213-.387-.307-.18l-1.056 2.375c-.09.208.215.387.307.18zm-.01-4.753a8.657 8.657 0 001.373-3.197c.047-.222-.295-.316-.343-.094a8.35 8.35 0 01-1.337 3.111c-.127.19.18.367.308.18zm1.175-5.973c.229 0 .229-.354 0-.354-.227 0-.227.354 0 .354zm-1.987-4.094c.16-.77.522-1.446 1.075-2.004.16-.163-.09-.413-.25-.25a4.282 4.282 0 00-1.168 2.162c-.045.22.296.316.343.092zm-.808-3.412l1.313-1.85c.133-.186-.174-.363-.307-.18l-1.313 1.85c-.133.187.174.365.307.18zm-.48-4.184l.527-1.056c.102-.203-.203-.383-.307-.18l-.527 1.057c-.102.203.206.382.307.18zm-1.349-3.924a8.237 8.237 0 001.637-2.975c.067-.217-.274-.312-.342-.094a7.789 7.789 0 01-1.548 2.818c-.144.173.104.426.253.25zm27.702 46.638c.175-.353.352-.705.526-1.054.102-.203-.203-.383-.307-.18l-.526 1.054c-.102.203.205.383.307.18zm-1.277-.343a3.396 3.396 0 01.506-2.02c.12-.194-.186-.373-.307-.18a3.735 3.735 0 00-.555 2.2c.016.227.37.229.357 0zm-2.43-1.248l.772-1.59c.1-.203-.205-.384-.307-.179l-.773 1.59c-.099.206.208.385.308.18zm-2.585-.498l2.124-3.421c.12-.194-.187-.373-.307-.18l-2.124 3.422c-.12.193.186.373.307.18zm-.851-2.672l1.872-3.15c.115-.195-.19-.375-.308-.179l-1.87 3.15c-.114.196.19.375.306.18zm.306-5.25l.79-1.583c.102-.203-.203-.382-.306-.18-.265.528-.527 1.057-.792 1.584-.1.203.206.383.307.18zm.264-6.117l1.311-3.43c.08-.213-.26-.305-.343-.095l-1.31 3.43c-.081.216.26.308.342.095zm-.416-5.927c.23 0 .23-.355 0-.355s-.23.355 0 .355zm-1.148-4.088l1.056-2.901c.078-.215-.265-.307-.343-.094l-1.056 2.9c-.078.216.265.31.343.095zm1.294 5.052l.787-1.848c.088-.208-.217-.387-.307-.18-.262.617-.524 1.234-.787 1.848-.087.208.218.39.307.18zm-1.349-9.992c.374-.42.745-.843 1.118-1.264.151-.17-.1-.423-.25-.25-.374.42-.745.843-1.118 1.264-.151.17.1.423.25.25zm10.33 29.514l.794-1.58c.101-.204-.204-.384-.308-.18l-.793 1.58c-.102.203.203.383.307.18zm-53.91 20.285a.872.872 0 01-.69-.64c-.057-.22-.4-.128-.343.094.116.447.485.801.938.889.223.042.317-.3.095-.343zm-1.635 1.505a2.067 2.067 0 01-1.942-1.623c-.05-.222-.392-.128-.343.094a2.422 2.422 0 002.283 1.883c.231.01.231-.344.002-.354zm-3.074 1.434a5.516 5.516 0 01-2.332-2.563c-.094-.208-.399-.029-.307.179a5.84 5.84 0 002.46 2.691c.198.114.378-.193.18-.307zm-4.144.813c-.538.69-1.84-1.264-2.055-1.616a7.564 7.564 0 01-.903-2.235c-.052-.222-.394-.128-.342.094a7.855 7.855 0 001.613 3.254c.38.453 1.342 1.516 1.935.753.14-.177-.108-.43-.248-.25zm-5.056.539a14.103 14.103 0 01-2.851-5.992c-.048-.222-.39-.128-.343.094a14.483 14.483 0 002.942 6.148c.146.177.394-.073.252-.25zm-5.526-.747a17.584 17.584 0 01-2.027-4.99c-.052-.222-.395-.127-.343.095a17.855 17.855 0 002.063 5.075c.118.193.425.016.307-.18zm-3.997-1.288c-1.437-2.178-1.883-4.76-1.245-7.291.056-.222-.286-.316-.343-.094a9.416 9.416 0 001.28 7.565c.126.189.433.012.308-.18zm-3.877-5.011a10.02 10.02 0 01.524-6.234c.087-.211-.255-.303-.343-.095a10.347 10.347 0 00-.524 6.424c.054.222.395.128.343-.095zm-1.841-6.546a8.684 8.684 0 01.773-4.13c.094-.206-.213-.388-.308-.18a9.08 9.08 0 00-.82 4.307c.012.229.367.232.355.003zm-1.061-6.547a14.12 14.12 0 012.091-4.177c.135-.185-.172-.362-.307-.18a14.42 14.42 0 00-2.129 4.262c-.063.22.28.315.345.095zm1.278-6.245L13.7 94.42c.17-.154-.08-.404-.25-.25l-2.637 2.374c-.17.151.08.402.25.25zm74.598 17.184l-.773-.808c-.159-.166-.409.085-.25.25l.772.808c.158.165.408-.087.25-.25zm-2.368 2.828a3.003 3.003 0 01-1.252-1.992c-.038-.224-.38-.13-.343.095a3.344 3.344 0 001.415 2.201c.19.133.367-.174.18-.304zm-2.436 1.965a4.096 4.096 0 01-1.89-2.14c-.08-.21-.423-.118-.343.094a4.466 4.466 0 002.053 2.354c.201.106.379-.199.18-.308zm-5.184.976l-1.845-1.845c-.16-.161-.41.09-.25.25l1.845 1.846c.16.16.411-.09.25-.251zm-2.416 3.735a12.36 12.36 0 01-2.774-4.2c-.083-.211-.425-.118-.343.094a12.816 12.816 0 002.864 4.357c.163.16.413-.09.253-.251zm-4.964 1.272a5.822 5.822 0 01-1.796-4.355c.005-.229-.35-.229-.354 0a6.18 6.18 0 001.9 4.605c.162.158.413-.092.25-.25zm-4.707 1.136l-1.318-4.22c-.068-.217-.411-.125-.343.095l1.319 4.219c.068.218.41.126.342-.094zm-5.299-.626a6.204 6.204 0 01-1.55-3.811c-.011-.227-.366-.229-.354 0a6.6 6.6 0 001.654 4.061c.15.173.401-.078.25-.25zm-4.796-.811a4.601 4.601 0 01-1.774-2.783c-.047-.222-.39-.127-.343.095a4.96 4.96 0 001.938 2.996c.184.134.361-.173.18-.308zm-4.716-1.809a3.523 3.523 0 01-.749-1.983c-.014-.226-.368-.229-.354 0 .052.83.34 1.579.853 2.233.142.18.39-.071.25-.25zm-4.441-.709c-.088-.352-.175-.704-.265-1.056-.054-.222-.397-.128-.343.094.088.352.175.704.265 1.056.057.22.4.128.343-.094zm83.865-23.853l1.077 1.302c.147.175.395-.076.251-.25l-1.078-1.302c-.144-.177-.394.075-.25.25zm-.05 5.524a4.065 4.065 0 001.363 1.665c.187.133.364-.174.18-.307a3.696 3.696 0 01-1.236-1.538c-.094-.208-.399-.026-.307.18zm-1.85 4.437c.359.876.719 1.753 1.075 2.629.085.208.428.118.343-.094-.359-.877-.718-1.753-1.075-2.63-.087-.208-.43-.118-.343.095zm-2.109 6.067l.529 2.11c.054.222.397.127.342-.095l-.529-2.109c-.056-.22-.397-.126-.342.094zm-4.057 2.656c.222 1.575.444 3.151.664 4.727.031.225.373.13.342-.094-.222-1.576-.444-3.152-.663-4.728-.033-.224-.376-.13-.343.095zm-4.17 2.367c.255 1.288.281 2.568.071 3.863-.036.222.305.319.342.094a11.33 11.33 0 00-.07-4.052c-.045-.222-.388-.127-.343.095zm-5.779 2.32v3.166c0 .229.354.229.354 0v-3.166c0-.227-.354-.227-.354 0zm-5.779.619c.425.98.588 2.013.506 3.076-.017.227.338.227.354 0a6.768 6.768 0 00-.553-3.253c-.092-.211-.397-.031-.307.177zm-3.974-.137c-.087.264-.175.527-.264.791-.074.218.269.31.342.095.088-.265.175-.527.265-.792.071-.217-.272-.312-.343-.094zm-5.807-.744v2.901c0 .229.354.229.354 0v-2.901c0-.23-.354-.23-.354 0zm-4.789-1.642c-.182.701-.362 1.403-.543 2.105-.057.222.285.314.342.094l.544-2.105c.056-.222-.286-.317-.343-.094zm31.959-26.003l.527 1.583c.071.215.413.122.342-.095l-.527-1.583c-.073-.215-.415-.123-.342.095zm2.152-2.313c-.132-.137-.116-.26.05-.374l-.244-.063c.296.678.589 1.356.884 2.031.09.208.397.029.307-.179-.295-.678-.588-1.356-.883-2.032-.041-.09-.166-.104-.244-.064a.569.569 0 00-.12.929c.168.158.418-.092.25-.248zm2.899-2.934l1.078 1.833c.115.196.422.019.307-.18l-1.078-1.833c-.115-.194-.423-.016-.307.18zm3.407-2.623c.265.527.527 1.056.792 1.583.101.203.408.024.307-.18-.265-.526-.527-1.056-.792-1.582-.104-.204-.411-.024-.307.179zm1.323-5.278c.439.791.881 1.58 1.321 2.372.111.199.418.021.307-.18l-1.321-2.372c-.111-.198-.418-.02-.307.18zm-.276-4.151c.354.437.706.876 1.06 1.314.145.177.393-.076.251-.251l-1.061-1.314c-.144-.18-.392.074-.25.25zm-102.83 39.855l-.265-.527c-.101-.204-.409-.024-.307.179l.265.527c.101.203.408.024.307-.179zm-4.612-2.382c.23 0 .23-.354 0-.354s-.23.354 0 .354zm-3.78-2.551v-1.846c0-.229-.355-.229-.355 0v1.846c0 .226.355.229.355 0zm-3.436-5.229c.088-.352.175-.704.265-1.056.054-.222-.286-.317-.342-.095-.088.352-.175.705-.265 1.057-.054.222.288.316.343.094zm-1.363-5.987l.527-.526c.16-.161-.09-.412-.25-.251l-.527.527c-.16.16.09.411.25.25zm62.768 12.935l-.265-.264c-.066-.066-.187-.071-.25 0-.064.071-.071.179 0 .25l.264.265c.066.066.187.071.25 0a.179.179 0 000-.251zm-5.201 1.654l-.557-1.838c-.066-.217-.409-.125-.343.095.187.612.371 1.224.558 1.838.066.217.409.123.343-.095zm-6 2.077c.229 0 .229-.354 0-.354-.227 0-.23.354 0 .354zm-6.691 1.361c-.088-.527-.178-1.054-.265-1.583-.038-.224-.378-.13-.343.094.088.527.178 1.054.265 1.583.038.225.38.128.343-.094zm-6.056-.218v-.526c0-.23-.354-.23-.354 0v.526c0 .227.354.227.354 0zm-5.715-.352c.23 0 .23-.354 0-.354-.227 0-.229.354 0 .354zm49.494.879v-.264c0-.092-.08-.182-.177-.177a.18.18 0 00-.177.177v.264c0 .093.08.182.177.178.097-.005.177-.078.177-.178zm4.704-.229c.085-.264.173-.529.258-.794.071-.217-.272-.309-.343-.094l-.257.794c-.069.217.271.312.342.094zm4.475-.172l.265-.265c.066-.066.07-.187 0-.25-.071-.064-.18-.071-.251 0l-.264.264c-.067.066-.071.187 0 .251.07.064.181.068.25 0zm5.15-1.269c.23 0 .23-.354 0-.354-.229 0-.229.354 0 .354zm5.803-4.482c.229 0 .229-.354 0-.354s-.229.354 0 .354zm2.901-5.011c.229 0 .229-.354 0-.354s-.229.354 0 .354zm3.277-6.707c-.531-.256-1.063-.508-1.595-.763-.205-.097-.385.207-.179.307l1.595.763c.205.097.385-.21.179-.307zm-1.306-14.167l-.265-.264c-.066-.066-.187-.071-.25 0-.064.07-.071.18 0 .25l.264.265c.066.066.187.07.251 0a.178.178 0 000-.25zm3.567-4.708c.229 0 .229-.355 0-.355s-.229.355 0 .355zm1.845-6.594c.23 0 .23-.355 0-.355-.226 0-.226.355 0 .355zm-.526-1.845c.229 0 .229-.355 0-.355-.227 0-.23.355 0 .355zm-50.374 29.537c.23 0 .23-.354 0-.354-.226 0-.229.354 0 .354z" fill="#000"/><path d="M74.491 101.85c.23 0 .23-.354 0-.354-.227 0-.227.354 0 .354zm-.527-1.053c.23 0 .23-.355 0-.355-.229 0-.229.355 0 .355zM72.12 97.63c.228 0 .228-.353 0-.353-.23 0-.23.354 0 .354zm-.887-3.125c-.087-.265-.175-.527-.264-.791-.071-.215-.414-.123-.343.094.087.265.175.527.265.791.073.215.415.123.342-.094zM70.01 90.51c.228 0 .228-.355 0-.355-.23 0-.23.355 0 .355zm-.792-5.011c.23 0 .23-.355 0-.355s-.23.355 0 .355z" fill="#000"/><path d="M68.953 85.237c.23 0 .23-.355 0-.355-.227 0-.229.355 0 .355zm-.264-8.44c.229 0 .229-.354 0-.354-.227 0-.227.354 0 .354zm-.263 1.054c.23 0 .23-.354 0-.354-.229 0-.229.354 0 .354zm2.902 1.583c.229 0 .229-.354 0-.354-.23 0-.23.354 0 .354zm.262 2.901c.23 0 .23-.354 0-.354-.227 0-.227.354 0 .354zm.265-1.055c.229 0 .229-.355 0-.355-.23 0-.23.354 0 .354zm4.484 18.198c.229 0 .229-.354 0-.354-.23 0-.23.354 0 .354zm-2.901-3.693c.229 0 .229-.354 0-.354-.23 0-.23.355 0 .355zm-1.318-2.901c.228 0 .228-.354 0-.354-.23 0-.23.354 0 .354zm-.792-3.428c.229 0 .229-.354 0-.354-.23 0-.23.354 0 .354zm-.529-3.166c.229 0 .229-.354 0-.354-.227 0-.227.354 0 .354zm-.789-2.901c.228 0 .228-.354 0-.354-.23 0-.23.354 0 .354zm0-4.482c.228 0 .228-.354 0-.354-.23 0-.23.354 0 .354zm.39-5.267c-.088-.174-.178-.351-.265-.526-.102-.203-.41-.024-.308.18l.265.526c.104.204.411.024.307-.18zm-.92-3.437c.23 0 .23-.354 0-.354-.227 0-.227.354 0 .354zm-2.636 8.175c.229 0 .229-.354 0-.354-.227 0-.23.354 0 .354zm0 3.957c.229 0 .229-.354 0-.354-.227 0-.23.354 0 .354zm.526 5.274c.23 0 .23-.355 0-.355-.227 0-.227.355 0 .355zm1.056 4.219c.23 0 .23-.354 0-.354-.229 0-.229.354 0 .354zm1.319-2.372c.229 0 .229-.354 0-.354-.23 0-.23.354 0 .354zm0 6.329c.229 0 .229-.354 0-.354-.23 0-.23.355 0 .355zm1.054 3.429h.264c.092 0 .182-.08.177-.177a.18.18 0 00-.177-.178H70.8c-.093 0-.182.08-.178.178a.18.18 0 00.178.177zm3.165 3.428c.23 0 .23-.354 0-.354-.229 0-.229.354 0 .354zm4.746-.262c.23 0 .23-.355 0-.355-.226 0-.226.355 0 .355zm-3.692-3.958c.23 0 .23-.354 0-.354-.227 0-.227.354 0 .354z" fill="#000"/><path d="M73.173 96.05c.229 0 .229-.354 0-.354-.227 0-.23.354 0 .354zm-2.11 2.372c.23 0 .23-.354 0-.354-.227 0-.229.354 0 .354zm.527-3.428c.23 0 .23-.354 0-.354-.227 0-.227.354 0 .354zm-1.054-3.693c.23 0 .23-.354 0-.354-.229 0-.229.354 0 .354zm-1.583-15.56c.23 0 .23-.354 0-.354-.227 0-.229.354 0 .354zm-1.845-2.901c.23 0 .23-.355 0-.355-.229 0-.229.355 0 .355zm.527-2.637c.23 0 .23-.354 0-.354s-.23.354 0 .354zm-.527 21.363c.23 0 .23-.354 0-.354-.229 0-.229.354 0 .354zm1.581 4.747c.229 0 .229-.355 0-.355-.227 0-.227.355 0 .355zm1.583 3.165c.229 0 .229-.354 0-.354-.227 0-.227.354 0 .354zm1.264 1.451c.068-.01.002-.007.044-.002.02.002.024.004.012 0 .01.004.022.009.031.011.002.003.038.033.021.015-.012-.012.031.042.017.018-.012-.016.01.024.01.026a.067.067 0 00-.005-.016c-.005-.019.002.05.002.024v-.017c-.002-.033-.012.047 0 .009.012-.035-.024.038-.002.008-.003.002-.034.037-.015.018.012-.011-.042.029-.019.017.003 0-.047.019-.026.012-.03.009-.03.007-.06.002.089.019.195-.026.216-.123.022-.089-.026-.198-.122-.217-.18-.038-.32.097-.324.274a.3.3 0 00.073.208c.064.073.151.085.243.073.04-.005.088-.047.107-.08a.197.197 0 00.019-.137c-.038-.099-.123-.137-.222-.123zm20.625-2.507c.23 0 .23-.354 0-.354-.227 0-.227.354 0 .354zm-1.845-1.054c.23 0 .23-.354 0-.354s-.23.355 0 .355z" fill="#000"/><path d="M90.316 97.368c.23 0 .23-.354 0-.354s-.23.355 0 .355zm-1.583 2.372c.23 0 .23-.354 0-.354-.227 0-.23.355 0 .355zm-1.583-.79c.23 0 .23-.355 0-.355-.227 0-.227.354 0 .354zm0-1.582c.23 0 .23-.354 0-.354-.227 0-.227.355 0 .355zm-1.845 0c.23 0 .23-.354 0-.354s-.23.355 0 .355zm.527-1.848c.229 0 .229-.353 0-.353-.227 0-.227.354 0 .354zm-1.319 2.375c.23 0 .23-.354 0-.354-.227 0-.229.355 0 .355zm.087-4.661v.265c0 .092.081.181.178.177.097-.005.177-.078.177-.177v-.265c0-.092-.08-.182-.177-.177a.18.18 0 00-.177.177zm.97-3.516c.229 0 .229-.354 0-.354-.23 0-.23.354 0 .354zm-.53-3.69c.23 0 .23-.354 0-.354-.227 0-.227.354 0 .354zm-.527 1.318c.23 0 .23-.354 0-.354-.227 0-.229.354 0 .354zm-.264-4.748c.229 0 .229-.355 0-.355-.227 0-.227.355 0 .355zm.529-2.372c.23 0 .23-.355 0-.355s-.23.355 0 .355zm-1.318-1.848c.229 0 .229-.354 0-.354-.23 0-.23.354 0 .354zm1.443-2.148l-.264-.264c-.067-.066-.187-.071-.25 0-.065.07-.072.18 0 .25l.264.265c.066.066.186.07.25 0a.183.183 0 000-.25zm-1.708-2.072c.23 0 .23-.354 0-.354s-.23.354 0 .354zm-1.056-2.109c.23 0 .23-.355 0-.355-.227 0-.227.355 0 .355zm.791-1.581c.23 0 .23-.355 0-.355-.226 0-.226.355 0 .355z" fill="#000"/><path d="M82.93 70.468c.23 0 .23-.355 0-.355-.226 0-.226.355 0 .355zm1.583 3.955c.23 0 .23-.355 0-.355-.227 0-.229.355 0 .355zm-.526-5.011c.229 0 .229-.355 0-.355-.23 0-.23.355 0 .355zm.262-2.375c.229 0 .229-.354 0-.354-.227 0-.227.354 0 .354zm-.789.792c.229 0 .229-.355 0-.355-.23 0-.23.355 0 .355zm2.636 17.67c.23 0 .23-.355 0-.355-.229 0-.229.355 0 .355zm.527 3.166c.23 0 .23-.355 0-.355-.227 0-.229.355 0 .355zm.527 3.163c.23 0 .23-.354 0-.354-.227 0-.227.354 0 .354zm.792 2.902c.229 0 .229-.355 0-.355-.227 0-.227.355 0 .355zm1.318 1.055h.264c.093 0 .183-.08.178-.177-.005-.097-.078-.177-.177-.177h-.265c-.092 0-.182.08-.177.177.005.097.078.177.177.177zm1.583 1.055c.229 0 .229-.355 0-.355-.227 0-.23.354 0 .354zm1.583-.527c.229 0 .229-.355 0-.355-.23 0-.23.355 0 .355zm2.901-.793c.23 0 .23-.353 0-.353s-.23.354 0 .354zm-.265 2.375c.23 0 .23-.354 0-.354-.226 0-.226.355 0 .355zm-3.955-2.11c.23 0 .23-.354 0-.354-.229 0-.229.355 0 .355zm-2.637-4.484c.23 0 .23-.354 0-.354-.228 0-.228.354 0 .354zM86.096 65.72c.23 0 .23-.355 0-.355-.229 0-.229.354 0 .354zm-16.878 1.055c.23 0 .23-.354 0-.354s-.23.354 0 .354zm2.637-1.055c.229 0 .229-.355 0-.355-.23 0-.23.354 0 .354zm7.385 35.339c.23 0 .23-.354 0-.354s-.23.354 0 .354zm-3.957 2.374c.229 0 .229-.354 0-.354-.227 0-.23.354 0 .354zM73.7 99.478c.229 0 .229-.354 0-.354-.227 0-.227.354 0 .354zm-33.23 18.724c.229 0 .229-.355 0-.355-.227 0-.227.355 0 .355zm-3.164.791c.23 0 .23-.354 0-.354-.229 0-.229.354 0 .354zm-2.374 1.319c.229 0 .229-.355 0-.355-.227 0-.23.355 0 .355zm-1.318-1.319c.229 0 .229-.354 0-.354-.23 0-.23.354 0 .354zm-1.319 2.902c.23 0 .23-.355 0-.355-.229 0-.229.355 0 .355zm-3.957.527c.229 0 .229-.355 0-.355-.227 0-.227.355 0 .355zm-5.011-.792c.229 0 .229-.354 0-.354-.227 0-.227.354 0 .354zm-2.637-.262c.23 0 .23-.355 0-.355-.227 0-.227.355 0 .355zm-3.693-2.375c.23 0 .23-.354 0-.354-.227 0-.227.354 0 .354zm-2.729-3.388l-.791-2.109c-.08-.213-.423-.121-.343.094l.792 2.11c.08.21.423.118.342-.095zm-1.753-4.524c.23 0 .23-.354 0-.354-.229 0-.229.354 0 .354zm-.878-3.867c-.088-.879-.175-1.758-.265-2.637-.024-.225-.378-.227-.354 0 .087.879.174 1.758.264 2.637.024.224.378.226.355 0zm6.681 5.45c.23 0 .23-.354 0-.354s-.23.354 0 .354zm-8.177-8.439c.23 0 .23-.354 0-.354-.227 0-.23.354 0 .354zm7.121 3.428c.23 0 .23-.354 0-.354-.227 0-.23.354 0 .354zm8.439 11.34c.23 0 .23-.354 0-.354-.227 0-.229.354 0 .354zm-3.955-.526c.23 0 .23-.355 0-.355-.229 0-.229.355 0 .355zm-3.166-2.637c.23 0 .23-.355 0-.355-.227 0-.229.355 0 .355zm-2.372-2.901c.23 0 .23-.355 0-.355-.229 0-.229.355 0 .355zm-1.848-3.428c.23 0 .23-.355 0-.355-.226 0-.228.355 0 .355zm-.79-2.11c.228 0 .228-.355 0-.355s-.228.355 0 .355zm-1.055-3.693c.23 0 .23-.354 0-.354-.229 0-.229.354 0 .354zm-.265-1.318c.23 0 .23-.355 0-.355-.226 0-.228.355 0 .355zm.792-2.902c.23 0 .23-.354 0-.354-.229 0-.229.354 0 .354zm.792-1.583c.229 0 .229-.354 0-.354-.23 0-.23.355 0 .355zM36.25 117.94c.23 0 .23-.355 0-.355-.227 0-.227.355 0 .355zm-4.482.527c.23 0 .23-.355 0-.355-.229 0-.229.355 0 .355zm-3.958-.792c.23 0 .23-.354 0-.354-.226 0-.228.354 0 .354zm-4.219-2.374c.23 0 .23-.355 0-.355-.227 0-.229.355 0 .355zm.574-2.984c-.096-.029-.181-.156-.137-.258.038-.087.026-.191-.063-.243-.076-.045-.204-.024-.244.064-.137.309.012.683.348.779.222.064.316-.278.096-.342zm-3.21-3.608c.229 0 .229-.354 0-.354-.23 0-.23.354 0 .354zm-1.848-3.957c.23 0 .23-.355 0-.355-.227 0-.227.355 0 .355zm-1.054-2.902c.23 0 .23-.354 0-.354-.229 0-.229.354 0 .354zm-1.056-2.372c.23 0 .23-.354 0-.354-.227 0-.227.354 0 .354zm-.262-3.693c.23 0 .23-.354 0-.354s-.23.355 0 .355z" fill="#000"/><path d="M16.735 95.785c.23 0 .23-.354 0-.354s-.23.355 0 .355zm-3.165 23.208c.228 0 .228-.354 0-.354s-.228.354 0 .354zm4.306 2.725v.264c0 .092.08.182.177.177a.18.18 0 00.178-.177v-.264c0-.093-.08-.182-.178-.178-.097.005-.177.078-.177.178zm5.451 1.495c.229 0 .229-.354 0-.354-.227 0-.227.354 0 .354zm3.43 1.056c.23 0 .23-.354 0-.354-.229 0-.229.354 0 .354zm6.33-1.318c.229 0 .229-.355 0-.355-.23 0-.23.355 0 .355zm-22.681-10.814c.229 0 .229-.354 0-.354-.23 0-.23.354 0 .354zM9.35 106.07c.229 0 .229-.354 0-.354-.227 0-.227.354 0 .354zm-.263-5.8c.23 0 .23-.355 0-.355-.229 0-.229.355 0 .355zm2.637-4.75c.23 0 .23-.353 0-.353s-.23.354 0 .354zm74.372 19.518c.23 0 .23-.354 0-.354-.229 0-.229.354 0 .354zm-5.276 4.22c.23 0 .23-.354 0-.354-.226 0-.226.354 0 .354zm-3.69 2.372c.23 0 .23-.354 0-.354-.229 0-.229.354 0 .354zm-2.374.792c.229 0 .229-.355 0-.355-.23 0-.23.355 0 .355zm-3.957 2.901c.229 0 .229-.354 0-.354-.227 0-.227.354 0 .354zm-4.747 2.11c.23 0 .23-.355 0-.355-.227 0-.23.355 0 .355zm-3.163.791c.229 0 .229-.354 0-.354-.23 0-.23.354 0 .354zm-6.547-.874c-.44-.087-.88-.175-1.319-.265-.222-.045-.319.298-.094.343.44.087.879.175 1.318.264.222.043.32-.3.095-.342zm-5.585-1.5c.229 0 .229-.355 0-.355-.23 0-.23.355 0 .355zm-3.957-1.319c.228 0 .228-.354 0-.354s-.228.354 0 .354zm-1.582-1.318c.23 0 .23-.354 0-.354-.229 0-.229.354 0 .354zm.262-5.011c.23 0 .23-.355 0-.355-.226 0-.226.355 0 .355zm7.913 4.484c.23 0 .23-.354 0-.354-.227 0-.229.354 0 .354zm6.33 1.583c.229 0 .229-.354 0-.354-.227 0-.23.354 0 .354zm4.484-.529c.229 0 .229-.354 0-.354-.23 0-.23.354 0 .354zm3.955-.789c.229 0 .229-.355 0-.355-.227 0-.23.355 0 .355zm4.484-1.583c.23 0 .23-.355 0-.355s-.23.355 0 .355zm5.011-3.428c.23 0 .23-.355 0-.355-.229 0-.229.355 0 .355zm3.78-1.08c.265-.175.527-.352.792-.527.189-.125.011-.432-.18-.307l-.791.527c-.187.127-.01.435.18.307zm2.812-2.086c.229 0 .229-.355 0-.355-.227 0-.227.355 0 .355zm2.11-2.375c.229 0 .229-.354 0-.354-.227 0-.227.354 0 .354zm1.056-1.053c.229 0 .229-.355 0-.355-.23 0-.23.355 0 .355zm-2.375-.265c.23 0 .23-.354 0-.354-.227 0-.227.354 0 .354zm-3.163 3.693c.229 0 .229-.355 0-.355-.23 0-.23.355 0 .355zm-4.747 1.845c.23 0 .23-.354 0-.354-.229 0-.229.354 0 .354zm-5.275 2.11c.229 0 .229-.355 0-.355-.23 0-.23.355 0 .355zm-3.429 1.32c.23 0 .23-.354 0-.354-.229 0-.229.354 0 .354zm-5.011-.264c.23 0 .23-.355 0-.355-.229 0-.229.355 0 .355zm1.319-1.845c.229 0 .229-.355 0-.355-.227 0-.23.355 0 .355zm-5.276 3.163c.23 0 .23-.354 0-.354-.227 0-.227.354 0 .354zm-3.69-1.318c.229 0 .229-.355 0-.355-.23 0-.23.355 0 .355zm-4.749 1.318c.229 0 .229-.354 0-.354-.227 0-.227.354 0 .354zm-3.691-3.955c.23 0 .23-.354 0-.354-.229 0-.229.354 0 .354zm-5.011 0c.23 0 .23-.354 0-.354-.229 0-.229.354 0 .354zm3.691-2.374c.229 0 .229-.355 0-.355-.227 0-.227.355 0 .355zm3.166-3.428c.229 0 .229-.355 0-.355-.23 0-.23.355 0 .355zm3.692-1.845c.23 0 .23-.355 0-.355-.229 0-.229.355 0 .355zm-10.022 5.273c.23 0 .23-.355 0-.355-.229 0-.229.355 0 .355zm4.22-3.164c.229 0 .229-.354 0-.354-.23 0-.23.354 0 .354zm3.428-3.166c.229 0 .229-.354 0-.354-.227 0-.23.354 0 .354z" fill="#000"/><path d="M50.492 108.444c.229 0 .229-.354 0-.354-.227 0-.23.354 0 .354zm-10.549 6.857c.23 0 .23-.355 0-.355s-.23.355 0 .355zm-2.637 1.583c.23 0 .23-.355 0-.355-.229 0-.229.355 0 .355zm-3.957.526c.229 0 .229-.354 0-.354-.227 0-.227.354 0 .354zm-3.69-3.69c.229 0 .229-.354 0-.354-.23 0-.23.354 0 .354zm2.497 2.07a22.772 22.772 0 00-.163-.163c-.066-.066-.187-.071-.25 0-.064.071-.072.179 0 .25l.162.163c.066.066.187.071.25 0a.178.178 0 000-.25 22.772 22.772 0 00-.162-.163c-.066-.066-.187-.071-.25 0-.064.071-.072.179 0 .25l.162.163c.066.066.187.071.25 0a.178.178 0 000-.25zm2.776-1.281c.229 0 .229-.354 0-.354-.227 0-.23.354 0 .354zm6.067-.527c.23 0 .23-.354 0-.354s-.23.354 0 .354zm5.538-3.955c.23 0 .23-.354 0-.354s-.23.354 0 .354zm5.361-3.87v.265c0 .092.08.182.177.177.097-.005.177-.078.177-.177v-.265c0-.092-.08-.182-.177-.177-.097.005-.177.078-.177.177zm-8.262 5.98c.229 0 .229-.354 0-.354-.23 0-.23.354 0 .354zm7.121 3.338h-.265c-.092 0-.182.081-.177.178a.18.18 0 00.177.177h.265c.092 0 .181-.081.177-.177-.005-.097-.078-.178-.177-.178zm4.219 5.366c.23 0 .23-.354 0-.354-.229 0-.229.354 0 .354zm4.747 6.856c.229 0 .229-.354 0-.354-.227 0-.23.354 0 .354zm14.241-1.847c.23 0 .23-.355 0-.355-.229 0-.229.355 0 .355zm5.011-3.428c.23 0 .23-.355 0-.355-.229 0-.229.355 0 .355zm5.803-3.693c.23 0 .23-.355 0-.355s-.23.355 0 .355zm5.273-8.702c.23 0 .23-.354 0-.354-.227 0-.227.354 0 .354zm-.791 1.845c.229 0 .229-.354 0-.354-.227 0-.227.354 0 .354zm1.583-4.481c.229 0 .229-.355 0-.355-.227 0-.23.355 0 .355zm-1.053 3.428c.228 0 .228-.355 0-.355-.23 0-.23.355 0 .355zm42.46-31.649c.229 0 .229-.355 0-.355s-.229.354 0 .354zm.262 6.067c.229 0 .229-.355 0-.355-.227 0-.227.355 0 .355zm-1.845-2.639c.229 0 .229-.355 0-.355s-.229.355 0 .355zm.791 6.332c.229 0 .229-.355 0-.355s-.229.354 0 .354zm-3.692 3.954c.229 0 .229-.354 0-.354-.227 0-.23.354 0 .354zm-3.955 1.319c.229 0 .229-.355 0-.355-.23 0-.23.355 0 .355zm-2.375.791c.229 0 .229-.354 0-.354s-.229.354 0 .354zm4.22-2.374c.229 0 .229-.355 0-.355s-.229.355 0 .355zm-5.011 2.639c.229 0 .229-.355 0-.355-.227 0-.23.355 0 .355zm-3.428-.529c.229 0 .229-.355 0-.355-.23 0-.23.355 0 .355zm-1.057-.527c.23 0 .23-.355 0-.355-.226 0-.226.355 0 .355zm2.11-1.054c.229 0 .229-.355 0-.355-.227 0-.227.355 0 .355zm4.485-1.321c.229 0 .229-.354 0-.354-.227 0-.23.354 0 .354zm2.374-1.318c.229 0 .229-.355 0-.355s-.229.355 0 .355zm3.955-2.901c.229 0 .229-.355 0-.355-.227 0-.229.355 0 .355z" fill="#000"/><path d="M130.844 82.95v-1.846c0-.229-.354-.229-.354 0v1.846c0 .226.354.226.354 0zm.087-4.043c.23 0 .23-.354 0-.354-.229 0-.229.354 0 .354zm-.529-2.639c.229 0 .229-.354 0-.354-.227 0-.227.354 0 .354z" fill="#000"/><path d="M130.402 76.268c.229 0 .229-.354 0-.354-.227 0-.227.354 0 .354zm-1.053-.527c.229 0 .229-.354 0-.354-.23 0-.23.354 0 .354zm.526.792c.229 0 .229-.355 0-.355-.227 0-.229.355 0 .355zm-1.583 1.318c.23 0 .23-.354 0-.354-.226 0-.226.354 0 .354zm1.057 5.011c.229 0 .229-.354 0-.354-.23 0-.23.354 0 .354zm0 9.231c.229 0 .229-.355 0-.355-.23 0-.23.355 0 .355zm-1.848 1.845c.229 0 .229-.354 0-.354-.227 0-.227.354 0 .354zm1.583 7.912c.229 0 .229-.354 0-.354-.227 0-.229.354 0 .354zm-1.318 6.33c.229 0 .229-.355 0-.355-.227 0-.23.355 0 .355zm-2.11 5.54c.229 0 .229-.354 0-.354s-.229.354 0 .354zm-1.845 3.428c.229 0 .229-.354 0-.354-.23 0-.23.354 0 .354zm-5.541 4.747c.229 0 .229-.355 0-.355-.227 0-.227.355 0 .355zm-1.318.791c.229 0 .229-.354 0-.354-.227 0-.227.354 0 .354zm-10.022 1.319c.229 0 .229-.355 0-.355-.227 0-.227.355 0 .355zm-4.435-.086c-1.318-.264-2.636-.526-3.955-.791-.222-.045-.319.298-.094.343 1.318.264 2.636.526 3.955.791.222.045.316-.298.094-.343z" fill="#000"/><path d="M99.02 123.478c.229 0 .229-.355 0-.355-.23 0-.23.355 0 .355z" fill="#000"/><path d="M99.282 123.74c.23 0 .23-.354 0-.354-.227 0-.227.354 0 .354zm-.527-1.581c.23 0 .23-.354 0-.354-.229 0-.229.354 0 .354zm-5.802.263c.229 0 .229-.355 0-.355-.227 0-.227.355 0 .355zm-1.054.529c.229 0 .229-.355 0-.355-.23 0-.23.355 0 .355zm-1.583.789c.23 0 .23-.354 0-.354s-.23.354 0 .354zm5.538 1.848c.229 0 .229-.355 0-.355-.227 0-.23.355 0 .355zm7.385.262c.23 0 .23-.355 0-.355-.229 0-.229.355 0 .355zm3.691 1.056c.229 0 .229-.354 0-.354-.227 0-.227.354 0 .354zm7.385-1.583c.229 0 .229-.354 0-.354-.227 0-.229.354 0 .354zm4.61-3.745l1.056-1.318c.141-.177-.109-.428-.251-.251l-1.056 1.319c-.142.177.107.43.251.25zm2.511-3.111c.229 0 .229-.355 0-.355s-.229.355 0 .355zm3.428-2.637c.229 0 .229-.355 0-.355-.227 0-.229.355 0 .355zm3.166-4.484c.229 0 .229-.355 0-.355s-.229.355 0 .355zm.262-5.803c.23 0 .23-.354 0-.354-.226 0-.226.354 0 .354zm.53-5.538c.229 0 .229-.354 0-.354-.23 0-.23.354 0 .354zm.262-4.746c.229 0 .229-.355 0-.355-.227 0-.229.355 0 .355zm-2.372 3.955c.229 0 .229-.355 0-.355s-.229.355 0 .355zm-.265 3.428c.229 0 .229-.354 0-.354s-.229.354 0 .354zm-1.056 4.749c.229 0 .229-.355 0-.355-.227 0-.227.355 0 .355zm-1.318 4.746c.229 0 .229-.354 0-.354-.227 0-.227.354 0 .354zm-4.482 5.011c.229 0 .229-.354 0-.354s-.229.354 0 .354zm.527.262c.229 0 .229-.354 0-.354s-.229.354 0 .354zm-4.22 2.375c.229 0 .229-.355 0-.355s-.229.355 0 .355zm-3.428 2.374c.229 0 .229-.354 0-.354s-.229.354 0 .354zm-4.22.527c.23 0 .23-.354 0-.354-.229 0-.229.354 0 .354zm-7.12-2.374c.229 0 .229-.355 0-.355-.23 0-.23.355 0 .355zm-3.958 0c.23 0 .23-.355 0-.355-.227 0-.227.355 0 .355z" fill="#000"/><path d="M96.91 120.576c.23 0 .23-.354 0-.354s-.23.354 0 .354zm-2.11-2.901c.23 0 .23-.354 0-.354-.229 0-.229.354 0 .354zm-3.166.792c.23 0 .23-.355 0-.355-.227 0-.229.355 0 .355zm0 .791c.23 0 .23-.354 0-.354-.227 0-.229.354 0 .354zm1.846.527c.229 0 .229-.355 0-.355-.227 0-.227.355 0 .355zm-1.373-3.823c.068-.009.002-.007.045-.002.019.002.023.005.012 0 .009.005.02.009.03.012.003.002.038.033.022.014-.012-.012.03.042.016.019-.012-.017.01.023.01.026a.058.058 0 00-.005-.017c-.005-.019.002.05.002.024v-.017c-.002-.033-.012.047 0 .01.012-.036-.023.037-.002.007-.003.002-.033.038-.014.019.011-.012-.043.028-.02.016.003 0-.047.019-.025.012-.031.009-.031.007-.062.002.09.019.196-.026.218-.122.02-.09-.026-.199-.123-.218-.18-.038-.32.097-.324.274a.3.3 0 00.073.208c.064.073.152.085.244.073.04-.004.087-.047.106-.08a.197.197 0 00.019-.137c-.038-.102-.123-.137-.222-.123zm-1.791-1.98c.23 0 .23-.354 0-.354s-.23.354 0 .354zm-.526 3.166c.228 0 .228-.354 0-.354-.23 0-.23.354 0 .354zm-1.584 1.226h-.264c-.093 0-.182.081-.178.178.005.097.078.177.178.177h.264c.092 0 .182-.08.177-.177a.182.182 0 00-.177-.178zm-.791 2.202c.229 0 .229-.354 0-.354-.23 0-.23.354 0 .354zm2.375 1.846c.228 0 .228-.355 0-.355-.23 0-.23.355 0 .355zm17.404-1.846c.23 0 .23-.354 0-.354-.226 0-.229.354 0 .354zm5.803-1.847c.229 0 .229-.355 0-.355s-.229.355 0 .355zm5.538-3.691c.229 0 .229-.354 0-.354-.227 0-.229.354 0 .354zm4.22-3.692c.229 0 .229-.355 0-.355-.227 0-.23.355 0 .355zm1.318-4.747c.229 0 .229-.354 0-.354-.227 0-.227.354 0 .354zm0-5.802c.229 0 .229-.355 0-.355-.227 0-.227.355 0 .355zm.529-3.167c.229 0 .229-.353 0-.353s-.229.354 0 .354zm-3.693-24.26c.229 0 .229-.355 0-.355s-.229.354 0 .354zm-2.109-3.167c.229 0 .229-.354 0-.354-.23 0-.23.354 0 .354zm-4.749-3.428c.229 0 .229-.354 0-.354-.227 0-.227.354 0 .354zm-5.538-2.375c.229 0 .229-.354 0-.354-.227 0-.227.355 0 .355zm-5.011.265c.229 0 .229-.354 0-.354-.227 0-.227.354 0 .354zm-4.482 2.372c.229 0 .229-.354 0-.354-.23 0-.23.354 0 .354zm12.394-2.109c.229 0 .229-.355 0-.355-.227 0-.229.355 0 .355zm5.011 1.582c.229 0 .229-.354 0-.354-.227 0-.229.354 0 .354zm4.08 2.6l-.264-.265c-.067-.066-.187-.071-.251 0-.064.07-.071.18 0 .25l.265.265c.066.066.186.07.25 0a.178.178 0 000-.25zm.667 2.15c.229 0 .229-.355 0-.355-.227 0-.227.355 0 .355zm-1.054 4.746c.229 0 .229-.355 0-.355s-.229.355 0 .355zm3.955-6.329c.229 0 .229-.355 0-.355-.227 0-.227.355 0 .355zm3.428 1.845c.229 0 .229-.355 0-.355-.227 0-.227.355 0 .355zm3.166 2.11c.229 0 .229-.355 0-.355s-.229.355 0 .355zm-19.253-6.33c.229 0 .229-.354 0-.354-.227 0-.229.354 0 .354zm-5.538-.527c.229 0 .229-.354 0-.354s-.229.354 0 .354zm-4.22 1.583c.23 0 .23-.354 0-.354-.229 0-.229.354 0 .354zm-3.428 2.11c.23 0 .23-.355 0-.355-.229 0-.229.355 0 .355zm7.913-1.583c.229 0 .229-.354 0-.354s-.229.354 0 .354zm-6.33 3.428c.229 0 .229-.354 0-.354s-.229.354 0 .354zm13.977-7.648c.23 0 .23-.354 0-.354-.229 0-.229.354 0 .354zm-61.186 8.44c.229 0 .229-.355 0-.355-.227 0-.23.355 0 .355zm2.636-2.11c.23 0 .23-.355 0-.355-.227 0-.227.355 0 .355zm2.902-1.318c.229 0 .229-.355 0-.355-.227 0-.227.355 0 .355zm2.639.262c.229 0 .229-.355 0-.355-.23 0-.23.355 0 .355zm2.636.264c.23 0 .23-.354 0-.354-.229 0-.229.354 0 .354zm-1.847 1.583c.229 0 .229-.354 0-.354-.227 0-.227.354 0 .354zm-4.22 0c.23 0 .23-.354 0-.354-.227 0-.227.354 0 .354zm-3.69 2.902c.229 0 .229-.355 0-.355-.23 0-.23.355 0 .355zm-1.318 4.746c.229 0 .229-.354 0-.354-.23 0-.23.354 0 .354zm-3.431-3.954c.23 0 .23-.355 0-.355-.227 0-.227.354 0 .354zm-4.219-1.848c.229 0 .229-.355 0-.355-.227 0-.227.355 0 .355zm-4.747-1.054c.23 0 .23-.355 0-.355s-.23.355 0 .355zm-3.693.527c.23 0 .23-.355 0-.355-.227 0-.227.355 0 .355zm-2.11.791c.23 0 .23-.354 0-.354-.227 0-.227.354 0 .354zm8.177-2.374c.23 0 .23-.355 0-.355-.229 0-.229.355 0 .355zM46.8 73.37c.228 0 .228-.355 0-.355s-.228.354 0 .354zm-10.285 2.371c.229 0 .229-.354 0-.354-.23 0-.23.354 0 .354zm4.746-.881h-.264c-.093 0-.182.08-.178.177.005.097.078.177.178.177h.264c.092 0 .182-.08.177-.177a.18.18 0 00-.177-.177zm4.747 2.464c.229 0 .229-.354 0-.354-.227 0-.227.354 0 .354zm-11.603 2.11c.23 0 .23-.354 0-.354s-.23.354 0 .354zm-2.375 4.484c.23 0 .23-.354 0-.354-.226 0-.226.354 0 .354zm-2.9 4.747c.229 0 .229-.355 0-.355-.227 0-.227.355 0 .355zm-4.483 6.065c.23 0 .23-.355 0-.355-.229 0-.229.355 0 .355zm-1.32 6.067c.229 0 .229-.355 0-.355-.227 0-.227.355 0 .355zm3.43-9.496c.23 0 .23-.354 0-.354-.229 0-.229.354 0 .354zm3.163-4.481c.23 0 .23-.355 0-.355-.226 0-.228.355 0 .355zm-8.703 10.548c.229 0 .229-.354 0-.354-.227 0-.227.355 0 .355zm-2.372 0c.229 0 .229-.354 0-.354-.23 0-.23.355 0 .355zm1.845 6.065c.23 0 .23-.354 0-.354-.227 0-.227.354 0 .354zm-.527-4.047H19.9c-.093 0-.182.08-.178.177.005.097.078.178.178.178h.264c.092 0 .182-.08.177-.178a.181.181 0 00-.177-.177zm7.913-6.766c.229 0 .229-.355 0-.355-.23 0-.23.355 0 .355zm65.668-29.01c.23 0 .23-.355 0-.355-.227 0-.23.354 0 .354zm.527-.528c.23 0 .23-.354 0-.354-.227 0-.227.354 0 .354zm-.439-3.078v.163c0 .092.08.182.177.177.097-.005.177-.078.177-.177v-.163c0-.092-.08-.182-.177-.177-.097.005-.177.078-.177.177v.163c0 .092.08.182.177.177.097-.005.177-.078.177-.177v-.163c0-.092-.08-.182-.177-.177-.097.005-.177.078-.177.177zm.439-2.197c.23 0 .23-.355 0-.355-.227 0-.227.355 0 .355zm2.374-3.691c.23 0 .23-.354 0-.354-.229 0-.229.354 0 .354zm-1.055-3.428c.228 0 .228-.354 0-.354s-.228.354 0 .354zm3.957-2.901c.229 0 .229-.355 0-.355-.23 0-.23.355 0 .355zm1.845-2.639c.229 0 .229-.355 0-.355-.227 0-.227.355 0 .355zm2.374-2.901c.229 0 .229-.355 0-.355s-.229.355 0 .355zm3.164-3.955c.229 0 .229-.355 0-.355-.227 0-.227.355 0 .355zm1.056-1.846c.229 0 .229-.354 0-.354s-.229.354 0 .354zm2.11-3.43c.229 0 .229-.354 0-.354-.23 0-.23.354 0 .354zm.264-3.69c.229 0 .229-.355 0-.355s-.229.355 0 .355zm-.264-1.056c.229 0 .229-.355 0-.355-.23 0-.23.355 0 .355zm.264.526c.229 0 .229-.354 0-.354s-.229.354 0 .354zm-8.177 15.034c.229 0 .229-.355 0-.355-.227 0-.229.355 0 .355z" fill="#000"/><path d="M102.183 44.094c.229 0 .229-.354 0-.354-.227 0-.229.354 0 .354zm-2.636 1.054c.229 0 .229-.355 0-.355-.23 0-.23.355 0 .355zm5.913-3.934v-.394c0-.23-.354-.23-.354 0v.394c0 .227.354.227.354 0zm2.746-4.262l.198-.395c.043-.085.024-.19-.064-.243-.078-.045-.198-.021-.243.064-.066.132-.132.264-.199.394-.042.086-.023.192.064.244.078.045.199.021.244-.064zm1.625-3.87c.229 0 .229-.354 0-.354-.227 0-.227.354 0 .354zm.99-2.57c.229 0 .229-.355 0-.355s-.229.355 0 .355zm-.792-3.362c.23 0 .23-.355 0-.355-.226 0-.229.355 0 .355zm-1.186-2.176c.23 0 .23-.355 0-.355-.229 0-.229.355 0 .355z" fill="#000"/><path d="M108.843 24.974c.23 0 .23-.355 0-.355-.229 0-.229.355 0 .355zm-.593 7.12c.23 0 .23-.354 0-.354-.229 0-.229.354 0 .354zm.197 2.176c.229 0 .229-.354 0-.354-.227 0-.227.354 0 .354zm.396.988c.23 0 .23-.354 0-.354-.229 0-.229.354 0 .354z" fill="#000"/><path d="M108.843 35.258c.23 0 .23-.354 0-.354-.229 0-.229.354 0 .354zm-3.165 3.957c.229 0 .229-.354 0-.354-.227 0-.227.355 0 .355zm-.792 1.186c.229 0 .229-.354 0-.354-.227 0-.227.354 0 .354zm-2.769 1.978c.229 0 .229-.354 0-.354-.227 0-.227.354 0 .354zm-2.967 3.364c.229 0 .229-.354 0-.354-.227 0-.227.354 0 .354zm-2.57 1.78c.228 0 .228-.355 0-.355s-.23.355 0 .355zm-2.177 6.329c.23 0 .23-.354 0-.354-.227 0-.229.354 0 .354zm-.593 1.781c.23 0 .23-.354 0-.354-.229 0-.229.354 0 .354zm-1.186 3.561c.23 0 .23-.355 0-.355-.229 0-.229.355 0 .355zm-26.9 8.108c.229 0 .229-.354 0-.354-.23 0-.23.354 0 .354zm-.792-2.967c.23 0 .23-.355 0-.355-.229 0-.229.355 0 .355zm0-3.164c.23 0 .23-.354 0-.354-.229 0-.229.354 0 .354zm0-1.188c.23 0 .23-.355 0-.355-.229 0-.229.355 0 .355zm-.592-3.955c.228 0 .228-.355 0-.355-.23 0-.23.355 0 .355zm0-.593c.228 0 .228-.355 0-.355-.23 0-.23.355 0 .355zm-1.584-3.958c.23 0 .23-.354 0-.354-.229 0-.229.354 0 .354zM67.9 64.533c.229 0 .229-.354 0-.354-.23 0-.23.354 0 .354zm-.397-2.967c.229 0 .229-.355 0-.355-.227 0-.23.355 0 .355zm-.988-3.164c.23 0 .23-.354 0-.354s-.23.354 0 .354zm-.99-3.759c.23 0 .23-.354 0-.354-.229 0-.229.354 0 .354zm0-2.769c.23 0 .23-.354 0-.354-.229 0-.229.354 0 .354zm1.385 3.759c.229 0 .229-.354 0-.354-.23 0-.23.354 0 .354zm.791 3.561c.23 0 .23-.355 0-.355s-.23.355 0 .355zm.988 2.965c.229 0 .229-.355 0-.355-.227 0-.227.355 0 .355zm2.374 1.583c.23 0 .23-.355 0-.355-.227 0-.229.355 0 .355zm1.187-.395c.228 0 .228-.354 0-.354s-.228.354 0 .354zm-8.506-11.473c.229 0 .229-.354 0-.354-.227 0-.227.354 0 .354zm-3.164 0c.23 0 .23-.354 0-.354-.229 0-.229.354 0 .354zm-.99-2.176c.23 0 .23-.354 0-.354-.227 0-.227.354 0 .354zm-1.186 2.571c.23 0 .23-.355 0-.355-.229 0-.229.355 0 .355zm-1.186-2.372c.23 0 .23-.355 0-.355-.229 0-.229.355 0 .355zm-.595-1.385c.23 0 .23-.354 0-.354-.227 0-.227.354 0 .354zm-2.965.988c.229 0 .229-.355 0-.355-.23 0-.23.355 0 .355zm-.596-2.372c.23 0 .23-.355 0-.355-.226 0-.226.355 0 .355zm.198-1.188c.23 0 .23-.355 0-.355-.226 0-.226.355 0 .355zm-1.977 2.374c.23 0 .23-.355 0-.355-.229 0-.229.355 0 .355zm-.791-2.176c.229 0 .229-.355 0-.355-.227 0-.23.355 0 .355zm-.395-.792c.23 0 .23-.354 0-.354-.229 0-.229.355 0 .355zm-2.769-1.977c.23 0 .23-.354 0-.354-.229 0-.229.354 0 .354zm-.595-1.977c.23 0 .23-.355 0-.355-.227 0-.227.355 0 .355zm-.196-1.98c.23 0 .23-.355 0-.355s-.23.355 0 .355zm-1.583-1.187c.23 0 .23-.354 0-.354s-.23.354 0 .354z" fill="#000"/><path d="M44.954 38.225c.23 0 .23-.354 0-.354s-.23.354 0 .354zm1.186-1.779c.23 0 .23-.354 0-.354-.227 0-.227.354 0 .354zm-1.58-2.176c.229 0 .229-.354 0-.354-.23 0-.23.354 0 .354zm.789-1.781c.229 0 .229-.354 0-.354-.227 0-.227.354 0 .354zm0-.593c.229 0 .229-.354 0-.354-.227 0-.227.354 0 .354zM63.15 50.884c.23 0 .23-.354 0-.354-.226 0-.226.354 0 .354zm-5.339-2.57c.23 0 .23-.355 0-.355-.229 0-.229.355 0 .355zm-2.573-2.571c.23 0 .23-.354 0-.354-.227 0-.227.354 0 .354zm-3.163-2.573c.229 0 .229-.354 0-.354-.23 0-.23.355 0 .355zm1.583-.593c.229 0 .229-.354 0-.354-.23 0-.23.354 0 .354zm-3.759.792c.23 0 .23-.354 0-.354s-.23.354 0 .354zm-1.385-3.759c.23 0 .23-.354 0-.354-.229 0-.229.354 0 .354zm-1.977-3.955c.23 0 .23-.354 0-.354s-.23.354 0 .354zm-.397 6.528c.23 0 .23-.355 0-.355-.227 0-.227.355 0 .355zm-.988-1.583c.23 0 .23-.355 0-.355-.229 0-.229.355 0 .355zm14.637 13.053c.229 0 .229-.354 0-.354-.23 0-.23.354 0 .354zm2.197.615v.198c0 .092.08.182.177.177.097-.005.177-.078.177-.177v-.198c0-.093-.08-.182-.177-.178-.097.005-.177.078-.177.178zm1.956 3.737c.23 0 .23-.354 0-.354-.227 0-.229.354 0 .354zM67.9 59.39c.229 0 .229-.355 0-.355-.23 0-.23.355 0 .355zm2.173 2.769c.23 0 .23-.355 0-.355-.227 0-.227.355 0 .355zm3.957 1.188c.23 0 .23-.354 0-.354-.229 0-.229.354 0 .354zm5.935 4.153c.23 0 .23-.354 0-.354-.229 0-.229.355 0 .355zm1.581-2.768c.23 0 .23-.355 0-.355-.227 0-.227.355 0 .355zm.593-.99c.23 0 .23-.355 0-.355-.227 0-.227.355 0 .355zm-2.965 1.384c.23 0 .23-.354 0-.354s-.23.354 0 .354zm-2.374-.987c.229 0 .229-.355 0-.355-.23 0-.23.355 0 .355zm4.351-1.583c.23 0 .23-.355 0-.355-.229 0-.229.355 0 .355zm3.561-.594c.229 0 .229-.354 0-.354-.23 0-.23.355 0 .355zm3.955-1.582c.229 0 .229-.355 0-.355-.227 0-.227.355 0 .355zm.397-2.968c.229 0 .229-.354 0-.354-.23 0-.23.354 0 .354zM69.679 17.654c.229 0 .229-.354 0-.354-.227 0-.23.354 0 .354zm.198-1.977c.23 0 .23-.354 0-.354s-.23.354 0 .354zm-.791-1.977c.229 0 .229-.355 0-.355-.23 0-.23.354 0 .354zm-1.978-2.77c.23 0 .23-.354 0-.354-.229 0-.229.354 0 .354zM65.92 9.15c.229 0 .229-.355 0-.355-.227 0-.227.354 0 .354zm-2.77-1.584c.23 0 .23-.354 0-.354-.226 0-.226.354 0 .354zM59.59 6.38c.23 0 .23-.354 0-.354-.227 0-.227.354 0 .354zm-1.58 1.977c.229 0 .229-.354 0-.354-.23 0-.23.354 0 .354zm1.384 6.133c.23 0 .23-.354 0-.354-.229 0-.229.355 0 .355zm3.164 4.747c.229 0 .229-.354 0-.354-.227 0-.23.354 0 .354zm1.186 1.779c.229 0 .229-.354 0-.354-.227 0-.227.354 0 .354zm4.55-7.12c.23 0 .23-.355 0-.355-.229 0-.229.354 0 .354zm-2.374-2.77c.229 0 .229-.354 0-.354-.227 0-.227.354 0 .354zm-2.77-1.778c.23 0 .23-.355 0-.355-.226 0-.226.355 0 .355zm-1.384-.398c.23 0 .23-.354 0-.354-.227 0-.227.354 0 .354zm0 2.375c.23 0 .23-.354 0-.354-.227 0-.227.354 0 .354zm-1.779-2.571c.23 0 .23-.354 0-.354-.229 0-.229.354 0 .354zm-.593 2.77c.23 0 .23-.355 0-.355-.229 0-.229.354 0 .354zm.395 1.821h-.199c-.092 0-.182.08-.177.177.005.097.078.177.177.177h.199c.092 0 .182-.08.177-.177-.005-.097-.078-.177-.177-.177zm-1.779-.437c.229 0 .229-.355 0-.355-.23 0-.23.355 0 .355zm4.746 6.922c.23 0 .23-.354 0-.354-.229 0-.229.354 0 .354zm.792-3.955c.229 0 .229-.354 0-.354-.23 0-.23.354 0 .354zm1.384-.198h.199c.092 0 .181-.08.177-.177-.005-.097-.078-.178-.177-.178h-.199c-.092 0-.182.08-.177.178.005.097.078.177.177.177zm1.186 1.583c.23 0 .23-.355 0-.355-.227 0-.229.355 0 .355zm0 3.163c.23 0 .23-.354 0-.354-.227 0-.229.354 0 .354zm.199 2.769c.229 0 .229-.354 0-.354-.23 0-.23.354 0 .354zm-.593-4.153c.229 0 .229-.355 0-.355-.23 0-.23.355 0 .355zm-.99-2.571c.229 0 .229-.354 0-.354-.227 0-.23.354 0 .354zm0 .395c.229 0 .229-.354 0-.354-.227 0-.23.354 0 .354zm1.583-.791c.229 0 .229-.355 0-.355-.23 0-.23.354 0 .354zm-.397-2.176c.229 0 .229-.355 0-.355-.227 0-.227.354 0 .354zm-.792-5.735c.23 0 .23-.354 0-.354-.227 0-.227.354 0 .354zm-2.372-2.572c.23 0 .23-.355 0-.355-.229 0-.229.355 0 .355zm-3.362-.199c.23 0 .23-.354 0-.354-.229 0-.229.354 0 .354zm2.174 2.573c.229 0 .229-.354 0-.354-.227 0-.227.354 0 .354zm3.364 3.561c.23 0 .23-.355 0-.355-.229 0-.229.354 0 .354zm-5.538-3.167c.23 0 .23-.354 0-.354-.229 0-.229.354 0 .354zm-.397-.592c.23 0 .23-.355 0-.355-.227 0-.229.355 0 .355zm-1.384 2.374c.229 0 .229-.354 0-.354-.227 0-.23.354 0 .354zm-.395-1.385c.23 0 .23-.354 0-.354-.229 0-.229.354 0 .354zm.196 3.561c.23 0 .23-.355 0-.355-.226 0-.226.355 0 .355zm2.176 3.163c.23 0 .23-.354 0-.354-.227 0-.227.354 0 .354zm.99-1.977c.23 0 .23-.354 0-.354-.229 0-.229.354 0 .354zm-.397-1.977c.23 0 .23-.355 0-.355-.227 0-.227.354 0 .354zm2.772.986c.229 0 .229-.353 0-.353-.23 0-.23.354 0 .354zm2.372.2h.198c.092 0 .182-.081.177-.178a.18.18 0 00-.177-.177h-.198c-.092 0-.182.08-.177.177a.18.18 0 00.177.177zm1.977 1.582c.23 0 .23-.354 0-.354-.227 0-.227.354 0 .354zm2.573.395c.23 0 .23-.354 0-.354s-.23.354 0 .354zm-1.781-3.362c.229 0 .229-.354 0-.354-.227 0-.227.354 0 .354zm-1.779-3.164c.229 0 .229-.354 0-.354-.23 0-.23.354 0 .354zM64.14 12.51c.23 0 .23-.353 0-.353-.229 0-.229.354 0 .354zm-1.185 1.584c.229 0 .229-.354 0-.354-.23 0-.23.354 0 .354zm-.792-.593c.23 0 .23-.354 0-.354-.229 0-.229.354 0 .354zm1.977-.199c.23 0 .23-.354 0-.354-.229 0-.229.354 0 .354zm-.79-1.778c.228 0 .228-.355 0-.355-.23 0-.23.354 0 .354zm-2.571-1.938h-.199c-.092 0-.182.08-.177.177.005.097.078.177.177.177h.199c.092 0 .182-.08.177-.177-.005-.097-.078-.177-.177-.177zm.394 3.322c.23 0 .23-.355 0-.355-.227 0-.229.355 0 .355zm.199 3.362c.229 0 .229-.354 0-.354-.23 0-.23.354 0 .354zm.791.791c.23 0 .23-.354 0-.354-.229 0-.229.354 0 .354zm1.977 3.362c.23 0 .23-.354 0-.354-.229 0-.229.354 0 .354zm.988 2.769c.23 0 .23-.354 0-.354-.227 0-.227.354 0 .354zm-.394 2.176c.229 0 .229-.354 0-.354-.227 0-.23.354 0 .354zm.394-.394c.23 0 .23-.355 0-.355-.227 0-.227.355 0 .355zm.596-2.769c.229 0 .229-.355 0-.355-.23 0-.23.355 0 .355zm-.99-2.176c.229 0 .229-.355 0-.355-.227 0-.23.355 0 .355zM56.427 9.15c.229 0 .229-.355 0-.355-.23 0-.23.354 0 .354zm.394-2.177c.23 0 .23-.354 0-.354-.227 0-.227.354 0 .354zm.792-1.583c.229 0 .229-.354 0-.354-.227 0-.23.354 0 .354zm2.57-.789c.23 0 .23-.354 0-.354-.227 0-.227.354 0 .354zm4.352 1.779c.23 0 .23-.354 0-.354-.227 0-.227.354 0 .354zm2.573 2.176c.23 0 .23-.354 0-.354-.229 0-.229.354 0 .354zm1.581 3.166c.229 0 .229-.354 0-.354-.227 0-.227.354 0 .354zm2.572 5.538c.23 0 .23-.355 0-.355-.229 0-.229.355 0 .355zm-1.767 6.209a2.223 2.223 0 011.803-1.557c.225-.036.13-.378-.094-.343a2.577 2.577 0 00-2.051 1.805c-.066.22.276.314.342.095zm-.484-.924a8.137 8.137 0 011.935-1.375c.203-.104.024-.409-.18-.307a8.402 8.402 0 00-2.005 1.43c-.166.16.085.41.25.252zm-.626-1.354l1.781-.99c.199-.11.022-.416-.18-.307l-1.78.99c-.2.113-.022.418.179.307zm1.295-.175c.229 0 .229-.354 0-.354-.227 0-.23.354 0 .354z" fill="#000"/><path d="M69.679 21.016c.229 0 .229-.354 0-.354-.227 0-.23.354 0 .354zm1.582 1.782c.23 0 .23-.355 0-.355-.229 0-.229.355 0 .355z" fill="#000"/><path d="M71.261 22.798c.23 0 .23-.355 0-.355-.229 0-.229.355 0 .355zm-.791 0c.23 0 .23-.355 0-.355-.229 0-.229.355 0 .355zm-1.186-1.186c.23 0 .23-.355 0-.355s-.23.355 0 .355z" fill="#000"/><path d="M69.086 21.612c.229 0 .229-.355 0-.355-.23 0-.23.355 0 .355zm-.792 0c.23 0 .23-.355 0-.355-.229 0-.229.355 0 .355z" fill="#000"/><path d="M68.294 21.413c.23 0 .23-.354 0-.354-.229 0-.229.354 0 .354zm1.978 1.779c.229 0 .229-.354 0-.354-.227 0-.227.354 0 .354zm0-.987c.229 0 .229-.355 0-.355-.227 0-.227.355 0 .355zm1.384 0c.23 0 .23-.355 0-.355-.227 0-.227.355 0 .355zm-2.176-2.968c.23 0 .23-.354 0-.354-.227 0-.227.354 0 .354zm.792 1.385c.229 0 .229-.355 0-.355-.227 0-.227.355 0 .355zm-.199-1.186c.23 0 .23-.355 0-.355-.227 0-.227.355 0 .355zM94.602 36.05c.229 0 .229-.355 0-.355-.23 0-.23.355 0 .355zm1.978.396c.228 0 .228-.354 0-.354s-.23.354 0 .354zm2.57-2.768c.229 0 .229-.355 0-.355-.227 0-.227.355 0 .355zm-1.186 1.779c.229 0 .229-.355 0-.355-.227 0-.23.355 0 .355zM94.8 37.83c.23 0 .23-.353 0-.353-.229 0-.229.354 0 .354zm-.791 2.373c.229 0 .229-.354 0-.354-.23 0-.23.354 0 .354zm-2.375 3.364c.23 0 .23-.354 0-.354-.227 0-.229.354 0 .354zm-25.119.197c.23 0 .23-.355 0-.355s-.23.355 0 .355zm-3.365-.395c.23 0 .23-.354 0-.354-.226 0-.226.354 0 .354zm-3.756-1.186c.23 0 .23-.355 0-.355-.229 0-.229.355 0 .355zm-2.967-2.968c.229 0 .229-.354 0-.354-.23 0-.23.355 0 .355zm10.681 6.725c.23 0 .23-.355 0-.355-.229 0-.229.355 0 .355zm2.571 2.218h-.199c-.092 0-.182.08-.177.177.005.097.078.177.177.177h.199c.092 0 .181-.08.177-.177-.005-.097-.078-.177-.177-.177zm-12.461-5.975c.23 0 .23-.355 0-.355-.229 0-.229.355 0 .355zm34.022-3.365c.229 0 .229-.354 0-.354-.23 0-.23.354 0 .354zm-1.98 2.77c.229 0 .229-.355 0-.355-.227 0-.227.355 0 .355zm-2.57 2.768c.229 0 .229-.354 0-.354-.227 0-.23.354 0 .354zm-3.76 2.772c.23 0 .23-.355 0-.355-.226 0-.226.355 0 .355zm-3.955 1.58c.23 0 .23-.354 0-.354-.229 0-.229.354 0 .354zm-4.945-1.384c.23 0 .23-.355 0-.355-.229 0-.229.355 0 .355zm-3.758-2.769c.229 0 .229-.355 0-.355-.227 0-.227.355 0 .355zM67.9 39.412c.229 0 .229-.355 0-.355-.23 0-.23.355 0 .355zm-.397-5.142c.229 0 .229-.354 0-.354-.227 0-.23.354 0 .354zm.198-3.364c.23 0 .23-.354 0-.354s-.23.354 0 .354zm5.143-2.173c.23 0 .23-.355 0-.355-.229 0-.229.355 0 .355zm8.506 19.581c.229 0 .229-.355 0-.355-.23 0-.23.355 0 .355zm-4.156-1.186c.23 0 .23-.355 0-.355-.227 0-.227.355 0 .355zm-2.965-1.583c.23 0 .23-.355 0-.355s-.23.355 0 .355zm-3.364-3.166c.229 0 .229-.354 0-.354-.227 0-.227.354 0 .354zm-1.581-3.756c.23 0 .23-.355 0-.355s-.23.355 0 .355zm3.955 1.186c.23 0 .23-.355 0-.355s-.23.355 0 .355zm2.968 8.899c.229 0 .229-.354 0-.354-.23 0-.23.354 0 .354zm-4.551-2.768c.23 0 .23-.355 0-.355-.227 0-.227.355 0 .355zm-2.967-4.548c.229 0 .229-.355 0-.355-.227 0-.227.355 0 .355zm23.538-6.134c.23 0 .23-.354 0-.354-.227 0-.227.354 0 .354zm-22.57.812v-.198c0-.092-.08-.182-.177-.177-.097.005-.177.078-.177.177v.199c0 .092.08.182.177.177.097-.005.177-.078.177-.177zm.615 2.155c.229 0 .229-.354 0-.354-.227 0-.227.354 0 .354zm-.593-11.274c.229 0 .229-.354 0-.354-.227 0-.23.354 0 .354zm3.361-3.361c.23 0 .23-.355 0-.355-.226 0-.226.354 0 .354zm10.88-.398c.23 0 .23-.354 0-.354-.229 0-.229.354 0 .354zm5.935 4.749c.23 0 .23-.354 0-.354-.229 0-.229.354 0 .354zm-14.639-2.769c.23 0 .23-.354 0-.354-.226 0-.226.354 0 .354zm-5.143 4.945c.23 0 .23-.354 0-.354-.227 0-.227.354 0 .354zm3.166 9.295c.23 0 .23-.355 0-.355s-.23.355 0 .355zm-2.946.219v.395c0 .229.354.229.354 0v-.395c0-.229-.354-.229-.354 0zm-3.185-2.989c.23 0 .23-.354 0-.354-.229 0-.229.355 0 .355zm5.142 6.727c.228 0 .228-.354 0-.354s-.228.354 0 .354zm1.582-1.977c.23 0 .23-.355 0-.355-.227 0-.23.355 0 .355zm11.473 5.338c.23 0 .23-.353 0-.353s-.23.354 0 .354zm-5.538.398c.23 0 .23-.355 0-.355s-.23.355 0 .355zm-3.957-2.375c.229 0 .229-.354 0-.354-.227 0-.227.354 0 .354zm-5.737-11.274c.23 0 .23-.354 0-.354-.227 0-.227.354 0 .354zm1.583-7.319c.23 0 .23-.355 0-.355-.227 0-.227.355 0 .355zm4.154-3.164c.229 0 .229-.354 0-.354-.227 0-.227.354 0 .354zm3.56-.596c.23 0 .23-.353 0-.353-.227 0-.227.354 0 .354zM4.206 45.148c.23 0 .23-.355 0-.355-.227 0-.227.355 0 .355zm2.374-.792c.23 0 .23-.354 0-.354-.226 0-.229.354 0 .354zm1.187-.789c.229 0 .229-.354 0-.354-.227 0-.227.354 0 .354zm3.759-1.979c.229 0 .229-.355 0-.355-.227 0-.23.355 0 .355zm.791-.196c.23 0 .23-.355 0-.355s-.23.355 0 .355zm5.935-.594c.23 0 .23-.354 0-.354s-.23.354 0 .354zM16.47 40.6c.23 0 .23-.355 0-.355-.226 0-.229.355 0 .355zm5.144 0c.229 0 .229-.355 0-.355-.23 0-.23.355 0 .355z" fill="#000"/><path d="M21.415 40.798c.23 0 .23-.354 0-.354-.226 0-.229.354 0 .354zm.593 1.978c.23 0 .23-.355 0-.355-.226 0-.226.355 0 .355zm-4.351-.199c.229 0 .229-.354 0-.354-.227 0-.227.354 0 .354zm-3.559 0c.23 0 .23-.354 0-.354-.229 0-.229.354 0 .354zm-4.155 1.385c.229 0 .229-.355 0-.355-.227 0-.227.355 0 .355zM7.57 45.545c.23 0 .23-.355 0-.355-.229 0-.229.355 0 .355zm7.121-6.33c.23 0 .23-.354 0-.354-.229 0-.229.355 0 .355zm2.571-.198c.23 0 .23-.354 0-.354-.227 0-.23.354 0 .354zm2.768.593c.23 0 .23-.354 0-.354-.226 0-.228.354 0 .354zm3.167-.987c.229 0 .229-.355 0-.355-.23 0-.23.355 0 .355zm0-3.365c.229 0 .229-.354 0-.354-.23 0-.23.354 0 .354zm.196 8.902c.23 0 .23-.354 0-.354-.227 0-.227.354 0 .354zm-12.132 2.077c.066-.132.135-.262.2-.394.105-.204-.202-.383-.306-.18-.066.132-.135.262-.201.395-.102.203.203.382.307.18zm6.396-1.682c.229 0 .229-.355 0-.355-.227 0-.227.355 0 .355zm2.771.198c.229 0 .229-.354 0-.354-.23 0-.23.354 0 .354zm-6.727-.593h.199c.092 0 .182-.08.177-.177-.005-.097-.078-.177-.177-.177h-.199c-.092 0-.181.08-.177.177a.182.182 0 00.178.177zm6.727-.791c.229 0 .229-.354 0-.354-.23 0-.23.354 0 .354zm.394-4.746c.23 0 .23-.355 0-.355-.229 0-.229.355 0 .355zm1.779-3.365c.23 0 .23-.354 0-.354-.226 0-.226.354 0 .354zm.574-3.341v-.198c0-.092-.08-.182-.177-.177a.18.18 0 00-.177.177v.198c0 .092.08.182.177.177a.18.18 0 00.177-.177zm-.177-.415c.23 0 .23-.355 0-.355-.229 0-.229.355 0 .355zm-3.955 5.339c.23 0 .23-.354 0-.354-.229 0-.229.354 0 .354zm-2.176 1.977c.23 0 .23-.354 0-.354-.229 0-.229.354 0 .354zm1.706 51.522l-.198-.199c-.066-.066-.187-.07-.25 0-.064.071-.072.18 0 .25l.198.2c.066.065.186.07.25 0a.178.178 0 000-.251zm1.657-2.467c.229 0 .229-.354 0-.354-.23 0-.23.354 0 .354zm2.102-1.885l-.198-.199c-.067-.066-.187-.07-.25 0-.065.071-.072.18 0 .25l.198.2c.066.066.186.07.25 0a.178.178 0 000-.251zm2.842-3.258c.23 0 .23-.355 0-.355-.229 0-.229.355 0 .355zm1.779-1.978c.23 0 .23-.354 0-.354-.226 0-.226.354 0 .354zm.99-.987c.23 0 .23-.355 0-.355-.229 0-.229.355 0 .355zm.99-1.387c.23 0 .23-.354 0-.354-.229 0-.229.354 0 .354zm.789-.789c.23 0 .23-.355 0-.355-.227 0-.227.355 0 .355zm.596-.397c.229 0 .229-.354 0-.354-.23 0-.23.354 0 .354zm.394-1.384c.23 0 .23-.355 0-.355-.227 0-.229.355 0 .355zm-9.89 14.636c.23 0 .23-.355 0-.355-.229 0-.229.355 0 .355zm2.968-3.757c.229 0 .229-.354 0-.354-.23 0-.23.354 0 .354zm1.583-1.977c.229 0 .229-.355 0-.355-.23 0-.23.355 0 .355zm2.57-2.573c.23 0 .23-.355 0-.355-.229 0-.229.355 0 .355zm1.952-2.107l.198-.594c.073-.217-.27-.31-.342-.094l-.199.593c-.07.217.27.31.343.094zm.619-1.255c.229 0 .229-.355 0-.355-.227 0-.227.355 0 .355zm-9.692 6.724c.23 0 .23-.355 0-.355-.229 0-.229.355 0 .355zm2.968-3.362c.229 0 .229-.355 0-.355-.23 0-.23.355 0 .355zm1.186-1.385c.229 0 .229-.354 0-.354-.227 0-.23.354 0 .354zm1.977-2.769c.23 0 .23-.354 0-.354-.226 0-.226.354 0 .354zm1.385-1.384c.229 0 .229-.355 0-.355-.227 0-.227.355 0 .355zm1.384-1.583c.23 0 .23-.355 0-.355-.227 0-.227.355 0 .355zm-.196-1.779c.23 0 .23-.354 0-.354-.229 0-.229.354 0 .354zm-.593 1.384c.23 0 .23-.354 0-.354-.229 0-.229.354 0 .354zm-2.771 2.968c.229 0 .229-.355 0-.355-.227 0-.227.355 0 .355zm1.583-2.772c.229 0 .229-.354 0-.354-.227 0-.227.354 0 .354zm.198-1.977c.23 0 .23-.355 0-.355-.229 0-.229.355 0 .355zm-.394-2.176c.229 0 .229-.354 0-.354-.23 0-.23.354 0 .354zm-1.387-1.186c.229 0 .229-.354 0-.354-.227 0-.227.354 0 .354zm.397 2.769c.229 0 .229-.354 0-.354-.23 0-.23.354 0 .354zm-.99 4.746c.23 0 .23-.354 0-.354-.227 0-.227.354 0 .354zm-2.176 3.561c.23 0 .23-.355 0-.355-.227 0-.227.355 0 .355zm-1.385 1.98c.23 0 .23-.355 0-.355-.226 0-.226.355 0 .355zm-.988 1.384c.23 0 .23-.354 0-.354-.228 0-.228.354 0 .354zm2.968-.595c.23 0 .23-.355 0-.355-.229 0-.229.355 0 .355zm-4.748 4.352c.229 0 .229-.355 0-.355-.227 0-.227.355 0 .355zm-1.78 2.573c.23 0 .23-.355 0-.355-.229 0-.229.355 0 .355zm106.02-72.395c.229 0 .229-.355 0-.355-.227 0-.229.355 0 .355zm-.593-1.186c.229 0 .229-.355 0-.355s-.229.355 0 .355zm-1.583-1.98c.229 0 .229-.354 0-.354-.227 0-.229.354 0 .354zm-1.779-2.177c.229 0 .229-.353 0-.353s-.229.354 0 .354zm-.792-1.185c.229 0 .229-.354 0-.354s-.229.354 0 .354z" fill="#000"/><path d="M118.733 11.325c.229 0 .229-.354 0-.354s-.229.354 0 .354zm3.757 7.319c.229 0 .229-.354 0-.354-.227 0-.227.354 0 .354zm-1.581-1.583c.229 0 .229-.354 0-.354s-.229.354 0 .354zm-1.583-1.779c.23 0 .23-.354 0-.354-.229 0-.229.354 0 .354zm.99.395c.229 0 .229-.354 0-.354s-.229.354 0 .354zm1.779 3.955c.23 0 .23-.355 0-.355-.226 0-.229.355 0 .355zm-2.176-1.779c.23 0 .23-.355 0-.355-.226 0-.229.355 0 .355zm-.791-.792c.229 0 .229-.354 0-.354-.227 0-.227.354 0 .354z" fill="#000"/><path d="M119.128 16.863c.229 0 .229-.354 0-.354-.227 0-.227.354 0 .354zm2.374 4.153c.23 0 .23-.354 0-.354-.229 0-.229.354 0 .354zm.593 1.384c.23 0 .23-.353 0-.353-.226 0-.229.354 0 .354zm-1.384-2.173c.229 0 .229-.354 0-.354s-.229.354 0 .354zm-.792-3.166c.23 0 .23-.354 0-.354-.226 0-.229.354 0 .354zm-.791-3.165c.229 0 .229-.355 0-.355-.227 0-.227.354 0 .354z" fill="#000"/><path d="M119.128 13.896c.229 0 .229-.355 0-.355-.227 0-.227.354 0 .354zm-2.176-2.174c.229 0 .229-.354 0-.354-.227 0-.227.354 0 .354zm.593-.99c.229 0 .229-.354 0-.354-.227 0-.227.354 0 .354zm-.196-.792c.229 0 .229-.354 0-.354s-.229.354 0 .354zm5.339 5.538c.229 0 .229-.354 0-.354-.226 0-.226.354 0 .354zm1.189.99c.229 0 .229-.354 0-.354s-.229.354 0 .354zm.789-.198h.593c.229 0 .229-.354 0-.354h-.593c-.227 0-.227.354 0 .354zm1.384-.198c.229 0 .229-.355 0-.355-.227 0-.227.354 0 .354zm-9.691-6.922c.229 0 .229-.355 0-.355-.227 0-.229.354 0 .354zm.073-1.832l.199.198c.066.066.186.071.25 0 .064-.07.071-.18 0-.25l-.198-.199c-.067-.066-.187-.07-.251 0a.178.178 0 000 .25zm2.103 2.03c.229 0 .229-.355 0-.355-.227 0-.229.355 0 .355zm2.57 2.967c.23 0 .23-.355 0-.355-.226 0-.226.355 0 .355zm-1.58-.199c.229 0 .229-.354 0-.354s-.229.354 0 .354zm1.186 2.176c.229 0 .229-.354 0-.354s-.229.354 0 .354zm-2.968.395c.23 0 .23-.354 0-.354-.226 0-.226.354 0 .354zm-.394-2.177c.229 0 .229-.353 0-.353s-.229.354 0 .354zm15.822 1.584c.229 0 .229-.354 0-.354-.227 0-.227.354 0 .354zm-.019-3.341v-.791c0-.23-.354-.23-.354 0v.791c0 .227.354.227.354 0zm-.375-1.603c.229 0 .229-.355 0-.355-.23 0-.23.354 0 .354zm-1.186-3.165c.229 0 .229-.354 0-.354-.23 0-.23.354 0 .354z" fill="#000"/><path d="M131.591 5.985c.229 0 .229-.354 0-.354-.23 0-.23.354 0 .354zm2.176 7.121c.229 0 .229-.354 0-.354-.23 0-.23.354 0 .354zm1.384.395c.229 0 .229-.354 0-.354s-.229.354 0 .354zm.593.989c.229 0 .229-.354 0-.354s-.229.355 0 .355zm-2.176-4.351c.229 0 .229-.354 0-.354s-.229.354 0 .354zm-.198-.397c.229 0 .229-.354 0-.354-.227 0-.23.354 0 .354zm-.792 0c.229 0 .229-.354 0-.354-.227 0-.227.354 0 .354zm0-3.955c.229 0 .229-.354 0-.354-.227 0-.227.354 0 .354zm-.791 7.515c.229 0 .229-.354 0-.354-.227 0-.227.354 0 .354zm-2.372 1.583c.229 0 .229-.354 0-.354-.23 0-.23.354 0 .354zm-1.385.397c.229 0 .229-.354 0-.354s-.229.354 0 .354zm.593-2.374c.229 0 .229-.355 0-.355s-.229.355 0 .355zm-.045-2.443c-.132-.198-.264-.395-.394-.593-.125-.19-.433-.012-.307.18.132.198.264.394.394.593.128.189.435.011.307-.18zm-.945-1.315c.229 0 .229-.355 0-.355-.227 0-.227.354 0 .354zm3.958 3.36c.229 0 .229-.353 0-.353-.23 0-.23.354 0 .354zm1.384-5.338c.229 0 .229-.355 0-.355s-.229.355 0 .355zm-1.781 1.185c.229 0 .229-.354 0-.354-.227 0-.227.354 0 .354zm1.977 2.573c.229 0 .229-.354 0-.354-.227 0-.227.354 0 .354zm1.385 1.58c.229 0 .229-.353 0-.353-.227 0-.227.354 0 .354zm.595 1.782c.229 0 .229-.354 0-.354s-.229.354 0 .354zm-.198 2.375c.229 0 .229-.355 0-.355-.23 0-.23.355 0 .355zm3.56 45.889c.229 0 .229-.355 0-.355s-.229.355 0 .355z" fill="#000"/><path d="M138.513 62.556c.229 0 .229-.355 0-.355s-.229.355 0 .355zm2.769-2.77c.229 0 .229-.354 0-.354s-.229.354 0 .354zm2.301-1.24l.395-.394c.16-.16-.09-.411-.251-.25l-.394.394c-.161.163.089.413.25.25zm1.061-.739c.229 0 .229-.355 0-.355-.227 0-.227.355 0 .355zm-5.143 5.143c.229 0 .229-.354 0-.354-.227 0-.227.354 0 .354zm2.967-1.977c.229 0 .229-.355 0-.355-.227 0-.227.355 0 .355zm2.967-.395c.23 0 .23-.354 0-.354-.226 0-.229.354 0 .354zm-4.351 2.965c.229 0 .229-.354 0-.354-.227 0-.227.354 0 .354zm2.572-1.581c.23 0 .23-.354 0-.354-.229 0-.229.355 0 .355z" fill="#000"/><path d="M143.656 61.962c.23 0 .23-.354 0-.354-.229 0-.229.355 0 .355zm-7.716-1.344h-.198c-.092 0-.182.08-.178.177.005.097.078.178.178.178h.198c.092 0 .182-.08.177-.178a.176.176 0 00-.177-.177zm2.176-1.623c.229 0 .229-.354 0-.354-.227 0-.227.354 0 .354zm.99-.791c.229 0 .229-.355 0-.355-.227 0-.229.355 0 .355zm3.166-1.978c.229 0 .229-.354 0-.354s-.229.354 0 .354zm1.384 7.121c.23 0 .23-.354 0-.354-.229 0-.229.354 0 .354zm2.644 1.727l.395.395c.16.16.411-.09.25-.25l-.394-.395c-.163-.161-.414.09-.251.25zm1.311 1.238c.23 0 .23-.354 0-.354-.229 0-.229.354 0 .354zm2.375 4.156c.229 0 .229-.355 0-.355s-.229.355 0 .355zm1.384 0c.23 0 .23-.355 0-.355-.229 0-.229.355 0 .355zm.792 2.965c.229 0 .229-.354 0-.354s-.229.354 0 .354zm-1.189-2.57c.23 0 .23-.355 0-.355-.226 0-.226.355 0 .355zm-3.56-2.968c.229 0 .229-.354 0-.354-.227 0-.227.354 0 .354zm.99 2.769c.229 0 .229-.354 0-.354s-.229.354 0 .354zm1.186.397c.229 0 .229-.354 0-.354-.227 0-.227.354 0 .354zm1.977 3.362c.23 0 .23-.355 0-.355-.226 0-.226.355 0 .355zm1.189 3.56c.229 0 .229-.354 0-.354s-.229.354 0 .354zm-5.935-15.387h-.198c-.093 0-.182.08-.178.177.005.097.078.177.178.177h.198c.092 0 .182-.08.177-.177-.005-.095-.078-.177-.177-.177zm-1.583 1.543c.229 0 .229-.355 0-.355-.227 0-.227.355 0 .355zm0 1.186c.229 0 .229-.355 0-.355-.227 0-.227.355 0 .355zm3.56-.199c.23 0 .23-.354 0-.354-.226 0-.226.354 0 .354zm.792 1.782c.229 0 .229-.355 0-.355-.227 0-.227.355 0 .355zm.397 1.186c.229 0 .229-.355 0-.355s-.229.355 0 .355zm-.99 1.384c.229 0 .229-.354 0-.354-.227 0-.229.354 0 .354zm2.176 1.782c.229 0 .229-.355 0-.355s-.229.355 0 .355zm1.602 2.787v.792c0 .229.354.229.354 0v-.792c0-.227-.354-.227-.354 0zm.375 1.959c.23 0 .23-.355 0-.355-.226 0-.226.355 0 .355zm-4.746-6.922c.229 0 .229-.355 0-.355s-.229.355 0 .355zm-8.631-13.952l-.198.199c-.066.066-.071.186 0 .25s.179.071.25 0l.199-.198c.066-.066.071-.187 0-.25a.18.18 0 00-.251 0zm-1.259.104c.229 0 .229-.354 0-.354s-.229.354 0 .354zm-1.781 1.186c.229 0 .229-.354 0-.354-.227 0-.227.354 0 .354zm4.352 2.375c.229 0 .229-.355 0-.355-.227 0-.227.355 0 .355zm0-4.945c.229 0 .229-.354 0-.354-.227 0-.227.354 0 .354zm1.977-1.583c.229 0 .229-.355 0-.355-.227 0-.227.355 0 .355zm-8.108 4.945c.229 0 .229-.355 0-.355-.23 0-.23.355 0 .355zm-1.782 2.176c.229 0 .229-.355 0-.355-.227 0-.227.355 0 .355zm21.363 15.825c.229 0 .229-.355 0-.355-.227 0-.227.355 0 .355zm.198-1.187c.229 0 .229-.354 0-.354s-.229.354 0 .354z" fill="#000"/><path d="M148.403 69.084c.229 0 .229-.355 0-.355s-.229.355 0 .355zm-3.561-5.144c.23 0 .23-.354 0-.354-.229 0-.229.354 0 .354zm-5.143-4.154c.229 0 .229-.354 0-.354-.227 0-.227.354 0 .354zm-3.759-.989c.229 0 .229-.355 0-.355-.227 0-.227.355 0 .355zm4.352-1.977c.229 0 .229-.355 0-.355-.227 0-.227.354 0 .354zm-6.131 2.966c.229 0 .229-.354 0-.354s-.229.354 0 .354zm4.945.988c.229 0 .229-.354 0-.354-.227 0-.229.354 0 .354zm-1.583-3.164c.229 0 .229-.354 0-.354-.227 0-.227.355 0 .355zm9.495 2.77c.23 0 .23-.355 0-.355-.229 0-.229.355 0 .355zm1.583 1.977c.229 0 .229-.354 0-.354s-.229.354 0 .354zm1.978 4.747c.229 0 .229-.355 0-.355s-.229.355 0 .355zm2.176 4.748c.229 0 .229-.354 0-.354s-.229.354 0 .354zm1.779 2.571c.229 0 .229-.355 0-.355-.227 0-.227.355 0 .355zm-7.317-6.131c.229 0 .229-.355 0-.355s-.229.355 0 .355zm-2.772-3.56c.23 0 .23-.355 0-.355-.226 0-.226.355 0 .355zm-61.373-33.79a1.536 1.536 0 100-3.072 1.536 1.536 0 000 3.072zm-5.878 2.128a1.536 1.536 0 100-3.071 1.536 1.536 0 000 3.071zm5.044 7.175c.848 0 1.536-1.327 1.536-2.964 0-1.638-.688-2.966-1.536-2.966-.848 0-1.535 1.328-1.535 2.966 0 1.637.687 2.965 1.535 2.965z" fill="#000"/></svg>