<svg width="151" height="182" fill="none" xmlns="http://www.w3.org/2000/svg"><path d="M107.886 106.16l.136-1.437.417.359 1.077 1.913 1.726 2.176 1.504 1.249 2.764 1.759 4.06 1.598 3.665 1.052.52-1.567s-.527-3.171-.701-4.181c-.174-1.01-.991-3.975-1.343-5.087-.353-1.111-1.272-3.27-2.07-4.463-.798-1.193-1.884-2.617-2.952-3.544a15.36 15.36 0 00-3.76-2.416c-1.433-.645-3.268-1.19-3.268-1.19s.558-.999.278-1.778c-.281-.78-2.69-5.264-2.69-5.264l-2.692-4.432-7.538-11.624-4.641-6.27-4.135-5.16s3.787-3.84 4.712-6.051c.926-2.215 1.393-2.979 1.393-2.979s.541-1.826.156-3.642c-.387-1.814-1.43-3.525-2.65-4.638-1.22-1.112-4.371-3.039-6.788-3.984-2.417-.945-9.195-2.237-9.195-2.237l-3.42-.583.712-1.386.059-4.405s-.096-2.384-.762-3.535c-.663-1.15-1.47-2.752-3.031-3.48-1.558-.727-3.48-.71-5.641-.23-2.161.482-4.73 1.267-5.925 1.934-1.194.668-2.135 1.372-2.135 1.372s-3.242-3.677-7.578-4.895c-4.335-1.218-9.255-.328-9.255-.328l-3.48 1.199-1.953.827s-4.116 2.226-5.992 5.53c-1.877 3.305-2.36 5.684-2.36 5.684s-.71 2.15-.283 6.736c.427 4.585 1.671 6.117 1.671 6.117l-2.481 2.303-3.211 3.534-2.612 3.429-1.948 2.655s-.497 1.427-.026 2.086c.47.658 2.135 2.398 2.135 2.398l2.985 2.208 3.734 2.465 1.826 1.95s-1.046 2.936-1.698 7.88c-.651 4.942 1.447 9.97 1.447 9.97s2.322 4.77 5.82 6.33c3.498 1.56 6.766 2.235 8.386 1.757 1.62-.477 3.832-.692 3.832-.692l1.061.936 4.49 5.254 3.433 4.612 3.95 5.931 4.603 7.901 2.263 3.366 1.147 1.1.569-.334.557 1.57s-.558 2.777 1.407 8.495c1.965 5.719 5.748 9.048 5.748 9.048s2.416 2.299 3.704 3.217c1.29.92 1.653 1.001 1.653 1.001s.922-1.091 1.402-2.069c.48-.979 1.644-4.212 1.877-6.955.236-2.744-.12-5.204-.12-5.204l-.604-2.922-.698-2.243s2.486-.004 4.588-1.296c2.1-1.292 3.02-2.183 4.21-5.258 1.19-3.076-.145-7.32-.145-7.32l-1.56-3.977 1.095-.174.874-.764s1.938 2.426 3.568 3.973c1.63 1.547 3.948 2.497 3.948 2.497s3.428 1.107 6.036-.339c2.608-1.446 3.766-4.821 3.766-4.821l.377-2.217z" fill="#fff"/><path d="M34.167 20.29c-6.946 3.146-10.452 10.848-9.565 18.225.853 7.091 5.25 14.942 12.96 15.799 3.932.436 7.79-.796 11.264-2.553 3.611-1.829 7.28-4.05 9.41-7.607 3.773-6.306 2.56-14.57-2.157-20.037-5.232-6.06-14.303-7.568-21.364-3.95-.202.104-.025.41.178.307 6.024-3.088 13.744-2.419 18.976 1.962 5.426 4.539 7.737 12.379 5.25 19.058-1.419 3.812-4.253 6.365-7.677 8.41-3.376 2.015-7.076 3.805-11.054 4.102-3.564.267-7.134-.7-9.725-3.244-2.645-2.598-4.402-6.265-5.264-9.837-1.914-7.926 1.227-16.832 8.946-20.326.206-.097.03-.404-.178-.309z" fill="#000"/><path d="M48.618 22.805a31.37 31.37 0 014.904 5.077c.136.178.447.004.307-.177a31.834 31.834 0 00-4.962-5.153c-.172-.143-.424.106-.249.253zM27.354 35.84a21.248 21.248 0 003.614 9.642c.13.187.436.01.307-.177a20.88 20.88 0 01-3.567-9.462c-.024-.226-.378-.23-.354-.003z" fill="#000"/><path d="M26.949 36.036a25.78 25.78 0 018.637-11.076c3.355-2.45 9.846-6.015 13.125-1.598.135.182.443.007.307-.177-3.174-4.273-9.173-1.494-12.653.804-4.385 2.895-7.781 7.096-9.76 11.956-.084.21.26.3.344.09zm27.311-7.914a28.191 28.191 0 01-10.644 14.152c-2.35 1.624-5.097 3.118-7.924 3.656-1.046.2-1.963.11-3.006.08-.237-.008-.616-.136-.83.078-.313.314-.187.683.192.816.215.075.307-.267.092-.342-.854-.298 1.443-.113 1.272-.112.324-.002.645.017.97.002.6-.033 1.195-.126 1.783-.26 1.158-.268 2.276-.704 3.355-1.193a27.8 27.8 0 006.558-4.177 28.499 28.499 0 008.523-12.61c.073-.215-.269-.306-.34-.09zM32.117 53.657c-1.471 3.85-2.988 7.687-4.402 11.56-1.302 3.571-2.441 7.254-2.73 11.065-.503 6.707 2.105 13.746 8.628 16.522 6.215 2.64 13.152.76 18.196-3.428 4.42-3.67 8.828-10.178 4.424-15.552-1.904-2.324-4.93-3.534-7.888-2.795-3.008.75-5.455 3.174-6.14 6.202-.049.222.291.315.342.092.657-2.908 2.994-5.234 5.887-5.95 2.783-.69 5.63.422 7.452 2.583 4.698 5.57-.593 12.434-5.27 15.911-5.082 3.78-11.948 5.166-17.757 2.197-6.028-3.079-8.099-10.02-7.466-16.385.368-3.705 1.525-7.278 2.806-10.757 1.378-3.736 2.834-7.447 4.257-11.168.084-.218-.26-.309-.34-.096zm28.131-21.85c6.471 1.139 13.02 2.075 19.434 3.503 2.986.666 5.957 1.553 8.652 3.031 2.895 1.589 5.935 4.062 6.142 7.62.158 2.702-1.213 5.237-2.714 7.386-1.832 2.624-3.987 5.058-6.234 7.334-2.384 2.419-5.045 5.073-8.418 5.992-2.996.816-6.32.02-7.936-2.803-.91-1.589-1.2-3.484-1.293-5.285-.09-1.738-.136-3.72 1.09-5.106 1.965-2.226 5.706-2.02 7.92-.33.18.136.43-.116.25-.254-1.831-1.398-4.369-1.816-6.53-.958-2.605 1.038-3.174 3.478-3.108 6.045.078 2.97.67 6.406 3.304 8.208 2.323 1.589 5.438 1.38 7.911.272 3.497-1.569 6.326-4.65 8.866-7.437 2.254-2.475 4.602-5.142 6.085-8.173 1.25-2.552 1.674-5.446.224-8.013-1.645-2.916-4.877-4.758-7.88-5.99-3.673-1.508-7.611-2.21-11.504-2.895L60.334 31.46c-.219-.035-.312.305-.086.347zm7.015 49.729c1.765-2.768 4.456-4.993 7.645-5.767 1.137 1.42 2.272 2.838 3.406 4.259.139.174.284.365.29.586.003.276-.207.504-.404.696l-5.612 5.494c-.324.318-.77.66-1.185.477-.16-.071-.277-.211-.39-.345-1.558-1.872-2.095-1.971-3.652-3.841 0 .002-.669-.662-.098-1.559zm8.569-5.821l-.042-.087c-.034-.068-.128-.103-.198-.082-.29.083-.48.362-.209.592.237.202.538.014.757-.093.802-.387 1.567-1.052 2.3-1.557 2.936-2.028 5.846-4.128 8.585-6.414.334-.277.664-.56.992-.848.394-.347.48-.572.889-.218.613.532 1.124 1.697 1.572 2.374.167.25.736.838.726 1.095-.018.494-.527.624-.893.846a221.613 221.613 0 00-12.103 7.907c-.185.129-.01.437.177.307a227.176 227.176 0 0113.3-8.631c.08-.049.12-.162.065-.242-.968-1.46-1.935-2.923-2.904-4.383a.18.18 0 00-.279-.035c-1.999 1.844-4.166 3.491-6.351 5.107-.55.405-6.633 4.659-6.692 4.538.1.206.407.03.308-.176zm-9.427 7.336L55 91.764c-.961.736-1.923 1.47-2.885 2.204-.368.28-1.194.686-1.374 1.126-.208.502.096.744.412 1.14.779.98 1.557 1.96 2.338 2.938.06.077.187.056.25-.002a192.424 192.424 0 0115.706-13.073c.181-.135.006-.443-.177-.307a195.79 195.79 0 00-8.264 6.512 191.648 191.648 0 00-6.011 5.233c-.3.274-.646.747-1.008.923-.531.257-.63-.013-.981-.457-.438-.55-1.407-1.368-1.607-2.021-.368-1.196 1.215-1.954 1.975-2.534L57.7 90.14c2.96-2.263 5.922-4.524 8.88-6.786.18-.132.005-.44-.175-.303z" fill="#000"/><path d="M84.299 62.184a51.31 51.31 0 003.593 4.972c.143.177.393-.076.25-.253a51.248 51.248 0 01-3.536-4.896c-.122-.191-.43-.016-.307.178zM50.165 91.028a12.464 12.464 0 001.864 2.959c.147.174.394-.078.25-.253a12.15 12.15 0 01-1.805-2.884c-.095-.207-.4-.028-.309.178zM90.66 71.932a97.089 97.089 0 019.846 14.124c2.673 4.677 5.415 9.761 6.761 15.008 1.182 4.609.299 11.287-5.242 12.566-5.512 1.27-9.638-3.749-12.365-7.737-3.675-5.367-7.3-10.768-10.951-16.152-.128-.188-.435-.01-.307.178 3.649 5.384 7.278 10.783 10.95 16.151 2.661 3.89 6.284 8.37 11.528 8.077 4.693-.263 7.324-4.93 7.284-9.237-.025-2.667-.844-5.247-1.827-7.702-1.113-2.773-2.394-5.487-3.779-8.136a97.719 97.719 0 00-11.65-17.392c-.144-.174-.394.08-.248.252zM54.609 98.237a4429.15 4429.15 0 0011.868 15.606c1.804 2.358 3.553 4.769 5.444 7.06 1.545 1.874 3.334 3.668 5.636 4.57 3.775 1.482 8.463.142 10.944-3.05 2.903-3.736 2.345-8.966.543-13.046-1.4-3.177-3.509-5.978-5.511-8.794l-6.564-9.229c-.13-.184-.439-.009-.307.177 3.364 4.73 6.957 9.371 10.048 14.286 2.644 4.2 4.723 9.544 2.648 14.428-1.815 4.275-7.022 6.531-11.408 4.996-2.377-.832-4.215-2.693-5.781-4.593-1.868-2.266-3.602-4.651-5.386-6.985a4081.981 4081.981 0 01-11.869-15.605c-.134-.176-.442 0-.305.18z" fill="#000"/><path d="M74.615 92.91a62.887 62.887 0 016.824-6.657c.174-.147-.078-.395-.253-.25a62.79 62.79 0 00-6.824 6.657c-.15.17.101.422.253.25zM42.76 75.84c-2.124.322-4.225-.43-5.686-2-.156-.167-.403.085-.25.253 1.551 1.669 3.777 2.43 6.026 2.091.225-.036.133-.379-.09-.343zM74.922 51.6a14.64 14.64 0 00.252-3.841c-.016-.226-.37-.229-.356-.002.084 1.261.005 2.51-.239 3.75-.042.224.3.317.344.093zm-2.662 69.389c2.435-.662 4.89-1.329 7.168-2.421 3.794-1.816 7.395-5.194 9.482-8.846l.718 1.664c-1.41 4.517-5.238 8.571-9.644 10.296-1.845.721-3.808 1.091-5.775 1.343l-1.95-2.036zm18.85-12.99c2.903-.827 6.331-1.817 8.978-3.266 2.649-1.45 5.279-3.732 6.453-6.514l.609 1.99c-2.003 5.292-9.019 9.806-14.671 9.504l-1.369-1.714zM27.393 68.227c-2.784-3.712-7.615-5.043-10.436-8.687-.582-.752-1.062-1.594-.537-2.54.325-.59.763-1.145 1.15-1.696a65.73 65.73 0 012.7-3.569 68.792 68.792 0 015.682-6.175c.165-.159-.088-.408-.253-.25a68.418 68.418 0 00-6.355 7.016 68.39 68.39 0 00-2.452 3.331c-.55.797-1.341 1.661-1.05 2.696.573 2.02 2.985 3.618 4.618 4.732 2.348 1.605 4.888 3.003 6.626 5.32.134.179.444.002.307-.178zm28.68-44.262c1.98-1.192 4.095-2.116 6.333-2.704 2.18-.573 4.909-1.246 7-.095 1.75.964 2.845 2.81 3.299 4.707.263 1.092.338 2.216.332 3.338-.002.375.037 3.482-.22 3.57.215-.072.127-.417-.09-.344-.03.01-.06.022-.09.03-.071.025-.14.09-.135.17.016.216.023.252.213.364.07.041.155.022.214-.03.582-.528.386-1.828.423-2.548.066-1.288.063-2.584-.147-3.86-.334-2.028-1.27-4.01-2.946-5.267-1.86-1.397-4.077-1.165-6.245-.762-2.88.536-5.612 1.612-8.117 3.121-.195.12-.018.428.176.31zM46.5 71.835c-.858-1.278-2.12-3.24-2.747-4.648l-2.849 2.215c-.386.3-.813.699-.74 1.18.043.278.248.5.443.705 1.015 1.06 1.975 2.06 2.989 3.117 0 0 .586-.86 1.423-1.561.837-.7 1.48-1.008 1.48-1.008zm22.99-19.179c-.74-.978-1.625-2.36-2.14-3.474a15.4 15.4 0 013.93-2.572c.687 1.742 1.302 3.294 1.989 5.037 0 0-1.135-.128-2.116.187-.98.315-1.664.822-1.664.822zm-24.314 41.1a107.529 107.529 0 0111.13 14.39c3.049 4.729 5.338 10.078 9.09 14.314.048.055.153.07.213.028a15.507 15.507 0 014.772-2.224c.22-.058.13-.402-.09-.344-.732.2-1.45.435-2.147.736-.728.313-1.43.893-2.157 1.15-.896.315-1.482-.951-1.965-1.613-.476-.65-.92-1.324-1.35-2.006-1.785-2.838-3.312-5.828-5.08-8.676A107.824 107.824 0 0045.43 93.503c-.157-.168-.407.085-.253.253zm43.239 14.361a2.6 2.6 0 001.62-.643c.173-.149-.08-.399-.253-.25a2.202 2.202 0 01-1.365.538c-.228.011-.231.365-.002.355zm17.364-12.649c-.039-.01-.078-.023-.117-.034-.079-.022-.157.017-.201.084-.123.191-.135.214-.052.428.029.074.085.134.17.134.597-.01.927-.483 1.349-.872.808-.742 1.635-1.468 2.426-2.23.928-.896 1.115-1.645.57-2.814-1.784-3.829-4.136-7.501-6.351-11.092a202.159 202.159 0 00-14.69-20.76c-.142-.176-.39.076-.249.254a201.414 201.414 0 0113.035 18.14 199.787 199.787 0 016.923 11.73c.38.698 1.12 1.648 1.243 2.447.196 1.251-.796 1.9-1.605 2.644-.317.292-2.242 2.368-2.547 2.285.223.06.315-.282.096-.344zm-10.696 25.04a43.06 43.06 0 005.986 9.707c.143.177.393-.077.25-.253a42.847 42.847 0 01-5.929-9.631c-.093-.209-.399-.029-.307.177zm-5.4 9.949c.1-.394.048-.582-.213-.889-.11-.128-.363.01-.297.171l5.63 13.735c.084.207.43.12.344-.09l-5.63-13.734-.297.171.119.545c-.054.22.286.312.344.091zm16.038-12.73a78.279 78.279 0 005.741 7.694c.147.174.396-.079.249-.254a77.663 77.663 0 01-5.683-7.617c-.126-.19-.434-.014-.307.177zm2.587 8.251a136.46 136.46 0 0011.862 16.024c.149.173.397-.079.25-.253a135.803 135.803 0 01-11.805-15.948c-.122-.192-.429-.015-.307.177zm-2.587 10.914c.522.724 1.044 1.449 1.562 2.172.133.183.441.008.307-.177a895.712 895.712 0 01-1.562-2.172c-.131-.184-.439-.009-.307.177zm-6.243 1.184l10.073 18.855c.108.202.414.023.307-.177l-10.073-18.855c-.105-.201-.412-.024-.307.177zm12.82 7.519a84.261 84.261 0 008.199 12.931c.138.177.447.003.307-.178a84.273 84.273 0 01-8.199-12.93c-.107-.203-.414-.026-.307.177zm-2.271-52.825c4.454 1.152 7.82 3.835 9.989 7.894 2.098 3.926 2.828 8.38 3.545 12.721.036.225.38.135.344-.089-.766-4.638-1.566-9.417-3.982-13.527-2.225-3.787-5.563-6.247-9.802-7.343-.224-.056-.316.286-.094.344zm12.186 21.655c-2.664-.914-5.51-1.666-7.933-3.132-2.372-1.435-4.24-3.526-5.497-5.987-.103-.202-.41-.025-.307.177 1.226 2.397 3.024 4.444 5.294 5.908 2.52 1.625 5.542 2.412 8.353 3.378.216.072.304-.271.09-.344z" fill="#000"/><path d="M109.16 95.294c5.218 1.047 7.654 6.142 8.384 10.953.034.226.377.134.343-.089-.748-4.934-3.3-10.134-8.634-11.204-.224-.048-.316.295-.093.34zm7.841 11.847a15.35 15.35 0 01-7.789-6.355c-.119-.193-.427-.018-.307.177a15.746 15.746 0 008.005 6.521c.214.078.305-.264.091-.343zm-50.458 16.251c-.466 8.78 5.167 17.635 12.575 21.96.197.115.373-.194.176-.309-7.682-4.483-12.52-13.047-12.395-21.942 0-.071-.055-.162-.132-.172-.369-.057-.56.075-.58.461-.01.229.343.23.356.002zm13.648 20.937a21.184 21.184 0 001.727-16.449c-.066-.218-.41-.129-.344.089a20.831 20.831 0 01-1.692 16.183c-.109.2.198.377.309.177z" fill="#000"/><path d="M69.576 124.161c-.187 5.324 2.504 10.424 6.996 13.285.193.122.367-.186.176-.309-4.385-2.794-6.999-7.781-6.817-12.974.006-.227-.347-.228-.355-.002z" fill="#000"/><path d="M76.631 136.816a18.89 18.89 0 001.114-8.627c-.023-.225-.378-.23-.356-.002a18.702 18.702 0 01-1.101 8.536c-.08.215.264.306.343.093zM56.449 93.694l.685-.396c.199-.114.021-.421-.177-.307l-.685.396c-.199.115-.022.422.177.307zM54.566 75.19c.488.316.825.771.985 1.328.064.22.406.131.344-.09a2.697 2.697 0 00-1.152-1.547c-.19-.122-.368.185-.177.31zm-.193 2.87a2.368 2.368 0 011.25 1.639c.047.223.39.134.343-.09a2.722 2.722 0 00-1.416-1.858c-.202-.105-.38.203-.176.309zm-.668 3.69c.326.589.507 1.218.542 1.894.012.227.367.23.356.001a4.732 4.732 0 00-.588-2.072c-.116-.2-.423-.023-.31.177zm-1.835 3.116c.216.369.271.782.16 1.193-.061.22.28.312.342.091a1.87 1.87 0 00-.195-1.461c-.117-.198-.424-.02-.307.177zm-2.667 2.402l.377 1.39c.058.22.402.13.343-.09l-.376-1.39c-.062-.22-.404-.132-.344.09zm-3.078 1.373c.134.308.27.614.403.921.091.21.397.03.307-.177l-.403-.92c-.091-.21-.397-.031-.307.176zm-3.788 1.491l.621 1.47c.09.21.395.03.307-.178-.206-.49-.415-.98-.621-1.469-.088-.208-.394-.03-.307.177zm-3.497.598c.124.616.375 1.178.756 1.678.136.178.445.005.307-.178a3.8 3.8 0 01-.718-1.59c-.046-.225-.39-.135-.344.09zm-3.371-.378c.058.63.357 1.158.87 1.53.183.134.358-.174.176-.309-.4-.29-.645-.73-.692-1.221-.02-.225-.376-.227-.354 0zm-2.716-.8l.855 1.107c.14.18.387-.072.25-.253l-.855-1.107c-.139-.18-.385.075-.25.253zm-2.949-1.825c.18.581.362 1.16.542 1.742.068.217.41.129.344-.09l-.542-1.741c-.068-.218-.413-.13-.344.09zm-2.13-4.529c.059.498.119.998.18 1.495.025.225.381.227.355.002-.059-.498-.118-.998-.179-1.495-.028-.224-.382-.227-.356-.002zm-1.24-4.091c-.008.384-.014.77-.02 1.152-.004.229.35.229.356.002.008-.384.014-.77.02-1.152.004-.229-.352-.23-.356-.002zM68.646 59.29l-.017 1.152c-.004.229.352.23.356.002.004-.385.012-.768.016-1.153.003-.227-.352-.227-.355-.002zm1.598 1.818a5.18 5.18 0 00.082 2.302c.059.22.4.131.344-.09a4.752 4.752 0 01-.082-2.121c.039-.222-.302-.317-.344-.091zm1.976 2.359a4.93 4.93 0 00.737 1.684c.128.188.435.01.307-.178a4.68 4.68 0 01-.701-1.597c-.05-.22-.394-.13-.343.091zm2.77.455c.108.429.327.802.648 1.105.166.155.417-.096.25-.253a1.868 1.868 0 01-.554-.941c-.057-.221-.399-.133-.344.09zm2.5-1.154l.964 1.272c.136.178.445.005.307-.178l-.963-1.271c-.137-.18-.445-.005-.307.177zm2.758-1.646c.122.458.52.774.992.802.228.012.228-.342.002-.356a.72.72 0 01-.652-.538c-.057-.218-.401-.128-.342.092zm4.601-2.63c.198-.114.021-.421-.177-.306-.199.114-.022.421.177.306zm1.965-3.333l1.195.916c.178.138.43-.114.25-.253l-1.195-.916c-.177-.136-.428.113-.25.253zm2.356-4.283c.369.246.737.492 1.104.735.191.128.365-.18.177-.309l-1.104-.735c-.19-.127-.367.182-.176.31zm2.944-2.746c.198-.115.02-.422-.178-.307-.198.114-.02.421.178.307zm-.23-3.777c.147-.009.295-.018.44-.025.096-.006.178-.076.18-.177 0-.09-.081-.183-.177-.18-.148.01-.296.019-.441.026-.095.006-.178.075-.18.177.001.09.083.185.178.179zm-2.673-3.226c.199-.114.022-.421-.177-.306-.196.113-.02.42.177.306zm-4.833-2.979l.81.217c.22.059.311-.283.092-.342l-.81-.217c-.22-.061-.312.281-.092.342zm-3.314-.599l.54.144c.219.059.31-.283.09-.342l-.538-.145c-.223-.06-.313.285-.092.343zM25.796 47.51c.028.47.19.883.481 1.25.141.178.39-.075.25-.253a1.763 1.763 0 01-.377-.997c-.012-.225-.369-.229-.354 0zm-1.246 1.513c.32.424.64.85.961 1.273.137.18.445.005.307-.177-.32-.423-.64-.85-.961-1.273-.136-.178-.444-.003-.307.177zm-1.282 1.649l1.062 1.444c.135.181.443.006.307-.178l-1.063-1.443c-.134-.181-.442-.006-.306.177zm-.628 2.475l.468.414c.168.15.419-.1.249-.253l-.468-.414c-.171-.15-.422.101-.25.253zm-2.6 1.446a5.24 5.24 0 001.756 1.842c.192.124.368-.185.176-.309a4.848 4.848 0 01-1.624-1.711c-.116-.198-.423-.02-.308.178zm-.722 2.299l.568.586c.158.165.407-.088.249-.253l-.568-.586c-.158-.165-.407.088-.249.253zm-.74 1.846c.247.163.492.324.737.488.19.125.366-.184.176-.309-.246-.163-.492-.324-.737-.488-.19-.125-.366.184-.176.309zm39.524-34.343c.307.508.487 1.056.534 1.648.02.226.373.23.356.002a4.107 4.107 0 00-.58-1.826c-.12-.195-.428-.02-.31.176zm2.726-.43c.444.676.717 1.408.825 2.21.03.226.373.134.344-.09a5.445 5.445 0 00-.863-2.298c-.125-.189-.433-.014-.306.178zm3.957-1.879l.476 3.605c.03.225.373.134.344-.09l-.476-3.604c-.031-.228-.373-.134-.344.09zm2.616.596c.431.85.648 1.75.654 2.705 0 .229.356.23.355.002a6.368 6.368 0 00-.7-2.885c-.106-.204-.413-.026-.309.178zm2.7 1.076c.068.646.137 1.291.204 1.937.023.224.378.23.356.002-.067-.646-.137-1.29-.204-1.937-.025-.223-.38-.228-.356-.002zM56.382 95.719l1.583-1.605c.16-.163-.092-.41-.253-.25L56.13 95.47c-.16.163.091.414.253.25zm3.282-3.851c-.089.31-.176.622-.264.932-.046.166.178.304.297.17 1.081-1.213 2.165-2.426 3.246-3.64.15-.168-.1-.419-.253-.249-1.08 1.214-2.165 2.426-3.246 3.64l.297.169.264-.933c.063-.216-.28-.308-.341-.09zm-1.982.574c.333-.345.667-.691 1.002-1.034.16-.163-.094-.412-.254-.25-.332.346-.667.692-1.001 1.034-.158.162.093.413.253.25zm-2.089.739a4.734 4.734 0 011.584-1.122c.209-.093.03-.398-.177-.306a4.988 4.988 0 00-1.659 1.18c-.155.167.097.414.252.248zm-1.296 2.588a5.613 5.613 0 001.735-1.45c.14-.177-.11-.427-.253-.25a5.352 5.352 0 01-1.66 1.39c-.202.111-.025.418.178.31zm5.118-5.471c.39-.378.782-.757 1.174-1.133.165-.158-.088-.408-.253-.25-.39.379-.783.758-1.174 1.134-.164.16.088.407.253.25z" fill="#000"/><path d="M63.502 88.206c-.269.403-.608.615-1.078.707l.17.297a4.685 4.685 0 012.86-1.695c.226-.04.135-.383-.089-.344a4.984 4.984 0 00-3.023 1.79c-.11.134-.008.33.171.296.566-.111.978-.395 1.296-.874.126-.193-.182-.367-.307-.177zm-3.264 2.738l1.17-1.136c.163-.16-.089-.407-.254-.25l-1.169 1.137c-.162.159.088.407.253.25zm-2.297 2.731c.333-.345.668-.69 1-1.036.159-.165-.093-.412-.253-.25-.332.346-.667.692-1 1.037-.156.164.093.412.253.25zm19.883-14.911a5.023 5.023 0 001.48-1.09c.155-.165-.096-.416-.253-.249a4.728 4.728 0 01-1.406 1.033c-.203.098-.025.405.18.306zm-.179-1.496l3.498-2.248c.19-.124.016-.432-.177-.307l-3.498 2.248c-.191.122-.016.43.177.307zm3.198-1.186l3.07-1.802c.196-.116.02-.424-.177-.307-1.022.601-2.048 1.201-3.07 1.803-.197.113-.02.42.177.306zm-.695-1.415c.823-.83 1.934-1.529 3.028-1.967.208-.084.122-.427-.09-.344a9.06 9.06 0 00-1.738.906c-.434.297-1.16.737-1.393 1.216-.164.335.125.76.445.436.161-.161-.09-.412-.252-.247zm2.518-.965l1.988-.903c.207-.095.028-.4-.177-.307l-1.989.903c-.207.095-.03.402.178.307zm-5.892 3.148a2.182 2.182 0 011.686-.761c.23.001.23-.354.002-.356a2.545 2.545 0 00-1.942.867c-.15.171.102.422.254.25zm8.12-2.852l.857-.495c.198-.115.021-.422-.177-.307l-.858.495c-.198.114-.02.421.178.307zm-4.599 3.11l1.37-.791c.2-.115.022-.422-.177-.307l-1.37.791c-.199.115-.022.422.177.307zM57.032 98.532l1.442-1.061c.181-.135.006-.443-.177-.307l-1.442 1.061c-.181.135-.006.443.177.307zm2.401 2.485a5.77 5.77 0 011.751-1.224c.209-.092.028-.4-.177-.306a5.934 5.934 0 00-1.827 1.281c-.158.162.093.413.253.249zm3.632 2.029c.198-.115.02-.422-.178-.307-.196.113-.02.421.178.307zm.326 3.235a16.85 16.85 0 012.84-2.103c.195-.116.02-.424-.177-.307a17.257 17.257 0 00-2.915 2.162c-.168.154.082.403.252.248zm3.714.597c.199-.114.021-.421-.177-.307-.198.115-.021.422.177.307zm.645 1.911l1.371-.791c.199-.115.021-.422-.177-.307l-1.371.791c-.196.114-.02.421.177.307zm-5.963-5.273l2.275-1.993c.172-.151-.08-.399-.253-.25l-2.276 1.994c-.171.151.08.398.254.249z" fill="#000"/><path d="M65.59 108.209a5.693 5.693 0 001.652-1.189c.16-.163-.094-.412-.253-.249a5.447 5.447 0 01-1.576 1.131c-.207.1-.028.406.177.307zm1.989 2.957l2.273-1.997c.172-.151-.081-.4-.253-.249-.758.666-1.516 1.33-2.274 1.997-.17.15.084.399.254.249zm1.315 1.977a9.31 9.31 0 002.351-1.565c.17-.152-.084-.401-.253-.249a8.946 8.946 0 01-2.275 1.507c-.206.097-.027.403.177.307zm1.336 1.523a11.65 11.65 0 002.337-1.584c.173-.149-.08-.398-.253-.249a11.323 11.323 0 01-2.262 1.527c-.2.105-.024.412.177.306zm.848 1.559a4.705 4.705 0 002.407-1.16c.169-.152-.083-.4-.253-.25a4.36 4.36 0 01-2.244 1.067c-.226.037-.135.38.09.343zm1.259 1.794a8.082 8.082 0 002.365-1.144c.184-.131.008-.439-.177-.307-.7.494-1.455.864-2.277 1.107-.219.066-.13.41.089.344zm1.06 1.434a3.77 3.77 0 002.068-.959c.168-.152-.085-.401-.253-.249a3.442 3.442 0 01-1.904.864c-.226.03-.133.371.089.344zm4.387 4.343c.489-.207.98-.411 1.47-.618.21-.088.032-.395-.176-.307-.49.206-.98.41-1.472.618-.21.089-.031.394.178.307zm1.066.806a10.094 10.094 0 002.817-.814c.207-.095.028-.401-.177-.307a9.742 9.742 0 01-2.73.779c-.225.029-.134.372.09.342zm3.18.61a6.778 6.778 0 001.824-1.288c.162-.159-.089-.409-.253-.249a6.463 6.463 0 01-1.748 1.23c-.206.1-.027.406.178.307zm3.345-1.025c.276-.312.553-.625.83-.935.15-.169-.1-.42-.253-.25-.276.312-.553.625-.83.935-.15.171.102.422.253.25zM80.224 89.46a6.465 6.465 0 011.855-1.744c.192-.121.017-.43-.177-.307a6.95 6.95 0 00-1.986 1.878c-.132.185.176.36.308.174zm1.89.986a4.434 4.434 0 011.869-1.322c.211-.078.125-.421-.09-.344-.8.296-1.479.764-2.03 1.416-.148.175.103.425.25.25zm1.629 1.55a3.914 3.914 0 011.931-2.007c.205-.1.028-.406-.177-.307a4.235 4.235 0 00-2.064 2.138c-.09.208.217.385.31.176zm1.187 2.212l2.063-1.543c.181-.135.006-.443-.177-.307-.688.515-1.376 1.03-2.064 1.543-.181.135-.006.443.178.307zm1.49 2.212l2.29-1.57c.188-.128.01-.435-.177-.307-.765.523-1.527 1.045-2.29 1.57-.188.13-.01.437.176.307zm2.05 2.464a6.973 6.973 0 002.194-1.043c.183-.13.008-.439-.178-.307a6.659 6.659 0 01-2.106 1.006c-.219.06-.13.405.09.344zm1.556 2.299a10.171 10.171 0 003.49-1.566c.186-.128.01-.436-.176-.307a9.89 9.89 0 01-3.404 1.529c-.222.054-.134.396.09.344zm2.446 2.461l.759-.667c.172-.151-.082-.4-.253-.249l-.759.667c-.17.153.082.4.254.249zm.018 1.798a18.331 18.331 0 002.918-1.362c.199-.115.022-.422-.177-.307-.905.525-1.846.97-2.83 1.329-.211.075-.125.418.09.34zm4.488 5.449l-.017-.045c-.03-.078-.085-.128-.17-.133-.345-.017-.43.436-.09.543.3.094.74-.144 1.02-.227.463-.138.927-.275 1.39-.414.218-.066.13-.408-.09-.344l-1.128.337c-.175.052-.347.103-.521.157l-.261.077a.365.365 0 00-.323.224c-.056-.044-.113-.087-.17-.133l.017.044c.081.215.425.126.343-.086zm1.424 1.62a19.035 19.035 0 002.56-1.184c.2-.112.023-.419-.177-.307-.797.444-1.617.828-2.471 1.149-.211.078-.125.421.088.342zm2.521.43a5.202 5.202 0 002.127-1.253c.165-.158-.088-.408-.253-.25a4.768 4.768 0 01-1.964 1.159c-.217.068-.129.41.09.344zM49.786 50.126l.144-.539c.06-.219-.283-.31-.342-.091l-.144.539c-.059.22.283.31.342.091zm-2.505 1.687c.336-.59.674-1.178 1.012-1.768.112-.199-.194-.374-.31-.177-.335.59-.673 1.178-1.01 1.768-.113.199.194.376.308.177zm-2.071-.021a2.936 2.936 0 00-.13-2.058c-.091-.21-.397-.03-.307.177.25.575.275 1.191.094 1.79-.067.218.277.309.343.091zm-2.772.672l.103-1.863c.013-.228-.341-.228-.355-.002l-.103 1.863c-.012.23.343.23.355.002zm-3.906-.865l.217-.81c.058-.22-.284-.311-.342-.092l-.217.81c-.06.22.283.311.342.092zm-3.922-.519l.018-1.153c.004-.229-.35-.229-.356-.002l-.018 1.154c-.002.227.351.23.355.002zm-3.428-2.32l.363-1.353c.058-.219-.284-.31-.342-.091l-.363 1.352c-.057.221.285.313.342.092zM28.5 44.503a3.24 3.24 0 01.055-2.623c.095-.205-.21-.384-.309-.177a3.582 3.582 0 00-.09 2.887c.087.212.43.126.345-.087zm-2.476-4.654l.688-2.858c.052-.221-.288-.314-.342-.092l-.688 2.858c-.054.223.288.314.342.092zm-.174-6.403c-.1.06-.2.121-.299.183.073.092.143.185.215.277.249-.264.544-.489.765-.777.188-.242.293-.524.569-.683.198-.115.021-.422-.177-.307-.258.149-.397.357-.556.602-.23.356-.567.61-.854.916-.135.14.041.388.214.277.098-.062.2-.123.298-.183.199-.115.022-.422-.176-.305zm1.726-4.925l1.712-.989c.199-.114.021-.421-.177-.307l-1.713.99c-.198.114-.02.42.178.306zm3.49-3.843l.686-.396c.198-.115.021-.422-.177-.307l-.686.396c-.198.114-.021.421.177.307zm2.356-2.072l1.324-.08c.227-.014.23-.367.002-.356l-1.324.08c-.229.015-.232.368-.002.356zm52.586 39.808c.14.29.18.609.113.923-.046.223.296.314.342.091.088-.41.035-.813-.148-1.19-.099-.206-.406-.028-.307.176zm1.604.349l.077 1.325c.014.226.367.23.356.002l-.078-1.325c-.013-.227-.369-.229-.355-.002zm1.251 1.831c.16.669.317 1.339.477 2.008.052.223.395.132.344-.09-.16-.669-.318-1.339-.477-2.008-.054-.22-.396-.131-.344.09zm2.981 5.617c.198-.114.021-.421-.177-.307-.199.115-.022.422.177.307zm1.25 2.501a10.76 10.76 0 011.233 3.341c.042.224.386.135.344-.09a11.086 11.086 0 00-1.268-3.43c-.116-.195-.424-.02-.31.178zm2.619 2.547c.28 1.08.49 2.172.624 3.282.026.225.382.227.355.002a25.388 25.388 0 00-.634-3.372c-.06-.221-.404-.132-.345.088zm2.553 4.058c.484.9.745 1.853.781 2.875.009.227.362.23.356.002a6.89 6.89 0 00-.828-3.055c-.11-.199-.416-.022-.309.178zm2.472 4.717c.199-.115.021-.422-.177-.307-.198.114-.021.421.177.307zm2.014 3.832l.124.613c.046.225.388.133.344-.09l-.124-.612c-.048-.224-.388-.134-.344.09zm1.547 2.334c.198-.114.021-.42-.178-.306-.198.114-.021.421.178.307zm-57.097 2.727c.01.148.018.295.026.44.005.096.075.178.177.18.09 0 .182-.081.178-.177a60.056 60.056 0 01-.025-.441c-.006-.095-.075-.178-.177-.179-.091-.002-.182.08-.179.177zm1.23-.737a3.187 3.187 0 000 1.686c.059.22.403.13.344-.09a2.832 2.832 0 010-1.506c.06-.22-.284-.313-.344-.09zm1.022-.552l.048 2.48c.004.229.359.229.356.001l-.049-2.479c-.005-.226-.36-.228-.355-.002zm.968 2.39c-.156.393-.308.786-.463 1.179-.083.211.26.303.342.091.155-.392.307-.786.463-1.178.084-.213-.26-.303-.342-.092zm.727 3.419a.993.993 0 01.117 1.116c-.107.201.2.378.31.176a1.363 1.363 0 00-.178-1.545c-.148-.171-.395.08-.25.253zm2.229 2.246l.15 1.053c.033.227.374.134.344-.089l-.15-1.054c-.033-.227-.375-.135-.344.09zm1.435-.616l.447 2.718c.037.224.381.135.344-.089l-.448-2.718c-.038-.223-.38-.133-.343.09zm1.861 2.368c.175.584.352 1.164.528 1.747.066.218.41.129.344-.089-.176-.584-.353-1.164-.528-1.747-.069-.217-.412-.128-.344.089zm2.108 3.639c.33.751.487 1.542.48 2.361-.002.228.353.23.356.002a6.122 6.122 0 00-.529-2.54c-.093-.208-.398-.029-.306.177zm2.145 2.835c.114.851.228 1.699.344 2.548.03.226.373.135.344-.089-.114-.851-.228-1.699-.344-2.548-.032-.225-.374-.133-.344.089zm1.57 3.188l.323.957c.073.215.418.127.344-.09l-.323-.956c-.075-.216-.417-.128-.344.089zm2.215 1.417l-.159 2.574c-.013.228.34.23.356.002.053-.857.105-1.717.159-2.574.013-.229-.342-.228-.356-.002zm1.661 4.11l.124.613c.046.224.388.133.344-.09l-.124-.613c-.047-.223-.39-.132-.344.09zm1.51.967l.341 1.399c.055.222.398.13.344-.09l-.34-1.399c-.055-.222-.398-.13-.345.09zM27.134 50.268l.396.685c.115.198.421.021.307-.177l-.396-.686c-.113-.196-.42-.019-.307.178zm-.749 2.26l.963 1.272c.137.18.445.005.307-.177l-.963-1.272c-.137-.18-.445-.005-.307.177zm3.581.074a.881.881 0 00-.691.121c-.063.042-.105.12-.082.198.148.511.458.927.901 1.217.192.124.366-.184.177-.31a1.756 1.756 0 01-.736-.999l-.082.198a.531.531 0 01.422-.086c.223.05.314-.293.091-.339zm-.243 3.624l.271.073c.09.024.197-.032.217-.126.02-.093-.028-.19-.125-.216l-.271-.073c-.09-.024-.197.032-.217.125a.178.178 0 00.125.217zm-4.589-1.958l.369.243c.08.052.195.012.242-.067.05-.088.014-.188-.066-.242a60.902 60.902 0 00-.37-.243c-.079-.052-.195-.012-.242.067-.05.088-.014.188.067.242zM59.947 27.16l.546 1.74c.068.216.412.127.344-.09l-.546-1.74c-.068-.216-.412-.127-.344.09zm2.049 2.009c.107.317.215.637.32.956.072.214.415.128.344-.09a133.83 133.83 0 01-.32-.956c-.072-.214-.416-.125-.344.09zm.513-2.293l.099.172c.046.08.16.118.242.065.081-.053.114-.156.065-.242l-.1-.172c-.046-.08-.16-.117-.242-.065-.081.053-.114.156-.064.242zm-1.823 3.917c.018.295.034.588.054.883.014.226.367.23.356.002-.018-.296-.035-.59-.054-.883-.014-.227-.37-.229-.356-.002zm3.67-4.119l-.598-.696c-.136-.16-.362.045-.278.214a4.96 4.96 0 01.483 1.615c.03.226.372.135.344-.09a5.216 5.216 0 00-.518-1.7l-.278.215.6.696c.145.172.394-.08.245-.254zM62.83 22.74c.044.204.088.408.13.613.047.224.39.132.344-.09a55.011 55.011 0 01-.13-.612c-.05-.223-.392-.134-.344.09zm.854 7.65l-.073.272c-.024.09.032.197.125.217.094.02.191-.029.217-.126l.073-.27c.024-.091-.032-.198-.125-.218a.183.183 0 00-.217.126zm-8.536 47.075c.199-.115.022-.422-.177-.307-.198.115-.021.421.178.307zm-.058 3.461c.198-.115.02-.422-.178-.307-.196.113-.019.42.178.307zm-1.85 3.124c.2-.114.022-.421-.177-.307-.198.115-.02.422.178.307zm-3.218 2.827l-.928.764c-.175.145.077.393.253.25l.928-.765c.174-.144-.08-.393-.253-.25z" fill="#000"/><path d="M49.405 88.09c.198-.115.02-.422-.178-.307-.196.113-.019.42.178.307zm-5.317 1.47c.199-.114.022-.42-.177-.306-.198.114-.021.421.177.307zm-2.821.26c.198-.115.021-.422-.177-.307-.197.113-.02.42.177.307zm-3.158-.58l-2.629-.995c-.213-.082-.304.263-.092.342l2.629.995c.212.08.304-.263.092-.342zm-2.174-1.446c-.861-.57-1.723-1.136-2.584-1.705-.19-.126-.366.183-.176.309.86.57 1.723 1.136 2.583 1.705.192.124.368-.185.177-.309zm-1.995-1.966c.198-.115.021-.422-.177-.307-.199.114-.022.421.177.307zm-2.07-2.003c.198-.114.021-.421-.177-.306-.199.114-.022.421.177.306zm-1.405-1.243c.198-.114.021-.421-.177-.306-.197.113-.02.42.177.306zm2.774.453c.198-.114.021-.421-.177-.307-.197.114-.02.42.177.307zm-1.357-1.958c.198-.115.021-.422-.178-.307-.198.115-.02.421.178.307zm.262-1.521c.199-.115.021-.421-.177-.307-.197.114-.02.42.177.307zM30.47 78.24c.198-.115.021-.422-.177-.308-.197.114-.02.42.177.307zm-1.43-1.688c.199-.115.021-.421-.177-.307-.199.115-.021.422.177.307zm-2.208.131c.199-.114.022-.421-.177-.307-.198.115-.021.422.177.307zm.916-3.952c.198-.114.021-.421-.177-.307-.199.115-.022.422.177.307zm-1.056.151c.199-.114.021-.421-.177-.306-.196.113-.02.42.177.306zm4.94 12.908c.199-.114.021-.421-.177-.306-.196.113-.02.42.177.306zm-2.058-4.75c.199-.115.021-.422-.177-.307-.196.113-.02.42.177.307zm-.916-1.984c.198-.114.021-.421-.177-.307-.197.114-.02.42.177.307zm-1.751 3.294c.199-.114.021-.421-.177-.306-.199.114-.021.421.177.306zm5.497 5.963c.198-.115.021-.421-.177-.307-.197.114-.022.422.177.307zm-2.194-2.615c.198-.114.02-.421-.178-.307-.198.115-.021.422.177.307zm-1.174 1.133c.198-.114.021-.421-.177-.307-.197.114-.02.42.177.307zm24.624-7.593c.198-.114.021-.421-.177-.306-.199.114-.022.421.177.306zm-2.41 4.133c.199-.114.021-.421-.177-.306-.199.114-.021.421.177.306zm-1.977 2.511c.199-.114.021-.421-.177-.307-.198.115-.021.422.177.307zM45.82 87.42c.199-.115.022-.421-.177-.307-.196.114-.02.421.178.307zm-2.008.475c.198-.114.02-.421-.178-.307-.198.115-.02.422.178.307zm-3.018-.085c.198-.115.021-.422-.177-.307-.199.114-.021.421.177.306zm-2.262-.752c.199-.114.022-.421-.177-.307-.198.115-.021.422.177.307zm-1.963-.235c.198-.115.02-.422-.178-.307-.198.114-.021.421.178.307zm37.647-24.199l-.172.099c-.08.046-.118.16-.065.242a.181.181 0 00.242.065l.172-.1c.08-.046.117-.16.065-.242-.053-.081-.156-.114-.242-.064zm3.629-1.231c.199-.115.022-.422-.177-.307-.198.114-.021.421.177.307zm3.451-1.537c.198-.114.021-.421-.177-.307-.197.114-.02.42.177.307zm3.013-1.51c.198-.115.02-.422-.177-.307-.199.114-.022.421.177.307zm1.567-.446c.198-.115.021-.422-.177-.307-.197.113-.02.42.177.306zm3.694-6.045c.209-.427.421-.852.63-1.279.102-.203-.205-.38-.309-.176-.209.427-.422.852-.63 1.279-.099.203.208.38.308.176zm1-2.835c.2-.114.022-.421-.176-.306-.197.113-.02.42.177.306zm.515-.296c.198-.115.02-.421-.178-.307-.196.114-.019.42.178.307zM89.74 44.02c.199-.115.022-.422-.177-.308-.198.115-.021.422.177.307zm-2.637-2.59c.198-.114.021-.42-.177-.306-.197.113-.022.421.177.307zm-2.045-1.868c-.885-.48-1.772-.958-2.656-1.435-.201-.108-.377.198-.177.309.886.48 1.773.957 2.657 1.435.2.107.378-.2.176-.31zm2.235.616c.199-.115.022-.422-.177-.307-.196.113-.021.421.177.307zm-8.058-2.883c.198-.114.021-.421-.177-.306-.199.114-.022.421.177.306zm1.667-.278c.198-.114.021-.421-.177-.306-.199.114-.021.421.177.306zM78.16 38.6c.199-.114.022-.421-.177-.306-.196.113-.021.421.177.306zm-2.15-3.327c.198-.115.021-.422-.178-.307-.196.113-.019.42.178.306zm-1.725 3.737c.199-.115.022-.422-.177-.307-.196.113-.021.421.177.307zm12.746 11.539l.073-.271c.024-.09-.032-.197-.126-.217-.093-.02-.19.028-.216.125l-.073.271c-.024.09.032.197.125.217.093.02.19-.03.217-.125zm1.399-3.261c.199-.114.022-.421-.177-.307-.198.115-.021.422.177.307zm.704-1.549c.199-.115.022-.422-.177-.307-.198.114-.021.421.177.306zm-2.194-2.615c.198-.115.021-.422-.177-.307-.199.114-.022.421.177.307zm-1.24 2.999c.199-.115.022-.422-.177-.307-.196.113-.019.42.178.307zm-.398 9.595c.198-.114.02-.421-.178-.306-.196.113-.019.42.178.306zm2.391-2.978c.198-.115.021-.422-.177-.308-.197.114-.02.42.177.307zm2.017 1.118c.2-.115.022-.422-.176-.307-.199.114-.022.421.177.307zm2.25-4.161l-.073.271c-.024.09.032.197.126.217.093.02.19-.028.216-.125l.073-.271c.024-.09-.032-.197-.125-.217a.178.178 0 00-.217.125zm-8.817 11.379c.199-.115.021-.422-.177-.307-.199.114-.021.421.177.307zm-2.688 2.466c.199-.115.022-.422-.177-.307-.198.114-.021.421.177.307zm-.989-1.715c.198-.115.02-.421-.178-.307-.198.115-.021.422.178.307zm-1.333-1.514c.199-.115.021-.422-.177-.307-.197.113-.02.42.177.307zm-.293 5.423c.199-.115.022-.421-.177-.307-.198.115-.021.422.177.307zm-1.413-2.84c.199-.114.021-.421-.177-.307-.197.114-.02.42.177.307zM74.65 65.75c.2-.115.022-.422-.176-.307-.199.114-.022.421.177.307zm-1.537-3.453c.199-.115.021-.421-.177-.307-.199.115-.021.422.177.307zm-.968 3.072c.198-.115.021-.422-.177-.307-.197.113-.02.42.177.307zm-.113-3.362c.199-.114.021-.421-.177-.306-.197.113-.022.421.177.306zm-1.43-1.687c.199-.114.022-.421-.177-.307-.198.115-.021.422.177.307z" fill="#000"/><path d="M70.602 60.32c.199-.114.022-.421-.177-.307-.198.115-.021.422.177.307zm-1.438-3.28c.198-.115.021-.422-.177-.307-.197.113-.022.421.177.306z" fill="#000"/><path d="M69.164 57.04c.198-.115.021-.422-.177-.307-.197.113-.022.421.177.306zm.417 5.471c.199-.114.021-.421-.177-.307-.197.114-.02.42.177.307zM52.163 73.479c.198-.115.02-.421-.178-.307-.198.115-.02.422.178.307zm1.891.507c.198-.115.021-.422-.177-.307-.199.114-.022.421.177.307zm2.814 4.085c.198-.115.021-.421-.177-.307-.199.115-.022.422.177.307zm-.79 4.567c.199-.114.022-.421-.177-.307-.196.114-.02.42.177.307zm-2.021 3.224c.199-.115.022-.422-.177-.307-.198.114-.021.421.177.307zm-2.515 2.366c.198-.114.02-.421-.178-.307-.198.115-.02.422.178.307zm-3.4 2.419c.198-.115.021-.422-.177-.307-.199.114-.022.421.177.307zm-2.378.233c.198-.115.02-.422-.178-.307-.198.114-.02.421.178.306zm-3.454 1.535c.198-.115.021-.422-.177-.307-.199.115-.022.422.177.307zm-2.188-1.02c.199-.115.021-.422-.177-.307-.199.114-.021.421.177.307zm7.768-6.722l-.172.1c-.08.045-.117.16-.065.241a.18.18 0 00.243.065l.171-.1c.08-.045.118-.16.065-.241a.182.182 0 00-.242-.065zm3.424-3.166c.198-.115.021-.422-.177-.307-.197.113-.02.42.177.307zm1.996-3.665c.198-.114.02-.421-.178-.307-.196.114-.02.42.177.307zm30.702 46.455c.199-.115.021-.422-.177-.307-.197.113-.02.42.177.307zm-2.09-.851c.199-.114.022-.421-.177-.306-.196.113-.019.42.177.306zm-.638-.316c.199-.114.021-.421-.177-.307-.198.115-.021.422.177.307zm-1.521-.262c.199-.115.022-.421-.177-.307-.198.115-.021.422.177.307zm-1.128.422c.198-.114.021-.421-.177-.307-.197.114-.02.421.177.307zm-3.577-5.448l.1.172c.046.08.16.117.242.065.081-.053.114-.156.065-.242l-.1-.172c-.046-.08-.16-.117-.242-.065-.081.053-.114.156-.065.242zm-1.63-1.596c.198-.114.021-.421-.177-.307-.199.115-.022.422.177.307zm-1.799-1.929c.198-.115.021-.422-.177-.307-.199.114-.022.421.177.307zm-1.187-2.057c.198-.114.021-.421-.177-.306-.199.114-.022.421.177.306zm-.964-1.271c.199-.115.022-.422-.177-.307-.198.114-.021.421.177.307zm-1.605-2.295l-.568-.586c-.158-.165-.408.088-.25.253l.568.586c.16.162.408-.088.25-.253z" fill="#000"/><path d="M67.087 108.032c.198-.115.02-.421-.178-.307-.198.115-.02.422.178.307zm-1.557-2.299c.199-.114.021-.421-.177-.307-.198.115-.021.422.177.307zm-.766-.93c.199-.114.021-.421-.177-.307-.197.114-.02.421.177.307z" fill="#000"/><path d="M64.665 104.631c.198-.114.021-.421-.177-.307-.197.114-.02.421.177.307zm-1.996-2.271c.198-.115.021-.421-.177-.307-.197.114-.022.422.177.307zm-.371-.244c.199-.115.022-.422-.177-.307-.196.113-.019.42.177.307zm-1.95-2.986c.199-.114.022-.421-.177-.307-.198.115-.021.422.177.307zm-.395-.685c.198-.115.021-.422-.178-.307-.198.114-.02.421.178.307zm1.719.605c.199-.114.021-.42-.177-.306-.199.115-.021.421.177.307zm-2.853-1.776c.198-.114.02-.421-.178-.306-.196.113-.02.421.178.306zm6.895 5.611c.198-.114.021-.421-.177-.306-.199.114-.022.421.177.306zm-2.268-2.345c.198-.115.02-.422-.178-.307-.198.114-.02.421.178.307zm-1.385-2.399c.198-.114.021-.421-.177-.306-.199.114-.022.421.177.306zm-1.556-2.298c.198-.115.02-.422-.178-.307-.196.113-.02.421.178.307zm2.515-2.367c.199-.114.022-.421-.177-.306-.196.113-.019.42.177.306zm2.59-2.636c.198-.114.021-.42-.177-.306-.197.113-.02.42.177.307zm-7.114 5.478c.198-.115.02-.421-.178-.307-.198.115-.02.422.178.307zm2.038 5.903c.198-.115.021-.422-.177-.307-.199.114-.021.421.177.307zm-1.998-2.271c.198-.114.021-.421-.178-.307-.196.114-.019.421.178.307zm9.076 5.037c.198-.115.021-.422-.177-.307-.199.115-.022.421.177.307zm-4.026-7.017l.099.172c.046.08.16.118.242.065a.181.181 0 00.065-.242l-.1-.172c-.046-.08-.16-.117-.242-.065-.081.053-.114.157-.064.243zm1.498-4.086c.198-.115.02-.422-.178-.307-.196.113-.02.421.178.307zm1.396 15.867c.199-.114.022-.421-.177-.307-.198.115-.02.422.178.307zm-2.124-2.885c.199-.114.022-.421-.177-.307-.196.114-.02.422.177.307zm4.22 5.328c.198-.114.021-.421-.177-.306-.199.114-.022.421.177.306zm2.676.283c.198-.114.021-.421-.177-.306-.199.114-.022.421.177.306zm1.708 3.355c.198-.115.02-.421-.178-.307-.198.115-.021.422.177.307zm1.483 2.57c.199-.115.021-.421-.177-.307-.199.115-.021.422.177.307zm2.319 3.228c.199-.115.022-.422-.177-.307-.196.113-.02.42.177.307zm4.28 1.869c.198-.114.021-.421-.177-.307-.199.115-.022.422.177.307zm2.475-.059c.199-.115.022-.422-.177-.307-.196.113-.02.42.177.307zm1.983-.916c.2-.115.022-.422-.176-.307-.197.113-.02.42.177.307zm1.3-.521c.198-.114.02-.421-.178-.307-.197.114-.02.421.177.307z" fill="#000"/><path d="M86.8 122.003c.198-.114.02-.421-.178-.307-.197.114-.02.421.177.307zm-3.19.014c.198-.115.02-.422-.178-.307-.196.113-.019.42.177.307zm-2.01.167l-.369-.242c-.08-.053-.195-.013-.243.066-.05.089-.014.188.067.243l.369.242c.08.053.195.013.243-.066.05-.089.013-.19-.067-.243zm-1.008-.253c.198-.114.021-.421-.177-.307-.199.115-.022.422.177.307zm.916 1.984c.199-.115.021-.422-.177-.307-.197.113-.02.42.177.307zm-.488.737c.198-.114.021-.421-.177-.307-.197.114-.02.421.177.307zm-.044.713c.198-.114.021-.421-.177-.307-.199.115-.022.422.177.307zm-4.029-6.581c.199-.115.021-.422-.177-.307-.197.113-.02.42.177.307zm-3.901-.034c.198-.114.02-.421-.178-.307-.198.115-.02.422.178.307zm-.935-1.264l.198.342c.114.199.421.021.306-.177l-.197-.342c-.113-.196-.42-.019-.307.177zm3.196 2.016c.199-.115.022-.422-.177-.307-.198.114-.021.421.177.307zm-3.667-7.934c.2-.114.022-.421-.176-.307-.199.115-.022.422.177.307zm10.543-23.672c.198-.114.021-.421-.177-.307-.199.115-.022.422.177.307zm1.681 2.912c.198-.115.021-.422-.177-.307-.199.115-.022.422.177.307zm2.418 3.399c.199-.114.022-.421-.177-.306-.196.113-.02.42.177.306zm.819 1.811c.199-.114.021-.421-.177-.307-.199.115-.021.422.177.307zm1.509 3.012c.199-.115.022-.422-.177-.308-.198.115-.021.422.177.307zm1.51 3.012c.2-.115.022-.422-.177-.307-.196.113-.019.42.178.307zm1.234 1.342c.198-.115.021-.421-.177-.307-.199.115-.022.422.177.307zm1.554 2.3c.199-.114.022-.421-.177-.307-.196.114-.02.421.177.307zm2.565 2.86c.198-.115.021-.422-.177-.307-.197.113-.02.42.177.307zm2.262 2.245c.214.106.427.21.639.317.203.101.38-.206.176-.309-.214-.106-.427-.21-.638-.317-.204-.098-.382.209-.177.309zm2.978.895c.198-.115.021-.421-.177-.307-.197.114-.022.422.177.307zm2.108-.303c.198-.115.021-.422-.177-.307-.197.113-.019.42.177.307zm1.228-.251c.198-.114.021-.421-.177-.307-.199.115-.022.422.177.307z" fill="#000"/><path d="M104.049 111.13c.198-.114.021-.421-.177-.307-.199.115-.022.422.177.307zm-3.811-1.455c.198-.115.021-.422-.178-.307-.196.113-.019.42.178.307zm.567.586c.199-.115.021-.421-.177-.307-.199.115-.021.422.177.307zm-4.275-4.186c-.311-.275-.624-.553-.934-.83-.169-.15-.42.101-.25.254.312.275.625.553.935.829.171.15.42-.1.25-.253z" fill="#000"/><path d="M95.73 105.427c.199-.115.022-.422-.177-.307-.198.114-.02.421.178.307zm-2.492-3.131c.199-.115.022-.421-.177-.307-.198.115-.021.422.177.307zm-2.168-2.174c.198-.115.02-.421-.178-.307-.198.115-.021.422.177.307zm-1.187-2.054c.199-.115.022-.422-.177-.307-.198.114-.021.421.177.307zm.664.757c.198-.115.021-.422-.177-.307-.197.113-.02.42.177.307zm-2.822-4.056l-1.061-1.442c-.135-.181-.443-.006-.307.178l1.061 1.441c.135.181.443.006.307-.177z" fill="#000"/><path d="M87.39 94.937c.2-.114.022-.421-.176-.307-.199.115-.022.422.177.307z" fill="#000"/><path d="M87.39 94.937c.2-.114.022-.421-.176-.307-.199.115-.022.422.177.307zm-.653-3.505c.199-.114.021-.421-.177-.306-.199.114-.021.421.177.306zm-1.377-.802c.198-.115.02-.422-.178-.308-.196.114-.021.422.177.307zm-1.584-2.742c.199-.115.022-.422-.177-.308-.196.114-.021.422.177.308z" fill="#000"/><path d="M83.435 88.085c.198-.115.021-.422-.178-.307-.198.114-.02.421.178.307z" fill="#000"/><path d="M83.435 88.085c.198-.115.021-.422-.178-.307-.198.114-.02.421.178.307zm-.152-1.053c.198-.114.021-.421-.177-.307-.197.114-.022.422.177.307zm2.78 2.048c.199-.115.022-.422-.177-.307-.196.113-.021.421.177.307zm-1.797 4.008c.199-.114.022-.421-.177-.307-.196.114-.021.422.177.307zm3.31 4.939c.199-.114.022-.421-.177-.307-.198.115-.021.422.177.307zm1.147-1.573c.198-.114.02-.421-.178-.306-.196.113-.02.421.178.306zm2.934 3.102c.198-.114.02-.421-.177-.306-.199.114-.022.421.177.306zm2.048 3.156c.198-.115.021-.422-.177-.307-.197.113-.02.42.177.307zm2.143 1.733c.199-.115.022-.422-.177-.307-.198.115-.021.421.177.307zm-1.858 1.529c.198-.115.02-.422-.178-.307-.196.113-.019.42.177.307zm5.807 3.726c.198-.114.02-.421-.178-.306-.198.114-.02.421.178.306zm-2.353.674c.198-.114.021-.421-.177-.307-.197.114-.02.421.177.307zm2.612 2.148c.198-.115.021-.422-.177-.307-.199.114-.022.421.177.307zm2.318-2.708c.199-.115.022-.422-.177-.307-.198.114-.021.421.177.307zm1.548.705c.198-.115.021-.422-.177-.307-.197.113-.02.42.177.307zM87.267 61.892c.199-.114.022-.421-.177-.307-.196.114-.02.42.177.307zm3.059 3.715c.198-.115.021-.421-.177-.307-.197.114-.02.42.177.307zm1.762 4.237c.198-.114.02-.421-.178-.307-.196.114-.02.422.178.307zm-.951-2.397l-.061-.107c-.046-.08-.16-.117-.242-.065a.18.18 0 00-.065.242l.061.107c.046.08.16.117.242.065.08-.052.115-.157.065-.242l-.061-.107c-.046-.08-.16-.117-.242-.065a.18.18 0 00-.065.242l.061.107c.046.08.16.117.242.065.08-.052.115-.157.065-.242zm-2.675-1.907c.199-.115.021-.422-.177-.307-.198.114-.021.421.177.307zm-.91-.386c.198-.114.021-.421-.177-.307-.197.114-.02.42.177.307zm-1.14-2.768c.199-.115.021-.422-.177-.307-.199.115-.021.422.177.307zm5.998 8.413c.198-.115.02-.422-.178-.307-.196.113-.019.42.177.307zm2.896 5.409c.199-.114.022-.421-.177-.307-.198.115-.021.422.177.307zm2.096 2.443c.198-.114.02-.421-.177-.306-.199.114-.022.421.177.306zm2.076 3.598c.199-.115.022-.422-.177-.307-.198.114-.021.421.177.307zm1.755 2.642c.199-.115.021-.422-.177-.307-.199.115-.021.422.177.307zm1.708 3.355c.198-.115.021-.422-.177-.307-.199.114-.022.421.177.307zm.915 1.981c.198-.114.021-.421-.178-.307-.196.114-.021.422.178.307zm1.411 2.841c.198-.115.021-.421-.177-.307-.197.114-.02.42.177.307zm.495.857c.198-.114.021-.421-.177-.306-.197.113-.02.42.177.306zm-55.426-.663c.199-.115.022-.422-.177-.307-.198.114-.021.421.177.307zm-.066 1.865c.199-.114.022-.421-.177-.306-.196.113-.021.421.177.306zm3.554 4.573c.199-.115.021-.422-.177-.307-.198.114-.021.421.177.307zm2.366 2.516c.2-.115.022-.422-.176-.307-.199.114-.022.421.177.307z" fill="#000"/><path d="M56.29 102.387c.198-.114.021-.421-.177-.306-.199.114-.022.421.177.306zm1.07 3.039c.198-.115.02-.422-.178-.307-.198.114-.021.421.177.307zm1.916.947c.198-.114.021-.421-.177-.307-.197.114-.022.422.177.307zm1.556 2.299c.199-.115.021-.421-.177-.307-.199.115-.021.422.177.307zm2.097 2.445c.198-.114.021-.421-.177-.307-.199.115-.022.422.177.307zm1.061 1.442c.199-.115.021-.422-.177-.307-.199.115-.021.421.177.307zm.467.415c.198-.114.02-.421-.178-.307-.196.114-.019.421.178.307zm1.431 1.686c.199-.114.021-.421-.177-.307-.198.115-.021.422.177.307zm.594 1.03c.199-.115.022-.422-.177-.307-.198.114-.021.421.177.307z" fill="#000"/><path d="M66.482 115.69c.199-.115.022-.422-.177-.307-.198.114-.021.421.177.307zm2.023 2.714c.199-.115.021-.422-.177-.307-.197.113-.02.42.177.307zm.667.758c.198-.115.021-.422-.177-.307-.199.115-.022.421.177.307zm-5.34-3.315c.198-.114.021-.421-.177-.306-.197.113-.022.421.177.306zm-4.536-4.69c.199-.114.022-.421-.177-.306-.196.113-.02.42.177.306zm-7.543-63.705c.199-.115.021-.422-.177-.307-.199.115-.022.421.177.307zm-5.492 1.569c.199-.114.022-.421-.177-.307-.196.114-.019.42.177.307zm-3.306.998c.199-.115.022-.422-.177-.307-.196.113-.02.42.177.307zM40.044 51.7c.198-.115.021-.422-.177-.307-.199.114-.022.421.177.307zm-3.664-1.996c.198-.114.02-.421-.178-.306-.196.113-.021.421.177.306zm-3.793-.727l-.612.125c-.225.045-.134.388.09.344l.612-.125c.225-.045.133-.388-.09-.344zm-1.46.333c.198-.114.02-.421-.178-.307-.196.114-.02.422.178.307zm-2.151-3.328c.198-.114.021-.421-.177-.306-.197.113-.02.42.177.306zm-1.193-3.648c.199-.115.021-.422-.177-.307-.196.113-.02.42.177.306zm-1.266-3.381c.198-.114.02-.421-.178-.306-.196.113-.019.42.178.306zm-.067-4.073c.2-.114.022-.421-.176-.307-.199.115-.021.422.177.307zm2.088-5.09c.198-.114.021-.42-.178-.306-.198.114-.02.421.178.307zm1.454-3.807c.198-.115.021-.422-.177-.307-.197.113-.021.421.177.307zm2.445-2.097c.199-.114.022-.421-.177-.307-.198.115-.021.422.177.307zm-1.31 3.269c.199-.114.021-.421-.177-.307-.198.115-.021.422.177.307z" fill="#000"/><path d="M28.44 29.62c.198-.114.02-.42-.178-.306-.198.114-.02.421.178.307zm-1.265 2.559c.198-.115.021-.422-.177-.307-.199.114-.022.421.177.307zm2.812 14.363c.198-.114.02-.421-.178-.307-.198.115-.02.422.178.307zm-2.724-5.507c.198-.114.021-.421-.177-.307-.197.114-.022.422.177.307zm-.237 1.962c.198-.114.021-.421-.177-.307-.199.115-.021.422.177.307zm2.129 4.481c.198-.115.021-.422-.178-.307-.196.114-.019.42.178.307zm3.969 4.106c.198-.115.021-.422-.177-.307-.197.113-.02.42.177.307zm.33-3.388c.198-.115.021-.422-.177-.307-.199.114-.022.421.177.307zm2.543 4.012c.199-.114.021-.421-.177-.306-.197.113-.02.42.177.306zm3.83.302c.198-.115.021-.422-.177-.307-.199.115-.022.421.177.307zm-.706-4.389c.198-.114.021-.421-.177-.306-.199.114-.022.421.177.306zm-3.955-.914c.199-.115.022-.422-.177-.307-.198.115-.021.422.178.307zm-.804 1.376c.199-.115.021-.422-.177-.307-.199.114-.021.421.177.307zm5.533-2.281c.199-.115.022-.422-.177-.307-.196.113-.019.42.177.307zm3.355-1.708c.199-.114.021-.421-.177-.307-.197.114-.021.422.177.307zm4.572-3.554c.199-.114.021-.42-.177-.306-.198.114-.021.421.177.307zm3.907-4.309c.198-.115.021-.422-.178-.307-.196.114-.02.422.178.307zm-6.298 7.289c.199-.115.021-.422-.177-.307-.199.114-.021.421.177.307zm-3.762 3.77c.198-.114.021-.42-.177-.306-.197.113-.02.42.177.307zM39 49.102c.198-.114.021-.421-.177-.306-.197.113-.02.42.177.306zm.804-1.375c.199-.115.022-.422-.177-.307-.196.113-.019.42.177.307zm4.857-.292c.199-.114.021-.421-.177-.307-.196.114-.02.42.177.307zm6.513 1.745l.1.172c.045.08.16.118.241.065.082-.053.115-.156.065-.242l-.1-.172c-.045-.08-.16-.117-.241-.065a.18.18 0 00-.065.242zm3.344-2.869c.199-.114.021-.421-.177-.307-.197.114-.02.42.177.307zm2.167-3.764c.199-.114.022-.421-.177-.307-.196.114-.021.422.177.307zM37.744 53.254c.198-.115.021-.421-.177-.307-.199.115-.022.422.177.307zm-1.484-2.57c.199-.114.021-.421-.177-.307-.198.115-.021.422.177.307zm.409-2.061c.198-.114.021-.421-.177-.307-.199.115-.022.422.177.307zm-3.858-22.898c.199-.115.022-.422-.177-.307-.196.113-.02.42.177.307zm2.213-1.565l.072-.27c.025-.09-.031-.198-.125-.217a.18.18 0 00-.217.125l-.072.271c-.025.09.032.197.125.217.093.02.19-.03.217-.125zm1.128-3.332c.199-.115.021-.422-.177-.307-.199.114-.021.421.177.307zm-6.172 7.903c.199-.114.022-.421-.177-.307-.196.114-.021.422.177.307zm-3.425 1.978c.199-.115.021-.422-.177-.307-.198.114-.021.421.177.307zm2.066-3.935c.199-.114.021-.421-.177-.307-.197.114-.02.42.177.307zm-3.219 9.852c.198-.114.021-.421-.177-.307-.197.114-.02.42.177.307zm2.338 12.356c.198-.114.021-.421-.177-.307-.197.114-.022.422.177.307zm-2.642 1.752c.199-.115.021-.422-.177-.307-.198.114-.021.421.177.307zm-2.715 2.026c.199-.115.021-.422-.177-.307-.197.113-.02.42.177.307zm-.875 1.645c.198-.114.021-.421-.177-.307-.199.115-.021.422.177.307zm-1.102.865c.199-.114.021-.42-.177-.306-.196.113-.02.42.177.307zm-1.658 1.872c.198-.115.02-.422-.178-.307-.198.115-.02.422.178.307zm-.462 1.18c.199-.114.021-.421-.177-.306-.197.113-.02.42.177.306z" fill="#000"/><path d="M18.286 58.322c.199-.114.021-.421-.177-.306-.197.113-.02.42.177.306zm10.522-6.303c.199-.115.021-.422-.177-.307-.198.114-.021.421.177.306zm2.511 1.976c.198-.114.021-.421-.177-.307-.197.114-.02.42.177.307zm-2.478.061c.199-.114.022-.421-.177-.307-.196.114-.019.42.177.307zm.727 3.234c.198-.115.021-.422-.177-.307-.199.114-.021.421.177.307zm-2.69-3.473c.199-.114.022-.421-.177-.307-.198.115-.021.422.177.307zm-.962-1.269c.199-.115.021-.422-.177-.307-.198.114-.021.421.177.307zm-1.483-2.57c.198-.115.02-.422-.178-.307-.198.114-.02.422.178.307zM21.546 52.1c.199-.115.022-.422-.177-.307-.198.114-.021.421.177.307zm-.73 1.106c.198-.114.021-.421-.177-.307-.199.115-.022.422.177.307zm-2.076 2.341c.2-.114.022-.421-.176-.306-.199.114-.022.421.177.306zm-1.092 2.459c.198-.114.021-.421-.177-.307-.199.115-.021.422.177.307zm41.483-33.771c.199-.115.022-.422-.177-.307-.196.113-.02.42.177.307zm2.181-.575c.199-.114.021-.421-.177-.307-.197.114-.021.422.177.307zm2.228-1.286c.199-.115.022-.422-.177-.307-.198.115-.021.421.177.307zm2.476-.06c.198-.114.02-.421-.178-.307-.196.114-.019.42.178.307zm2.406.209c.199-.114.022-.421-.177-.307-.198.115-.021.422.177.307zm1.088 1.885c.199-.115.022-.422-.177-.307-.198.114-.021.421.177.307zm-3.217-.426c.199-.115.022-.422-.177-.307-.196.113-.019.42.177.307zm-3.09.185c.199-.114.022-.421-.177-.307-.196.114-.02.42.177.307zm-2.938 1.238c.199-.114.021-.422-.177-.307-.199.115-.021.422.177.307zm.646 1.913c.199-.115.022-.421-.177-.307-.196.114-.02.42.177.307zm1.919.947c.199-.115.021-.422-.177-.307-.199.114-.021.421.177.307zm1.31-3.269c.198-.115.021-.422-.177-.307-.199.114-.021.421.177.307zm-.394 5.252c.199-.114.021-.421-.177-.307-.199.115-.021.422.177.307zm1.331 1.516c.198-.115.02-.422-.178-.307-.196.113-.019.42.178.307zm-6.304 5.696c.199-.115.022-.422-.177-.307-.198.114-.021.421.177.307zm-.318-5.3c.199-.114.022-.421-.177-.307-.198.115-.021.422.177.307zm-1.76-4.235c.198-.115.021-.422-.177-.307-.199.115-.022.422.177.307zm-1.303 4.863c.198-.114.02-.421-.178-.306-.198.114-.021.421.178.306zm-4.261 13.195c.199-.114.022-.421-.177-.307-.196.114-.019.42.177.307zm-2.667 1.311c.199-.115.022-.422-.177-.307-.198.114-.021.421.177.307zm-1.385-.774l-.297-.514c-.114-.198-.421-.021-.306.177l.296.514c.113.196.42.019.307-.177zm-.811-1.84c.198-.115.02-.422-.178-.307-.196.113-.019.42.178.307zm.225.783c.199-.114.022-.421-.177-.307-.198.115-.02.422.177.307zm-8.468-22.975c.198-.114.021-.421-.177-.307-.199.115-.022.422.177.307zm2.245-2.439c.198-.115.02-.422-.178-.307-.196.113-.019.42.178.307zm5.08.493c.199-.114.021-.421-.177-.307-.196.114-.02.42.177.307zm6.097 2.646c.199-.115.021-.422-.177-.307-.199.114-.021.421.177.306zm-15.23 34.145c.198-.114.021-.421-.177-.307-.199.115-.022.422.177.307zm6.18-.371c.199-.115.022-.421-.177-.307-.198.115-.021.422.177.307zm3.649-1.192c.199-.115.022-.422-.177-.308-.196.114-.02.42.177.307zm3.725-1.464c.199-.114.021-.421-.177-.307-.198.115-.021.422.177.307zm4.327-3.186c.198-.114.02-.42-.178-.306-.196.113-.019.42.178.307zm-5.198.49c.197-.115.02-.422-.178-.307-.197.113-.021.421.177.307zm-16 5.125c.2-.114.022-.421-.176-.307-.197.114-.02.42.177.307zm-2.204 6.072c.199-.115.021-.422-.177-.307-.196.113-.02.42.177.307zm-.966 3.07c.198-.114.021-.421-.177-.307-.199.115-.022.422.177.307zm-.653 2.431c.198-.114.02-.421-.178-.307-.196.114-.02.422.178.307zm5.083-9.788c.199-.114.022-.421-.177-.307-.198.115-.02.422.178.307zm3.882 1.186c.199-.115.021-.422-.177-.307-.196.113-.021.421.177.307zm-3.527-4.129c.199-.115.021-.422-.177-.307-.196.113-.02.42.177.306zm3.685.84c.199-.115.022-.422-.177-.307-.198.115-.021.422.177.307zm-4.44 5.761c.198-.114.021-.421-.177-.307-.197.114-.022.422.177.307zm-.944-2.423c.199-.115.021-.422-.177-.307-.196.113-.02.42.177.307zm-.025 5.495c.199-.115.022-.422-.177-.307-.196.113-.019.42.178.307zm-1.986 5.258c.198-.115.021-.421-.177-.307-.199.115-.021.422.177.307zm-.258 3.117c.199-.115.022-.422-.177-.307-.196.113-.021.421.177.307zm5.316 8.809c.198-.114.02-.421-.178-.307-.198.115-.02.422.178.307zm4.251 1.428c.198-.115.02-.422-.178-.307-.198.115-.021.421.178.307zm5.639-.514c.199-.115.021-.422-.177-.307-.197.113-.02.42.177.307zm4.005-4.14c.198-.115.02-.421-.178-.307-.196.114-.019.42.178.307zM74.06 60.38c.2-.114.022-.421-.176-.306-.197.113-.02.42.177.306zm-2.049-3.157c.199-.114.022-.421-.177-.307-.198.115-.021.422.177.307zm7.493 2.298c.198-.114.021-.421-.177-.307-.197.114-.02.42.177.307zm4.151-4.68c.198-.114.021-.421-.177-.307-.199.115-.022.422.177.307zm.69-4.739c.199-.114.022-.421-.177-.307-.198.115-.021.422.177.307zm-1.531-7.793c.198-.115.021-.422-.177-.307-.197.113-.022.421.177.307zm-11.416-7.113c.199-.115.022-.422-.177-.307-.198.114-.02.421.177.307zm-4.468-.618c.2-.115.022-.422-.177-.307-.198.115-.02.422.178.307zm-4.028-.645c.199-.115.022-.422-.177-.307-.196.113-.019.42.177.307zm41.31 53.349c.199-.114.022-.421-.177-.307-.198.115-.021.422.177.307zm-7.542 14.631c.199-.114.022-.421-.177-.307-.196.114-.021.422.177.307zm-5.601-7.727c.198-.115.02-.421-.178-.307-.198.115-.02.422.178.307zm-2.809-2.489c.198-.115.02-.422-.178-.307-.196.113-.02.42.177.307zm-4.02-4.987c.198-.115.02-.422-.178-.308-.198.115-.021.422.177.307zm19.065 21.903l.099.172c.046.08.161.118.242.065a.18.18 0 00.065-.242l-.099-.172c-.046-.08-.161-.117-.242-.065-.082.053-.115.156-.065.242zm-5.33-5.625c.199-.115.022-.422-.177-.307-.196.113-.02.42.177.307zm-7.691-8.578c.198-.115.021-.422-.177-.307-.199.114-.022.421.177.307zm-13.198 22.237c.198-.115.02-.422-.178-.307-.198.115-.02.422.178.307zm-3.337-5.382c.198-.115.021-.422-.177-.307-.199.114-.022.421.177.307zm-3.85-5.086c.198-.115.021-.421-.177-.307-.199.115-.022.422.177.307zm-2.644-4.183c.198-.115.02-.422-.178-.307-.196.113-.019.42.178.307zm-1.959-4.579c.198-.115.02-.421-.178-.307-.196.114-.019.42.178.307zm1.857-7.467c.198-.115.021-.421-.177-.307-.199.115-.022.422.177.307zm12.712-9.626c.199-.114.022-.421-.177-.307-.196.114-.019.42.177.307zm4.283-2.472c.198-.115.021-.422-.177-.307-.197.113-.02.42.177.307zm2.716-2.024c.199-.115.021-.422-.177-.307-.198.115-.021.422.177.307zm-8.774 7.35c.198-.115.02-.422-.178-.307-.199.114-.021.421.177.307zm-2.222 2.881c.198-.115.021-.421-.177-.307-.197.114-.02.42.177.307zm-2.542 1.925c.199-.114.022-.421-.177-.306-.198.114-.02.421.177.306zm-3.434.384c.199-.114.022-.421-.177-.307-.196.114-.019.42.177.307zm-.712-.047c.199-.114.022-.421-.177-.307-.196.114-.019.42.178.307zm-2.676 2.339c-.193.72-.386 1.443-.58 2.162-.058.22.284.311.343.092.193-.72.386-1.443.58-2.162.058-.22-.285-.313-.343-.092zm1.294 1.201c.198-.115.021-.421-.177-.307-.197.114-.02.42.177.307zm-2.58 4.231c.199-.114.022-.421-.177-.307-.198.115-.021.422.177.307zm3.244 28.961c.198-.115.021-.422-.178-.307-.198.114-.02.421.178.307zm.382 3.431c.199-.114.022-.421-.177-.306-.198.114-.021.421.177.306zm1.484 2.57c.199-.114.022-.421-.177-.306-.198.114-.021.421.177.306zm1.952 2.984c.199-.114.022-.421-.177-.306-.198.114-.021.421.177.306zm2.419 3.4c.198-.114.02-.421-.178-.307-.196.114-.02.422.178.307zm1.135 1.173c.198-.115.021-.422-.177-.307-.199.114-.022.421.177.307zm2.306.038c.198-.114.02-.421-.178-.307-.198.115-.02.422.177.307zm.354-2.944c.199-.114.022-.421-.177-.307-.196.114-.02.421.177.307zm.77-3.415c.199-.115.021-.422-.177-.307-.199.115-.022.421.177.307zm-.185-3.09c.198-.115.02-.422-.178-.307-.198.114-.02.421.178.307zm-7.978 4.379c.199-.115.021-.421-.177-.307-.199.115-.021.422.177.307zm-1.927-2.543c.199-.115.022-.422-.177-.307-.196.113-.02.42.177.307zm-.85-3.85c.199-.114.022-.421-.177-.307-.199.115-.021.422.177.307zm.599-3.314c.199-.115.022-.421-.177-.307-.198.115-.021.422.177.307zm9.78 3.49c.198-.114.02-.421-.178-.306-.196.113-.02.421.177.306zm2.05 3.155c.198-.115.021-.422-.177-.307-.199.114-.022.421.177.307zm-.942 3.514c.198-.115.021-.421-.177-.307-.197.114-.02.42.177.307zm.213 3.53c.198-.114.021-.421-.177-.307-.199.115-.021.422.177.307zm29.665-43.164c.199-.115.022-.422-.177-.307-.198.114-.021.421.177.307zm2.36.921c.199-.115.021-.422-.177-.307-.199.115-.021.421.177.307zm1.873 1.226l.099.172c.046.08.161.118.242.065a.18.18 0 00.065-.242l-.099-.172c-.046-.08-.16-.117-.242-.065a.18.18 0 00-.065.242zm2.096 2.88c.199-.115.022-.422-.177-.307-.198.114-.021.421.177.307zm1.752 2.641c.198-.114.021-.421-.177-.307-.197.114-.02.421.177.307zm.925 3.578c.198-.115.021-.422-.177-.307-.199.114-.022.421.177.307zm.843 2.254c.199-.114.022-.421-.177-.307-.196.114-.019.421.177.307zm-10.525-5.572c.198-.114.021-.421-.178-.307-.196.114-.019.421.178.307zm1.525 1.452l-.172.099c-.079.046-.117.161-.064.242a.18.18 0 00.242.065l.171-.099c.08-.046.118-.161.065-.242a.18.18 0 00-.242-.065zm1.804 2.336c.199-.115.022-.422-.177-.307-.198.114-.021.421.177.307zm2.782 2.049c.199-.114.022-.421-.177-.307-.198.115-.021.422.177.307zm2.458 1.091c.199-.114.021-.421-.177-.307-.199.115-.021.422.177.307zm-4.11-13.843c.198-.114.021-.421-.177-.307-.197.114-.022.422.177.307zm2.466 2.688c.198-.115.021-.422-.178-.307-.198.115-.021.422.178.307zm1.51 3.013c.198-.115.021-.422-.177-.307-.197.113-.019.42.177.307zm2.031 4.308c.199-.115.022-.422-.177-.307-.198.114-.021.421.177.307zm1.437 3.282c.198-.115.021-.422-.177-.307-.197.113-.019.42.177.307zm.324.953c.198-.115.021-.422-.177-.307-.199.115-.022.421.177.307zm-69.117-17.65c.198-.115.021-.422-.177-.307-.199.115-.022.422.177.307zm1.982-.918c.199-.115.022-.422-.177-.307-.198.114-.021.421.177.307zm3.175-3.202c.198-.115.02-.422-.178-.307-.196.113-.02.42.177.307zm1.542-.891c.198-.114.021-.421-.177-.307-.199.115-.022.422.177.307zm3.913-2.715c.199-.114.021-.421-.177-.307-.197.114-.02.42.177.307zm2.419-.738l.242-.37c.053-.08.013-.195-.066-.243-.089-.05-.188-.014-.243.067l-.242.369c-.053.08-.013.195.066.243.089.05.189.014.243-.067zm.862-.7c.198-.115.021-.422-.177-.307-.197.113-.02.42.177.307zm.382-2.504c.198-.115.021-.422-.177-.307-.199.114-.022.421.177.307zm2.344-2.267c.198-.115.021-.422-.177-.307-.197.113-.02.42.177.306zm1.47-.62c.198-.115.021-.422-.177-.307-.197.113-.02.42.177.307zm3.156-2.051c.199-.115.021-.422-.177-.307-.198.114-.021.421.177.307zm3.282-1.437c.198-.114.021-.421-.177-.307-.199.115-.022.422.177.307zm1.613-1.161c.199-.114.022-.421-.177-.306-.196.113-.021.421.177.306zm2.713-2.024c.199-.115.022-.422-.177-.307-.196.113-.019.42.177.307zm2.238-1.756l.415-.469c.15-.169-.1-.42-.253-.25-.14.157-.276.313-.415.47-.15.17.102.42.253.249zm1.065-.836c.198-.114.021-.421-.177-.307-.199.115-.022.422.177.307zm1.613-1.16c.199-.115.022-.422-.177-.307-.198.114-.021.421.177.307zm-.889-1.541c.198-.115.021-.422-.177-.307-.199.114-.022.421.177.307zm-1.333-1.514c.199-.115.022-.422-.177-.307-.196.113-.02.42.177.307zm-.749 2.261c.198-.115.021-.422-.177-.308-.199.115-.022.422.177.307zm-1.199.691c.199-.114.021-.421-.177-.307-.199.115-.021.422.177.307zm-1.219 1.845c.199-.115.022-.422-.177-.307-.198.114-.021.421.177.306zm-2.173 2.169c.198-.115.02-.422-.178-.307-.199.114-.021.421.177.307zM51.87 90.778c.199-.115.022-.422-.177-.307-.196.113-.021.421.177.306zm2.517-2.365c.199-.114.022-.421-.177-.307-.196.114-.02.42.177.307zm3.597-2.077c.199-.114.022-.421-.177-.306-.196.113-.02.42.177.306zm2.076-2.341c.198-.114.02-.421-.178-.307-.196.114-.02.42.177.307zm2.273-1.997c.198-.115.02-.421-.178-.307-.196.114-.02.422.178.307zm-4.099-.375c.198-.115.021-.422-.177-.307-.199.114-.022.421.177.307zm1.581-3.196c.199-.115.021-.422-.177-.307-.199.114-.021.421.177.306zm-.351-1.397c.199-.114.022-.421-.177-.307-.196.114-.021.422.177.307zm16.723-7.827c.198-.114.02-.421-.178-.306-.196.113-.02.421.178.306zm-3.047-.527c.199-.115.022-.421-.177-.307-.196.114-.02.42.177.307zm-1.62-.434c.199-.115.021-.422-.177-.307-.197.113-.021.421.177.307zm4.7 2.996c.2-.115.022-.421-.176-.307-.199.115-.022.422.177.307zm-3.09 1.375l-.513.297c-.199.114-.022.421.177.307l.513-.297c.199-.114.022-.421-.177-.307zm-.923 1.171c.199-.114.022-.421-.177-.307-.196.114-.019.42.177.307zm-.843-2.254c.198-.115.021-.422-.177-.307-.199.114-.022.421.177.306zm-2.41 4.132c.199-.114.022-.421-.177-.306-.198.114-.021.421.177.306zm-4.429 3.013c.199-.114.022-.421-.177-.307-.196.114-.021.422.177.307zm-2.78-2.047c.198-.115.02-.422-.178-.307-.196.113-.02.421.178.307zm3.813-2.888c.199-.114.022-.42-.177-.306-.196.113-.019.42.177.307zM46.412 33.6a1.536 1.536 0 10-1.535-2.66 1.536 1.536 0 001.535 2.66zm-6.892 5.323a1.536 1.536 0 10-1.535-2.66 1.536 1.536 0 001.535 2.66z" fill="#000"/></svg>