<svg width="165" height="119" fill="none" xmlns="http://www.w3.org/2000/svg"><path d="M50.53 89.497s2.026.563 3.128.43c1.104-.132 2.984-.404 2.984-.404s-.167.188-.298.464c0 0-.587 1.104-.368 2.097.22.991 1.442 2.524 3.138 3.368 1.697.843 4.65.994 6.165.7 1.516-.293 15.305-4.195 15.305-4.195l10.228-3.438 9.132-3.556 9.12-3.656 8.242-3.503 9.498-4.274 11.45-5.249 8.803-4.5 7.295-4.534s3.29-2.42 3.792-2.985c.501-.566 1.914-2.07 2.057-3.47.143-1.4.066-3.15-1.275-4.81-1.342-1.661-3.43-2.57-4.814-2.844-1.385-.273-3.081-.397-5.499-.074-2.417.323-5.243 1.587-5.243 1.587l-4.143 2.27s.85-2.084.801-5.382c-.048-3.298-1.469-6.337-2.483-7.913-1.016-1.573-3.758-4.387-6.683-5.657-2.925-1.27-3.244-1.376-5.561-1.938-2.317-.562-6.499-.538-8.421.035-1.922.574-4.303 1.626-5.208 2.257-.905.63-2.883 1.986-4.458 3.876-1.575 1.889-1.652 2.47-1.652 2.47l-.996-.849s-4.973-3.257-8.761-4.456c-3.79-1.201-6.917-1.853-8.787-2.031-1.87-.179-6.221-.398-9.104.102-2.883.497-6.02 1.436-8.388 2.255-2.367.821-6.37 2.312-10.439 3.186-4.07.873-9.166 1.885-11.574 2.164-2.409.28-8.551.967-11.764.799-3.213-.17-6.575-.375-9.684-1.44-3.11-1.066-5.748-2.512-7.297-3.712-1.55-1.2-4.258-4.247-4.258-4.247l-.703.388 2.212 12.263 1.456 5.932s1.446 4.17 3.708 5.896c2.262 1.728 4.351 2.895 6.073 3.645 1.721.75 9.925 3.973 13.522 5.739a391.877 391.877 0 005.502 2.66s2.917 1.729 3.959 3.182c1.04 1.455 1.429 2.682 1.429 2.682s-1.9 1.027-3.988 2.87c-2.088 1.841-2.308 2.424-3.23 4.111-.92 1.689-.728 4.462-.093 6.144.636 1.682 2.46 3.765 4.058 4.62 1.592.859 2.114.925 2.114.925z" fill="#fff"/><path d="M109.69 38.441c-2.714-1.145-6.187-.078-7.017 2.958-.357 1.303-.169 2.785.644 3.885 1.046 1.418 2.845 1.934 4.483 2.302.221.05.315-.292.092-.342-2.751-.617-5.606-2.128-4.95-5.445.591-2.982 3.95-4.154 6.568-3.051.209.087.389-.22.18-.307z" fill="#000"/><path d="M105.006 38.057c2.625-5.615 8.232-9.633 14.422-10.225 6.743-.646 14.916 2.672 18.436 8.66 3.497 5.954 2.094 13.81-2.143 18.997-4.185 5.123-11.21 7.323-17.618 5.83-6.968-1.624-12.273-7.686-13.32-14.707-.033-.224-.376-.13-.343.094.945 6.331 5.338 11.992 11.353 14.28 6.22 2.367 13.664 1.013 18.555-3.522 4.982-4.619 7.229-12.2 4.953-18.695-2.409-6.876-10.065-10.816-16.988-11.316-7.341-.528-14.505 3.78-17.613 10.424-.094.205.209.386.306.18z" fill="#000"/><path d="M131.75 51.925c-2.596-1.916-6.052-2.608-8.748-.498-.18.14.071.391.25.253 2.569-2.012 5.876-1.253 8.32.552.182.134.36-.173.178-.307zm-28.594-6.048c-6.74-1.657-13.902-3.055-20.869-3.07-4.871-.011-11.304 2.061-11.802 7.818-.533 6.177 6.622 9.552 10.956 12.237 2.868 1.776 5.832 3.603 9.15 4.394 2.322.554 5.198.728 7.233-.76 2.338-1.707 1.965-4.879.706-7.136-1.436-2.574-4.025-4.339-6.915-4.835-.223-.037-.317.305-.092.343 2.565.44 4.876 1.883 6.328 4.06 1.584 2.377 2.161 6.039-.781 7.626-2.425 1.309-5.586.728-8.051-.132-2.782-.973-5.299-2.563-7.79-4.108-4.161-2.583-10.91-5.797-10.389-11.692.54-6.112 7.723-7.636 12.666-7.432 6.573.272 13.18 1.463 19.56 3.03.218.054.31-.289.09-.343z" fill="#000"/><path d="M139.527 48.97c3.469-2.355 7.711-3.856 11.933-3.903 2.48-.028 5.046.62 6.805 2.464 1.588 1.666 2.384 4.156 1.367 6.327-.982 2.095-3.153 3.524-4.964 4.834a78.761 78.761 0 01-5.835 3.818c-3.948 2.349-8.067 4.4-12.226 6.34-17.213 8.037-34.71 15.828-52.753 21.814-4.98 1.652-10.013 3.155-15.1 4.449-2.548.647-5.298 1.322-7.917.691-1.08-.26-2.109-.729-2.973-1.43a5.46 5.46 0 01-1.205-1.333 4.586 4.586 0 01-.394-.793c-.287-.757-.065-.453.435-1.278-.119.196.188.376.306.18.448-.74-.745-1.288-1.183-.53-.761 1.315.913 3.302 1.838 4.05 3.693 2.975 8.785 1.426 12.88.344 10.86-2.87 21.46-6.638 31.873-10.831 10.287-4.142 20.41-8.677 30.51-13.252 5.022-2.274 10.025-4.617 14.807-7.367a80.861 80.861 0 006.769-4.318c1.805-1.29 3.867-2.64 5.071-4.55 2.663-4.223-1.161-8.821-5.372-9.727-4.993-1.074-10.74.901-14.853 3.693-.184.13-.009.435.181.308z" fill="#000"/><path d="M82.21 79.378a711.839 711.839 0 01-16.566 6.747c-4.737 1.859-10.404 4.919-15.572 3.052-5.057-1.827-7.839-7.987-4.733-12.705 1.505-2.285 3.985-3.898 6.229-5.38 2.154-1.424 4.406-2.697 6.7-3.875 1.373-.706 16.397-7.692 16.551-7.327-.088-.21-.393-.03-.307.177.017.038.031.076.048.113.031.077.129.095.2.083.317-.057.55-.31.334-.615-.453-.638-2.243.548-2.64.726-2.877 1.271-5.773 2.5-8.64 3.797-5.614 2.541-11.306 5.345-16.097 9.279-2.063 1.692-3.684 3.763-3.981 6.486a8.947 8.947 0 002.086 6.755c1.58 1.842 3.883 3.036 6.284 3.34 2.955.373 5.865-.584 8.592-1.612 7.291-2.747 14.51-5.705 21.69-8.732.21-.09.03-.397-.177-.309z" fill="#000"/><path d="M102.194 84.21c-3.267-5.063-6.357-11.02-8.777-16.539 0 0-1.202-.078-3.675-.843-2.474-.765-4.418-1.815-4.418-1.815.163 4.833-.49 10.19-2.879 14.394 0 0 6.585.757 11.199 2.022 4.614 1.266 8.55 2.78 8.55 2.78zm3.476-47.827c-9.614-6.94-21.895-9.25-33.279-5.808-3.172.96-6.273 2.135-9.456 3.06-2.992.869-6.023 1.6-9.084 2.189-6.427 1.237-13.122 2.024-19.676 1.755-7.602-.31-14.6-3.186-19.519-9.12-.146-.175-.396.076-.253.251a25.202 25.202 0 0015.272 8.776c6.16 1.034 12.67.42 18.82-.422A102.328 102.328 0 0067.1 32.702c3.13-1.048 6.241-2.198 9.495-2.82 3.104-.595 6.293-.738 9.444-.476 7.01.585 13.756 3.175 19.45 7.284.185.132.362-.175.18-.307zm-92.016-7.397a167.97 167.97 0 002.37 12.689c.802 3.524 1.45 7.293 3.88 10.114 2.354 2.734 5.657 4.355 8.95 5.678 4.13 1.657 8.268 3.235 12.294 5.143 3.672 1.74 8.582 3.599 10.155 7.709.08.21.422.12.343-.094-1.105-2.887-3.735-4.592-6.365-5.967-3.678-1.922-7.478-3.632-11.326-5.182-3.837-1.547-7.927-2.765-11.3-5.244-1.666-1.227-3.127-2.768-4.059-4.63-.917-1.827-1.342-3.881-1.816-5.857a167.624 167.624 0 01-2.782-14.455c-.036-.222-.377-.128-.344.096zm68.875 43.656a6.675 6.675 0 01-.237 2.93c-.069.219.274.308.342.092a7.103 7.103 0 00.238-3.116c-.032-.227-.374-.13-.343.094zm-1.923 3.141a13.916 13.916 0 01-.99 3.734c-.088.206.218.389.306.18a14.443 14.443 0 001.039-3.914c.029-.227-.327-.222-.355 0zm-2.668 2.308a8.308 8.308 0 01-.838 2.388c-.108.201.199.381.306.18a8.635 8.635 0 00.874-2.476c.043-.223-.299-.317-.342-.092zm-4.013 1.339c-.305.599-.608 1.2-.912 1.798-.104.203.203.382.306.18.305-.598.608-1.2.912-1.798.102-.205-.203-.384-.306-.18zM68.91 81.2a4.072 4.072 0 01-.979 1.492c-.162.16.086.412.25.253a4.497 4.497 0 001.072-1.653c.08-.213-.264-.303-.342-.092zm-3.233.731l-1.718 2.615c-.125.191.18.368.306.18.574-.872 1.145-1.744 1.719-2.615.124-.191-.183-.37-.307-.18zm-5.13 3.079l-.829.803c-.165.16.086.41.25.253l.83-.802c.162-.16-.088-.413-.25-.253zm-5.305.795l-.726.42c-.197.113-.02.42.177.306l.726-.42c.2-.115.023-.421-.177-.306zm-3.708.393l-.816-.013c-.229-.005-.226.35.002.355l.816.014c.227.002.224-.354-.002-.356zm-3.149-.608l-.916.37c-.209.084-.12.428.093.344l.917-.371c.209-.086.117-.429-.094-.343zm-2.653-2.02c.221.06.313-.283.091-.342-.219-.06-.31.283-.091.342zm47.475 2.502l-.102.38c-.06.222.283.314.342.093l.103-.382c.058-.219-.284-.31-.343-.091zm-3.362-.022l-1.31 1.55c-.147.174.1.427.25.254l1.31-1.552c.145-.174-.103-.426-.25-.253zm-6.049 1.68l.04.02c.07.034.159.033.216-.025.263-.279-.073-.587-.366-.371-.258.19-.441.57-.628.83-.267.365-.532.735-.799 1.1-.135.185.172.362.307.18.217-.298.434-.597.648-.894l.3-.414.15-.207a.507.507 0 00.14-.476l.215-.026-.041-.02c-.206-.102-.388.204-.182.303zm-6.105 2.08c-.456.423-.91.85-1.365 1.273-.167.156.082.406.25.253.456-.424.91-.85 1.366-1.273.164-.159-.084-.409-.25-.253zm-4.414 1.111a5.063 5.063 0 01-1.537 2.005c-.18.14.07.39.25.253a5.275 5.275 0 001.595-2.075c.086-.21-.218-.39-.308-.183zm-4.109.081a17.79 17.79 0 01-2.45 2.45c-.175.146.076.397.251.253a17.863 17.863 0 002.45-2.45c.142-.177-.108-.43-.25-.253zm-4.699 1.938l-.624.038c-.226.013-.226.367.002.355l.625-.038c.226-.015.226-.37-.003-.356zm-2.361-.32c-.275.389-.552.774-.827 1.163-.133.184-1 1.51-1.23 1.067-.105-.202-.412-.025-.307.177.645 1.234 2.42-1.876 2.67-2.227.132-.187-.175-.365-.306-.18zm-3.201-.84c-.27.412-.67.698-1.142.828-.22.061-.127.402.094.343a2.335 2.335 0 001.354-.99c.123-.196-.181-.373-.306-.182zm38.95-28.42l-.153.573c-.06.22.283.313.342.091l.153-.572c.06-.22-.283-.314-.342-.092zm-1.404.741a4.05 4.05 0 01-.068 1.731c-.056.22.285.314.342.092a4.49 4.49 0 00.069-1.917c-.043-.224-.384-.13-.343.094zm-2.54.339c.152.721.152 1.443.003 2.163-.045.223.297.317.342.092a5.71 5.71 0 00-.002-2.348c-.047-.223-.39-.13-.343.094zm-3.353.792l-.345.522c-.127.19.18.368.307.18l.345-.522c.125-.191-.182-.371-.306-.18zm-3.304-1.934c-.37.329-.508.844-.352 1.314.072.215.414.124.343-.094a.882.882 0 01.26-.967c.17-.153-.08-.406-.251-.253zm-2.873-1.546a1.037 1.037 0 00-.031.993c.099.205.405.028.306-.177a.674.674 0 01.031-.636c.115-.199-.192-.377-.306-.18zm-2.053-1.679l-.166 1.388c-.026.226.327.222.355-.002l.167-1.389c.026-.225-.327-.222-.356.003zm-2.53-1.29c-.04.4-.08.798-.118 1.199-.022.226.331.223.355-.003.039-.4.08-.798.118-1.199.022-.226-.334-.224-.355.003zm-2.384-1.612c-.492.411-.535 1.14-.15 1.638.14.18.391-.072.253-.25-.273-.352-.183-.86.147-1.135.177-.148-.074-.4-.25-.253zm-2.209-1.722a2.375 2.375 0 00.004 1.535c.072.215.415.123.344-.094-.154-.45-.153-.9-.004-1.349.07-.216-.272-.308-.344-.092zm-1.246-1.403c-.23.413-.291.876-.171 1.334.058.22.399.126.343-.094a1.405 1.405 0 01.134-1.06c.11-.2-.196-.38-.306-.18zm-.6-1.596a2.954 2.954 0 00-.283 1.668c.029.223.383.224.356-.003a2.614 2.614 0 01.234-1.485c.098-.204-.207-.386-.307-.18zm-.091-1.91a4.658 4.658 0 00-1.247 2.212c-.054.22.288.314.343.091a4.28 4.28 0 011.151-2.052c.163-.161-.085-.411-.248-.252zm-.284-2.085c-.247.41-.495.824-.74 1.235-.118.196.189.376.307.18.247-.41.495-.823.74-1.235.116-.196-.191-.374-.307-.18zm30.108 31.353l.263 1.3c.046.223.386.131.343-.093-.086-.434-.176-.867-.263-1.3-.045-.223-.388-.132-.343.093zm3.468-1.302c.156.294.183.612.09.93-.063.22.279.312.343.091a1.578 1.578 0 00-.127-1.198c-.108-.2-.414-.023-.306.177zm3.386-1.365c.059.29.119.578.176.867.046.223.389.129.343-.094-.059-.29-.119-.577-.176-.866-.048-.224-.389-.13-.343.093zm3.907-1.611c.06.29.12.577.177.866.045.223.388.129.343-.094-.059-.29-.119-.577-.176-.866-.048-.223-.389-.129-.344.094zm3.957-1.75a1.509 1.509 0 00-.092 1.139c.069.217.412.125.343-.094a1.14 1.14 0 01.056-.865c.098-.204-.205-.386-.307-.18zm4.507-1.564l-.014.816c-.005.228.351.226.356-.003l.013-.816c.002-.227-.353-.226-.355.003zm5.122-2.313l-.064 1.007c-.015.228.341.226.355-.002l.065-1.008c.014-.226-.339-.223-.356.002zm4.47-1.41l.092.433c.048.223.389.128.343-.094-.029-.145-.062-.288-.092-.433-.048-.221-.391-.13-.343.094zm5.581-2.499l-.102.381c-.059.221.283.313.343.092l.102-.381c.058-.22-.283-.314-.343-.092zm4.706-3.039l-.358 1.337c-.06.221.283.313.342.092l.358-1.337c.06-.222-.283-.314-.342-.092zm4.839-2.752l.038.625c.013.226.368.225.356-.003l-.038-.624c-.013-.226-.368-.226-.356.002zm4.266-2.181l-.307 1.146c-.06.221.283.313.342.092l.307-1.146c.059-.221-.283-.313-.342-.092zm3.652-2.822l.214 1.49c.033.225.374.13.344-.093-.073-.497-.142-.995-.215-1.49-.035-.225-.377-.129-.343.093zm2.547-3.41c.06.29.12.578.177.867.045.223.388.129.343-.094-.059-.29-.119-.577-.176-.867-.048-.223-.389-.128-.344.095zm-55.479-14.474c-.467.218-.935.432-1.402.65-.207.096-.029.4.177.306.467-.217.935-.432 1.402-.65.209-.095.029-.4-.177-.306z" fill="#000"/><path d="M99.86 36.36a6.446 6.446 0 00-3.204 1.167c-.184.131-.01.437.177.306a6.145 6.145 0 013.03-1.12c.225-.018.225-.373-.003-.353zm-3.918-.548a7.272 7.272 0 00-3.208 1.08c-.194.121-.017.428.177.306a6.933 6.933 0 013.034-1.033c.225-.02.225-.375-.003-.353zm-4.919-.852c-.78.244-1.51.599-2.185 1.064-.186.129-.012.437.177.306a7.815 7.815 0 012.1-1.027c.219-.068.127-.41-.092-.342zm-6.03-.568c-.406.233-.808.466-1.213.7-.197.113-.02.42.177.306l1.213-.7c.197-.116.02-.422-.177-.306zm-5.531-.174c-.23.347-.46.696-.688 1.044-.127.19.18.368.306.18l.689-1.044c.124-.191-.183-.369-.307-.18zm-5.96 1.502c.222.06.314-.283.092-.342-.219-.059-.313.283-.092.343zm.787-1.885l-2.438 1.96c-.177.142.073.393.25.252l2.438-1.959c.178-.143-.073-.394-.25-.253zm-5.764 1.501l-1.95 1.936c-.163.161.088.412.25.253l1.95-1.936c.164-.162-.087-.413-.25-.253zm-5.809 1.88c-.935.708-1.871 1.416-2.81 2.123-.18.136-.003.445.178.307.936-.708 1.871-1.416 2.81-2.123.18-.138.006-.444-.178-.307zm-7.09 1.229c-.517.406-1.037.813-1.555 1.222-.18.14.072.39.25.253.518-.407 1.038-.813 1.556-1.223.18-.142-.071-.393-.25-.252zm-5.796 1.064c-.679.5-1.358 1-2.04 1.5-.183.135-.006.441.177.307l2.04-1.5c.184-.135.01-.444-.176-.307zm-6.096.624a10.907 10.907 0 01-2.388 1.365c-.21.086-.118.429.094.344a11.316 11.316 0 002.474-1.402c.178-.135.001-.444-.18-.307zm-6.649.378c-.55.08-1.073.246-1.57.494-.204.102-.027.409.177.307a4.795 4.795 0 011.488-.46c.224-.033.13-.374-.095-.34zm-6.219-.37c-.611.247-1.221.497-1.833.744-.208.084-.117.428.094.343.612-.247 1.222-.497 1.834-.744.208-.086.117-.43-.095-.343zM25.22 39.03l-1.835.735c-.209.084-.12.428.094.343l1.836-.735c.208-.086.117-.429-.094-.344zm-4.74-1.07l-1.535-.382c-.22-.054-.315.287-.092.342l1.536.382c.22.054.312-.288.092-.342zm-3.21-2.26c-.394.24-.926-.128-.878-.575.024-.226-.329-.222-.355.003-.079.715.806 1.246 1.41.88.196-.12.02-.426-.177-.307zm106.289 24.902c.222.06.313-.283.092-.342-.221-.06-.313.283-.092.342zm-3.835-.21c.222.059.313-.283.092-.343-.221-.059-.313.283-.092.343zm-4.293-1.559c.221.06.313-.283.092-.343-.219-.058-.311.284-.092.343zm-2.697-2.156c.221.059.313-.283.091-.343-.221-.059-.313.283-.091.343zm-2.074-2.195c.222.06.314-.283.092-.342-.221-.06-.313.283-.092.342zm-2.494-2.921c.221.06.313-.283.091-.342-.221-.06-.313.283-.091.342zm-.65-1.401c.222.059.313-.284.092-.343-.219-.059-.311.284-.092.342zm3.976.45c.222.06.313-.282.092-.341-.221-.06-.313.283-.092.342zm-3.844-13.932c.221.06.313-.283.092-.342-.219-.059-.313.283-.092.342zm1.071-.941c.222.06.314-.282.092-.342-.219-.059-.313.283-.092.342zm1.775-2.799c.222.06.313-.283.092-.342-.221-.06-.313.283-.092.342zm4.31-2.328c.222.06.313-.283.092-.343-.221-.059-.313.284-.092.343zm4.578-1.802l-.192-.051c-.089-.024-.197.03-.217.125a.18.18 0 00.125.217l.192.052c.089.023.196-.03.217-.126.02-.095-.03-.191-.125-.217zm3.984.41c.222.06.313-.283.092-.342-.219-.06-.311.283-.092.342zm-10.462 3.135c.221.06.313-.283.092-.342-.222-.06-.313.283-.092.342zm-2.259 3.081c.221.06.313-.283.092-.342-.222-.06-.313.283-.092.342zm-.755 2.051c.221.059.313-.283.092-.343-.222-.059-.313.283-.092.343zm-3.372 7.309l-.052.192c-.024.09.031.197.126.217a.18.18 0 00.217-.125l.051-.192c.024-.089-.031-.196-.125-.217a.18.18 0 00-.217.125zm1.072-1.782c.221.06.313-.283.091-.342-.221-.06-.313.283-.091.342zm.026-1.632c.221.06.313-.282.092-.342-.219-.058-.311.284-.092.343z" fill="#000"/><path d="M107.427 41.33c.221.06.313-.283.091-.342-.221-.06-.313.283-.091.342zm-2-.106l-.051.192c-.024.09.03.197.125.217a.18.18 0 00.217-.125l.051-.192c.024-.089-.03-.196-.125-.217a.182.182 0 00-.217.126zm-.08.982c.222.06.314-.283.092-.342-.219-.059-.311.283-.092.342z" fill="#000"/><path d="M105.347 42.206c.222.06.314-.283.092-.342-.219-.059-.311.283-.092.342zm.892 1.264c.221.06.313-.283.092-.342-.222-.06-.313.283-.092.342zm-.498 1.094c.221.06.313-.283.091-.342-.221-.06-.313.283-.091.342zm3.391-1.958c.221.06.313-.283.091-.342-.221-.06-.313.283-.091.342zm17.931 17.91c.221.06.313-.283.092-.342-.222-.06-.313.283-.092.342zm4.309-2.326c.221.06.313-.283.092-.342-.222-.06-.313.283-.092.342zm3.152-4.889c.221.06.313-.282.092-.342-.219-.059-.311.284-.092.342zm-16.236 4.045c.221.059.313-.283.091-.343-.219-.058-.313.283-.091.343zm-3.081-2.259c.221.059.313-.283.092-.343-.219-.058-.313.283-.092.343zm-2.569-4.169c.221.06.313-.283.092-.343-.219-.058-.313.283-.092.343zm-1.244-2.998c.221.06.313-.282.092-.342-.222-.059-.314.283-.092.343zm-.752-1.018c.221.06.313-.283.092-.342-.22-.059-.311.284-.092.342zm.464-4.792c.222.06.313-.282.092-.342-.219-.059-.311.284-.092.343zm.118-1.196c.221.06.313-.283.092-.342-.222-.06-.313.283-.092.342zm.957-2.815c.222.059.313-.283.092-.343-.219-.059-.311.284-.092.343zm1.584-2.851c.221.059.313-.283.091-.343-.219-.059-.31.284-.091.343zm11.761-.332c.221.06.313-.283.091-.342-.219-.059-.31.283-.091.342zm-6.636-1.981c.221.06.313-.283.091-.342-.219-.06-.313.283-.091.342zm3.416-.518c.221.06.313-.283.092-.342-.222-.06-.313.283-.092.342zm3.709-.851c.221.06.313-.283.091-.342-.221-.06-.313.283-.091.342zm3.071.004c.221.06.313-.283.091-.342-.221-.06-.313.283-.091.342zm-2.713-1.341c.221.06.313-.283.092-.342-.222-.06-.313.283-.092.342zm-8.997 1.481c.222.06.313-.283.092-.343-.221-.059-.313.284-.092.343zm-2.092 1.692c.221.06.313-.283.092-.342-.222-.06-.313.283-.092.342zm17.225-.095c.222.059.314-.283.092-.343-.219-.058-.311.284-.092.343zm3.692 3.036c.222.06.313-.283.092-.342-.219-.059-.311.284-.092.342zm2.124 5.074c.221.06.313-.282.091-.342-.221-.06-.313.283-.091.342zm.144 5.569c.221.06.313-.282.091-.342-.219-.058-.31.284-.091.343zm-12.078 10.689c.221.06.313-.283.092-.342-.222-.06-.313.283-.092.342zm-3.887-.019c.222.06.314-.283.092-.342-.219-.06-.311.283-.092.342zm-4.888-3.152c.221.06.313-.283.091-.342-.219-.059-.313.283-.091.342zm-1.981-4.83c.221.059.313-.283.092-.343-.222-.059-.313.283-.092.343zm-1.205-5.443c.221.06.313-.283.091-.342-.219-.059-.313.283-.091.342zm-11.715-5.189c.221.06.313-.283.091-.342-.221-.06-.313.283-.091.342zm-4.307-.742c.221.059.313-.283.092-.343-.22-.058-.313.283-.092.343zm-5.388-2.058c.222.06.314-.283.092-.342-.219-.06-.31.283-.091.342zm-3.4-.297c.221.06.313-.283.091-.343-.22-.059-.313.283-.091.343zm-4.076-.07c.221.06.313-.283.092-.342-.222-.06-.313.283-.092.342zm-4.511.022c.221.059.313-.283.091-.343-.22-.06-.313.283-.091.343zm-3.733-.592c.221.06.313-.283.091-.343-.219-.058-.313.283-.091.343zm-3.416.518c.22.059.313-.283.091-.343-.219-.058-.31.284-.091.343zm-1.732.355c.221.06.313-.283.092-.342-.222-.06-.314.283-.092.342zm-2.358.393c.221.06.313-.283.092-.342-.222-.06-.313.283-.092.342zm-5.787 1.725c.221.059.313-.283.092-.343-.22-.058-.313.283-.092.343zm-3.517.902c.222.059.313-.283.092-.343-.221-.059-.313.283-.092.343zm-3.416.517c.221.06.313-.283.092-.342-.222-.06-.313.283-.092.342zm-3.759 1.04c.221.06.313-.283.091-.342-.221-.06-.313.283-.091.342zm-3.557.275c.221.06.313-.283.092-.342-.22-.059-.311.284-.092.342zm-1.299.266c.221.06.313-.283.092-.342-.22-.059-.314.283-.092.342zm-4.511.022c.221.06.313-.283.091-.343-.219-.058-.31.284-.091.343zm-3.122.186c.221.059.313-.283.091-.343-.219-.059-.31.284-.091.343z" fill="#000"/><path d="M44.19 41.177c.222.06.314-.283.093-.342-.22-.059-.314.283-.092.342zm1.581.218c.221.06.313-.283.092-.342-.221-.06-.313.283-.092.342zm-6.818.223c.222.06.313-.283.092-.342-.221-.06-.313.283-.092.342zm-6.193.182c.221.06.313-.282.092-.342-.22-.058-.31.284-.092.343zm-5.017-1.138c.221.059.313-.283.092-.343-.222-.059-.313.283-.092.343zm-1.963-.323c.221.059.313-.283.091-.343-.219-.058-.31.284-.091.343zm-4.023-1.034a135.94 135.94 0 01-.192-.052c-.089-.024-.196.03-.217.126-.02.094.03.19.125.217l.192.05c.09.025.197-.03.217-.124.02-.095-.03-.192-.125-.217zm-3.147-.477c.22.06.313-.283.091-.342-.221-.06-.313.283-.092.342zm-2.038-1.57c.222.059.313-.284.092-.343-.22-.059-.313.283-.092.343zm-1.043-.688c.221.059.313-.284.091-.343-.221-.06-.313.283-.091.343zm85.057 3.541c.222.06.314-.283.092-.342-.221-.06-.313.283-.092.342zm-9.846-2.228c.22.06.312-.283.09-.342-.22-.06-.312.283-.09.342zm-10.551-.371c.221.06.313-.283.092-.342-.22-.059-.311.283-.092.342zm-4.803.352c.222.06.313-.283.092-.342-.221-.06-.313.283-.092.342zm-7.559 1.456c.222.059.313-.284.092-.343-.22-.059-.31.284-.092.342zm-6.741 1.47c.221.06.313-.283.092-.342-.22-.059-.313.283-.092.342zm-3.875 2.238c.222.059.313-.283.092-.343-.221-.06-.313.283-.092.343zm-6.92.603c.222.06.313-.283.092-.342-.221-.06-.313.283-.092.342zm-8.029.921c.221.06.313-.283.091-.343-.219-.058-.31.284-.091.343zm-5.708-.096c.221.06.313-.283.092-.342-.22-.06-.311.283-.092.342zm-4.319.07c.222.06.313-.283.092-.342-.22-.059-.313.283-.092.343zm-6.039-.39c.221.06.313-.283.091-.342-.219-.059-.31.283-.091.342zm-3.056-.819c.221.06.313-.283.091-.342-.22-.06-.313.283-.091.342zm-3.375-1.927c.221.06.313-.283.091-.342-.219-.059-.31.284-.091.342z" fill="#000"/><path d="M19.765 41.39c.221.06.313-.283.091-.342-.219-.059-.31.284-.091.342zm81.442 2.595l-.052.192c-.023.089.031.197.126.217a.18.18 0 00.217-.125l.051-.192c.024-.089-.03-.197-.125-.217-.095-.02-.192.03-.217.125zm-.738-2.678c.221.06.313-.283.092-.342-.219-.059-.311.284-.092.342zm-.819 3.058c.22.06.313-.283.091-.342-.219-.059-.31.284-.091.342zm-2.355-2.678c.221.06.313-.283.092-.342-.22-.059-.311.284-.092.342zm-1.462-1.417c.221.06.313-.282.091-.342-.22-.059-.313.283-.091.343zm-2.764-1.148c.221.059.313-.283.091-.343-.219-.058-.313.283-.091.343zm3.631.972c.22.06.313-.283.091-.342-.221-.06-.313.283-.092.342zm-1.987-1.762c.222.06.314-.283.092-.342-.219-.06-.313.283-.092.342zm-5.097.684c.222.06.313-.283.092-.343-.221-.059-.313.283-.092.343zm-3.822-1.024c.221.059.313-.283.091-.343-.219-.058-.31.284-.091.343zm1.557-1.222c.222.06.314-.283.092-.342-.221-.06-.313.283-.092.342zm-4.805.351c.222.06.313-.283.092-.342-.219-.059-.31.284-.092.342zm-3.823 2.046c.222.059.313-.283.092-.343-.221-.059-.313.283-.092.343zm-3.249-.871c.22.06.313-.283.091-.342-.219-.06-.31.283-.091.342zm-2.894.864c.222.059.314-.283.093-.343-.22-.058-.314.283-.092.343zm-2.344-.423c.221.06.313-.283.092-.343-.22-.058-.311.284-.092.343zm-1.568 2.038c.22.059.313-.283.091-.343-.221-.059-.313.283-.091.343zm-3.532 1.715c.221.059.313-.284.092-.343-.222-.06-.313.283-.092.343z" fill="#000"/><path d="M65.136 42.49c.221.059.313-.284.092-.343-.222-.06-.313.283-.092.343zm-2.776-.336c.22.06.312-.283.09-.342-.22-.06-.312.283-.09.342zm-1.85 1.554c.22.06.313-.283.091-.342-.221-.06-.313.283-.091.342zm-3.048 1.434c.221.059.313-.283.091-.343-.219-.058-.31.284-.091.343zm-4.906.735c.222.06.313-.283.092-.342-.221-.06-.313.283-.092.342zm2.208-2.891c.222.059.313-.283.092-.343-.221-.059-.313.283-.092.343zm-8.181 1.494c.222.059.314-.283.092-.343-.221-.06-.313.283-.092.343zm-2.243-.804c.222.06.314-.283.092-.343-.221-.059-.313.284-.091.343zm-5.236.438c.221.06.313-.283.092-.342-.222-.06-.314.283-.092.342zm1.487 2.856c.221.06.313-.282.092-.341-.222-.06-.313.282-.092.342zm-6.831 1.037c.222.06.314-.283.092-.342-.221-.06-.313.283-.091.342zm-6.714-.16c.22.06.313-.283.091-.342-.221-.06-.313.283-.091.342zm-6.142-.01c.221.06.313-.283.092-.342-.22-.058-.311.284-.092.343zm16.741 11.655c.22.06.313-.283.091-.342-.219-.059-.31.284-.091.342zm7.301-.502c.22.06.313-.283.091-.342-.219-.059-.31.284-.091.342zm3.314-.136c.221.059.313-.283.092-.343-.22-.058-.314.283-.092.343zm3.656-.657c.222.06.313-.283.092-.342-.22-.06-.31.283-.092.342zm6.015-1.052c.222.06.314-.283.092-.342-.219-.059-.31.283-.092.342zm-16.894 2.684l-.191-.051c-.09-.024-.197.03-.217.125-.02.095.029.191.125.217l.192.051c.089.024.196-.03.217-.125a.18.18 0 00-.126-.217zm3.78 1.174c.221.06.313-.283.092-.342-.221-.06-.313.283-.092.342zm2.344.425c.222.06.313-.283.092-.342-.221-.06-.313.283-.092.342zm5.456-2.021c.221.06.313-.283.092-.342-.222-.06-.314.283-.092.342zm5.721-.72c.22.06.313-.283.091-.342-.219-.059-.31.284-.091.342zm4.017-1.993c.221.06.313-.283.092-.342-.222-.06-.314.283-.092.342zM43.54 62.709c.222.059.314-.284.093-.343-.22-.059-.314.283-.092.343zm3.44.921c.221.06.313-.283.092-.342-.22-.059-.313.283-.092.342zm3.353-2.582c.221.06.313-.283.092-.342-.22-.059-.311.283-.092.342zm5.34-.822c.22.06.313-.283.091-.342-.219-.059-.31.283-.091.342zm5.163-1.689c.221.06.313-.283.092-.342-.222-.06-.313.283-.092.342zm3.046-1.434c.22.06.313-.283.091-.342-.219-.059-.31.283-.091.342zm-1.271-1.365c.221.06.313-.283.092-.343-.222-.059-.313.283-.092.343zm2.956-1.869c.222.06.314-.283.092-.342-.219-.06-.31.283-.092.342zm3.635-2.099c.221.06.313-.283.092-.342-.22-.058-.313.283-.092.343zM48.438 64.787l.244-.14c.08-.048.116-.163.064-.243-.052-.08-.155-.115-.242-.064l-.242.14c-.082.047-.117.162-.065.242a.178.178 0 00.241.065zm7.109-5.617c.222.06.313-.283.092-.343-.222-.059-.313.284-.092.343zm-22.242-1.821l-.192-.052c-.089-.024-.196.03-.217.126a.18.18 0 00.126.216l.191.052c.09.024.197-.03.217-.125.02-.095-.03-.192-.125-.217zm7.043 1.229c.221.06.313-.283.091-.343-.221-.059-.313.284-.091.343zm9.175-.614c.221.06.313-.283.092-.342-.222-.06-.313.283-.092.342zm6.242-.374c.221.059.313-.284.092-.343-.22-.059-.31.284-.092.342zm4.985-2.556c.221.06.313-.283.092-.343-.22-.058-.311.284-.092.343zm-41.104-9.375c.221.059.313-.283.092-.343-.222-.06-.314.283-.092.343zm11.555.435c.222.059.313-.283.092-.343-.221-.059-.313.283-.092.343zm4.969 1.331c.22.06.313-.283.091-.342-.221-.06-.313.283-.092.342zm8.651-.959c.221.059.313-.283.092-.343-.22-.058-.311.284-.092.343zm-15.033-1.981c.221.06.313-.283.092-.342-.22-.06-.31.283-.092.342zm-5.072 2.124c.221.059.313-.283.092-.343-.221-.059-.313.283-.092.343zm-6.087-3.27c.221.06.313-.283.091-.342-.219-.06-.313.283-.091.342zm-1.069-2.13c.222.059.314-.284.092-.343-.219-.059-.31.284-.091.343zm16.432 4.402c.221.06.313-.283.092-.342-.22-.059-.311.284-.092.342zm.805-2.24c.222.06.314-.283.092-.342-.219-.059-.313.283-.092.342zm-.876-2.079c.222.06.313-.283.092-.342-.221-.06-.313.283-.092.342zm65.315-1.499a135.94 135.94 0 00-.192-.051c-.089-.024-.196.03-.217.125-.02.095.03.191.125.217l.192.051c.09.024.197-.03.217-.125a.177.177 0 00-.125-.217zm.442 2.941c.222.06.313-.283.092-.342-.221-.06-.313.283-.092.342zM96.3 43.876c.221.06.313-.283.092-.342-.222-.06-.313.283-.092.342zm4.341-7.026c.221.06.313-.282.091-.342-.221-.06-.313.283-.091.342zm-5.211-1.193c.221.06.313-.283.092-.342-.22-.059-.313.283-.092.342zm-7.34-.122c.222.06.314-.283.093-.342-.22-.059-.311.283-.092.342zm-4.635-1.037c.221.06.313-.283.091-.342-.22-.06-.313.283-.091.342zm-3.682-.783c.222.06.313-.283.092-.343-.22-.058-.31.284-.092.343zm-3.987.365c.222.059.313-.283.092-.343-.221-.059-.313.283-.092.343zm-5.303 1.445c.221.06.313-.283.091-.342-.219-.059-.31.284-.091.342zm-5.545 1.587c.221.06.313-.283.092-.343-.22-.058-.311.284-.092.343zm-5.634 1.154c.221.059.313-.283.092-.343-.22-.058-.311.284-.092.343zm-7.938 1.354c.222.059.313-.284.092-.343-.221-.06-.313.283-.092.342zm-5.786 1.724c.22.06.313-.283.091-.342-.219-.06-.313.283-.092.342zm-5.746-.72c.221.06.313-.283.091-.343-.219-.058-.313.284-.091.343zm-5.746-.72c.221.059.313-.283.092-.343-.22-.058-.311.284-.092.343zm-6.294.566c.222.06.313-.283.092-.342-.221-.06-.313.283-.092.342zm-5.937-.772c.221.06.313-.283.092-.342-.22-.059-.314.283-.092.342zm61.437 32.845c.221.06.313-.283.091-.342-.219-.059-.31.284-.091.342zm-1.251 3.146c.221.059.313-.283.091-.343-.221-.06-.313.283-.091.343zm-1.137 1.948c.222.06.314-.283.092-.342-.221-.06-.313.283-.092.342zm-1.259-2.182c.221.06.313-.283.092-.342-.22-.059-.314.283-.092.342zm-.883 4.063c.221.06.313-.283.091-.342-.22-.06-.313.283-.091.342zm-1.171-1.746c.221.059.313-.284.092-.343-.22-.058-.313.283-.092.343zm-1.812 2.178c.222.059.313-.283.092-.343-.221-.059-.313.283-.092.343zm-.163-1.683c.222.06.314-.283.092-.342-.221-.06-.313.283-.092.342zm-2.552 3.411c.221.06.313-.283.091-.343-.22-.059-.313.283-.091.343zm-1.197-.116c.221.06.313-.283.091-.342-.22-.06-.313.283-.091.342zm-1.263.89c.22.06.313-.283.091-.342-.221-.06-.313.283-.091.342zm-1.021.751c.221.06.313-.283.092-.342-.22-.059-.314.283-.092.342zm-2.637-.093c.222.06.314-.282.092-.341-.221-.06-.313.283-.092.342zm.612.778c.22.06.313-.282.091-.342-.221-.06-.313.283-.091.342zm-1.837.739c.221.059.313-.283.091-.343-.22-.059-.313.283-.091.343zm-2.843.671c.22.06.313-.283.091-.342-.219-.059-.31.283-.092.342zm-.711-.396c.22.06.313-.283.091-.342-.221-.06-.313.283-.091.342zm-1.43 2.278c.221.06.313-.283.091-.342-.221-.06-.313.283-.091.342zm-2.294-.614c.221.059.313-.283.092-.343-.221-.059-.313.283-.092.343zm-1.887.927c.221.06.313-.283.092-.342-.22-.059-.311.284-.092.342zm-.498-1.023c-.18.157-.358.312-.535.47-.173.152.078.402.25.253.18-.158.358-.313.535-.47.172-.15-.079-.403-.25-.254zm-2.535 1.644c.221.06.313-.283.092-.343-.22-.058-.313.284-.092.343zm-.471-.534c.221.058.313-.284.092-.343-.221-.06-.313.283-.092.342zm-2.55.341c.222.06.314-.283.092-.342-.219-.06-.31.283-.092.342zm-.927-1.887c.221.059.313-.283.092-.343-.22-.058-.311.284-.092.343zm1.03 1.504c.221.059.313-.283.092-.343-.22-.058-.31.284-.092.343zm-2.317-2.054c.222.059.314-.283.093-.343-.22-.058-.311.284-.092.343zm-.338-2.55c.22.06.313-.282.091-.342-.221-.06-.313.283-.091.343zm1.554-1.219c.222.059.313-.283.092-.343-.221-.059-.313.283-.092.343zm1.104 2.751c.222.06.314-.283.093-.342-.22-.059-.311.284-.092.342zm-3.564-1.977c.221.06.313-.283.092-.342-.22-.06-.313.283-.092.342zm-1.104-2.754c.221.06.313-.283.092-.342-.221-.06-.313.283-.092.342zm1.62-2.227c.22.059.313-.283.091-.343-.219-.058-.313.283-.091.343zm5.355 6.757c.222.06.313-.283.092-.342-.219-.059-.31.283-.092.342zm6.103-.615c.222.06.314-.283.093-.342-.22-.059-.311.283-.092.342zm3.532-.262l.051-.192c.024-.089-.03-.196-.125-.217a.18.18 0 00-.217.126l-.051.191c-.024.09.03.197.125.217.093.02.191-.03.217-.125zm5.149-2.328c.221.06.313-.283.092-.343-.22-.058-.311.284-.092.343zm4.782-1.791c.222.06.313-.283.092-.342-.221-.06-.313.283-.092.342zm-1.58-.218c.221.06.313-.283.092-.342-.222-.06-.313.283-.092.342zm5.608-2.591c.222.059.313-.284.092-.343-.22-.059-.313.283-.092.342zm2.54-2.598c.222.06.314-.283.092-.342-.221-.06-.313.283-.092.342zm2.333-1.831c.221.06.313-.282.091-.342-.219-.058-.313.283-.091.343zm2.473-1.589c.221.059.313-.283.092-.343-.22-.059-.311.284-.092.343zM57.722 83.916c.221.06.313-.283.092-.342-.222-.06-.313.283-.092.342zm-.08 1.821c.222.059.313-.283.092-.343-.219-.058-.31.284-.092.343zm-3.439-.922c.222.06.313-.283.092-.342-.219-.059-.31.283-.092.342zm-2.787-2.588c.222.059.313-.284.092-.343-.219-.058-.313.283-.092.343zm12.358 12.73c.222.06.313-.283.092-.342-.221-.06-.313.283-.092.342zm5.478-.579c.221.059.313-.283.092-.343-.22-.058-.311.284-.092.343zm4.194-1.129c.221.06.313-.283.092-.343-.22-.058-.313.283-.092.343zm3.657-.659c.221.06.313-.283.092-.342-.22-.06-.311.283-.092.342zm5.317-2.262c.221.06.313-.283.092-.342-.222-.06-.314.283-.092.342zm.816.014c.221.059.313-.283.091-.343-.22-.059-.313.283-.091.343zm3.238-1.385c.22.059.313-.283.091-.343-.221-.06-.313.283-.091.343zm3.81-1.232c.221.06.313-.283.092-.343-.22-.058-.313.283-.092.343zm.997-2.189c.222.06.313-.283.092-.342-.221-.06-.313.283-.092.342zm-3.569 1.091c.22.06.313-.283.091-.342-.219-.059-.313.283-.091.342zm-2.614 1.347c.221.06.313-.283.092-.342-.22-.059-.313.283-.092.342zm-4.002 1.18c.221.06.313-.283.091-.342-.219-.059-.313.283-.091.342zm-4.921 1.549c.222.059.313-.284.092-.343-.219-.058-.31.284-.092.343zm-5.631 1.154c.221.06.313-.283.091-.342-.22-.06-.313.283-.091.342zm-1.072.941c.222.06.313-.283.092-.342-.221-.06-.313.283-.092.342zm-2.05-.755c.221.06.313-.283.091-.342-.22-.06-.313.283-.091.342zm-3.952.988c.222.06.314-.282.093-.342-.222-.06-.314.283-.092.343zm-2.623-.905c.221.059.313-.283.092-.343-.222-.059-.313.283-.092.343zm-1.133-1.123c.222.059.314-.283.092-.343-.221-.059-.313.283-.092.343zm.429 2.981c.222.06.313-.283.092-.342-.221-.06-.313.283-.092.342zm-2.264-2.245c.22.059.313-.283.091-.343-.221-.059-.313.283-.091.343zm7.627 2.863c.221.06.313-.283.092-.343-.22-.058-.311.284-.092.343zm-.301-1.925c.221.06.313-.283.091-.343-.221-.059-.313.284-.091.343zm14.703-1.383c.222.06.313-.283.092-.342-.221-.06-.313.283-.092.342zm-.933-2.148l.243-.14c.08-.047.117-.162.065-.242-.052-.08-.155-.115-.242-.065l-.243.14c-.081.047-.117.162-.065.242a.178.178 0 00.242.065zm5.908-2.663c.222.06.314-.283.092-.342-.221-.06-.313.283-.091.342zm3.392-1.958c.221.06.313-.283.091-.342-.219-.059-.313.283-.091.342zm-12.849 5.158c.222.059.313-.284.092-.343-.221-.06-.313.283-.092.343zm-5.493 1.394c.222.06.313-.283.092-.342-.221-.06-.313.283-.092.342zm-4.997.3c.222.06.313-.283.092-.342-.219-.059-.31.284-.092.342zm-3.298-.678c.221.059.313-.283.092-.343-.22-.058-.314.283-.092.343zm40.173-9.305c.221.06.313-.283.091-.342-.221-.06-.313.283-.091.342zm3.669-1.472c.222.059.313-.283.092-.343-.219-.058-.311.284-.092.343zm2.908-1.679c.222.059.313-.283.092-.343-.221-.06-.313.283-.092.343zm3.29-1.577c.221.059.313-.283.091-.343-.219-.058-.313.283-.091.343zm3.964-1.805c.221.06.313-.283.091-.342-.219-.059-.31.283-.091.342zm5.508-2.21c.222.06.313-.283.092-.342-.221-.06-.313.283-.092.342zm5.698-2.159c.221.06.313-.283.092-.342-.222-.06-.313.283-.092.342zm6.997-2.425c.222.06.313-.283.092-.342-.222-.06-.313.283-.092.342zm2.944-1.053c.221.059.313-.283.091-.343-.219-.058-.311.284-.091.343zm3.928-2.431c.222.06.313-.283.092-.342-.221-.06-.313.283-.092.342zm5.036-2.745c.221.06.313-.283.092-.342-.222-.06-.314.283-.092.342zm3.215-2.824c.221.059.313-.283.092-.343-.222-.059-.313.283-.092.343zm3.289-1.577c.221.06.313-.283.092-.343-.222-.059-.313.283-.092.343zm3.059-2.25c.221.059.313-.283.091-.343-.219-.059-.31.284-.091.343zm1.724-2.61c.221.059.313-.283.092-.343-.222-.06-.313.283-.092.343zm1.059-.127c.221.059.313-.284.092-.343-.222-.06-.313.283-.092.342zm-4.578 1.026c.222.059.313-.283.092-.343-.219-.058-.311.284-.092.343zm3.045 1.634c.222.06.313-.282.092-.341-.221-.06-.313.282-.092.342zm.743-4.306c.222.06.313-.283.092-.342-.219-.059-.311.284-.092.342zm-4.163 7.896c.222.06.314-.283.092-.343-.219-.058-.313.284-.092.343zm-3.112 2.44c.222.06.313-.282.092-.341-.219-.06-.311.283-.092.342zm-3.187 1.197c.221.06.313-.283.092-.342-.219-.06-.311.283-.092.342zm-2.905 1.677c.221.06.313-.283.092-.342-.222-.06-.313.283-.092.342zm-5.279 2.886c.222.059.313-.284.092-.343-.221-.06-.313.283-.092.343zm.246-3.21c.222.06.313-.283.092-.342-.221-.06-.313.283-.092.342zm-.933 1.184c.221.059.313-.283.092-.343-.22-.058-.311.284-.092.343zm-5.087 2.936c.221.06.313-.282.092-.342-.219-.058-.311.284-.092.343zm-3.644-.156c.221.059.313-.283.092-.343-.219-.059-.311.284-.092.343zm.914 2.703c.222.059.314-.283.092-.343-.219-.058-.313.283-.092.343zm-5.198 1.063c.221.059.313-.284.092-.343-.222-.06-.314.283-.092.343zm-1.226 1.515c.222.06.313-.283.092-.342-.221-.06-.313.283-.092.342zm.56.97c.221.06.313-.283.092-.343-.222-.059-.313.284-.092.343zm-2.409.582c.221.06.313-.283.092-.342-.222-.06-.313.283-.092.342zm-1.734.355c.222.06.313-.283.092-.342-.219-.06-.313.283-.092.342zm-4.296 1.51c.221.06.313-.283.092-.342-.219-.059-.311.283-.092.342zm-3.097 1.628c.221.06.313-.283.091-.342-.219-.059-.313.283-.091.342zm-2.754 1.104c.221.06.313-.283.091-.342-.219-.059-.31.283-.091.342zm-2.753 1.106c.222.06.314-.282.092-.341-.221-.06-.313.282-.092.342zm-2.945 1.053c.221.06.313-.283.092-.342-.22-.059-.311.284-.092.342zm-.429-2.981c.221.06.313-.283.092-.343-.22-.058-.314.284-.092.343zm-2.153-.372c.221.06.313-.283.091-.342-.219-.059-.313.283-.091.342zm-1.795-1.708c.221.059.313-.283.091-.343-.219-.058-.31.284-.091.343zm-1.779-2.527c.221.06.313-.283.092-.342-.222-.06-.313.283-.092.342zm2.585.285c.221.059.313-.284.092-.343-.222-.06-.313.283-.092.342zm.336 5.617c.222.06.314-.283.092-.342-.219-.059-.311.284-.092.342zm-4.232-7.89c.22.06.313-.283.091-.342-.219-.059-.313.283-.092.342zm7.78 5.36c.221.06.313-.283.091-.342-.221-.06-.313.283-.091.342zm4.677-1.407c.221.059.313-.284.092-.343-.222-.06-.314.283-.092.342zm4.35-2.48l-.192-.05c-.089-.025-.196.03-.217.124-.02.095.03.192.126.218l.191.05c.089.025.197-.03.217-.124.02-.093-.029-.192-.125-.217zm7.734-2.883c.221.06.313-.283.091-.342-.219-.059-.313.283-.091.342zm-23.998-5.202c.222.06.313-.283.092-.342-.221-.06-.313.283-.092.342zm-2.549.342c.221.059.313-.283.091-.343-.219-.058-.313.283-.091.343zm-.074-1.25c.221.06.313-.283.092-.343-.222-.059-.313.283-.092.343zm-2.527 1.781c.221.06.313-.283.092-.343-.22-.058-.311.284-.092.343zm-2.316-2.054c.221.059.313-.283.091-.343-.219-.058-.31.284-.091.343zm-1.21.698c.222.06.313-.283.092-.342-.221-.06-.313.283-.092.342zm-1.846-1.517c.221.06.313-.283.092-.342-.222-.06-.313.283-.092.342zm-3.161-.438c.222.059.314-.283.093-.343-.22-.058-.311.284-.092.343zm-.748-1.02c.221.059.313-.283.092-.343-.222-.059-.313.283-.092.343zm-1.567-1.034c.221.06.313-.283.091-.343-.219-.058-.31.284-.091.343zm-1.847-1.517c.222.059.314-.283.092-.343-.219-.058-.31.284-.091.343zm-.866.176c.221.06.313-.283.092-.343-.22-.058-.311.284-.092.343zm-1.347-2.614c.221.06.313-.283.092-.342-.22-.059-.311.284-.092.342zm-1.145-.307c.22.06.312-.283.091-.342-.221-.06-.313.283-.092.342zm.559.969c.221.06.313-.282.092-.342-.222-.059-.313.283-.092.343zm-1.08-3.024c-.077-.225-.154-.45-.228-.674-.072-.215-.415-.124-.343.094.076.226.153.45.227.675.075.215.417.123.344-.095zm.152 1.137c.222.06.313-.283.092-.342-.221-.06-.313.283-.092.342z" fill="#000"/><path d="M75.06 54.363c.221.059.313-.283.092-.343-.22-.058-.313.283-.092.343zm.706-3.475l.41-1.53c.059-.22-.283-.312-.343-.091l-.41 1.529c-.059.221.284.313.343.092zm1.706-.178c.222.058.313-.284.092-.343-.22-.059-.313.283-.092.342zm-2.547.341c.221.06.313-.283.092-.342-.222-.06-.313.283-.092.342zm3.67-1.474c.222.059.313-.283.092-.343-.22-.059-.313.283-.092.343zm-2.675-.717c.222.06.314-.283.092-.342-.221-.06-.313.283-.091.342zm.653-1.667c.221.06.313-.283.091-.343-.221-.059-.313.283-.091.343z" fill="#000"/><path d="M76.822 46.536l-.726.419c-.197.114-.02.42.177.307l.726-.42c.2-.113.022-.42-.177-.306zm-1.842 1.252c.221.06.313-.282.091-.342-.22-.06-.313.283-.091.343zm4.13-3.193c.222.06.314-.283.092-.342-.219-.059-.313.283-.092.342zm-3.582 1.907c.22.06.313-.283.091-.342-.219-.06-.31.283-.091.342zm-1.443 3.094c.221.059.313-.283.091-.343-.219-.058-.31.284-.091.343zm-2.474 1.59c.222.059.313-.283.092-.343-.221-.059-.313.283-.092.343zm1.001 3.137c.222.06.313-.283.092-.342-.219-.059-.31.283-.092.342zm5.426 2.682c.221.059.313-.283.092-.343-.22-.058-.313.283-.092.343zm-1.193-3.187c.221.06.313-.283.091-.342-.221-.06-.313.283-.091.342zm3.458 5.432c.221.06.313-.283.092-.342-.22-.059-.311.284-.092.342zm11.539 4.32c.222.06.313-.283.092-.342-.221-.06-.313.283-.092.342zm3.158.436c.222.059.314-.283.093-.343-.22-.058-.311.284-.092.343zm-6.168 1.624c.222.06.313-.283.092-.342-.22-.059-.31.284-.092.342zm-3.372-1.928c.221.06.313-.283.092-.343-.222-.059-.314.283-.092.343zm.32-1.962c.221.06.313-.282.092-.342-.222-.06-.313.283-.092.342zm-2.751-1.965c.221.06.313-.283.092-.342-.22-.059-.311.284-.092.342zm-2.176-1.81c.221.059.313-.283.092-.343-.222-.059-.313.283-.092.343zm-1.935-1.952c.221.059.313-.283.091-.343-.219-.058-.31.284-.091.343zM82.13 44.79c.222.06.313-.283.092-.342-.221-.06-.313.283-.092.342zm4.025.26c.222.059.313-.283.092-.343-.22-.058-.31.284-.092.343zm9.53 1.12c.222.06.314-.283.092-.343-.221-.059-.313.284-.092.343zm5.35 1.433c.221.06.313-.283.091-.342-.219-.059-.313.283-.091.342zm-3.405 14.24c.221.06.313-.283.092-.342-.222-.06-.313.283-.092.343zm-1.017-2.319c.221.059.313-.283.091-.343-.221-.059-.313.283-.091.343zm-.577 2.917c.222.06.314-.283.092-.342-.221-.06-.313.283-.092.343zm.983-1.375c.221.06.313-.283.092-.342-.222-.06-.314.283-.092.342zm-3.151 1.819c.221.06.313-.283.092-.342-.22-.059-.311.283-.092.342zm-1.225 1.514c.221.06.313-.283.091-.343-.218-.058-.31.284-.091.343zm-1.741-1.9c.221.06.313-.283.091-.343-.221-.059-.313.284-.091.343zm-2.272.825c.222.06.314-.283.093-.343-.22-.058-.311.284-.092.343zm-1.97-2.576c.221.06.313-.283.091-.342-.22-.06-.313.283-.091.342zm-3.743-2.847c.222.06.313-.283.092-.342-.22-.059-.313.283-.092.342zm11.76-.329c.222.06.314-.283.092-.342-.219-.06-.31.283-.092.342zm-2.764-1.149c.222.06.313-.283.092-.343-.22-.058-.31.284-.092.343zm66.784-5.45c.222.06.313-.283.092-.342-.219-.059-.311.284-.092.342zm-1.64-2.283c.221.059.313-.283.091-.343-.219-.059-.31.284-.091.343zm-2.47-1.482c.221.06.313-.283.092-.342-.22-.059-.311.284-.092.342zm-5.033-.323c.222.059.313-.283.092-.343-.219-.058-.311.284-.092.343zm5.515 3.116c.221.06.313-.283.092-.342-.222-.06-.314.283-.092.342zm-2.942-2.019c.221.06.313-.283.091-.342-.219-.059-.31.284-.091.342zm6.568 6.06c.221.06.313-.283.091-.342-.219-.059-.311.283-.091.342zm-3.491-.73c.221.06.313-.283.092-.342-.219-.059-.311.284-.092.342zm-.186-2.28l-.103.381c-.059.221.283.313.343.092l.102-.381c.059-.222-.283-.314-.342-.092zm-1.887.086c.221.06.313-.283.091-.342-.221-.06-.313.283-.091.342zm-.276 4.842c.222.06.314-.282.092-.342-.219-.058-.311.284-.092.343zm-1.602-1.659c.221.06.313-.283.092-.342-.219-.06-.311.283-.092.342zm-6.568 5.407c.221.059.313-.283.092-.343-.219-.058-.311.284-.092.343zm4.271-2.95c.221.059.313-.283.092-.343-.219-.058-.311.284-.092.343zm-13.006 8.801c.222.06.314-.283.092-.343-.221-.059-.313.283-.092.343zm-18.523-2.711c.222.06.313-.283.092-.342-.219-.059-.311.283-.092.342zm-4.482-1.609c.221.059.313-.283.091-.343-.221-.059-.313.283-.091.343zm-2.89-2.208c.222.06.314-.283.092-.342-.221-.06-.313.283-.092.342zm-2.264-2.245c.221.059.313-.283.091-.343-.221-.059-.313.283-.091.343zm-2.355-2.679c.221.06.313-.283.092-.342-.222-.06-.313.283-.092.342zm-1.004-3.135c.221.06.313-.283.092-.343-.219-.058-.311.284-.092.343zm5.214 9.588c.221.06.313-.283.092-.342-.222-.06-.314.283-.092.342zm-3.068-3.075c.222.06.313-.283.092-.342-.221-.06-.313.283-.092.342zm-3.272-2.31c.221.06.313-.283.091-.342-.219-.059-.31.284-.091.342zm-1.015-2.321c.222.06.313-.283.092-.342-.221-.06-.313.283-.092.342zm.398-3.783c.221.06.313-.283.091-.342-.219-.059-.311.284-.091.342zm.738 1.834c.222.06.313-.283.092-.342-.221-.06-.313.283-.092.342zm-2.434-.855c.221.06.313-.283.092-.342-.219-.059-.311.284-.092.342zm-1.168-1.746c.221.06.313-.283.091-.343-.221-.059-.313.284-.091.343z" fill="#000"/><path d="M99.825 48.304c.221.06.313-.283.091-.343-.221-.059-.313.284-.091.343zm3.135-1.004c.222.06.313-.283.092-.343-.221-.059-.313.283-.092.343zm-4.408-.362c.221.06.313-.283.091-.343-.22-.059-.313.284-.091.343zm-5.592-1.293c.22.06.312-.283.091-.342-.221-.06-.313.283-.092.342zm5.042 2.579c.221.06.313-.283.091-.342-.219-.06-.313.282-.091.342zm2.722 3.596c.222.06.313-.283.092-.342-.219-.06-.313.283-.092.342zM56.436 83.366c.221.06.313-.283.092-.342-.222-.06-.314.283-.092.342zm7.432-2.514c.221.06.313-.283.091-.342-.221-.06-.313.283-.091.342zm-13.116-1.78l-.14-.243c-.047-.081-.162-.117-.242-.065-.08.052-.115.155-.065.242l.14.243c.048.081.163.117.243.065a.178.178 0 00.064-.242zm80.05-35.712l3.06-1.015.39 1.41-3.45-.396zm-2.916-.486l-3.255-2.902-1.24 1.541 4.495 1.361z" fill="#000"/></svg>