<svg width="205" height="142" fill="none" xmlns="http://www.w3.org/2000/svg"><path d="M193.728 107.584l-.017-2.143.017-.515s1.646.958 3.566.655c1.92-.306 3.27-1.416 4.209-2.398.938-.981 1.854-3.119 2.137-4.317.283-1.2.24-5.626.24-7.348 0-1.723-1.307-11.053-1.307-11.053s-.676-3.531-1.331-5.998c-.655-2.463-1.571-5.8-2.246-7.63-.675-1.832-3.771-9.071-3.771-9.071l-1.067-2.049s1.09-1.067 2.137-3.204c1.047-2.138 1.963-5.712 2.18-8.33.218-2.618.152-5.648-.108-7.828-.261-2.18-.547-3.402-.547-3.402s.655-.59.959-2.006c.306-1.416.023-3.247-.458-4.275-.481-1.027-1.288-2.094-2.441-2.77-1.156-.675-2.921-.371-2.921-.371l-.893-1.113s-3.185-3.422-4.95-4.513c-1.765-1.09-6.498-2.812-9.986-2.638-3.488.175-8.461.655-12.406 2.487-3.946 1.83-6.65 3.662-10.487 6.672-3.837 3.01-5.016 6.39-5.016 6.39s-1.605 1.742-2.217 6.875c-.613 5.133.46 8.733.46 8.733s1.417 4.212 2.412 5.937c.996 1.723 2.461 3.705 2.461 3.705s-3.356 4.453-5.963 6.29c-2.607 1.836-6.924 4.958-10.941 5.94-4.018.981-4.27.8-4.27.8l-.895-.895s-1.957-1.428-4.344-1.285c-2.386.144-2.975.756-2.975.756l-2.59-4.037-1.428-2.244-2.386-.309-1.894.272-1.162 1.179.613 1.754 1.018.57 5.485 5.341s-1.15 1.654-.998 4.275c.151 2.618 1.081 3.777 2.317 5.013 1.236 1.236 4.281 2.87 6.573 3.373 2.292.504 6.624 1.285 10.123 1.208 3.499-.074 7.002-.252 9.671-.83 2.67-.578 8.209-2.14 8.209-2.14s-.214 10.026-.131 14.095c.085 4.068.38 10.215.592 14.283.212 4.069 1.101 11.783 1.101 11.783l1.116 6.824s.867 3.371 1.669 4.538c.801 1.168 1.868 2.57 4.269 3.171 2.403.6 4.738-.467 5.37-.867.635-.401 3.236-3.237 3.236-3.237s.335 2.936 1.468 4.939 2.902 3.972 4.839 4.404c1.934.435 4.603.635 7.339-.902 2.735-1.533 5.104-6.206 5.104-6.206s1.302-3.971 1.402-6.438c.101-2.469.035-14.913.035-14.913l-.181-4.987zM59.774 122.351l.292-1.831.114-.34 1.8-.098.615-1.118.893-9.062.097-1.994-1.15-1.136-17.007-.081-2.075.146s-.518-1.296-.584-2.043c-.065-.746-.34-3.613.81-5.997 1.15-2.383 3.809-5.788 3.809-5.788s3.193-3.989 3.905-5.17c.713-1.185 1.654-3.374 2.026-4.848.372-1.473.42-2.706.34-3.71-.08-1.005-.42-2.693-.42-2.693l.567.26s1.685 2.109 4.037 2.335c2.352.226 5.041-.518 6.08-1.167 1.039-.65 3.971-3.308 3.971-3.308s-1.848-2.627-3.161-3.259c-1.314-.632-2.481-1.119-4.441-.761-1.963.358-3.68 1.053-4.816 1.8-1.136.746-2.609 3.047-2.609 3.047s-.858-2.838-2.352-4.733c-1.49-1.897-3.325-3.325-5.059-4.538-1.734-1.216-6.821-3.376-8.117-3.954-1.297-.578-4.721-2.3-4.721-2.3s1.416-.04 2.472-.919c1.055-.878 3.23-4.306 3.23-4.306l1.416-3.869.058-1.178s-5.042 1.416-6.627 3.035c-1.585 1.62-2.37 2.887-2.418 3.986-.048 1.102.117 2.335.117 2.335s-3.519-2.135-5.053-4.504c-1.533-2.369-2.686-5.021-2.586-7.39.1-2.37 1.05-5.371 2.269-7.14 1.219-1.768 2.134-2.852 4.338-4.569 2.203-1.717 6.606-2.97 9.307-3.336 2.701-.366 8.324.134 11.425 1.067 3.102.933 4.922 1.685 6.621 2.787 1.7 1.102 1.817 1.42 1.817 1.42s-1.073 3.481.063 6.8c1.133 3.32 3.03 6.865 6.184 8.679 3.153 1.814 5.216 2.103 7.442 2.329 2.226.226 5.894-.844 6.741-1.196.844-.35 5.01-2.896 5.01-2.896l-.687-.75-.978-.38-.3-3.087-.762-2.08-2.134 1.319s-.258-1.577-1.047-1.903c-.79-.326-2.055-.029-2.055-.029l.072-3.43s-.14-1.114-.89-.936c-.747.177-1.51.692-1.51.692l-.49.736-.435-.53V39.68s-.137-.584-.612-.638c-.475-.054-1.225-.029-1.783.192-.558.217-2.303.91-2.303.91s-1.608-1.789-2.567-3.471c-.958-1.683-.993-2.893-.993-2.893s1.193-.907 3.5-1.279c2.303-.37 4.54.42 4.54.42s2.255 1.8 3.331 2.421c1.076.621 4.103 1.648 4.103 1.648l-.606-.589s-2.152-.472-4.759-2.59c-2.606-2.12-2.944-3.144-4.154-4.085-1.21-.942-2.255-1.666-3.162-1.866-.907-.2-1.851-.286-1.851-.286s1.176-1.766 2.389-2.407c1.21-.638 2.438-1.127 2.438-1.127l2.858.638.672 2.81.673.655L77.145 27l.59 1.396.117 1.951.993-.203 2.523-1.21.235.235.42 2.792 3.214-1.21.655.638.203 2.406-.169 2.793 4.12-1.43 1.345-.456 1.325 2.255.544.189s3.102-4.776 2.217-10.052c-.884-5.276-1.516-5.528-2.875-7.963-1.36-2.432-3.348-4.644-6.919-6.95-3.57-2.306-10.552-4.011-10.552-4.011l-6.51-.822-5.182.19-3.127.915-1.422.915-6.415 1.517-5.846 2.212.186-.718s1.09-2.321.902-4.478c-.19-2.158-1.328-4.43-2.415-5.591-1.09-1.162-3.21-2.06-3.21-2.06l-.627.105s-1.073 2.447-1.148 4.71c-.074 2.263.57 4.873 1.274 5.743.703.87 2.578 2.189 2.578 2.189l1.364.6s-9.299 3.926-14.049 6.301-8.292 4.75-10.515 6.595c-2.223 1.846-3.845 4.11-5.428 6.558-1.582 2.45-1.894 4.435-1.894 4.435l-.598 2.664s-.423-1.27-1.222-2.166c-.798-.895-2.34-1.894-4.832-1.943-2.492-.048-4.907.473-4.907.473L.82 37.02l-.707.707s.635 3.905 2.31 6.292c1.673 2.386 4.211 4.343 6.034 4.492 1.822.152 4.266-.283 4.266-.283s.49 4.117 1.033 5.262c.546 1.147 1.259 3.027 1.805 3.57.547.547 2.163 2.255 2.163 2.255s2.238 1.597 3.629 2.218c1.39.62 7.405 2.838 7.405 2.838l4.944 1.86 3.685 1.991 2.633 1.674 2.254 2.143 1.86 2.387 1.09 2.5.679 2.633.037 2.612-.584 3.007-1.184 2.518-1.674 3.065-2.07 3.376s-1.879-1.954-2.726-2.612c-.847-.658-3.064-2.444-5.282-2.555-2.217-.112-3.027.3-4.08.884-1.053.584-2.255 2.106-2.255 2.106l-.958 1.505.02.996s1.616 1.954 2.838 2.764c1.222.806 2.595 1.353 4.04 1.164 1.448-.189 2.387-.452 4.267-1.333 1.88-.885 2.369-1.411 2.369-1.411l1.259-.753s-1.918 3.082-2.633 5.789c-.715 2.707-.6 3.648-.584 4.681.02 1.033.132 1.785.132 1.785s-7.82.49-10.996.79c-3.176.301-9.325 1.279-9.325 1.279l-.827.415-2.068.283s-.095 2.575.337 5.208c.432 2.632 1.242 6.936 1.242 6.936l.452.621 1.617-.095 2.163 6.447 2.538 7.614 1.748 3.533.678.489 12.95.301 9.437.037s4.755 0 6.335-.3c1.58-.301 4.003-1.185 4.003-1.185l2.255-15.056.4-2.112z" fill="#fff"/><path d="M16.269 109.472a267.063 267.063 0 0129.405-2.497 263.65 263.65 0 0114.367-.026c1.179.031 2.927-.266 3.247 1.156.232 1.033-.234 2.781-.323 3.842-.2 2.378-.4 4.756-.598 7.134-.023.274.406.274.43 0 .231-2.744.46-5.488.692-8.232.091-1.09.892-3.454-.378-4.126-.784-.415-2.238-.183-3.067-.203a267.982 267.982 0 00-12.112-.032 267.713 267.713 0 00-31.772 2.567c-.278.04-.16.455.109.417z" fill="#000"/><path d="M15.891 109.384c-.807.108-1.594.154-2.403.148-.11 0-.224.101-.215.215.363 4.266.984 8.498 1.868 12.687.058.269.473.155.415-.114a102.819 102.819 0 01-1.322-7.631c-.16-1.202-.509-2.619-.435-3.835.052-.861-.031-.709.676-.901.452-.123 1.053-.089 1.53-.154.272-.04.155-.453-.114-.415z" fill="#000"/><path d="M15.47 122.863c15.554-.855 31.106-1.714 46.66-2.569.094-.006.183-.063.206-.157.134-.501.068-.747-.318-1.094-.206-.183-.51.118-.303.304.646.583-.927.592-1.007.598l-1.422.077c-.948.052-1.898.103-2.845.157-1.991.109-3.983.221-5.974.329-3.889.215-7.777.43-11.666.641-7.777.43-15.554.856-23.328 1.285-.277.014-.28.444-.003.429zm44.353-1.948a284.633 284.633 0 00-3.01 18.965c-.034.274.395.271.43 0a283.361 283.361 0 012.995-18.851c.052-.272-.36-.386-.415-.114z" fill="#000"/><path d="M17.147 122.872c1.067 3.17 2.138 6.343 3.205 9.514.93 2.755 1.73 5.611 3.362 8.051.152.229.523.015.372-.217-1.708-2.558-2.524-5.588-3.497-8.478l-3.027-8.985c-.089-.26-.504-.148-.415.115z" fill="#000"/><path d="M24.318 140.746c5.71.249 11.425.398 17.139.435 5.19.035 10.664.384 15.651-1.319.26-.089.149-.503-.114-.415-5.114 1.746-10.776 1.342-16.101 1.299a462.855 462.855 0 01-16.578-.432c-.275-.008-.275.421.003.432zm19.056-34.504c-3.042-8.675 7.385-14.46 9.754-21.812 2.223-6.9-.95-13.842-6.779-17.748-6.183-4.143-14.097-5.5-19.353-11.047-2.758-2.91-4.089-6.759-3.26-10.725.779-3.72 3.171-7.03 6.235-9.222 3.857-2.758 8.833-3.56 13.48-3.296 4.901.278 10.655 1.425 14.575 4.547.215.172.521-.132.304-.303-3.27-2.604-7.605-3.709-11.671-4.33-4.075-.623-8.344-.58-12.287.73-6.435 2.137-12.009 8.42-11.265 15.54.804 7.708 8.61 11.562 14.879 14.32 3.811 1.677 7.783 3.38 10.836 6.295a14.813 14.813 0 014.543 11.743c-.366 5.328-3.931 9.047-7.007 13.076-2.658 3.48-4.95 7.92-3.396 12.352.088.255.503.143.412-.12z" fill="#000"/><path d="M37.19 107.061c-2.343-10.107 9.397-16.742 8.95-26.596-.397-8.753-9.193-13.411-16.386-16.05-4.5-1.65-10.037-2.86-13.362-6.574-3.274-3.654-3.76-9.448-3.537-14.132.238-4.968 1.788-9.806 4.959-13.686 2.778-3.4 6.46-5.92 10.272-8.029 4.66-2.578 9.574-4.772 14.447-6.913 5.49-2.412 11.13-4.5 17.036-5.625.271-.051.157-.466-.115-.415-10.092 1.926-19.688 6.53-28.81 11.122-7.771 3.912-15.125 9.173-17.408 18.035-1.119 4.337-1.119 9.039-.195 13.41.95 4.49 3.408 7.718 7.528 9.746 8.533 4.204 20.421 5.368 24.364 15.483 4.41 11.319-10.773 19.059-8.157 30.335.063.272.477.158.414-.111z" fill="#000"/><path d="M41.806.503c5.328 1.823 7.4 8.06 4.28 12.736-.154.231.218.446.372.217C49.738 8.54 47.497 1.996 41.92.088c-.263-.089-.375.326-.114.415z" fill="#000"/><path d="M41.397.108c-2.444 4.982-1.68 12.244 4.555 13.832.269.068.383-.346.114-.415-5.96-1.517-6.62-8.467-4.297-13.202.117-.243-.252-.46-.372-.215zm11.708 75.578c.85-2.841 4.27-3.963 6.859-4.647 3.668-.97 6.323 1.54 8.12 4.453.146.234.515.02.372-.218-1.768-2.87-4.475-5.534-8.112-4.77-2.873.604-6.721 1.963-7.648 5.068-.086.266.329.377.41.114z" fill="#000"/><path d="M67.429 74.98c-3.19 3.559-10.035 6.18-13.557 1.619-.166-.215-.54-.003-.372.218 3.69 4.78 10.824 2.269 14.23-1.531.188-.21-.115-.513-.301-.306zM12.895 39.44c-.832-2.006-2.72-3.18-4.832-3.485-1.257-.184-2.521-.09-3.774.088-1.29.183-2.716.295-3.826 1.027-.229.152-.014.524.217.372 1.603-1.061 4.421-1.221 6.284-1.156 2.277.08 4.592 1.036 5.516 3.268.106.252.521.14.415-.114zM.002 37.8c.767 5.952 5.185 12.166 11.92 10.836.272-.055.158-.467-.114-.415C5.364 49.494 1.161 43.46.431 37.8c-.034-.269-.466-.272-.429 0zm31.14 21.14c-1.302-5.288 4.46-7.89 8.57-8.914.268-.066.154-.48-.115-.415-4.355 1.085-10.232 3.915-8.87 9.44.069.269.48.157.415-.112zm1.799 1.227c3.963-.501 6.118-6.078 7.025-9.363.074-.266-.34-.38-.415-.114-.506 1.837-1.23 3.588-2.226 5.216-1.007 1.648-2.309 3.568-4.386 3.831-.27.035-.272.464.002.43zm7.383 33.583c-2.347-2.472-5.322-5.18-8.98-5.007-2.98.137-5.542 2.249-6.463 5.038-.086.263.326.375.415.115.959-2.899 3.814-4.962 6.907-4.707 3.194.263 5.726 2.658 7.82 4.867.189.197.492-.106.3-.306z" fill="#000"/><path d="M38.687 95.289c-2.06 1.582-4.424 2.979-7.113 2.904-2.847-.077-4.638-1.965-6.335-4.006-.178-.211-.478.092-.303.304 1.66 1.997 3.427 3.862 6.157 4.106 2.93.26 5.565-1.213 7.811-2.936.215-.169 0-.54-.217-.372zm20.79-60.184c-2.732 6.738-.323 14.235 5.883 18.089 6.054 3.76 13.975 2.492 19.29-1.966.212-.177-.094-.48-.303-.303-5.17 4.335-12.89 5.55-18.77 1.897-6.048-3.76-8.346-11.042-5.685-17.603.1-.255-.315-.366-.415-.114zm3.01-11.073c-.455-.327-.838-.33-1.313-.063-.22.123-.066.437.166.392 5.737-1.15 11.571-.12 16.936 2.068 2.692 1.1 5.273 2.455 7.745 3.983 2.716 1.677 5.22 3.417 6.375 6.521.095.258.51.146.415-.114-1.016-2.727-2.927-4.427-5.31-5.978-2.667-1.733-5.463-3.282-8.39-4.529-5.648-2.404-11.8-3.588-17.883-2.366.055.131.112.26.166.392.295.02.587.043.882.063.22.163.434-.21.211-.37z" fill="#000"/><path d="M93.512 37.162c3.7-5.897 2.547-13.545-1.276-19.09-4.412-6.398-12.183-9.463-19.634-10.453-4.163-.552-9.285-1.127-13.042 1.15-.235.143-.02.515.218.372C62.12 7.72 64.83 7.593 67.5 7.656c2.435.058 4.87.29 7.265.741 4.584.864 9.073 2.541 12.79 5.408 6.793 5.24 10.435 15.417 5.588 23.142-.149.232.223.45.37.215zm-9.7 13.108c-5.64-2.318-11.173-5.758-15.25-10.344-1.957-2.203-3.585-4.959-3.571-7.989.014-2.747 1.285-5.454 3.817-6.695.249-.123.031-.492-.218-.372-2.246 1.101-3.568 3.305-3.928 5.742-.438 2.956.675 5.795 2.406 8.152 4 5.451 10.475 9.391 16.63 11.92.258.106.366-.309.114-.414z" fill="#000"/><path d="M90.62 34.759a433.533 433.533 0 01-4.89 1.754l.263.263a14.508 14.508 0 00-.017-5.674c-.055-.272-.47-.158-.415.114.363 1.82.369 3.623.017 5.445-.029.15.097.324.263.264a496.61 496.61 0 004.89-1.754c.26-.095.149-.51-.112-.412zm-5.314-4.186l-3.456 1.336.271.206-.334-3.133c-.029-.272-.458-.275-.43 0l.335 3.133c.015.123.129.263.272.206 1.153-.447 2.306-.893 3.456-1.336.255-.095.144-.51-.114-.412z" fill="#000"/><path d="M81.326 28.618a8.669 8.669 0 01-3.614 1.637l.272.206a7.009 7.009 0 00-.47-3.233c-.1-.255-.514-.144-.414.114a6.74 6.74 0 01.455 3.119c-.012.149.146.232.272.206a8.927 8.927 0 003.713-1.68c.218-.166.006-.538-.214-.369z" fill="#000"/><path d="M77.552 26.395c-.386.34-.79.647-1.23.91-.696.412-1.497.904-1.94-.183-.344-.841-.447-1.886-.656-2.77-.063-.269-.477-.154-.415.114.198.836.387 1.671.59 2.504.123.504.255 1.039.795 1.228 1.05.366 2.447-.873 3.16-1.497.208-.186-.098-.486-.304-.306zm5.485 23.737a18.787 18.787 0 00-.99-5.39c-.04-.124-.195-.212-.315-.13l-2.151 1.483c-.227.154-.012.53.217.372l2.152-1.482-.315-.13c.584 1.715.907 3.469.973 5.28.011.272.44.275.429-.003z" fill="#000"/><path d="M79.704 46.315c.06-1.018-.467-2.103-1.482-2.449a2.05 2.05 0 00-2.458.979c-.13.243.243.46.372.217.38-.724 1.267-1.079 2.034-.75.793.34 1.156 1.18 1.105 2.003-.018.275.411.275.429 0z" fill="#000"/><path d="M76.602 44.32c.149-1.152.26-2.351.163-3.513-.037-.435-.112-.947-.544-1.159-.489-.24-1.156.138-1.59.367-.587.309-1.025.71-1.225 1.353-.083.263.332.378.415.114.177-.572.624-.898 1.144-1.153.41-.2.484-.254.93-.06.521.23.432.355.455.89.043 1.056-.04 2.115-.177 3.162-.037.275.395.272.429 0z" fill="#000"/><path d="M73.683 40.996c-.12.012-.24-1.49-.426-1.73-.186-.235-.466-.381-.752-.459-1.156-.314-2.106.633-3.2.799-.271.042-.157.454.115.414.893-.137 3.082-1.696 3.608-.291.163.432-.243.87-.023 1.313.143.292.364.412.678.38.272-.022.275-.452 0-.426zm-7.216-13.082c3.537.338 5.6 3.382 7.966 5.637 2.149 2.048 4.693 2.95 7.517 3.694l.057-.42c-3.788.177-6.573-2.447-9.471-4.479-2.154-1.51-4.747-2.772-7.388-1.831-.257.092-.146.506.115.415 3.47-1.236 6.572 1.433 9.187 3.353 2.25 1.654 4.673 3.105 7.557 2.97.234-.011.3-.357.057-.42-1.74-.458-3.513-.927-5.079-1.84-1.533-.896-2.727-2.212-3.937-3.485-1.828-1.926-3.823-3.76-6.58-4.023-.275-.026-.273.403 0 .43z" fill="#000"/><path d="M72.902 32.624c-2.738-.716-5.316-.607-7.762.91-.235.146-.02.518.217.372 2.36-1.465 4.787-1.557 7.434-.867.266.071.38-.344.111-.415zm119.949-9.345c-5.483-8.323-16.562-9.602-25.329-6.424-4.995 1.812-9.665 4.785-13.636 8.301-3.666 3.248-6.519 7.273-7.2 12.218-1.373 9.954 4.212 20.366 12.951 25.142 4.443 2.43 9.628 3.522 14.672 3.027 5.237-.515 10.613-2.787 15.119-5.442 4.501-2.65 7.317-6.693 8.53-11.751 1.19-4.956.953-10.19.049-15.17-.049-.273-.464-.158-.415.114 1.436 7.928 1.376 18.08-5.007 23.986-1.852 1.714-4.101 2.938-6.37 4.005-2.495 1.177-5.053 2.281-7.714 3.025-4.758 1.33-9.825 1.182-14.515-.37-9.337-3.092-16.063-11.76-16.968-21.533-.497-5.382 1.016-10.35 4.599-14.404 3.187-3.605 7.333-6.532 11.576-8.764 5.048-2.658 10.845-4.278 16.57-3.414 5.076.77 9.86 3.33 12.719 7.669.148.231.52.017.369-.215z" fill="#000"/><path d="M189.675 26.169c2.074-3.949 7.353-3.005 8.649 1.027.507 1.574.644 3.571-.252 5.03-.958 1.563-2.832 2.358-4.618 2.069-.269-.043-.386.369-.114.415 1.843.297 3.725-.395 4.858-1.912 1.279-1.713 1.131-4.203.398-6.117-1.591-4.16-7.159-4.784-9.293-.727-.126.244.243.46.372.215zm-29.54 25.213c4.518-.575 9.276-1.19 13.199-3.69 3.533-2.252 5.917-5.918 6.675-10.027.049-.269-.363-.386-.415-.114-.767 4.16-3.222 7.843-6.875 10.014-3.792 2.252-8.287 2.839-12.584 3.385-.272.038-.275.467 0 .432zm-11.139-20.126c-.644-3.64-.41-8.049.898-11.508.094.907.372 1.794.804 2.595a11.312 11.312 0 012.621-5.72l-.12 2.644a27.405 27.405 0 014.512-7.239 5.826 5.826 0 001.445 4.41c.415-3.148 2.67-5.983 5.643-7.094l-.052 4.029c1.399-2.824 4.054-4.999 7.099-5.811.134 1.7.18 3.407.137 5.113 1.394-2.089 3.749-3.51 6.246-3.768.424-.043.896-.043 1.222.234.97.821-.561 2.515.055 3.631a10.94 10.94 0 014.269-2.764c.423-.149.881-.275 1.319-.172 1.539.367 1.201 2.65.503 4.07 1.668-.284 3.334-.57 5.002-.853a6.779 6.779 0 01-.243 3.396c1.542 1.485 2.24 4.363 2.011 6.49 0 0-3.325-5.134-9.451-6.613-6.126-1.48-9.456-1.065-14.229.212-4.773 1.276-11.608 5.891-14.547 8.498-2.938 2.6-5.144 6.22-5.144 6.22zm45.254 25.128c5.356 10.761 8.575 22.55 9.333 34.556.192 3.039.435 6.303-.592 9.228-.959 2.729-3.23 5.167-6.295 5.193-6.014.051-9.648-7.076-11.15-11.96-1.829-5.943-1.903-12.255-1.943-18.418-.003-.275-.432-.278-.429 0 .04 6.123.117 12.397 1.891 18.312 1.445 4.815 4.343 10.567 9.522 12.169 5.465 1.691 8.976-3.479 9.466-8.28.34-3.328-.018-6.788-.37-10.101a90.57 90.57 0 00-1.525-9.485 91.184 91.184 0 00-7.539-21.428c-.12-.252-.492-.035-.369.214zm-37.786 16.198c-.269 11.293-.538 22.604.068 33.892.298 5.554.81 11.099 1.634 16.601.589 3.937.984 9.048 4.384 11.714 2.975 2.335 7.576 1.588 9.848-1.347.166-.215-.134-.521-.303-.304-2.67 3.454-8.072 3.445-10.644-.12-1.205-1.668-1.748-3.722-2.14-5.714-.495-2.506-.853-5.047-1.176-7.582-1.268-9.915-1.571-19.923-1.534-29.91.02-5.745.157-11.49.295-17.233.005-.275-.424-.275-.432.003zm15.202 36.318c-.395 6.1.068 12.201.995 18.238.647 4.212 1.211 9.465 4.59 12.501 3.124 2.807 7.877 2.421 11.11-.006 3.863-2.901 5.325-7.863 5.686-12.475.269-3.448.091-6.93.037-10.384l-.172-10.698c-.005-.275-.435-.277-.429 0 .086 5.416.209 10.833.258 16.249.042 4.913-.212 10.161-3.125 14.33-2.81 4.02-8.761 6.343-12.91 2.807-3.253-2.773-3.863-7.643-4.495-11.606-1.005-6.269-1.522-12.61-1.11-18.956.014-.275-.415-.275-.435 0z" fill="#000"/><path d="M192.656 29.39c.426-.474.85-.95 1.276-1.422-.12-.068-.24-.14-.357-.208l-.129.61c-.052.248.249.354.392.165.166-.217.332-.435.495-.652.166-.22-.206-.435-.372-.218a91.23 91.23 0 00-.495.653c.131.054.26.111.392.165l.129-.609c.04-.194-.206-.378-.358-.209-.426.475-.85.95-1.276 1.422-.186.203.117.51.303.303zm-25.56 35.5c-.08 2.616.93 5.248 2.738 7.14.252.263.527.517.867.643 1.091.41 2.164-.62 2.787-1.602a16.988 16.988 0 002.327-5.848s-2.204.432-4.779.226c-2.575-.206-3.94-.558-3.94-.558z" fill="#000"/><path d="M170.627 72.413l-3.562 14.19c-.661 2.632-1.325 5.278-1.528 7.982-.032.427-.049.873.137 1.256.155.32.435.558.704.79l3.694 3.127c.134.115.286.235.463.24.206.007.384-.142.53-.288 2.297-2.315 2.864-6.032 5.399-8.086.249-.2.529-.404.624-.71.083-.269.003-.558-.077-.827-1.709-5.714-3.371-12.154-5.079-17.868l-1.305.194zm-38.044-1.637c-1.25-2.872-4.509-4.486-7.574-3.957-3.302.57-5.488 3.711-5.628 6.939-.386 8.93 12.261 10.263 18.599 10.458 5.86.18 11.705-.69 17.279-2.498.26-.086.149-.5-.115-.415-5.201 1.688-10.632 2.555-16.106 2.504-4.827-.046-10.358-.475-14.667-2.882-4.106-2.291-6.152-7.281-3.061-11.333 2.881-3.783 9.021-2.924 10.904 1.402.109.252.478.034.369-.218z" fill="#000"/><path d="M130.343 69.297c2.189.37 4.383-.42 6.415-1.176a34.254 34.254 0 005.863-2.85 34.509 34.509 0 009.719-8.924c.166-.223-.209-.435-.372-.218a34 34 0 01-9.187 8.536 33.503 33.503 0 01-5.514 2.8c-2.092.828-4.538 1.8-6.81 1.417-.272-.043-.386.37-.114.415zm-11.952-7.611c1.004.295 1.903 2.406 2.438 3.236.644.996 1.285 1.994 1.929 2.99.148.232.52.017.371-.217-.898-1.397-1.799-2.79-2.698-4.186-.503-.782-.955-1.955-1.923-2.238-.268-.077-.38.338-.117.415zm2.206 8.284a65.916 65.916 0 00-5.554-5.477c-.206-.18-.512.12-.303.303a65.641 65.641 0 015.554 5.477c.186.206.489-.097.303-.303z" fill="#000"/><path d="M115.035 65.065c-2.458.638-5.726 1.225-8.246.907a14.404 14.404 0 01-7.93-3.697c-2.514-2.329-4.174-5.814-3.567-9.184.546-3.039 2.87-5.563 5.648-6.907 4.53-2.195 10.318-1.388 14.146 1.88 3.829 3.267 5.531 9.075 4.315 13.96l-1.373-.653-1.485-.283-.524.984-1.37-.712.246 1.224-1.093.198.595.87.229 1.055.409.358z" fill="#000"/><path d="M118.219 61.205c-.975-.023-1.776-.423-2.397-1.173-.155-.186-.472.058-.338.26.229.347 1.253 1.589.215 1.377-.389-.08-.633-.395-1.062-.432-.106-.009-.229.106-.214.214.06.45.168.767.437 1.142l.186-.323c-.46.037-.924.071-1.385.108-.14.012-.24.13-.206.272.138.593.484.953 1.048 1.156l-.095-.357c-.523.463-.438 1.213.14 1.582.235.149.45-.223.218-.372l-.054-.91c.128-.114.045-.309-.095-.358-.438-.148-.687-.434-.747-.858-.068.092-.137.18-.206.272l1.385-.109c.146-.011.289-.18.186-.323a1.6 1.6 0 01-.38-.924l-.215.214c.592.055 1.353.982 1.963.366.543-.549-.467-1.539-.744-1.957l-.338.26c.693.836 1.617 1.277 2.701 1.3.275.011.275-.418-.003-.427zM54.424 75.226c.41.64.864 1.07 1.534 1.433.131.072.266.003.315-.129.28-.75.063-1.333-.581-1.776-.146-.1-.31.037-.324.186-.083.812.038 1.456.378 2.194.06.132.243.126.338.043.901-.804 1.101-1.891.603-2.979-.074-.16-.286-.117-.371 0-.45.639-.461 1.254-.06 1.918.065.108.185.123.294.077.684-.298.947-.944.664-1.637-.075-.18-.36-.226-.415 0a7.335 7.335 0 00-.123 2.867c.023.149.206.18.315.129 1.001-.475 1.416-1.34 1.247-2.415-.026-.163-.254-.2-.357-.094-.779.792-1.008 1.716-.676 2.778.046.149.246.217.358.094.718-.78 1.145-1.625 1.333-2.67.035-.185-.209-.391-.357-.208-.701.864-.925 1.777-.67 2.867.029.129.203.206.315.129 1.159-.802 1.994-1.789 2.575-3.076.112-.246-.235-.464-.372-.218l-1.293 2.324c-.095.168.06.357.243.314 1.113-.251 1.948-.835 2.584-1.782-.132-.055-.26-.112-.392-.166-.126.383.003.77.44.898.656.192 1.022-.52 1.225-.998l-.392-.052c.189.684.981.893 1.448.33.106-.13.051-.384-.152-.367a10.185 10.185 0 00-5.968 2.492c-.21.18.094.484.303.303a9.653 9.653 0 015.665-2.366l-.151-.366a80.48 80.48 0 01-.733-.14c-.046-.163-.318-.23-.392-.052-.066.458-.36.604-.881.432.08-.24-.264-.357-.392-.166-.578.862-1.328 1.36-2.327 1.586.08.105.16.208.244.314l1.293-2.323c-.123-.072-.246-.143-.372-.218-.329.733-.721 1.382-1.282 1.975-.214.226-.38.523-.706.395-.607-.24.231-1.511.44-1.766l-.358-.209c-.174.97-.552 1.751-1.221 2.478l.357.095c-.271-.87-.074-1.709.567-2.361l-.358-.094c.069.449-.52 2.434-.827.961-.094-.455.109-1.104.215-1.545h-.415c-.037-.086-.077-.169-.114-.255h-.372c.125.275.492 2.43-.272 1.852-.38-.287-.295-.845-.246-1.325l-.324.186c.535.981.553 1.224.052.73a2.29 2.29 0 01-.736-.848c-.142-.228-.514-.011-.363.22zM37.571 93.979l-3.388.764c.08.106.16.209.244.314-.246.327-1.357.33-1.8.295v.43c.913.03 1.614-.152 2.395-.616.24-.143.028-.492-.218-.372l-1.888.944c-.218.11-.066.467.166.392.75-.234 1.5-.472 2.249-.706-.037-.138-.078-.275-.115-.415-.887.317-1.774.638-2.66.956-.258.091-.158.48.114.414.575-.14 1.15-.283 1.728-.423l-.209-.358c-.55.427-1.147.756-1.822.942-.255.068-1.95.349-2.032.105l.263-.263a10.9 10.9 0 01-2.947-1.359c-.232-.151-.444.218-.217.372.532.358.99.54 1.62.65.185.031.331-.14.242-.315-.423-.836-1.021-1.325-1.917-1.588-.269-.08-.372.32-.114.415.875.314 1.622.372 2.538.214.094-.017.154-.12.157-.206.032-.881.878-.612 1.517-.272-.038.135-.072.267-.11.401 2.007.22 3.992.218 5.998-.014l-.151-.367c-1.929 1.737-4.704 1.975-6.91.618-.235-.145-.453.227-.218.373a6.198 6.198 0 007.428-.684c.129-.118.034-.39-.152-.367a26.604 26.604 0 01-5.997.015c-.215-.023-.286.303-.109.4.052.029.103.055.155.083a.221.221 0 00.26-.034l.149-.146c.051-.049.08-.14.054-.209-.294-.787-1.373-.895-2.1-.89a.216.216 0 00-.215.215c-.04 1.167-1.442.73-2.183.463-.037.138-.077.275-.114.415a2.68 2.68 0 011.662 1.394c.08-.106.16-.21.244-.315a3.748 3.748 0 01-1.517-.607l-.217.372c.961.63 1.948 1.082 3.05 1.402.151.043.317-.108.263-.263-.012-.034-.023-.071-.034-.106-.029-.088-.11-.16-.206-.157-.247.008-.287.029-.424.235-.057.085-.023.186.035.26.938 1.193 3.485-.166 4.374-.859.18-.14-.02-.406-.209-.357-.575.14-1.15.283-1.728.423.038.138.078.275.115.415.887-.317 1.774-.638 2.66-.955.258-.092.152-.498-.114-.415-.75.234-1.499.472-2.249.706.055.132.112.26.166.392l1.889-.944c-.072-.123-.143-.246-.218-.372-.718.427-1.362.584-2.177.558-.278-.008-.272.406 0 .43 1.041.082 1.885-.218 2.658-.92.094-.085.083-.282-.043-.337-.503-.217-.855-.126-1.187.315-.12.16.077.352.243.315 1.13-.255 2.257-.51 3.388-.764.269-.08.154-.495-.115-.432zm-.767-39.729a7.195 7.195 0 01-2.088 2.16l.314.129c-.174-.767.266-1.408 1.022-1.571-.08-.106-.16-.21-.243-.315a7.11 7.11 0 01-1.013 1.416 4.59 4.59 0 01-.432.418c-.435.358-1.674 1.313-1.208-.037h-.415c.15.764.132 1.47-.048 2.226-.052.214.2.352.357.209l2.21-1.975c.177-.16-.067-.486-.261-.337a9.586 9.586 0 01-2.899 1.53c-.26.086-.148.501.115.416a9.851 9.851 0 003.001-1.574l-.26-.338-2.209 1.974.358.21a5.642 5.642 0 00.048-2.456c-.043-.223-.349-.183-.415 0-.289.836.172 2.003 1.248 1.322.418-.263.504-1.25-.175-1.153-.437.063-.555.816-.068.89.349.054.927-.604 1.141-.81a7.399 7.399 0 001.29-1.717c.095-.168-.06-.354-.242-.314-.99.212-1.543 1.119-1.32 2.097.03.129.204.203.315.129a7.784 7.784 0 002.244-2.312c.151-.235-.22-.452-.367-.218zM11.588 42.501c-.243 1.073-.49 2.143-.733 3.216.137.037.275.077.415.114.126-.8.04-1.459-.283-2.197-.083-.192-.42-.097-.4.109a7.91 7.91 0 01-.304 3.124l.42.058a6.412 6.412 0 00-.866-2.993c-.09-.158-.35-.13-.392.051-.27 1.139-.043 2.103.683 3.013l.26-.338c-1.473-.955-2.95-1.91-4.423-2.867-.18-.117-.406.115-.294.295.675 1.07 1.562 1.76 2.764 2.158.266.088.366-.315.114-.415a8.58 8.58 0 01-3.88-3.039c-.117-.166-.4-.12-.4.109.005 1.525.775 2.752 2.154 3.405.172.08.438-.103.295-.295-.964-1.276-1.926-2.555-2.89-3.831-.163-.215-.51-.032-.372.217.263.47.486.647.981.838.15.058.318-.117.264-.263a7.007 7.007 0 00-1.626-2.59c-.143-.142-.437.004-.357.21 1.19 3.147 3.136 7.133 7.17 6.51.163-.027.2-.256.095-.359-1.328-1.281-2.653-2.563-3.98-3.842-.2-.192-.496.103-.304.303.85.896 1.849 1.336 3.085 1.37.16.006.269-.185.186-.323-.32-.515-.638-1.03-.959-1.545-.123.072-.246.143-.372.218.976 1.299 2.804.758 2.793-.916 0-.235-.37-.3-.42-.057-.264 1.239-5.251-1.242-5.858-1.491-.255-.103-.366.312-.114.415l2.672 1.09c.738.3 1.54.767 2.34.85.639.066 1.23-.072 1.374-.753l-.42-.057c-.664.232-1.328.466-1.995.698-.16-.214-.52-.026-.372.218.32.515.638 1.03.959 1.545l.186-.323c-1.11-.032-2.02-.444-2.782-1.245l-.303.303c1.328 1.282 2.653 2.564 3.98 3.843l.095-.358c-3.763.581-5.551-3.33-6.641-6.209-.12.069-.24.14-.358.21a6.337 6.337 0 011.516 2.397l.264-.263c-.24-.215-.484-.43-.724-.641l-.372.217c.964 1.276 1.925 2.555 2.89 3.831l.294-.294c-1.233-.584-1.937-1.668-1.942-3.036-.135.037-.267.071-.401.109a9.01 9.01 0 004.137 3.236c.038-.138.078-.275.115-.415-1.09-.36-1.897-.99-2.507-1.96l-.294.294 4.423 2.868c.22.143.4-.16.26-.338-.646-.81-.803-1.617-.572-2.595l-.392.051c.51.887.764 1.76.807 2.776.012.24.35.294.42.057a8.103 8.103 0 00.318-3.24c-.134.038-.266.073-.4.11.3.6.38 1.224.24 1.868-.043.266.352.39.415.114.243-1.072.49-2.143.733-3.216.06-.271-.355-.386-.415-.114zM41.932 5.559a10.727 10.727 0 001.968 4.755c.115.155.415.126.4-.108a9.282 9.282 0 00-1.599-4.704c-.097-.143-.349-.14-.392.051-.34 1.457-.008 2.804.962 3.94.143.17.412-.011.358-.209-.324-1.193-1.08-2.037-2.218-2.512-.08-.034-.206.02-.243.097-.564 1.174-.095 3.028 1.428 3.16 1.093.094 1.714-1.337.578-1.732-.123-.043-.284.072-.272.206.126 1.385.77 2.492 1.914 3.285.14.097.317-.034.323-.186.02-.615.037-1.233.057-1.848l-.42.057.335.938c.068.19.357.218.415 0 .3-1.167.409-2.32.328-3.525-.017-.272-.429-.28-.429 0 0 1.388 0 2.773.003 4.16 0 .278.43.278.43 0l.008-1.962c0-.235-.386-.304-.42-.058a1.29 1.29 0 01-.313.813c-.154.229.218.444.372.218.21-.307.304-.538.355-.913l-.42-.057-.009 1.962h.43c0-1.387 0-2.772-.004-4.16h-.429a10.63 10.63 0 01-.312 3.41h.415l-.334-.938c-.08-.223-.415-.194-.421.057-.02.616-.037 1.234-.057 1.849l.323-.186c-1.01-.701-1.588-1.688-1.703-2.913l-.271.206c-.3.243-.601.49-.902.733a1.384 1.384 0 01-.67-.807c-.137-.335-.425-1.21.344-1.193.667.014 1.25 1.473 1.38 1.948.12-.069.24-.14.357-.209-.867-1.018-1.153-2.223-.85-3.522l-.392.051a8.885 8.885 0 011.54 4.487l.4-.109A10.495 10.495 0 0142.35 5.44c-.05-.266-.461-.149-.418.12zm-18.275 114.18c4.469-.655 8.938-1.313 13.408-1.969.272-.04.157-.455-.115-.415-4.47.656-8.939 1.314-13.408 1.969-.272.04-.154.455.115.415zm1.273-3.554c3.514-.532 7.027-1.064 10.541-1.594.272-.04.157-.455-.114-.415-3.514.533-7.028 1.065-10.541 1.594-.272.043-.158.455.114.415zm-.632-2.512a32.353 32.353 0 0111.119-1.605c.277.008.274-.421 0-.43a32.692 32.692 0 00-11.234 1.623c-.26.086-.149.5.115.412zm2.495-3.52l8.303-.958c.272-.032.275-.461 0-.429l-8.303.958c-.27.032-.275.461 0 .429zm3.253 27.469a72.481 72.481 0 018.887-1.27c.275-.023.275-.453 0-.43a74.236 74.236 0 00-9.002 1.285c-.271.057-.157.472.115.415zm.641-3.165l6.712-.93c.272-.037.158-.452-.114-.414l-6.713.929c-.271.038-.154.453.115.415zm-3.482-3.759a34.58 34.58 0 0110.77-1.714c.277 0 .277-.43 0-.43-3.714 0-7.354.578-10.882 1.729-.263.086-.152.5.112.415zm2.145-3.608c2.344-.212 4.685-.427 7.028-.638.272-.026.275-.455 0-.43-2.343.212-4.684.427-7.027.638-.275.026-.278.455 0 .43zm-2.818-2.561a63.9 63.9 0 019.525-.633c.278.003.278-.426 0-.429-3.23-.026-6.44.192-9.64.647-.271.037-.157.452.115.415zm5.571-8.407l-.853.378c-.228.103-.063.446.166.392a42.067 42.067 0 016.558-.999c.275-.02.275-.449 0-.429a42.694 42.694 0 00-6.672 1.013c.054.132.112.26.166.392l.853-.378c.251-.108.034-.48-.218-.369zm-10.363-.541l2.549-.352c.272-.037.157-.452-.115-.414l-2.549.351c-.272.041-.154.455.114.415zm10.223 4.475a22.674 22.674 0 014.733-.311c.277.011.274-.418 0-.43a23.07 23.07 0 00-4.848.327c-.271.048-.157.46.115.414zm2.177 11.826c1.385-.106 2.767-.212 4.152-.32.275-.02.275-.449 0-.429-1.385.105-2.767.211-4.152.32-.274.02-.274.449 0 .429zm-7.087-4.269l-2.552.962c-.255.097-.146.512.114.415l2.552-.962c.255-.097.143-.512-.114-.415zm2.547 4.447l-2.235.643c-.266.078-.152.49.114.415l2.235-.644c.266-.077.152-.492-.114-.414zm-1.485 3.588a2.032 2.032 0 00-1.8.234c-.23.152-.015.524.217.372.447-.3.959-.366 1.468-.191.263.088.375-.327.115-.415zm6.664 2.941a25.142 25.142 0 005.167-.647c.269-.063.154-.475-.114-.415a24.58 24.58 0 01-5.053.633c-.275.005-.275.435 0 .429zm3.195-11.811c1.17-.106 2.344-.212 3.514-.321.272-.026.275-.455 0-.429-1.17.106-2.343.212-3.514.32-.274.026-.274.455 0 .43zm1.013-8.639c.744-.106 1.491-.211 2.235-.32.272-.04.157-.452-.114-.415-.744.106-1.491.212-2.235.32-.272.04-.154.455.114.415zm-.695-3.84c1.064-.117 2.126-.231 3.19-.349.272-.028.275-.457 0-.429-1.064.118-2.126.232-3.19.349-.272.029-.275.458 0 .429zm.212-3.848c.212.106.426.212.638.32.246.123.463-.246.217-.372-.211-.105-.426-.211-.638-.32-.246-.12-.463.249-.217.372zm7.193 3.869l3.517-.627c.272-.049.157-.461-.115-.415l-3.516.627c-.27.051-.155.463.114.415zm3.457 2.231c.277 0 .277-.429 0-.429-.278 0-.278.429 0 .429zm-28.691-3.842c.32-.106.638-.212.959-.321.26-.086.149-.5-.114-.415-.321.106-.639.212-.96.321-.26.089-.148.503.115.415zm-2.869 4.506l2.237-.315c.272-.037.157-.452-.114-.415l-2.238.315c-.272.04-.157.452.115.415zm6.114 8.249c.212-.105.427-.211.638-.32.246-.123.029-.495-.217-.372-.212.106-.427.212-.638.32-.246.126-.029.495.217.372zm15.331 5.431a12.08 12.08 0 013.725-.93c.272-.023.275-.452 0-.429-1.37.117-2.675.446-3.94.987-.254.109-.037.478.215.372zm.269 2.257c.744-.211 1.49-.426 2.235-.638.266-.074.151-.489-.115-.415l-2.235.639c-.266.074-.151.489.115.414zm5.053-5.104h.959c.277 0 .277-.429 0-.429h-.959c-.275 0-.278.429 0 .429zm-.166 5.047l.32-.32c.08-.08.086-.226 0-.304a.22.22 0 00-.303 0l-.32.321c-.08.08-.086.226 0 .303.083.08.217.086.303 0zm.486-15.268h.959c.277 0 .277-.429 0-.429h-.959c-.277 0-.277.429 0 .429zm-15.757-4.011c1.33-.26 2.664-.524 3.995-.784.271-.054.157-.467-.115-.415-1.33.26-2.664.524-3.994.784-.27.054-.155.469.114.415zm-2.344 12.123a8.547 8.547 0 012.83-1.058c.273-.049.158-.464-.114-.415a8.841 8.841 0 00-2.933 1.101c-.234.143-.02.515.218.372zm11.131-1.25a4.578 4.578 0 011.86-.318c.278.009.275-.42 0-.429a4.925 4.925 0 00-1.971.332c-.258.1-.146.515.111.415zm-6.346 6.876c.266.054.532.108.798.16.27.054.387-.358.115-.415-.266-.054-.532-.109-.799-.16-.269-.052-.383.36-.114.415zm7.885 3.67h1.597c.278 0 .278-.429 0-.429h-1.596c-.275 0-.278.429 0 .429zm-8.303.473a13.27 13.27 0 002.455-.469c.263-.078.152-.493-.114-.415a12.6 12.6 0 01-2.34.455c-.276.025-.278.455 0 .429zm.16 3.041a5.038 5.038 0 001.654-.166c.266-.071.155-.486-.114-.415a4.57 4.57 0 01-1.54.152c-.277-.02-.274.409 0 .429zm5.325 1.11a8.727 8.727 0 012.338-.472c.275-.017.277-.446 0-.429a9.078 9.078 0 00-2.452.487c-.258.091-.146.506.114.414zm-7.136-11.362a2.01 2.01 0 011.33-.286c.275.034.272-.395 0-.429a2.385 2.385 0 00-1.544.343c-.238.146-.02.515.214.372zm-2.026-7.353l2.395-.155c.275-.017.278-.446 0-.429l-2.395.155c-.274.02-.274.449 0 .429zm-3.19-9.546a4.735 4.735 0 001.654-.166c.266-.074.151-.489-.115-.414a4.373 4.373 0 01-1.539.151c-.275-.02-.275.409 0 .429zm14.27-5.276c.371-.106.743-.211 1.118-.32.266-.075.152-.489-.114-.415l-1.12.32c-.262.078-.15.49.115.415zm.371-1.459l.638-.478c.092-.068.14-.186.078-.294-.055-.092-.2-.146-.295-.078-.212.16-.426.321-.638.478-.092.069-.14.186-.077.295.054.091.2.146.294.077zm.318-3.193c.266-.16.532-.321.798-.478.238-.143.02-.512-.217-.372-.266.16-.532.32-.798.478-.235.143-.02.512.217.372zm1.482-2.91l.798-.638c.215-.172-.088-.475-.303-.303-.266.211-.532.426-.798.638-.218.171.088.475.303.303zm.959-3.354l.798-.798c.194-.195-.109-.498-.303-.303l-.799.798c-.197.195.106.5.304.303zm2.234-3.991c.532-.478 1.065-.959 1.597-1.436.206-.186-.097-.49-.303-.304-.533.478-1.065.959-1.597 1.437-.206.183.097.486.303.303zm2.59-4.995c.16-.321.32-.639.478-.96.123-.245-.246-.463-.372-.217-.16.32-.32.638-.478.959-.123.249.249.466.372.217zm.349-5.377v-.478c0-.278-.43-.278-.43 0v.478c0 .274.43.274.43 0zm-1.493-5.217c.277 0 .277-.429 0-.429-.275 0-.275.43 0 .43zm-3.194-4.95c.277 0 .277-.429 0-.429-.278 0-.278.43 0 .43zM39.09 67.84c.278 0 .278-.429 0-.429-.274 0-.274.43 0 .43zm-6.226-2.555c.278 0 .278-.429 0-.429-.277 0-.277.43 0 .43zm-.804-.846l-.958-1.116c-.18-.21-.484.094-.304.303.32.372.638.744.959 1.116.18.209.48-.095.303-.303zm-2.684-1.391c-.32-.478-.638-.959-.958-1.436-.152-.23-.524-.015-.372.217.32.478.638.959.958 1.437.152.226.524.01.372-.218zm-3.673-1.279l-.639-1.436c-.111-.252-.48-.035-.372.217l.639 1.436c.111.252.483.035.372-.217zm-3.651-1.225l-.639-1.596c-.1-.255-.518-.143-.415.114l.639 1.597c.1.252.517.14.415-.115zm-3.88-3.562c.277 0 .277-.429 0-.429-.278 0-.278.43 0 .43zm-2.556-3.193c.278 0 .278-.43 0-.43-.277 0-.277.43 0 .43zm1.014 2.501c-.046-1.01.054-1.997.306-2.979.068-.269-.347-.38-.415-.114a10.426 10.426 0 00-.32 3.093c.013.274.443.274.428 0zm-2.255-4.155c.126-.958.349-1.894.658-2.813.088-.263-.326-.374-.415-.114-.32.956-.54 1.928-.673 2.927-.034.272.395.27.43 0zm-.947-6.012a22.14 22.14 0 011.733-3.301c.15-.235-.223-.45-.371-.218a22.517 22.517 0 00-1.78 3.405c-.103.255.312.366.418.114zm.775-5.856a13.27 13.27 0 012.043-2.83c.189-.2-.115-.504-.303-.304a13.664 13.664 0 00-2.11 2.919c-.13.24.238.458.37.215zm2.363-6.825a31.118 31.118 0 013.354-3.674c.203-.189-.1-.492-.304-.303a30.676 30.676 0 00-3.353 3.674c-.169.217.134.523.303.303zm6.024-6.512a13.128 13.128 0 012.715-1.597c.252-.108.034-.48-.218-.372a13.14 13.14 0 00-2.715 1.597c-.215.166 0 .538.217.372zM11.462 40.215c.277 0 .277-.43 0-.43-.275 0-.275.43 0 .43zm-2.235-1.439c.278 0 .278-.43 0-.43-.275 0-.277.43 0 .43zm-2.02-1.219c-.16-.055-.32-.106-.478-.16-.109-.038-.234.043-.263.148-.032.118.04.227.149.264.16.054.32.105.478.16.108.037.234-.043.263-.149.034-.117-.037-.226-.149-.263zm-1.173.103c.277 0 .277-.43 0-.43-.278 0-.278.43 0 .43zm-2.715.798c.277 0 .277-.43 0-.43-.278 0-.278.43 0 .43zm-.799-.32c.278 0 .278-.43 0-.43-.277 0-.277.43 0 .43zM15.136 57.62c.277 0 .277-.43 0-.43-.275 0-.275.43 0 .43zM38.93 94.193c.278 0 .278-.429 0-.429-.274 0-.274.43 0 .43zm-2.074-1.757c.277 0 .277-.429 0-.429-.278 0-.278.43 0 .43zm-2.716-.958c.278 0 .278-.43 0-.43-.274 0-.277.43 0 .43zm-1.917-.481c.278 0 .278-.429 0-.429-.274 0-.274.43 0 .43zm-2.452-.42c-.266.054-.532.105-.798.16-.272.054-.157.469.114.415.267-.055.533-.106.799-.16.271-.055.157-.47-.115-.415z" fill="#000"/><path d="M29.508 90.68c.278 0 .278-.43 0-.43-.275 0-.275.43 0 .43zm.481.477c.277 0 .277-.429 0-.429-.278 0-.278.43 0 .43zm-3.674.959c.277 0 .277-.43 0-.43-.275 0-.278.43 0 .43zm9.262.798c.277 0 .277-.429 0-.429-.275 0-.275.43 0 .43zm-2.075-.32c.278 0 .278-.43 0-.43-.277 0-.277.43 0 .43zm-.958-.478c.277 0 .277-.43 0-.43-.278 0-.278.43 0 .43zm1.119-1.119c.277 0 .277-.429 0-.429-.278 0-.278.43 0 .43zm8.781-88.952c.277 0 .277-.429 0-.429-.275 0-.275.43 0 .43zm1.279 1.119c.277 0 .277-.43 0-.43-.278 0-.278.43 0 .43zM45.48 4.44c.277 0 .277-.43 0-.43-.278 0-.278.43 0 .43zm1.118 2.555c.278 0 .278-.429 0-.429-.277 0-.277.43 0 .43zm.158 2.395c.277 0 .277-.429 0-.429-.275 0-.275.43 0 .43zm-.478 1.757c.278 0 .278-.43 0-.43-.277 0-.277.43 0 .43zM44.2 4.331h-.16c-.111 0-.22.098-.214.215.006.117.094.215.215.215h.16c.111 0 .22-.098.214-.215a.218.218 0 00-.214-.215zm.96 1.866c.277 0 .277-.43 0-.43-.275 0-.275.43 0 .43z" fill="#000"/><path d="M45.48 6.357c.277 0 .277-.429 0-.429-.278 0-.278.43 0 .43zm.638.321c.277 0 .277-.43 0-.43-.275 0-.278.43 0 .43zm-1.119 2.074c.277 0 .277-.43 0-.43-.275 0-.275.43 0 .43zm0 .798c.277 0 .277-.429 0-.429-.275 0-.275.43 0 .43z" fill="#000"/><path d="M44.842 9.55c.277 0 .277-.429 0-.429-.278 0-.278.43 0 .43zm-2.398 3.514c.277 0 .277-.429 0-.429-.275 0-.275.43 0 .43zm1.917-6.867c.278 0 .278-.43 0-.43-.275 0-.278.43 0 .43zM23.122 59.858c.277 0 .277-.43 0-.43-.278 0-.278.43 0 .43zm3.991 2.712c.278 0 .278-.43 0-.43-.275 0-.275.43 0 .43zm-7.185-4.47c.278 0 .278-.428 0-.428-.277 0-.277.429 0 .429zm-1.118.96c.277 0 .277-.43 0-.43-.278 0-.278.43 0 .43zm-.638-3.995c.277 0 .277-.43 0-.43-.278 0-.278.43 0 .43zm-2.078-3.671c.278 0 .278-.43 0-.43-.274 0-.277.43 0 .43zm-1.436-4.793c.277 0 .277-.429 0-.429-.278 0-.278.43 0 .43zm-1.279 2.395c.277 0 .277-.429 0-.429-.275 0-.275.43 0 .43zm.161-6.226c.277 0 .277-.429 0-.429-.276 0-.278.43 0 .43zm1.596-2.077c.277 0 .277-.43 0-.43-.275 0-.275.43 0 .43zm.32 6.867c.278 0 .278-.43 0-.43-.277 0-.277.43 0 .43zm.853-6.762v-.32c0-.112-.098-.22-.215-.215a.218.218 0 00-.214.215v.32c0 .112.097.22.214.215.117-.006.215-.094.215-.215zm-1.485-4.306l-.16.16c-.08.08-.086.227 0 .304.085.077.217.086.303 0l.16-.16c.08-.08.086-.226 0-.304a.221.221 0 00-.303 0zm2.866-1.868c.278 0 .278-.43 0-.43-.274 0-.274.43 0 .43zm2.556-3.674c.277 0 .277-.43 0-.43-.275 0-.275.43 0 .43zm2.077-2.074c.278 0 .278-.43 0-.43-.277 0-.277.43 0 .43zm4.472-4.152c.278 0 .278-.43 0-.43-.277 0-.277.43 0 .43zm5.588-3.354c.278 0 .278-.429 0-.429-.274 0-.277.43 0 .43zm5.592-2.558c.277 0 .277-.429 0-.429-.278 0-.278.43 0 .43zm8.623-4.308c.278 0 .278-.43 0-.43-.277 0-.277.43 0 .43zm10.859-3.674c.278 0 .278-.43 0-.43s-.278.43 0 .43zM28.392 22.967c.278 0 .278-.43 0-.43-.277 0-.277.43 0 .43zm-4.312 4.63c.278 0 .278-.43 0-.43-.277 0-.277.43 0 .43zm-4.312 5.11c.278 0 .278-.43 0-.43-.277 0-.277.43 0 .43zm-4.152 2.876c.278 0 .278-.43 0-.43-.277 0-.277.43 0 .43zm3.514-3.354c.277 0 .277-.43 0-.43s-.277.43 0 .43zm1.597-3.991c.277 0 .277-.43 0-.43-.278 0-.278.43 0 .43zM17.69 37.18c.278 0 .278-.43 0-.43-.274 0-.274.43 0 .43zm-.958 4.311c.278 0 .278-.43 0-.43-.274 0-.274.43 0 .43zm-.317 4.95c.277 0 .277-.43 0-.43-.278 0-.278.43 0 .43zm-.481 2.715c.278 0 .278-.429 0-.429-.275 0-.275.43 0 .43zm.16 2.716c.278 0 .278-.43 0-.43-.274 0-.277.43 0 .43zm2.556 3.514c.277 0 .277-.43 0-.43-.275 0-.278.43 0 .43zm3.193 3.032c.277 0 .277-.429 0-.429-.275 0-.275.43 0 .43zm2.237 1.44c.278 0 .278-.43 0-.43-.277 0-.277.43 0 .43zm15.491 46.312c.278 0 .278-.429 0-.429-.277 0-.277.429 0 .429zm-1.119-2.555c.278 0 .278-.429 0-.429-.274 0-.277.429 0 .429zm1.597-3.036c.278 0 .278-.429 0-.429-.275 0-.278.429 0 .429zm1.597-4.311c.277 0 .277-.43 0-.43-.275 0-.275.43 0 .43zm1.757-3.674c.277 0 .277-.43 0-.43-.275 0-.275.43 0 .43zm1.917-3.992c.277 0 .277-.429 0-.429-.278 0-.278.43 0 .43zm.477-1.757c.278 0 .278-.429 0-.429-.274 0-.274.43 0 .43zm1.007-4.629c.055-.212.106-.426.16-.638.067-.27-.346-.384-.414-.115-.055.212-.106.427-.16.638-.066.27.346.384.414.115zm.112-1.44c.278 0 .278-.429 0-.429-.275 0-.277.43 0 .43zm-.478-3.353c.278 0 .278-.43 0-.43-.277 0-.277.43 0 .43zm-.958-.638c.277 0 .277-.429 0-.429-.278 0-.278.43 0 .43zm-2.077-4.632c.277 0 .277-.43 0-.43-.275 0-.275.43 0 .43z" fill="#000"/><path d="M43.242 72.153c.278 0 .278-.43 0-.43-.274 0-.274.43 0 .43zM40.53 106.17c.277 0 .277-.429 0-.429-.278 0-.278.429 0 .429zm-.32-2.715c.277 0 .277-.429 0-.429-.278 0-.278.429 0 .429zm-.479-.638c.278 0 .278-.429 0-.429-.277 0-.277.429 0 .429zm1.754-4.312c.278 0 .278-.43 0-.43-.274 0-.274.43 0 .43zm.959-2.875c.277 0 .277-.43 0-.43-.275 0-.275.43 0 .43zm1.599-2.235c.278 0 .278-.43 0-.43-.277 0-.277.43 0 .43zm7.983-9.743c.278 0 .278-.429 0-.429-.274 0-.274.43 0 .43zm0-3.834c.278 0 .278-.43 0-.43-.274 0-.274.43 0 .43zm-.478-3.671c.278 0 .278-.43 0-.43-.277 0-.277.43 0 .43zm-1.118-2.876c.277 0 .277-.429 0-.429-.275 0-.278.43 0 .43zm-1.917-2.555c.277 0 .277-.429 0-.429-.275 0-.275.43 0 .43zm-.959-.638c.278 0 .278-.429 0-.429-.275 0-.275.43 0 .43zm-1.276-.798c.278 0 .278-.43 0-.43-.277 0-.277.43 0 .43zM31.425 57.46c.277 0 .277-.43 0-.43-.275 0-.275.43 0 .43zm.958-2.235c.278 0 .278-.429 0-.429-.274 0-.277.43 0 .43zm1.271-1.181l.16-.16c.08-.08.086-.227 0-.304-.086-.077-.217-.086-.303 0l-.16.16c-.08.08-.086.226 0 .303.086.08.217.086.303 0zm1.923-1.214c.277 0 .277-.429 0-.429-.275 0-.275.43 0 .43zm1.705-.67l.32-.16c.1-.05.138-.2.078-.294a.22.22 0 00-.295-.077l-.32.16c-.1.051-.138.2-.078.295a.222.222 0 00.295.077zm1.491-.128c.277 0 .277-.43 0-.43-.278 0-.278.43 0 .43zm-4.313 2.555c.278 0 .278-.429 0-.429-.277 0-.277.43 0 .43zm2.396-.958c.277 0 .277-.43 0-.43-.278 0-.278.43 0 .43zm19.803 19.482c.277 0 .277-.43 0-.43-.278 0-.278.43 0 .43zm2.069-.861l.16-.16c.08-.08.086-.226 0-.304-.086-.077-.218-.085-.303 0l-.16.16c-.08.08-.087.227 0 .304.082.08.217.086.303 0zm1.124-.257c.278 0 .278-.43 0-.43-.275 0-.278.43 0 .43zm1.757 0c.277 0 .277-.43 0-.43-.275 0-.278.43 0 .43zm1.127.577l.16.16c.08.08.227.087.304 0a.22.22 0 000-.303l-.16-.16c-.08-.08-.227-.086-.304 0a.216.216 0 000 .303zm1.268.541c.277 0 .277-.43 0-.43-.275 0-.275.43 0 .43zm.798.321c.277 0 .277-.43 0-.43-.275 0-.275.43 0 .43zm.481.16c.277 0 .277-.43 0-.43-.278 0-.278.43 0 .43zm1.276 1.914c.277 0 .277-.43 0-.43-.275 0-.275.43 0 .43zm-6.547-2.235c.278 0 .278-.429 0-.429-.277 0-.277.43 0 .43zm2.716.321c.277 0 .277-.43 0-.43-.278 0-.278.43 0 .43zm2.395.798c.277 0 .277-.429 0-.429-.278 0-.278.43 0 .43z" fill="#000"/><path d="M64.802 74.07c.277 0 .277-.43 0-.43-.275 0-.275.43 0 .43zm.481 1.596c.277 0 .277-.429 0-.429-.278 0-.278.43 0 .43zm15.674-23.159c-.16-.266-.32-.532-.478-.798-.143-.238-.512-.02-.372.217.16.266.32.532.478.798.146.235.515.02.372-.217zm-1.757 0a3.985 3.985 0 00-.832-1.162c-.198-.191-.501.112-.304.304.32.312.575.67.764 1.075.12.25.492.032.372-.217zm-2.853.85a6.925 6.925 0 00-.815-2.129c-.14-.237-.51-.023-.372.218.369.635.624 1.307.772 2.028.055.266.47.152.415-.117zm-3.697-.052a537.86 537.86 0 00-.81-1.911c-.105-.255-.477-.034-.371.217.269.639.538 1.274.81 1.912.108.254.477.034.371-.218zm-3.968-.746l-.478-1.917c-.066-.27-.48-.155-.415.114.16.638.32 1.279.478 1.917.069.266.484.154.415-.114zm-2.704-1.599c-.103-.587-.203-1.174-.306-1.76-.046-.272-.46-.158-.415.114l.306 1.76c.049.272.46.157.415-.115zm-2.558-1.858v-1.119c0-.277-.43-.277-.43 0v1.12c0 .274.43.277.43 0zm-1.771-1.494a3.84 3.84 0 01.172-2.44c.103-.258-.312-.367-.415-.115a4.247 4.247 0 00-.172 2.67c.069.269.484.154.415-.115zm-1.394-2.835a3.058 3.058 0 01.593-2.824c.174-.212-.126-.515-.303-.303-.762.918-1.025 2.091-.702 3.241.072.264.487.152.412-.114zm-1.027-4.272l-.04.043.209-.054c-.114-.03.152-.893.18-.97a3.54 3.54 0 01.467-.845c.163-.223-.21-.437-.372-.217a3.677 3.677 0 00-.67 1.54c-.054.317-.134.8.278.906.071.018.157 0 .209-.054a.541.541 0 00.04-.043c.191-.206-.112-.51-.3-.306zm.95-3.436l.48-1.119c.11-.252-.262-.47-.371-.218-.16.372-.32.744-.48 1.12-.107.251.262.471.371.217zm-1.611-1.849l-.16-.16c-.08-.08-.226-.086-.303 0-.078.086-.086.218 0 .303l.16.16c.08.08.226.087.303 0a.221.221 0 000-.303zm-3.187-1.23c.277 0 .277-.43 0-.43-.275 0-.275.43 0 .43zm3.834.798c.278 0 .278-.429 0-.429s-.278.43 0 .43zm-2.077-.798c.277 0 .277-.43 0-.43-.275 0-.275.43 0 .43zm-.478 1.436c.277 0 .277-.429 0-.429-.278 0-.278.43 0 .43zm-2.876-1.596c.278 0 .278-.43 0-.43-.275 0-.277.43 0 .43zm-2.715-1.119c.277 0 .277-.43 0-.43-.275 0-.275.43 0 .43zm-4.63-.959c.278 0 .278-.429 0-.429-.277 0-.277.43 0 .43zm-3.994-.798c.277 0 .277-.43 0-.43-.275 0-.275.43 0 .43zm-3.992.48c.278 0 .278-.429 0-.429-.274 0-.277.43 0 .43zm-3.673.96c.277 0 .277-.43 0-.43-.275 0-.275.43 0 .43zm-3.992 1.596c.277 0 .277-.43 0-.43-.278 0-.278.43 0 .43zm-3.834 2.394c.277 0 .277-.428 0-.428-.275 0-.275.429 0 .429zM23.6 40.853c.277 0 .277-.43 0-.43-.275 0-.275.43 0 .43zm-1.757 4.472c.277 0 .277-.429 0-.429-.275 0-.275.43 0 .43zm-4.046 1.062v.16c0 .111.097.22.214.215.118-.006.215-.095.215-.215v-.16c0-.112-.097-.22-.215-.215a.218.218 0 00-.214.215zm.375-5.694c.277 0 .277-.43 0-.43-.278 0-.278.43 0 .43zm1.914-5.11c.277 0 .277-.43 0-.43-.275 0-.275.43 0 .43zm2.875-3.992c.278 0 .278-.43 0-.43-.274 0-.277.43 0 .43zm0-.641c.278 0 .278-.43 0-.43-.274 0-.277.43 0 .43zm4.79-4.312c.278 0 .278-.43 0-.43-.275 0-.275.43 0 .43zm1.119-1.116c.277 0 .277-.429 0-.429-.275 0-.275.43 0 .43zm6.229-3.513c.277 0 .277-.43 0-.43-.278 0-.278.43 0 .43zm5.748-4.313c.278 0 .278-.429 0-.429-.274 0-.274.43 0 .43zm-5.748 2.235c.277 0 .277-.429 0-.429-.278 0-.278.43 0 .43zm2.077.321c.278 0 .278-.43 0-.43-.277 0-.277.43 0 .43zM18.81 51.234c.277 0 .277-.43 0-.43-.278 0-.278.43 0 .43zm1.542 3.456v.16c0 .112.097.22.214.215.118-.006.215-.094.215-.215v-.16c0-.111-.097-.22-.215-.214a.217.217 0 00-.214.214zm2.77 2.292c.277 0 .277-.429 0-.429-.278 0-.278.43 0 .43zm2.875 2.715c.278 0 .278-.429 0-.429-.277 0-.277.43 0 .43zm8.143 6.069c.278 0 .278-.429 0-.429-.274 0-.277.43 0 .43zm3.514 1.757c.278 0 .278-.429 0-.429s-.278.43 0 .43zm7.345 4.79c.277 0 .277-.43 0-.43-.275 0-.275.43 0 .43zm2.398 4.793c.277 0 .277-.43 0-.43-.278 0-.278.43 0 .43zm.798 2.394c.278 0 .278-.429 0-.429s-.278.43 0 .43zm.318 2.873c.277 0 .277-.43 0-.43-.275 0-.275.43 0 .43zm0 3.354c.277 0 .277-.43 0-.43-.275 0-.275.43 0 .43zm-.959-.799c.278 0 .278-.429 0-.429-.275 0-.275.43 0 .43zm0 4.155c.278 0 .278-.43 0-.43-.275 0-.275.43 0 .43zm-2.555 4.629c.277 0 .277-.429 0-.429-.275 0-.275.43 0 .43zm-1.596 2.716c.277 0 .277-.43 0-.43-.275 0-.275.43 0 .43zm5.908-20.124c.278 0 .278-.429 0-.429-.275 0-.275.43 0 .43zm-6.386-7.665c.277 0 .277-.43 0-.43-.278 0-.278.43 0 .43zm-3.036-2.555c.277 0 .277-.43 0-.43-.275 0-.275.43 0 .43zm-3.671-.799c.277 0 .277-.429 0-.429-.278 0-.278.43 0 .43zm-2.716-1.435c.278 0 .278-.43 0-.43-.277 0-.277.43 0 .43zm-8.624-5.111c.278 0 .278-.43 0-.43-.277 0-.277.43 0 .43zm-3.193-3.193c.278 0 .278-.43 0-.43-.277 0-.277.43 0 .43zm51.309-5.065l-.32-1.119c-.075-.266-.49-.151-.416.115.106.372.212.744.321 1.119.077.266.492.151.415-.115zm-3.204-.475a56.34 56.34 0 01-.161-.798c-.054-.272-.47-.157-.415.114.055.266.109.532.16.799.058.269.47.154.415-.115zm-3.334-2.34v-.959c0-.277-.43-.277-.43 0v.959c0 .275.43.275.43 0zM63.9 44.95v-.958c0-.278-.428-.278-.428 0v.958c0 .275.429.275.429 0zm-1.493-4.417c.278 0 .278-.43 0-.43-.275 0-.277.43 0 .43zm12.298 13.734c.277 0 .277-.43 0-.43-.278 0-.278.43 0 .43zm-.321-1.917c.278 0 .278-.43 0-.43-.274 0-.277.43 0 .43zm-4.789 1.917c.277 0 .277-.43 0-.43-.278 0-.278.43 0 .43zm.343-2.237l-.16-.321c-.052-.1-.2-.138-.295-.078a.22.22 0 00-.077.295l.16.32c.052.1.2.138.295.078a.222.222 0 00.077-.295zm-2.1-1.915c.277 0 .277-.43 0-.43-.278 0-.278.43 0 .43zm-1.439 0c.277 0 .277-.43 0-.43-.275 0-.275.43 0 .43zM64.802 47.4c.277 0 .277-.43 0-.43-.275 0-.275.43 0 .43zm-2.074-1.437c.277 0 .277-.429 0-.429-.278 0-.278.43 0 .43zm-.321 1.437c.278 0 .278-.43 0-.43-.275 0-.277.43 0 .43zm-.638-4.63c.278 0 .278-.429 0-.429-.277 0-.277.43 0 .43zM55.7 36.859c.278 0 .278-.43 0-.43-.277 0-.277.43 0 .43zm26.032 15.173c.278 0 .278-.43 0-.43-.277 0-.277.43 0 .43zm-4.952-1.279c.277 0 .277-.43 0-.43-.275 0-.275.43 0 .43zm.48 2.395c.278 0 .278-.43 0-.43s-.278.43 0 .43zm1.437.641c.277 0 .277-.43 0-.43-.275 0-.278.43 0 .43zm-4.951-3.834c.278 0 .278-.43 0-.43-.277 0-.277.43 0 .43zm-3.673-1.757c.277 0 .277-.43 0-.43-.275 0-.278.43 0 .43zm-3.832-2.395c.278 0 .278-.43 0-.43-.277 0-.277.43 0 .43zm-1.917-3.193c.278 0 .278-.43 0-.43-.277 0-.277.43 0 .43zm.318 3.353c.277 0 .277-.429 0-.429-.275 0-.275.43 0 .43zm2.398 6.547c.277 0 .277-.43 0-.43-.278 0-.278.43 0 .43zm-2.556-1.597c.278 0 .278-.429 0-.429-.277 0-.277.43 0 .43zm-.16-2.077c.278 0 .278-.43 0-.43-.277 0-.277.43 0 .43zm-1.917-5.748c.278 0 .278-.43 0-.43-.275 0-.277.43 0 .43zm-1.119-1.866h-.16c-.111 0-.22.097-.215.215a.218.218 0 00.215.214h.16c.112 0 .22-.097.215-.214a.216.216 0 00-.215-.215zm-.638-1.648c.278 0 .278-.43 0-.43-.274 0-.277.43 0 .43z" fill="#000"/><path d="M60.333 39.894c.277 0 .277-.429 0-.429-.278 0-.278.43 0 .43zm-.801 2.396c.277 0 .277-.43 0-.43-.275 0-.275.43 0 .43zm.958 3.833c.278 0 .278-.429 0-.429-.275 0-.275.43 0 .43zm.64-1.596c.278 0 .278-.43 0-.43-.277 0-.277.43 0 .43zm.957 4.469c.277 0 .277-.429 0-.429-.275 0-.275.43 0 .43zm.958 1.439c.278 0 .278-.429 0-.429-.275 0-.275.43 0 .43zm5.11-1.439c.278 0 .278-.429 0-.429-.274 0-.274.43 0 .43zm2.715 5.591c.278 0 .278-.429 0-.429-.274 0-.274.43 0 .43zm2.876-1.597c.278 0 .278-.429 0-.429-.277 0-.277.43 0 .43zm-2.555-2.397c.278 0 .278-.43 0-.43-.277 0-.277.43 0 .43zm11.019.641c.278 0 .278-.43 0-.43-.277 0-.277.43 0 .43zm-2.875-.641c.277 0 .277-.43 0-.43-.275 0-.275.43 0 .43zm-3.033-1.757c.277 0 .277-.43 0-.43-.278 0-.278.43 0 .43zm-3.992-2.713c.278 0 .278-.429 0-.429-.277 0-.277.43 0 .43zm-3.356-1.917c.277 0 .277-.429 0-.429-.275 0-.275.43 0 .43zm-1.731-2.878c-.106-.212-.212-.426-.32-.638-.124-.246-.496-.029-.373.217.106.212.212.427.32.638.127.246.499.029.373-.217zm-.982-1.273c.278 0 .278-.43 0-.43-.277 0-.277.43 0 .43zm-1.118-2.395c.277 0 .277-.43 0-.43-.278 0-.278.43 0 .43zm-3.835-11.82c.278 0 .278-.43 0-.43-.274 0-.274.43 0 .43zm1.279-.318c.278 0 .278-.429 0-.429-.277 0-.277.43 0 .43zm1.276-.16c.278 0 .278-.43 0-.43-.274 0-.274.43 0 .43zm1.491-.189c.106.055.212.106.32.16.1.052.238.029.295-.077.052-.097.032-.24-.077-.295l-.32-.16c-.1-.051-.238-.028-.295.077-.052.098-.032.24.077.295zm1.225.987c.277 0 .277-.429 0-.429-.275 0-.275.43 0 .43zm-2.873 5.431c.278 0 .278-.43 0-.43-.277 0-.277.43 0 .43zm.638-2.715c.278 0 .278-.43 0-.43-.277 0-.277.43 0 .43zm.478-.959c.277 0 .277-.429 0-.429-.275 0-.275.43 0 .43zm0-1.437c.277 0 .277-.428 0-.428-.275 0-.275.429 0 .429zm-2.074 1.277c.277 0 .277-.43 0-.43-.278 0-.278.43 0 .43z" fill="#000"/><path d="M62.728 27.757c.277 0 .277-.43 0-.43-.278 0-.278.43 0 .43zm30.241 7.771a3.783 3.783 0 01.145-1.54c.08-.265-.332-.377-.414-.114a4.097 4.097 0 00-.16 1.654c.028.272.457.275.428 0zm-1.116-2.615l-.318-1.597c-.054-.271-.466-.157-.415.115l.318 1.597c.054.268.469.154.415-.115zm-2.249-2.495c-.055-.638-.106-1.276-.16-1.917-.023-.272-.453-.275-.43 0 .055.638.106 1.276.16 1.917.023.272.455.274.43 0zm-3.188-2.135c-.106-.372-.209-.747-.314-1.119-.075-.266-.49-.151-.415.115.106.372.209.747.314 1.119.075.263.49.151.415-.115zm-4.014-1.753c-.112-.533-.223-1.062-.332-1.594-.057-.27-.47-.155-.415.114.112.532.223 1.062.332 1.594.057.272.472.157.415-.115zm-3.491-2.02v-1.12c0-.277-.43-.277-.43 0v1.12c0 .274.43.274.43 0zm-3.691-1.715c-.212-.372-.423-.747-.638-1.119-.137-.24-.506-.022-.372.218.212.372.424.747.638 1.119.137.24.51.023.372-.218zm-4.006-.892l-.335-1.274c-.071-.266-.483-.154-.415.115l.335 1.273c.072.266.487.152.415-.114zm-3.671.32a500.03 500.03 0 01-.495-1.43c-.088-.261-.503-.15-.415.114.166.478.332.956.495 1.43.092.26.504.15.415-.114zm-2.718.103a6.927 6.927 0 00-1.305-1.803c-.195-.194-.5.11-.303.304a6.599 6.599 0 011.239 1.716c.12.247.492.03.369-.217zm-2.541.309l-.48-.638c-.07-.091-.187-.14-.295-.077-.092.054-.146.2-.078.294.16.212.32.427.481.639.069.091.186.14.295.077.091-.055.146-.2.077-.295zm27.912 9.273c.278 0 .278-.429 0-.429s-.278.43 0 .43zm-2.077-1.756c.277 0 .277-.43 0-.43-.275 0-.278.43 0 .43z" fill="#000"/><path d="M86.202 27.119c.277 0 .277-.43 0-.43-.275 0-.275.43 0 .43zm-3.354-1.757c.278 0 .278-.43 0-.43-.275 0-.275.43 0 .43zm.959 2.876c.277 0 .277-.43 0-.43-.275 0-.278.43 0 .43zM83.329 26c.277 0 .277-.43 0-.43-.278 0-.278.43 0 .43zm-.641-2.074c.278 0 .278-.43 0-.43-.275 0-.275.43 0 .43zm-3.353-.161c.277 0 .277-.429 0-.429-.275 0-.275.43 0 .43zm-.318.799c.278 0 .278-.43 0-.43s-.278.43 0 .43zm-1.597.16c.278 0 .278-.43 0-.43-.277 0-.277.43 0 .43zm.638-1.279c.278 0 .278-.43 0-.43-.277 0-.277.43 0 .43zm-6.228-.478c.277 0 .277-.43 0-.43-.275 0-.278.43 0 .43zm2.077.638c.277 0 .277-.43 0-.43-.278 0-.278.43 0 .43zm-3.354 0c.278 0 .278-.43 0-.43-.277 0-.277.43 0 .43zm.799-.32c.277 0 .277-.43 0-.43-.278 0-.278.43 0 .43zm-6.39-.638c.278 0 .278-.43 0-.43-.274 0-.277.43 0 .43zm-.798 0c.278 0 .278-.43 0-.43-.275 0-.278.43 0 .43zm6.069.16c.277 0 .277-.43 0-.43-.278 0-.278.43 0 .43zm4.79 1.436c.277 0 .277-.429 0-.429-.275 0-.275.43 0 .43zm3.196.959c.277 0 .277-.43 0-.43-.278 0-.278.43 0 .43z" fill="#000"/><path d="M83.06 27.728c1.385.638 2.767 1.28 4.152 1.917.248.115.466-.254.217-.372-1.385-.638-2.767-1.279-4.152-1.917-.249-.114-.469.255-.217.372zm-12.507-4.283c.278 0 .278-.43 0-.43-.277 0-.277.43 0 .43zm-1.917-1.597c.278 0 .278-.429 0-.429-.277 0-.277.43 0 .43zm-2.876.478c.278 0 .278-.429 0-.429-.274 0-.274.43 0 .43z" fill="#000"/><path d="M65.76 22.326c.278 0 .278-.429 0-.429-.274 0-.274.43 0 .43zm-1.173-.26l-3.193.958c-.263.08-.151.492.115.415 1.064-.32 2.128-.638 3.193-.959.263-.08.149-.495-.115-.414zm15.068 1.86c.278 0 .278-.43 0-.43s-.278.43 0 .43zm6.069 2.554c.277 0 .277-.428 0-.428-.278 0-.278.429 0 .429zm4.79 2.396c.277 0 .277-.43 0-.43-.275 0-.275.43 0 .43zm1.756 2.074c.278 0 .278-.43 0-.43-.274 0-.274.43 0 .43zm-11.336-3.514c.278 0 .278-.429 0-.429s-.278.43 0 .43zm-23.958-2.555c.278 0 .278-.429 0-.429-.274 0-.274.43 0 .43zm2.238-1.756c.278 0 .278-.43 0-.43s-.278.43 0 .43zm.798 0c.278 0 .278-.43 0-.43-.277 0-.277.43 0 .43zm3.831-.956c.278 0 .278-.43 0-.43-.274 0-.274.43 0 .43z" fill="#000"/><path d="M56.976 24.881c.278 0 .278-.429 0-.429-.274 0-.274.43 0 .43zm9.904-6.707c.277 0 .277-.429 0-.429-.278 0-.278.43 0 .43zm-4.313.959c.278 0 .278-.43 0-.43-.277 0-.277.43 0 .43zm3.674-10.06c.278 0 .278-.43 0-.43-.277 0-.277.43 0 .43zm6.069 1.276c.278 0 .278-.43 0-.43-.277 0-.277.43 0 .43zm8.464 1.596c.277 0 .277-.429 0-.429-.278 0-.278.43 0 .43zm5.748 3.515c.278 0 .278-.43 0-.43-.277 0-.277.43 0 .43zm4.632 5.43c.278 0 .278-.43 0-.43-.277 0-.277.43 0 .43zm1.757 4.472c.278 0 .278-.43 0-.43-.277 0-.277.43 0 .43zm1.276 5.27c.278 0 .278-.429 0-.429-.274 0-.277.43 0 .43zM83.008 14.981c.278 0 .278-.429 0-.429-.274 0-.277.43 0 .43zm-5.27-2.715c.278 0 .278-.43 0-.43-.275 0-.275.43 0 .43zm-7.826-.799c.278 0 .278-.429 0-.429-.274 0-.274.43 0 .43zm-5.11-.32c.277 0 .277-.43 0-.43-.275 0-.275.43 0 .43zm-3.672-1.116c.278 0 .278-.43 0-.43-.277 0-.277.43 0 .43zm-5.11 1.597c.278 0 .278-.43 0-.43-.277 0-.277.43 0 .43zm-2.237.958c.278 0 .278-.429 0-.429-.275 0-.277.43 0 .43zm-3.991 2.234c.277 0 .277-.428 0-.428-.278 0-.278.429 0 .429zm-1.279 2.238c.277 0 .277-.429 0-.429-.275 0-.275.43 0 .43zm-3.671-1.07h-.1a.215.215 0 00-.152.366.233.233 0 00.151.064h.1a.215.215 0 00.152-.366.233.233 0 00-.151-.064h-.1a.215.215 0 00-.152.366.233.233 0 00.151.064h.1a.215.215 0 00.152-.366.233.233 0 00-.151-.064zm-6.069 5.54c.277 0 .277-.43 0-.43-.278 0-.278.43 0 .43zm-9.743 6.229c.278 0 .278-.43 0-.43-.277 0-.277.43 0 .43zm-4.79 4.312c.278 0 .278-.43 0-.43-.277 0-.277.43 0 .43zm-3.722 6.916c-.16.426-.32.852-.478 1.279-.097.257.318.372.415.114.16-.426.32-.853.478-1.279.097-.26-.318-.372-.415-.114zm-1.07 3.465c.277 0 .277-.43 0-.43-.275 0-.278.43 0 .43zm.798 5.11c.277 0 .277-.43 0-.43-.275 0-.275.43 0 .43zm2.237 5.27c.278 0 .278-.429 0-.429-.277 0-.277.43 0 .43zm1.915 2.395c.277 0 .277-.429 0-.429-.275 0-.275.43 0 .43zm11.022 84.8c.277 0 .277-.429 0-.429-.278 0-.278.429 0 .429zm-.321-2.715c.277 0 .277-.429 0-.429-.278 0-.278.429 0 .429zm-.32-1.436c.277 0 .277-.429 0-.429-.275 0-.275.429 0 .429zm-.639-2.876c.278 0 .278-.429 0-.429-.274 0-.277.429 0 .429zm0-.478c.278 0 .278-.429 0-.429-.274 0-.277.429 0 .429zm-.477-5.431c.277 0 .277-.429 0-.429-.278 0-.278.429 0 .429zm-.161 1.757c.278 0 .278-.429 0-.429-.277 0-.277.429 0 .429zm0-2.555c.278 0 .278-.429 0-.429-.277 0-.277.429 0 .429zm-.266-7.88c-.106-1.119-.211-2.235-.32-3.353-.026-.272-.455-.275-.43 0 .106 1.118.212 2.234.321 3.353.026.272.458.275.43 0zm-.054 2.93c.277 0 .277-.429 0-.429-.275 0-.278.429 0 .429z" fill="#000"/><path d="M32.864 117.827c.278 0 .278-.429 0-.429-.277 0-.277.429 0 .429zm-.32-2.715c.277 0 .277-.429 0-.429-.278 0-.278.429 0 .429zm.16 7.665c.277 0 .277-.429 0-.429-.278 0-.278.429 0 .429z" fill="#000"/><path d="M32.49 121.765c.105 2.394.211 4.789.32 7.187.011.275.44.278.43 0l-.321-7.187c-.015-.275-.444-.275-.43 0zm-.267-11.603c.278 0 .278-.429 0-.429-.274 0-.274.429 0 .429zm.481 26.032c.277 0 .277-.429 0-.429-.278 0-.278.429 0 .429z" fill="#000"/><path d="M32.383 136.352c.278 0 .278-.43 0-.43-.274 0-.277.43 0 .43zm-1.436-5.589c.278 0 .278-.429 0-.429-.277 0-.277.429 0 .429zm-.481-3.193c.278 0 .278-.429 0-.429-.274 0-.274.429 0 .429zm-.477-3.513c.277 0 .277-.43 0-.43-.278 0-.278.43 0 .43zm-.161-5.591c.278 0 .278-.43 0-.43-.274 0-.277.43 0 .43zm-.16-3.671c.278 0 .278-.43 0-.43-.274 0-.274.43 0 .43zm-.16-.481c.278 0 .278-.43 0-.43-.275 0-.275.43 0 .43zm.16-3.674c.278 0 .278-.429 0-.429-.274 0-.274.429 0 .429zm.026 26.507l-.16-.32c-.052-.101-.2-.138-.295-.078a.22.22 0 00-.077.295l.16.32c.052.101.2.138.295.078a.22.22 0 00.077-.295zm-.504-4.467c.278 0 .278-.429 0-.429-.277 0-.277.429 0 .429zm-.48-3.196c.277 0 .277-.429 0-.429-.275 0-.275.429 0 .429zm-.478-2.872c.277 0 .277-.43 0-.43-.278 0-.278.43 0 .43zm.32-3.194c.278 0 .278-.429 0-.429-.277 0-.277.429 0 .429zm-.641-5.751c.278 0 .278-.429 0-.429-.274 0-.274.429 0 .429zm-.16-1.917c.278 0 .278-.429 0-.429-.275 0-.275.429 0 .429zm-.157-1.436c.277 0 .277-.43 0-.43-.278 0-.278.43 0 .43zm-.161-2.235c.278 0 .278-.429 0-.429-.277 0-.277.429 0 .429zm-.16-.638c.278 0 .278-.429 0-.429-.274 0-.277.429 0 .429zm8.945 22.516c.277 0 .277-.43 0-.43-.278 0-.278.43 0 .43zm-1.279-4.152c.277 0 .277-.429 0-.429-.275 0-.278.429 0 .429zm-.16-3.514c.277 0 .277-.429 0-.429-.275 0-.275.429 0 .429zm.695-3.408v-.638c0-.277-.43-.277-.43 0v.638c0 .275.43.278.43 0zm-.054-1.382c.277 0 .277-.429 0-.429-.278 0-.278.429 0 .429zm.477-5.908c.278 0 .278-.429 0-.429-.277 0-.277.429 0 .429zm.16-2.238c.278 0 .278-.429 0-.429-.277 0-.277.429 0 .429zm.504-2.661l.16-.32c.052-.1.029-.238-.077-.295-.097-.052-.24-.031-.295.077-.054.106-.106.212-.16.321-.051.1-.029.237.077.294.1.052.24.032.295-.077zm.135-.692c.277 0 .277-.429 0-.429-.275 0-.278.429 0 .429zm-2.396 9.104c.278 0 .278-.429 0-.429-.277 0-.277.429 0 .429zm3.034 13.574c.277 0 .277-.429 0-.429-.275 0-.275.429 0 .429zm.48 3.514c.278 0 .278-.429 0-.429-.277 0-.277.429 0 .429zm1.757 2.235c.278 0 .278-.429 0-.429-.277 0-.277.429 0 .429zm.639 1.119c.277 0 .277-.43 0-.43-.278 0-.278.43 0 .43zm1.275.638c.278 0 .278-.429 0-.429-.274 0-.274.429 0 .429zm-9.422-.478c.278 0 .278-.43 0-.43-.275 0-.275.43 0 .43zm-2.873.638c.278 0 .278-.429 0-.429-.277 0-.277.429 0 .429zm-2.555-.798c.278 0 .278-.43 0-.43-.277 0-.277.43 0 .43zm.478-1.279c.278 0 .278-.43 0-.43-.275 0-.275.43 0 .43zm1.597-3.832c.277 0 .277-.429 0-.429-.275 0-.275.429 0 .429zm1.439-2.237c.277 0 .277-.429 0-.429-.278 0-.278.429 0 .429z" fill="#000"/><path d="M30.31 131.882c.277 0 .277-.429 0-.429-.278 0-.278.429 0 .429zm-2.716-2.715c.277 0 .277-.429 0-.429-.278 0-.278.429 0 .429zm-1.119 2.876c.278 0 .278-.43 0-.43-.277 0-.277.43 0 .43zm.638-2.238c.278 0 .278-.429 0-.429-.275 0-.275.429 0 .429zm3.995-4.152c.277 0 .277-.429 0-.429-.278 0-.278.429 0 .429zm3.831-.32c.277 0 .277-.429 0-.429-.275 0-.278.429 0 .429zm.798 2.715c.278 0 .278-.429 0-.429-.275 0-.275.429 0 .429zm.959 2.715c.277 0 .277-.429 0-.429-.275 0-.278.429 0 .429zm1.917-1.756c.277 0 .277-.43 0-.43-.278 0-.278.43 0 .43zm-.959-2.395c.278 0 .278-.43 0-.43s-.278.43 0 .43zm-6.867-5.749c.277 0 .277-.429 0-.429-.278 0-.278.429 0 .429zm0-4.472c.277 0 .277-.429 0-.429-.278 0-.278.429 0 .429zm-.638.16c.277 0 .277-.429 0-.429-.278 0-.278.429 0 .429zm-4.927 5.002c.054-.106.106-.212.16-.321.051-.1.029-.237-.077-.294-.098-.052-.24-.032-.295.077l-.16.32c-.052.101-.029.238.077.295.1.052.243.032.295-.077zm.932-3.245c.278 0 .278-.429 0-.429-.274 0-.274.429 0 .429zm.481-2.558c.278 0 .278-.429 0-.429-.277 0-.277.429 0 .429zm.16-1.754c.278 0 .278-.429 0-.429-.277 0-.277.429 0 .429zm3.832-1.917c.277 0 .277-.429 0-.429-.275 0-.278.429 0 .429zm9.583-3.196c.277 0 .277-.429 0-.429-.278 0-.278.429 0 .429zm-1.437 2.558c.277 0 .277-.429 0-.429-.278 0-.278.429 0 .429zm-.366 4.152c.105.426.211.853.32 1.279.066.269.48.154.415-.115-.106-.426-.212-.852-.32-1.279-.07-.266-.484-.151-.416.115zm1.004 3.353c.277 0 .277-.429 0-.429-.278 0-.278.429 0 .429zm1.757 3.033c.277 0 .277-.429 0-.429-.278 0-.278.429 0 .429zm-2.238-1.436c.278 0 .278-.429 0-.429-.274 0-.274.429 0 .429zm-1.276-.481c.278 0 .278-.429 0-.429s-.278.429 0 .429zm3.831-.317c.278 0 .278-.43 0-.43-.274 0-.274.43 0 .43zm-19.002 1.436c.278 0 .278-.429 0-.429-.277 0-.277.429 0 .429zm3.033 3.193c.278 0 .278-.429 0-.429-.274 0-.277.429 0 .429zm-.798-14.532c.278 0 .278-.43 0-.43-.275 0-.277.43 0 .43zm3.674-.638c.278 0 .278-.43 0-.43-.277 0-.277.43 0 .43zm3.193-.478c.278 0 .278-.429 0-.429-.274 0-.277.429 0 .429zm3.992-.161c.277 0 .277-.429 0-.429-.275 0-.275.429 0 .429zm1.917 0c.277 0 .277-.429 0-.429-.275 0-.278.429 0 .429zm3.036-.32c.277 0 .277-.429 0-.429-.278 0-.278.429 0 .429zm.478 1.757c.277 0 .277-.429 0-.429-.275 0-.278.429 0 .429zm75.217-45.194c.278 0 .278-.43 0-.43-.275 0-.275.43 0 .43zm1.757 1.756c.278 0 .278-.429 0-.429-.275 0-.275.43 0 .43zm1.439 1.437c.278 0 .278-.43 0-.43-.277 0-.277.43 0 .43z" fill="#000"/><path d="M119.421 68.001c.278 0 .278-.43 0-.43-.277 0-.277.43 0 .43zm.959.321c.277 0 .277-.43 0-.43-.278 0-.278.43 0 .43zm-1.757-2.395c.278 0 .278-.43 0-.43s-.278.43 0 .43zm-.959-.642c.278 0 .278-.429 0-.429-.277 0-.277.43 0 .43zm35.975 15.655c.178-.902.352-1.803.53-2.704.051-.27-.361-.387-.415-.115l-.529 2.704c-.052.27.363.383.414.115zm-3.03.798c.212-.532.427-1.064.638-1.597.103-.257-.311-.369-.414-.114-.212.532-.427 1.064-.638 1.597-.103.257.311.369.414.114zm-3.213.692c.218-.478.438-.952.655-1.43.115-.25-.254-.467-.372-.218-.217.478-.437.953-.655 1.43-.111.25.258.467.372.218zm-3.677.158c.212-.426.427-.853.638-1.28.124-.245-.246-.463-.371-.217-.212.427-.427.853-.639 1.28-.12.246.249.463.372.217zm-4.343.203l1.279-1.279c.194-.195-.109-.498-.303-.303l-1.279 1.279c-.198.194.105.498.303.303zm-4.12-.043c.32-.478.638-.959.958-1.436.155-.232-.217-.447-.372-.218-.32.478-.638.959-.958 1.437-.152.231.22.446.372.217zm-3.546-.278l.799-.798c.194-.194-.109-.498-.304-.303l-.798.798c-.197.198.106.5.303.303zm-4.188-1.07l1.256-.678c.243-.131.025-.5-.218-.372l-1.256.678c-.243.132-.026.504.218.372zm-2.887-.981l1.436-.798c.24-.135.026-.504-.218-.372l-1.436.798c-.243.134-.026.506.218.372zm-2.267-2.197c.166-.424.332-.847.495-1.27.101-.258-.314-.37-.414-.115-.166.423-.332.847-.495 1.27-.101.258.314.37.414.115zm-1.465-2.552c.106-.267.212-.533.321-.8.043-.108-.049-.234-.149-.263-.123-.034-.22.043-.263.15a88.66 88.66 0 01-.321.798c-.042.108.049.234.149.263.123.037.223-.043.263-.149zm69.003 30.297c.427.267.85.536 1.276.802.235.146.45-.224.218-.372-.426-.266-.85-.535-1.276-.802-.235-.145-.452.227-.218.372zm.152 3.051c.472.226.947.449 1.419.675.249.117.467-.252.218-.372-.472-.226-.947-.449-1.42-.675-.248-.118-.466.254-.217.372zm-.106 2.566l1.757.478c.266.071.381-.341.114-.415l-1.756-.478c-.266-.071-.381.344-.115.415zm.375 3.848c.426.055.853.106 1.279.161.275.034.272-.395 0-.429-.426-.055-.853-.106-1.279-.161-.275-.034-.272.395 0 .429zm.103 3.345c.478.161.958.321 1.436.478.264.089.375-.326.115-.415l-1.437-.478c-.263-.085-.374.329-.114.415zm.532 4.018l1.276.163c.272.034.272-.395 0-.429l-1.276-.163c-.272-.035-.269.394 0 .429zm-.057 3.665c.426.109.85.215 1.276.323.269.069.384-.346.115-.415l-1.277-.323c-.269-.069-.383.346-.114.415zm-.956 3.657c.427.16.853.32 1.279.478.258.097.372-.318.115-.415-.427-.16-.853-.321-1.279-.478-.258-.097-.369.318-.115.415zm-1.525 2.335c.426.372.856.741 1.282 1.113.209.18.512-.123.303-.304-.426-.372-.855-.741-1.282-1.113-.208-.18-.512.121-.303.304zm-1.076 2.746l.481.318c.232.152.446-.22.218-.372l-.481-.318c-.232-.148-.447.221-.218.372zm-1.817 1.743l.959.958c.195.195.498-.108.303-.303l-.958-.958c-.195-.198-.498.105-.304.303zm-1.776.901c.105.212.211.427.32.638.123.246.495.029.372-.217-.106-.212-.212-.426-.32-.638-.126-.246-.495-.029-.372.217zm-2.536.784l.65.95c.154.226.526.012.372-.217l-.65-.95c-.154-.226-.526-.012-.372.217zm-2.46-.666l.154.48c.086.261.501.149.415-.114l-.154-.481c-.086-.26-.501-.149-.415.115zm-2.532-1.606c.054.161.105.321.16.478.037.109.149.183.263.149.109-.029.186-.154.149-.263-.055-.16-.106-.321-.16-.478-.038-.109-.149-.183-.264-.149-.106.029-.186.155-.148.263zm-1.391-2.558c.278 0 .278-.429 0-.429-.275 0-.278.429 0 .429zm-5.637-22.878l1.119.317c.266.075.38-.338.114-.415l-1.118-.317c-.267-.075-.381.337-.115.415zm1.165-1.394h.16c.112 0 .22-.097.215-.215a.218.218 0 00-.215-.214h-.16c-.112 0-.221.097-.215.214.006.115.095.215.215.215zm-.853 3.806c.426.057.85.117 1.276.174.269.037.386-.378.115-.415-.427-.057-.85-.117-1.276-.174-.269-.037-.387.377-.115.415zm.157 3.213c.267.106.533.211.799.32.108.043.234-.048.263-.149.034-.123-.043-.22-.149-.263-.266-.106-.532-.212-.798-.32-.109-.043-.235.048-.263.149-.038.12.043.22.148.263zm-.323 3.367c.321.106.638.215.959.321.263.089.374-.326.114-.415-.32-.106-.638-.215-.958-.32-.264-.086-.375.326-.115.414zm.858 3.028h.321c.111 0 .22-.097.215-.215a.218.218 0 00-.215-.214h-.321c-.111 0-.22.097-.214.214.006.118.094.215.214.215zm-.317 3.187c.423.057.815.218 1.167.461.229.157.444-.215.218-.372a3.1 3.1 0 00-1.382-.518c-.275-.037-.272.392-.003.429zm.638 3.202c.277 0 .277-.429 0-.429-.275 0-.278.429 0 .429zm-.587 2.206c.106.054.212.106.321.16.1.052.237.029.295-.077.051-.097.031-.24-.078-.295-.105-.054-.211-.106-.32-.16-.1-.051-.238-.029-.295.077-.051.098-.031.241.077.295zm-1.756 1.757c.105.054.211.106.32.16.1.052.238.029.295-.077.051-.098.031-.241-.078-.295-.105-.054-.211-.106-.32-.16-.1-.052-.237-.029-.295.077-.051.097-.031.24.078.295zm-2.484-.24c-.109.558.071 1.127.518 1.493.212.175.518-.129.303-.303-.323-.263-.489-.658-.406-1.076.051-.272-.364-.386-.415-.114zm-2.512-.115l.16.16c.08.08.226.086.303 0 .078-.086.086-.217 0-.303l-.16-.16c-.08-.08-.226-.086-.303 0a.22.22 0 000 .303zm-2.873-2.555l.16.16c.08.08.226.086.304 0 .077-.086.085-.217 0-.303l-.161-.16c-.08-.08-.226-.086-.303 0-.08.086-.086.22 0 .303zm5.531 1.153c.16-.106.32-.212.478-.32a.22.22 0 00.077-.295c-.057-.095-.197-.14-.295-.077-.16.106-.32.211-.478.32a.22.22 0 00-.077.295c.055.094.198.14.295.077zm2.126-.93c.277 0 .277-.429 0-.429-.275 0-.278.429 0 .429zm.638-3.033c.277 0 .277-.429 0-.429-.275 0-.275.429 0 .429zm-.318-6.069c.278 0 .278-.429 0-.429-.277 0-.277.429 0 .429z" fill="#000"/><path d="M168.447 121.662c.277 0 .277-.43 0-.43-.275 0-.275.43 0 .43zm-.158-6.23c.278 0 .278-.429 0-.429-.277 0-.277.429 0 .429zm3.514 7.666c.277 0 .277-.429 0-.429-.278 0-.278.429 0 .429zm5.11 12.936c.278 0 .278-.429 0-.429-.277 0-.277.429 0 .429zm2.713 1.436c.277 0 .277-.429 0-.429-.275 0-.275.429 0 .429zm2.186-.666c.211-.106.426-.212.638-.321.246-.123.028-.495-.218-.372-.211.106-.426.212-.638.321-.246.123-.028.495.218.372zm1.488-.77c.277 0 .277-.429 0-.429-.275 0-.278.429 0 .429zm3.539-3.302l.798-1.279c.146-.235-.223-.449-.372-.218l-.798 1.279c-.146.238.226.452.372.218z" fill="#000"/><path d="M187.294 132.52c.278 0 .278-.429 0-.429s-.278.429 0 .429zm1.436-3.036c.278 0 .278-.429 0-.429-.277 0-.277.429 0 .429zm.959-3.032c.277 0 .277-.43 0-.43-.278 0-.278.43 0 .43zm.638-4.313c.278 0 .278-.429 0-.429s-.278.429 0 .429zm.32-4.632c.278 0 .278-.429 0-.429-.277 0-.277.429 0 .429zm-.798-3.193c.278 0 .278-.43 0-.43-.277 0-.277.43 0 .43zm2.555-6.867c.278 0 .278-.43 0-.43-.277 0-.277.43 0 .43zm.158 3.674c.277 0 .277-.429 0-.429-.275 0-.275.429 0 .429zm.32 3.674c.278 0 .278-.43 0-.43s-.278.43 0 .43zm-.16 3.353c.277 0 .277-.429 0-.429-.275 0-.275.429 0 .429zm0 3.193c.277 0 .277-.429 0-.429-.275 0-.275.429 0 .429zm-.318 6.069c.278 0 .278-.429 0-.429-.277 0-.277.429 0 .429zm-.16 3.193c.278 0 .278-.429 0-.429s-.278.429 0 .429zm-.904-1.971v-.161c0-.111-.097-.22-.215-.214-.117.006-.214.094-.214.214v.161c0 .111.097.22.214.214a.217.217 0 00.215-.214zm-.215 5.164c.278 0 .278-.429 0-.429-.274 0-.277.429 0 .429zm-.798-1.116c.278 0 .278-.429 0-.429s-.278.429 0 .429zm-.321 3.672c.278 0 .278-.43 0-.43-.274 0-.274.43 0 .43zm-.958-1.437c.278 0 .278-.429 0-.429-.275 0-.275.429 0 .429zm-.638 2.555c.277 0 .277-.429 0-.429-.275 0-.275.429 0 .429z" fill="#000"/><path d="M188.41 137.47c.277 0 .277-.429 0-.429-.275 0-.275.429 0 .429zm-1.757.799c.278 0 .278-.43 0-.43-.275 0-.275.43 0 .43zm-.958 1.279c.277 0 .277-.43 0-.43-.275 0-.275.43 0 .43z" fill="#000"/><path d="M185.695 139.548c.277 0 .277-.43 0-.43-.275 0-.275.43 0 .43zm-1.757-.321c.277 0 .277-.429 0-.429-.275 0-.275.429 0 .429zm-1.7.217c-.266-.054-.532-.105-.798-.16-.269-.054-.386.361-.115.415l.799.16c.271.055.386-.36.114-.415z" fill="#000"/><path d="M182.501 140.186c.278 0 .278-.429 0-.429-.274 0-.277.429 0 .429zm-2.395-.638c.278 0 .278-.43 0-.43-.277 0-.277.43 0 .43zm-3.674-3.196c.278 0 .278-.43 0-.43-.274 0-.274.43 0 .43zm-5.748-4.79c.278 0 .278-.43 0-.43-.277 0-.277.43 0 .43zm.478-1.917c.278 0 .278-.43 0-.43-.275 0-.275.43 0 .43zm-.318-2.873c.278 0 .278-.429 0-.429-.277 0-.277.429 0 .429zm-3.513-.799c.277 0 .277-.429 0-.429-.278 0-.278.429 0 .429zm.16.956c.278 0 .278-.429 0-.429s-.278.429 0 .429zm-1.757 2.555c.278 0 .278-.429 0-.429-.277 0-.277.429 0 .429zm-.481.802c.278 0 .278-.43 0-.43-.274 0-.274.43 0 .43zm-.317 2.074c.277 0 .277-.429 0-.429-.278 0-.278.429 0 .429zm-2.555-1.917c.277 0 .277-.429 0-.429-.278 0-.278.429 0 .429z" fill="#000"/><path d="M162.381 130.443c.277 0 .277-.429 0-.429-.278 0-.278.429 0 .429zm2.395 3.514c.277 0 .277-.43 0-.43-.278 0-.278.43 0 .43zm2.715.798c.278 0 .278-.429 0-.429s-.278.429 0 .429zm3.353-1.436c.278 0 .278-.43 0-.43-.277 0-.277.43 0 .43zm1.174-1.812v-.16c0-.112-.098-.22-.215-.215-.117.006-.215.095-.215.215v.16c0 .112.098.221.215.215.114-.006.215-.095.215-.215zm11.442 2.45c.277 0 .277-.43 0-.43-.278 0-.278.43 0 .43zm3.834-5.428c.278 0 .278-.429 0-.429s-.278.429 0 .429zm.956-6.55c.277 0 .277-.429 0-.429-.275 0-.275.429 0 .429zm-.318-5.908c.278 0 .278-.429 0-.429-.277 0-.277.429 0 .429zm-.32-5.111c.277 0 .277-.429 0-.429-.275 0-.278.429 0 .429zm-.318-3.991c.278 0 .278-.429 0-.429s-.278.429 0 .429zm-1.279-4.633c.277 0 .277-.429 0-.429-.278 0-.278.429 0 .429zm2.395-.638c.277 0 .277-.429 0-.429-.275 0-.275.429 0 .429zm.32 1.917c.278 0 .278-.429 0-.429-.277 0-.277.429 0 .429zm-3.513-5.27c.277 0 .277-.43 0-.43-.278 0-.278.43 0 .43zm-1.917-4.793c.277 0 .277-.429 0-.429-.275 0-.278.43 0 .43zm-.959-5.428c.278 0 .278-.429 0-.429-.275 0-.275.43 0 .43zm-.478-2.715c.278 0 .278-.43 0-.43-.277 0-.277.43 0 .43zm0-3.674c.278 0 .278-.429 0-.429-.277 0-.277.43 0 .43zm10.85-21.142l.799-.638c.214-.172-.089-.475-.304-.303-.266.211-.532.426-.798.638-.215.171.091.475.303.303zm1.397 2.429c.32-.211.638-.426.958-.638.229-.151.014-.523-.217-.372-.321.212-.638.427-.959.638-.229.152-.014.524.218.372zm1.116 4.47c.477-.32.958-.638 1.436-.959.229-.152.014-.523-.218-.372-.477.32-.958.638-1.436.959-.226.154-.011.526.218.372zm1.865 3.376l1.119-.32c.266-.075.151-.49-.115-.415-.372.106-.744.211-1.118.32-.264.077-.152.492.114.415zm1.119 4.472a5.555 5.555 0 002.011-1.013c.218-.171-.088-.472-.303-.303a5.07 5.07 0 01-1.823.904c-.266.069-.154.484.115.412zm1.651 4.295c.372-.16.747-.318 1.119-.478.251-.109.034-.478-.218-.372-.372.16-.747.318-1.119.478-.254.112-.034.48.218.372zm.583 4.489c.372-.054.744-.105 1.119-.16.272-.04.158-.452-.114-.415-.372.055-.744.106-1.119.16-.272.04-.154.453.114.415zm.478 4.135l.959-.16c.272-.046.157-.458-.115-.415l-.958.16c-.272.049-.158.46.114.415zm.049 3.047c.518.1 1.03.103 1.551.012.272-.049.157-.461-.115-.415-.44.077-.884.071-1.324-.012-.269-.051-.384.36-.112.415zm.375 3.365c.277 0 .277-.43 0-.43-.275 0-.278.43 0 .43zm-.736 2.985l.965.469c.246.12.466-.25.217-.372-.32-.158-.641-.312-.964-.47-.249-.12-.467.252-.218.373zm-1.799 2.532c.417.475.904.875 1.445 1.201.237.143.452-.229.217-.372a5.808 5.808 0 01-1.359-1.133c-.183-.206-.486.097-.303.304zm-.979 2.629c.278 0 .278-.429 0-.429-.275 0-.275.429 0 .429zm-2.93.263v.321c0 .111.097.22.215.214a.217.217 0 00.214-.214v-.321c0-.111-.097-.22-.214-.214a.22.22 0 00-.215.214zm-2.649-.486l.16.16c.08.08.226.086.303 0 .077-.086.086-.217 0-.303l-.16-.16c-.08-.081-.226-.086-.303 0a.215.215 0 000 .303zm-2.564-2.332c.277 0 .277-.43 0-.43-.278 0-.278.43 0 .43zm.478-3.674c.277 0 .277-.429 0-.429-.275 0-.278.43 0 .43zm10.054 6.644l.161-.16c.08-.08.085-.226 0-.304a.22.22 0 00-.304 0l-.16.161c-.08.08-.086.226 0 .303.086.08.217.086.303 0z" fill="#000"/><path d="M201.984 98.185c.277 0 .277-.43 0-.43-.275 0-.275.43 0 .43zm.641-3.835c.277 0 .277-.429 0-.429-.278 0-.278.43 0 .43zm0-3.193c.277 0 .277-.429 0-.429-.278 0-.278.43 0 .43zm-1.279-7.345c.277 0 .277-.429 0-.429-.275 0-.278.43 0 .43zm-.959-2.875c.278 0 .278-.43 0-.43-.274 0-.274.43 0 .43zm-.798-3.992c.278 0 .278-.429 0-.429-.275 0-.275.43 0 .43zm-1.276-3.994c.277 0 .277-.43 0-.43-.278 0-.278.43 0 .43zm-.799-3.033c.278 0 .278-.43 0-.43-.277 0-.277.43 0 .43zm-1.118-2.395c.277 0 .277-.429 0-.429-.278 0-.278.43 0 .43zm-1.279-2.238c.277 0 .277-.429 0-.429-.275 0-.275.43 0 .43zm-.956 1.44c.278 0 .278-.43 0-.43-.277 0-.277.43 0 .43z" fill="#000"/><path d="M194.161 66.564c.278 0 .278-.429 0-.429-.277 0-.277.43 0 .43zm6.387 9.74c.277 0 .277-.429 0-.429-.275 0-.278.43 0 .43zm-1.277-3.831c.278 0 .278-.43 0-.43-.277 0-.277.43 0 .43zm-.958-3.834c.277 0 .277-.43 0-.43-.278 0-.278.43 0 .43zm-1.597-4.152c.278 0 .278-.429 0-.429-.277 0-.277.43 0 .43zm-1.439-1.116c.277 0 .277-.429 0-.429-.275 0-.275.43 0 .43zm-1.116-3.196c.278 0 .278-.429 0-.429-.277 0-.277.43 0 .43z" fill="#000"/><path d="M194.161 59.858c.278 0 .278-.43 0-.43-.277 0-.277.43 0 .43zm6.547 39.923c.277 0 .277-.429 0-.429-.278 0-.278.43 0 .43zm1.86-3.568v.16c0 .112.097.22.214.215.117-.006.215-.094.215-.215v-.16c0-.111-.098-.22-.215-.214a.22.22 0 00-.214.214zm-5.829 5.059c.055-.106.106-.212.16-.32.052-.101.029-.238-.077-.295-.097-.052-.24-.032-.295.077-.054.106-.105.212-.16.321-.051.1-.028.237.077.294.101.052.244.032.295-.077zm1.414-3.408c.277 0 .277-.429 0-.429-.278 0-.278.43 0 .43zm1.917-4.469c.277 0 .277-.43 0-.43-.278 0-.278.43 0 .43zm.157-4.472c.278 0 .278-.43 0-.43-.275 0-.275.43 0 .43zm-.798-4.313c.277 0 .277-.428 0-.428-.275 0-.275.429 0 .429zm-.959-3.673c.278 0 .278-.43 0-.43-.275 0-.275.43 0 .43zm-2.074-4.472c.277 0 .277-.43 0-.43-.278 0-.278.43 0 .43zm-.481-3.194c.278 0 .278-.429 0-.429-.275 0-.275.43 0 .43zm-1.276-2.715c.277 0 .277-.43 0-.43-.278 0-.278.43 0 .43zm-1.917-4.629c.277 0 .277-.43 0-.43-.275 0-.275.43 0 .43zm-.798-1.6c.277 0 .277-.43 0-.43-.275 0-.278.43 0 .43zm1.596 4.793c.278 0 .278-.43 0-.43-.274 0-.274.43 0 .43zm.799 31.142c.277 0 .277-.43 0-.43-.275 0-.275.43 0 .43zm-2.873-.802c.277 0 .277-.428 0-.428-.278 0-.278.429 0 .429zm9.74 1.44c.277 0 .277-.429 0-.429-.275 0-.275.429 0 .429zm-1.277-4.152c.278 0 .278-.429 0-.429-.277 0-.277.43 0 .43zm2.395-6.549c.278 0 .278-.43 0-.43-.274 0-.277.43 0 .43zm-.477-3.671c.277 0 .277-.43 0-.43-.278 0-.278.43 0 .43zm-.321-3.994c.278 0 .278-.43 0-.43s-.278.43 0 .43zm-46.793-3.514c.277 0 .277-.43 0-.43-.275 0-.275.43 0 .43zm-4.152 2.237c.277 0 .277-.429 0-.429-.275 0-.275.43 0 .43zm-3.729.375c-.32.106-.638.212-.958.32-.26.087-.149.501.114.416.321-.106.638-.212.959-.32.26-.087.149-.502-.115-.416zm-3.937 1.062c.278 0 .278-.43 0-.43-.274 0-.274.43 0 .43zm-1.116 0c.278 0 .278-.43 0-.43-.277 0-.277.43 0 .43zm-2.555 0c.278 0 .278-.43 0-.43-.277 0-.277.43 0 .43zm-2.398-.321c.278 0 .278-.43 0-.43-.274 0-.274.43 0 .43zm-4.789-.798c.277 0 .277-.43 0-.43-.278 0-.278.43 0 .43zm-.799.16c.278 0 .278-.429 0-.429-.277 0-.277.43 0 .43zm-3.991-.798c.277 0 .277-.43 0-.43-.278 0-.278.43 0 .43zm-.693-1.199l-1.917-1.28c-.231-.154-.446.218-.217.373.638.426 1.279.852 1.917 1.279.232.151.446-.218.217-.372zm1.171.878c.277 0 .277-.429 0-.429-.278 0-.278.43 0 .43zm-3.514-3.193c.278 0 .278-.43 0-.43-.275 0-.277.43 0 .43zm.16 2.395c.278 0 .278-.43 0-.43-.277 0-.277.43 0 .43zm12.138-2.395c.277 0 .277-.43 0-.43-.278 0-.278.43 0 .43zm-1.439-.317c.277 0 .277-.43 0-.43-.275 0-.275.43 0 .43zm-1.757-.321c.277 0 .277-.429 0-.429-.275 0-.275.43 0 .43zm-12.295-2.875c.277 0 .277-.43 0-.43-.278 0-.278.43 0 .43zm8.624 1.756c.277 0 .277-.429 0-.429-.278 0-.278.43 0 .43zm24.913.959c.278 0 .278-.43 0-.43-.277 0-.277.43 0 .43zm-3.674 2.235c.278 0 .278-.43 0-.43-.277 0-.277.43 0 .43zm-3.353 1.279c.277 0 .277-.43 0-.43-.278 0-.278.43 0 .43zm-3.834 4.151c.277 0 .277-.429 0-.429-.275 0-.275.43 0 .43zm-3.514-.798c.278 0 .278-.43 0-.43-.275 0-.275.43 0 .43zm-2.075.16c.278 0 .278-.429 0-.429-.277 0-.277.43 0 .43zm-2.394 0c.277 0 .277-.429 0-.429-.278 0-.278.43 0 .43zm-6.069-4.152c.277 0 .277-.429 0-.429-.278 0-.278.43 0 .43zm.317 2.395c.278 0 .278-.429 0-.429-.274 0-.274.43 0 .43zm5.271-2.715c.277 0 .277-.43 0-.43-.275 0-.275.43 0 .43zm4.312.209h-.16c-.112 0-.221.097-.215.215a.219.219 0 00.215.214h.16c.112 0 .22-.097.215-.215a.22.22 0 00-.215-.214zm4.152-1.168c.277 0 .277-.429 0-.429-.275 0-.275.43 0 .43zm4.818-1.862l.16-.32c.052-.101.029-.238-.077-.296-.097-.051-.24-.031-.295.078l-.16.32c-.051.1-.029.238.077.295.098.051.241.031.295-.077zm3.328-1.17c.277 0 .277-.43 0-.43-.278 0-.278.43 0 .43zm2.234-1.439c.278 0 .278-.43 0-.43-.274 0-.274.43 0 .43zm.481.8c.278 0 .278-.429 0-.429-.277 0-.277.43 0 .43zm-1.597 1.437c.278 0 .278-.43 0-.43-.277 0-.277.43 0 .43zm-3.834 2.715c.278 0 .278-.43 0-.43-.277 0-.277.43 0 .43zm-2.875.638c.277 0 .277-.429 0-.429-.275 0-.275.43 0 .43zm-7.505-1.756c.277 0 .277-.43 0-.43-.275 0-.278.43 0 .43zm3.834 1.916c.277 0 .277-.429 0-.429-.278 0-.278.43 0 .43zm-12.298-1.916c.277 0 .277-.43 0-.43-.278 0-.278.43 0 .43zm-4.312.798c.277 0 .277-.43 0-.43-.278 0-.278.43 0 .43zm-2.716-2.556c.278 0 .278-.429 0-.429-.274 0-.277.43 0 .43zm-.958-.477c.278 0 .278-.43 0-.43-.275 0-.275.43 0 .43zm3.353-.641c.278 0 .278-.43 0-.43-.274 0-.274.43 0 .43zm41.524-11.019c.277 0 .277-.43 0-.43-.278 0-.278.43 0 .43zm5.908 0c.278 0 .278-.43 0-.43-.275 0-.277.43 0 .43zm7.826-1.917c.277 0 .277-.43 0-.43-.278 0-.278.43 0 .43zm6.229-2.555c.277 0 .277-.43 0-.43-.278 0-.278.43 0 .43zm6.069-5.909c.277 0 .277-.43 0-.43-.278 0-.278.43 0 .43zm2.872-6.867c.278 0 .278-.43 0-.43-.274 0-.274.43 0 .43zm.641-3.671c.278 0 .278-.429 0-.429-.277 0-.277.43 0 .43zm.158-5.751c.277 0 .277-.43 0-.43-.275 0-.275.43 0 .43zm-38.05 6.131a1.86 1.86 0 100-3.72 1.86 1.86 0 000 3.72zm13.002-6.7a1.86 1.86 0 100-3.72 1.86 1.86 0 000 3.72z" fill="#000"/></svg>